<?xml version="1.0" encoding="UTF-8" standalone="no"?>
<!DOCTYPE svg PUBLIC "-//W3C//DTD SVG 1.1//EN"
 "http://www.w3.org/Graphics/SVG/1.1/DTD/svg11.dtd">
<!-- Generated by graphviz version 2.40.1 (20161225.0304)
 -->
<!-- Title: structs Pages: 1 -->
<svg width="1929pt" height="907pt"
 viewBox="0.00 0.00 1929.45 907.00" xmlns="http://www.w3.org/2000/svg" xmlns:xlink="http://www.w3.org/1999/xlink">
<g id="graph0" class="graph" transform="scale(1 1) rotate(0) translate(4 903)">
<title>structs</title>
<polygon fill="#ffffff" stroke="transparent" points="-4,4 -4,-903 1925.4499,-903 1925.4499,4 -4,4"/>
<!-- dwi_preproc_wfinputnode -->
<g id="node1" class="node">
<title>dwi_preproc_wfinputnode</title>
<polygon fill="none" stroke="#000000" points="308.2545,-691.5 308.2545,-898.5 576.2545,-898.5 576.2545,-691.5 308.2545,-691.5"/>
<text text-anchor="middle" x="325.7545" y="-791.3" font-family="Times,serif" font-size="14.00" fill="#000000">IN</text>
<polyline fill="none" stroke="#000000" points="343.2545,-691.5 343.2545,-898.5 "/>
<text text-anchor="middle" x="387.7545" y="-860.3" font-family="Times,serif" font-size="14.00" fill="#000000">inputnode</text>
<polyline fill="none" stroke="#000000" points="343.2545,-829.5 432.2545,-829.5 "/>
<text text-anchor="middle" x="387.7545" y="-791.3" font-family="Times,serif" font-size="14.00" fill="#000000">utility</text>
<polyline fill="none" stroke="#000000" points="343.2545,-760.5 432.2545,-760.5 "/>
<text text-anchor="middle" x="387.7545" y="-722.3" font-family="Times,serif" font-size="14.00" fill="#000000"> </text>
<polyline fill="none" stroke="#000000" points="432.2545,-691.5 432.2545,-898.5 "/>
<text text-anchor="middle" x="504.2545" y="-883.3" font-family="Times,serif" font-size="14.00" fill="#000000">OUT</text>
<polyline fill="none" stroke="#000000" points="432.2545,-875.5 576.2545,-875.5 "/>
<text text-anchor="middle" x="504.2545" y="-860.3" font-family="Times,serif" font-size="14.00" fill="#000000">dwi_file</text>
<polyline fill="none" stroke="#000000" points="432.2545,-852.5 576.2545,-852.5 "/>
<text text-anchor="middle" x="504.2545" y="-837.3" font-family="Times,serif" font-size="14.00" fill="#000000">fsnative2t1w_xfm</text>
<polyline fill="none" stroke="#000000" points="432.2545,-829.5 576.2545,-829.5 "/>
<text text-anchor="middle" x="504.2545" y="-814.3" font-family="Times,serif" font-size="14.00" fill="#000000">in_bval</text>
<polyline fill="none" stroke="#000000" points="432.2545,-806.5 576.2545,-806.5 "/>
<text text-anchor="middle" x="504.2545" y="-791.3" font-family="Times,serif" font-size="14.00" fill="#000000">in_bvec</text>
<polyline fill="none" stroke="#000000" points="432.2545,-783.5 576.2545,-783.5 "/>
<text text-anchor="middle" x="504.2545" y="-768.3" font-family="Times,serif" font-size="14.00" fill="#000000">subject_id</text>
<polyline fill="none" stroke="#000000" points="432.2545,-760.5 576.2545,-760.5 "/>
<text text-anchor="middle" x="504.2545" y="-745.3" font-family="Times,serif" font-size="14.00" fill="#000000">subjects_dir</text>
<polyline fill="none" stroke="#000000" points="432.2545,-737.5 576.2545,-737.5 "/>
<text text-anchor="middle" x="504.2545" y="-722.3" font-family="Times,serif" font-size="14.00" fill="#000000">t1w_mask</text>
<polyline fill="none" stroke="#000000" points="432.2545,-714.5 576.2545,-714.5 "/>
<text text-anchor="middle" x="504.2545" y="-699.3" font-family="Times,serif" font-size="14.00" fill="#000000">t1w_preproc</text>
</g>
<!-- dwi_preproc_wft1w_brain -->
<g id="node2" class="node">
<title>dwi_preproc_wft1w_brain</title>
<polygon fill="none" stroke="#000000" points="161.7545,-574 161.7545,-643 376.7545,-643 376.7545,-574 161.7545,-574"/>
<text text-anchor="middle" x="199.7545" y="-627.8" font-family="Times,serif" font-size="14.00" fill="#000000">IN</text>
<polyline fill="none" stroke="#000000" points="161.7545,-620 237.7545,-620 "/>
<text text-anchor="middle" x="199.7545" y="-604.8" font-family="Times,serif" font-size="14.00" fill="#000000">in_file</text>
<polyline fill="none" stroke="#000000" points="161.7545,-597 237.7545,-597 "/>
<text text-anchor="middle" x="199.7545" y="-581.8" font-family="Times,serif" font-size="14.00" fill="#000000">in_mask</text>
<polyline fill="none" stroke="#000000" points="237.7545,-574 237.7545,-643 "/>
<text text-anchor="middle" x="282.2545" y="-627.8" font-family="Times,serif" font-size="14.00" fill="#000000">t1w_brain</text>
<polyline fill="none" stroke="#000000" points="237.7545,-620 326.7545,-620 "/>
<text text-anchor="middle" x="282.2545" y="-604.8" font-family="Times,serif" font-size="14.00" fill="#000000">nibabel</text>
<polyline fill="none" stroke="#000000" points="237.7545,-597 326.7545,-597 "/>
<text text-anchor="middle" x="282.2545" y="-581.8" font-family="Times,serif" font-size="14.00" fill="#000000"> </text>
<polyline fill="none" stroke="#000000" points="326.7545,-574 326.7545,-643 "/>
<text text-anchor="middle" x="351.7545" y="-604.8" font-family="Times,serif" font-size="14.00" fill="#000000">OUT</text>
</g>
<!-- dwi_preproc_wfinputnode&#45;&gt;dwi_preproc_wft1w_brain -->
<g id="edge27" class="edge">
<title>dwi_preproc_wfinputnode:e&#45;&gt;dwi_preproc_wft1w_brain:w</title>
<path fill="none" stroke="#000000" d="M576.2545,-726C591.8101,-726 586.6097,-702.608 576.2545,-691 514.4624,-621.7318 223.0467,-712.7682 161.2545,-643.5 146.7758,-627.2695 138.3784,-597.137 151.5918,-588.1168"/>
<polygon fill="#000000" stroke="#000000" points="152.5171,-591.4923 161.2545,-585.5 150.6873,-584.7357 152.5171,-591.4923"/>
</g>
<!-- dwi_preproc_wfinputnode&#45;&gt;dwi_preproc_wft1w_brain -->
<g id="edge28" class="edge">
<title>dwi_preproc_wfinputnode:e&#45;&gt;dwi_preproc_wft1w_brain:w</title>
<path fill="none" stroke="#000000" d="M576.2545,-703C581.5879,-703 579.8049,-694.9799 576.2545,-691 514.4624,-621.7318 223.0467,-712.7682 161.2545,-643.5 153.9736,-635.3381 149.241,-621.3504 152.4801,-613.7646"/>
<polygon fill="#000000" stroke="#000000" points="154.4803,-616.6462 161.2545,-608.5 150.8788,-610.6437 154.4803,-616.6462"/>
</g>
<!-- dwi_preproc_wfgradient_table -->
<g id="node3" class="node">
<title>dwi_preproc_wfgradient_table</title>
<polygon fill="none" stroke="#000000" points="661.2545,-562.5 661.2545,-654.5 933.2545,-654.5 933.2545,-562.5 661.2545,-562.5"/>
<text text-anchor="middle" x="697.2545" y="-639.3" font-family="Times,serif" font-size="14.00" fill="#000000">IN</text>
<polyline fill="none" stroke="#000000" points="661.2545,-631.5 733.2545,-631.5 "/>
<text text-anchor="middle" x="697.2545" y="-616.3" font-family="Times,serif" font-size="14.00" fill="#000000">dwi_file</text>
<polyline fill="none" stroke="#000000" points="661.2545,-608.5 733.2545,-608.5 "/>
<text text-anchor="middle" x="697.2545" y="-593.3" font-family="Times,serif" font-size="14.00" fill="#000000">in_bval</text>
<polyline fill="none" stroke="#000000" points="661.2545,-585.5 733.2545,-585.5 "/>
<text text-anchor="middle" x="697.2545" y="-570.3" font-family="Times,serif" font-size="14.00" fill="#000000">in_bvec</text>
<polyline fill="none" stroke="#000000" points="733.2545,-562.5 733.2545,-654.5 "/>
<text text-anchor="middle" x="793.7545" y="-635.8" font-family="Times,serif" font-size="14.00" fill="#000000">gradient_table</text>
<polyline fill="none" stroke="#000000" points="733.2545,-624.5 854.2545,-624.5 "/>
<text text-anchor="middle" x="793.7545" y="-605.3" font-family="Times,serif" font-size="14.00" fill="#000000">vectors</text>
<polyline fill="none" stroke="#000000" points="733.2545,-593.5 854.2545,-593.5 "/>
<text text-anchor="middle" x="793.7545" y="-574.3" font-family="Times,serif" font-size="14.00" fill="#000000"> </text>
<polyline fill="none" stroke="#000000" points="854.2545,-562.5 854.2545,-654.5 "/>
<text text-anchor="middle" x="893.7545" y="-635.8" font-family="Times,serif" font-size="14.00" fill="#000000">OUT</text>
<polyline fill="none" stroke="#000000" points="854.2545,-624.5 933.2545,-624.5 "/>
<text text-anchor="middle" x="893.7545" y="-605.3" font-family="Times,serif" font-size="14.00" fill="#000000">b0_ixs</text>
<polyline fill="none" stroke="#000000" points="854.2545,-593.5 933.2545,-593.5 "/>
<text text-anchor="middle" x="893.7545" y="-574.3" font-family="Times,serif" font-size="14.00" fill="#000000">out_rasb</text>
</g>
<!-- dwi_preproc_wfinputnode&#45;&gt;dwi_preproc_wfgradient_table -->
<g id="edge18" class="edge">
<title>dwi_preproc_wfinputnode:e&#45;&gt;dwi_preproc_wfgradient_table:w</title>
<path fill="none" stroke="#000000" d="M576.2545,-864C579.4168,-864 640.4494,-674.2263 657.175,-629.7481"/>
<polygon fill="#000000" stroke="#000000" points="660.4208,-631.062 661.2545,-620.5 654.0163,-628.2368 660.4208,-631.062"/>
</g>
<!-- dwi_preproc_wfinputnode&#45;&gt;dwi_preproc_wfgradient_table -->
<g id="edge22" class="edge">
<title>dwi_preproc_wfinputnode:e&#45;&gt;dwi_preproc_wfgradient_table:w</title>
<path fill="none" stroke="#000000" d="M576.2545,-818C655.2732,-818 622.1843,-729.9362 647.2545,-655 650.4353,-645.4926 649.2009,-617.3401 654.0242,-603.858"/>
<polygon fill="#000000" stroke="#000000" points="656.742,-606.0858 661.2545,-596.5 651.7491,-601.1796 656.742,-606.0858"/>
</g>
<!-- dwi_preproc_wfinputnode&#45;&gt;dwi_preproc_wfgradient_table -->
<g id="edge24" class="edge">
<title>dwi_preproc_wfinputnode:e&#45;&gt;dwi_preproc_wfgradient_table:w</title>
<path fill="none" stroke="#000000" d="M576.2545,-795C646.021,-795 625.3261,-721.2307 647.2545,-655 651.9023,-640.9622 646.2363,-596.7434 653.4207,-580.006"/>
<polygon fill="#000000" stroke="#000000" points="655.7978,-582.5815 661.2545,-573.5 651.3254,-577.1965 655.7978,-582.5815"/>
</g>
<!-- dwi_preproc_wfdwi_reference_wf -->
<g id="node4" class="node">
<title>dwi_preproc_wfdwi_reference_wf</title>
<polygon fill="none" stroke="#000000" points="623.2545,-410.5 623.2545,-525.5 1141.2545,-525.5 1141.2545,-410.5 623.2545,-410.5"/>
<text text-anchor="middle" x="697.7545" y="-502.8" font-family="Times,serif" font-size="14.00" fill="#000000">IN</text>
<polyline fill="none" stroke="#000000" points="623.2545,-487.5 772.2545,-487.5 "/>
<text text-anchor="middle" x="697.7545" y="-464.8" font-family="Times,serif" font-size="14.00" fill="#000000">inputnode.b0_ixs</text>
<polyline fill="none" stroke="#000000" points="623.2545,-449.5 772.2545,-449.5 "/>
<text text-anchor="middle" x="697.7545" y="-426.3" font-family="Times,serif" font-size="14.00" fill="#000000">inputnode.dwi_file</text>
<polyline fill="none" stroke="#000000" points="772.2545,-410.5 772.2545,-525.5 "/>
<text text-anchor="middle" x="843.7545" y="-502.8" font-family="Times,serif" font-size="14.00" fill="#000000">dwi_reference_wf</text>
<polyline fill="none" stroke="#000000" points="772.2545,-487.5 915.2545,-487.5 "/>
<text text-anchor="middle" x="843.7545" y="-464.8" font-family="Times,serif" font-size="14.00" fill="#000000"> </text>
<polyline fill="none" stroke="#000000" points="772.2545,-449.5 915.2545,-449.5 "/>
<text text-anchor="middle" x="843.7545" y="-426.3" font-family="Times,serif" font-size="14.00" fill="#000000"> </text>
<polyline fill="none" stroke="#000000" points="915.2545,-410.5 915.2545,-525.5 "/>
<text text-anchor="middle" x="1028.2545" y="-510.3" font-family="Times,serif" font-size="14.00" fill="#000000">OUT</text>
<polyline fill="none" stroke="#000000" points="915.2545,-502.5 1141.2545,-502.5 "/>
<text text-anchor="middle" x="1028.2545" y="-487.3" font-family="Times,serif" font-size="14.00" fill="#000000">outputnode.dwi_file</text>
<polyline fill="none" stroke="#000000" points="915.2545,-479.5 1141.2545,-479.5 "/>
<text text-anchor="middle" x="1028.2545" y="-464.3" font-family="Times,serif" font-size="14.00" fill="#000000">outputnode.dwi_mask</text>
<polyline fill="none" stroke="#000000" points="915.2545,-456.5 1141.2545,-456.5 "/>
<text text-anchor="middle" x="1028.2545" y="-441.3" font-family="Times,serif" font-size="14.00" fill="#000000">outputnode.ref_image</text>
<polyline fill="none" stroke="#000000" points="915.2545,-433.5 1141.2545,-433.5 "/>
<text text-anchor="middle" x="1028.2545" y="-418.3" font-family="Times,serif" font-size="14.00" fill="#000000">outputnode.validation_report</text>
</g>
<!-- dwi_preproc_wfinputnode&#45;&gt;dwi_preproc_wfdwi_reference_wf -->
<g id="edge17" class="edge">
<title>dwi_preproc_wfinputnode:e&#45;&gt;dwi_preproc_wfdwi_reference_wf:w</title>
<path fill="none" stroke="#000000" d="M576.2545,-864C670.2942,-864 598.9897,-748.4778 609.2545,-655 610.4507,-644.1068 610.6835,-480.0111 619.1132,-439.1574"/>
<polygon fill="#000000" stroke="#000000" points="622.3229,-440.5538 623.2545,-430 615.9448,-437.6693 622.3229,-440.5538"/>
</g>
<!-- dwi_preproc_wfreportlets_wf -->
<g id="node6" class="node">
<title>dwi_preproc_wfreportlets_wf</title>
<polygon fill="none" stroke="#000000" points="1115.7545,-106.5 1115.7545,-221.5 1494.7545,-221.5 1494.7545,-106.5 1115.7545,-106.5"/>
<text text-anchor="middle" x="1223.7545" y="-206.3" font-family="Times,serif" font-size="14.00" fill="#000000">IN</text>
<polyline fill="none" stroke="#000000" points="1115.7545,-198.5 1331.7545,-198.5 "/>
<text text-anchor="middle" x="1223.7545" y="-183.3" font-family="Times,serif" font-size="14.00" fill="#000000">inputnode.dwi_mask</text>
<polyline fill="none" stroke="#000000" points="1115.7545,-175.5 1331.7545,-175.5 "/>
<text text-anchor="middle" x="1223.7545" y="-160.3" font-family="Times,serif" font-size="14.00" fill="#000000">inputnode.dwi_ref</text>
<polyline fill="none" stroke="#000000" points="1115.7545,-152.5 1331.7545,-152.5 "/>
<text text-anchor="middle" x="1223.7545" y="-137.3" font-family="Times,serif" font-size="14.00" fill="#000000">inputnode.source_file</text>
<polyline fill="none" stroke="#000000" points="1115.7545,-129.5 1331.7545,-129.5 "/>
<text text-anchor="middle" x="1223.7545" y="-114.3" font-family="Times,serif" font-size="14.00" fill="#000000">inputnode.validation_report</text>
<polyline fill="none" stroke="#000000" points="1331.7545,-106.5 1331.7545,-221.5 "/>
<text text-anchor="middle" x="1388.2545" y="-198.8" font-family="Times,serif" font-size="14.00" fill="#000000">reportlets_wf</text>
<polyline fill="none" stroke="#000000" points="1331.7545,-183.5 1444.7545,-183.5 "/>
<text text-anchor="middle" x="1388.2545" y="-160.8" font-family="Times,serif" font-size="14.00" fill="#000000"> </text>
<polyline fill="none" stroke="#000000" points="1331.7545,-145.5 1444.7545,-145.5 "/>
<text text-anchor="middle" x="1388.2545" y="-122.3" font-family="Times,serif" font-size="14.00" fill="#000000"> </text>
<polyline fill="none" stroke="#000000" points="1444.7545,-106.5 1444.7545,-221.5 "/>
<text text-anchor="middle" x="1469.7545" y="-160.3" font-family="Times,serif" font-size="14.00" fill="#000000">OUT</text>
</g>
<!-- dwi_preproc_wfinputnode&#45;&gt;dwi_preproc_wfreportlets_wf -->
<g id="edge19" class="edge">
<title>dwi_preproc_wfinputnode:e&#45;&gt;dwi_preproc_wfreportlets_wf:w</title>
<path fill="none" stroke="#000000" d="M576.2545,-864C1038.7382,-864 1256.3759,-770.6168 1494.2545,-374 1520.7722,-329.787 1528.9434,-296.14 1494.2545,-258 1437.331,-195.4133 1172.178,-284.5867 1115.2545,-222 1110.5236,-216.7984 1107.6916,-170.2858 1110.9705,-150.1855"/>
<polygon fill="#000000" stroke="#000000" points="1114.1996,-151.5422 1115.2545,-141 1107.8557,-148.5834 1114.1996,-151.5422"/>
</g>
<!-- dwi_preproc_wfdwi_derivatives_wf -->
<g id="node7" class="node">
<title>dwi_preproc_wfdwi_derivatives_wf</title>
<polygon fill="none" stroke="#000000" points="1512.7545,-118 1512.7545,-210 1887.7545,-210 1887.7545,-118 1512.7545,-118"/>
<text text-anchor="middle" x="1598.2545" y="-194.8" font-family="Times,serif" font-size="14.00" fill="#000000">IN</text>
<polyline fill="none" stroke="#000000" points="1512.7545,-187 1683.7545,-187 "/>
<text text-anchor="middle" x="1598.2545" y="-171.8" font-family="Times,serif" font-size="14.00" fill="#000000">inputnode.dwi_mask</text>
<polyline fill="none" stroke="#000000" points="1512.7545,-164 1683.7545,-164 "/>
<text text-anchor="middle" x="1598.2545" y="-148.8" font-family="Times,serif" font-size="14.00" fill="#000000">inputnode.dwi_ref</text>
<polyline fill="none" stroke="#000000" points="1512.7545,-141 1683.7545,-141 "/>
<text text-anchor="middle" x="1598.2545" y="-125.8" font-family="Times,serif" font-size="14.00" fill="#000000">inputnode.source_file</text>
<polyline fill="none" stroke="#000000" points="1683.7545,-118 1683.7545,-210 "/>
<text text-anchor="middle" x="1760.7545" y="-191.3" font-family="Times,serif" font-size="14.00" fill="#000000">dwi_derivatives_wf</text>
<polyline fill="none" stroke="#000000" points="1683.7545,-180 1837.7545,-180 "/>
<text text-anchor="middle" x="1760.7545" y="-160.8" font-family="Times,serif" font-size="14.00" fill="#000000"> </text>
<polyline fill="none" stroke="#000000" points="1683.7545,-149 1837.7545,-149 "/>
<text text-anchor="middle" x="1760.7545" y="-129.8" font-family="Times,serif" font-size="14.00" fill="#000000"> </text>
<polyline fill="none" stroke="#000000" points="1837.7545,-118 1837.7545,-210 "/>
<text text-anchor="middle" x="1862.7545" y="-160.3" font-family="Times,serif" font-size="14.00" fill="#000000">OUT</text>
</g>
<!-- dwi_preproc_wfinputnode&#45;&gt;dwi_preproc_wfdwi_derivatives_wf -->
<g id="edge16" class="edge">
<title>dwi_preproc_wfinputnode:e&#45;&gt;dwi_preproc_wfdwi_derivatives_wf:w</title>
<path fill="none" stroke="#000000" d="M576.2545,-864C924.858,-864 1035.8045,-838.4169 1332.2545,-655 1459.8268,-576.0696 1486.7372,-520.449 1519.2545,-374 1530.4297,-323.6702 1523.0229,-309.4177 1519.2545,-258 1517.6948,-236.718 1513.8143,-231.782 1512.2545,-210.5 1511.74,-203.4795 1506.5535,-158.1262 1508.5229,-138.2779"/>
<polygon fill="#000000" stroke="#000000" points="1511.7701,-139.5838 1512.2545,-129 1505.2757,-136.9716 1511.7701,-139.5838"/>
</g>
<!-- dwi_preproc_wfeddy_wf -->
<g id="node8" class="node">
<title>dwi_preproc_wfeddy_wf</title>
<polygon fill="none" stroke="#000000" points="593.2545,-258.5 593.2545,-373.5 1049.2545,-373.5 1049.2545,-258.5 593.2545,-258.5"/>
<text text-anchor="middle" x="675.2545" y="-358.3" font-family="Times,serif" font-size="14.00" fill="#000000">IN</text>
<polyline fill="none" stroke="#000000" points="593.2545,-350.5 757.2545,-350.5 "/>
<text text-anchor="middle" x="675.2545" y="-335.3" font-family="Times,serif" font-size="14.00" fill="#000000">inputnode.dwi_file</text>
<polyline fill="none" stroke="#000000" points="593.2545,-327.5 757.2545,-327.5 "/>
<text text-anchor="middle" x="675.2545" y="-312.3" font-family="Times,serif" font-size="14.00" fill="#000000">inputnode.dwi_mask</text>
<polyline fill="none" stroke="#000000" points="593.2545,-304.5 757.2545,-304.5 "/>
<text text-anchor="middle" x="675.2545" y="-289.3" font-family="Times,serif" font-size="14.00" fill="#000000">inputnode.in_bval</text>
<polyline fill="none" stroke="#000000" points="593.2545,-281.5 757.2545,-281.5 "/>
<text text-anchor="middle" x="675.2545" y="-266.3" font-family="Times,serif" font-size="14.00" fill="#000000">inputnode.in_bvec</text>
<polyline fill="none" stroke="#000000" points="757.2545,-258.5 757.2545,-373.5 "/>
<text text-anchor="middle" x="795.2545" y="-350.8" font-family="Times,serif" font-size="14.00" fill="#000000">eddy_wf</text>
<polyline fill="none" stroke="#000000" points="757.2545,-335.5 833.2545,-335.5 "/>
<text text-anchor="middle" x="795.2545" y="-312.8" font-family="Times,serif" font-size="14.00" fill="#000000"> </text>
<polyline fill="none" stroke="#000000" points="757.2545,-297.5 833.2545,-297.5 "/>
<text text-anchor="middle" x="795.2545" y="-274.3" font-family="Times,serif" font-size="14.00" fill="#000000"> </text>
<polyline fill="none" stroke="#000000" points="833.2545,-258.5 833.2545,-373.5 "/>
<text text-anchor="middle" x="941.2545" y="-341.3" font-family="Times,serif" font-size="14.00" fill="#000000">OUT</text>
<polyline fill="none" stroke="#000000" points="833.2545,-316.5 1049.2545,-316.5 "/>
<text text-anchor="middle" x="941.2545" y="-283.8" font-family="Times,serif" font-size="14.00" fill="#000000">outputnode.eddy_ref_image</text>
</g>
<!-- dwi_preproc_wfinputnode&#45;&gt;dwi_preproc_wfeddy_wf -->
<g id="edge21" class="edge">
<title>dwi_preproc_wfinputnode:e&#45;&gt;dwi_preproc_wfeddy_wf:w</title>
<path fill="none" stroke="#000000" d="M576.2545,-818C581.9216,-818 580.9304,-415.6578 581.2545,-410 584.0226,-361.6861 547.1488,-302.5511 583.1365,-294.0394"/>
<polygon fill="#000000" stroke="#000000" points="583.6646,-297.5036 593.2545,-293 582.9492,-290.5403 583.6646,-297.5036"/>
</g>
<!-- dwi_preproc_wfinputnode&#45;&gt;dwi_preproc_wfeddy_wf -->
<g id="edge23" class="edge">
<title>dwi_preproc_wfinputnode:e&#45;&gt;dwi_preproc_wfeddy_wf:w</title>
<path fill="none" stroke="#000000" d="M576.2545,-795C603.2136,-795 569.9648,-346.9343 587.7516,-278.6743"/>
<polygon fill="#000000" stroke="#000000" points="590.853,-280.3191 593.2545,-270 584.9421,-276.5692 590.853,-280.3191"/>
</g>
<!-- dwi_preproc_wfbbreg_wf -->
<g id="node11" class="node">
<title>dwi_preproc_wfbbreg_wf</title>
<polygon fill="none" stroke="#000000" points="29.7545,-258.5 29.7545,-373.5 512.7545,-373.5 512.7545,-258.5 29.7545,-258.5"/>
<text text-anchor="middle" x="140.2545" y="-358.3" font-family="Times,serif" font-size="14.00" fill="#000000">IN</text>
<polyline fill="none" stroke="#000000" points="29.7545,-350.5 250.7545,-350.5 "/>
<text text-anchor="middle" x="140.2545" y="-335.3" font-family="Times,serif" font-size="14.00" fill="#000000">inputnode.fsnative2t1w_xfm</text>
<polyline fill="none" stroke="#000000" points="29.7545,-327.5 250.7545,-327.5 "/>
<text text-anchor="middle" x="140.2545" y="-312.3" font-family="Times,serif" font-size="14.00" fill="#000000">inputnode.in_file</text>
<polyline fill="none" stroke="#000000" points="29.7545,-304.5 250.7545,-304.5 "/>
<text text-anchor="middle" x="140.2545" y="-289.3" font-family="Times,serif" font-size="14.00" fill="#000000">inputnode.subject_id</text>
<polyline fill="none" stroke="#000000" points="29.7545,-281.5 250.7545,-281.5 "/>
<text text-anchor="middle" x="140.2545" y="-266.3" font-family="Times,serif" font-size="14.00" fill="#000000">inputnode.subjects_dir</text>
<polyline fill="none" stroke="#000000" points="250.7545,-258.5 250.7545,-373.5 "/>
<text text-anchor="middle" x="292.2545" y="-350.8" font-family="Times,serif" font-size="14.00" fill="#000000">bbreg_wf</text>
<polyline fill="none" stroke="#000000" points="250.7545,-335.5 333.7545,-335.5 "/>
<text text-anchor="middle" x="292.2545" y="-312.8" font-family="Times,serif" font-size="14.00" fill="#000000"> </text>
<polyline fill="none" stroke="#000000" points="250.7545,-297.5 333.7545,-297.5 "/>
<text text-anchor="middle" x="292.2545" y="-274.3" font-family="Times,serif" font-size="14.00" fill="#000000"> </text>
<polyline fill="none" stroke="#000000" points="333.7545,-258.5 333.7545,-373.5 "/>
<text text-anchor="middle" x="423.2545" y="-350.8" font-family="Times,serif" font-size="14.00" fill="#000000">OUT</text>
<polyline fill="none" stroke="#000000" points="333.7545,-335.5 512.7545,-335.5 "/>
<text text-anchor="middle" x="423.2545" y="-312.8" font-family="Times,serif" font-size="14.00" fill="#000000">outputnode.fallback</text>
<polyline fill="none" stroke="#000000" points="333.7545,-297.5 512.7545,-297.5 "/>
<text text-anchor="middle" x="423.2545" y="-274.3" font-family="Times,serif" font-size="14.00" fill="#000000">outputnode.out_report</text>
</g>
<!-- dwi_preproc_wfinputnode&#45;&gt;dwi_preproc_wfbbreg_wf -->
<g id="edge20" class="edge">
<title>dwi_preproc_wfinputnode:e&#45;&gt;dwi_preproc_wfbbreg_wf:w</title>
<path fill="none" stroke="#000000" d="M576.2545,-841C642.9212,-841 617.4082,-743.4483 576.2545,-691 534.7321,-638.0818 481.3651,-697.5315 429.2545,-655 393.8298,-626.0871 416.8693,-595.0359 385.2545,-562 261.5431,-432.7278 121.6267,-527.2422 29.2545,-374 23.7335,-364.8409 18.4515,-351.7326 20.7442,-344.4343"/>
<polygon fill="#000000" stroke="#000000" points="22.71,-347.3318 29.2545,-339 18.9426,-341.432 22.71,-347.3318"/>
</g>
<!-- dwi_preproc_wfinputnode&#45;&gt;dwi_preproc_wfbbreg_wf -->
<g id="edge25" class="edge">
<title>dwi_preproc_wfinputnode:e&#45;&gt;dwi_preproc_wfbbreg_wf:w</title>
<path fill="none" stroke="#000000" d="M576.2545,-772C612.2545,-772 597.3443,-720.1757 576.2545,-691 546.3666,-649.653 505.7705,-688.4572 467.2545,-655 432.4417,-624.7595 450.8633,-597.3516 421.2545,-562 348.1966,-474.772 319.4492,-455.7126 215.2545,-410 138.148,-376.1716 82.8389,-438.9499 29.2545,-374 8.8504,-349.268 -3.7645,-304.3396 19.1524,-294.8074"/>
<polygon fill="#000000" stroke="#000000" points="20.0273,-298.2066 29.2545,-293 18.7944,-291.316 20.0273,-298.2066"/>
</g>
<!-- dwi_preproc_wfinputnode&#45;&gt;dwi_preproc_wfbbreg_wf -->
<g id="edge26" class="edge">
<title>dwi_preproc_wfinputnode:e&#45;&gt;dwi_preproc_wfbbreg_wf:w</title>
<path fill="none" stroke="#000000" d="M576.2545,-749C602.0323,-749 589.7451,-712.9659 576.2545,-691 557.7387,-660.8517 530.2555,-680.0341 505.2545,-655 472.5288,-622.2309 484.7056,-600.0149 458.2545,-562 405.6254,-486.3625 399.2565,-452.0303 317.2545,-410 259.8568,-380.5806 71.9395,-422.3528 29.2545,-374 1.1739,-342.1907 -14.3024,-281.144 19.1023,-271.3425"/>
<polygon fill="#000000" stroke="#000000" points="19.7997,-274.7809 29.2545,-270 18.882,-267.8413 19.7997,-274.7809"/>
</g>
<!-- dwi_preproc_wfds_report_reg -->
<g id="node12" class="node">
<title>dwi_preproc_wfds_report_reg</title>
<polygon fill="none" stroke="#000000" points="513.2545,-118 513.2545,-210 775.2545,-210 775.2545,-118 513.2545,-118"/>
<text text-anchor="middle" x="560.7545" y="-194.8" font-family="Times,serif" font-size="14.00" fill="#000000">IN</text>
<polyline fill="none" stroke="#000000" points="513.2545,-187 608.2545,-187 "/>
<text text-anchor="middle" x="560.7545" y="-171.8" font-family="Times,serif" font-size="14.00" fill="#000000">desc</text>
<polyline fill="none" stroke="#000000" points="513.2545,-164 608.2545,-164 "/>
<text text-anchor="middle" x="560.7545" y="-148.8" font-family="Times,serif" font-size="14.00" fill="#000000">in_file</text>
<polyline fill="none" stroke="#000000" points="513.2545,-141 608.2545,-141 "/>
<text text-anchor="middle" x="560.7545" y="-125.8" font-family="Times,serif" font-size="14.00" fill="#000000">source_file</text>
<polyline fill="none" stroke="#000000" points="608.2545,-118 608.2545,-210 "/>
<text text-anchor="middle" x="666.7545" y="-191.3" font-family="Times,serif" font-size="14.00" fill="#000000">ds_report_reg</text>
<polyline fill="none" stroke="#000000" points="608.2545,-180 725.2545,-180 "/>
<text text-anchor="middle" x="666.7545" y="-160.8" font-family="Times,serif" font-size="14.00" fill="#000000"> </text>
<polyline fill="none" stroke="#000000" points="608.2545,-149 725.2545,-149 "/>
<text text-anchor="middle" x="666.7545" y="-129.8" font-family="Times,serif" font-size="14.00" fill="#000000"> </text>
<polyline fill="none" stroke="#000000" points="725.2545,-118 725.2545,-210 "/>
<text text-anchor="middle" x="750.2545" y="-160.3" font-family="Times,serif" font-size="14.00" fill="#000000">OUT</text>
</g>
<!-- dwi_preproc_wfinputnode&#45;&gt;dwi_preproc_wfds_report_reg -->
<g id="edge15" class="edge">
<title>dwi_preproc_wfinputnode:e&#45;&gt;dwi_preproc_wfds_report_reg:w</title>
<path fill="none" stroke="#000000" d="M576.2545,-864C653.1434,-864 581.0213,-767.741 576.2545,-691 564.2314,-497.4378 552.3212,-449.5903 522.2545,-258 513.936,-204.9926 463.2123,-138.5239 503.2788,-129.9298"/>
<polygon fill="#000000" stroke="#000000" points="503.6225,-133.413 513.2545,-129 502.9728,-126.4432 503.6225,-133.413"/>
</g>
<!-- dwi_preproc_wfgradient_table&#45;&gt;dwi_preproc_wfdwi_reference_wf -->
<g id="edge13" class="edge">
<title>dwi_preproc_wfgradient_table:e&#45;&gt;dwi_preproc_wfdwi_reference_wf:w</title>
<path fill="none" stroke="#000000" d="M933.2545,-609.5C954.3656,-609.5 947.295,-577.7653 933.2545,-562 841.0063,-458.4192 715.5027,-629.5808 623.2545,-526 616.9363,-518.9056 612.9704,-490.3903 616.7261,-476.5761"/>
<polygon fill="#000000" stroke="#000000" points="619.378,-478.8602 623.2545,-469 614.0752,-474.2907 619.378,-478.8602"/>
</g>
<!-- dwi_preproc_wfoutputnode -->
<g id="node5" class="node">
<title>dwi_preproc_wfoutputnode</title>
<polygon fill="none" stroke="#000000" points="1143.7545,-270 1143.7545,-362 1484.7545,-362 1484.7545,-270 1143.7545,-270"/>
<text text-anchor="middle" x="1205.7545" y="-346.8" font-family="Times,serif" font-size="14.00" fill="#000000">IN</text>
<polyline fill="none" stroke="#000000" points="1143.7545,-339 1267.7545,-339 "/>
<text text-anchor="middle" x="1205.7545" y="-323.8" font-family="Times,serif" font-size="14.00" fill="#000000">dwi_mask</text>
<polyline fill="none" stroke="#000000" points="1143.7545,-316 1267.7545,-316 "/>
<text text-anchor="middle" x="1205.7545" y="-300.8" font-family="Times,serif" font-size="14.00" fill="#000000">dwi_reference</text>
<polyline fill="none" stroke="#000000" points="1143.7545,-293 1267.7545,-293 "/>
<text text-anchor="middle" x="1205.7545" y="-277.8" font-family="Times,serif" font-size="14.00" fill="#000000">gradients_rasb</text>
<polyline fill="none" stroke="#000000" points="1267.7545,-270 1267.7545,-362 "/>
<text text-anchor="middle" x="1316.7545" y="-343.3" font-family="Times,serif" font-size="14.00" fill="#000000">outputnode</text>
<polyline fill="none" stroke="#000000" points="1267.7545,-332 1365.7545,-332 "/>
<text text-anchor="middle" x="1316.7545" y="-312.8" font-family="Times,serif" font-size="14.00" fill="#000000">utility</text>
<polyline fill="none" stroke="#000000" points="1267.7545,-301 1365.7545,-301 "/>
<text text-anchor="middle" x="1316.7545" y="-281.8" font-family="Times,serif" font-size="14.00" fill="#000000"> </text>
<polyline fill="none" stroke="#000000" points="1365.7545,-270 1365.7545,-362 "/>
<text text-anchor="middle" x="1425.2545" y="-343.3" font-family="Times,serif" font-size="14.00" fill="#000000">OUT</text>
<polyline fill="none" stroke="#000000" points="1365.7545,-332 1484.7545,-332 "/>
<text text-anchor="middle" x="1425.2545" y="-312.8" font-family="Times,serif" font-size="14.00" fill="#000000">dwi_mask</text>
<polyline fill="none" stroke="#000000" points="1365.7545,-301 1484.7545,-301 "/>
<text text-anchor="middle" x="1425.2545" y="-281.8" font-family="Times,serif" font-size="14.00" fill="#000000">dwi_reference</text>
</g>
<!-- dwi_preproc_wfgradient_table&#45;&gt;dwi_preproc_wfoutputnode -->
<g id="edge14" class="edge">
<title>dwi_preproc_wfgradient_table:e&#45;&gt;dwi_preproc_wfoutputnode:w</title>
<path fill="none" stroke="#000000" d="M933.2545,-577.5C982.8162,-577.5 1119.5206,-564.8816 1150.2545,-526 1195.3575,-468.94 1148.5708,-435.0387 1143.2545,-362.5 1142.9986,-359.0074 1140.43,-312.1637 1141.3742,-291.1169"/>
<polygon fill="#000000" stroke="#000000" points="1144.8682,-291.4712 1143.2545,-281 1137.986,-290.192 1144.8682,-291.4712"/>
</g>
<!-- dwi_preproc_wfdwi_reference_wf&#45;&gt;dwi_preproc_wfoutputnode -->
<g id="edge6" class="edge">
<title>dwi_preproc_wfdwi_reference_wf:e&#45;&gt;dwi_preproc_wfoutputnode:w</title>
<path fill="none" stroke="#000000" d="M1141.2545,-468C1168.358,-468 1126.1501,-361.7674 1135.3842,-334.3793"/>
<polygon fill="#000000" stroke="#000000" points="1137.6899,-337.0158 1143.2545,-328 1133.2821,-331.5779 1137.6899,-337.0158"/>
</g>
<!-- dwi_preproc_wfdwi_reference_wf&#45;&gt;dwi_preproc_wfoutputnode -->
<g id="edge9" class="edge">
<title>dwi_preproc_wfdwi_reference_wf:e&#45;&gt;dwi_preproc_wfoutputnode:w</title>
<path fill="none" stroke="#000000" d="M1141.2545,-445C1168.5516,-445 1126.0314,-338.0086 1135.3287,-310.4249"/>
<polygon fill="#000000" stroke="#000000" points="1137.6902,-313.0161 1143.2545,-304 1133.2822,-307.5783 1137.6902,-313.0161"/>
</g>
<!-- dwi_preproc_wfdwi_reference_wf&#45;&gt;dwi_preproc_wfreportlets_wf -->
<g id="edge10" class="edge">
<title>dwi_preproc_wfdwi_reference_wf:e&#45;&gt;dwi_preproc_wfreportlets_wf:w</title>
<path fill="none" stroke="#000000" d="M1141.2545,-422C1146.3659,-422 1141.9235,-418.7347 1135.2545,-374 1125.2077,-306.6069 1119.7085,-289.9921 1115.2545,-222 1114.6467,-212.7213 1107.5346,-151.0332 1110.8007,-127.2903"/>
<polygon fill="#000000" stroke="#000000" points="1114.0876,-128.5304 1115.2545,-118 1107.7754,-125.5043 1114.0876,-128.5304"/>
</g>
<!-- dwi_preproc_wfdwi_reference_wf&#45;&gt;dwi_preproc_wfeddy_wf -->
<g id="edge4" class="edge">
<title>dwi_preproc_wfdwi_reference_wf:e&#45;&gt;dwi_preproc_wfeddy_wf:w</title>
<path fill="none" stroke="#000000" d="M1141.2545,-491C1159.2545,-491 1153.5582,-423.1385 1141.2545,-410 1057.8354,-320.921 676.6737,-463.079 593.2545,-374 585.7783,-366.0166 581.1251,-351.9564 584.4285,-344.3117"/>
<polygon fill="#000000" stroke="#000000" points="586.4913,-347.1553 593.2545,-339 582.8817,-341.1577 586.4913,-347.1553"/>
</g>
<!-- dwi_preproc_wfdwi_reference_wf&#45;&gt;dwi_preproc_wfeddy_wf -->
<g id="edge5" class="edge">
<title>dwi_preproc_wfdwi_reference_wf:e&#45;&gt;dwi_preproc_wfeddy_wf:w</title>
<path fill="none" stroke="#000000" d="M1141.2545,-468C1154.1434,-468 1150.0646,-419.4078 1141.2545,-410 1057.8354,-320.921 676.6737,-463.079 593.2545,-374 578.3876,-358.1243 570.2571,-327.7478 583.5634,-318.6428"/>
<polygon fill="#000000" stroke="#000000" points="584.5277,-322.0077 593.2545,-316 582.686,-315.2543 584.5277,-322.0077"/>
</g>
<!-- dwi_preproc_wfeddy_report -->
<g id="node9" class="node">
<title>dwi_preproc_wfeddy_report</title>
<polygon fill="none" stroke="#000000" points="839.2545,-129.5 839.2545,-198.5 1097.2545,-198.5 1097.2545,-129.5 839.2545,-129.5"/>
<text text-anchor="middle" x="870.2545" y="-183.3" font-family="Times,serif" font-size="14.00" fill="#000000">IN</text>
<polyline fill="none" stroke="#000000" points="839.2545,-175.5 901.2545,-175.5 "/>
<text text-anchor="middle" x="870.2545" y="-160.3" font-family="Times,serif" font-size="14.00" fill="#000000">after</text>
<polyline fill="none" stroke="#000000" points="839.2545,-152.5 901.2545,-152.5 "/>
<text text-anchor="middle" x="870.2545" y="-137.3" font-family="Times,serif" font-size="14.00" fill="#000000">before</text>
<polyline fill="none" stroke="#000000" points="901.2545,-129.5 901.2545,-198.5 "/>
<text text-anchor="middle" x="953.2545" y="-183.3" font-family="Times,serif" font-size="14.00" fill="#000000">eddy_report</text>
<polyline fill="none" stroke="#000000" points="901.2545,-175.5 1005.2545,-175.5 "/>
<text text-anchor="middle" x="953.2545" y="-160.3" font-family="Times,serif" font-size="14.00" fill="#000000">reportlets</text>
<polyline fill="none" stroke="#000000" points="901.2545,-152.5 1005.2545,-152.5 "/>
<text text-anchor="middle" x="953.2545" y="-137.3" font-family="Times,serif" font-size="14.00" fill="#000000"> </text>
<polyline fill="none" stroke="#000000" points="1005.2545,-129.5 1005.2545,-198.5 "/>
<text text-anchor="middle" x="1051.2545" y="-177.8" font-family="Times,serif" font-size="14.00" fill="#000000">OUT</text>
<polyline fill="none" stroke="#000000" points="1005.2545,-164.5 1097.2545,-164.5 "/>
<text text-anchor="middle" x="1051.2545" y="-143.3" font-family="Times,serif" font-size="14.00" fill="#000000">out_report</text>
</g>
<!-- dwi_preproc_wfdwi_reference_wf&#45;&gt;dwi_preproc_wfeddy_report -->
<g id="edge8" class="edge">
<title>dwi_preproc_wfdwi_reference_wf:e&#45;&gt;dwi_preproc_wfeddy_report:w</title>
<path fill="none" stroke="#000000" d="M1141.2545,-445C1156.8101,-445 1147.5831,-424.21 1141.2545,-410 1131.524,-388.1513 1114.6899,-393.7874 1101.2545,-374 1070.3681,-328.5111 1098.8774,-295.0539 1058.2545,-258 983.7791,-190.0677 900.5656,-279.0146 839.2545,-199 826.1482,-181.8954 816.9407,-152.8577 829.3303,-143.79"/>
<polygon fill="#000000" stroke="#000000" points="830.575,-147.0759 839.2545,-141 828.6805,-140.3371 830.575,-147.0759"/>
</g>
<!-- dwi_preproc_wfds_report_eddy -->
<g id="node10" class="node">
<title>dwi_preproc_wfds_report_eddy</title>
<polygon fill="none" stroke="#000000" points="1506.7545,-.5 1506.7545,-69.5 1779.7545,-69.5 1779.7545,-.5 1506.7545,-.5"/>
<text text-anchor="middle" x="1554.2545" y="-54.3" font-family="Times,serif" font-size="14.00" fill="#000000">IN</text>
<polyline fill="none" stroke="#000000" points="1506.7545,-46.5 1601.7545,-46.5 "/>
<text text-anchor="middle" x="1554.2545" y="-31.3" font-family="Times,serif" font-size="14.00" fill="#000000">in_file</text>
<polyline fill="none" stroke="#000000" points="1506.7545,-23.5 1601.7545,-23.5 "/>
<text text-anchor="middle" x="1554.2545" y="-8.3" font-family="Times,serif" font-size="14.00" fill="#000000">source_file</text>
<polyline fill="none" stroke="#000000" points="1601.7545,-.5 1601.7545,-69.5 "/>
<text text-anchor="middle" x="1665.7545" y="-54.3" font-family="Times,serif" font-size="14.00" fill="#000000">ds_report_eddy</text>
<polyline fill="none" stroke="#000000" points="1601.7545,-46.5 1729.7545,-46.5 "/>
<text text-anchor="middle" x="1665.7545" y="-31.3" font-family="Times,serif" font-size="14.00" fill="#000000"> </text>
<polyline fill="none" stroke="#000000" points="1601.7545,-23.5 1729.7545,-23.5 "/>
<text text-anchor="middle" x="1665.7545" y="-8.3" font-family="Times,serif" font-size="14.00" fill="#000000"> </text>
<polyline fill="none" stroke="#000000" points="1729.7545,-.5 1729.7545,-69.5 "/>
<text text-anchor="middle" x="1754.7545" y="-31.3" font-family="Times,serif" font-size="14.00" fill="#000000">OUT</text>
</g>
<!-- dwi_preproc_wfdwi_reference_wf&#45;&gt;dwi_preproc_wfds_report_eddy -->
<g id="edge3" class="edge">
<title>dwi_preproc_wfdwi_reference_wf:e&#45;&gt;dwi_preproc_wfds_report_eddy:w</title>
<path fill="none" stroke="#000000" d="M1141.2545,-491C1319.5727,-491 1795.8248,-368.6608 1897.2545,-222 1926.58,-179.5973 1931.9985,-144.0898 1897.2545,-106 1838.4514,-41.534 1565.0577,-134.466 1506.2545,-70 1491.5969,-53.9309 1483.3225,-23.6874 1496.5787,-14.6286"/>
<polygon fill="#000000" stroke="#000000" points="1497.5219,-17.9993 1506.2545,-12 1495.6867,-11.2441 1497.5219,-17.9993"/>
</g>
<!-- dwi_preproc_wfdwi_reference_wf&#45;&gt;dwi_preproc_wfbbreg_wf -->
<g id="edge7" class="edge">
<title>dwi_preproc_wfdwi_reference_wf:e&#45;&gt;dwi_preproc_wfbbreg_wf:w</title>
<path fill="none" stroke="#000000" d="M1141.2545,-445C1156.8101,-445 1152.0746,-421.176 1141.2545,-410 1055.2676,-321.1843 115.2414,-462.8157 29.2545,-374 14.1258,-358.3736 6.1753,-327.8257 19.5442,-318.661"/>
<polygon fill="#000000" stroke="#000000" points="20.5352,-322.0186 29.2545,-316 18.6851,-315.2675 20.5352,-322.0186"/>
</g>
<!-- dwi_preproc_wfoutputnode&#45;&gt;dwi_preproc_wfreportlets_wf -->
<g id="edge30" class="edge">
<title>dwi_preproc_wfoutputnode:e&#45;&gt;dwi_preproc_wfreportlets_wf:w</title>
<path fill="none" stroke="#000000" d="M1485.2545,-317C1506.3656,-317 1499.1996,-285.3497 1485.2545,-269.5 1375.7384,-145.0256 1224.7706,-346.4744 1115.2545,-222 1111.9632,-218.2591 1109.6969,-204.9472 1110.5379,-195.8625"/>
<polygon fill="#000000" stroke="#000000" points="1113.6461,-197.472 1115.2545,-187 1107.4667,-194.1833 1113.6461,-197.472"/>
</g>
<!-- dwi_preproc_wfoutputnode&#45;&gt;dwi_preproc_wfreportlets_wf -->
<g id="edge32" class="edge">
<title>dwi_preproc_wfoutputnode:e&#45;&gt;dwi_preproc_wfreportlets_wf:w</title>
<path fill="none" stroke="#000000" d="M1485.2545,-285C1492.1434,-285 1489.805,-274.672 1485.2545,-269.5 1375.7384,-145.0256 1224.7706,-346.4744 1115.2545,-222 1108.8692,-214.7425 1104.8119,-185.7462 1108.6198,-171.7017"/>
<polygon fill="#000000" stroke="#000000" points="1111.3795,-173.8608 1115.2545,-164 1106.076,-169.292 1111.3795,-173.8608"/>
</g>
<!-- dwi_preproc_wfoutputnode&#45;&gt;dwi_preproc_wfdwi_derivatives_wf -->
<g id="edge29" class="edge">
<title>dwi_preproc_wfoutputnode:e&#45;&gt;dwi_preproc_wfdwi_derivatives_wf:w</title>
<path fill="none" stroke="#000000" d="M1485.2545,-317C1490.6368,-317 1503.2656,-227.2907 1504.2545,-222 1505.5801,-214.9085 1503.9138,-195.4395 1506.2631,-184.2339"/>
<polygon fill="#000000" stroke="#000000" points="1509.2008,-186.1452 1512.2545,-176 1503.5407,-182.0266 1509.2008,-186.1452"/>
</g>
<!-- dwi_preproc_wfoutputnode&#45;&gt;dwi_preproc_wfdwi_derivatives_wf -->
<g id="edge31" class="edge">
<title>dwi_preproc_wfoutputnode:e&#45;&gt;dwi_preproc_wfdwi_derivatives_wf:w</title>
<path fill="none" stroke="#000000" d="M1485.2545,-285C1492.5659,-285 1502.778,-229.1608 1504.2545,-222 1505.4526,-216.1898 1504.9334,-178.9861 1508.0185,-161.3063"/>
<polygon fill="#000000" stroke="#000000" points="1511.2972,-162.5515 1512.2545,-152 1504.9262,-159.6515 1511.2972,-162.5515"/>
</g>
<!-- dwi_preproc_wfeddy_wf&#45;&gt;dwi_preproc_wfeddy_report -->
<g id="edge12" class="edge">
<title>dwi_preproc_wfeddy_wf:e&#45;&gt;dwi_preproc_wfeddy_report:w</title>
<path fill="none" stroke="#000000" d="M1049.2545,-287C1062.1434,-287 1057.0388,-268.2727 1049.2545,-258 990.7031,-180.7314 897.806,-276.2686 839.2545,-199 832.6488,-190.2826 827.6419,-176.5206 830.6587,-169.1177"/>
<polygon fill="#000000" stroke="#000000" points="832.4526,-172.1231 839.2545,-164 828.8716,-166.1083 832.4526,-172.1231"/>
</g>
<!-- dwi_preproc_wfeddy_report&#45;&gt;dwi_preproc_wfds_report_eddy -->
<g id="edge11" class="edge">
<title>dwi_preproc_wfeddy_report:e&#45;&gt;dwi_preproc_wfds_report_eddy:w</title>
<path fill="none" stroke="#000000" d="M1097.2545,-147C1116.0109,-147 1093.5798,-118.8376 1107.2545,-106 1170.6059,-46.5268 1399.3089,-35.7227 1496.2023,-35.0366"/>
<polygon fill="#000000" stroke="#000000" points="1496.2674,-38.5365 1506.2545,-35 1496.2418,-31.5365 1496.2674,-38.5365"/>
</g>
<!-- dwi_preproc_wfbbreg_wf&#45;&gt;dwi_preproc_wfds_report_reg -->
<g id="edge1" class="edge">
<title>dwi_preproc_wfbbreg_wf:e&#45;&gt;dwi_preproc_wfds_report_reg:w</title>
<path fill="none" stroke="#000000" d="M513.2545,-317C540.5488,-317 496.5155,-210.0086 505.4206,-182.4249"/>
<polygon fill="#000000" stroke="#000000" points="507.7418,-185.0477 513.2545,-176 503.3028,-179.6352 507.7418,-185.0477"/>
</g>
<!-- dwi_preproc_wfbbreg_wf&#45;&gt;dwi_preproc_wfds_report_reg -->
<g id="edge2" class="edge">
<title>dwi_preproc_wfbbreg_wf:e&#45;&gt;dwi_preproc_wfds_report_reg:w</title>
<path fill="none" stroke="#000000" d="M513.2545,-278C537.2077,-278 499.6873,-185.7898 505.8708,-159.1353"/>
<polygon fill="#000000" stroke="#000000" points="508.4957,-161.466 513.2545,-152 503.6313,-156.4322 508.4957,-161.466"/>
</g>
</g>
</svg>
