<?xml version="1.0" encoding="UTF-8" standalone="no"?>
<!DOCTYPE svg PUBLIC "-//W3C//DTD SVG 1.1//EN"
 "http://www.w3.org/Graphics/SVG/1.1/DTD/svg11.dtd">
<!-- Generated by graphviz version 2.40.1 (20161225.0304)
 -->
<!-- Title: %3 Pages: 1 -->
<svg width="1217pt" height="476pt"
 viewBox="0.00 0.00 1216.83 476.00" xmlns="http://www.w3.org/2000/svg" xmlns:xlink="http://www.w3.org/1999/xlink">
<g id="graph0" class="graph" transform="scale(1 1) rotate(0) translate(4 472)">
<title>%3</title>
<polygon fill="#ffffff" stroke="transparent" points="-4,4 -4,-472 1212.8345,-472 1212.8345,4 -4,4"/>
<!-- inputnode (utility) -->
<g id="node1" class="node">
<title>inputnode (utility)</title>
<ellipse fill="none" stroke="#000000" cx="686.4435" cy="-450" rx="94.7833" ry="18"/>
<text text-anchor="middle" x="686.4435" y="-446.3" font-family="Times,serif" font-size="14.00" fill="#000000">inputnode (utility)</text>
</g>
<!-- dwi_derivatives_wf -->
<g id="node2" class="node">
<title>dwi_derivatives_wf</title>
<ellipse fill="none" stroke="#000000" cx="201.4435" cy="-90" rx="100.1823" ry="18"/>
<text text-anchor="middle" x="201.4435" y="-86.3" font-family="Times,serif" font-size="14.00" fill="#000000">dwi_derivatives_wf</text>
</g>
<!-- inputnode (utility)&#45;&gt;dwi_derivatives_wf -->
<g id="edge1" class="edge">
<title>inputnode (utility)&#45;&gt;dwi_derivatives_wf</title>
<path fill="none" stroke="#000000" d="M600.573,-442.2444C461.271,-427.2629 201.4435,-388.2898 201.4435,-306 201.4435,-306 201.4435,-306 201.4435,-234 201.4435,-193.876 201.4435,-147.4631 201.4435,-118.4177"/>
<polygon fill="#000000" stroke="#000000" points="204.9436,-118.1853 201.4435,-108.1854 197.9436,-118.1854 204.9436,-118.1853"/>
</g>
<!-- gradient_table (vectors) -->
<g id="node3" class="node">
<title>gradient_table (vectors)</title>
<ellipse fill="none" stroke="#000000" cx="497.4435" cy="-378" rx="122.6784" ry="18"/>
<text text-anchor="middle" x="497.4435" y="-374.3" font-family="Times,serif" font-size="14.00" fill="#000000">gradient_table (vectors)</text>
</g>
<!-- inputnode (utility)&#45;&gt;gradient_table (vectors) -->
<g id="edge2" class="edge">
<title>inputnode (utility)&#45;&gt;gradient_table (vectors)</title>
<path fill="none" stroke="#000000" d="M644.0282,-433.8418C616.6494,-423.4118 580.7881,-409.7503 551.3892,-398.5507"/>
<polygon fill="#000000" stroke="#000000" points="552.2793,-395.1445 541.6885,-394.8552 549.7873,-401.686 552.2793,-395.1445"/>
</g>
<!-- dwi_reference_wf -->
<g id="node4" class="node">
<title>dwi_reference_wf</title>
<ellipse fill="none" stroke="#000000" cx="513.4435" cy="-306" rx="92.8835" ry="18"/>
<text text-anchor="middle" x="513.4435" y="-302.3" font-family="Times,serif" font-size="14.00" fill="#000000">dwi_reference_wf</text>
</g>
<!-- inputnode (utility)&#45;&gt;dwi_reference_wf -->
<g id="edge3" class="edge">
<title>inputnode (utility)&#45;&gt;dwi_reference_wf</title>
<path fill="none" stroke="#000000" d="M678.8133,-431.9649C669.6261,-412.0922 652.506,-380.2664 629.4435,-360 612.6613,-345.2525 591.1619,-333.7581 571.2418,-325.2369"/>
<polygon fill="#000000" stroke="#000000" points="572.5014,-321.9706 561.9213,-321.411 569.8432,-328.4463 572.5014,-321.9706"/>
</g>
<!-- bbreg_wf -->
<g id="node5" class="node">
<title>bbreg_wf</title>
<ellipse fill="none" stroke="#000000" cx="896.4435" cy="-90" rx="53.8905" ry="18"/>
<text text-anchor="middle" x="896.4435" y="-86.3" font-family="Times,serif" font-size="14.00" fill="#000000">bbreg_wf</text>
</g>
<!-- inputnode (utility)&#45;&gt;bbreg_wf -->
<g id="edge4" class="edge">
<title>inputnode (utility)&#45;&gt;bbreg_wf</title>
<path fill="none" stroke="#000000" d="M750.1656,-436.5711C776.7854,-428.4044 806.5458,-415.6301 828.4435,-396 861.8928,-366.0146 874.4435,-350.9219 874.4435,-306 874.4435,-306 874.4435,-306 874.4435,-234 874.4435,-193.2316 883.167,-146.7078 889.6276,-117.8425"/>
<polygon fill="#000000" stroke="#000000" points="893.0491,-118.5809 891.8851,-108.0502 886.228,-117.0083 893.0491,-118.5809"/>
</g>
<!-- t1w_brain (nibabel) -->
<g id="node6" class="node">
<title>t1w_brain (nibabel)</title>
<ellipse fill="none" stroke="#000000" cx="1107.4435" cy="-378" rx="101.2821" ry="18"/>
<text text-anchor="middle" x="1107.4435" y="-374.3" font-family="Times,serif" font-size="14.00" fill="#000000">t1w_brain (nibabel)</text>
</g>
<!-- inputnode (utility)&#45;&gt;t1w_brain (nibabel) -->
<g id="edge5" class="edge">
<title>inputnode (utility)&#45;&gt;t1w_brain (nibabel)</title>
<path fill="none" stroke="#000000" d="M757.3843,-437.8676C830.9449,-425.2872 945.8893,-405.6292 1023.8222,-392.301"/>
<polygon fill="#000000" stroke="#000000" points="1024.8215,-395.681 1034.0883,-390.5453 1023.6414,-388.7812 1024.8215,-395.681"/>
</g>
<!-- ds_report_reg -->
<g id="node7" class="node">
<title>ds_report_reg</title>
<ellipse fill="none" stroke="#000000" cx="937.4435" cy="-18" rx="76.0865" ry="18"/>
<text text-anchor="middle" x="937.4435" y="-14.3" font-family="Times,serif" font-size="14.00" fill="#000000">ds_report_reg</text>
</g>
<!-- inputnode (utility)&#45;&gt;ds_report_reg -->
<g id="edge6" class="edge">
<title>inputnode (utility)&#45;&gt;ds_report_reg</title>
<path fill="none" stroke="#000000" d="M747.7153,-436.1822C781.4728,-427.2518 823.4922,-413.9239 858.4435,-396 917.7645,-365.5787 978.4435,-372.6667 978.4435,-306 978.4435,-306 978.4435,-306 978.4435,-162 978.4435,-120.1463 962.2239,-73.9754 950.1879,-45.4754"/>
<polygon fill="#000000" stroke="#000000" points="953.3373,-43.9412 946.1385,-36.1676 946.9185,-46.7337 953.3373,-43.9412"/>
</g>
<!-- eddy_wf -->
<g id="node8" class="node">
<title>eddy_wf</title>
<ellipse fill="none" stroke="#000000" cx="663.4435" cy="-162" rx="49.2915" ry="18"/>
<text text-anchor="middle" x="663.4435" y="-158.3" font-family="Times,serif" font-size="14.00" fill="#000000">eddy_wf</text>
</g>
<!-- inputnode (utility)&#45;&gt;eddy_wf -->
<g id="edge7" class="edge">
<title>inputnode (utility)&#45;&gt;eddy_wf</title>
<path fill="none" stroke="#000000" d="M685.0047,-431.9843C681.1163,-383.2939 670.3751,-248.7961 665.6842,-190.0573"/>
<polygon fill="#000000" stroke="#000000" points="669.1668,-189.6985 664.8817,-180.0089 662.189,-190.2558 669.1668,-189.6985"/>
</g>
<!-- ds_report_eddy -->
<g id="node9" class="node">
<title>ds_report_eddy</title>
<ellipse fill="none" stroke="#000000" cx="711.4435" cy="-18" rx="83.3857" ry="18"/>
<text text-anchor="middle" x="711.4435" y="-14.3" font-family="Times,serif" font-size="14.00" fill="#000000">ds_report_eddy</text>
</g>
<!-- inputnode (utility)&#45;&gt;ds_report_eddy -->
<g id="edge8" class="edge">
<title>inputnode (utility)&#45;&gt;ds_report_eddy</title>
<path fill="none" stroke="#000000" d="M717.7558,-432.855C755.65,-409.5472 814.4435,-364.0338 814.4435,-306 814.4435,-306 814.4435,-306 814.4435,-162 814.4435,-121.1184 818.6536,-105.6541 795.4435,-72 786.1582,-58.5366 772.3096,-47.6629 758.5218,-39.2986"/>
<polygon fill="#000000" stroke="#000000" points="759.9389,-36.0776 749.5185,-34.1624 756.4702,-42.1577 759.9389,-36.0776"/>
</g>
<!-- reportlets_wf -->
<g id="node10" class="node">
<title>reportlets_wf</title>
<ellipse fill="none" stroke="#000000" cx="73.4435" cy="-18" rx="73.387" ry="18"/>
<text text-anchor="middle" x="73.4435" y="-14.3" font-family="Times,serif" font-size="14.00" fill="#000000">reportlets_wf</text>
</g>
<!-- inputnode (utility)&#45;&gt;reportlets_wf -->
<g id="edge9" class="edge">
<title>inputnode (utility)&#45;&gt;reportlets_wf</title>
<path fill="none" stroke="#000000" d="M593.7924,-446.1044C503.9485,-440.5818 364.4475,-427.3677 247.4435,-396 148.5736,-369.4939 35.4435,-408.3613 35.4435,-306 35.4435,-306 35.4435,-306 35.4435,-162 35.4435,-120.3681 50.4763,-74.14 61.6316,-45.567"/>
<polygon fill="#000000" stroke="#000000" points="64.9013,-46.817 65.3847,-36.2332 58.4066,-44.2055 64.9013,-46.817"/>
</g>
<!-- gradient_table (vectors)&#45;&gt;dwi_reference_wf -->
<g id="edge10" class="edge">
<title>gradient_table (vectors)&#45;&gt;dwi_reference_wf</title>
<path fill="none" stroke="#000000" d="M501.481,-359.8314C503.1922,-352.131 505.227,-342.9743 507.1287,-334.4166"/>
<polygon fill="#000000" stroke="#000000" points="510.5989,-334.9344 509.3516,-324.4133 503.7656,-333.4159 510.5989,-334.9344"/>
</g>
<!-- outputnode (utility) -->
<g id="node11" class="node">
<title>outputnode (utility)</title>
<ellipse fill="none" stroke="#000000" cx="420.4435" cy="-90" rx="101.2821" ry="18"/>
<text text-anchor="middle" x="420.4435" y="-86.3" font-family="Times,serif" font-size="14.00" fill="#000000">outputnode (utility)</text>
</g>
<!-- gradient_table (vectors)&#45;&gt;outputnode (utility) -->
<g id="edge11" class="edge">
<title>gradient_table (vectors)&#45;&gt;outputnode (utility)</title>
<path fill="none" stroke="#000000" d="M462.1928,-360.7116C445.5183,-351.3885 426.1013,-338.7622 411.4435,-324 358.4318,-270.6108 343.0039,-252.3734 322.4435,-180 318.0711,-164.609 314.3055,-157.7758 322.4435,-144 331.1166,-129.3182 345.3644,-118.3559 360.344,-110.2885"/>
<polygon fill="#000000" stroke="#000000" points="362.3219,-113.2142 369.7222,-105.6321 359.2089,-106.9444 362.3219,-113.2142"/>
</g>
<!-- dwi_reference_wf&#45;&gt;reportlets_wf -->
<g id="edge13" class="edge">
<title>dwi_reference_wf&#45;&gt;reportlets_wf</title>
<path fill="none" stroke="#000000" d="M445.6573,-293.6282C351.3069,-272.7066 181.931,-221.0414 92.4435,-108 78.6441,-90.5685 74.2345,-65.4794 73.0829,-46.2167"/>
<polygon fill="#000000" stroke="#000000" points="76.5802,-46.0744 72.7394,-36.2002 69.5843,-46.3144 76.5802,-46.0744"/>
</g>
<!-- brainextraction_wf -->
<g id="node12" class="node">
<title>brainextraction_wf</title>
<ellipse fill="none" stroke="#000000" cx="544.4435" cy="-234" rx="98.5829" ry="18"/>
<text text-anchor="middle" x="544.4435" y="-230.3" font-family="Times,serif" font-size="14.00" fill="#000000">brainextraction_wf</text>
</g>
<!-- dwi_reference_wf&#45;&gt;brainextraction_wf -->
<g id="edge12" class="edge">
<title>dwi_reference_wf&#45;&gt;brainextraction_wf</title>
<path fill="none" stroke="#000000" d="M521.2661,-287.8314C524.6544,-279.9617 528.6976,-270.5712 532.4511,-261.8533"/>
<polygon fill="#000000" stroke="#000000" points="535.7756,-262.9822 536.5155,-252.4133 529.3462,-260.214 535.7756,-262.9822"/>
</g>
<!-- bbreg_wf&#45;&gt;ds_report_reg -->
<g id="edge14" class="edge">
<title>bbreg_wf&#45;&gt;ds_report_reg</title>
<path fill="none" stroke="#000000" d="M906.5783,-72.2022C911.3091,-63.8944 917.0394,-53.8316 922.2719,-44.6427"/>
<polygon fill="#000000" stroke="#000000" points="925.3762,-46.2644 927.2831,-35.8425 919.2933,-42.8005 925.3762,-46.2644"/>
</g>
<!-- eddy_report (reportlets) -->
<g id="node13" class="node">
<title>eddy_report (reportlets)</title>
<ellipse fill="none" stroke="#000000" cx="663.4435" cy="-90" rx="123.4781" ry="18"/>
<text text-anchor="middle" x="663.4435" y="-86.3" font-family="Times,serif" font-size="14.00" fill="#000000">eddy_report (reportlets)</text>
</g>
<!-- eddy_wf&#45;&gt;eddy_report (reportlets) -->
<g id="edge15" class="edge">
<title>eddy_wf&#45;&gt;eddy_report (reportlets)</title>
<path fill="none" stroke="#000000" d="M663.4435,-143.8314C663.4435,-136.131 663.4435,-126.9743 663.4435,-118.4166"/>
<polygon fill="#000000" stroke="#000000" points="666.9436,-118.4132 663.4435,-108.4133 659.9436,-118.4133 666.9436,-118.4132"/>
</g>
<!-- outputnode (utility)&#45;&gt;reportlets_wf -->
<g id="edge16" class="edge">
<title>outputnode (utility)&#45;&gt;reportlets_wf</title>
<path fill="none" stroke="#000000" d="M354.3587,-76.2879C292.7037,-63.4949 201.2127,-44.5112 139.5506,-31.7167"/>
<polygon fill="#000000" stroke="#000000" points="140.0425,-28.2443 129.54,-29.6396 138.6203,-35.0984 140.0425,-28.2443"/>
</g>
<!-- brainextraction_wf&#45;&gt;eddy_wf -->
<g id="edge17" class="edge">
<title>brainextraction_wf&#45;&gt;eddy_wf</title>
<path fill="none" stroke="#000000" d="M572.9469,-216.7542C589.6932,-206.622 610.9844,-193.7399 628.7075,-183.0167"/>
<polygon fill="#000000" stroke="#000000" points="630.8633,-185.8032 637.6074,-177.6319 627.2397,-179.8141 630.8633,-185.8032"/>
</g>
<!-- brainextraction_wf&#45;&gt;eddy_report (reportlets) -->
<g id="edge18" class="edge">
<title>brainextraction_wf&#45;&gt;eddy_report (reportlets)</title>
<path fill="none" stroke="#000000" d="M555.03,-215.9009C566.4058,-197.0944 585.5489,-167.2221 605.4435,-144 614.2015,-133.7771 624.7374,-123.4805 634.4128,-114.6597"/>
<polygon fill="#000000" stroke="#000000" points="636.8157,-117.2063 641.9374,-107.9317 632.1498,-111.988 636.8157,-117.2063"/>
</g>
<!-- buffernode (utility) -->
<g id="node14" class="node">
<title>buffernode (utility)</title>
<ellipse fill="none" stroke="#000000" cx="430.4435" cy="-162" rx="98.5829" ry="18"/>
<text text-anchor="middle" x="430.4435" y="-158.3" font-family="Times,serif" font-size="14.00" fill="#000000">buffernode (utility)</text>
</g>
<!-- brainextraction_wf&#45;&gt;buffernode (utility) -->
<g id="edge19" class="edge">
<title>brainextraction_wf&#45;&gt;buffernode (utility)</title>
<path fill="none" stroke="#000000" d="M516.8473,-216.5708C501.8354,-207.0896 483.0765,-195.2419 466.877,-185.0107"/>
<polygon fill="#000000" stroke="#000000" points="468.5046,-181.899 458.1807,-179.5182 464.7666,-187.8174 468.5046,-181.899"/>
</g>
<!-- eddy_report (reportlets)&#45;&gt;ds_report_eddy -->
<g id="edge20" class="edge">
<title>eddy_report (reportlets)&#45;&gt;ds_report_eddy</title>
<path fill="none" stroke="#000000" d="M675.5559,-71.8314C681.1122,-63.497 687.8057,-53.4567 693.8993,-44.3162"/>
<polygon fill="#000000" stroke="#000000" points="696.8663,-46.1754 699.5012,-35.9134 691.042,-42.2925 696.8663,-46.1754"/>
</g>
<!-- buffernode (utility)&#45;&gt;dwi_derivatives_wf -->
<g id="edge21" class="edge">
<title>buffernode (utility)&#45;&gt;dwi_derivatives_wf</title>
<path fill="none" stroke="#000000" d="M380.7539,-146.3771C345.6146,-135.3289 298.3323,-120.4629 261.1432,-108.7702"/>
<polygon fill="#000000" stroke="#000000" points="262.0204,-105.3772 251.431,-105.7166 259.9208,-112.0549 262.0204,-105.3772"/>
</g>
<!-- buffernode (utility)&#45;&gt;bbreg_wf -->
<g id="edge23" class="edge">
<title>buffernode (utility)&#45;&gt;bbreg_wf</title>
<path fill="none" stroke="#000000" d="M509.2236,-151.0289C583.2174,-140.5624 696.9737,-124.055 795.4435,-108 809.589,-105.6936 824.821,-103.0587 839.0587,-100.5297"/>
<polygon fill="#000000" stroke="#000000" points="839.9926,-103.9183 849.2206,-98.7131 838.7607,-97.0276 839.9926,-103.9183"/>
</g>
<!-- buffernode (utility)&#45;&gt;outputnode (utility) -->
<g id="edge22" class="edge">
<title>buffernode (utility)&#45;&gt;outputnode (utility)</title>
<path fill="none" stroke="#000000" d="M427.9201,-143.8314C426.8506,-136.131 425.5788,-126.9743 424.3902,-118.4166"/>
<polygon fill="#000000" stroke="#000000" points="427.8434,-117.8367 423.0009,-108.4133 420.9099,-118.7997 427.8434,-117.8367"/>
</g>
</g>
</svg>
