<?xml version="1.0" encoding="UTF-8" standalone="no"?>
<!DOCTYPE svg PUBLIC "-//W3C//DTD SVG 1.1//EN"
 "http://www.w3.org/Graphics/SVG/1.1/DTD/svg11.dtd">
<!-- Generated by graphviz version 2.40.1 (20161225.0304)
 -->
<!-- Title: structs Pages: 1 -->
<svg width="2100pt" height="948pt"
 viewBox="0.00 0.00 2100.00 948.00" xmlns="http://www.w3.org/2000/svg" xmlns:xlink="http://www.w3.org/1999/xlink">
<g id="graph0" class="graph" transform="scale(1 1) rotate(0) translate(4 944)">
<title>structs</title>
<polygon fill="#ffffff" stroke="transparent" points="-4,4 -4,-944 2096,-944 2096,4 -4,4"/>
<!-- single_subject_THP0005_wfabout -->
<g id="node1" class="node">
<title>single_subject_THP0005_wfabout</title>
<polygon fill="none" stroke="#000000" points="0,-836 0,-905 196,-905 196,-836 0,-836"/>
<text text-anchor="middle" x="17.5" y="-866.8" font-family="Times,serif" font-size="14.00" fill="#000000">IN</text>
<polyline fill="none" stroke="#000000" points="35,-836 35,-905 "/>
<text text-anchor="middle" x="69.5" y="-889.8" font-family="Times,serif" font-size="14.00" fill="#000000">about</text>
<polyline fill="none" stroke="#000000" points="35,-882 104,-882 "/>
<text text-anchor="middle" x="69.5" y="-866.8" font-family="Times,serif" font-size="14.00" fill="#000000">reports</text>
<polyline fill="none" stroke="#000000" points="35,-859 104,-859 "/>
<text text-anchor="middle" x="69.5" y="-843.8" font-family="Times,serif" font-size="14.00" fill="#000000"> </text>
<polyline fill="none" stroke="#000000" points="104,-836 104,-905 "/>
<text text-anchor="middle" x="150" y="-884.3" font-family="Times,serif" font-size="14.00" fill="#000000">OUT</text>
<polyline fill="none" stroke="#000000" points="104,-871 196,-871 "/>
<text text-anchor="middle" x="150" y="-849.8" font-family="Times,serif" font-size="14.00" fill="#000000">out_report</text>
</g>
<!-- single_subject_THP0005_wfds_report_about -->
<g id="node3" class="node">
<title>single_subject_THP0005_wfds_report_about</title>
<polygon fill="none" stroke="#000000" points="196.5,-695.5 196.5,-764.5 475.5,-764.5 475.5,-695.5 196.5,-695.5"/>
<text text-anchor="middle" x="244" y="-749.3" font-family="Times,serif" font-size="14.00" fill="#000000">IN</text>
<polyline fill="none" stroke="#000000" points="196.5,-741.5 291.5,-741.5 "/>
<text text-anchor="middle" x="244" y="-726.3" font-family="Times,serif" font-size="14.00" fill="#000000">in_file</text>
<polyline fill="none" stroke="#000000" points="196.5,-718.5 291.5,-718.5 "/>
<text text-anchor="middle" x="244" y="-703.3" font-family="Times,serif" font-size="14.00" fill="#000000">source_file</text>
<polyline fill="none" stroke="#000000" points="291.5,-695.5 291.5,-764.5 "/>
<text text-anchor="middle" x="358.5" y="-749.3" font-family="Times,serif" font-size="14.00" fill="#000000">ds_report_about</text>
<polyline fill="none" stroke="#000000" points="291.5,-741.5 425.5,-741.5 "/>
<text text-anchor="middle" x="358.5" y="-726.3" font-family="Times,serif" font-size="14.00" fill="#000000"> </text>
<polyline fill="none" stroke="#000000" points="291.5,-718.5 425.5,-718.5 "/>
<text text-anchor="middle" x="358.5" y="-703.3" font-family="Times,serif" font-size="14.00" fill="#000000"> </text>
<polyline fill="none" stroke="#000000" points="425.5,-695.5 425.5,-764.5 "/>
<text text-anchor="middle" x="450.5" y="-726.3" font-family="Times,serif" font-size="14.00" fill="#000000">OUT</text>
</g>
<!-- single_subject_THP0005_wfabout&#45;&gt;single_subject_THP0005_wfds_report_about -->
<g id="edge1" class="edge">
<title>single_subject_THP0005_wfabout:e&#45;&gt;single_subject_THP0005_wfds_report_about:w</title>
<path fill="none" stroke="#000000" d="M196,-853.5C246.6007,-853.5 157.2588,-748.5431 185.9935,-732.1436"/>
<polygon fill="#000000" stroke="#000000" points="186.955,-735.5171 196,-730 185.4887,-728.6724 186.955,-735.5171"/>
</g>
<!-- single_subject_THP0005_wfbidssrc -->
<g id="node2" class="node">
<title>single_subject_THP0005_wfbidssrc</title>
<polygon fill="none" stroke="#000000" points="607,-801.5 607,-939.5 761,-939.5 761,-801.5 607,-801.5"/>
<text text-anchor="middle" x="624.5" y="-866.8" font-family="Times,serif" font-size="14.00" fill="#000000">IN</text>
<polyline fill="none" stroke="#000000" points="642,-801.5 642,-939.5 "/>
<text text-anchor="middle" x="676.5" y="-912.8" font-family="Times,serif" font-size="14.00" fill="#000000">bidssrc</text>
<polyline fill="none" stroke="#000000" points="642,-893.5 711,-893.5 "/>
<text text-anchor="middle" x="676.5" y="-866.8" font-family="Times,serif" font-size="14.00" fill="#000000"> </text>
<polyline fill="none" stroke="#000000" points="642,-847.5 711,-847.5 "/>
<text text-anchor="middle" x="676.5" y="-820.8" font-family="Times,serif" font-size="14.00" fill="#000000"> </text>
<polyline fill="none" stroke="#000000" points="711,-801.5 711,-939.5 "/>
<text text-anchor="middle" x="736" y="-924.3" font-family="Times,serif" font-size="14.00" fill="#000000">OUT</text>
<polyline fill="none" stroke="#000000" points="711,-916.5 761,-916.5 "/>
<text text-anchor="middle" x="736" y="-901.3" font-family="Times,serif" font-size="14.00" fill="#000000">dwi</text>
<polyline fill="none" stroke="#000000" points="711,-893.5 761,-893.5 "/>
<text text-anchor="middle" x="736" y="-878.3" font-family="Times,serif" font-size="14.00" fill="#000000">flair</text>
<polyline fill="none" stroke="#000000" points="711,-870.5 761,-870.5 "/>
<text text-anchor="middle" x="736" y="-855.3" font-family="Times,serif" font-size="14.00" fill="#000000">roi</text>
<polyline fill="none" stroke="#000000" points="711,-847.5 761,-847.5 "/>
<text text-anchor="middle" x="736" y="-832.3" font-family="Times,serif" font-size="14.00" fill="#000000">t1w</text>
<polyline fill="none" stroke="#000000" points="711,-824.5 761,-824.5 "/>
<text text-anchor="middle" x="736" y="-809.3" font-family="Times,serif" font-size="14.00" fill="#000000">t2w</text>
</g>
<!-- single_subject_THP0005_wfbidssrc&#45;&gt;single_subject_THP0005_wfds_report_about -->
<g id="edge22" class="edge">
<title>single_subject_THP0005_wfbidssrc:e&#45;&gt;single_subject_THP0005_wfds_report_about:w</title>
<path fill="none" stroke="#000000" d="M761,-835.5C776.3333,-835.5 771.4919,-812.1817 761,-801 674.9137,-709.2539 282.0863,-856.7461 196,-765 181.1174,-749.139 172.9976,-718.7524 186.3077,-709.6438"/>
<polygon fill="#000000" stroke="#000000" points="187.2736,-713.0083 196,-707 185.4314,-706.2551 187.2736,-713.0083"/>
</g>
<!-- single_subject_THP0005_wfbids_info -->
<g id="node4" class="node">
<title>single_subject_THP0005_wfbids_info</title>
<polygon fill="none" stroke="#000000" points="904,-695.5 904,-764.5 1114,-764.5 1114,-695.5 904,-695.5"/>
<text text-anchor="middle" x="934" y="-743.8" font-family="Times,serif" font-size="14.00" fill="#000000">IN</text>
<polyline fill="none" stroke="#000000" points="904,-730.5 964,-730.5 "/>
<text text-anchor="middle" x="934" y="-709.3" font-family="Times,serif" font-size="14.00" fill="#000000">in_file</text>
<polyline fill="none" stroke="#000000" points="964,-695.5 964,-764.5 "/>
<text text-anchor="middle" x="1004.5" y="-749.3" font-family="Times,serif" font-size="14.00" fill="#000000">bids_info</text>
<polyline fill="none" stroke="#000000" points="964,-741.5 1045,-741.5 "/>
<text text-anchor="middle" x="1004.5" y="-726.3" font-family="Times,serif" font-size="14.00" fill="#000000">bids</text>
<polyline fill="none" stroke="#000000" points="964,-718.5 1045,-718.5 "/>
<text text-anchor="middle" x="1004.5" y="-703.3" font-family="Times,serif" font-size="14.00" fill="#000000"> </text>
<polyline fill="none" stroke="#000000" points="1045,-695.5 1045,-764.5 "/>
<text text-anchor="middle" x="1079.5" y="-743.8" font-family="Times,serif" font-size="14.00" fill="#000000">OUT</text>
<polyline fill="none" stroke="#000000" points="1045,-730.5 1114,-730.5 "/>
<text text-anchor="middle" x="1079.5" y="-709.3" font-family="Times,serif" font-size="14.00" fill="#000000">subject</text>
</g>
<!-- single_subject_THP0005_wfbidssrc&#45;&gt;single_subject_THP0005_wfbids_info -->
<g id="edge21" class="edge">
<title>single_subject_THP0005_wfbidssrc:e&#45;&gt;single_subject_THP0005_wfbids_info:w</title>
<path fill="none" stroke="#000000" d="M761,-835.5C828.2952,-835.5 855.4118,-819.4189 895,-765 899.9586,-758.1838 896.3803,-734.3026 898.3297,-721.4086"/>
<polygon fill="#000000" stroke="#000000" points="901.3108,-723.2479 904,-713 895.5071,-719.3341 901.3108,-723.2479"/>
</g>
<!-- single_subject_THP0005_wfsummary -->
<g id="node6" class="node">
<title>single_subject_THP0005_wfsummary</title>
<polygon fill="none" stroke="#000000" points="599.5,-440 599.5,-578 878.5,-578 878.5,-440 599.5,-440"/>
<text text-anchor="middle" x="651.5" y="-562.8" font-family="Times,serif" font-size="14.00" fill="#000000">IN</text>
<polyline fill="none" stroke="#000000" points="599.5,-555 703.5,-555 "/>
<text text-anchor="middle" x="651.5" y="-539.8" font-family="Times,serif" font-size="14.00" fill="#000000">dwi</text>
<polyline fill="none" stroke="#000000" points="599.5,-532 703.5,-532 "/>
<text text-anchor="middle" x="651.5" y="-516.8" font-family="Times,serif" font-size="14.00" fill="#000000">subject_id</text>
<polyline fill="none" stroke="#000000" points="599.5,-509 703.5,-509 "/>
<text text-anchor="middle" x="651.5" y="-493.8" font-family="Times,serif" font-size="14.00" fill="#000000">subjects_dir</text>
<polyline fill="none" stroke="#000000" points="599.5,-486 703.5,-486 "/>
<text text-anchor="middle" x="651.5" y="-470.8" font-family="Times,serif" font-size="14.00" fill="#000000">t1w</text>
<polyline fill="none" stroke="#000000" points="599.5,-463 703.5,-463 "/>
<text text-anchor="middle" x="651.5" y="-447.8" font-family="Times,serif" font-size="14.00" fill="#000000">t2w</text>
<polyline fill="none" stroke="#000000" points="703.5,-440 703.5,-578 "/>
<text text-anchor="middle" x="745" y="-551.3" font-family="Times,serif" font-size="14.00" fill="#000000">summary</text>
<polyline fill="none" stroke="#000000" points="703.5,-532 786.5,-532 "/>
<text text-anchor="middle" x="745" y="-505.3" font-family="Times,serif" font-size="14.00" fill="#000000">reports</text>
<polyline fill="none" stroke="#000000" points="703.5,-486 786.5,-486 "/>
<text text-anchor="middle" x="745" y="-459.3" font-family="Times,serif" font-size="14.00" fill="#000000"> </text>
<polyline fill="none" stroke="#000000" points="786.5,-440 786.5,-578 "/>
<text text-anchor="middle" x="832.5" y="-539.8" font-family="Times,serif" font-size="14.00" fill="#000000">OUT</text>
<polyline fill="none" stroke="#000000" points="786.5,-509 878.5,-509 "/>
<text text-anchor="middle" x="832.5" y="-470.8" font-family="Times,serif" font-size="14.00" fill="#000000">out_report</text>
</g>
<!-- single_subject_THP0005_wfbidssrc&#45;&gt;single_subject_THP0005_wfsummary -->
<g id="edge17" class="edge">
<title>single_subject_THP0005_wfbidssrc:e&#45;&gt;single_subject_THP0005_wfsummary:w</title>
<path fill="none" stroke="#000000" d="M761,-905.5C807.4444,-905.5 788.8897,-838.1383 761,-801 726.5395,-755.112 675.8906,-807.199 637,-765 605.8676,-731.2192 557.4914,-571.9041 589.1638,-547.2173"/>
<polygon fill="#000000" stroke="#000000" points="590.5836,-550.4355 599,-544 588.4074,-543.7823 590.5836,-550.4355"/>
</g>
<!-- single_subject_THP0005_wfbidssrc&#45;&gt;single_subject_THP0005_wfsummary -->
<g id="edge24" class="edge">
<title>single_subject_THP0005_wfbidssrc:e&#45;&gt;single_subject_THP0005_wfsummary:w</title>
<path fill="none" stroke="#000000" d="M761,-835.5C776.3333,-835.5 770.5945,-812.9606 761,-801 714.8486,-743.467 645.1514,-822.533 599,-765 560.7492,-717.3159 537.0292,-499.7424 589.1761,-476.0879"/>
<polygon fill="#000000" stroke="#000000" points="589.9461,-479.5025 599,-474 588.4908,-472.6554 589.9461,-479.5025"/>
</g>
<!-- single_subject_THP0005_wfbidssrc&#45;&gt;single_subject_THP0005_wfsummary -->
<g id="edge26" class="edge">
<title>single_subject_THP0005_wfbidssrc:e&#45;&gt;single_subject_THP0005_wfsummary:w</title>
<path fill="none" stroke="#000000" d="M761,-812.5C766.1111,-812.5 764.2641,-804.933 761,-801 705.5534,-734.1909 624.4466,-831.8091 569,-765 528.2087,-715.8494 476.4893,-465.7494 588.761,-451.623"/>
<polygon fill="#000000" stroke="#000000" points="589.2311,-455.101 599,-451 588.8059,-448.1139 589.2311,-455.101"/>
</g>
<!-- single_subject_THP0005_wfds_report_summary -->
<g id="node7" class="node">
<title>single_subject_THP0005_wfds_report_summary</title>
<polygon fill="none" stroke="#000000" points="701.5,-127 701.5,-196 1006.5,-196 1006.5,-127 701.5,-127"/>
<text text-anchor="middle" x="749" y="-180.8" font-family="Times,serif" font-size="14.00" fill="#000000">IN</text>
<polyline fill="none" stroke="#000000" points="701.5,-173 796.5,-173 "/>
<text text-anchor="middle" x="749" y="-157.8" font-family="Times,serif" font-size="14.00" fill="#000000">in_file</text>
<polyline fill="none" stroke="#000000" points="701.5,-150 796.5,-150 "/>
<text text-anchor="middle" x="749" y="-134.8" font-family="Times,serif" font-size="14.00" fill="#000000">source_file</text>
<polyline fill="none" stroke="#000000" points="796.5,-127 796.5,-196 "/>
<text text-anchor="middle" x="876.5" y="-180.8" font-family="Times,serif" font-size="14.00" fill="#000000">ds_report_summary</text>
<polyline fill="none" stroke="#000000" points="796.5,-173 956.5,-173 "/>
<text text-anchor="middle" x="876.5" y="-157.8" font-family="Times,serif" font-size="14.00" fill="#000000"> </text>
<polyline fill="none" stroke="#000000" points="796.5,-150 956.5,-150 "/>
<text text-anchor="middle" x="876.5" y="-134.8" font-family="Times,serif" font-size="14.00" fill="#000000"> </text>
<polyline fill="none" stroke="#000000" points="956.5,-127 956.5,-196 "/>
<text text-anchor="middle" x="981.5" y="-157.8" font-family="Times,serif" font-size="14.00" fill="#000000">OUT</text>
</g>
<!-- single_subject_THP0005_wfbidssrc&#45;&gt;single_subject_THP0005_wfds_report_summary -->
<g id="edge23" class="edge">
<title>single_subject_THP0005_wfbidssrc:e&#45;&gt;single_subject_THP0005_wfds_report_summary:w</title>
<path fill="none" stroke="#000000" d="M761,-835.5C776.3333,-835.5 770.945,-812.6709 761,-801 695.6013,-724.2516 602.3987,-841.7484 537,-765 352.508,-548.4901 411.7346,-148.0231 690.9738,-138.6669"/>
<polygon fill="#000000" stroke="#000000" points="691.0597,-142.166 701,-138.5 690.9431,-135.167 691.0597,-142.166"/>
</g>
<!-- single_subject_THP0005_wfanat_preproc_wf -->
<g id="node8" class="node">
<title>single_subject_THP0005_wfanat_preproc_wf</title>
<polygon fill="none" stroke="#000000" points="1142,-359.5 1142,-658.5 1690,-658.5 1690,-359.5 1142,-359.5"/>
<text text-anchor="middle" x="1232.5" y="-633.8" font-family="Times,serif" font-size="14.00" fill="#000000">IN</text>
<polyline fill="none" stroke="#000000" points="1142,-616.5 1323,-616.5 "/>
<text text-anchor="middle" x="1232.5" y="-591.3" font-family="Times,serif" font-size="14.00" fill="#000000">inputnode.flair</text>
<polyline fill="none" stroke="#000000" points="1142,-573.5 1323,-573.5 "/>
<text text-anchor="middle" x="1232.5" y="-548.3" font-family="Times,serif" font-size="14.00" fill="#000000">inputnode.roi</text>
<polyline fill="none" stroke="#000000" points="1142,-530.5 1323,-530.5 "/>
<text text-anchor="middle" x="1232.5" y="-505.8" font-family="Times,serif" font-size="14.00" fill="#000000">inputnode.subject_id</text>
<polyline fill="none" stroke="#000000" points="1142,-488.5 1323,-488.5 "/>
<text text-anchor="middle" x="1232.5" y="-463.3" font-family="Times,serif" font-size="14.00" fill="#000000">inputnode.subjects_dir</text>
<polyline fill="none" stroke="#000000" points="1142,-445.5 1323,-445.5 "/>
<text text-anchor="middle" x="1232.5" y="-420.3" font-family="Times,serif" font-size="14.00" fill="#000000">inputnode.t1w</text>
<polyline fill="none" stroke="#000000" points="1142,-402.5 1323,-402.5 "/>
<text text-anchor="middle" x="1232.5" y="-377.3" font-family="Times,serif" font-size="14.00" fill="#000000">inputnode.t2w</text>
<polyline fill="none" stroke="#000000" points="1323,-359.5 1323,-658.5 "/>
<text text-anchor="middle" x="1391.5" y="-605.3" font-family="Times,serif" font-size="14.00" fill="#000000">anat_preproc_wf</text>
<polyline fill="none" stroke="#000000" points="1323,-559.5 1460,-559.5 "/>
<text text-anchor="middle" x="1391.5" y="-505.8" font-family="Times,serif" font-size="14.00" fill="#000000"> </text>
<polyline fill="none" stroke="#000000" points="1323,-459.5 1460,-459.5 "/>
<text text-anchor="middle" x="1391.5" y="-405.8" font-family="Times,serif" font-size="14.00" fill="#000000"> </text>
<polyline fill="none" stroke="#000000" points="1460,-359.5 1460,-658.5 "/>
<text text-anchor="middle" x="1575" y="-643.3" font-family="Times,serif" font-size="14.00" fill="#000000">OUT</text>
<polyline fill="none" stroke="#000000" points="1460,-635.5 1690,-635.5 "/>
<text text-anchor="middle" x="1575" y="-620.3" font-family="Times,serif" font-size="14.00" fill="#000000">outputnode.anat2std_xfm</text>
<polyline fill="none" stroke="#000000" points="1460,-612.5 1690,-612.5 "/>
<text text-anchor="middle" x="1575" y="-597.3" font-family="Times,serif" font-size="14.00" fill="#000000">outputnode.fsnative2t1w_xfm</text>
<polyline fill="none" stroke="#000000" points="1460,-589.5 1690,-589.5 "/>
<text text-anchor="middle" x="1575" y="-574.3" font-family="Times,serif" font-size="14.00" fill="#000000">outputnode.std2anat_xfm</text>
<polyline fill="none" stroke="#000000" points="1460,-566.5 1690,-566.5 "/>
<text text-anchor="middle" x="1575" y="-551.3" font-family="Times,serif" font-size="14.00" fill="#000000">outputnode.subjects_dir</text>
<polyline fill="none" stroke="#000000" points="1460,-543.5 1690,-543.5 "/>
<text text-anchor="middle" x="1575" y="-528.3" font-family="Times,serif" font-size="14.00" fill="#000000">outputnode.t1w2fsnative_xfm</text>
<polyline fill="none" stroke="#000000" points="1460,-520.5 1690,-520.5 "/>
<text text-anchor="middle" x="1575" y="-505.3" font-family="Times,serif" font-size="14.00" fill="#000000">outputnode.t1w_aparc</text>
<polyline fill="none" stroke="#000000" points="1460,-497.5 1690,-497.5 "/>
<text text-anchor="middle" x="1575" y="-482.3" font-family="Times,serif" font-size="14.00" fill="#000000">outputnode.t1w_aseg</text>
<polyline fill="none" stroke="#000000" points="1460,-474.5 1690,-474.5 "/>
<text text-anchor="middle" x="1575" y="-459.3" font-family="Times,serif" font-size="14.00" fill="#000000">outputnode.t1w_dseg</text>
<polyline fill="none" stroke="#000000" points="1460,-451.5 1690,-451.5 "/>
<text text-anchor="middle" x="1575" y="-436.3" font-family="Times,serif" font-size="14.00" fill="#000000">outputnode.t1w_mask</text>
<polyline fill="none" stroke="#000000" points="1460,-428.5 1690,-428.5 "/>
<text text-anchor="middle" x="1575" y="-413.3" font-family="Times,serif" font-size="14.00" fill="#000000">outputnode.t1w_preproc</text>
<polyline fill="none" stroke="#000000" points="1460,-405.5 1690,-405.5 "/>
<text text-anchor="middle" x="1575" y="-390.3" font-family="Times,serif" font-size="14.00" fill="#000000">outputnode.t1w_tpms</text>
<polyline fill="none" stroke="#000000" points="1460,-382.5 1690,-382.5 "/>
<text text-anchor="middle" x="1575" y="-367.3" font-family="Times,serif" font-size="14.00" fill="#000000">outputnode.template</text>
</g>
<!-- single_subject_THP0005_wfbidssrc&#45;&gt;single_subject_THP0005_wfanat_preproc_wf -->
<g id="edge18" class="edge">
<title>single_subject_THP0005_wfbidssrc:e&#45;&gt;single_subject_THP0005_wfanat_preproc_wf:w</title>
<path fill="none" stroke="#000000" d="M761,-882.5C868.8745,-882.5 1165.5915,-850.0107 1232,-765 1251.1523,-740.4828 1249.4418,-720.7621 1232,-695 1207.8474,-659.3258 1166.1526,-694.6742 1142,-659 1135.8954,-649.9833 1130.8017,-617.2578 1135.1322,-602.413"/>
<polygon fill="#000000" stroke="#000000" points="1137.7713,-604.7144 1142,-595 1132.6363,-599.957 1137.7713,-604.7144"/>
</g>
<!-- single_subject_THP0005_wfbidssrc&#45;&gt;single_subject_THP0005_wfanat_preproc_wf -->
<g id="edge19" class="edge">
<title>single_subject_THP0005_wfbidssrc:e&#45;&gt;single_subject_THP0005_wfanat_preproc_wf:w</title>
<path fill="none" stroke="#000000" d="M761,-858.5C859.44,-858.5 1132.1734,-841.6022 1194,-765 1213.5398,-740.7905 1208.4389,-722.5576 1194,-695 1180.9544,-670.1015 1155.0456,-683.8985 1142,-659 1132.6458,-641.1468 1122.065,-576.6786 1133.5404,-557.4503"/>
<polygon fill="#000000" stroke="#000000" points="1135.4892,-560.3583 1142,-552 1131.698,-554.4738 1135.4892,-560.3583"/>
</g>
<!-- single_subject_THP0005_wfbidssrc&#45;&gt;single_subject_THP0005_wfanat_preproc_wf -->
<g id="edge20" class="edge">
<title>single_subject_THP0005_wfbidssrc:e&#45;&gt;single_subject_THP0005_wfanat_preproc_wf:w</title>
<path fill="none" stroke="#000000" d="M761,-835.5C850.1649,-835.5 1098.7572,-833.3641 1156,-765 1175.9729,-741.1466 1161.7364,-725.5777 1156,-695 1152.8346,-678.1271 1145.1654,-675.8729 1142,-659 1137.7215,-636.1936 1120.4264,-468.3337 1134.9538,-431.2412"/>
<polygon fill="#000000" stroke="#000000" points="1137.5346,-433.6078 1142,-424 1132.5177,-428.7261 1137.5346,-433.6078"/>
</g>
<!-- single_subject_THP0005_wfbidssrc&#45;&gt;single_subject_THP0005_wfanat_preproc_wf -->
<g id="edge25" class="edge">
<title>single_subject_THP0005_wfbidssrc:e&#45;&gt;single_subject_THP0005_wfanat_preproc_wf:w</title>
<path fill="none" stroke="#000000" d="M761,-812.5C801.567,-812.5 1095.5002,-794.8235 1123,-765 1136.1501,-750.7387 1123.4681,-445.6459 1137.0297,-389.7529"/>
<polygon fill="#000000" stroke="#000000" points="1140.1056,-391.4241 1142,-381 1134.0185,-387.9676 1140.1056,-391.4241"/>
</g>
<!-- single_subject_THP0005_wfbids_info&#45;&gt;single_subject_THP0005_wfsummary -->
<g id="edge16" class="edge">
<title>single_subject_THP0005_wfbids_info:e&#45;&gt;single_subject_THP0005_wfsummary:w</title>
<path fill="none" stroke="#000000" d="M1114,-713C1122,-713 1118.994,-701.2498 1114,-695 967.5072,-511.6671 745.4928,-761.8329 599,-578.5 585.6644,-561.8107 576.7662,-532.8433 589.1337,-523.7876"/>
<polygon fill="#000000" stroke="#000000" points="590.3284,-527.0872 599,-521 588.4251,-520.3509 590.3284,-527.0872"/>
</g>
<!-- single_subject_THP0005_wfbids_info&#45;&gt;single_subject_THP0005_wfanat_preproc_wf -->
<g id="edge14" class="edge">
<title>single_subject_THP0005_wfbids_info:e&#45;&gt;single_subject_THP0005_wfanat_preproc_wf:w</title>
<path fill="none" stroke="#000000" d="M1114,-713C1126.3967,-713 1125.8578,-671.2102 1128,-659 1130.4358,-645.1168 1126.8535,-547.7103 1135.8333,-518.354"/>
<polygon fill="#000000" stroke="#000000" points="1138.8769,-520.1241 1142,-510 1133.2451,-515.9668 1138.8769,-520.1241"/>
</g>
<!-- single_subject_THP0005_wfdwi_preproc_wf -->
<g id="node9" class="node">
<title>single_subject_THP0005_wfdwi_preproc_wf</title>
<polygon fill="none" stroke="#000000" points="1690,-.5 1690,-322.5 2092,-322.5 2092,-.5 1690,-.5"/>
<text text-anchor="middle" x="1800.5" y="-307.3" font-family="Times,serif" font-size="14.00" fill="#000000">IN</text>
<polyline fill="none" stroke="#000000" points="1690,-299.5 1911,-299.5 "/>
<text text-anchor="middle" x="1800.5" y="-284.3" font-family="Times,serif" font-size="14.00" fill="#000000">inputnode.anat2std_xfm</text>
<polyline fill="none" stroke="#000000" points="1690,-276.5 1911,-276.5 "/>
<text text-anchor="middle" x="1800.5" y="-261.3" font-family="Times,serif" font-size="14.00" fill="#000000">inputnode.fsnative2t1w_xfm</text>
<polyline fill="none" stroke="#000000" points="1690,-253.5 1911,-253.5 "/>
<text text-anchor="middle" x="1800.5" y="-238.3" font-family="Times,serif" font-size="14.00" fill="#000000">inputnode.std2anat_xfm</text>
<polyline fill="none" stroke="#000000" points="1690,-230.5 1911,-230.5 "/>
<text text-anchor="middle" x="1800.5" y="-215.3" font-family="Times,serif" font-size="14.00" fill="#000000">inputnode.subject_id</text>
<polyline fill="none" stroke="#000000" points="1690,-207.5 1911,-207.5 "/>
<text text-anchor="middle" x="1800.5" y="-192.3" font-family="Times,serif" font-size="14.00" fill="#000000">inputnode.subjects_dir</text>
<polyline fill="none" stroke="#000000" points="1690,-184.5 1911,-184.5 "/>
<text text-anchor="middle" x="1800.5" y="-169.3" font-family="Times,serif" font-size="14.00" fill="#000000">inputnode.t1w2fsnative_xfm</text>
<polyline fill="none" stroke="#000000" points="1690,-161.5 1911,-161.5 "/>
<text text-anchor="middle" x="1800.5" y="-146.3" font-family="Times,serif" font-size="14.00" fill="#000000">inputnode.t1w_aparc</text>
<polyline fill="none" stroke="#000000" points="1690,-138.5 1911,-138.5 "/>
<text text-anchor="middle" x="1800.5" y="-123.3" font-family="Times,serif" font-size="14.00" fill="#000000">inputnode.t1w_aseg</text>
<polyline fill="none" stroke="#000000" points="1690,-115.5 1911,-115.5 "/>
<text text-anchor="middle" x="1800.5" y="-100.3" font-family="Times,serif" font-size="14.00" fill="#000000">inputnode.t1w_dseg</text>
<polyline fill="none" stroke="#000000" points="1690,-92.5 1911,-92.5 "/>
<text text-anchor="middle" x="1800.5" y="-77.3" font-family="Times,serif" font-size="14.00" fill="#000000">inputnode.t1w_mask</text>
<polyline fill="none" stroke="#000000" points="1690,-69.5 1911,-69.5 "/>
<text text-anchor="middle" x="1800.5" y="-54.3" font-family="Times,serif" font-size="14.00" fill="#000000">inputnode.t1w_preproc</text>
<polyline fill="none" stroke="#000000" points="1690,-46.5 1911,-46.5 "/>
<text text-anchor="middle" x="1800.5" y="-31.3" font-family="Times,serif" font-size="14.00" fill="#000000">inputnode.t1w_tpms</text>
<polyline fill="none" stroke="#000000" points="1690,-23.5 1911,-23.5 "/>
<text text-anchor="middle" x="1800.5" y="-8.3" font-family="Times,serif" font-size="14.00" fill="#000000">inputnode.template</text>
<polyline fill="none" stroke="#000000" points="1911,-.5 1911,-322.5 "/>
<text text-anchor="middle" x="1976.5" y="-265.3" font-family="Times,serif" font-size="14.00" fill="#000000">dwi_preproc_wf</text>
<polyline fill="none" stroke="#000000" points="1911,-215.5 2042,-215.5 "/>
<text text-anchor="middle" x="1976.5" y="-158.3" font-family="Times,serif" font-size="14.00" fill="#000000"> </text>
<polyline fill="none" stroke="#000000" points="1911,-108.5 2042,-108.5 "/>
<text text-anchor="middle" x="1976.5" y="-50.8" font-family="Times,serif" font-size="14.00" fill="#000000"> </text>
<polyline fill="none" stroke="#000000" points="2042,-.5 2042,-322.5 "/>
<text text-anchor="middle" x="2067" y="-157.8" font-family="Times,serif" font-size="14.00" fill="#000000">OUT</text>
</g>
<!-- single_subject_THP0005_wfbids_info&#45;&gt;single_subject_THP0005_wfdwi_preproc_wf -->
<g id="edge15" class="edge">
<title>single_subject_THP0005_wfbids_info:e&#45;&gt;single_subject_THP0005_wfdwi_preproc_wf:w</title>
<path fill="none" stroke="#000000" d="M1114,-713C1123.8475,-713 1126.7354,-366.5979 1133,-359 1212.1131,-263.0483 1544.8882,-221.6215 1679.8617,-219.5797"/>
<polygon fill="#000000" stroke="#000000" points="1680.0278,-223.0786 1690,-219.5 1679.9728,-216.0788 1680.0278,-223.0786"/>
</g>
<!-- single_subject_THP0005_wffsinputnode -->
<g id="node5" class="node">
<title>single_subject_THP0005_wffsinputnode</title>
<polygon fill="none" stroke="#000000" points="646,-695.5 646,-764.5 886,-764.5 886,-695.5 646,-695.5"/>
<text text-anchor="middle" x="663.5" y="-726.3" font-family="Times,serif" font-size="14.00" fill="#000000">IN</text>
<polyline fill="none" stroke="#000000" points="681,-695.5 681,-764.5 "/>
<text text-anchor="middle" x="731.5" y="-749.3" font-family="Times,serif" font-size="14.00" fill="#000000">fsinputnode</text>
<polyline fill="none" stroke="#000000" points="681,-741.5 782,-741.5 "/>
<text text-anchor="middle" x="731.5" y="-726.3" font-family="Times,serif" font-size="14.00" fill="#000000">utility</text>
<polyline fill="none" stroke="#000000" points="681,-718.5 782,-718.5 "/>
<text text-anchor="middle" x="731.5" y="-703.3" font-family="Times,serif" font-size="14.00" fill="#000000"> </text>
<polyline fill="none" stroke="#000000" points="782,-695.5 782,-764.5 "/>
<text text-anchor="middle" x="834" y="-743.8" font-family="Times,serif" font-size="14.00" fill="#000000">OUT</text>
<polyline fill="none" stroke="#000000" points="782,-730.5 886,-730.5 "/>
<text text-anchor="middle" x="834" y="-709.3" font-family="Times,serif" font-size="14.00" fill="#000000">subjects_dir</text>
</g>
<!-- single_subject_THP0005_wffsinputnode&#45;&gt;single_subject_THP0005_wfsummary -->
<g id="edge28" class="edge">
<title>single_subject_THP0005_wffsinputnode:e&#45;&gt;single_subject_THP0005_wfsummary:w</title>
<path fill="none" stroke="#000000" d="M886,-713C894,-713 890.4681,-701.6359 886,-695 809.1123,-580.8087 675.8877,-692.6913 599,-578.5 580.982,-551.7402 566.3266,-507.9994 588.9257,-498.7513"/>
<polygon fill="#000000" stroke="#000000" points="589.7472,-502.161 599,-497 588.5483,-495.2645 589.7472,-502.161"/>
</g>
<!-- single_subject_THP0005_wffsinputnode&#45;&gt;single_subject_THP0005_wfanat_preproc_wf -->
<g id="edge27" class="edge">
<title>single_subject_THP0005_wffsinputnode:e&#45;&gt;single_subject_THP0005_wfanat_preproc_wf:w</title>
<path fill="none" stroke="#000000" d="M886,-713C894.9443,-713 889.6262,-702.15 895,-695 982.6556,-578.3718 992.1899,-472.0953 1131.7259,-467.1777"/>
<polygon fill="#000000" stroke="#000000" points="1132.062,-470.6725 1142,-467 1131.9409,-463.6735 1132.062,-470.6725"/>
</g>
<!-- single_subject_THP0005_wfsummary&#45;&gt;single_subject_THP0005_wfds_report_summary -->
<g id="edge29" class="edge">
<title>single_subject_THP0005_wfsummary:e&#45;&gt;single_subject_THP0005_wfds_report_summary:w</title>
<path fill="none" stroke="#000000" d="M879,-474C1035.0933,-474 564.1279,-175.9768 690.8279,-162.0069"/>
<polygon fill="#000000" stroke="#000000" points="691.1866,-165.4935 701,-161.5 690.8382,-158.5022 691.1866,-165.4935"/>
</g>
<!-- single_subject_THP0005_wfanat_preproc_wf&#45;&gt;single_subject_THP0005_wfdwi_preproc_wf -->
<g id="edge2" class="edge">
<title>single_subject_THP0005_wfanat_preproc_wf:e&#45;&gt;single_subject_THP0005_wfdwi_preproc_wf:w</title>
<path fill="none" stroke="#000000" d="M1690,-624C1690,-624 1690,-354.3639 1690,-298.5408"/>
<polygon fill="#000000" stroke="#000000" points="1693.5001,-298.5 1690,-288.5 1686.5001,-298.5 1693.5001,-298.5"/>
</g>
<!-- single_subject_THP0005_wfanat_preproc_wf&#45;&gt;single_subject_THP0005_wfdwi_preproc_wf -->
<g id="edge3" class="edge">
<title>single_subject_THP0005_wfanat_preproc_wf:e&#45;&gt;single_subject_THP0005_wfdwi_preproc_wf:w</title>
<path fill="none" stroke="#000000" d="M1690,-601C1690,-601 1690,-331.3639 1690,-275.5408"/>
<polygon fill="#000000" stroke="#000000" points="1693.5001,-275.5 1690,-265.5 1686.5001,-275.5 1693.5001,-275.5"/>
</g>
<!-- single_subject_THP0005_wfanat_preproc_wf&#45;&gt;single_subject_THP0005_wfdwi_preproc_wf -->
<g id="edge4" class="edge">
<title>single_subject_THP0005_wfanat_preproc_wf:e&#45;&gt;single_subject_THP0005_wfdwi_preproc_wf:w</title>
<path fill="none" stroke="#000000" d="M1690,-578C1690,-578 1690,-308.3639 1690,-252.5408"/>
<polygon fill="#000000" stroke="#000000" points="1693.5001,-252.5 1690,-242.5 1686.5001,-252.5 1693.5001,-252.5"/>
</g>
<!-- single_subject_THP0005_wfanat_preproc_wf&#45;&gt;single_subject_THP0005_wfdwi_preproc_wf -->
<g id="edge5" class="edge">
<title>single_subject_THP0005_wfanat_preproc_wf:e&#45;&gt;single_subject_THP0005_wfdwi_preproc_wf:w</title>
<path fill="none" stroke="#000000" d="M1690,-555C1690,-555 1690,-265.6224 1690,-206.8426"/>
<polygon fill="#000000" stroke="#000000" points="1693.5001,-206.5 1690,-196.5 1686.5001,-206.5 1693.5001,-206.5"/>
</g>
<!-- single_subject_THP0005_wfanat_preproc_wf&#45;&gt;single_subject_THP0005_wfdwi_preproc_wf -->
<g id="edge6" class="edge">
<title>single_subject_THP0005_wfanat_preproc_wf:e&#45;&gt;single_subject_THP0005_wfdwi_preproc_wf:w</title>
<path fill="none" stroke="#000000" d="M1690,-532C1845.7546,-532 1544.7406,-189.4236 1679.9763,-174.0345"/>
<polygon fill="#000000" stroke="#000000" points="1680.2006,-177.5276 1690,-173.5 1679.8278,-170.5375 1680.2006,-177.5276"/>
</g>
<!-- single_subject_THP0005_wfanat_preproc_wf&#45;&gt;single_subject_THP0005_wfdwi_preproc_wf -->
<g id="edge7" class="edge">
<title>single_subject_THP0005_wfanat_preproc_wf:e&#45;&gt;single_subject_THP0005_wfdwi_preproc_wf:w</title>
<path fill="none" stroke="#000000" d="M1690,-509C1846.189,-509 1544.3354,-165.468 1679.9483,-150.0359"/>
<polygon fill="#000000" stroke="#000000" points="1680.2006,-153.5276 1690,-149.5 1679.8278,-146.5375 1680.2006,-153.5276"/>
</g>
<!-- single_subject_THP0005_wfanat_preproc_wf&#45;&gt;single_subject_THP0005_wfdwi_preproc_wf -->
<g id="edge8" class="edge">
<title>single_subject_THP0005_wfanat_preproc_wf:e&#45;&gt;single_subject_THP0005_wfdwi_preproc_wf:w</title>
<path fill="none" stroke="#000000" d="M1690,-486C1690,-486 1690,-195.8152 1690,-136.8714"/>
<polygon fill="#000000" stroke="#000000" points="1693.5001,-136.5 1690,-126.5 1686.5001,-136.5 1693.5001,-136.5"/>
</g>
<!-- single_subject_THP0005_wfanat_preproc_wf&#45;&gt;single_subject_THP0005_wfdwi_preproc_wf -->
<g id="edge9" class="edge">
<title>single_subject_THP0005_wfanat_preproc_wf:e&#45;&gt;single_subject_THP0005_wfdwi_preproc_wf:w</title>
<path fill="none" stroke="#000000" d="M1690,-463C1690,-463 1690,-172.8152 1690,-113.8714"/>
<polygon fill="#000000" stroke="#000000" points="1693.5001,-113.5 1690,-103.5 1686.5001,-113.5 1693.5001,-113.5"/>
</g>
<!-- single_subject_THP0005_wfanat_preproc_wf&#45;&gt;single_subject_THP0005_wfdwi_preproc_wf -->
<g id="edge10" class="edge">
<title>single_subject_THP0005_wfanat_preproc_wf:e&#45;&gt;single_subject_THP0005_wfdwi_preproc_wf:w</title>
<path fill="none" stroke="#000000" d="M1690,-440C1690,-440 1690,-149.8152 1690,-90.8714"/>
<polygon fill="#000000" stroke="#000000" points="1693.5001,-90.5 1690,-80.5 1686.5001,-90.5 1693.5001,-90.5"/>
</g>
<!-- single_subject_THP0005_wfanat_preproc_wf&#45;&gt;single_subject_THP0005_wfdwi_preproc_wf -->
<g id="edge11" class="edge">
<title>single_subject_THP0005_wfanat_preproc_wf:e&#45;&gt;single_subject_THP0005_wfdwi_preproc_wf:w</title>
<path fill="none" stroke="#000000" d="M1690,-417C1690,-417 1690,-126.8152 1690,-67.8714"/>
<polygon fill="#000000" stroke="#000000" points="1693.5001,-67.5 1690,-57.5 1686.5001,-67.5 1693.5001,-67.5"/>
</g>
<!-- single_subject_THP0005_wfanat_preproc_wf&#45;&gt;single_subject_THP0005_wfdwi_preproc_wf -->
<g id="edge12" class="edge">
<title>single_subject_THP0005_wfanat_preproc_wf:e&#45;&gt;single_subject_THP0005_wfdwi_preproc_wf:w</title>
<path fill="none" stroke="#000000" d="M1690,-394C1690,-394 1690,-103.8152 1690,-44.8714"/>
<polygon fill="#000000" stroke="#000000" points="1693.5001,-44.5 1690,-34.5 1686.5001,-44.5 1693.5001,-44.5"/>
</g>
<!-- single_subject_THP0005_wfanat_preproc_wf&#45;&gt;single_subject_THP0005_wfdwi_preproc_wf -->
<g id="edge13" class="edge">
<title>single_subject_THP0005_wfanat_preproc_wf:e&#45;&gt;single_subject_THP0005_wfdwi_preproc_wf:w</title>
<path fill="none" stroke="#000000" d="M1690,-371C1690,-371 1690,-80.8152 1690,-21.8714"/>
<polygon fill="#000000" stroke="#000000" points="1693.5001,-21.5 1690,-11.5 1686.5001,-21.5 1693.5001,-21.5"/>
</g>
</g>
</svg>
