<?xml version="1.0" encoding="UTF-8" standalone="no"?>
<!DOCTYPE svg PUBLIC "-//W3C//DTD SVG 1.1//EN"
 "http://www.w3.org/Graphics/SVG/1.1/DTD/svg11.dtd">
<!-- Generated by graphviz version 2.40.1 (20161225.0304)
 -->
<!-- Title: structs Pages: 1 -->
<svg width="2127pt" height="1155pt"
 viewBox="0.00 0.00 2126.50 1155.00" xmlns="http://www.w3.org/2000/svg" xmlns:xlink="http://www.w3.org/1999/xlink">
<g id="graph0" class="graph" transform="scale(1 1) rotate(0) translate(4 1151)">
<title>structs</title>
<polygon fill="#ffffff" stroke="transparent" points="-4,4 -4,-1151 2122.5,-1151 2122.5,4 -4,4"/>
<!-- single_subject_THP0005_wfabout -->
<g id="node1" class="node">
<title>single_subject_THP0005_wfabout</title>
<polygon fill="none" stroke="#000000" points="0,-1043 0,-1112 196,-1112 196,-1043 0,-1043"/>
<text text-anchor="middle" x="17.5" y="-1073.8" font-family="Times,serif" font-size="14.00" fill="#000000">IN</text>
<polyline fill="none" stroke="#000000" points="35,-1043 35,-1112 "/>
<text text-anchor="middle" x="69.5" y="-1096.8" font-family="Times,serif" font-size="14.00" fill="#000000">about</text>
<polyline fill="none" stroke="#000000" points="35,-1089 104,-1089 "/>
<text text-anchor="middle" x="69.5" y="-1073.8" font-family="Times,serif" font-size="14.00" fill="#000000">reports</text>
<polyline fill="none" stroke="#000000" points="35,-1066 104,-1066 "/>
<text text-anchor="middle" x="69.5" y="-1050.8" font-family="Times,serif" font-size="14.00" fill="#000000"> </text>
<polyline fill="none" stroke="#000000" points="104,-1043 104,-1112 "/>
<text text-anchor="middle" x="150" y="-1091.3" font-family="Times,serif" font-size="14.00" fill="#000000">OUT</text>
<polyline fill="none" stroke="#000000" points="104,-1078 196,-1078 "/>
<text text-anchor="middle" x="150" y="-1056.8" font-family="Times,serif" font-size="14.00" fill="#000000">out_report</text>
</g>
<!-- single_subject_THP0005_wfds_report_about -->
<g id="node3" class="node">
<title>single_subject_THP0005_wfds_report_about</title>
<polygon fill="none" stroke="#000000" points="196.5,-902.5 196.5,-971.5 475.5,-971.5 475.5,-902.5 196.5,-902.5"/>
<text text-anchor="middle" x="244" y="-956.3" font-family="Times,serif" font-size="14.00" fill="#000000">IN</text>
<polyline fill="none" stroke="#000000" points="196.5,-948.5 291.5,-948.5 "/>
<text text-anchor="middle" x="244" y="-933.3" font-family="Times,serif" font-size="14.00" fill="#000000">in_file</text>
<polyline fill="none" stroke="#000000" points="196.5,-925.5 291.5,-925.5 "/>
<text text-anchor="middle" x="244" y="-910.3" font-family="Times,serif" font-size="14.00" fill="#000000">source_file</text>
<polyline fill="none" stroke="#000000" points="291.5,-902.5 291.5,-971.5 "/>
<text text-anchor="middle" x="358.5" y="-956.3" font-family="Times,serif" font-size="14.00" fill="#000000">ds_report_about</text>
<polyline fill="none" stroke="#000000" points="291.5,-948.5 425.5,-948.5 "/>
<text text-anchor="middle" x="358.5" y="-933.3" font-family="Times,serif" font-size="14.00" fill="#000000"> </text>
<polyline fill="none" stroke="#000000" points="291.5,-925.5 425.5,-925.5 "/>
<text text-anchor="middle" x="358.5" y="-910.3" font-family="Times,serif" font-size="14.00" fill="#000000"> </text>
<polyline fill="none" stroke="#000000" points="425.5,-902.5 425.5,-971.5 "/>
<text text-anchor="middle" x="450.5" y="-933.3" font-family="Times,serif" font-size="14.00" fill="#000000">OUT</text>
</g>
<!-- single_subject_THP0005_wfabout&#45;&gt;single_subject_THP0005_wfds_report_about -->
<g id="edge1" class="edge">
<title>single_subject_THP0005_wfabout:e&#45;&gt;single_subject_THP0005_wfds_report_about:w</title>
<path fill="none" stroke="#000000" d="M196,-1060.5C246.6007,-1060.5 157.2588,-955.5431 185.9935,-939.1436"/>
<polygon fill="#000000" stroke="#000000" points="186.955,-942.5171 196,-937 185.4887,-935.6724 186.955,-942.5171"/>
</g>
<!-- single_subject_THP0005_wfbidssrc -->
<g id="node2" class="node">
<title>single_subject_THP0005_wfbidssrc</title>
<polygon fill="none" stroke="#000000" points="478,-1008.5 478,-1146.5 632,-1146.5 632,-1008.5 478,-1008.5"/>
<text text-anchor="middle" x="495.5" y="-1073.8" font-family="Times,serif" font-size="14.00" fill="#000000">IN</text>
<polyline fill="none" stroke="#000000" points="513,-1008.5 513,-1146.5 "/>
<text text-anchor="middle" x="547.5" y="-1119.8" font-family="Times,serif" font-size="14.00" fill="#000000">bidssrc</text>
<polyline fill="none" stroke="#000000" points="513,-1100.5 582,-1100.5 "/>
<text text-anchor="middle" x="547.5" y="-1073.8" font-family="Times,serif" font-size="14.00" fill="#000000"> </text>
<polyline fill="none" stroke="#000000" points="513,-1054.5 582,-1054.5 "/>
<text text-anchor="middle" x="547.5" y="-1027.8" font-family="Times,serif" font-size="14.00" fill="#000000"> </text>
<polyline fill="none" stroke="#000000" points="582,-1008.5 582,-1146.5 "/>
<text text-anchor="middle" x="607" y="-1131.3" font-family="Times,serif" font-size="14.00" fill="#000000">OUT</text>
<polyline fill="none" stroke="#000000" points="582,-1123.5 632,-1123.5 "/>
<text text-anchor="middle" x="607" y="-1108.3" font-family="Times,serif" font-size="14.00" fill="#000000">dwi</text>
<polyline fill="none" stroke="#000000" points="582,-1100.5 632,-1100.5 "/>
<text text-anchor="middle" x="607" y="-1085.3" font-family="Times,serif" font-size="14.00" fill="#000000">flair</text>
<polyline fill="none" stroke="#000000" points="582,-1077.5 632,-1077.5 "/>
<text text-anchor="middle" x="607" y="-1062.3" font-family="Times,serif" font-size="14.00" fill="#000000">roi</text>
<polyline fill="none" stroke="#000000" points="582,-1054.5 632,-1054.5 "/>
<text text-anchor="middle" x="607" y="-1039.3" font-family="Times,serif" font-size="14.00" fill="#000000">t1w</text>
<polyline fill="none" stroke="#000000" points="582,-1031.5 632,-1031.5 "/>
<text text-anchor="middle" x="607" y="-1016.3" font-family="Times,serif" font-size="14.00" fill="#000000">t2w</text>
</g>
<!-- single_subject_THP0005_wfbidssrc&#45;&gt;single_subject_THP0005_wfds_report_about -->
<g id="edge26" class="edge">
<title>single_subject_THP0005_wfbidssrc:e&#45;&gt;single_subject_THP0005_wfds_report_about:w</title>
<path fill="none" stroke="#000000" d="M632,-1042.5C647.3333,-1042.5 642.3866,-1019.2796 632,-1008 566.1452,-936.4835 261.8548,-1043.5165 196,-972 181.2668,-956.0002 173.0443,-925.709 186.3186,-916.6337"/>
<polygon fill="#000000" stroke="#000000" points="187.2694,-920.0023 196,-914 185.4319,-913.2478 187.2694,-920.0023"/>
</g>
<!-- single_subject_THP0005_wfbids_info -->
<g id="node4" class="node">
<title>single_subject_THP0005_wfbids_info</title>
<polygon fill="none" stroke="#000000" points="646,-902.5 646,-971.5 856,-971.5 856,-902.5 646,-902.5"/>
<text text-anchor="middle" x="676" y="-950.8" font-family="Times,serif" font-size="14.00" fill="#000000">IN</text>
<polyline fill="none" stroke="#000000" points="646,-937.5 706,-937.5 "/>
<text text-anchor="middle" x="676" y="-916.3" font-family="Times,serif" font-size="14.00" fill="#000000">in_file</text>
<polyline fill="none" stroke="#000000" points="706,-902.5 706,-971.5 "/>
<text text-anchor="middle" x="746.5" y="-956.3" font-family="Times,serif" font-size="14.00" fill="#000000">bids_info</text>
<polyline fill="none" stroke="#000000" points="706,-948.5 787,-948.5 "/>
<text text-anchor="middle" x="746.5" y="-933.3" font-family="Times,serif" font-size="14.00" fill="#000000">bids</text>
<polyline fill="none" stroke="#000000" points="706,-925.5 787,-925.5 "/>
<text text-anchor="middle" x="746.5" y="-910.3" font-family="Times,serif" font-size="14.00" fill="#000000"> </text>
<polyline fill="none" stroke="#000000" points="787,-902.5 787,-971.5 "/>
<text text-anchor="middle" x="821.5" y="-950.8" font-family="Times,serif" font-size="14.00" fill="#000000">OUT</text>
<polyline fill="none" stroke="#000000" points="787,-937.5 856,-937.5 "/>
<text text-anchor="middle" x="821.5" y="-916.3" font-family="Times,serif" font-size="14.00" fill="#000000">subject</text>
</g>
<!-- single_subject_THP0005_wfbidssrc&#45;&gt;single_subject_THP0005_wfbids_info -->
<g id="edge25" class="edge">
<title>single_subject_THP0005_wfbidssrc:e&#45;&gt;single_subject_THP0005_wfbids_info:w</title>
<path fill="none" stroke="#000000" d="M632,-1042.5C655.5464,-1042.5 628.7266,-952.0306 638.1075,-926.5861"/>
<polygon fill="#000000" stroke="#000000" points="640.5646,-929.0943 646,-920 636.0796,-923.7198 640.5646,-929.0943"/>
</g>
<!-- single_subject_THP0005_wfsummary -->
<g id="node6" class="node">
<title>single_subject_THP0005_wfsummary</title>
<polygon fill="none" stroke="#000000" points="599.5,-589.5 599.5,-727.5 878.5,-727.5 878.5,-589.5 599.5,-589.5"/>
<text text-anchor="middle" x="651.5" y="-712.3" font-family="Times,serif" font-size="14.00" fill="#000000">IN</text>
<polyline fill="none" stroke="#000000" points="599.5,-704.5 703.5,-704.5 "/>
<text text-anchor="middle" x="651.5" y="-689.3" font-family="Times,serif" font-size="14.00" fill="#000000">dwi</text>
<polyline fill="none" stroke="#000000" points="599.5,-681.5 703.5,-681.5 "/>
<text text-anchor="middle" x="651.5" y="-666.3" font-family="Times,serif" font-size="14.00" fill="#000000">subject_id</text>
<polyline fill="none" stroke="#000000" points="599.5,-658.5 703.5,-658.5 "/>
<text text-anchor="middle" x="651.5" y="-643.3" font-family="Times,serif" font-size="14.00" fill="#000000">subjects_dir</text>
<polyline fill="none" stroke="#000000" points="599.5,-635.5 703.5,-635.5 "/>
<text text-anchor="middle" x="651.5" y="-620.3" font-family="Times,serif" font-size="14.00" fill="#000000">t1w</text>
<polyline fill="none" stroke="#000000" points="599.5,-612.5 703.5,-612.5 "/>
<text text-anchor="middle" x="651.5" y="-597.3" font-family="Times,serif" font-size="14.00" fill="#000000">t2w</text>
<polyline fill="none" stroke="#000000" points="703.5,-589.5 703.5,-727.5 "/>
<text text-anchor="middle" x="745" y="-700.8" font-family="Times,serif" font-size="14.00" fill="#000000">summary</text>
<polyline fill="none" stroke="#000000" points="703.5,-681.5 786.5,-681.5 "/>
<text text-anchor="middle" x="745" y="-654.8" font-family="Times,serif" font-size="14.00" fill="#000000">reports</text>
<polyline fill="none" stroke="#000000" points="703.5,-635.5 786.5,-635.5 "/>
<text text-anchor="middle" x="745" y="-608.8" font-family="Times,serif" font-size="14.00" fill="#000000"> </text>
<polyline fill="none" stroke="#000000" points="786.5,-589.5 786.5,-727.5 "/>
<text text-anchor="middle" x="832.5" y="-689.3" font-family="Times,serif" font-size="14.00" fill="#000000">OUT</text>
<polyline fill="none" stroke="#000000" points="786.5,-658.5 878.5,-658.5 "/>
<text text-anchor="middle" x="832.5" y="-620.3" font-family="Times,serif" font-size="14.00" fill="#000000">out_report</text>
</g>
<!-- single_subject_THP0005_wfbidssrc&#45;&gt;single_subject_THP0005_wfsummary -->
<g id="edge21" class="edge">
<title>single_subject_THP0005_wfbidssrc:e&#45;&gt;single_subject_THP0005_wfsummary:w</title>
<path fill="none" stroke="#000000" d="M632,-1112.5C721.5686,-1112.5 523.104,-727.1662 589.0449,-695.5568"/>
<polygon fill="#000000" stroke="#000000" points="589.915,-698.951 599,-693.5 588.4986,-692.0958 589.915,-698.951"/>
</g>
<!-- single_subject_THP0005_wfbidssrc&#45;&gt;single_subject_THP0005_wfsummary -->
<g id="edge28" class="edge">
<title>single_subject_THP0005_wfbidssrc:e&#45;&gt;single_subject_THP0005_wfsummary:w</title>
<path fill="none" stroke="#000000" d="M632,-1042.5C664.279,-1042.5 616.4181,-987.3549 612,-972 570.1041,-826.3923 449.5833,-632.4385 588.9758,-623.7992"/>
<polygon fill="#000000" stroke="#000000" points="589.1089,-627.2969 599,-623.5 588.9,-620.3 589.1089,-627.2969"/>
</g>
<!-- single_subject_THP0005_wfbidssrc&#45;&gt;single_subject_THP0005_wfsummary -->
<g id="edge30" class="edge">
<title>single_subject_THP0005_wfbidssrc:e&#45;&gt;single_subject_THP0005_wfsummary:w</title>
<path fill="none" stroke="#000000" d="M632,-1019.5C637.1111,-1019.5 634.2626,-1012.583 632,-1008 620.3521,-984.4061 596.6479,-995.5939 585,-972 554.5301,-910.2802 478.3269,-617.7482 588.8542,-601.2285"/>
<polygon fill="#000000" stroke="#000000" points="589.2764,-604.7073 599,-600.5 588.775,-597.7253 589.2764,-604.7073"/>
</g>
<!-- single_subject_THP0005_wfds_report_summary -->
<g id="node7" class="node">
<title>single_subject_THP0005_wfds_report_summary</title>
<polygon fill="none" stroke="#000000" points="701.5,-173 701.5,-242 1006.5,-242 1006.5,-173 701.5,-173"/>
<text text-anchor="middle" x="749" y="-226.8" font-family="Times,serif" font-size="14.00" fill="#000000">IN</text>
<polyline fill="none" stroke="#000000" points="701.5,-219 796.5,-219 "/>
<text text-anchor="middle" x="749" y="-203.8" font-family="Times,serif" font-size="14.00" fill="#000000">in_file</text>
<polyline fill="none" stroke="#000000" points="701.5,-196 796.5,-196 "/>
<text text-anchor="middle" x="749" y="-180.8" font-family="Times,serif" font-size="14.00" fill="#000000">source_file</text>
<polyline fill="none" stroke="#000000" points="796.5,-173 796.5,-242 "/>
<text text-anchor="middle" x="876.5" y="-226.8" font-family="Times,serif" font-size="14.00" fill="#000000">ds_report_summary</text>
<polyline fill="none" stroke="#000000" points="796.5,-219 956.5,-219 "/>
<text text-anchor="middle" x="876.5" y="-203.8" font-family="Times,serif" font-size="14.00" fill="#000000"> </text>
<polyline fill="none" stroke="#000000" points="796.5,-196 956.5,-196 "/>
<text text-anchor="middle" x="876.5" y="-180.8" font-family="Times,serif" font-size="14.00" fill="#000000"> </text>
<polyline fill="none" stroke="#000000" points="956.5,-173 956.5,-242 "/>
<text text-anchor="middle" x="981.5" y="-203.8" font-family="Times,serif" font-size="14.00" fill="#000000">OUT</text>
</g>
<!-- single_subject_THP0005_wfbidssrc&#45;&gt;single_subject_THP0005_wfds_report_summary -->
<g id="edge27" class="edge">
<title>single_subject_THP0005_wfbidssrc:e&#45;&gt;single_subject_THP0005_wfds_report_summary:w</title>
<path fill="none" stroke="#000000" d="M632,-1042.5C647.3333,-1042.5 640.097,-1021.0211 632,-1008 612.8971,-977.2799 578.1029,-1002.7201 559,-972 542.5713,-945.5803 557.9327,-933.0928 559,-902 570.0326,-580.6073 380.0751,-192.9273 690.7029,-184.6353"/>
<polygon fill="#000000" stroke="#000000" points="691.0469,-188.1312 701,-184.5 690.9548,-181.1318 691.0469,-188.1312"/>
</g>
<!-- single_subject_THP0005_wfanat_preproc_wf -->
<g id="node8" class="node">
<title>single_subject_THP0005_wfanat_preproc_wf</title>
<polygon fill="none" stroke="#000000" points="1149,-451.5 1149,-865.5 1707,-865.5 1707,-451.5 1149,-451.5"/>
<text text-anchor="middle" x="1239.5" y="-832.3" font-family="Times,serif" font-size="14.00" fill="#000000">IN</text>
<polyline fill="none" stroke="#000000" points="1149,-806.5 1330,-806.5 "/>
<text text-anchor="middle" x="1239.5" y="-773.3" font-family="Times,serif" font-size="14.00" fill="#000000">inputnode.flair</text>
<polyline fill="none" stroke="#000000" points="1149,-747.5 1330,-747.5 "/>
<text text-anchor="middle" x="1239.5" y="-714.3" font-family="Times,serif" font-size="14.00" fill="#000000">inputnode.roi</text>
<polyline fill="none" stroke="#000000" points="1149,-688.5 1330,-688.5 "/>
<text text-anchor="middle" x="1239.5" y="-655.3" font-family="Times,serif" font-size="14.00" fill="#000000">inputnode.subject_id</text>
<polyline fill="none" stroke="#000000" points="1149,-629.5 1330,-629.5 "/>
<text text-anchor="middle" x="1239.5" y="-596.3" font-family="Times,serif" font-size="14.00" fill="#000000">inputnode.subjects_dir</text>
<polyline fill="none" stroke="#000000" points="1149,-570.5 1330,-570.5 "/>
<text text-anchor="middle" x="1239.5" y="-537.3" font-family="Times,serif" font-size="14.00" fill="#000000">inputnode.t1w</text>
<polyline fill="none" stroke="#000000" points="1149,-511.5 1330,-511.5 "/>
<text text-anchor="middle" x="1239.5" y="-477.8" font-family="Times,serif" font-size="14.00" fill="#000000">inputnode.t2w</text>
<polyline fill="none" stroke="#000000" points="1330,-451.5 1330,-865.5 "/>
<text text-anchor="middle" x="1398.5" y="-792.8" font-family="Times,serif" font-size="14.00" fill="#000000">anat_preproc_wf</text>
<polyline fill="none" stroke="#000000" points="1330,-727.5 1467,-727.5 "/>
<text text-anchor="middle" x="1398.5" y="-654.8" font-family="Times,serif" font-size="14.00" fill="#000000"> </text>
<polyline fill="none" stroke="#000000" points="1330,-589.5 1467,-589.5 "/>
<text text-anchor="middle" x="1398.5" y="-516.8" font-family="Times,serif" font-size="14.00" fill="#000000"> </text>
<polyline fill="none" stroke="#000000" points="1467,-451.5 1467,-865.5 "/>
<text text-anchor="middle" x="1587" y="-850.3" font-family="Times,serif" font-size="14.00" fill="#000000">OUT</text>
<polyline fill="none" stroke="#000000" points="1467,-842.5 1707,-842.5 "/>
<text text-anchor="middle" x="1587" y="-827.3" font-family="Times,serif" font-size="14.00" fill="#000000">outputnode.anat2std_xfm</text>
<polyline fill="none" stroke="#000000" points="1467,-819.5 1707,-819.5 "/>
<text text-anchor="middle" x="1587" y="-804.3" font-family="Times,serif" font-size="14.00" fill="#000000">outputnode.fsnative2t1w_xfm</text>
<polyline fill="none" stroke="#000000" points="1467,-796.5 1707,-796.5 "/>
<text text-anchor="middle" x="1587" y="-781.3" font-family="Times,serif" font-size="14.00" fill="#000000">outputnode.joint_anat2std_xfm</text>
<polyline fill="none" stroke="#000000" points="1467,-773.5 1707,-773.5 "/>
<text text-anchor="middle" x="1587" y="-758.3" font-family="Times,serif" font-size="14.00" fill="#000000">outputnode.joint_std2anat_xfm</text>
<polyline fill="none" stroke="#000000" points="1467,-750.5 1707,-750.5 "/>
<text text-anchor="middle" x="1587" y="-735.3" font-family="Times,serif" font-size="14.00" fill="#000000">outputnode.joint_template</text>
<polyline fill="none" stroke="#000000" points="1467,-727.5 1707,-727.5 "/>
<text text-anchor="middle" x="1587" y="-712.3" font-family="Times,serif" font-size="14.00" fill="#000000">outputnode.std2anat_xfm</text>
<polyline fill="none" stroke="#000000" points="1467,-704.5 1707,-704.5 "/>
<text text-anchor="middle" x="1587" y="-689.3" font-family="Times,serif" font-size="14.00" fill="#000000">outputnode.subject_id</text>
<polyline fill="none" stroke="#000000" points="1467,-681.5 1707,-681.5 "/>
<text text-anchor="middle" x="1587" y="-666.3" font-family="Times,serif" font-size="14.00" fill="#000000">outputnode.subjects_dir</text>
<polyline fill="none" stroke="#000000" points="1467,-658.5 1707,-658.5 "/>
<text text-anchor="middle" x="1587" y="-643.3" font-family="Times,serif" font-size="14.00" fill="#000000">outputnode.t1w2fsnative_xfm</text>
<polyline fill="none" stroke="#000000" points="1467,-635.5 1707,-635.5 "/>
<text text-anchor="middle" x="1587" y="-620.3" font-family="Times,serif" font-size="14.00" fill="#000000">outputnode.t1w_aparc</text>
<polyline fill="none" stroke="#000000" points="1467,-612.5 1707,-612.5 "/>
<text text-anchor="middle" x="1587" y="-597.3" font-family="Times,serif" font-size="14.00" fill="#000000">outputnode.t1w_aseg</text>
<polyline fill="none" stroke="#000000" points="1467,-589.5 1707,-589.5 "/>
<text text-anchor="middle" x="1587" y="-574.3" font-family="Times,serif" font-size="14.00" fill="#000000">outputnode.t1w_brain</text>
<polyline fill="none" stroke="#000000" points="1467,-566.5 1707,-566.5 "/>
<text text-anchor="middle" x="1587" y="-551.3" font-family="Times,serif" font-size="14.00" fill="#000000">outputnode.t1w_dseg</text>
<polyline fill="none" stroke="#000000" points="1467,-543.5 1707,-543.5 "/>
<text text-anchor="middle" x="1587" y="-528.3" font-family="Times,serif" font-size="14.00" fill="#000000">outputnode.t1w_mask</text>
<polyline fill="none" stroke="#000000" points="1467,-520.5 1707,-520.5 "/>
<text text-anchor="middle" x="1587" y="-505.3" font-family="Times,serif" font-size="14.00" fill="#000000">outputnode.t1w_preproc</text>
<polyline fill="none" stroke="#000000" points="1467,-497.5 1707,-497.5 "/>
<text text-anchor="middle" x="1587" y="-482.3" font-family="Times,serif" font-size="14.00" fill="#000000">outputnode.t1w_tpms</text>
<polyline fill="none" stroke="#000000" points="1467,-474.5 1707,-474.5 "/>
<text text-anchor="middle" x="1587" y="-459.3" font-family="Times,serif" font-size="14.00" fill="#000000">outputnode.template</text>
</g>
<!-- single_subject_THP0005_wfbidssrc&#45;&gt;single_subject_THP0005_wfanat_preproc_wf -->
<g id="edge22" class="edge">
<title>single_subject_THP0005_wfbidssrc:e&#45;&gt;single_subject_THP0005_wfanat_preproc_wf:w</title>
<path fill="none" stroke="#000000" d="M632,-1089.5C765.25,-1089.5 1135.5125,-1075.0409 1220,-972 1239.7261,-947.9421 1236.2817,-928.5105 1220,-902 1201.4842,-871.8517 1167.5158,-896.1483 1149,-866 1130.4255,-835.7562 1113.346,-788.0342 1139.0859,-779.0019"/>
<polygon fill="#000000" stroke="#000000" points="1139.6371,-782.4584 1149,-777.5 1138.5885,-775.5374 1139.6371,-782.4584"/>
</g>
<!-- single_subject_THP0005_wfbidssrc&#45;&gt;single_subject_THP0005_wfanat_preproc_wf -->
<g id="edge23" class="edge">
<title>single_subject_THP0005_wfbidssrc:e&#45;&gt;single_subject_THP0005_wfanat_preproc_wf:w</title>
<path fill="none" stroke="#000000" d="M632,-1065.5C693.9879,-1065.5 1142.0093,-1019.3629 1182,-972 1202.0709,-948.229 1193.2785,-930.9948 1182,-902 1174.1314,-881.7714 1156.8686,-886.2286 1149,-866 1126.5807,-808.3644 1088.1207,-728.2067 1138.871,-719.3113"/>
<polygon fill="#000000" stroke="#000000" points="1139.3114,-722.7873 1149,-718.5 1138.7524,-715.8097 1139.3114,-722.7873"/>
</g>
<!-- single_subject_THP0005_wfbidssrc&#45;&gt;single_subject_THP0005_wfanat_preproc_wf -->
<g id="edge24" class="edge">
<title>single_subject_THP0005_wfbidssrc:e&#45;&gt;single_subject_THP0005_wfanat_preproc_wf:w</title>
<path fill="none" stroke="#000000" d="M632,-1042.5C689.4257,-1042.5 1106.0148,-1015.0677 1144,-972 1158.4642,-955.6005 1130.7574,-610.1337 1143.9672,-549.5337"/>
<polygon fill="#000000" stroke="#000000" points="1147.1907,-550.9392 1149,-540.5 1141.0756,-547.5324 1147.1907,-550.9392"/>
</g>
<!-- single_subject_THP0005_wfbidssrc&#45;&gt;single_subject_THP0005_wfanat_preproc_wf -->
<g id="edge29" class="edge">
<title>single_subject_THP0005_wfbidssrc:e&#45;&gt;single_subject_THP0005_wfanat_preproc_wf:w</title>
<path fill="none" stroke="#000000" d="M632,-1019.5C685.4833,-1019.5 1073.5908,-1010.2232 1111,-972 1184.9301,-896.4612 1049.2407,-508.5153 1138.9428,-482.8365"/>
<polygon fill="#000000" stroke="#000000" points="1139.5482,-486.2869 1149,-481.5 1138.6261,-479.3479 1139.5482,-486.2869"/>
</g>
<!-- single_subject_THP0005_wfbids_info&#45;&gt;single_subject_THP0005_wfsummary -->
<g id="edge20" class="edge">
<title>single_subject_THP0005_wfbids_info:e&#45;&gt;single_subject_THP0005_wfsummary:w</title>
<path fill="none" stroke="#000000" d="M856,-920C864,-920 859.7496,-909.0668 856,-902 791.3475,-780.1508 663.6525,-849.8492 599,-728 589.0807,-709.3054 578.0645,-682.1407 589.0842,-673.3552"/>
<polygon fill="#000000" stroke="#000000" points="590.3589,-676.6304 599,-670.5 588.422,-669.9037 590.3589,-676.6304"/>
</g>
<!-- single_subject_THP0005_wfbids_info&#45;&gt;single_subject_THP0005_wfanat_preproc_wf -->
<g id="edge19" class="edge">
<title>single_subject_THP0005_wfbids_info:e&#45;&gt;single_subject_THP0005_wfanat_preproc_wf:w</title>
<path fill="none" stroke="#000000" d="M856,-920C864.9443,-920 859.4889,-909.0447 865,-902 965.1699,-773.9541 982.3412,-664.0924 1138.9761,-659.6402"/>
<polygon fill="#000000" stroke="#000000" points="1139.05,-663.1396 1149,-659.5 1138.952,-656.1403 1139.05,-663.1396"/>
</g>
<!-- single_subject_THP0005_wfinputnode -->
<g id="node5" class="node">
<title>single_subject_THP0005_wfinputnode</title>
<polygon fill="none" stroke="#000000" points="874,-902.5 874,-971.5 1102,-971.5 1102,-902.5 874,-902.5"/>
<text text-anchor="middle" x="891.5" y="-933.3" font-family="Times,serif" font-size="14.00" fill="#000000">IN</text>
<polyline fill="none" stroke="#000000" points="909,-902.5 909,-971.5 "/>
<text text-anchor="middle" x="953.5" y="-956.3" font-family="Times,serif" font-size="14.00" fill="#000000">inputnode</text>
<polyline fill="none" stroke="#000000" points="909,-948.5 998,-948.5 "/>
<text text-anchor="middle" x="953.5" y="-933.3" font-family="Times,serif" font-size="14.00" fill="#000000">utility</text>
<polyline fill="none" stroke="#000000" points="909,-925.5 998,-925.5 "/>
<text text-anchor="middle" x="953.5" y="-910.3" font-family="Times,serif" font-size="14.00" fill="#000000"> </text>
<polyline fill="none" stroke="#000000" points="998,-902.5 998,-971.5 "/>
<text text-anchor="middle" x="1050" y="-950.8" font-family="Times,serif" font-size="14.00" fill="#000000">OUT</text>
<polyline fill="none" stroke="#000000" points="998,-937.5 1102,-937.5 "/>
<text text-anchor="middle" x="1050" y="-916.3" font-family="Times,serif" font-size="14.00" fill="#000000">subjects_dir</text>
</g>
<!-- single_subject_THP0005_wfinputnode&#45;&gt;single_subject_THP0005_wfsummary -->
<g id="edge32" class="edge">
<title>single_subject_THP0005_wfinputnode:e&#45;&gt;single_subject_THP0005_wfsummary:w</title>
<path fill="none" stroke="#000000" d="M1102,-920C1110,-920 1106.641,-908.5162 1102,-902 964.7701,-709.3202 736.2299,-920.6798 599,-728 580.285,-701.7229 566.1742,-657.605 588.9007,-648.2686"/>
<polygon fill="#000000" stroke="#000000" points="589.7537,-651.6726 599,-646.5 588.5461,-644.7775 589.7537,-651.6726"/>
</g>
<!-- single_subject_THP0005_wfinputnode&#45;&gt;single_subject_THP0005_wfanat_preproc_wf -->
<g id="edge31" class="edge">
<title>single_subject_THP0005_wfinputnode:e&#45;&gt;single_subject_THP0005_wfanat_preproc_wf:w</title>
<path fill="none" stroke="#000000" d="M1102,-920C1134.9692,-920 1116.7745,-651.0734 1141.1497,-605.9021"/>
<polygon fill="#000000" stroke="#000000" points="1143.4624,-608.5325 1149,-599.5 1139.0383,-603.1077 1143.4624,-608.5325"/>
</g>
<!-- single_subject_THP0005_wfsummary&#45;&gt;single_subject_THP0005_wfds_report_summary -->
<g id="edge33" class="edge">
<title>single_subject_THP0005_wfsummary:e&#45;&gt;single_subject_THP0005_wfds_report_summary:w</title>
<path fill="none" stroke="#000000" d="M879,-623.5C1076.4699,-623.5 520.6063,-222.3955 690.8562,-207.9024"/>
<polygon fill="#000000" stroke="#000000" points="691.1466,-211.3938 701,-207.5 690.8691,-204.3993 691.1466,-211.3938"/>
</g>
<!-- single_subject_THP0005_wfdwi_preproc_wf -->
<g id="node9" class="node">
<title>single_subject_THP0005_wfdwi_preproc_wf</title>
<polygon fill="none" stroke="#000000" points="1707.5,-.5 1707.5,-414.5 2118.5,-414.5 2118.5,-.5 1707.5,-.5"/>
<text text-anchor="middle" x="1822.5" y="-399.3" font-family="Times,serif" font-size="14.00" fill="#000000">IN</text>
<polyline fill="none" stroke="#000000" points="1707.5,-391.5 1937.5,-391.5 "/>
<text text-anchor="middle" x="1822.5" y="-376.3" font-family="Times,serif" font-size="14.00" fill="#000000">inputnode.anat2std_xfm</text>
<polyline fill="none" stroke="#000000" points="1707.5,-368.5 1937.5,-368.5 "/>
<text text-anchor="middle" x="1822.5" y="-353.3" font-family="Times,serif" font-size="14.00" fill="#000000">inputnode.fsnative2t1w_xfm</text>
<polyline fill="none" stroke="#000000" points="1707.5,-345.5 1937.5,-345.5 "/>
<text text-anchor="middle" x="1822.5" y="-330.3" font-family="Times,serif" font-size="14.00" fill="#000000">inputnode.joint_anat2std_xfm</text>
<polyline fill="none" stroke="#000000" points="1707.5,-322.5 1937.5,-322.5 "/>
<text text-anchor="middle" x="1822.5" y="-307.3" font-family="Times,serif" font-size="14.00" fill="#000000">inputnode.joint_std2anat_xfm</text>
<polyline fill="none" stroke="#000000" points="1707.5,-299.5 1937.5,-299.5 "/>
<text text-anchor="middle" x="1822.5" y="-284.3" font-family="Times,serif" font-size="14.00" fill="#000000">inputnode.joint_template</text>
<polyline fill="none" stroke="#000000" points="1707.5,-276.5 1937.5,-276.5 "/>
<text text-anchor="middle" x="1822.5" y="-261.3" font-family="Times,serif" font-size="14.00" fill="#000000">inputnode.std2anat_xfm</text>
<polyline fill="none" stroke="#000000" points="1707.5,-253.5 1937.5,-253.5 "/>
<text text-anchor="middle" x="1822.5" y="-238.3" font-family="Times,serif" font-size="14.00" fill="#000000">inputnode.subject_id</text>
<polyline fill="none" stroke="#000000" points="1707.5,-230.5 1937.5,-230.5 "/>
<text text-anchor="middle" x="1822.5" y="-215.3" font-family="Times,serif" font-size="14.00" fill="#000000">inputnode.subjects_dir</text>
<polyline fill="none" stroke="#000000" points="1707.5,-207.5 1937.5,-207.5 "/>
<text text-anchor="middle" x="1822.5" y="-192.3" font-family="Times,serif" font-size="14.00" fill="#000000">inputnode.t1w2fsnative_xfm</text>
<polyline fill="none" stroke="#000000" points="1707.5,-184.5 1937.5,-184.5 "/>
<text text-anchor="middle" x="1822.5" y="-169.3" font-family="Times,serif" font-size="14.00" fill="#000000">inputnode.t1w_aparc</text>
<polyline fill="none" stroke="#000000" points="1707.5,-161.5 1937.5,-161.5 "/>
<text text-anchor="middle" x="1822.5" y="-146.3" font-family="Times,serif" font-size="14.00" fill="#000000">inputnode.t1w_aseg</text>
<polyline fill="none" stroke="#000000" points="1707.5,-138.5 1937.5,-138.5 "/>
<text text-anchor="middle" x="1822.5" y="-123.3" font-family="Times,serif" font-size="14.00" fill="#000000">inputnode.t1w_brain</text>
<polyline fill="none" stroke="#000000" points="1707.5,-115.5 1937.5,-115.5 "/>
<text text-anchor="middle" x="1822.5" y="-100.3" font-family="Times,serif" font-size="14.00" fill="#000000">inputnode.t1w_dseg</text>
<polyline fill="none" stroke="#000000" points="1707.5,-92.5 1937.5,-92.5 "/>
<text text-anchor="middle" x="1822.5" y="-77.3" font-family="Times,serif" font-size="14.00" fill="#000000">inputnode.t1w_mask</text>
<polyline fill="none" stroke="#000000" points="1707.5,-69.5 1937.5,-69.5 "/>
<text text-anchor="middle" x="1822.5" y="-54.3" font-family="Times,serif" font-size="14.00" fill="#000000">inputnode.t1w_preproc</text>
<polyline fill="none" stroke="#000000" points="1707.5,-46.5 1937.5,-46.5 "/>
<text text-anchor="middle" x="1822.5" y="-31.3" font-family="Times,serif" font-size="14.00" fill="#000000">inputnode.t1w_tpms</text>
<polyline fill="none" stroke="#000000" points="1707.5,-23.5 1937.5,-23.5 "/>
<text text-anchor="middle" x="1822.5" y="-8.3" font-family="Times,serif" font-size="14.00" fill="#000000">inputnode.template</text>
<polyline fill="none" stroke="#000000" points="1937.5,-.5 1937.5,-414.5 "/>
<text text-anchor="middle" x="2003" y="-341.8" font-family="Times,serif" font-size="14.00" fill="#000000">dwi_preproc_wf</text>
<polyline fill="none" stroke="#000000" points="1937.5,-276.5 2068.5,-276.5 "/>
<text text-anchor="middle" x="2003" y="-203.8" font-family="Times,serif" font-size="14.00" fill="#000000"> </text>
<polyline fill="none" stroke="#000000" points="1937.5,-138.5 2068.5,-138.5 "/>
<text text-anchor="middle" x="2003" y="-65.8" font-family="Times,serif" font-size="14.00" fill="#000000"> </text>
<polyline fill="none" stroke="#000000" points="2068.5,-.5 2068.5,-414.5 "/>
<text text-anchor="middle" x="2093.5" y="-203.8" font-family="Times,serif" font-size="14.00" fill="#000000">OUT</text>
</g>
<!-- single_subject_THP0005_wfanat_preproc_wf&#45;&gt;single_subject_THP0005_wfdwi_preproc_wf -->
<g id="edge2" class="edge">
<title>single_subject_THP0005_wfanat_preproc_wf:e&#45;&gt;single_subject_THP0005_wfdwi_preproc_wf:w</title>
<path fill="none" stroke="#000000" d="M1707,-831.5C1707,-831.5 1707,-457.8986 1707,-390.7671"/>
<polygon fill="#000000" stroke="#000000" points="1710.5001,-390.5 1707,-380.5 1703.5001,-390.5 1710.5001,-390.5"/>
</g>
<!-- single_subject_THP0005_wfanat_preproc_wf&#45;&gt;single_subject_THP0005_wfdwi_preproc_wf -->
<g id="edge3" class="edge">
<title>single_subject_THP0005_wfanat_preproc_wf:e&#45;&gt;single_subject_THP0005_wfdwi_preproc_wf:w</title>
<path fill="none" stroke="#000000" d="M1707,-808.5C1707,-808.5 1707,-434.8986 1707,-367.7671"/>
<polygon fill="#000000" stroke="#000000" points="1710.5001,-367.5 1707,-357.5 1703.5001,-367.5 1710.5001,-367.5"/>
</g>
<!-- single_subject_THP0005_wfanat_preproc_wf&#45;&gt;single_subject_THP0005_wfdwi_preproc_wf -->
<g id="edge4" class="edge">
<title>single_subject_THP0005_wfanat_preproc_wf:e&#45;&gt;single_subject_THP0005_wfdwi_preproc_wf:w</title>
<path fill="none" stroke="#000000" d="M1707,-785.5C1707,-785.5 1707,-411.8986 1707,-344.7671"/>
<polygon fill="#000000" stroke="#000000" points="1710.5001,-344.5 1707,-334.5 1703.5001,-344.5 1710.5001,-344.5"/>
</g>
<!-- single_subject_THP0005_wfanat_preproc_wf&#45;&gt;single_subject_THP0005_wfdwi_preproc_wf -->
<g id="edge5" class="edge">
<title>single_subject_THP0005_wfanat_preproc_wf:e&#45;&gt;single_subject_THP0005_wfdwi_preproc_wf:w</title>
<path fill="none" stroke="#000000" d="M1707,-762.5C1707,-762.5 1707,-388.8986 1707,-321.7671"/>
<polygon fill="#000000" stroke="#000000" points="1710.5001,-321.5 1707,-311.5 1703.5001,-321.5 1710.5001,-321.5"/>
</g>
<!-- single_subject_THP0005_wfanat_preproc_wf&#45;&gt;single_subject_THP0005_wfdwi_preproc_wf -->
<g id="edge6" class="edge">
<title>single_subject_THP0005_wfanat_preproc_wf:e&#45;&gt;single_subject_THP0005_wfdwi_preproc_wf:w</title>
<path fill="none" stroke="#000000" d="M1707,-739.5C1707,-739.5 1707,-365.8986 1707,-298.7671"/>
<polygon fill="#000000" stroke="#000000" points="1710.5001,-298.5 1707,-288.5 1703.5001,-298.5 1710.5001,-298.5"/>
</g>
<!-- single_subject_THP0005_wfanat_preproc_wf&#45;&gt;single_subject_THP0005_wfdwi_preproc_wf -->
<g id="edge7" class="edge">
<title>single_subject_THP0005_wfanat_preproc_wf:e&#45;&gt;single_subject_THP0005_wfdwi_preproc_wf:w</title>
<path fill="none" stroke="#000000" d="M1707,-716.5C1707,-716.5 1707,-342.8986 1707,-275.7671"/>
<polygon fill="#000000" stroke="#000000" points="1710.5001,-275.5 1707,-265.5 1703.5001,-275.5 1710.5001,-275.5"/>
</g>
<!-- single_subject_THP0005_wfanat_preproc_wf&#45;&gt;single_subject_THP0005_wfdwi_preproc_wf -->
<g id="edge8" class="edge">
<title>single_subject_THP0005_wfanat_preproc_wf:e&#45;&gt;single_subject_THP0005_wfdwi_preproc_wf:w</title>
<path fill="none" stroke="#000000" d="M1707,-693.5C1707,-693.5 1707,-319.8986 1707,-252.7671"/>
<polygon fill="#000000" stroke="#000000" points="1710.5001,-252.5 1707,-242.5 1703.5001,-252.5 1710.5001,-252.5"/>
</g>
<!-- single_subject_THP0005_wfanat_preproc_wf&#45;&gt;single_subject_THP0005_wfdwi_preproc_wf -->
<g id="edge9" class="edge">
<title>single_subject_THP0005_wfanat_preproc_wf:e&#45;&gt;single_subject_THP0005_wfdwi_preproc_wf:w</title>
<path fill="none" stroke="#000000" d="M1707,-670.5C1903.921,-670.5 1520.4635,-235.2161 1696.9806,-219.9132"/>
<polygon fill="#000000" stroke="#000000" points="1697.1527,-223.4091 1707,-219.5 1696.8643,-216.4151 1697.1527,-223.4091"/>
</g>
<!-- single_subject_THP0005_wfanat_preproc_wf&#45;&gt;single_subject_THP0005_wfdwi_preproc_wf -->
<g id="edge10" class="edge">
<title>single_subject_THP0005_wfanat_preproc_wf:e&#45;&gt;single_subject_THP0005_wfdwi_preproc_wf:w</title>
<path fill="none" stroke="#000000" d="M1707,-646.5C1903.921,-646.5 1520.4635,-211.2161 1696.9806,-195.9132"/>
<polygon fill="#000000" stroke="#000000" points="1697.1527,-199.4091 1707,-195.5 1696.8643,-192.4151 1697.1527,-199.4091"/>
</g>
<!-- single_subject_THP0005_wfanat_preproc_wf&#45;&gt;single_subject_THP0005_wfdwi_preproc_wf -->
<g id="edge11" class="edge">
<title>single_subject_THP0005_wfanat_preproc_wf:e&#45;&gt;single_subject_THP0005_wfdwi_preproc_wf:w</title>
<path fill="none" stroke="#000000" d="M1707,-623.5C1707,-623.5 1707,-249.8986 1707,-182.7671"/>
<polygon fill="#000000" stroke="#000000" points="1710.5001,-182.5 1707,-172.5 1703.5001,-182.5 1710.5001,-182.5"/>
</g>
<!-- single_subject_THP0005_wfanat_preproc_wf&#45;&gt;single_subject_THP0005_wfdwi_preproc_wf -->
<g id="edge12" class="edge">
<title>single_subject_THP0005_wfanat_preproc_wf:e&#45;&gt;single_subject_THP0005_wfdwi_preproc_wf:w</title>
<path fill="none" stroke="#000000" d="M1707,-600.5C1707,-600.5 1707,-226.8986 1707,-159.7671"/>
<polygon fill="#000000" stroke="#000000" points="1710.5001,-159.5 1707,-149.5 1703.5001,-159.5 1710.5001,-159.5"/>
</g>
<!-- single_subject_THP0005_wfanat_preproc_wf&#45;&gt;single_subject_THP0005_wfdwi_preproc_wf -->
<g id="edge13" class="edge">
<title>single_subject_THP0005_wfanat_preproc_wf:e&#45;&gt;single_subject_THP0005_wfdwi_preproc_wf:w</title>
<path fill="none" stroke="#000000" d="M1707,-577.5C1707,-577.5 1707,-203.8986 1707,-136.7671"/>
<polygon fill="#000000" stroke="#000000" points="1710.5001,-136.5 1707,-126.5 1703.5001,-136.5 1710.5001,-136.5"/>
</g>
<!-- single_subject_THP0005_wfanat_preproc_wf&#45;&gt;single_subject_THP0005_wfdwi_preproc_wf -->
<g id="edge14" class="edge">
<title>single_subject_THP0005_wfanat_preproc_wf:e&#45;&gt;single_subject_THP0005_wfdwi_preproc_wf:w</title>
<path fill="none" stroke="#000000" d="M1707,-554.5C1707,-554.5 1707,-180.8986 1707,-113.7671"/>
<polygon fill="#000000" stroke="#000000" points="1710.5001,-113.5 1707,-103.5 1703.5001,-113.5 1710.5001,-113.5"/>
</g>
<!-- single_subject_THP0005_wfanat_preproc_wf&#45;&gt;single_subject_THP0005_wfdwi_preproc_wf -->
<g id="edge15" class="edge">
<title>single_subject_THP0005_wfanat_preproc_wf:e&#45;&gt;single_subject_THP0005_wfdwi_preproc_wf:w</title>
<path fill="none" stroke="#000000" d="M1707,-531.5C1707,-531.5 1707,-157.8986 1707,-90.7671"/>
<polygon fill="#000000" stroke="#000000" points="1710.5001,-90.5 1707,-80.5 1703.5001,-90.5 1710.5001,-90.5"/>
</g>
<!-- single_subject_THP0005_wfanat_preproc_wf&#45;&gt;single_subject_THP0005_wfdwi_preproc_wf -->
<g id="edge16" class="edge">
<title>single_subject_THP0005_wfanat_preproc_wf:e&#45;&gt;single_subject_THP0005_wfdwi_preproc_wf:w</title>
<path fill="none" stroke="#000000" d="M1707,-508.5C1707,-508.5 1707,-134.8986 1707,-67.7671"/>
<polygon fill="#000000" stroke="#000000" points="1710.5001,-67.5 1707,-57.5 1703.5001,-67.5 1710.5001,-67.5"/>
</g>
<!-- single_subject_THP0005_wfanat_preproc_wf&#45;&gt;single_subject_THP0005_wfdwi_preproc_wf -->
<g id="edge17" class="edge">
<title>single_subject_THP0005_wfanat_preproc_wf:e&#45;&gt;single_subject_THP0005_wfdwi_preproc_wf:w</title>
<path fill="none" stroke="#000000" d="M1707,-485.5C1707,-485.5 1707,-111.8986 1707,-44.7671"/>
<polygon fill="#000000" stroke="#000000" points="1710.5001,-44.5 1707,-34.5 1703.5001,-44.5 1710.5001,-44.5"/>
</g>
<!-- single_subject_THP0005_wfanat_preproc_wf&#45;&gt;single_subject_THP0005_wfdwi_preproc_wf -->
<g id="edge18" class="edge">
<title>single_subject_THP0005_wfanat_preproc_wf:e&#45;&gt;single_subject_THP0005_wfdwi_preproc_wf:w</title>
<path fill="none" stroke="#000000" d="M1707,-462.5C1707,-462.5 1707,-88.8986 1707,-21.7671"/>
<polygon fill="#000000" stroke="#000000" points="1710.5001,-21.5 1707,-11.5 1703.5001,-21.5 1710.5001,-21.5"/>
</g>
</g>
</svg>
