<?xml version="1.0" encoding="UTF-8" standalone="no"?>
<!DOCTYPE svg PUBLIC "-//W3C//DTD SVG 1.1//EN"
 "http://www.w3.org/Graphics/SVG/1.1/DTD/svg11.dtd">
<!-- Generated by graphviz version 2.40.1 (20161225.0304)
 -->
<!-- Title: structs Pages: 1 -->
<svg width="2626pt" height="801pt"
 viewBox="0.00 0.00 2625.50 801.00" xmlns="http://www.w3.org/2000/svg" xmlns:xlink="http://www.w3.org/1999/xlink">
<g id="graph0" class="graph" transform="scale(1 1) rotate(0) translate(4 797)">
<title>structs</title>
<polygon fill="#ffffff" stroke="transparent" points="-4,4 -4,-797 2621.5,-797 2621.5,4 -4,4"/>
<!-- single_subject_THP0005_wffmap_preproc_wf -->
<g id="node1" class="node">
<title>single_subject_THP0005_wffmap_preproc_wf</title>
<polygon fill="none" stroke="#000000" points="0,-689 0,-758 226,-758 226,-689 0,-689"/>
<text text-anchor="middle" x="17.5" y="-719.8" font-family="Times,serif" font-size="14.00" fill="#000000">IN</text>
<polyline fill="none" stroke="#000000" points="35,-689 35,-758 "/>
<text text-anchor="middle" x="105.5" y="-742.8" font-family="Times,serif" font-size="14.00" fill="#000000">fmap_preproc_wf</text>
<polyline fill="none" stroke="#000000" points="35,-735 176,-735 "/>
<text text-anchor="middle" x="105.5" y="-719.8" font-family="Times,serif" font-size="14.00" fill="#000000"> </text>
<polyline fill="none" stroke="#000000" points="35,-712 176,-712 "/>
<text text-anchor="middle" x="105.5" y="-696.8" font-family="Times,serif" font-size="14.00" fill="#000000"> </text>
<polyline fill="none" stroke="#000000" points="176,-689 176,-758 "/>
<text text-anchor="middle" x="201" y="-719.8" font-family="Times,serif" font-size="14.00" fill="#000000">OUT</text>
</g>
<!-- single_subject_THP0005_wfinputnode -->
<g id="node2" class="node">
<title>single_subject_THP0005_wfinputnode</title>
<polygon fill="none" stroke="#000000" points="244.5,-689 244.5,-758 449.5,-758 449.5,-689 244.5,-689"/>
<text text-anchor="middle" x="262" y="-719.8" font-family="Times,serif" font-size="14.00" fill="#000000">IN</text>
<polyline fill="none" stroke="#000000" points="279.5,-689 279.5,-758 "/>
<text text-anchor="middle" x="324" y="-742.8" font-family="Times,serif" font-size="14.00" fill="#000000">inputnode</text>
<polyline fill="none" stroke="#000000" points="279.5,-735 368.5,-735 "/>
<text text-anchor="middle" x="324" y="-719.8" font-family="Times,serif" font-size="14.00" fill="#000000">utility</text>
<polyline fill="none" stroke="#000000" points="279.5,-712 368.5,-712 "/>
<text text-anchor="middle" x="324" y="-696.8" font-family="Times,serif" font-size="14.00" fill="#000000"> </text>
<polyline fill="none" stroke="#000000" points="368.5,-689 368.5,-758 "/>
<text text-anchor="middle" x="409" y="-737.3" font-family="Times,serif" font-size="14.00" fill="#000000">OUT</text>
<polyline fill="none" stroke="#000000" points="368.5,-724 449.5,-724 "/>
<text text-anchor="middle" x="409" y="-702.8" font-family="Times,serif" font-size="14.00" fill="#000000">dwi_data</text>
</g>
<!-- single_subject_THP0005_wfsplit_info -->
<g id="node3" class="node">
<title>single_subject_THP0005_wfsplit_info</title>
<polygon fill="none" stroke="#000000" points="450.5,-502.5 450.5,-617.5 691.5,-617.5 691.5,-502.5 450.5,-502.5"/>
<text text-anchor="middle" x="487.5" y="-585.3" font-family="Times,serif" font-size="14.00" fill="#000000">IN</text>
<polyline fill="none" stroke="#000000" points="450.5,-560.5 524.5,-560.5 "/>
<text text-anchor="middle" x="487.5" y="-527.8" font-family="Times,serif" font-size="14.00" fill="#000000">in_tuple</text>
<polyline fill="none" stroke="#000000" points="524.5,-502.5 524.5,-617.5 "/>
<text text-anchor="middle" x="566" y="-594.8" font-family="Times,serif" font-size="14.00" fill="#000000">split_info</text>
<polyline fill="none" stroke="#000000" points="524.5,-579.5 607.5,-579.5 "/>
<text text-anchor="middle" x="566" y="-556.8" font-family="Times,serif" font-size="14.00" fill="#000000">utility</text>
<polyline fill="none" stroke="#000000" points="524.5,-541.5 607.5,-541.5 "/>
<text text-anchor="middle" x="566" y="-518.3" font-family="Times,serif" font-size="14.00" fill="#000000"> </text>
<polyline fill="none" stroke="#000000" points="607.5,-502.5 607.5,-617.5 "/>
<text text-anchor="middle" x="649.5" y="-602.3" font-family="Times,serif" font-size="14.00" fill="#000000">OUT</text>
<polyline fill="none" stroke="#000000" points="607.5,-594.5 691.5,-594.5 "/>
<text text-anchor="middle" x="649.5" y="-579.3" font-family="Times,serif" font-size="14.00" fill="#000000">bval</text>
<polyline fill="none" stroke="#000000" points="607.5,-571.5 691.5,-571.5 "/>
<text text-anchor="middle" x="649.5" y="-556.3" font-family="Times,serif" font-size="14.00" fill="#000000">bvec</text>
<polyline fill="none" stroke="#000000" points="607.5,-548.5 691.5,-548.5 "/>
<text text-anchor="middle" x="649.5" y="-533.3" font-family="Times,serif" font-size="14.00" fill="#000000">dwi_file</text>
<polyline fill="none" stroke="#000000" points="607.5,-525.5 691.5,-525.5 "/>
<text text-anchor="middle" x="649.5" y="-510.3" font-family="Times,serif" font-size="14.00" fill="#000000">metadata</text>
</g>
<!-- single_subject_THP0005_wfinputnode&#45;&gt;single_subject_THP0005_wfsplit_info -->
<g id="edge27" class="edge">
<title>single_subject_THP0005_wfinputnode:e&#45;&gt;single_subject_THP0005_wfsplit_info:w</title>
<path fill="none" stroke="#000000" d="M450,-706.5C524.0391,-706.5 387.2403,-548.3717 439.8662,-532.3117"/>
<polygon fill="#000000" stroke="#000000" points="440.5321,-535.7548 450,-531 439.6334,-528.8128 440.5321,-535.7548"/>
</g>
<!-- single_subject_THP0005_wfearly_b0ref_wf -->
<g id="node4" class="node">
<title>single_subject_THP0005_wfearly_b0ref_wf</title>
<polygon fill="none" stroke="#000000" points="706,-339 706,-431 1188,-431 1188,-339 706,-339"/>
<text text-anchor="middle" x="780.5" y="-415.8" font-family="Times,serif" font-size="14.00" fill="#000000">IN</text>
<polyline fill="none" stroke="#000000" points="706,-408 855,-408 "/>
<text text-anchor="middle" x="780.5" y="-392.8" font-family="Times,serif" font-size="14.00" fill="#000000">inputnode.dwi_file</text>
<polyline fill="none" stroke="#000000" points="706,-385 855,-385 "/>
<text text-anchor="middle" x="780.5" y="-369.8" font-family="Times,serif" font-size="14.00" fill="#000000">inputnode.in_bval</text>
<polyline fill="none" stroke="#000000" points="706,-362 855,-362 "/>
<text text-anchor="middle" x="780.5" y="-346.8" font-family="Times,serif" font-size="14.00" fill="#000000">inputnode.in_bvec</text>
<polyline fill="none" stroke="#000000" points="855,-339 855,-431 "/>
<text text-anchor="middle" x="916.5" y="-412.3" font-family="Times,serif" font-size="14.00" fill="#000000">early_b0ref_wf</text>
<polyline fill="none" stroke="#000000" points="855,-401 978,-401 "/>
<text text-anchor="middle" x="916.5" y="-381.8" font-family="Times,serif" font-size="14.00" fill="#000000"> </text>
<polyline fill="none" stroke="#000000" points="855,-370 978,-370 "/>
<text text-anchor="middle" x="916.5" y="-350.8" font-family="Times,serif" font-size="14.00" fill="#000000"> </text>
<polyline fill="none" stroke="#000000" points="978,-339 978,-431 "/>
<text text-anchor="middle" x="1083" y="-415.8" font-family="Times,serif" font-size="14.00" fill="#000000">OUT</text>
<polyline fill="none" stroke="#000000" points="978,-408 1188,-408 "/>
<text text-anchor="middle" x="1083" y="-392.8" font-family="Times,serif" font-size="14.00" fill="#000000">outputnode.dwi_mask</text>
<polyline fill="none" stroke="#000000" points="978,-385 1188,-385 "/>
<text text-anchor="middle" x="1083" y="-369.8" font-family="Times,serif" font-size="14.00" fill="#000000">outputnode.dwi_reference</text>
<polyline fill="none" stroke="#000000" points="978,-362 1188,-362 "/>
<text text-anchor="middle" x="1083" y="-346.8" font-family="Times,serif" font-size="14.00" fill="#000000">outputnode.gradients_rasb</text>
</g>
<!-- single_subject_THP0005_wfsplit_info&#45;&gt;single_subject_THP0005_wfearly_b0ref_wf -->
<g id="edge28" class="edge">
<title>single_subject_THP0005_wfsplit_info:e&#45;&gt;single_subject_THP0005_wfearly_b0ref_wf:w</title>
<path fill="none" stroke="#000000" d="M692,-583C712.6447,-583 689.5242,-419.3348 699.9115,-380.9758"/>
<polygon fill="#000000" stroke="#000000" points="702.7142,-383.0725 706,-373 697.1501,-378.8249 702.7142,-383.0725"/>
</g>
<!-- single_subject_THP0005_wfsplit_info&#45;&gt;single_subject_THP0005_wfearly_b0ref_wf -->
<g id="edge29" class="edge">
<title>single_subject_THP0005_wfsplit_info:e&#45;&gt;single_subject_THP0005_wfearly_b0ref_wf:w</title>
<path fill="none" stroke="#000000" d="M692,-560C712.6447,-560 689.5242,-396.3348 699.9115,-357.9758"/>
<polygon fill="#000000" stroke="#000000" points="702.7142,-360.0725 706,-350 697.1501,-355.8249 702.7142,-360.0725"/>
</g>
<!-- single_subject_THP0005_wfsplit_info&#45;&gt;single_subject_THP0005_wfearly_b0ref_wf -->
<g id="edge31" class="edge">
<title>single_subject_THP0005_wfsplit_info:e&#45;&gt;single_subject_THP0005_wfearly_b0ref_wf:w</title>
<path fill="none" stroke="#000000" d="M692,-537C719.358,-537 685.62,-429.8125 697.704,-403.0156"/>
<polygon fill="#000000" stroke="#000000" points="699.959,-405.7038 706,-397 695.8497,-400.0369 699.959,-405.7038"/>
</g>
<!-- single_subject_THP0005_wfreferencenode -->
<g id="node5" class="node">
<title>single_subject_THP0005_wfreferencenode</title>
<polygon fill="none" stroke="#000000" points="1097,-129.5 1097,-267.5 1391,-267.5 1391,-129.5 1097,-129.5"/>
<text text-anchor="middle" x="1159" y="-252.3" font-family="Times,serif" font-size="14.00" fill="#000000">IN</text>
<polyline fill="none" stroke="#000000" points="1097,-244.5 1221,-244.5 "/>
<text text-anchor="middle" x="1159" y="-229.3" font-family="Times,serif" font-size="14.00" fill="#000000">dwi_file</text>
<polyline fill="none" stroke="#000000" points="1097,-221.5 1221,-221.5 "/>
<text text-anchor="middle" x="1159" y="-206.3" font-family="Times,serif" font-size="14.00" fill="#000000">dwi_mask</text>
<polyline fill="none" stroke="#000000" points="1097,-198.5 1221,-198.5 "/>
<text text-anchor="middle" x="1159" y="-183.3" font-family="Times,serif" font-size="14.00" fill="#000000">dwi_reference</text>
<polyline fill="none" stroke="#000000" points="1097,-175.5 1221,-175.5 "/>
<text text-anchor="middle" x="1159" y="-160.3" font-family="Times,serif" font-size="14.00" fill="#000000">gradients_rasb</text>
<polyline fill="none" stroke="#000000" points="1097,-152.5 1221,-152.5 "/>
<text text-anchor="middle" x="1159" y="-137.3" font-family="Times,serif" font-size="14.00" fill="#000000">metadata</text>
<polyline fill="none" stroke="#000000" points="1221,-129.5 1221,-267.5 "/>
<text text-anchor="middle" x="1281" y="-240.8" font-family="Times,serif" font-size="14.00" fill="#000000">referencenode</text>
<polyline fill="none" stroke="#000000" points="1221,-221.5 1341,-221.5 "/>
<text text-anchor="middle" x="1281" y="-194.8" font-family="Times,serif" font-size="14.00" fill="#000000">utility</text>
<polyline fill="none" stroke="#000000" points="1221,-175.5 1341,-175.5 "/>
<text text-anchor="middle" x="1281" y="-148.8" font-family="Times,serif" font-size="14.00" fill="#000000"> </text>
<polyline fill="none" stroke="#000000" points="1341,-129.5 1341,-267.5 "/>
<text text-anchor="middle" x="1366" y="-194.8" font-family="Times,serif" font-size="14.00" fill="#000000">OUT</text>
</g>
<!-- single_subject_THP0005_wfsplit_info&#45;&gt;single_subject_THP0005_wfreferencenode -->
<g id="edge32" class="edge">
<title>single_subject_THP0005_wfsplit_info:e&#45;&gt;single_subject_THP0005_wfreferencenode:w</title>
<path fill="none" stroke="#000000" d="M692,-537C698.4737,-537 692.7856,-308.9141 697,-304 753.6926,-237.8949 989.3314,-233.7219 1086.8999,-233.5102"/>
<polygon fill="#000000" stroke="#000000" points="1087.0036,-237.0102 1097,-233.5 1086.9964,-230.0102 1087.0036,-237.0102"/>
</g>
<!-- single_subject_THP0005_wfsplit_info&#45;&gt;single_subject_THP0005_wfreferencenode -->
<g id="edge33" class="edge">
<title>single_subject_THP0005_wfsplit_info:e&#45;&gt;single_subject_THP0005_wfreferencenode:w</title>
<path fill="none" stroke="#000000" d="M692,-514C692,-514 692,-304 692,-304 798.6613,-145.9154 899.2865,-140.6399 1086.8481,-140.5032"/>
<polygon fill="#000000" stroke="#000000" points="1087.0012,-144.0033 1097,-140.5 1086.9988,-137.0033 1087.0012,-144.0033"/>
</g>
<!-- single_subject_THP0005_wfds_report_reg -->
<g id="node15" class="node">
<title>single_subject_THP0005_wfds_report_reg</title>
<polygon fill="none" stroke="#000000" points="2216,-.5 2216,-92.5 2478,-92.5 2478,-.5 2216,-.5"/>
<text text-anchor="middle" x="2263.5" y="-77.3" font-family="Times,serif" font-size="14.00" fill="#000000">IN</text>
<polyline fill="none" stroke="#000000" points="2216,-69.5 2311,-69.5 "/>
<text text-anchor="middle" x="2263.5" y="-54.3" font-family="Times,serif" font-size="14.00" fill="#000000">desc</text>
<polyline fill="none" stroke="#000000" points="2216,-46.5 2311,-46.5 "/>
<text text-anchor="middle" x="2263.5" y="-31.3" font-family="Times,serif" font-size="14.00" fill="#000000">in_file</text>
<polyline fill="none" stroke="#000000" points="2216,-23.5 2311,-23.5 "/>
<text text-anchor="middle" x="2263.5" y="-8.3" font-family="Times,serif" font-size="14.00" fill="#000000">source_file</text>
<polyline fill="none" stroke="#000000" points="2311,-.5 2311,-92.5 "/>
<text text-anchor="middle" x="2369.5" y="-73.8" font-family="Times,serif" font-size="14.00" fill="#000000">ds_report_reg</text>
<polyline fill="none" stroke="#000000" points="2311,-62.5 2428,-62.5 "/>
<text text-anchor="middle" x="2369.5" y="-43.3" font-family="Times,serif" font-size="14.00" fill="#000000"> </text>
<polyline fill="none" stroke="#000000" points="2311,-31.5 2428,-31.5 "/>
<text text-anchor="middle" x="2369.5" y="-12.3" font-family="Times,serif" font-size="14.00" fill="#000000"> </text>
<polyline fill="none" stroke="#000000" points="2428,-.5 2428,-92.5 "/>
<text text-anchor="middle" x="2453" y="-42.8" font-family="Times,serif" font-size="14.00" fill="#000000">OUT</text>
</g>
<!-- single_subject_THP0005_wfsplit_info&#45;&gt;single_subject_THP0005_wfds_report_reg -->
<g id="edge30" class="edge">
<title>single_subject_THP0005_wfsplit_info:e&#45;&gt;single_subject_THP0005_wfds_report_reg:w</title>
<path fill="none" stroke="#000000" d="M692,-537C698.8934,-537 688.0828,-467.4953 688,-466 684.0184,-394.1102 648.5909,-364.2571 688,-304 794.2115,-141.601 900.3803,-178.5296 1088,-129 1328.4625,-65.5204 1947.3726,-12.9039 2205.8358,-11.5276"/>
<polygon fill="#000000" stroke="#000000" points="2206.0096,-15.0273 2216,-11.5 2205.9905,-8.0273 2206.0096,-15.0273"/>
</g>
<!-- single_subject_THP0005_wfearly_b0ref_wf&#45;&gt;single_subject_THP0005_wfreferencenode -->
<g id="edge20" class="edge">
<title>single_subject_THP0005_wfearly_b0ref_wf:e&#45;&gt;single_subject_THP0005_wfreferencenode:w</title>
<path fill="none" stroke="#000000" d="M1188,-397C1201,-397 1193.7227,-350.1727 1188,-338.5 1165.4782,-292.562 1119.5218,-313.938 1097,-268 1087.6838,-248.9976 1076.2718,-222.035 1087.1376,-213.3279"/>
<polygon fill="#000000" stroke="#000000" points="1088.3521,-216.6208 1097,-210.5 1086.4226,-209.8919 1088.3521,-216.6208"/>
</g>
<!-- single_subject_THP0005_wfearly_b0ref_wf&#45;&gt;single_subject_THP0005_wfreferencenode -->
<g id="edge22" class="edge">
<title>single_subject_THP0005_wfearly_b0ref_wf:e&#45;&gt;single_subject_THP0005_wfreferencenode:w</title>
<path fill="none" stroke="#000000" d="M1188,-373C1203.3333,-373 1194.7498,-352.2677 1188,-338.5 1165.4782,-292.562 1119.5218,-313.938 1097,-268 1082.7987,-239.0335 1065.1615,-197.0167 1087.0627,-188.1721"/>
<polygon fill="#000000" stroke="#000000" points="1087.7194,-191.6109 1097,-186.5 1086.5578,-184.7079 1087.7194,-191.6109"/>
</g>
<!-- single_subject_THP0005_wfearly_b0ref_wf&#45;&gt;single_subject_THP0005_wfreferencenode -->
<g id="edge23" class="edge">
<title>single_subject_THP0005_wfearly_b0ref_wf:e&#45;&gt;single_subject_THP0005_wfreferencenode:w</title>
<path fill="none" stroke="#000000" d="M1188,-350C1193.1111,-350 1190.2499,-343.0892 1188,-338.5 1165.4782,-292.562 1119.5218,-313.938 1097,-268 1078.232,-229.7186 1054.7837,-173.6608 1086.9897,-164.7214"/>
<polygon fill="#000000" stroke="#000000" points="1087.4976,-168.1855 1097,-163.5 1086.6497,-161.237 1087.4976,-168.1855"/>
</g>
<!-- single_subject_THP0005_wfbbreg_wf -->
<g id="node14" class="node">
<title>single_subject_THP0005_wfbbreg_wf</title>
<polygon fill="none" stroke="#000000" points="1732.5,-141 1732.5,-256 2215.5,-256 2215.5,-141 1732.5,-141"/>
<text text-anchor="middle" x="1843" y="-240.8" font-family="Times,serif" font-size="14.00" fill="#000000">IN</text>
<polyline fill="none" stroke="#000000" points="1732.5,-233 1953.5,-233 "/>
<text text-anchor="middle" x="1843" y="-217.8" font-family="Times,serif" font-size="14.00" fill="#000000">inputnode.fsnative2t1w_xfm</text>
<polyline fill="none" stroke="#000000" points="1732.5,-210 1953.5,-210 "/>
<text text-anchor="middle" x="1843" y="-194.8" font-family="Times,serif" font-size="14.00" fill="#000000">inputnode.in_file</text>
<polyline fill="none" stroke="#000000" points="1732.5,-187 1953.5,-187 "/>
<text text-anchor="middle" x="1843" y="-171.8" font-family="Times,serif" font-size="14.00" fill="#000000">inputnode.subject_id</text>
<polyline fill="none" stroke="#000000" points="1732.5,-164 1953.5,-164 "/>
<text text-anchor="middle" x="1843" y="-148.8" font-family="Times,serif" font-size="14.00" fill="#000000">inputnode.subjects_dir</text>
<polyline fill="none" stroke="#000000" points="1953.5,-141 1953.5,-256 "/>
<text text-anchor="middle" x="1995" y="-233.3" font-family="Times,serif" font-size="14.00" fill="#000000">bbreg_wf</text>
<polyline fill="none" stroke="#000000" points="1953.5,-218 2036.5,-218 "/>
<text text-anchor="middle" x="1995" y="-195.3" font-family="Times,serif" font-size="14.00" fill="#000000"> </text>
<polyline fill="none" stroke="#000000" points="1953.5,-180 2036.5,-180 "/>
<text text-anchor="middle" x="1995" y="-156.8" font-family="Times,serif" font-size="14.00" fill="#000000"> </text>
<polyline fill="none" stroke="#000000" points="2036.5,-141 2036.5,-256 "/>
<text text-anchor="middle" x="2126" y="-233.3" font-family="Times,serif" font-size="14.00" fill="#000000">OUT</text>
<polyline fill="none" stroke="#000000" points="2036.5,-218 2215.5,-218 "/>
<text text-anchor="middle" x="2126" y="-195.3" font-family="Times,serif" font-size="14.00" fill="#000000">outputnode.fallback</text>
<polyline fill="none" stroke="#000000" points="2036.5,-180 2215.5,-180 "/>
<text text-anchor="middle" x="2126" y="-156.8" font-family="Times,serif" font-size="14.00" fill="#000000">outputnode.out_report</text>
</g>
<!-- single_subject_THP0005_wfearly_b0ref_wf&#45;&gt;single_subject_THP0005_wfbbreg_wf -->
<g id="edge21" class="edge">
<title>single_subject_THP0005_wfearly_b0ref_wf:e&#45;&gt;single_subject_THP0005_wfbbreg_wf:w</title>
<path fill="none" stroke="#000000" d="M1188,-373C1247.6053,-373 1246.2881,-322.3455 1303,-304 1392.3389,-275.1002 1656.6393,-333.4154 1724,-268 1732.5825,-259.6654 1723.4871,-223.0019 1725.9234,-206.545"/>
<polygon fill="#000000" stroke="#000000" points="1728.7656,-208.5891 1732,-198.5 1723.1799,-204.3701 1728.7656,-208.5891"/>
</g>
<!-- single_subject_THP0005_wfabout -->
<g id="node6" class="node">
<title>single_subject_THP0005_wfabout</title>
<polygon fill="none" stroke="#000000" points="1800,-689 1800,-758 1996,-758 1996,-689 1800,-689"/>
<text text-anchor="middle" x="1817.5" y="-719.8" font-family="Times,serif" font-size="14.00" fill="#000000">IN</text>
<polyline fill="none" stroke="#000000" points="1835,-689 1835,-758 "/>
<text text-anchor="middle" x="1869.5" y="-742.8" font-family="Times,serif" font-size="14.00" fill="#000000">about</text>
<polyline fill="none" stroke="#000000" points="1835,-735 1904,-735 "/>
<text text-anchor="middle" x="1869.5" y="-719.8" font-family="Times,serif" font-size="14.00" fill="#000000">reports</text>
<polyline fill="none" stroke="#000000" points="1835,-712 1904,-712 "/>
<text text-anchor="middle" x="1869.5" y="-696.8" font-family="Times,serif" font-size="14.00" fill="#000000"> </text>
<polyline fill="none" stroke="#000000" points="1904,-689 1904,-758 "/>
<text text-anchor="middle" x="1950" y="-737.3" font-family="Times,serif" font-size="14.00" fill="#000000">OUT</text>
<polyline fill="none" stroke="#000000" points="1904,-724 1996,-724 "/>
<text text-anchor="middle" x="1950" y="-702.8" font-family="Times,serif" font-size="14.00" fill="#000000">out_report</text>
</g>
<!-- single_subject_THP0005_wfds_report_about -->
<g id="node8" class="node">
<title>single_subject_THP0005_wfds_report_about</title>
<polygon fill="none" stroke="#000000" points="1996.5,-525.5 1996.5,-594.5 2275.5,-594.5 2275.5,-525.5 1996.5,-525.5"/>
<text text-anchor="middle" x="2044" y="-579.3" font-family="Times,serif" font-size="14.00" fill="#000000">IN</text>
<polyline fill="none" stroke="#000000" points="1996.5,-571.5 2091.5,-571.5 "/>
<text text-anchor="middle" x="2044" y="-556.3" font-family="Times,serif" font-size="14.00" fill="#000000">in_file</text>
<polyline fill="none" stroke="#000000" points="1996.5,-548.5 2091.5,-548.5 "/>
<text text-anchor="middle" x="2044" y="-533.3" font-family="Times,serif" font-size="14.00" fill="#000000">source_file</text>
<polyline fill="none" stroke="#000000" points="2091.5,-525.5 2091.5,-594.5 "/>
<text text-anchor="middle" x="2158.5" y="-579.3" font-family="Times,serif" font-size="14.00" fill="#000000">ds_report_about</text>
<polyline fill="none" stroke="#000000" points="2091.5,-571.5 2225.5,-571.5 "/>
<text text-anchor="middle" x="2158.5" y="-556.3" font-family="Times,serif" font-size="14.00" fill="#000000"> </text>
<polyline fill="none" stroke="#000000" points="2091.5,-548.5 2225.5,-548.5 "/>
<text text-anchor="middle" x="2158.5" y="-533.3" font-family="Times,serif" font-size="14.00" fill="#000000"> </text>
<polyline fill="none" stroke="#000000" points="2225.5,-525.5 2225.5,-594.5 "/>
<text text-anchor="middle" x="2250.5" y="-556.3" font-family="Times,serif" font-size="14.00" fill="#000000">OUT</text>
</g>
<!-- single_subject_THP0005_wfabout&#45;&gt;single_subject_THP0005_wfds_report_about -->
<g id="edge1" class="edge">
<title>single_subject_THP0005_wfabout:e&#45;&gt;single_subject_THP0005_wfds_report_about:w</title>
<path fill="none" stroke="#000000" d="M1996,-706.5C2024.4861,-706.5 1978.1962,-594.3359 1987.9883,-566.2949"/>
<polygon fill="#000000" stroke="#000000" points="1990.2992,-568.9304 1996,-560 1985.9744,-563.4261 1990.2992,-568.9304"/>
</g>
<!-- single_subject_THP0005_wfbidssrc -->
<g id="node7" class="node">
<title>single_subject_THP0005_wfbidssrc</title>
<polygon fill="none" stroke="#000000" points="1545,-654.5 1545,-792.5 1699,-792.5 1699,-654.5 1545,-654.5"/>
<text text-anchor="middle" x="1562.5" y="-719.8" font-family="Times,serif" font-size="14.00" fill="#000000">IN</text>
<polyline fill="none" stroke="#000000" points="1580,-654.5 1580,-792.5 "/>
<text text-anchor="middle" x="1614.5" y="-765.8" font-family="Times,serif" font-size="14.00" fill="#000000">bidssrc</text>
<polyline fill="none" stroke="#000000" points="1580,-746.5 1649,-746.5 "/>
<text text-anchor="middle" x="1614.5" y="-719.8" font-family="Times,serif" font-size="14.00" fill="#000000"> </text>
<polyline fill="none" stroke="#000000" points="1580,-700.5 1649,-700.5 "/>
<text text-anchor="middle" x="1614.5" y="-673.8" font-family="Times,serif" font-size="14.00" fill="#000000"> </text>
<polyline fill="none" stroke="#000000" points="1649,-654.5 1649,-792.5 "/>
<text text-anchor="middle" x="1674" y="-777.3" font-family="Times,serif" font-size="14.00" fill="#000000">OUT</text>
<polyline fill="none" stroke="#000000" points="1649,-769.5 1699,-769.5 "/>
<text text-anchor="middle" x="1674" y="-754.3" font-family="Times,serif" font-size="14.00" fill="#000000">dwi</text>
<polyline fill="none" stroke="#000000" points="1649,-746.5 1699,-746.5 "/>
<text text-anchor="middle" x="1674" y="-731.3" font-family="Times,serif" font-size="14.00" fill="#000000">flair</text>
<polyline fill="none" stroke="#000000" points="1649,-723.5 1699,-723.5 "/>
<text text-anchor="middle" x="1674" y="-708.3" font-family="Times,serif" font-size="14.00" fill="#000000">roi</text>
<polyline fill="none" stroke="#000000" points="1649,-700.5 1699,-700.5 "/>
<text text-anchor="middle" x="1674" y="-685.3" font-family="Times,serif" font-size="14.00" fill="#000000">t1w</text>
<polyline fill="none" stroke="#000000" points="1649,-677.5 1699,-677.5 "/>
<text text-anchor="middle" x="1674" y="-662.3" font-family="Times,serif" font-size="14.00" fill="#000000">t2w</text>
</g>
<!-- single_subject_THP0005_wfbidssrc&#45;&gt;single_subject_THP0005_wfds_report_about -->
<g id="edge15" class="edge">
<title>single_subject_THP0005_wfbidssrc:e&#45;&gt;single_subject_THP0005_wfds_report_about:w</title>
<path fill="none" stroke="#000000" d="M1699,-688.5C1742.6694,-688.5 1748.9424,-665.7546 1791,-654 1874.1953,-630.7479 1921.382,-679.5433 1982,-618 1992.2648,-607.5786 1983.3537,-561.9064 1988.7759,-544.1225"/>
<polygon fill="#000000" stroke="#000000" points="1991.3363,-546.5132 1996,-537 1986.4217,-541.5285 1991.3363,-546.5132"/>
</g>
<!-- single_subject_THP0005_wfbids_info -->
<g id="node9" class="node">
<title>single_subject_THP0005_wfbids_info</title>
<polygon fill="none" stroke="#000000" points="1616,-525.5 1616,-594.5 1826,-594.5 1826,-525.5 1616,-525.5"/>
<text text-anchor="middle" x="1646" y="-573.8" font-family="Times,serif" font-size="14.00" fill="#000000">IN</text>
<polyline fill="none" stroke="#000000" points="1616,-560.5 1676,-560.5 "/>
<text text-anchor="middle" x="1646" y="-539.3" font-family="Times,serif" font-size="14.00" fill="#000000">in_file</text>
<polyline fill="none" stroke="#000000" points="1676,-525.5 1676,-594.5 "/>
<text text-anchor="middle" x="1716.5" y="-579.3" font-family="Times,serif" font-size="14.00" fill="#000000">bids_info</text>
<polyline fill="none" stroke="#000000" points="1676,-571.5 1757,-571.5 "/>
<text text-anchor="middle" x="1716.5" y="-556.3" font-family="Times,serif" font-size="14.00" fill="#000000">bids</text>
<polyline fill="none" stroke="#000000" points="1676,-548.5 1757,-548.5 "/>
<text text-anchor="middle" x="1716.5" y="-533.3" font-family="Times,serif" font-size="14.00" fill="#000000"> </text>
<polyline fill="none" stroke="#000000" points="1757,-525.5 1757,-594.5 "/>
<text text-anchor="middle" x="1791.5" y="-573.8" font-family="Times,serif" font-size="14.00" fill="#000000">OUT</text>
<polyline fill="none" stroke="#000000" points="1757,-560.5 1826,-560.5 "/>
<text text-anchor="middle" x="1791.5" y="-539.3" font-family="Times,serif" font-size="14.00" fill="#000000">subject</text>
</g>
<!-- single_subject_THP0005_wfbidssrc&#45;&gt;single_subject_THP0005_wfbids_info -->
<g id="edge14" class="edge">
<title>single_subject_THP0005_wfbidssrc:e&#45;&gt;single_subject_THP0005_wfbids_info:w</title>
<path fill="none" stroke="#000000" d="M1699,-688.5C1714.3333,-688.5 1706.0318,-667.6259 1699,-654 1678.2443,-613.7807 1636.7557,-635.2193 1616,-595 1612.1911,-587.6193 1607.8879,-563.9851 1610.0593,-551.2747"/>
<polygon fill="#000000" stroke="#000000" points="1613.0111,-553.1645 1616,-543 1607.3248,-549.082 1613.0111,-553.1645"/>
</g>
<!-- single_subject_THP0005_wfsummary -->
<g id="node11" class="node">
<title>single_subject_THP0005_wfsummary</title>
<polygon fill="none" stroke="#000000" points="1311.5,-316 1311.5,-454 1590.5,-454 1590.5,-316 1311.5,-316"/>
<text text-anchor="middle" x="1363.5" y="-438.8" font-family="Times,serif" font-size="14.00" fill="#000000">IN</text>
<polyline fill="none" stroke="#000000" points="1311.5,-431 1415.5,-431 "/>
<text text-anchor="middle" x="1363.5" y="-415.8" font-family="Times,serif" font-size="14.00" fill="#000000">dwi</text>
<polyline fill="none" stroke="#000000" points="1311.5,-408 1415.5,-408 "/>
<text text-anchor="middle" x="1363.5" y="-392.8" font-family="Times,serif" font-size="14.00" fill="#000000">subject_id</text>
<polyline fill="none" stroke="#000000" points="1311.5,-385 1415.5,-385 "/>
<text text-anchor="middle" x="1363.5" y="-369.8" font-family="Times,serif" font-size="14.00" fill="#000000">subjects_dir</text>
<polyline fill="none" stroke="#000000" points="1311.5,-362 1415.5,-362 "/>
<text text-anchor="middle" x="1363.5" y="-346.8" font-family="Times,serif" font-size="14.00" fill="#000000">t1w</text>
<polyline fill="none" stroke="#000000" points="1311.5,-339 1415.5,-339 "/>
<text text-anchor="middle" x="1363.5" y="-323.8" font-family="Times,serif" font-size="14.00" fill="#000000">t2w</text>
<polyline fill="none" stroke="#000000" points="1415.5,-316 1415.5,-454 "/>
<text text-anchor="middle" x="1457" y="-427.3" font-family="Times,serif" font-size="14.00" fill="#000000">summary</text>
<polyline fill="none" stroke="#000000" points="1415.5,-408 1498.5,-408 "/>
<text text-anchor="middle" x="1457" y="-381.3" font-family="Times,serif" font-size="14.00" fill="#000000">reports</text>
<polyline fill="none" stroke="#000000" points="1415.5,-362 1498.5,-362 "/>
<text text-anchor="middle" x="1457" y="-335.3" font-family="Times,serif" font-size="14.00" fill="#000000"> </text>
<polyline fill="none" stroke="#000000" points="1498.5,-316 1498.5,-454 "/>
<text text-anchor="middle" x="1544.5" y="-415.8" font-family="Times,serif" font-size="14.00" fill="#000000">OUT</text>
<polyline fill="none" stroke="#000000" points="1498.5,-385 1590.5,-385 "/>
<text text-anchor="middle" x="1544.5" y="-346.8" font-family="Times,serif" font-size="14.00" fill="#000000">out_report</text>
</g>
<!-- single_subject_THP0005_wfbidssrc&#45;&gt;single_subject_THP0005_wfsummary -->
<g id="edge10" class="edge">
<title>single_subject_THP0005_wfbidssrc:e&#45;&gt;single_subject_THP0005_wfsummary:w</title>
<path fill="none" stroke="#000000" d="M1699,-758.5C1745.4444,-758.5 1730.1157,-688.4804 1699,-654 1646.6174,-595.9531 1407.655,-669.7008 1349,-618 1334.3612,-605.0968 1299.393,-464.4301 1305.4282,-428.3789"/>
<polygon fill="#000000" stroke="#000000" points="1308.3771,-430.2651 1311,-420 1302.5482,-426.3889 1308.3771,-430.2651"/>
</g>
<!-- single_subject_THP0005_wfbidssrc&#45;&gt;single_subject_THP0005_wfsummary -->
<g id="edge17" class="edge">
<title>single_subject_THP0005_wfbidssrc:e&#45;&gt;single_subject_THP0005_wfsummary:w</title>
<path fill="none" stroke="#000000" d="M1699,-688.5C1714.3333,-688.5 1709.332,-665.3296 1699,-654 1640.3535,-589.6906 1367.6465,-682.3094 1309,-618 1285.7645,-592.5209 1281.3382,-394.8115 1303.0302,-356.4394"/>
<polygon fill="#000000" stroke="#000000" points="1305.4213,-359.0071 1311,-350 1301.022,-353.5623 1305.4213,-359.0071"/>
</g>
<!-- single_subject_THP0005_wfbidssrc&#45;&gt;single_subject_THP0005_wfsummary -->
<g id="edge19" class="edge">
<title>single_subject_THP0005_wfbidssrc:e&#45;&gt;single_subject_THP0005_wfsummary:w</title>
<path fill="none" stroke="#000000" d="M1699,-665.5C1704.1111,-665.5 1702.454,-657.7674 1699,-654 1636.5932,-585.931 1347.4068,-686.069 1285,-618 1246.3051,-575.7943 1279.4782,-373.6772 1303.4804,-333.8304"/>
<polygon fill="#000000" stroke="#000000" points="1305.9512,-336.3145 1311,-327 1301.2445,-331.133 1305.9512,-336.3145"/>
</g>
<!-- single_subject_THP0005_wfds_report_summary -->
<g id="node12" class="node">
<title>single_subject_THP0005_wfds_report_summary</title>
<polygon fill="none" stroke="#000000" points="1409.5,-164 1409.5,-233 1714.5,-233 1714.5,-164 1409.5,-164"/>
<text text-anchor="middle" x="1457" y="-217.8" font-family="Times,serif" font-size="14.00" fill="#000000">IN</text>
<polyline fill="none" stroke="#000000" points="1409.5,-210 1504.5,-210 "/>
<text text-anchor="middle" x="1457" y="-194.8" font-family="Times,serif" font-size="14.00" fill="#000000">in_file</text>
<polyline fill="none" stroke="#000000" points="1409.5,-187 1504.5,-187 "/>
<text text-anchor="middle" x="1457" y="-171.8" font-family="Times,serif" font-size="14.00" fill="#000000">source_file</text>
<polyline fill="none" stroke="#000000" points="1504.5,-164 1504.5,-233 "/>
<text text-anchor="middle" x="1584.5" y="-217.8" font-family="Times,serif" font-size="14.00" fill="#000000">ds_report_summary</text>
<polyline fill="none" stroke="#000000" points="1504.5,-210 1664.5,-210 "/>
<text text-anchor="middle" x="1584.5" y="-194.8" font-family="Times,serif" font-size="14.00" fill="#000000"> </text>
<polyline fill="none" stroke="#000000" points="1504.5,-187 1664.5,-187 "/>
<text text-anchor="middle" x="1584.5" y="-171.8" font-family="Times,serif" font-size="14.00" fill="#000000"> </text>
<polyline fill="none" stroke="#000000" points="1664.5,-164 1664.5,-233 "/>
<text text-anchor="middle" x="1689.5" y="-194.8" font-family="Times,serif" font-size="14.00" fill="#000000">OUT</text>
</g>
<!-- single_subject_THP0005_wfbidssrc&#45;&gt;single_subject_THP0005_wfds_report_summary -->
<g id="edge16" class="edge">
<title>single_subject_THP0005_wfbidssrc:e&#45;&gt;single_subject_THP0005_wfds_report_summary:w</title>
<path fill="none" stroke="#000000" d="M1699,-688.5C1714.3333,-688.5 1709.3866,-665.2796 1699,-654 1633.1452,-582.4835 1328.8548,-689.5165 1263,-618 1215.7842,-566.7249 1284.3217,-325.8465 1303,-304 1332.8827,-269.0487 1371.9442,-304.4341 1400,-268 1410.2871,-254.6409 1396.0106,-201.4417 1401.6598,-182.3579"/>
<polygon fill="#000000" stroke="#000000" points="1404.0824,-184.8844 1409,-175.5 1399.3035,-179.7695 1404.0824,-184.8844"/>
</g>
<!-- single_subject_THP0005_wfanat_preproc_wf -->
<g id="node13" class="node">
<title>single_subject_THP0005_wfanat_preproc_wf</title>
<polygon fill="none" stroke="#000000" points="1854,-304.5 1854,-465.5 2402,-465.5 2402,-304.5 1854,-304.5"/>
<text text-anchor="middle" x="1944.5" y="-450.3" font-family="Times,serif" font-size="14.00" fill="#000000">IN</text>
<polyline fill="none" stroke="#000000" points="1854,-442.5 2035,-442.5 "/>
<text text-anchor="middle" x="1944.5" y="-427.3" font-family="Times,serif" font-size="14.00" fill="#000000">inputnode.flair</text>
<polyline fill="none" stroke="#000000" points="1854,-419.5 2035,-419.5 "/>
<text text-anchor="middle" x="1944.5" y="-404.3" font-family="Times,serif" font-size="14.00" fill="#000000">inputnode.roi</text>
<polyline fill="none" stroke="#000000" points="1854,-396.5 2035,-396.5 "/>
<text text-anchor="middle" x="1944.5" y="-381.3" font-family="Times,serif" font-size="14.00" fill="#000000">inputnode.subject_id</text>
<polyline fill="none" stroke="#000000" points="1854,-373.5 2035,-373.5 "/>
<text text-anchor="middle" x="1944.5" y="-358.3" font-family="Times,serif" font-size="14.00" fill="#000000">inputnode.subjects_dir</text>
<polyline fill="none" stroke="#000000" points="1854,-350.5 2035,-350.5 "/>
<text text-anchor="middle" x="1944.5" y="-335.3" font-family="Times,serif" font-size="14.00" fill="#000000">inputnode.t1w</text>
<polyline fill="none" stroke="#000000" points="1854,-327.5 2035,-327.5 "/>
<text text-anchor="middle" x="1944.5" y="-312.3" font-family="Times,serif" font-size="14.00" fill="#000000">inputnode.t2w</text>
<polyline fill="none" stroke="#000000" points="2035,-304.5 2035,-465.5 "/>
<text text-anchor="middle" x="2103.5" y="-435.3" font-family="Times,serif" font-size="14.00" fill="#000000">anat_preproc_wf</text>
<polyline fill="none" stroke="#000000" points="2035,-412.5 2172,-412.5 "/>
<text text-anchor="middle" x="2103.5" y="-381.8" font-family="Times,serif" font-size="14.00" fill="#000000"> </text>
<polyline fill="none" stroke="#000000" points="2035,-358.5 2172,-358.5 "/>
<text text-anchor="middle" x="2103.5" y="-327.8" font-family="Times,serif" font-size="14.00" fill="#000000"> </text>
<polyline fill="none" stroke="#000000" points="2172,-304.5 2172,-465.5 "/>
<text text-anchor="middle" x="2287" y="-441.8" font-family="Times,serif" font-size="14.00" fill="#000000">OUT</text>
<polyline fill="none" stroke="#000000" points="2172,-425.5 2402,-425.5 "/>
<text text-anchor="middle" x="2287" y="-401.8" font-family="Times,serif" font-size="14.00" fill="#000000">outputnode.fsnative2t1w_xfm</text>
<polyline fill="none" stroke="#000000" points="2172,-385.5 2402,-385.5 "/>
<text text-anchor="middle" x="2287" y="-361.8" font-family="Times,serif" font-size="14.00" fill="#000000">outputnode.t1w_mask</text>
<polyline fill="none" stroke="#000000" points="2172,-345.5 2402,-345.5 "/>
<text text-anchor="middle" x="2287" y="-321.3" font-family="Times,serif" font-size="14.00" fill="#000000">outputnode.t1w_preproc</text>
</g>
<!-- single_subject_THP0005_wfbidssrc&#45;&gt;single_subject_THP0005_wfanat_preproc_wf -->
<g id="edge11" class="edge">
<title>single_subject_THP0005_wfbidssrc:e&#45;&gt;single_subject_THP0005_wfanat_preproc_wf:w</title>
<path fill="none" stroke="#000000" d="M1699,-735.5C1753.6255,-735.5 1742.4976,-679.129 1791,-654 1853.0265,-621.8641 1900.6278,-672.7618 1944,-618 1976.0093,-577.5849 1972.9035,-544.6915 1944,-502 1919.8474,-466.3258 1878.1526,-501.6742 1854,-466 1848.0044,-457.1443 1842.9003,-443.9222 1845.3506,-436.5232"/>
<polygon fill="#000000" stroke="#000000" points="1847.4555,-439.3319 1854,-431 1843.6881,-433.4321 1847.4555,-439.3319"/>
</g>
<!-- single_subject_THP0005_wfbidssrc&#45;&gt;single_subject_THP0005_wfanat_preproc_wf -->
<g id="edge12" class="edge">
<title>single_subject_THP0005_wfbidssrc:e&#45;&gt;single_subject_THP0005_wfanat_preproc_wf:w</title>
<path fill="none" stroke="#000000" d="M1699,-711.5C1747.2181,-711.5 1747.1913,-674.1441 1791,-654 1839.6593,-631.6255 1874.287,-661.1582 1906,-618 1936.528,-576.4546 1929.9273,-547.6668 1906,-502 1892.9544,-477.1015 1867.0456,-490.8985 1854,-466 1843.9991,-446.9127 1832.7052,-419.2071 1844.3265,-410.6299"/>
<polygon fill="#000000" stroke="#000000" points="1845.2685,-414.001 1854,-408 1843.432,-407.2461 1845.2685,-414.001"/>
</g>
<!-- single_subject_THP0005_wfbidssrc&#45;&gt;single_subject_THP0005_wfanat_preproc_wf -->
<g id="edge13" class="edge">
<title>single_subject_THP0005_wfbidssrc:e&#45;&gt;single_subject_THP0005_wfanat_preproc_wf:w</title>
<path fill="none" stroke="#000000" d="M1699,-688.5C1704.0865,-688.5 1865.1794,-622.2328 1868,-618 1934.8306,-517.7084 1741.7363,-349.2317 1843.9253,-339.4461"/>
<polygon fill="#000000" stroke="#000000" points="1844.1647,-342.9391 1854,-339 1843.8549,-335.9459 1844.1647,-342.9391"/>
</g>
<!-- single_subject_THP0005_wfbidssrc&#45;&gt;single_subject_THP0005_wfanat_preproc_wf -->
<g id="edge18" class="edge">
<title>single_subject_THP0005_wfbidssrc:e&#45;&gt;single_subject_THP0005_wfanat_preproc_wf:w</title>
<path fill="none" stroke="#000000" d="M1699,-665.5C1731.0125,-665.5 1815.6569,-643.5078 1835,-618 1914.0399,-513.7695 1730.0643,-326.5897 1843.6983,-316.4313"/>
<polygon fill="#000000" stroke="#000000" points="1844.1552,-319.9153 1854,-316 1843.8623,-312.9214 1844.1552,-319.9153"/>
</g>
<!-- single_subject_THP0005_wfbids_info&#45;&gt;single_subject_THP0005_wfsummary -->
<g id="edge9" class="edge">
<title>single_subject_THP0005_wfbids_info:e&#45;&gt;single_subject_THP0005_wfsummary:w</title>
<path fill="none" stroke="#000000" d="M1826,-543C1834,-543 1831.2593,-531.0283 1826,-525 1750.0616,-437.9579 1386.9384,-541.5421 1311,-454.5 1296.9559,-438.4024 1288.5338,-409.0375 1301.0765,-399.8354"/>
<polygon fill="#000000" stroke="#000000" points="1302.3464,-403.1127 1311,-397 1300.4232,-396.382 1302.3464,-403.1127"/>
</g>
<!-- single_subject_THP0005_wfbids_info&#45;&gt;single_subject_THP0005_wfanat_preproc_wf -->
<g id="edge7" class="edge">
<title>single_subject_THP0005_wfbids_info:e&#45;&gt;single_subject_THP0005_wfanat_preproc_wf:w</title>
<path fill="none" stroke="#000000" d="M1826,-543C1841.3915,-543 1837.7885,-425.2498 1847.9862,-393.0525"/>
<polygon fill="#000000" stroke="#000000" points="1850.8205,-395.1065 1854,-385 1845.212,-390.9179 1850.8205,-395.1065"/>
</g>
<!-- single_subject_THP0005_wfbids_info&#45;&gt;single_subject_THP0005_wfbbreg_wf -->
<g id="edge8" class="edge">
<title>single_subject_THP0005_wfbids_info:e&#45;&gt;single_subject_THP0005_wfbbreg_wf:w</title>
<path fill="none" stroke="#000000" d="M1826,-543C1834,-543 1827.3407,-532.8869 1826,-525 1804.8115,-400.353 1753.1885,-381.147 1732,-256.5 1730.8335,-249.6375 1726.0876,-204.9358 1728.161,-185.0326"/>
<polygon fill="#000000" stroke="#000000" points="1731.5109,-186.0835 1732,-175.5 1725.0177,-183.4685 1731.5109,-186.0835"/>
</g>
<!-- single_subject_THP0005_wffsinputnode -->
<g id="node10" class="node">
<title>single_subject_THP0005_wffsinputnode</title>
<polygon fill="none" stroke="#000000" points="1358,-525.5 1358,-594.5 1598,-594.5 1598,-525.5 1358,-525.5"/>
<text text-anchor="middle" x="1375.5" y="-556.3" font-family="Times,serif" font-size="14.00" fill="#000000">IN</text>
<polyline fill="none" stroke="#000000" points="1393,-525.5 1393,-594.5 "/>
<text text-anchor="middle" x="1443.5" y="-579.3" font-family="Times,serif" font-size="14.00" fill="#000000">fsinputnode</text>
<polyline fill="none" stroke="#000000" points="1393,-571.5 1494,-571.5 "/>
<text text-anchor="middle" x="1443.5" y="-556.3" font-family="Times,serif" font-size="14.00" fill="#000000">utility</text>
<polyline fill="none" stroke="#000000" points="1393,-548.5 1494,-548.5 "/>
<text text-anchor="middle" x="1443.5" y="-533.3" font-family="Times,serif" font-size="14.00" fill="#000000"> </text>
<polyline fill="none" stroke="#000000" points="1494,-525.5 1494,-594.5 "/>
<text text-anchor="middle" x="1546" y="-573.8" font-family="Times,serif" font-size="14.00" fill="#000000">OUT</text>
<polyline fill="none" stroke="#000000" points="1494,-560.5 1598,-560.5 "/>
<text text-anchor="middle" x="1546" y="-539.3" font-family="Times,serif" font-size="14.00" fill="#000000">subjects_dir</text>
</g>
<!-- single_subject_THP0005_wffsinputnode&#45;&gt;single_subject_THP0005_wfsummary -->
<g id="edge26" class="edge">
<title>single_subject_THP0005_wffsinputnode:e&#45;&gt;single_subject_THP0005_wfsummary:w</title>
<path fill="none" stroke="#000000" d="M1598,-543C1606,-543 1602.9362,-531.2955 1598,-525 1516.9548,-421.6372 1392.0452,-557.8628 1311,-454.5 1291.0944,-429.113 1277.9137,-384.2997 1300.8579,-374.8005"/>
<polygon fill="#000000" stroke="#000000" points="1301.7658,-378.1942 1311,-373 1300.5421,-371.302 1301.7658,-378.1942"/>
</g>
<!-- single_subject_THP0005_wffsinputnode&#45;&gt;single_subject_THP0005_wfanat_preproc_wf -->
<g id="edge24" class="edge">
<title>single_subject_THP0005_wffsinputnode:e&#45;&gt;single_subject_THP0005_wfanat_preproc_wf:w</title>
<path fill="none" stroke="#000000" d="M1598,-543C1616.6561,-543 1594.667,-515.9981 1607,-502 1638.5033,-466.2431 1665.745,-488.0347 1708,-466 1775.4674,-430.8179 1774.5675,-367.973 1843.7574,-362.3978"/>
<polygon fill="#000000" stroke="#000000" points="1844.1434,-365.8855 1854,-362 1843.8717,-358.8908 1844.1434,-365.8855"/>
</g>
<!-- single_subject_THP0005_wffsinputnode&#45;&gt;single_subject_THP0005_wfbbreg_wf -->
<g id="edge25" class="edge">
<title>single_subject_THP0005_wffsinputnode:e&#45;&gt;single_subject_THP0005_wfbbreg_wf:w</title>
<path fill="none" stroke="#000000" d="M1598,-543C1607.328,-543 1603.8904,-510.7945 1607,-502 1645.7617,-392.3755 1693.3892,-380.1739 1724,-268 1726.7781,-257.8197 1721.7253,-186.62 1726.9207,-161.3614"/>
<polygon fill="#000000" stroke="#000000" points="1730.0635,-162.9164 1732,-152.5 1723.9905,-159.4353 1730.0635,-162.9164"/>
</g>
<!-- single_subject_THP0005_wfsummary&#45;&gt;single_subject_THP0005_wfds_report_summary -->
<g id="edge34" class="edge">
<title>single_subject_THP0005_wfsummary:e&#45;&gt;single_subject_THP0005_wfds_report_summary:w</title>
<path fill="none" stroke="#000000" d="M1591,-350C1606.3333,-350 1599.3226,-328.3781 1591,-315.5 1542.8447,-240.9864 1457.1553,-308.0136 1409,-233.5 1406.3285,-229.3662 1403.9235,-216.4485 1404.4885,-207.5193"/>
<polygon fill="#000000" stroke="#000000" points="1407.6566,-209.0093 1409,-198.5 1401.3961,-205.8778 1407.6566,-209.0093"/>
</g>
<!-- single_subject_THP0005_wfanat_preproc_wf&#45;&gt;single_subject_THP0005_wfbbreg_wf -->
<g id="edge2" class="edge">
<title>single_subject_THP0005_wfanat_preproc_wf:e&#45;&gt;single_subject_THP0005_wfbbreg_wf:w</title>
<path fill="none" stroke="#000000" d="M2402,-406C2447.3333,-406 2432.9013,-337.1696 2402,-304 2300.2558,-194.7872 1833.7442,-365.7128 1732,-256.5 1728.6036,-252.8543 1726.3668,-239.5156 1727.2427,-230.3993"/>
<polygon fill="#000000" stroke="#000000" points="1730.3722,-231.9691 1732,-221.5 1724.1989,-228.669 1730.3722,-231.9691"/>
</g>
<!-- single_subject_THP0005_wft1w_brain -->
<g id="node16" class="node">
<title>single_subject_THP0005_wft1w_brain</title>
<polygon fill="none" stroke="#000000" points="2402.5,-164 2402.5,-233 2617.5,-233 2617.5,-164 2402.5,-164"/>
<text text-anchor="middle" x="2440.5" y="-217.8" font-family="Times,serif" font-size="14.00" fill="#000000">IN</text>
<polyline fill="none" stroke="#000000" points="2402.5,-210 2478.5,-210 "/>
<text text-anchor="middle" x="2440.5" y="-194.8" font-family="Times,serif" font-size="14.00" fill="#000000">in_file</text>
<polyline fill="none" stroke="#000000" points="2402.5,-187 2478.5,-187 "/>
<text text-anchor="middle" x="2440.5" y="-171.8" font-family="Times,serif" font-size="14.00" fill="#000000">in_mask</text>
<polyline fill="none" stroke="#000000" points="2478.5,-164 2478.5,-233 "/>
<text text-anchor="middle" x="2523" y="-217.8" font-family="Times,serif" font-size="14.00" fill="#000000">t1w_brain</text>
<polyline fill="none" stroke="#000000" points="2478.5,-210 2567.5,-210 "/>
<text text-anchor="middle" x="2523" y="-194.8" font-family="Times,serif" font-size="14.00" fill="#000000">nibabel</text>
<polyline fill="none" stroke="#000000" points="2478.5,-187 2567.5,-187 "/>
<text text-anchor="middle" x="2523" y="-171.8" font-family="Times,serif" font-size="14.00" fill="#000000"> </text>
<polyline fill="none" stroke="#000000" points="2567.5,-164 2567.5,-233 "/>
<text text-anchor="middle" x="2592.5" y="-194.8" font-family="Times,serif" font-size="14.00" fill="#000000">OUT</text>
</g>
<!-- single_subject_THP0005_wfanat_preproc_wf&#45;&gt;single_subject_THP0005_wft1w_brain -->
<g id="edge3" class="edge">
<title>single_subject_THP0005_wfanat_preproc_wf:e&#45;&gt;single_subject_THP0005_wft1w_brain:w</title>
<path fill="none" stroke="#000000" d="M2402,-365C2482.2743,-365 2333.0143,-192.8492 2391.7697,-176.7101"/>
<polygon fill="#000000" stroke="#000000" points="2392.4804,-180.1505 2402,-175.5 2391.6581,-173.199 2392.4804,-180.1505"/>
</g>
<!-- single_subject_THP0005_wfanat_preproc_wf&#45;&gt;single_subject_THP0005_wft1w_brain -->
<g id="edge4" class="edge">
<title>single_subject_THP0005_wfanat_preproc_wf:e&#45;&gt;single_subject_THP0005_wft1w_brain:w</title>
<path fill="none" stroke="#000000" d="M2402,-325C2454.0495,-325 2361.5397,-216.5805 2392.1311,-200.487"/>
<polygon fill="#000000" stroke="#000000" points="2392.8876,-203.905 2402,-198.5 2391.5059,-197.0427 2392.8876,-203.905"/>
</g>
<!-- single_subject_THP0005_wfbbreg_wf&#45;&gt;single_subject_THP0005_wfds_report_reg -->
<g id="edge5" class="edge">
<title>single_subject_THP0005_wfbbreg_wf:e&#45;&gt;single_subject_THP0005_wfds_report_reg:w</title>
<path fill="none" stroke="#000000" d="M2216,-199.5C2274.5052,-199.5 2169.1501,-76.6048 2205.8926,-60.2828"/>
<polygon fill="#000000" stroke="#000000" points="2206.76,-63.6839 2216,-58.5 2205.544,-56.7903 2206.76,-63.6839"/>
</g>
<!-- single_subject_THP0005_wfbbreg_wf&#45;&gt;single_subject_THP0005_wfds_report_reg -->
<g id="edge6" class="edge">
<title>single_subject_THP0005_wfbbreg_wf:e&#45;&gt;single_subject_THP0005_wfds_report_reg:w</title>
<path fill="none" stroke="#000000" d="M2216,-160.5C2267.8438,-160.5 2175.6996,-52.5091 2206.1701,-36.4792"/>
<polygon fill="#000000" stroke="#000000" points="2206.8876,-39.905 2216,-34.5 2205.5059,-33.0427 2206.8876,-39.905"/>
</g>
</g>
</svg>
