<?xml version="1.0" encoding="UTF-8" standalone="no"?>
<!DOCTYPE svg PUBLIC "-//W3C//DTD SVG 1.1//EN"
 "http://www.w3.org/Graphics/SVG/1.1/DTD/svg11.dtd">
<!-- Generated by graphviz version 2.40.1 (20161225.0304)
 -->
<!-- Title: %3 Pages: 1 -->
<svg width="777pt" height="404pt"
 viewBox="0.00 0.00 776.62 404.00" xmlns="http://www.w3.org/2000/svg" xmlns:xlink="http://www.w3.org/1999/xlink">
<g id="graph0" class="graph" transform="scale(1 1) rotate(0) translate(4 400)">
<title>%3</title>
<polygon fill="#ffffff" stroke="transparent" points="-4,4 -4,-400 772.6244,-400 772.6244,4 -4,4"/>
<!-- inputnode (utility) -->
<g id="node1" class="node">
<title>inputnode (utility)</title>
<ellipse fill="none" stroke="#000000" cx="452.5811" cy="-378" rx="94.7833" ry="18"/>
<text text-anchor="middle" x="452.5811" y="-374.3" font-family="Times,serif" font-size="14.00" fill="#000000">inputnode (utility)</text>
</g>
<!-- gradient_table (vectors) -->
<g id="node2" class="node">
<title>gradient_table (vectors)</title>
<ellipse fill="none" stroke="#000000" cx="172.5811" cy="-306" rx="122.6784" ry="18"/>
<text text-anchor="middle" x="172.5811" y="-302.3" font-family="Times,serif" font-size="14.00" fill="#000000">gradient_table (vectors)</text>
</g>
<!-- inputnode (utility)&#45;&gt;gradient_table (vectors) -->
<g id="edge1" class="edge">
<title>inputnode (utility)&#45;&gt;gradient_table (vectors)</title>
<path fill="none" stroke="#000000" d="M395.919,-363.4297C351.9088,-352.1128 290.6235,-336.3537 243.3821,-324.206"/>
<polygon fill="#000000" stroke="#000000" points="244.0824,-320.7722 233.5258,-321.6715 242.339,-327.5517 244.0824,-320.7722"/>
</g>
<!-- dwi_reference_wf -->
<g id="node3" class="node">
<title>dwi_reference_wf</title>
<ellipse fill="none" stroke="#000000" cx="323.5811" cy="-234" rx="92.8835" ry="18"/>
<text text-anchor="middle" x="323.5811" y="-230.3" font-family="Times,serif" font-size="14.00" fill="#000000">dwi_reference_wf</text>
</g>
<!-- inputnode (utility)&#45;&gt;dwi_reference_wf -->
<g id="edge2" class="edge">
<title>inputnode (utility)&#45;&gt;dwi_reference_wf</title>
<path fill="none" stroke="#000000" d="M399.2274,-363.0208C378.6751,-354.6927 356.7563,-342.2173 342.5811,-324 328.9281,-306.4537 324.5056,-281.3746 323.3119,-262.145"/>
<polygon fill="#000000" stroke="#000000" points="326.8095,-262.0126 322.9428,-252.1486 319.8143,-262.271 326.8095,-262.0126"/>
</g>
<!-- bbreg_wf -->
<g id="node4" class="node">
<title>bbreg_wf</title>
<ellipse fill="none" stroke="#000000" cx="610.5811" cy="-162" rx="53.8905" ry="18"/>
<text text-anchor="middle" x="610.5811" y="-158.3" font-family="Times,serif" font-size="14.00" fill="#000000">bbreg_wf</text>
</g>
<!-- inputnode (utility)&#45;&gt;bbreg_wf -->
<g id="edge3" class="edge">
<title>inputnode (utility)&#45;&gt;bbreg_wf</title>
<path fill="none" stroke="#000000" d="M516.4157,-364.6267C539.8591,-356.6043 564.5583,-343.922 580.5811,-324 611.5293,-285.5205 614.3795,-225.2653 612.9543,-190.1043"/>
<polygon fill="#000000" stroke="#000000" points="616.4453,-189.8424 612.4011,-180.0498 609.4558,-190.227 616.4453,-189.8424"/>
</g>
<!-- t1w_brain (nibabel) -->
<g id="node5" class="node">
<title>t1w_brain (nibabel)</title>
<ellipse fill="none" stroke="#000000" cx="452.5811" cy="-306" rx="101.2821" ry="18"/>
<text text-anchor="middle" x="452.5811" y="-302.3" font-family="Times,serif" font-size="14.00" fill="#000000">t1w_brain (nibabel)</text>
</g>
<!-- inputnode (utility)&#45;&gt;t1w_brain (nibabel) -->
<g id="edge4" class="edge">
<title>inputnode (utility)&#45;&gt;t1w_brain (nibabel)</title>
<path fill="none" stroke="#000000" d="M452.5811,-359.8314C452.5811,-352.131 452.5811,-342.9743 452.5811,-334.4166"/>
<polygon fill="#000000" stroke="#000000" points="456.0812,-334.4132 452.5811,-324.4133 449.0812,-334.4133 456.0812,-334.4132"/>
</g>
<!-- ds_report_reg -->
<g id="node6" class="node">
<title>ds_report_reg</title>
<ellipse fill="none" stroke="#000000" cx="692.5811" cy="-90" rx="76.0865" ry="18"/>
<text text-anchor="middle" x="692.5811" y="-86.3" font-family="Times,serif" font-size="14.00" fill="#000000">ds_report_reg</text>
</g>
<!-- inputnode (utility)&#45;&gt;ds_report_reg -->
<g id="edge5" class="edge">
<title>inputnode (utility)&#45;&gt;ds_report_reg</title>
<path fill="none" stroke="#000000" d="M521.2691,-365.3989C549.4092,-357.4047 580.6743,-344.5361 603.5811,-324 664.8088,-269.1089 684.147,-167.5477 690.0705,-118.277"/>
<polygon fill="#000000" stroke="#000000" points="693.5823,-118.3608 691.1966,-108.0381 686.6242,-117.5955 693.5823,-118.3608"/>
</g>
<!-- eddy_wf -->
<g id="node7" class="node">
<title>eddy_wf</title>
<ellipse fill="none" stroke="#000000" cx="474.5811" cy="-162" rx="49.2915" ry="18"/>
<text text-anchor="middle" x="474.5811" y="-158.3" font-family="Times,serif" font-size="14.00" fill="#000000">eddy_wf</text>
</g>
<!-- inputnode (utility)&#45;&gt;eddy_wf -->
<g id="edge6" class="edge">
<title>inputnode (utility)&#45;&gt;eddy_wf</title>
<path fill="none" stroke="#000000" d="M509.916,-363.5892C530.1404,-355.4498 550.7681,-342.9588 562.5811,-324 592.4796,-276.0158 539.2209,-217.1213 503.3276,-185.2182"/>
<polygon fill="#000000" stroke="#000000" points="505.3753,-182.3614 495.5253,-178.4592 500.792,-187.6523 505.3753,-182.3614"/>
</g>
<!-- reportlets_wf -->
<g id="node8" class="node">
<title>reportlets_wf</title>
<ellipse fill="none" stroke="#000000" cx="156.5811" cy="-90" rx="73.387" ry="18"/>
<text text-anchor="middle" x="156.5811" y="-86.3" font-family="Times,serif" font-size="14.00" fill="#000000">reportlets_wf</text>
</g>
<!-- inputnode (utility)&#45;&gt;reportlets_wf -->
<g id="edge7" class="edge">
<title>inputnode (utility)&#45;&gt;reportlets_wf</title>
<path fill="none" stroke="#000000" d="M362.1781,-372.3967C247.3397,-364.3407 61.4571,-347.7907 40.5811,-324 16.8495,-296.9549 -39.7616,-276.3508 46.5811,-144 57.8676,-126.6996 76.4164,-114.7545 95.0951,-106.5911"/>
<polygon fill="#000000" stroke="#000000" points="96.5821,-109.7652 104.5391,-102.7698 93.9564,-103.2763 96.5821,-109.7652"/>
</g>
<!-- gradient_table (vectors)&#45;&gt;dwi_reference_wf -->
<g id="edge8" class="edge">
<title>gradient_table (vectors)&#45;&gt;dwi_reference_wf</title>
<path fill="none" stroke="#000000" d="M208.7494,-288.7542C229.8966,-278.6708 256.7556,-265.8638 279.1795,-255.1717"/>
<polygon fill="#000000" stroke="#000000" points="280.9686,-258.1961 288.4886,-250.7329 277.9558,-251.8777 280.9686,-258.1961"/>
</g>
<!-- outputnode (utility) -->
<g id="node9" class="node">
<title>outputnode (utility)</title>
<ellipse fill="none" stroke="#000000" cx="156.5811" cy="-162" rx="101.2821" ry="18"/>
<text text-anchor="middle" x="156.5811" y="-158.3" font-family="Times,serif" font-size="14.00" fill="#000000">outputnode (utility)</text>
</g>
<!-- gradient_table (vectors)&#45;&gt;outputnode (utility) -->
<g id="edge9" class="edge">
<title>gradient_table (vectors)&#45;&gt;outputnode (utility)</title>
<path fill="none" stroke="#000000" d="M170.5547,-287.7623C167.8257,-263.201 162.942,-219.2474 159.7316,-190.3541"/>
<polygon fill="#000000" stroke="#000000" points="163.1741,-189.6419 158.5911,-180.0896 156.2169,-190.415 163.1741,-189.6419"/>
</g>
<!-- dwi_reference_wf&#45;&gt;bbreg_wf -->
<g id="edge10" class="edge">
<title>dwi_reference_wf&#45;&gt;bbreg_wf</title>
<path fill="none" stroke="#000000" d="M380.6263,-219.689C432.0128,-206.7976 506.9802,-187.9905 557.2039,-175.3908"/>
<polygon fill="#000000" stroke="#000000" points="558.3683,-178.7072 567.2161,-172.879 556.6649,-171.9176 558.3683,-178.7072"/>
</g>
<!-- dwi_reference_wf&#45;&gt;eddy_wf -->
<g id="edge11" class="edge">
<title>dwi_reference_wf&#45;&gt;eddy_wf</title>
<path fill="none" stroke="#000000" d="M358.6031,-217.3008C381.5233,-206.372 411.5095,-192.0739 435.2492,-180.7543"/>
<polygon fill="#000000" stroke="#000000" points="436.8217,-183.8821 444.3417,-176.4188 433.8089,-177.5636 436.8217,-183.8821"/>
</g>
<!-- dwi_reference_wf&#45;&gt;reportlets_wf -->
<g id="edge14" class="edge">
<title>dwi_reference_wf&#45;&gt;reportlets_wf</title>
<path fill="none" stroke="#000000" d="M315.8729,-216.0528C306.6157,-196.259 289.433,-164.5036 266.5811,-144 249.9794,-129.1043 228.5259,-117.3522 208.9793,-108.6673"/>
<polygon fill="#000000" stroke="#000000" points="210.1378,-105.3563 199.5665,-104.6498 207.3899,-111.7944 210.1378,-105.3563"/>
</g>
<!-- dwi_reference_wf&#45;&gt;outputnode (utility) -->
<g id="edge15" class="edge">
<title>dwi_reference_wf&#45;&gt;outputnode (utility)</title>
<path fill="none" stroke="#000000" d="M285.268,-217.4817C261.3592,-207.1738 230.3774,-193.8164 204.8045,-182.7909"/>
<polygon fill="#000000" stroke="#000000" points="205.863,-179.4359 195.2943,-178.6907 203.0915,-185.8639 205.863,-179.4359"/>
</g>
<!-- eddy_report (reportlets) -->
<g id="node10" class="node">
<title>eddy_report (reportlets)</title>
<ellipse fill="none" stroke="#000000" cx="474.5811" cy="-90" rx="123.4781" ry="18"/>
<text text-anchor="middle" x="474.5811" y="-86.3" font-family="Times,serif" font-size="14.00" fill="#000000">eddy_report (reportlets)</text>
</g>
<!-- dwi_reference_wf&#45;&gt;eddy_report (reportlets) -->
<g id="edge12" class="edge">
<title>dwi_reference_wf&#45;&gt;eddy_report (reportlets)</title>
<path fill="none" stroke="#000000" d="M341.658,-216.3055C360.3252,-198.0806 390.3447,-168.9041 416.5811,-144 426.6594,-134.4335 437.8133,-124.0102 447.6253,-114.8953"/>
<polygon fill="#000000" stroke="#000000" points="450.2082,-117.2733 455.1605,-107.9071 445.4483,-112.1408 450.2082,-117.2733"/>
</g>
<!-- ds_report_eddy -->
<g id="node11" class="node">
<title>ds_report_eddy</title>
<ellipse fill="none" stroke="#000000" cx="398.5811" cy="-18" rx="83.3857" ry="18"/>
<text text-anchor="middle" x="398.5811" y="-14.3" font-family="Times,serif" font-size="14.00" fill="#000000">ds_report_eddy</text>
</g>
<!-- dwi_reference_wf&#45;&gt;ds_report_eddy -->
<g id="edge13" class="edge">
<title>dwi_reference_wf&#45;&gt;ds_report_eddy</title>
<path fill="none" stroke="#000000" d="M321.8863,-215.8783C319.7742,-184.7081 318.9387,-119.6996 342.5811,-72 348.2042,-60.6552 357.219,-50.3776 366.3873,-41.9071"/>
<polygon fill="#000000" stroke="#000000" points="368.8094,-44.439 374.0536,-35.233 364.2131,-39.1593 368.8094,-44.439"/>
</g>
<!-- bbreg_wf&#45;&gt;ds_report_reg -->
<g id="edge16" class="edge">
<title>bbreg_wf&#45;&gt;ds_report_reg</title>
<path fill="none" stroke="#000000" d="M630.014,-144.937C640.4806,-135.7468 653.5687,-124.2548 665.0652,-114.1604"/>
<polygon fill="#000000" stroke="#000000" points="667.513,-116.6688 672.7182,-107.4407 662.8944,-111.4087 667.513,-116.6688"/>
</g>
<!-- eddy_wf&#45;&gt;eddy_report (reportlets) -->
<g id="edge17" class="edge">
<title>eddy_wf&#45;&gt;eddy_report (reportlets)</title>
<path fill="none" stroke="#000000" d="M474.5811,-143.8314C474.5811,-136.131 474.5811,-126.9743 474.5811,-118.4166"/>
<polygon fill="#000000" stroke="#000000" points="478.0812,-118.4132 474.5811,-108.4133 471.0812,-118.4133 478.0812,-118.4132"/>
</g>
<!-- outputnode (utility)&#45;&gt;reportlets_wf -->
<g id="edge18" class="edge">
<title>outputnode (utility)&#45;&gt;reportlets_wf</title>
<path fill="none" stroke="#000000" d="M156.5811,-143.8314C156.5811,-136.131 156.5811,-126.9743 156.5811,-118.4166"/>
<polygon fill="#000000" stroke="#000000" points="160.0812,-118.4132 156.5811,-108.4133 153.0812,-118.4133 160.0812,-118.4132"/>
</g>
<!-- eddy_report (reportlets)&#45;&gt;ds_report_eddy -->
<g id="edge19" class="edge">
<title>eddy_report (reportlets)&#45;&gt;ds_report_eddy</title>
<path fill="none" stroke="#000000" d="M455.7946,-72.2022C446.4071,-63.3088 434.8967,-52.4042 424.6676,-42.7135"/>
<polygon fill="#000000" stroke="#000000" points="426.8182,-39.9297 417.1516,-35.593 422.004,-45.0113 426.8182,-39.9297"/>
</g>
</g>
</svg>
