<?xml version="1.0" encoding="UTF-8" standalone="no"?>
<!DOCTYPE svg PUBLIC "-//W3C//DTD SVG 1.1//EN"
 "http://www.w3.org/Graphics/SVG/1.1/DTD/svg11.dtd">
<!-- Generated by graphviz version 2.40.1 (20161225.0304)
 -->
<!-- Title: %3 Pages: 1 -->
<svg width="705pt" height="260pt"
 viewBox="0.00 0.00 705.08 260.00" xmlns="http://www.w3.org/2000/svg" xmlns:xlink="http://www.w3.org/1999/xlink">
<g id="graph0" class="graph" transform="scale(1 1) rotate(0) translate(4 256)">
<title>%3</title>
<polygon fill="#ffffff" stroke="transparent" points="-4,4 -4,-256 701.083,-256 701.083,4 -4,4"/>
<!-- inputnode (utility) -->
<g id="node1" class="node">
<title>inputnode (utility)</title>
<ellipse fill="none" stroke="#000000" cx="189.9908" cy="-162" rx="94.7833" ry="18"/>
<text text-anchor="middle" x="189.9908" y="-158.3" font-family="Times,serif" font-size="14.00" fill="#000000">inputnode (utility)</text>
</g>
<!-- anat_preproc_wf -->
<g id="node2" class="node">
<title>anat_preproc_wf</title>
<ellipse fill="none" stroke="#000000" cx="384.9908" cy="-90" rx="89.0842" ry="18"/>
<text text-anchor="middle" x="384.9908" y="-86.3" font-family="Times,serif" font-size="14.00" fill="#000000">anat_preproc_wf</text>
</g>
<!-- inputnode (utility)&#45;&gt;anat_preproc_wf -->
<g id="edge1" class="edge">
<title>inputnode (utility)&#45;&gt;anat_preproc_wf</title>
<path fill="none" stroke="#000000" d="M233.7526,-145.8418C262.9339,-135.0671 301.4551,-120.844 332.317,-109.4488"/>
<polygon fill="#000000" stroke="#000000" points="333.8777,-112.6035 342.0464,-105.8564 331.4531,-106.0369 333.8777,-112.6035"/>
</g>
<!-- summary (reports) -->
<g id="node3" class="node">
<title>summary (reports)</title>
<ellipse fill="none" stroke="#000000" cx="167.9908" cy="-90" rx="98.2828" ry="18"/>
<text text-anchor="middle" x="167.9908" y="-86.3" font-family="Times,serif" font-size="14.00" fill="#000000">summary (reports)</text>
</g>
<!-- inputnode (utility)&#45;&gt;summary (reports) -->
<g id="edge2" class="edge">
<title>inputnode (utility)&#45;&gt;summary (reports)</title>
<path fill="none" stroke="#000000" d="M184.4392,-143.8314C182.0605,-136.0463 179.2269,-126.7729 176.5875,-118.1347"/>
<polygon fill="#000000" stroke="#000000" points="179.8865,-116.954 173.617,-108.4133 173.1921,-118.9996 179.8865,-116.954"/>
</g>
<!-- dwi_preproc_wf -->
<g id="node4" class="node">
<title>dwi_preproc_wf</title>
<ellipse fill="none" stroke="#000000" cx="384.9908" cy="-18" rx="85.2851" ry="18"/>
<text text-anchor="middle" x="384.9908" y="-14.3" font-family="Times,serif" font-size="14.00" fill="#000000">dwi_preproc_wf</text>
</g>
<!-- anat_preproc_wf&#45;&gt;dwi_preproc_wf -->
<g id="edge3" class="edge">
<title>anat_preproc_wf&#45;&gt;dwi_preproc_wf</title>
<path fill="none" stroke="#000000" d="M384.9908,-71.8314C384.9908,-64.131 384.9908,-54.9743 384.9908,-46.4166"/>
<polygon fill="#000000" stroke="#000000" points="388.4909,-46.4132 384.9908,-36.4133 381.4909,-46.4133 388.4909,-46.4132"/>
</g>
<!-- ds_report_summary -->
<g id="node7" class="node">
<title>ds_report_summary</title>
<ellipse fill="none" stroke="#000000" cx="103.9908" cy="-18" rx="103.9815" ry="18"/>
<text text-anchor="middle" x="103.9908" y="-14.3" font-family="Times,serif" font-size="14.00" fill="#000000">ds_report_summary</text>
</g>
<!-- summary (reports)&#45;&gt;ds_report_summary -->
<g id="edge4" class="edge">
<title>summary (reports)&#45;&gt;ds_report_summary</title>
<path fill="none" stroke="#000000" d="M152.1705,-72.2022C144.4781,-63.5483 135.093,-52.99 126.6564,-43.4988"/>
<polygon fill="#000000" stroke="#000000" points="129.1104,-40.9914 119.8508,-35.8425 123.8785,-45.6419 129.1104,-40.9914"/>
</g>
<!-- bidssrc -->
<g id="node5" class="node">
<title>bidssrc</title>
<ellipse fill="none" stroke="#000000" cx="384.9908" cy="-234" rx="44.6926" ry="18"/>
<text text-anchor="middle" x="384.9908" y="-230.3" font-family="Times,serif" font-size="14.00" fill="#000000">bidssrc</text>
</g>
<!-- bidssrc&#45;&gt;anat_preproc_wf -->
<g id="edge7" class="edge">
<title>bidssrc&#45;&gt;anat_preproc_wf</title>
<path fill="none" stroke="#000000" d="M420.3742,-222.9073C440.5329,-214.5632 464.0827,-200.9131 475.9908,-180 483.9078,-166.096 483.9078,-157.904 475.9908,-144 467.7102,-129.4576 453.8004,-118.4272 439.316,-110.2507"/>
<polygon fill="#000000" stroke="#000000" points="440.7522,-107.0522 430.2683,-105.5226 437.5101,-113.2561 440.7522,-107.0522"/>
</g>
<!-- bidssrc&#45;&gt;summary (reports) -->
<g id="edge6" class="edge">
<title>bidssrc&#45;&gt;summary (reports)</title>
<path fill="none" stroke="#000000" d="M340.2396,-232.6742C264.9131,-229.3964 117.8689,-218.1511 85.9908,-180 75.7316,-167.722 78.4012,-158.0854 85.9908,-144 93.2173,-130.5884 105.3925,-119.9595 118.1803,-111.805"/>
<polygon fill="#000000" stroke="#000000" points="120.2467,-114.6495 127.078,-106.5511 116.6875,-108.6219 120.2467,-114.6495"/>
</g>
<!-- bids_info (bids) -->
<g id="node6" class="node">
<title>bids_info (bids)</title>
<ellipse fill="none" stroke="#000000" cx="384.9908" cy="-162" rx="81.7856" ry="18"/>
<text text-anchor="middle" x="384.9908" y="-158.3" font-family="Times,serif" font-size="14.00" fill="#000000">bids_info (bids)</text>
</g>
<!-- bidssrc&#45;&gt;bids_info (bids) -->
<g id="edge5" class="edge">
<title>bidssrc&#45;&gt;bids_info (bids)</title>
<path fill="none" stroke="#000000" d="M384.9908,-215.8314C384.9908,-208.131 384.9908,-198.9743 384.9908,-190.4166"/>
<polygon fill="#000000" stroke="#000000" points="388.4909,-190.4132 384.9908,-180.4133 381.4909,-190.4133 388.4909,-190.4132"/>
</g>
<!-- bidssrc&#45;&gt;ds_report_summary -->
<g id="edge8" class="edge">
<title>bidssrc&#45;&gt;ds_report_summary</title>
<path fill="none" stroke="#000000" d="M340.1711,-232.1954C263.768,-228.1703 112.9655,-215.7963 75.9908,-180 41.1735,-146.2924 45.0017,-117.7471 60.9908,-72 64.5865,-61.7121 71.0536,-51.9193 77.8983,-43.568"/>
<polygon fill="#000000" stroke="#000000" points="80.5409,-45.863 84.4952,-36.0337 75.2744,-41.2517 80.5409,-45.863"/>
</g>
<!-- ds_report_about -->
<g id="node8" class="node">
<title>ds_report_about</title>
<ellipse fill="none" stroke="#000000" cx="609.9908" cy="-162" rx="87.1846" ry="18"/>
<text text-anchor="middle" x="609.9908" y="-158.3" font-family="Times,serif" font-size="14.00" fill="#000000">ds_report_about</text>
</g>
<!-- bidssrc&#45;&gt;ds_report_about -->
<g id="edge9" class="edge">
<title>bidssrc&#45;&gt;ds_report_about</title>
<path fill="none" stroke="#000000" d="M420.147,-222.75C455.6182,-211.3992 510.972,-193.686 552.7739,-180.3094"/>
<polygon fill="#000000" stroke="#000000" points="554.0915,-183.5627 562.549,-177.1814 551.958,-176.8957 554.0915,-183.5627"/>
</g>
<!-- bids_info (bids)&#45;&gt;anat_preproc_wf -->
<g id="edge11" class="edge">
<title>bids_info (bids)&#45;&gt;anat_preproc_wf</title>
<path fill="none" stroke="#000000" d="M384.9908,-143.8314C384.9908,-136.131 384.9908,-126.9743 384.9908,-118.4166"/>
<polygon fill="#000000" stroke="#000000" points="388.4909,-118.4132 384.9908,-108.4133 381.4909,-118.4133 388.4909,-118.4132"/>
</g>
<!-- bids_info (bids)&#45;&gt;summary (reports) -->
<g id="edge10" class="edge">
<title>bids_info (bids)&#45;&gt;summary (reports)</title>
<path fill="none" stroke="#000000" d="M339.5005,-146.9064C306.3294,-135.9004 261.1339,-120.9046 225.4651,-109.0698"/>
<polygon fill="#000000" stroke="#000000" points="226.2687,-105.6489 215.6753,-105.8216 224.0642,-112.2927 226.2687,-105.6489"/>
</g>
<!-- about (reports) -->
<g id="node9" class="node">
<title>about (reports)</title>
<ellipse fill="none" stroke="#000000" cx="609.9908" cy="-234" rx="81.4863" ry="18"/>
<text text-anchor="middle" x="609.9908" y="-230.3" font-family="Times,serif" font-size="14.00" fill="#000000">about (reports)</text>
</g>
<!-- about (reports)&#45;&gt;ds_report_about -->
<g id="edge12" class="edge">
<title>about (reports)&#45;&gt;ds_report_about</title>
<path fill="none" stroke="#000000" d="M609.9908,-215.8314C609.9908,-208.131 609.9908,-198.9743 609.9908,-190.4166"/>
<polygon fill="#000000" stroke="#000000" points="613.4909,-190.4132 609.9908,-180.4133 606.4909,-190.4133 613.4909,-190.4132"/>
</g>
</g>
</svg>
