<?xml version="1.0" encoding="UTF-8" standalone="no"?>
<!DOCTYPE svg PUBLIC "-//W3C//DTD SVG 1.1//EN"
 "http://www.w3.org/Graphics/SVG/1.1/DTD/svg11.dtd">
<!-- Generated by graphviz version 2.40.1 (20161225.0304)
 -->
<!-- Title: %3 Pages: 1 -->
<svg width="593pt" height="836pt"
 viewBox="0.00 0.00 593.13 836.00" xmlns="http://www.w3.org/2000/svg" xmlns:xlink="http://www.w3.org/1999/xlink">
<g id="graph0" class="graph" transform="scale(1 1) rotate(0) translate(4 832)">
<title>%3</title>
<polygon fill="#ffffff" stroke="transparent" points="-4,4 -4,-832 589.1332,-832 589.1332,4 -4,4"/>
<!-- inputnode (utility) -->
<g id="node1" class="node">
<title>inputnode (utility)</title>
<ellipse fill="none" stroke="#000000" cx="490.2416" cy="-810" rx="94.7833" ry="18"/>
<text text-anchor="middle" x="490.2416" y="-806.3" font-family="Times,serif" font-size="14.00" fill="#000000">inputnode (utility)</text>
</g>
<!-- n4_correct (fixes) -->
<g id="node2" class="node">
<title>n4_correct (fixes)</title>
<ellipse fill="none" stroke="#000000" cx="292.2416" cy="-738" rx="92.8835" ry="18"/>
<text text-anchor="middle" x="292.2416" y="-734.3" font-family="Times,serif" font-size="14.00" fill="#000000">n4_correct (fixes)</text>
</g>
<!-- inputnode (utility)&#45;&gt;n4_correct (fixes) -->
<g id="edge1" class="edge">
<title>inputnode (utility)&#45;&gt;n4_correct (fixes)</title>
<path fill="none" stroke="#000000" d="M446.299,-794.0209C416.5632,-783.2078 377.1104,-768.8614 345.5747,-757.3938"/>
<polygon fill="#000000" stroke="#000000" points="346.6555,-754.0627 336.0614,-753.9345 344.2632,-760.6412 346.6555,-754.0627"/>
</g>
<!-- fixhdr_unifize (utils) -->
<g id="node3" class="node">
<title>fixhdr_unifize (utils)</title>
<ellipse fill="none" stroke="#000000" cx="347.2416" cy="-378" rx="104.7816" ry="18"/>
<text text-anchor="middle" x="347.2416" y="-374.3" font-family="Times,serif" font-size="14.00" fill="#000000">fixhdr_unifize (utils)</text>
</g>
<!-- inputnode (utility)&#45;&gt;fixhdr_unifize (utils) -->
<g id="edge2" class="edge">
<title>inputnode (utility)&#45;&gt;fixhdr_unifize (utils)</title>
<path fill="none" stroke="#000000" d="M490.2416,-791.8146C490.2416,-764.4983 490.2416,-711.25 490.2416,-666 490.2416,-666 490.2416,-666 490.2416,-522 490.2416,-465.7063 434.5383,-423.5885 392.6635,-399.8798"/>
<polygon fill="#000000" stroke="#000000" points="394.1473,-396.7017 383.6966,-394.9599 390.7801,-402.8387 394.1473,-396.7017"/>
</g>
<!-- fixhdr_skullstrip2 (utils) -->
<g id="node4" class="node">
<title>fixhdr_skullstrip2 (utils)</title>
<ellipse fill="none" stroke="#000000" cx="347.2416" cy="-234" rx="124.2781" ry="18"/>
<text text-anchor="middle" x="347.2416" y="-230.3" font-family="Times,serif" font-size="14.00" fill="#000000">fixhdr_skullstrip2 (utils)</text>
</g>
<!-- inputnode (utility)&#45;&gt;fixhdr_skullstrip2 (utils) -->
<g id="edge3" class="edge">
<title>inputnode (utility)&#45;&gt;fixhdr_skullstrip2 (utils)</title>
<path fill="none" stroke="#000000" d="M498.3005,-791.7668C509.455,-764.8248 528.2416,-712.5405 528.2416,-666 528.2416,-666 528.2416,-666 528.2416,-378 528.2416,-336.3643 530.8769,-318.225 502.2416,-288 485.6075,-270.4424 462.9655,-258.5913 440.1279,-250.5927"/>
<polygon fill="#000000" stroke="#000000" points="440.9378,-247.1753 430.3452,-247.3952 438.763,-253.8289 440.9378,-247.1753"/>
</g>
<!-- skullstrip_first_pass (fsl) -->
<g id="node5" class="node">
<title>skullstrip_first_pass (fsl)</title>
<ellipse fill="none" stroke="#000000" cx="292.2416" cy="-666" rx="126.1777" ry="18"/>
<text text-anchor="middle" x="292.2416" y="-662.3" font-family="Times,serif" font-size="14.00" fill="#000000">skullstrip_first_pass (fsl)</text>
</g>
<!-- n4_correct (fixes)&#45;&gt;skullstrip_first_pass (fsl) -->
<g id="edge4" class="edge">
<title>n4_correct (fixes)&#45;&gt;skullstrip_first_pass (fsl)</title>
<path fill="none" stroke="#000000" d="M292.2416,-719.8314C292.2416,-712.131 292.2416,-702.9743 292.2416,-694.4166"/>
<polygon fill="#000000" stroke="#000000" points="295.7417,-694.4132 292.2416,-684.4133 288.7417,-694.4133 295.7417,-694.4132"/>
</g>
<!-- normalize (utility) -->
<g id="node6" class="node">
<title>normalize (utility)</title>
<ellipse fill="none" stroke="#000000" cx="94.2416" cy="-162" rx="94.4839" ry="18"/>
<text text-anchor="middle" x="94.2416" y="-158.3" font-family="Times,serif" font-size="14.00" fill="#000000">normalize (utility)</text>
</g>
<!-- n4_correct (fixes)&#45;&gt;normalize (utility) -->
<g id="edge5" class="edge">
<title>n4_correct (fixes)&#45;&gt;normalize (utility)</title>
<path fill="none" stroke="#000000" d="M236.8243,-723.5405C178.2489,-704.5159 94.2416,-664.8764 94.2416,-594 94.2416,-594 94.2416,-594 94.2416,-306 94.2416,-265.876 94.2416,-219.4631 94.2416,-190.4177"/>
<polygon fill="#000000" stroke="#000000" points="97.7417,-190.1853 94.2416,-180.1854 90.7417,-190.1854 97.7417,-190.1853"/>
</g>
<!-- skullstrip_second_pass (afni) -->
<g id="node7" class="node">
<title>skullstrip_second_pass (afni)</title>
<ellipse fill="none" stroke="#000000" cx="347.2416" cy="-306" rx="145.6742" ry="18"/>
<text text-anchor="middle" x="347.2416" y="-302.3" font-family="Times,serif" font-size="14.00" fill="#000000">skullstrip_second_pass (afni)</text>
</g>
<!-- fixhdr_unifize (utils)&#45;&gt;skullstrip_second_pass (afni) -->
<g id="edge6" class="edge">
<title>fixhdr_unifize (utils)&#45;&gt;skullstrip_second_pass (afni)</title>
<path fill="none" stroke="#000000" d="M347.2416,-359.8314C347.2416,-352.131 347.2416,-342.9743 347.2416,-334.4166"/>
<polygon fill="#000000" stroke="#000000" points="350.7417,-334.4132 347.2416,-324.4133 343.7417,-334.4133 350.7417,-334.4132"/>
</g>
<!-- combine_masks (fsl) -->
<g id="node8" class="node">
<title>combine_masks (fsl)</title>
<ellipse fill="none" stroke="#000000" cx="333.2416" cy="-162" rx="105.8812" ry="18"/>
<text text-anchor="middle" x="333.2416" y="-158.3" font-family="Times,serif" font-size="14.00" fill="#000000">combine_masks (fsl)</text>
</g>
<!-- fixhdr_skullstrip2 (utils)&#45;&gt;combine_masks (fsl) -->
<g id="edge7" class="edge">
<title>fixhdr_skullstrip2 (utils)&#45;&gt;combine_masks (fsl)</title>
<path fill="none" stroke="#000000" d="M343.7088,-215.8314C342.2115,-208.131 340.4311,-198.9743 338.7671,-190.4166"/>
<polygon fill="#000000" stroke="#000000" points="342.1664,-189.5614 336.822,-180.4133 335.2951,-190.8975 342.1664,-189.5614"/>
</g>
<!-- skullstrip_first_pass (fsl)&#45;&gt;combine_masks (fsl) -->
<g id="edge10" class="edge">
<title>skullstrip_first_pass (fsl)&#45;&gt;combine_masks (fsl)</title>
<path fill="none" stroke="#000000" d="M215.3673,-651.6405C191.7405,-643.6478 167.6639,-631.2399 151.2416,-612 124.7006,-580.9052 132.2416,-562.8816 132.2416,-522 132.2416,-522 132.2416,-522 132.2416,-306 132.2416,-239.2107 206.4872,-200.4153 264.7303,-180.2568"/>
<polygon fill="#000000" stroke="#000000" points="265.9176,-183.5504 274.2931,-177.0618 263.6994,-176.9112 265.9176,-183.5504"/>
</g>
<!-- skullstrip_first_dilate (fsl) -->
<g id="node9" class="node">
<title>skullstrip_first_dilate (fsl)</title>
<ellipse fill="none" stroke="#000000" cx="292.2416" cy="-594" rx="131.8766" ry="18"/>
<text text-anchor="middle" x="292.2416" y="-590.3" font-family="Times,serif" font-size="14.00" fill="#000000">skullstrip_first_dilate (fsl)</text>
</g>
<!-- skullstrip_first_pass (fsl)&#45;&gt;skullstrip_first_dilate (fsl) -->
<g id="edge8" class="edge">
<title>skullstrip_first_pass (fsl)&#45;&gt;skullstrip_first_dilate (fsl)</title>
<path fill="none" stroke="#000000" d="M292.2416,-647.8314C292.2416,-640.131 292.2416,-630.9743 292.2416,-622.4166"/>
<polygon fill="#000000" stroke="#000000" points="295.7417,-622.4132 292.2416,-612.4133 288.7417,-622.4133 295.7417,-622.4132"/>
</g>
<!-- skullstrip_first_mask (fsl) -->
<g id="node10" class="node">
<title>skullstrip_first_mask (fsl)</title>
<ellipse fill="none" stroke="#000000" cx="332.2416" cy="-522" rx="129.9769" ry="18"/>
<text text-anchor="middle" x="332.2416" y="-518.3" font-family="Times,serif" font-size="14.00" fill="#000000">skullstrip_first_mask (fsl)</text>
</g>
<!-- skullstrip_first_pass (fsl)&#45;&gt;skullstrip_first_mask (fsl) -->
<g id="edge9" class="edge">
<title>skullstrip_first_pass (fsl)&#45;&gt;skullstrip_first_mask (fsl)</title>
<path fill="none" stroke="#000000" d="M352.9203,-650.1827C386.5371,-640.0602 423.4741,-626.2001 433.2416,-612 442.3092,-598.8175 441.4665,-589.7241 433.2416,-576 424.6502,-561.6642 410.8121,-550.9209 396.099,-542.9564"/>
<polygon fill="#000000" stroke="#000000" points="397.3747,-539.6815 386.864,-538.3492 394.2498,-545.9453 397.3747,-539.6815"/>
</g>
<!-- apply_mask (nibabel) -->
<g id="node12" class="node">
<title>apply_mask (nibabel)</title>
<ellipse fill="none" stroke="#000000" cx="213.2416" cy="-90" rx="109.6807" ry="18"/>
<text text-anchor="middle" x="213.2416" y="-86.3" font-family="Times,serif" font-size="14.00" fill="#000000">apply_mask (nibabel)</text>
</g>
<!-- normalize (utility)&#45;&gt;apply_mask (nibabel) -->
<g id="edge11" class="edge">
<title>normalize (utility)&#45;&gt;apply_mask (nibabel)</title>
<path fill="none" stroke="#000000" d="M122.7451,-144.7542C138.5545,-135.1888 158.4146,-123.1727 175.4991,-112.8358"/>
<polygon fill="#000000" stroke="#000000" points="177.4,-115.7765 184.144,-107.6053 173.7764,-109.7874 177.4,-115.7765"/>
</g>
<!-- outputnode (utility) -->
<g id="node13" class="node">
<title>outputnode (utility)</title>
<ellipse fill="none" stroke="#000000" cx="213.2416" cy="-18" rx="101.2821" ry="18"/>
<text text-anchor="middle" x="213.2416" y="-14.3" font-family="Times,serif" font-size="14.00" fill="#000000">outputnode (utility)</text>
</g>
<!-- normalize (utility)&#45;&gt;outputnode (utility) -->
<g id="edge12" class="edge">
<title>normalize (utility)&#45;&gt;outputnode (utility)</title>
<path fill="none" stroke="#000000" d="M88.8639,-143.8297C84.2655,-124.4182 80.3618,-93.5404 94.2416,-72 104.9155,-55.435 122.0455,-43.8943 140.0219,-35.8755"/>
<polygon fill="#000000" stroke="#000000" points="141.5493,-39.0319 149.4698,-31.9952 138.8899,-32.5568 141.5493,-39.0319"/>
</g>
<!-- skullstrip_second_pass (afni)&#45;&gt;fixhdr_skullstrip2 (utils) -->
<g id="edge13" class="edge">
<title>skullstrip_second_pass (afni)&#45;&gt;fixhdr_skullstrip2 (utils)</title>
<path fill="none" stroke="#000000" d="M347.2416,-287.8314C347.2416,-280.131 347.2416,-270.9743 347.2416,-262.4166"/>
<polygon fill="#000000" stroke="#000000" points="350.7417,-262.4132 347.2416,-252.4133 343.7417,-262.4133 350.7417,-262.4132"/>
</g>
<!-- combine_masks (fsl)&#45;&gt;apply_mask (nibabel) -->
<g id="edge14" class="edge">
<title>combine_masks (fsl)&#45;&gt;apply_mask (nibabel)</title>
<path fill="none" stroke="#000000" d="M304.193,-144.5708C288.2447,-135.0018 268.2788,-123.0223 251.1198,-112.7269"/>
<polygon fill="#000000" stroke="#000000" points="252.8144,-109.662 242.4387,-107.5182 249.2129,-115.6645 252.8144,-109.662"/>
</g>
<!-- combine_masks (fsl)&#45;&gt;outputnode (utility) -->
<g id="edge15" class="edge">
<title>combine_masks (fsl)&#45;&gt;outputnode (utility)</title>
<path fill="none" stroke="#000000" d="M338.3714,-143.8002C342.7146,-124.3635 346.2418,-93.4643 332.2416,-72 321.4759,-55.4946 304.3164,-43.973 286.3411,-35.9535"/>
<polygon fill="#000000" stroke="#000000" points="287.4761,-32.6359 276.8963,-32.0711 284.8147,-39.1103 287.4761,-32.6359"/>
</g>
<!-- skullstrip_first_dilate (fsl)&#45;&gt;skullstrip_first_mask (fsl) -->
<g id="edge16" class="edge">
<title>skullstrip_first_dilate (fsl)&#45;&gt;skullstrip_first_mask (fsl)</title>
<path fill="none" stroke="#000000" d="M302.3353,-575.8314C306.8014,-567.7925 312.1491,-558.1666 317.0795,-549.2918"/>
<polygon fill="#000000" stroke="#000000" points="320.2151,-550.8546 322.012,-540.4133 314.096,-547.4551 320.2151,-550.8546"/>
</g>
<!-- unifize (afni) -->
<g id="node11" class="node">
<title>unifize (afni)</title>
<ellipse fill="none" stroke="#000000" cx="338.2416" cy="-450" rx="69.5877" ry="18"/>
<text text-anchor="middle" x="338.2416" y="-446.3" font-family="Times,serif" font-size="14.00" fill="#000000">unifize (afni)</text>
</g>
<!-- skullstrip_first_mask (fsl)&#45;&gt;unifize (afni) -->
<g id="edge17" class="edge">
<title>skullstrip_first_mask (fsl)&#45;&gt;unifize (afni)</title>
<path fill="none" stroke="#000000" d="M333.7557,-503.8314C334.3974,-496.131 335.1604,-486.9743 335.8736,-478.4166"/>
<polygon fill="#000000" stroke="#000000" points="339.3646,-478.6694 336.7072,-468.4133 332.3887,-478.088 339.3646,-478.6694"/>
</g>
<!-- unifize (afni)&#45;&gt;fixhdr_unifize (utils) -->
<g id="edge18" class="edge">
<title>unifize (afni)&#45;&gt;fixhdr_unifize (utils)</title>
<path fill="none" stroke="#000000" d="M340.5127,-431.8314C341.4753,-424.131 342.6198,-414.9743 343.6896,-406.4166"/>
<polygon fill="#000000" stroke="#000000" points="347.1725,-406.7702 344.94,-396.4133 340.2266,-405.9019 347.1725,-406.7702"/>
</g>
<!-- apply_mask (nibabel)&#45;&gt;outputnode (utility) -->
<g id="edge19" class="edge">
<title>apply_mask (nibabel)&#45;&gt;outputnode (utility)</title>
<path fill="none" stroke="#000000" d="M213.2416,-71.8314C213.2416,-64.131 213.2416,-54.9743 213.2416,-46.4166"/>
<polygon fill="#000000" stroke="#000000" points="216.7417,-46.4132 213.2416,-36.4133 209.7417,-46.4133 216.7417,-46.4132"/>
</g>
</g>
</svg>
