<?xml version="1.0" encoding="UTF-8" standalone="no"?>
<!DOCTYPE svg PUBLIC "-//W3C//DTD SVG 1.1//EN"
 "http://www.w3.org/Graphics/SVG/1.1/DTD/svg11.dtd">
<!-- Generated by graphviz version 2.40.1 (20161225.0304)
 -->
<!-- Title: %3 Pages: 1 -->
<svg width="1027pt" height="404pt"
 viewBox="0.00 0.00 1027.08 404.00" xmlns="http://www.w3.org/2000/svg" xmlns:xlink="http://www.w3.org/1999/xlink">
<g id="graph0" class="graph" transform="scale(1 1) rotate(0) translate(4 400)">
<title>%3</title>
<polygon fill="#ffffff" stroke="transparent" points="-4,4 -4,-400 1023.083,-400 1023.083,4 -4,4"/>
<!-- fsinputnode (utility) -->
<g id="node1" class="node">
<title>fsinputnode (utility)</title>
<ellipse fill="none" stroke="#000000" cx="467.9908" cy="-306" rx="103.1819" ry="18"/>
<text text-anchor="middle" x="467.9908" y="-302.3" font-family="Times,serif" font-size="14.00" fill="#000000">fsinputnode (utility)</text>
</g>
<!-- anat_preproc_wf -->
<g id="node2" class="node">
<title>anat_preproc_wf</title>
<ellipse fill="none" stroke="#000000" cx="462.9908" cy="-234" rx="89.0842" ry="18"/>
<text text-anchor="middle" x="462.9908" y="-230.3" font-family="Times,serif" font-size="14.00" fill="#000000">anat_preproc_wf</text>
</g>
<!-- fsinputnode (utility)&#45;&gt;anat_preproc_wf -->
<g id="edge1" class="edge">
<title>fsinputnode (utility)&#45;&gt;anat_preproc_wf</title>
<path fill="none" stroke="#000000" d="M466.7291,-287.8314C466.1943,-280.131 465.5584,-270.9743 464.9642,-262.4166"/>
<polygon fill="#000000" stroke="#000000" points="468.4539,-262.1467 464.2695,-252.4133 461.4707,-262.6317 468.4539,-262.1467"/>
</g>
<!-- summary (reports) -->
<g id="node3" class="node">
<title>summary (reports)</title>
<ellipse fill="none" stroke="#000000" cx="169.9908" cy="-234" rx="98.2828" ry="18"/>
<text text-anchor="middle" x="169.9908" y="-230.3" font-family="Times,serif" font-size="14.00" fill="#000000">summary (reports)</text>
</g>
<!-- fsinputnode (utility)&#45;&gt;summary (reports) -->
<g id="edge2" class="edge">
<title>fsinputnode (utility)&#45;&gt;summary (reports)</title>
<path fill="none" stroke="#000000" d="M407.3268,-291.3429C358.6668,-279.5861 290.3343,-263.0763 239.4791,-250.7891"/>
<polygon fill="#000000" stroke="#000000" points="240.0944,-247.3371 229.5521,-248.3907 238.4504,-254.1414 240.0944,-247.3371"/>
</g>
<!-- bbreg_wf -->
<g id="node4" class="node">
<title>bbreg_wf</title>
<ellipse fill="none" stroke="#000000" cx="505.9908" cy="-90" rx="53.8905" ry="18"/>
<text text-anchor="middle" x="505.9908" y="-86.3" font-family="Times,serif" font-size="14.00" fill="#000000">bbreg_wf</text>
</g>
<!-- fsinputnode (utility)&#45;&gt;bbreg_wf -->
<g id="edge3" class="edge">
<title>fsinputnode (utility)&#45;&gt;bbreg_wf</title>
<path fill="none" stroke="#000000" d="M513.3198,-289.5904C530.8393,-281.0135 549.4171,-268.7391 560.9908,-252 588.4569,-212.2753 593.8328,-187.5667 572.9908,-144 566.6614,-130.7695 555.3334,-119.7451 543.7714,-111.1806"/>
<polygon fill="#000000" stroke="#000000" points="545.5962,-108.1872 535.3793,-105.3826 541.6172,-113.9464 545.5962,-108.1872"/>
</g>
<!-- anat_preproc_wf&#45;&gt;bbreg_wf -->
<g id="edge5" class="edge">
<title>anat_preproc_wf&#45;&gt;bbreg_wf</title>
<path fill="none" stroke="#000000" d="M406.5224,-219.9354C386.0227,-211.8054 364.9726,-199.2297 352.9908,-180 344.5295,-166.4204 343.7496,-157.0614 352.9908,-144 364.7145,-127.4297 411.7296,-112.402 450.5841,-102.4317"/>
<polygon fill="#000000" stroke="#000000" points="451.9223,-105.7049 460.7739,-99.8825 450.2234,-98.9142 451.9223,-105.7049"/>
</g>
<!-- t1w_brain (nibabel) -->
<g id="node5" class="node">
<title>t1w_brain (nibabel)</title>
<ellipse fill="none" stroke="#000000" cx="462.9908" cy="-162" rx="101.2821" ry="18"/>
<text text-anchor="middle" x="462.9908" y="-158.3" font-family="Times,serif" font-size="14.00" fill="#000000">t1w_brain (nibabel)</text>
</g>
<!-- anat_preproc_wf&#45;&gt;t1w_brain (nibabel) -->
<g id="edge4" class="edge">
<title>anat_preproc_wf&#45;&gt;t1w_brain (nibabel)</title>
<path fill="none" stroke="#000000" d="M462.9908,-215.8314C462.9908,-208.131 462.9908,-198.9743 462.9908,-190.4166"/>
<polygon fill="#000000" stroke="#000000" points="466.4909,-190.4132 462.9908,-180.4133 459.4909,-190.4133 466.4909,-190.4132"/>
</g>
<!-- ds_report_summary -->
<g id="node8" class="node">
<title>ds_report_summary</title>
<ellipse fill="none" stroke="#000000" cx="103.9908" cy="-162" rx="103.9815" ry="18"/>
<text text-anchor="middle" x="103.9908" y="-158.3" font-family="Times,serif" font-size="14.00" fill="#000000">ds_report_summary</text>
</g>
<!-- summary (reports)&#45;&gt;ds_report_summary -->
<g id="edge6" class="edge">
<title>summary (reports)&#45;&gt;ds_report_summary</title>
<path fill="none" stroke="#000000" d="M153.6762,-216.2022C145.664,-207.4617 135.8712,-196.7786 127.104,-187.2144"/>
<polygon fill="#000000" stroke="#000000" points="129.6838,-184.8491 120.3464,-179.8425 124.5237,-189.5792 129.6838,-184.8491"/>
</g>
<!-- ds_report_reg -->
<g id="node15" class="node">
<title>ds_report_reg</title>
<ellipse fill="none" stroke="#000000" cx="595.9908" cy="-18" rx="76.0865" ry="18"/>
<text text-anchor="middle" x="595.9908" y="-14.3" font-family="Times,serif" font-size="14.00" fill="#000000">ds_report_reg</text>
</g>
<!-- bbreg_wf&#45;&gt;ds_report_reg -->
<g id="edge7" class="edge">
<title>bbreg_wf&#45;&gt;ds_report_reg</title>
<path fill="none" stroke="#000000" d="M526.8648,-73.3008C538.5363,-63.9636 553.2821,-52.1669 566.1537,-41.8697"/>
<polygon fill="#000000" stroke="#000000" points="568.6681,-44.3404 574.2903,-35.3603 564.2952,-38.8743 568.6681,-44.3404"/>
</g>
<!-- t1w_brain (nibabel)&#45;&gt;bbreg_wf -->
<g id="edge8" class="edge">
<title>t1w_brain (nibabel)&#45;&gt;bbreg_wf</title>
<path fill="none" stroke="#000000" d="M473.8415,-143.8314C478.7677,-135.5829 484.6917,-125.6635 490.1051,-116.5992"/>
<polygon fill="#000000" stroke="#000000" points="493.1699,-118.2935 495.2925,-107.9134 487.1601,-114.7042 493.1699,-118.2935"/>
</g>
<!-- bidssrc -->
<g id="node6" class="node">
<title>bidssrc</title>
<ellipse fill="none" stroke="#000000" cx="264.9908" cy="-378" rx="44.6926" ry="18"/>
<text text-anchor="middle" x="264.9908" y="-374.3" font-family="Times,serif" font-size="14.00" fill="#000000">bidssrc</text>
</g>
<!-- bidssrc&#45;&gt;anat_preproc_wf -->
<g id="edge11" class="edge">
<title>bidssrc&#45;&gt;anat_preproc_wf</title>
<path fill="none" stroke="#000000" d="M308.7362,-373.6187C391.1333,-364.9237 562.6665,-344.5468 579.9908,-324 590.3045,-311.7678 588.614,-301.4774 579.9908,-288 569.0573,-270.912 551.1895,-259.1543 532.6717,-251.0948"/>
<polygon fill="#000000" stroke="#000000" points="533.8448,-247.7943 523.2606,-247.3187 531.238,-254.2909 533.8448,-247.7943"/>
</g>
<!-- bidssrc&#45;&gt;summary (reports) -->
<g id="edge10" class="edge">
<title>bidssrc&#45;&gt;summary (reports)</title>
<path fill="none" stroke="#000000" d="M229.9374,-366.7145C209.8993,-358.2999 186.3603,-344.6436 173.9908,-324 162.9183,-305.5211 162.6025,-280.8741 164.6738,-262.0452"/>
<polygon fill="#000000" stroke="#000000" points="168.1613,-262.3758 166.0611,-251.9912 161.227,-261.4189 168.1613,-262.3758"/>
</g>
<!-- bids_info (bids) -->
<g id="node7" class="node">
<title>bids_info (bids)</title>
<ellipse fill="none" stroke="#000000" cx="264.9908" cy="-306" rx="81.7856" ry="18"/>
<text text-anchor="middle" x="264.9908" y="-302.3" font-family="Times,serif" font-size="14.00" fill="#000000">bids_info (bids)</text>
</g>
<!-- bidssrc&#45;&gt;bids_info (bids) -->
<g id="edge9" class="edge">
<title>bidssrc&#45;&gt;bids_info (bids)</title>
<path fill="none" stroke="#000000" d="M264.9908,-359.8314C264.9908,-352.131 264.9908,-342.9743 264.9908,-334.4166"/>
<polygon fill="#000000" stroke="#000000" points="268.4909,-334.4132 264.9908,-324.4133 261.4909,-334.4133 268.4909,-334.4132"/>
</g>
<!-- bidssrc&#45;&gt;ds_report_summary -->
<g id="edge12" class="edge">
<title>bidssrc&#45;&gt;ds_report_summary</title>
<path fill="none" stroke="#000000" d="M227.7652,-367.7912C179.0007,-352.1197 95.8441,-316.9041 62.9908,-252 52.1644,-230.6118 65.342,-205.7834 79.5612,-187.629"/>
<polygon fill="#000000" stroke="#000000" points="82.3761,-189.7182 86.0851,-179.7938 76.9967,-185.2391 82.3761,-189.7182"/>
</g>
<!-- ds_report_about -->
<g id="node9" class="node">
<title>ds_report_about</title>
<ellipse fill="none" stroke="#000000" cx="931.9908" cy="-306" rx="87.1846" ry="18"/>
<text text-anchor="middle" x="931.9908" y="-302.3" font-family="Times,serif" font-size="14.00" fill="#000000">ds_report_about</text>
</g>
<!-- bidssrc&#45;&gt;ds_report_about -->
<g id="edge13" class="edge">
<title>bidssrc&#45;&gt;ds_report_about</title>
<path fill="none" stroke="#000000" d="M309.5748,-375.1716C405.9504,-368.7534 640.7578,-351.4766 835.9908,-324 843.606,-322.9282 851.536,-321.6713 859.4301,-320.3285"/>
<polygon fill="#000000" stroke="#000000" points="860.1356,-323.7583 869.3838,-318.589 858.9306,-316.8628 860.1356,-323.7583"/>
</g>
<!-- bids_info (bids)&#45;&gt;anat_preproc_wf -->
<g id="edge15" class="edge">
<title>bids_info (bids)&#45;&gt;anat_preproc_wf</title>
<path fill="none" stroke="#000000" d="M307.4667,-290.5542C337.4333,-279.6573 377.7907,-264.9818 409.8847,-253.3113"/>
<polygon fill="#000000" stroke="#000000" points="411.3571,-256.5002 419.5589,-249.7934 408.9649,-249.9216 411.3571,-256.5002"/>
</g>
<!-- bids_info (bids)&#45;&gt;summary (reports) -->
<g id="edge14" class="edge">
<title>bids_info (bids)&#45;&gt;summary (reports)</title>
<path fill="none" stroke="#000000" d="M241.9939,-288.5708C229.7157,-279.2652 214.4295,-267.6799 201.1042,-257.5807"/>
<polygon fill="#000000" stroke="#000000" points="203.1889,-254.7691 193.1051,-251.5182 198.9608,-260.3479 203.1889,-254.7691"/>
</g>
<!-- bids_info (bids)&#45;&gt;bbreg_wf -->
<g id="edge16" class="edge">
<title>bids_info (bids)&#45;&gt;bbreg_wf</title>
<path fill="none" stroke="#000000" d="M268.799,-287.8456C276.7177,-254.5355 298.089,-183.4607 342.9908,-144 371.4015,-119.032 411.688,-105.5488 445.1006,-98.2994"/>
<polygon fill="#000000" stroke="#000000" points="446.1245,-101.663 455.2285,-96.2438 444.7322,-94.8028 446.1245,-101.663"/>
</g>
<!-- about (reports) -->
<g id="node10" class="node">
<title>about (reports)</title>
<ellipse fill="none" stroke="#000000" cx="931.9908" cy="-378" rx="81.4863" ry="18"/>
<text text-anchor="middle" x="931.9908" y="-374.3" font-family="Times,serif" font-size="14.00" fill="#000000">about (reports)</text>
</g>
<!-- about (reports)&#45;&gt;ds_report_about -->
<g id="edge17" class="edge">
<title>about (reports)&#45;&gt;ds_report_about</title>
<path fill="none" stroke="#000000" d="M931.9908,-359.8314C931.9908,-352.131 931.9908,-342.9743 931.9908,-334.4166"/>
<polygon fill="#000000" stroke="#000000" points="935.4909,-334.4132 931.9908,-324.4133 928.4909,-334.4133 935.4909,-334.4132"/>
</g>
<!-- inputnode (utility) -->
<g id="node11" class="node">
<title>inputnode (utility)</title>
<ellipse fill="none" stroke="#000000" cx="731.9908" cy="-306" rx="94.7833" ry="18"/>
<text text-anchor="middle" x="731.9908" y="-302.3" font-family="Times,serif" font-size="14.00" fill="#000000">inputnode (utility)</text>
</g>
<!-- split_info (utility) -->
<g id="node12" class="node">
<title>split_info (utility)</title>
<ellipse fill="none" stroke="#000000" cx="734.9908" cy="-234" rx="90.9839" ry="18"/>
<text text-anchor="middle" x="734.9908" y="-230.3" font-family="Times,serif" font-size="14.00" fill="#000000">split_info (utility)</text>
</g>
<!-- inputnode (utility)&#45;&gt;split_info (utility) -->
<g id="edge18" class="edge">
<title>inputnode (utility)&#45;&gt;split_info (utility)</title>
<path fill="none" stroke="#000000" d="M732.7478,-287.8314C733.0686,-280.131 733.4502,-270.9743 733.8067,-262.4166"/>
<polygon fill="#000000" stroke="#000000" points="737.3041,-262.5503 734.2236,-252.4133 730.3102,-262.2589 737.3041,-262.5503"/>
</g>
<!-- early_b0ref_wf -->
<g id="node13" class="node">
<title>early_b0ref_wf</title>
<ellipse fill="none" stroke="#000000" cx="737.9908" cy="-162" rx="79.8859" ry="18"/>
<text text-anchor="middle" x="737.9908" y="-158.3" font-family="Times,serif" font-size="14.00" fill="#000000">early_b0ref_wf</text>
</g>
<!-- split_info (utility)&#45;&gt;early_b0ref_wf -->
<g id="edge19" class="edge">
<title>split_info (utility)&#45;&gt;early_b0ref_wf</title>
<path fill="none" stroke="#000000" d="M735.7478,-215.8314C736.0686,-208.131 736.4502,-198.9743 736.8067,-190.4166"/>
<polygon fill="#000000" stroke="#000000" points="740.3041,-190.5503 737.2236,-180.4133 733.3102,-190.2589 740.3041,-190.5503"/>
</g>
<!-- referencenode (utility) -->
<g id="node14" class="node">
<title>referencenode (utility)</title>
<ellipse fill="none" stroke="#000000" cx="807.9908" cy="-90" rx="115.8798" ry="18"/>
<text text-anchor="middle" x="807.9908" y="-86.3" font-family="Times,serif" font-size="14.00" fill="#000000">referencenode (utility)</text>
</g>
<!-- split_info (utility)&#45;&gt;referencenode (utility) -->
<g id="edge20" class="edge">
<title>split_info (utility)&#45;&gt;referencenode (utility)</title>
<path fill="none" stroke="#000000" d="M781.2355,-218.3616C798.7924,-209.9088 816.96,-197.5187 826.9908,-180 838.005,-160.7638 831.4895,-135.9287 823.2157,-117.2214"/>
<polygon fill="#000000" stroke="#000000" points="826.2987,-115.5563 818.8123,-108.0594 819.9896,-118.5887 826.2987,-115.5563"/>
</g>
<!-- split_info (utility)&#45;&gt;ds_report_reg -->
<g id="edge21" class="edge">
<title>split_info (utility)&#45;&gt;ds_report_reg</title>
<path fill="none" stroke="#000000" d="M696.8211,-217.4416C680.0938,-208.4971 661.4717,-195.9774 648.9908,-180 617.7063,-139.9513 604.5442,-80.7312 599.2689,-46.0844"/>
<polygon fill="#000000" stroke="#000000" points="602.733,-45.5839 597.8736,-36.1692 595.8013,-46.5594 602.733,-45.5839"/>
</g>
<!-- early_b0ref_wf&#45;&gt;bbreg_wf -->
<g id="edge23" class="edge">
<title>early_b0ref_wf&#45;&gt;bbreg_wf</title>
<path fill="none" stroke="#000000" d="M691.0421,-147.4297C651.5331,-135.1683 595.2212,-117.6922 555.1119,-105.2445"/>
<polygon fill="#000000" stroke="#000000" points="556.1275,-101.8951 545.5395,-102.2737 554.0527,-108.5805 556.1275,-101.8951"/>
</g>
<!-- early_b0ref_wf&#45;&gt;referencenode (utility) -->
<g id="edge22" class="edge">
<title>early_b0ref_wf&#45;&gt;referencenode (utility)</title>
<path fill="none" stroke="#000000" d="M755.2941,-144.2022C763.7919,-135.4617 774.1782,-124.7786 783.4767,-115.2144"/>
<polygon fill="#000000" stroke="#000000" points="786.1825,-117.4523 790.6439,-107.8425 781.1635,-112.5727 786.1825,-117.4523"/>
</g>
<!-- fmap_estimation_wf -->
<g id="node16" class="node">
<title>fmap_estimation_wf</title>
<ellipse fill="none" stroke="#000000" cx="807.9908" cy="-18" rx="104.7816" ry="18"/>
<text text-anchor="middle" x="807.9908" y="-14.3" font-family="Times,serif" font-size="14.00" fill="#000000">fmap_estimation_wf</text>
</g>
<!-- referencenode (utility)&#45;&gt;fmap_estimation_wf -->
<g id="edge24" class="edge">
<title>referencenode (utility)&#45;&gt;fmap_estimation_wf</title>
<path fill="none" stroke="#000000" d="M807.9908,-71.8314C807.9908,-64.131 807.9908,-54.9743 807.9908,-46.4166"/>
<polygon fill="#000000" stroke="#000000" points="811.4909,-46.4132 807.9908,-36.4133 804.4909,-46.4133 811.4909,-46.4132"/>
</g>
</g>
</svg>
