<?xml version="1.0" encoding="UTF-8" standalone="no"?>
<!DOCTYPE svg PUBLIC "-//W3C//DTD SVG 1.1//EN"
 "http://www.w3.org/Graphics/SVG/1.1/DTD/svg11.dtd">
<!-- Generated by graphviz version 2.40.1 (20161225.0304)
 -->
<!-- Title: structs Pages: 1 -->
<svg width="1131pt" height="184pt"
 viewBox="0.00 0.00 1131.00 184.00" xmlns="http://www.w3.org/2000/svg" xmlns:xlink="http://www.w3.org/1999/xlink">
<g id="graph0" class="graph" transform="scale(1 1) rotate(0) translate(4 180)">
<title>structs</title>
<polygon fill="#ffffff" stroke="transparent" points="-4,4 -4,-180 1127,-180 1127,4 -4,4"/>
<!-- dmriprep_wffsdir_run_20200311_121754_aa0b4fa9_6b60_4a11_af7d_02deb54a823f -->
<g id="node1" class="node">
<title>dmriprep_wffsdir_run_20200311_121754_aa0b4fa9_6b60_4a11_af7d_02deb54a823f</title>
<polygon fill="none" stroke="#000000" points="0,-106.5 0,-175.5 671,-175.5 671,-106.5 0,-106.5"/>
<text text-anchor="middle" x="17.5" y="-137.3" font-family="Times,serif" font-size="14.00" fill="#000000">IN</text>
<polyline fill="none" stroke="#000000" points="35,-106.5 35,-175.5 "/>
<text text-anchor="middle" x="301" y="-160.3" font-family="Times,serif" font-size="14.00" fill="#000000">fsdir_run_20200311_121754_aa0b4fa9_6b60_4a11_af7d_02deb54a823f</text>
<polyline fill="none" stroke="#000000" points="35,-152.5 567,-152.5 "/>
<text text-anchor="middle" x="301" y="-137.3" font-family="Times,serif" font-size="14.00" fill="#000000">bids</text>
<polyline fill="none" stroke="#000000" points="35,-129.5 567,-129.5 "/>
<text text-anchor="middle" x="301" y="-114.3" font-family="Times,serif" font-size="14.00" fill="#000000"> </text>
<polyline fill="none" stroke="#000000" points="567,-106.5 567,-175.5 "/>
<text text-anchor="middle" x="619" y="-154.8" font-family="Times,serif" font-size="14.00" fill="#000000">OUT</text>
<polyline fill="none" stroke="#000000" points="567,-141.5 671,-141.5 "/>
<text text-anchor="middle" x="619" y="-120.3" font-family="Times,serif" font-size="14.00" fill="#000000">subjects_dir</text>
</g>
<!-- dmriprep_wfsingle_subject_THP0005_wf -->
<g id="node2" class="node">
<title>dmriprep_wfsingle_subject_THP0005_wf</title>
<polygon fill="none" stroke="#000000" points="672,-.5 672,-69.5 1123,-69.5 1123,-.5 672,-.5"/>
<text text-anchor="middle" x="762.5" y="-48.8" font-family="Times,serif" font-size="14.00" fill="#000000">IN</text>
<polyline fill="none" stroke="#000000" points="672,-35.5 853,-35.5 "/>
<text text-anchor="middle" x="762.5" y="-14.3" font-family="Times,serif" font-size="14.00" fill="#000000">inputnode.subjects_dir</text>
<polyline fill="none" stroke="#000000" points="853,-.5 853,-69.5 "/>
<text text-anchor="middle" x="963" y="-54.3" font-family="Times,serif" font-size="14.00" fill="#000000">single_subject_THP0005_wf</text>
<polyline fill="none" stroke="#000000" points="853,-46.5 1073,-46.5 "/>
<text text-anchor="middle" x="963" y="-31.3" font-family="Times,serif" font-size="14.00" fill="#000000"> </text>
<polyline fill="none" stroke="#000000" points="853,-23.5 1073,-23.5 "/>
<text text-anchor="middle" x="963" y="-8.3" font-family="Times,serif" font-size="14.00" fill="#000000"> </text>
<polyline fill="none" stroke="#000000" points="1073,-.5 1073,-69.5 "/>
<text text-anchor="middle" x="1098" y="-31.3" font-family="Times,serif" font-size="14.00" fill="#000000">OUT</text>
</g>
<!-- dmriprep_wffsdir_run_20200311_121754_aa0b4fa9_6b60_4a11_af7d_02deb54a823f&#45;&gt;dmriprep_wfsingle_subject_THP0005_wf -->
<g id="edge1" class="edge">
<title>dmriprep_wffsdir_run_20200311_121754_aa0b4fa9_6b60_4a11_af7d_02deb54a823f:e&#45;&gt;dmriprep_wfsingle_subject_THP0005_wf:w</title>
<path fill="none" stroke="#000000" d="M671.5,-124C714.1944,-124 640.8134,-36.9434 661.7437,-20.6202"/>
<polygon fill="#000000" stroke="#000000" points="662.7501,-23.9741 671.5,-18 660.9344,-17.2136 662.7501,-23.9741"/>
</g>
</g>
</svg>
