<?xml version="1.0" encoding="UTF-8" standalone="no"?>
<!DOCTYPE svg PUBLIC "-//W3C//DTD SVG 1.1//EN"
 "http://www.w3.org/Graphics/SVG/1.1/DTD/svg11.dtd">
<!-- Generated by graphviz version 2.40.1 (20161225.0304)
 -->
<!-- Title: structs Pages: 1 -->
<svg width="1057pt" height="1267pt"
 viewBox="0.00 0.00 1056.94 1267.00" xmlns="http://www.w3.org/2000/svg" xmlns:xlink="http://www.w3.org/1999/xlink">
<g id="graph0" class="graph" transform="scale(1 1) rotate(0) translate(4 1263)">
<title>structs</title>
<polygon fill="#ffffff" stroke="transparent" points="-4,4 -4,-1263 1052.944,-1263 1052.944,4 -4,4"/>
<!-- enhance_and_skullstrip_dwi_wfinputnode -->
<g id="node1" class="node">
<title>enhance_and_skullstrip_dwi_wfinputnode</title>
<polygon fill="none" stroke="#000000" points="268.7205,-1189.5 268.7205,-1258.5 478.7205,-1258.5 478.7205,-1189.5 268.7205,-1189.5"/>
<text text-anchor="middle" x="286.2205" y="-1220.3" font-family="Times,serif" font-size="14.00" fill="#000000">IN</text>
<polyline fill="none" stroke="#000000" points="303.7205,-1189.5 303.7205,-1258.5 "/>
<text text-anchor="middle" x="348.2205" y="-1243.3" font-family="Times,serif" font-size="14.00" fill="#000000">inputnode</text>
<polyline fill="none" stroke="#000000" points="303.7205,-1235.5 392.7205,-1235.5 "/>
<text text-anchor="middle" x="348.2205" y="-1220.3" font-family="Times,serif" font-size="14.00" fill="#000000">utility</text>
<polyline fill="none" stroke="#000000" points="303.7205,-1212.5 392.7205,-1212.5 "/>
<text text-anchor="middle" x="348.2205" y="-1197.3" font-family="Times,serif" font-size="14.00" fill="#000000"> </text>
<polyline fill="none" stroke="#000000" points="392.7205,-1189.5 392.7205,-1258.5 "/>
<text text-anchor="middle" x="435.7205" y="-1243.3" font-family="Times,serif" font-size="14.00" fill="#000000">OUT</text>
<polyline fill="none" stroke="#000000" points="392.7205,-1235.5 478.7205,-1235.5 "/>
<text text-anchor="middle" x="435.7205" y="-1220.3" font-family="Times,serif" font-size="14.00" fill="#000000">in_file</text>
<polyline fill="none" stroke="#000000" points="392.7205,-1212.5 478.7205,-1212.5 "/>
<text text-anchor="middle" x="435.7205" y="-1197.3" font-family="Times,serif" font-size="14.00" fill="#000000">pre_mask</text>
</g>
<!-- enhance_and_skullstrip_dwi_wfn4_correct -->
<g id="node2" class="node">
<title>enhance_and_skullstrip_dwi_wfn4_correct</title>
<polygon fill="none" stroke="#000000" points="16.7205,-1083.5 16.7205,-1152.5 332.7205,-1152.5 332.7205,-1083.5 16.7205,-1083.5"/>
<text text-anchor="middle" x="69.7205" y="-1137.3" font-family="Times,serif" font-size="14.00" fill="#000000">IN</text>
<polyline fill="none" stroke="#000000" points="16.7205,-1129.5 122.7205,-1129.5 "/>
<text text-anchor="middle" x="69.7205" y="-1114.3" font-family="Times,serif" font-size="14.00" fill="#000000">input_image</text>
<polyline fill="none" stroke="#000000" points="16.7205,-1106.5 122.7205,-1106.5 "/>
<text text-anchor="middle" x="69.7205" y="-1091.3" font-family="Times,serif" font-size="14.00" fill="#000000">mask_image</text>
<polyline fill="none" stroke="#000000" points="122.7205,-1083.5 122.7205,-1152.5 "/>
<text text-anchor="middle" x="170.2205" y="-1137.3" font-family="Times,serif" font-size="14.00" fill="#000000">n4_correct</text>
<polyline fill="none" stroke="#000000" points="122.7205,-1129.5 217.7205,-1129.5 "/>
<text text-anchor="middle" x="170.2205" y="-1114.3" font-family="Times,serif" font-size="14.00" fill="#000000">fixes</text>
<polyline fill="none" stroke="#000000" points="122.7205,-1106.5 217.7205,-1106.5 "/>
<text text-anchor="middle" x="170.2205" y="-1091.3" font-family="Times,serif" font-size="14.00" fill="#000000"> </text>
<polyline fill="none" stroke="#000000" points="217.7205,-1083.5 217.7205,-1152.5 "/>
<text text-anchor="middle" x="275.2205" y="-1131.8" font-family="Times,serif" font-size="14.00" fill="#000000">OUT</text>
<polyline fill="none" stroke="#000000" points="217.7205,-1118.5 332.7205,-1118.5 "/>
<text text-anchor="middle" x="275.2205" y="-1097.3" font-family="Times,serif" font-size="14.00" fill="#000000">output_image</text>
</g>
<!-- enhance_and_skullstrip_dwi_wfinputnode&#45;&gt;enhance_and_skullstrip_dwi_wfn4_correct -->
<g id="edge8" class="edge">
<title>enhance_and_skullstrip_dwi_wfinputnode:e&#45;&gt;enhance_and_skullstrip_dwi_wfn4_correct:w</title>
<path fill="none" stroke="#000000" d="M478.7205,-1224C494.2761,-1224 489.284,-1200.4187 478.7205,-1189 408.7897,-1113.4081 86.6513,-1228.5919 16.7205,-1153 9.293,-1144.9712 4.62,-1130.9294 7.9073,-1123.2998"/>
<polygon fill="#000000" stroke="#000000" points="9.9544,-1126.1529 16.7205,-1118 6.3469,-1120.154 9.9544,-1126.1529"/>
</g>
<!-- enhance_and_skullstrip_dwi_wfinputnode&#45;&gt;enhance_and_skullstrip_dwi_wfn4_correct -->
<g id="edge9" class="edge">
<title>enhance_and_skullstrip_dwi_wfinputnode:e&#45;&gt;enhance_and_skullstrip_dwi_wfn4_correct:w</title>
<path fill="none" stroke="#000000" d="M478.7205,-1201C484.0538,-1201 482.3423,-1192.915 478.7205,-1189 408.7897,-1113.4081 86.6513,-1228.5919 16.7205,-1153 1.9504,-1137.0342 -6.2467,-1106.7197 7.0364,-1097.6362"/>
<polygon fill="#000000" stroke="#000000" points="7.9909,-1101.0038 16.7205,-1095 6.1523,-1094.2496 7.9909,-1101.0038"/>
</g>
<!-- enhance_and_skullstrip_dwi_wffixhdr_unifize -->
<g id="node8" class="node">
<title>enhance_and_skullstrip_dwi_wffixhdr_unifize</title>
<polygon fill="none" stroke="#000000" points="501.7205,-553.5 501.7205,-622.5 757.7205,-622.5 757.7205,-553.5 501.7205,-553.5"/>
<text text-anchor="middle" x="537.2205" y="-607.3" font-family="Times,serif" font-size="14.00" fill="#000000">IN</text>
<polyline fill="none" stroke="#000000" points="501.7205,-599.5 572.7205,-599.5 "/>
<text text-anchor="middle" x="537.2205" y="-584.3" font-family="Times,serif" font-size="14.00" fill="#000000">hdr_file</text>
<polyline fill="none" stroke="#000000" points="501.7205,-576.5 572.7205,-576.5 "/>
<text text-anchor="middle" x="537.2205" y="-561.3" font-family="Times,serif" font-size="14.00" fill="#000000">in_file</text>
<polyline fill="none" stroke="#000000" points="572.7205,-553.5 572.7205,-622.5 "/>
<text text-anchor="middle" x="630.2205" y="-607.3" font-family="Times,serif" font-size="14.00" fill="#000000">fixhdr_unifize</text>
<polyline fill="none" stroke="#000000" points="572.7205,-599.5 687.7205,-599.5 "/>
<text text-anchor="middle" x="630.2205" y="-584.3" font-family="Times,serif" font-size="14.00" fill="#000000">header</text>
<polyline fill="none" stroke="#000000" points="572.7205,-576.5 687.7205,-576.5 "/>
<text text-anchor="middle" x="630.2205" y="-561.3" font-family="Times,serif" font-size="14.00" fill="#000000"> </text>
<polyline fill="none" stroke="#000000" points="687.7205,-553.5 687.7205,-622.5 "/>
<text text-anchor="middle" x="722.7205" y="-601.8" font-family="Times,serif" font-size="14.00" fill="#000000">OUT</text>
<polyline fill="none" stroke="#000000" points="687.7205,-588.5 757.7205,-588.5 "/>
<text text-anchor="middle" x="722.7205" y="-567.3" font-family="Times,serif" font-size="14.00" fill="#000000">out_file</text>
</g>
<!-- enhance_and_skullstrip_dwi_wfinputnode&#45;&gt;enhance_and_skullstrip_dwi_wffixhdr_unifize -->
<g id="edge7" class="edge">
<title>enhance_and_skullstrip_dwi_wfinputnode:e&#45;&gt;enhance_and_skullstrip_dwi_wffixhdr_unifize:w</title>
<path fill="none" stroke="#000000" d="M478.7205,-1224C618.3977,-1224 710.7205,-1151.6772 710.7205,-1012 710.7205,-1012 710.7205,-1012 710.7205,-800 710.7205,-725.6555 679.9845,-703.8875 620.7205,-659 576.6729,-625.6377 534.6533,-667.3697 501.7205,-623 495.3466,-614.4126 490.3844,-601.0899 492.9602,-593.6018"/>
<polygon fill="#000000" stroke="#000000" points="495.1813,-596.336 501.7205,-588 491.4101,-590.4387 495.1813,-596.336"/>
</g>
<!-- enhance_and_skullstrip_dwi_wffixhdr_skullstrip2 -->
<g id="node10" class="node">
<title>enhance_and_skullstrip_dwi_wffixhdr_skullstrip2</title>
<polygon fill="none" stroke="#000000" points="758.2205,-341.5 758.2205,-410.5 1043.2205,-410.5 1043.2205,-341.5 758.2205,-341.5"/>
<text text-anchor="middle" x="793.7205" y="-395.3" font-family="Times,serif" font-size="14.00" fill="#000000">IN</text>
<polyline fill="none" stroke="#000000" points="758.2205,-387.5 829.2205,-387.5 "/>
<text text-anchor="middle" x="793.7205" y="-372.3" font-family="Times,serif" font-size="14.00" fill="#000000">hdr_file</text>
<polyline fill="none" stroke="#000000" points="758.2205,-364.5 829.2205,-364.5 "/>
<text text-anchor="middle" x="793.7205" y="-349.3" font-family="Times,serif" font-size="14.00" fill="#000000">in_file</text>
<polyline fill="none" stroke="#000000" points="829.2205,-341.5 829.2205,-410.5 "/>
<text text-anchor="middle" x="901.2205" y="-395.3" font-family="Times,serif" font-size="14.00" fill="#000000">fixhdr_skullstrip2</text>
<polyline fill="none" stroke="#000000" points="829.2205,-387.5 973.2205,-387.5 "/>
<text text-anchor="middle" x="901.2205" y="-372.3" font-family="Times,serif" font-size="14.00" fill="#000000">header</text>
<polyline fill="none" stroke="#000000" points="829.2205,-364.5 973.2205,-364.5 "/>
<text text-anchor="middle" x="901.2205" y="-349.3" font-family="Times,serif" font-size="14.00" fill="#000000"> </text>
<polyline fill="none" stroke="#000000" points="973.2205,-341.5 973.2205,-410.5 "/>
<text text-anchor="middle" x="1008.2205" y="-389.8" font-family="Times,serif" font-size="14.00" fill="#000000">OUT</text>
<polyline fill="none" stroke="#000000" points="973.2205,-376.5 1043.2205,-376.5 "/>
<text text-anchor="middle" x="1008.2205" y="-355.3" font-family="Times,serif" font-size="14.00" fill="#000000">out_file</text>
</g>
<!-- enhance_and_skullstrip_dwi_wfinputnode&#45;&gt;enhance_and_skullstrip_dwi_wffixhdr_skullstrip2 -->
<g id="edge6" class="edge">
<title>enhance_and_skullstrip_dwi_wfinputnode:e&#45;&gt;enhance_and_skullstrip_dwi_wffixhdr_skullstrip2:w</title>
<path fill="none" stroke="#000000" d="M478.7205,-1224C644.5364,-1224 785.7205,-1177.8159 785.7205,-1012 785.7205,-1012 785.7205,-1012 785.7205,-588 785.7205,-524.7669 778.6292,-509.1016 766.7205,-447 761.6193,-420.3981 735.6137,-387.6163 747.6478,-378.4703"/>
<polygon fill="#000000" stroke="#000000" points="748.842,-381.7813 757.7205,-376 747.1746,-374.9827 748.842,-381.7813"/>
</g>
<!-- enhance_and_skullstrip_dwi_wfnormalize -->
<g id="node3" class="node">
<title>enhance_and_skullstrip_dwi_wfnormalize</title>
<polygon fill="none" stroke="#000000" points="101.2205,-235.5 101.2205,-304.5 298.2205,-304.5 298.2205,-235.5 101.2205,-235.5"/>
<text text-anchor="middle" x="131.2205" y="-283.8" font-family="Times,serif" font-size="14.00" fill="#000000">IN</text>
<polyline fill="none" stroke="#000000" points="101.2205,-270.5 161.2205,-270.5 "/>
<text text-anchor="middle" x="131.2205" y="-249.3" font-family="Times,serif" font-size="14.00" fill="#000000">in_file</text>
<polyline fill="none" stroke="#000000" points="161.2205,-235.5 161.2205,-304.5 "/>
<text text-anchor="middle" x="204.7205" y="-289.3" font-family="Times,serif" font-size="14.00" fill="#000000">normalize</text>
<polyline fill="none" stroke="#000000" points="161.2205,-281.5 248.2205,-281.5 "/>
<text text-anchor="middle" x="204.7205" y="-266.3" font-family="Times,serif" font-size="14.00" fill="#000000">utility</text>
<polyline fill="none" stroke="#000000" points="161.2205,-258.5 248.2205,-258.5 "/>
<text text-anchor="middle" x="204.7205" y="-243.3" font-family="Times,serif" font-size="14.00" fill="#000000"> </text>
<polyline fill="none" stroke="#000000" points="248.2205,-235.5 248.2205,-304.5 "/>
<text text-anchor="middle" x="273.2205" y="-283.8" font-family="Times,serif" font-size="14.00" fill="#000000">OUT</text>
<polyline fill="none" stroke="#000000" points="248.2205,-270.5 298.2205,-270.5 "/>
<text text-anchor="middle" x="273.2205" y="-249.3" font-family="Times,serif" font-size="14.00" fill="#000000">out</text>
</g>
<!-- enhance_and_skullstrip_dwi_wfn4_correct&#45;&gt;enhance_and_skullstrip_dwi_wfnormalize -->
<g id="edge10" class="edge">
<title>enhance_and_skullstrip_dwi_wfn4_correct:e&#45;&gt;enhance_and_skullstrip_dwi_wfnormalize:w</title>
<path fill="none" stroke="#000000" d="M332.7205,-1101C340.7205,-1101 337.9391,-1089.0635 332.7205,-1083 262.6476,-1001.5817 169.0851,-1123.5464 93.7205,-1047 49.3572,-1001.941 74.7205,-969.2331 74.7205,-906 74.7205,-906 74.7205,-906 74.7205,-482 74.7205,-383.1694 3.5685,-261.8695 90.5693,-253.4628"/>
<polygon fill="#000000" stroke="#000000" points="90.8903,-256.9518 100.7205,-253 90.5715,-249.9591 90.8903,-256.9518"/>
</g>
<!-- enhance_and_skullstrip_dwi_wfskullstrip_first_pass -->
<g id="node4" class="node">
<title>enhance_and_skullstrip_dwi_wfskullstrip_first_pass</title>
<polygon fill="none" stroke="#000000" points="102.2205,-977.5 102.2205,-1046.5 409.2205,-1046.5 409.2205,-977.5 102.2205,-977.5"/>
<text text-anchor="middle" x="132.2205" y="-1025.8" font-family="Times,serif" font-size="14.00" fill="#000000">IN</text>
<polyline fill="none" stroke="#000000" points="102.2205,-1012.5 162.2205,-1012.5 "/>
<text text-anchor="middle" x="132.2205" y="-991.3" font-family="Times,serif" font-size="14.00" fill="#000000">in_file</text>
<polyline fill="none" stroke="#000000" points="162.2205,-977.5 162.2205,-1046.5 "/>
<text text-anchor="middle" x="243.2205" y="-1031.3" font-family="Times,serif" font-size="14.00" fill="#000000">skullstrip_first_pass</text>
<polyline fill="none" stroke="#000000" points="162.2205,-1023.5 324.2205,-1023.5 "/>
<text text-anchor="middle" x="243.2205" y="-1008.3" font-family="Times,serif" font-size="14.00" fill="#000000">fsl</text>
<polyline fill="none" stroke="#000000" points="162.2205,-1000.5 324.2205,-1000.5 "/>
<text text-anchor="middle" x="243.2205" y="-985.3" font-family="Times,serif" font-size="14.00" fill="#000000"> </text>
<polyline fill="none" stroke="#000000" points="324.2205,-977.5 324.2205,-1046.5 "/>
<text text-anchor="middle" x="366.7205" y="-1031.3" font-family="Times,serif" font-size="14.00" fill="#000000">OUT</text>
<polyline fill="none" stroke="#000000" points="324.2205,-1023.5 409.2205,-1023.5 "/>
<text text-anchor="middle" x="366.7205" y="-1008.3" font-family="Times,serif" font-size="14.00" fill="#000000">mask_file</text>
<polyline fill="none" stroke="#000000" points="324.2205,-1000.5 409.2205,-1000.5 "/>
<text text-anchor="middle" x="366.7205" y="-985.3" font-family="Times,serif" font-size="14.00" fill="#000000">out_file</text>
</g>
<!-- enhance_and_skullstrip_dwi_wfn4_correct&#45;&gt;enhance_and_skullstrip_dwi_wfskullstrip_first_pass -->
<g id="edge11" class="edge">
<title>enhance_and_skullstrip_dwi_wfn4_correct:e&#45;&gt;enhance_and_skullstrip_dwi_wfskullstrip_first_pass:w</title>
<path fill="none" stroke="#000000" d="M332.7205,-1101C340.7205,-1101 337.9236,-1089.0768 332.7205,-1083 265.1411,-1004.073 169.2999,-1125.927 101.7205,-1047 96.2599,-1040.6225 92.6341,-1016.0619 95.4917,-1003.1071"/>
<polygon fill="#000000" stroke="#000000" points="98.4033,-1005.0622 101.7205,-995 92.8525,-1000.7974 98.4033,-1005.0622"/>
</g>
<!-- enhance_and_skullstrip_dwi_wfapply_mask -->
<g id="node12" class="node">
<title>enhance_and_skullstrip_dwi_wfapply_mask</title>
<polygon fill="none" stroke="#000000" points="334.2205,-129.5 334.2205,-198.5 581.2205,-198.5 581.2205,-129.5 334.2205,-129.5"/>
<text text-anchor="middle" x="372.2205" y="-183.3" font-family="Times,serif" font-size="14.00" fill="#000000">IN</text>
<polyline fill="none" stroke="#000000" points="334.2205,-175.5 410.2205,-175.5 "/>
<text text-anchor="middle" x="372.2205" y="-160.3" font-family="Times,serif" font-size="14.00" fill="#000000">in_file</text>
<polyline fill="none" stroke="#000000" points="334.2205,-152.5 410.2205,-152.5 "/>
<text text-anchor="middle" x="372.2205" y="-137.3" font-family="Times,serif" font-size="14.00" fill="#000000">in_mask</text>
<polyline fill="none" stroke="#000000" points="410.2205,-129.5 410.2205,-198.5 "/>
<text text-anchor="middle" x="460.7205" y="-183.3" font-family="Times,serif" font-size="14.00" fill="#000000">apply_mask</text>
<polyline fill="none" stroke="#000000" points="410.2205,-175.5 511.2205,-175.5 "/>
<text text-anchor="middle" x="460.7205" y="-160.3" font-family="Times,serif" font-size="14.00" fill="#000000">nibabel</text>
<polyline fill="none" stroke="#000000" points="410.2205,-152.5 511.2205,-152.5 "/>
<text text-anchor="middle" x="460.7205" y="-137.3" font-family="Times,serif" font-size="14.00" fill="#000000"> </text>
<polyline fill="none" stroke="#000000" points="511.2205,-129.5 511.2205,-198.5 "/>
<text text-anchor="middle" x="546.2205" y="-177.8" font-family="Times,serif" font-size="14.00" fill="#000000">OUT</text>
<polyline fill="none" stroke="#000000" points="511.2205,-164.5 581.2205,-164.5 "/>
<text text-anchor="middle" x="546.2205" y="-143.3" font-family="Times,serif" font-size="14.00" fill="#000000">out_file</text>
</g>
<!-- enhance_and_skullstrip_dwi_wfnormalize&#45;&gt;enhance_and_skullstrip_dwi_wfapply_mask -->
<g id="edge12" class="edge">
<title>enhance_and_skullstrip_dwi_wfnormalize:e&#45;&gt;enhance_and_skullstrip_dwi_wfapply_mask:w</title>
<path fill="none" stroke="#000000" d="M298.7205,-253C302.9958,-253 319.6135,-195.3705 328.7101,-172.859"/>
<polygon fill="#000000" stroke="#000000" points="331.844,-174.4274 333.7205,-164 325.751,-170.9813 331.844,-174.4274"/>
</g>
<!-- enhance_and_skullstrip_dwi_wfoutputnode -->
<g id="node13" class="node">
<title>enhance_and_skullstrip_dwi_wfoutputnode</title>
<polygon fill="none" stroke="#000000" points="582.2205,-.5 582.2205,-92.5 883.2205,-92.5 883.2205,-.5 582.2205,-.5"/>
<text text-anchor="middle" x="658.7205" y="-77.3" font-family="Times,serif" font-size="14.00" fill="#000000">IN</text>
<polyline fill="none" stroke="#000000" points="582.2205,-69.5 735.2205,-69.5 "/>
<text text-anchor="middle" x="658.7205" y="-54.3" font-family="Times,serif" font-size="14.00" fill="#000000">bias_corrected_file</text>
<polyline fill="none" stroke="#000000" points="582.2205,-46.5 735.2205,-46.5 "/>
<text text-anchor="middle" x="658.7205" y="-31.3" font-family="Times,serif" font-size="14.00" fill="#000000">mask_file</text>
<polyline fill="none" stroke="#000000" points="582.2205,-23.5 735.2205,-23.5 "/>
<text text-anchor="middle" x="658.7205" y="-8.3" font-family="Times,serif" font-size="14.00" fill="#000000">skull_stripped_file</text>
<polyline fill="none" stroke="#000000" points="735.2205,-.5 735.2205,-92.5 "/>
<text text-anchor="middle" x="784.2205" y="-73.8" font-family="Times,serif" font-size="14.00" fill="#000000">outputnode</text>
<polyline fill="none" stroke="#000000" points="735.2205,-62.5 833.2205,-62.5 "/>
<text text-anchor="middle" x="784.2205" y="-43.3" font-family="Times,serif" font-size="14.00" fill="#000000">utility</text>
<polyline fill="none" stroke="#000000" points="735.2205,-31.5 833.2205,-31.5 "/>
<text text-anchor="middle" x="784.2205" y="-12.3" font-family="Times,serif" font-size="14.00" fill="#000000"> </text>
<polyline fill="none" stroke="#000000" points="833.2205,-.5 833.2205,-92.5 "/>
<text text-anchor="middle" x="858.2205" y="-42.8" font-family="Times,serif" font-size="14.00" fill="#000000">OUT</text>
</g>
<!-- enhance_and_skullstrip_dwi_wfnormalize&#45;&gt;enhance_and_skullstrip_dwi_wfoutputnode -->
<g id="edge13" class="edge">
<title>enhance_and_skullstrip_dwi_wfnormalize:e&#45;&gt;enhance_and_skullstrip_dwi_wfoutputnode:w</title>
<path fill="none" stroke="#000000" d="M298.7205,-253C312.8211,-253 316.0244,-139.2378 325.7205,-129 364.156,-88.4172 506.5387,-61.4593 571.604,-58.7289"/>
<polygon fill="#000000" stroke="#000000" points="571.8023,-62.2254 581.7205,-58.5 571.6438,-55.2272 571.8023,-62.2254"/>
</g>
<!-- enhance_and_skullstrip_dwi_wfskullstrip_first_dilate -->
<g id="node5" class="node">
<title>enhance_and_skullstrip_dwi_wfskullstrip_first_dilate</title>
<polygon fill="none" stroke="#000000" points="382.7205,-871.5 382.7205,-940.5 682.7205,-940.5 682.7205,-871.5 382.7205,-871.5"/>
<text text-anchor="middle" x="412.7205" y="-919.8" font-family="Times,serif" font-size="14.00" fill="#000000">IN</text>
<polyline fill="none" stroke="#000000" points="382.7205,-906.5 442.7205,-906.5 "/>
<text text-anchor="middle" x="412.7205" y="-885.3" font-family="Times,serif" font-size="14.00" fill="#000000">in_file</text>
<polyline fill="none" stroke="#000000" points="442.7205,-871.5 442.7205,-940.5 "/>
<text text-anchor="middle" x="527.7205" y="-925.3" font-family="Times,serif" font-size="14.00" fill="#000000">skullstrip_first_dilate</text>
<polyline fill="none" stroke="#000000" points="442.7205,-917.5 612.7205,-917.5 "/>
<text text-anchor="middle" x="527.7205" y="-902.3" font-family="Times,serif" font-size="14.00" fill="#000000">fsl</text>
<polyline fill="none" stroke="#000000" points="442.7205,-894.5 612.7205,-894.5 "/>
<text text-anchor="middle" x="527.7205" y="-879.3" font-family="Times,serif" font-size="14.00" fill="#000000"> </text>
<polyline fill="none" stroke="#000000" points="612.7205,-871.5 612.7205,-940.5 "/>
<text text-anchor="middle" x="647.7205" y="-919.8" font-family="Times,serif" font-size="14.00" fill="#000000">OUT</text>
<polyline fill="none" stroke="#000000" points="612.7205,-906.5 682.7205,-906.5 "/>
<text text-anchor="middle" x="647.7205" y="-885.3" font-family="Times,serif" font-size="14.00" fill="#000000">out_file</text>
</g>
<!-- enhance_and_skullstrip_dwi_wfskullstrip_first_pass&#45;&gt;enhance_and_skullstrip_dwi_wfskullstrip_first_dilate -->
<g id="edge17" class="edge">
<title>enhance_and_skullstrip_dwi_wfskullstrip_first_pass:e&#45;&gt;enhance_and_skullstrip_dwi_wfskullstrip_first_dilate:w</title>
<path fill="none" stroke="#000000" d="M409.7205,-1012C425.2761,-1012 414.6396,-991.7573 409.7205,-977 403.3959,-958.0263 389.045,-959.9737 382.7205,-941 376.8966,-923.5284 365.6788,-900.8817 373.0566,-892.4023"/>
<polygon fill="#000000" stroke="#000000" points="374.4503,-895.6223 382.7205,-889 372.1257,-889.0195 374.4503,-895.6223"/>
</g>
<!-- enhance_and_skullstrip_dwi_wfskullstrip_first_mask -->
<g id="node6" class="node">
<title>enhance_and_skullstrip_dwi_wfskullstrip_first_mask</title>
<polygon fill="none" stroke="#000000" points="355.2205,-765.5 355.2205,-834.5 678.2205,-834.5 678.2205,-765.5 355.2205,-765.5"/>
<text text-anchor="middle" x="397.7205" y="-819.3" font-family="Times,serif" font-size="14.00" fill="#000000">IN</text>
<polyline fill="none" stroke="#000000" points="355.2205,-811.5 440.2205,-811.5 "/>
<text text-anchor="middle" x="397.7205" y="-796.3" font-family="Times,serif" font-size="14.00" fill="#000000">in_file</text>
<polyline fill="none" stroke="#000000" points="355.2205,-788.5 440.2205,-788.5 "/>
<text text-anchor="middle" x="397.7205" y="-773.3" font-family="Times,serif" font-size="14.00" fill="#000000">mask_file</text>
<polyline fill="none" stroke="#000000" points="440.2205,-765.5 440.2205,-834.5 "/>
<text text-anchor="middle" x="524.2205" y="-819.3" font-family="Times,serif" font-size="14.00" fill="#000000">skullstrip_first_mask</text>
<polyline fill="none" stroke="#000000" points="440.2205,-811.5 608.2205,-811.5 "/>
<text text-anchor="middle" x="524.2205" y="-796.3" font-family="Times,serif" font-size="14.00" fill="#000000">fsl</text>
<polyline fill="none" stroke="#000000" points="440.2205,-788.5 608.2205,-788.5 "/>
<text text-anchor="middle" x="524.2205" y="-773.3" font-family="Times,serif" font-size="14.00" fill="#000000"> </text>
<polyline fill="none" stroke="#000000" points="608.2205,-765.5 608.2205,-834.5 "/>
<text text-anchor="middle" x="643.2205" y="-813.8" font-family="Times,serif" font-size="14.00" fill="#000000">OUT</text>
<polyline fill="none" stroke="#000000" points="608.2205,-800.5 678.2205,-800.5 "/>
<text text-anchor="middle" x="643.2205" y="-779.3" font-family="Times,serif" font-size="14.00" fill="#000000">out_file</text>
</g>
<!-- enhance_and_skullstrip_dwi_wfskullstrip_first_pass&#45;&gt;enhance_and_skullstrip_dwi_wfskullstrip_first_mask -->
<g id="edge18" class="edge">
<title>enhance_and_skullstrip_dwi_wfskullstrip_first_pass:e&#45;&gt;enhance_and_skullstrip_dwi_wfskullstrip_first_mask:w</title>
<path fill="none" stroke="#000000" d="M409.7205,-989C415.0538,-989 411.7615,-981.9274 409.7205,-977 401.0614,-956.095 384.1971,-961.056 373.7205,-941 360.9118,-916.4794 331.765,-826.9167 345.8591,-804.9092"/>
<polygon fill="#000000" stroke="#000000" points="347.6692,-807.9076 354.7205,-800 344.277,-801.7845 347.6692,-807.9076"/>
</g>
<!-- enhance_and_skullstrip_dwi_wfcombine_masks -->
<g id="node11" class="node">
<title>enhance_and_skullstrip_dwi_wfcombine_masks</title>
<polygon fill="none" stroke="#000000" points="316.7205,-235.5 316.7205,-304.5 622.7205,-304.5 622.7205,-235.5 316.7205,-235.5"/>
<text text-anchor="middle" x="369.2205" y="-289.3" font-family="Times,serif" font-size="14.00" fill="#000000">IN</text>
<polyline fill="none" stroke="#000000" points="316.7205,-281.5 421.7205,-281.5 "/>
<text text-anchor="middle" x="369.2205" y="-266.3" font-family="Times,serif" font-size="14.00" fill="#000000">in_file</text>
<polyline fill="none" stroke="#000000" points="316.7205,-258.5 421.7205,-258.5 "/>
<text text-anchor="middle" x="369.2205" y="-243.3" font-family="Times,serif" font-size="14.00" fill="#000000">operand_file</text>
<polyline fill="none" stroke="#000000" points="421.7205,-235.5 421.7205,-304.5 "/>
<text text-anchor="middle" x="487.2205" y="-289.3" font-family="Times,serif" font-size="14.00" fill="#000000">combine_masks</text>
<polyline fill="none" stroke="#000000" points="421.7205,-281.5 552.7205,-281.5 "/>
<text text-anchor="middle" x="487.2205" y="-266.3" font-family="Times,serif" font-size="14.00" fill="#000000">fsl</text>
<polyline fill="none" stroke="#000000" points="421.7205,-258.5 552.7205,-258.5 "/>
<text text-anchor="middle" x="487.2205" y="-243.3" font-family="Times,serif" font-size="14.00" fill="#000000"> </text>
<polyline fill="none" stroke="#000000" points="552.7205,-235.5 552.7205,-304.5 "/>
<text text-anchor="middle" x="587.7205" y="-283.8" font-family="Times,serif" font-size="14.00" fill="#000000">OUT</text>
<polyline fill="none" stroke="#000000" points="552.7205,-270.5 622.7205,-270.5 "/>
<text text-anchor="middle" x="587.7205" y="-249.3" font-family="Times,serif" font-size="14.00" fill="#000000">out_file</text>
</g>
<!-- enhance_and_skullstrip_dwi_wfskullstrip_first_pass&#45;&gt;enhance_and_skullstrip_dwi_wfcombine_masks -->
<g id="edge16" class="edge">
<title>enhance_and_skullstrip_dwi_wfskullstrip_first_pass:e&#45;&gt;enhance_and_skullstrip_dwi_wfcombine_masks:w</title>
<path fill="none" stroke="#000000" d="M409.7205,-1012C425.2761,-1012 417.6179,-990.4017 409.7205,-977 392.9546,-948.5487 364.1901,-967.674 344.7205,-941 307.0531,-889.3944 316.7205,-863.8903 316.7205,-800 316.7205,-800 316.7205,-800 316.7205,-482 316.7205,-471.7635 307.8235,-319.175 313.2277,-279.415"/>
<polygon fill="#000000" stroke="#000000" points="316.5237,-280.593 316.7205,-270 309.9608,-278.1582 316.5237,-280.593"/>
</g>
<!-- enhance_and_skullstrip_dwi_wfskullstrip_first_dilate&#45;&gt;enhance_and_skullstrip_dwi_wfskullstrip_first_mask -->
<g id="edge14" class="edge">
<title>enhance_and_skullstrip_dwi_wfskullstrip_first_dilate:e&#45;&gt;enhance_and_skullstrip_dwi_wfskullstrip_first_mask:w</title>
<path fill="none" stroke="#000000" d="M682.7205,-889C690.7205,-889 688.0599,-876.9575 682.7205,-871 633.7809,-816.395 403.6601,-889.605 354.7205,-835 340.2041,-818.8032 331.8326,-788.6475 345.055,-779.6193"/>
<polygon fill="#000000" stroke="#000000" points="345.9841,-782.9938 354.7205,-777 344.1531,-776.2375 345.9841,-782.9938"/>
</g>
<!-- enhance_and_skullstrip_dwi_wfunifize -->
<g id="node7" class="node">
<title>enhance_and_skullstrip_dwi_wfunifize</title>
<polygon fill="none" stroke="#000000" points="416.2205,-659.5 416.2205,-728.5 611.2205,-728.5 611.2205,-659.5 416.2205,-659.5"/>
<text text-anchor="middle" x="446.2205" y="-707.8" font-family="Times,serif" font-size="14.00" fill="#000000">IN</text>
<polyline fill="none" stroke="#000000" points="416.2205,-694.5 476.2205,-694.5 "/>
<text text-anchor="middle" x="446.2205" y="-673.3" font-family="Times,serif" font-size="14.00" fill="#000000">in_file</text>
<polyline fill="none" stroke="#000000" points="476.2205,-659.5 476.2205,-728.5 "/>
<text text-anchor="middle" x="508.7205" y="-713.3" font-family="Times,serif" font-size="14.00" fill="#000000">unifize</text>
<polyline fill="none" stroke="#000000" points="476.2205,-705.5 541.2205,-705.5 "/>
<text text-anchor="middle" x="508.7205" y="-690.3" font-family="Times,serif" font-size="14.00" fill="#000000">afni</text>
<polyline fill="none" stroke="#000000" points="476.2205,-682.5 541.2205,-682.5 "/>
<text text-anchor="middle" x="508.7205" y="-667.3" font-family="Times,serif" font-size="14.00" fill="#000000"> </text>
<polyline fill="none" stroke="#000000" points="541.2205,-659.5 541.2205,-728.5 "/>
<text text-anchor="middle" x="576.2205" y="-707.8" font-family="Times,serif" font-size="14.00" fill="#000000">OUT</text>
<polyline fill="none" stroke="#000000" points="541.2205,-694.5 611.2205,-694.5 "/>
<text text-anchor="middle" x="576.2205" y="-673.3" font-family="Times,serif" font-size="14.00" fill="#000000">out_file</text>
</g>
<!-- enhance_and_skullstrip_dwi_wfskullstrip_first_mask&#45;&gt;enhance_and_skullstrip_dwi_wfunifize -->
<g id="edge15" class="edge">
<title>enhance_and_skullstrip_dwi_wfskullstrip_first_mask:e&#45;&gt;enhance_and_skullstrip_dwi_wfunifize:w</title>
<path fill="none" stroke="#000000" d="M678.7205,-783C686.7205,-783 683.9798,-771.0282 678.7205,-765 601.1597,-676.0993 493.2813,-817.9007 415.7205,-729 403.257,-714.7143 395.6897,-688.8746 406.1299,-680.0497"/>
<polygon fill="#000000" stroke="#000000" points="407.2514,-683.3659 415.7205,-677 405.13,-676.695 407.2514,-683.3659"/>
</g>
<!-- enhance_and_skullstrip_dwi_wfunifize&#45;&gt;enhance_and_skullstrip_dwi_wffixhdr_unifize -->
<g id="edge20" class="edge">
<title>enhance_and_skullstrip_dwi_wfunifize:e&#45;&gt;enhance_and_skullstrip_dwi_wffixhdr_unifize:w</title>
<path fill="none" stroke="#000000" d="M611.7205,-677C619.7205,-677 616.4159,-665.4771 611.7205,-659 581.5288,-617.3516 531.9122,-664.6484 501.7205,-623 489.0731,-605.5533 479.5573,-576.7454 491.8333,-567.7624"/>
<polygon fill="#000000" stroke="#000000" points="493.0312,-571.0619 501.7205,-565 491.1475,-564.32 493.0312,-571.0619"/>
</g>
<!-- enhance_and_skullstrip_dwi_wfskullstrip_second_pass -->
<g id="node9" class="node">
<title>enhance_and_skullstrip_dwi_wfskullstrip_second_pass</title>
<polygon fill="none" stroke="#000000" points="445.7205,-447.5 445.7205,-516.5 757.7205,-516.5 757.7205,-447.5 445.7205,-447.5"/>
<text text-anchor="middle" x="475.7205" y="-495.8" font-family="Times,serif" font-size="14.00" fill="#000000">IN</text>
<polyline fill="none" stroke="#000000" points="445.7205,-482.5 505.7205,-482.5 "/>
<text text-anchor="middle" x="475.7205" y="-461.3" font-family="Times,serif" font-size="14.00" fill="#000000">in_file</text>
<polyline fill="none" stroke="#000000" points="505.7205,-447.5 505.7205,-516.5 "/>
<text text-anchor="middle" x="596.7205" y="-501.3" font-family="Times,serif" font-size="14.00" fill="#000000">skullstrip_second_pass</text>
<polyline fill="none" stroke="#000000" points="505.7205,-493.5 687.7205,-493.5 "/>
<text text-anchor="middle" x="596.7205" y="-478.3" font-family="Times,serif" font-size="14.00" fill="#000000">afni</text>
<polyline fill="none" stroke="#000000" points="505.7205,-470.5 687.7205,-470.5 "/>
<text text-anchor="middle" x="596.7205" y="-455.3" font-family="Times,serif" font-size="14.00" fill="#000000"> </text>
<polyline fill="none" stroke="#000000" points="687.7205,-447.5 687.7205,-516.5 "/>
<text text-anchor="middle" x="722.7205" y="-495.8" font-family="Times,serif" font-size="14.00" fill="#000000">OUT</text>
<polyline fill="none" stroke="#000000" points="687.7205,-482.5 757.7205,-482.5 "/>
<text text-anchor="middle" x="722.7205" y="-461.3" font-family="Times,serif" font-size="14.00" fill="#000000">out_file</text>
</g>
<!-- enhance_and_skullstrip_dwi_wffixhdr_unifize&#45;&gt;enhance_and_skullstrip_dwi_wfskullstrip_second_pass -->
<g id="edge5" class="edge">
<title>enhance_and_skullstrip_dwi_wffixhdr_unifize:e&#45;&gt;enhance_and_skullstrip_dwi_wfskullstrip_second_pass:w</title>
<path fill="none" stroke="#000000" d="M757.7205,-571C765.7205,-571 763.0433,-558.9723 757.7205,-553 664.8468,-448.7939 538.5942,-621.2061 445.7205,-517 433.1066,-502.847 425.6356,-476.9223 436.1153,-468.0626"/>
<polygon fill="#000000" stroke="#000000" points="437.2563,-471.3725 445.7205,-465 435.1298,-464.7033 437.2563,-471.3725"/>
</g>
<!-- enhance_and_skullstrip_dwi_wfskullstrip_second_pass&#45;&gt;enhance_and_skullstrip_dwi_wffixhdr_skullstrip2 -->
<g id="edge19" class="edge">
<title>enhance_and_skullstrip_dwi_wfskullstrip_second_pass:e&#45;&gt;enhance_and_skullstrip_dwi_wffixhdr_skullstrip2:w</title>
<path fill="none" stroke="#000000" d="M757.7205,-465C757.7205,-465 757.7205,-391.0625 757.7205,-363.3359"/>
<polygon fill="#000000" stroke="#000000" points="761.2206,-363 757.7205,-353 754.2206,-363 761.2206,-363"/>
</g>
<!-- enhance_and_skullstrip_dwi_wffixhdr_skullstrip2&#45;&gt;enhance_and_skullstrip_dwi_wfcombine_masks -->
<g id="edge4" class="edge">
<title>enhance_and_skullstrip_dwi_wffixhdr_skullstrip2:e&#45;&gt;enhance_and_skullstrip_dwi_wfcombine_masks:w</title>
<path fill="none" stroke="#000000" d="M1043.7205,-359C1051.7205,-359 1049.2357,-346.7951 1043.7205,-341 987.9641,-282.4144 372.4769,-363.5856 316.7205,-305 310.0563,-297.9976 306.1384,-268.8738 310.0335,-254.7496"/>
<polygon fill="#000000" stroke="#000000" points="312.8374,-256.8576 316.7205,-247 307.5376,-252.2845 312.8374,-256.8576"/>
</g>
<!-- enhance_and_skullstrip_dwi_wfcombine_masks&#45;&gt;enhance_and_skullstrip_dwi_wfapply_mask -->
<g id="edge2" class="edge">
<title>enhance_and_skullstrip_dwi_wfcombine_masks:e&#45;&gt;enhance_and_skullstrip_dwi_wfapply_mask:w</title>
<path fill="none" stroke="#000000" d="M622.7205,-253C630.7205,-253 628.0162,-240.9963 622.7205,-235 537.038,-137.982 419.403,-296.018 333.7205,-199 327.3215,-191.7545 323.271,-162.7522 327.0832,-148.704"/>
<polygon fill="#000000" stroke="#000000" points="329.845,-150.8606 333.7205,-141 324.5417,-146.2916 329.845,-150.8606"/>
</g>
<!-- enhance_and_skullstrip_dwi_wfcombine_masks&#45;&gt;enhance_and_skullstrip_dwi_wfoutputnode -->
<g id="edge3" class="edge">
<title>enhance_and_skullstrip_dwi_wfcombine_masks:e&#45;&gt;enhance_and_skullstrip_dwi_wfoutputnode:w</title>
<path fill="none" stroke="#000000" d="M622.7205,-253C717.6668,-253 501.0412,-51.2369 571.646,-35.4742"/>
<polygon fill="#000000" stroke="#000000" points="572.1038,-38.9463 581.7205,-34.5 571.43,-31.9788 572.1038,-38.9463"/>
</g>
<!-- enhance_and_skullstrip_dwi_wfapply_mask&#45;&gt;enhance_and_skullstrip_dwi_wfoutputnode -->
<g id="edge1" class="edge">
<title>enhance_and_skullstrip_dwi_wfapply_mask:e&#45;&gt;enhance_and_skullstrip_dwi_wfoutputnode:w</title>
<path fill="none" stroke="#000000" d="M581.7205,-147C581.7205,-147 581.7205,-53.1966 581.7205,-21.6845"/>
<polygon fill="#000000" stroke="#000000" points="585.2206,-21.5 581.7205,-11.5 578.2206,-21.5 585.2206,-21.5"/>
</g>
</g>
</svg>
