<?xml version="1.0" encoding="UTF-8" standalone="no"?>
<!DOCTYPE svg PUBLIC "-//W3C//DTD SVG 1.1//EN"
 "http://www.w3.org/Graphics/SVG/1.1/DTD/svg11.dtd">
<!-- Generated by graphviz version 2.40.1 (20161225.0304)
 -->
<!-- Title: structs Pages: 1 -->
<svg width="1388pt" height="511pt"
 viewBox="0.00 0.00 1387.50 511.00" xmlns="http://www.w3.org/2000/svg" xmlns:xlink="http://www.w3.org/1999/xlink">
<g id="graph0" class="graph" transform="scale(1 1) rotate(0) translate(4 507)">
<title>structs</title>
<polygon fill="#ffffff" stroke="transparent" points="-4,4 -4,-507 1383.5,-507 1383.5,4 -4,4"/>
<!-- early_b0ref_wfinputnode -->
<g id="node1" class="node">
<title>early_b0ref_wfinputnode</title>
<polygon fill="none" stroke="#000000" points="0,-410.5 0,-502.5 196,-502.5 196,-410.5 0,-410.5"/>
<text text-anchor="middle" x="17.5" y="-452.8" font-family="Times,serif" font-size="14.00" fill="#000000">IN</text>
<polyline fill="none" stroke="#000000" points="35,-410.5 35,-502.5 "/>
<text text-anchor="middle" x="79.5" y="-483.8" font-family="Times,serif" font-size="14.00" fill="#000000">inputnode</text>
<polyline fill="none" stroke="#000000" points="35,-472.5 124,-472.5 "/>
<text text-anchor="middle" x="79.5" y="-453.3" font-family="Times,serif" font-size="14.00" fill="#000000">utility</text>
<polyline fill="none" stroke="#000000" points="35,-441.5 124,-441.5 "/>
<text text-anchor="middle" x="79.5" y="-422.3" font-family="Times,serif" font-size="14.00" fill="#000000"> </text>
<polyline fill="none" stroke="#000000" points="124,-410.5 124,-502.5 "/>
<text text-anchor="middle" x="160" y="-487.3" font-family="Times,serif" font-size="14.00" fill="#000000">OUT</text>
<polyline fill="none" stroke="#000000" points="124,-479.5 196,-479.5 "/>
<text text-anchor="middle" x="160" y="-464.3" font-family="Times,serif" font-size="14.00" fill="#000000">dwi_file</text>
<polyline fill="none" stroke="#000000" points="124,-456.5 196,-456.5 "/>
<text text-anchor="middle" x="160" y="-441.3" font-family="Times,serif" font-size="14.00" fill="#000000">in_bval</text>
<polyline fill="none" stroke="#000000" points="124,-433.5 196,-433.5 "/>
<text text-anchor="middle" x="160" y="-418.3" font-family="Times,serif" font-size="14.00" fill="#000000">in_bvec</text>
</g>
<!-- early_b0ref_wfgradient_table -->
<g id="node2" class="node">
<title>early_b0ref_wfgradient_table</title>
<polygon fill="none" stroke="#000000" points="196,-281.5 196,-373.5 468,-373.5 468,-281.5 196,-281.5"/>
<text text-anchor="middle" x="232" y="-358.3" font-family="Times,serif" font-size="14.00" fill="#000000">IN</text>
<polyline fill="none" stroke="#000000" points="196,-350.5 268,-350.5 "/>
<text text-anchor="middle" x="232" y="-335.3" font-family="Times,serif" font-size="14.00" fill="#000000">dwi_file</text>
<polyline fill="none" stroke="#000000" points="196,-327.5 268,-327.5 "/>
<text text-anchor="middle" x="232" y="-312.3" font-family="Times,serif" font-size="14.00" fill="#000000">in_bval</text>
<polyline fill="none" stroke="#000000" points="196,-304.5 268,-304.5 "/>
<text text-anchor="middle" x="232" y="-289.3" font-family="Times,serif" font-size="14.00" fill="#000000">in_bvec</text>
<polyline fill="none" stroke="#000000" points="268,-281.5 268,-373.5 "/>
<text text-anchor="middle" x="328.5" y="-354.8" font-family="Times,serif" font-size="14.00" fill="#000000">gradient_table</text>
<polyline fill="none" stroke="#000000" points="268,-343.5 389,-343.5 "/>
<text text-anchor="middle" x="328.5" y="-324.3" font-family="Times,serif" font-size="14.00" fill="#000000">vectors</text>
<polyline fill="none" stroke="#000000" points="268,-312.5 389,-312.5 "/>
<text text-anchor="middle" x="328.5" y="-293.3" font-family="Times,serif" font-size="14.00" fill="#000000"> </text>
<polyline fill="none" stroke="#000000" points="389,-281.5 389,-373.5 "/>
<text text-anchor="middle" x="428.5" y="-354.8" font-family="Times,serif" font-size="14.00" fill="#000000">OUT</text>
<polyline fill="none" stroke="#000000" points="389,-343.5 468,-343.5 "/>
<text text-anchor="middle" x="428.5" y="-324.3" font-family="Times,serif" font-size="14.00" fill="#000000">b0_ixs</text>
<polyline fill="none" stroke="#000000" points="389,-312.5 468,-312.5 "/>
<text text-anchor="middle" x="428.5" y="-293.3" font-family="Times,serif" font-size="14.00" fill="#000000">out_rasb</text>
</g>
<!-- early_b0ref_wfinputnode&#45;&gt;early_b0ref_wfgradient_table -->
<g id="edge9" class="edge">
<title>early_b0ref_wfinputnode:e&#45;&gt;early_b0ref_wfgradient_table:w</title>
<path fill="none" stroke="#000000" d="M196,-468.5C249.0781,-468.5 154.7401,-357.9379 185.9361,-341.5263"/>
<polygon fill="#000000" stroke="#000000" points="186.8876,-344.905 196,-339.5 185.5059,-338.0427 186.8876,-344.905"/>
</g>
<!-- early_b0ref_wfinputnode&#45;&gt;early_b0ref_wfgradient_table -->
<g id="edge11" class="edge">
<title>early_b0ref_wfinputnode:e&#45;&gt;early_b0ref_wfgradient_table:w</title>
<path fill="none" stroke="#000000" d="M196,-444.5C249.0781,-444.5 154.7401,-333.9379 185.9361,-317.5263"/>
<polygon fill="#000000" stroke="#000000" points="186.8876,-320.905 196,-315.5 185.5059,-314.0427 186.8876,-320.905"/>
</g>
<!-- early_b0ref_wfinputnode&#45;&gt;early_b0ref_wfgradient_table -->
<g id="edge12" class="edge">
<title>early_b0ref_wfinputnode:e&#45;&gt;early_b0ref_wfgradient_table:w</title>
<path fill="none" stroke="#000000" d="M196,-421.5C196,-421.5 196,-333.033 196,-302.6224"/>
<polygon fill="#000000" stroke="#000000" points="199.5001,-302.5 196,-292.5 192.5001,-302.5 199.5001,-302.5"/>
</g>
<!-- early_b0ref_wfdwi_reference_wf -->
<g id="node3" class="node">
<title>early_b0ref_wfdwi_reference_wf</title>
<polygon fill="none" stroke="#000000" points="482,-152.5 482,-244.5 1000,-244.5 1000,-152.5 482,-152.5"/>
<text text-anchor="middle" x="556.5" y="-225.8" font-family="Times,serif" font-size="14.00" fill="#000000">IN</text>
<polyline fill="none" stroke="#000000" points="482,-214.5 631,-214.5 "/>
<text text-anchor="middle" x="556.5" y="-195.3" font-family="Times,serif" font-size="14.00" fill="#000000">inputnode.b0_ixs</text>
<polyline fill="none" stroke="#000000" points="482,-183.5 631,-183.5 "/>
<text text-anchor="middle" x="556.5" y="-164.3" font-family="Times,serif" font-size="14.00" fill="#000000">inputnode.dwi_file</text>
<polyline fill="none" stroke="#000000" points="631,-152.5 631,-244.5 "/>
<text text-anchor="middle" x="702.5" y="-225.8" font-family="Times,serif" font-size="14.00" fill="#000000">dwi_reference_wf</text>
<polyline fill="none" stroke="#000000" points="631,-214.5 774,-214.5 "/>
<text text-anchor="middle" x="702.5" y="-195.3" font-family="Times,serif" font-size="14.00" fill="#000000"> </text>
<polyline fill="none" stroke="#000000" points="631,-183.5 774,-183.5 "/>
<text text-anchor="middle" x="702.5" y="-164.3" font-family="Times,serif" font-size="14.00" fill="#000000"> </text>
<polyline fill="none" stroke="#000000" points="774,-152.5 774,-244.5 "/>
<text text-anchor="middle" x="887" y="-229.3" font-family="Times,serif" font-size="14.00" fill="#000000">OUT</text>
<polyline fill="none" stroke="#000000" points="774,-221.5 1000,-221.5 "/>
<text text-anchor="middle" x="887" y="-206.3" font-family="Times,serif" font-size="14.00" fill="#000000">outputnode.dwi_mask</text>
<polyline fill="none" stroke="#000000" points="774,-198.5 1000,-198.5 "/>
<text text-anchor="middle" x="887" y="-183.3" font-family="Times,serif" font-size="14.00" fill="#000000">outputnode.ref_image</text>
<polyline fill="none" stroke="#000000" points="774,-175.5 1000,-175.5 "/>
<text text-anchor="middle" x="887" y="-160.3" font-family="Times,serif" font-size="14.00" fill="#000000">outputnode.validation_report</text>
</g>
<!-- early_b0ref_wfinputnode&#45;&gt;early_b0ref_wfdwi_reference_wf -->
<g id="edge8" class="edge">
<title>early_b0ref_wfinputnode:e&#45;&gt;early_b0ref_wfdwi_reference_wf:w</title>
<path fill="none" stroke="#000000" d="M196,-468.5C261.881,-468.5 437.9053,-427.0275 477,-374 479.946,-370.0041 477.2417,-218.3308 480.1759,-177.5226"/>
<polygon fill="#000000" stroke="#000000" points="483.6528,-177.9651 482,-167.5 476.7659,-176.7117 483.6528,-177.9651"/>
</g>
<!-- early_b0ref_wfreportlets_wf -->
<g id="node4" class="node">
<title>early_b0ref_wfreportlets_wf</title>
<polygon fill="none" stroke="#000000" points="1000.5,-.5 1000.5,-115.5 1379.5,-115.5 1379.5,-.5 1000.5,-.5"/>
<text text-anchor="middle" x="1108.5" y="-100.3" font-family="Times,serif" font-size="14.00" fill="#000000">IN</text>
<polyline fill="none" stroke="#000000" points="1000.5,-92.5 1216.5,-92.5 "/>
<text text-anchor="middle" x="1108.5" y="-77.3" font-family="Times,serif" font-size="14.00" fill="#000000">inputnode.dwi_mask</text>
<polyline fill="none" stroke="#000000" points="1000.5,-69.5 1216.5,-69.5 "/>
<text text-anchor="middle" x="1108.5" y="-54.3" font-family="Times,serif" font-size="14.00" fill="#000000">inputnode.dwi_ref</text>
<polyline fill="none" stroke="#000000" points="1000.5,-46.5 1216.5,-46.5 "/>
<text text-anchor="middle" x="1108.5" y="-31.3" font-family="Times,serif" font-size="14.00" fill="#000000">inputnode.source_file</text>
<polyline fill="none" stroke="#000000" points="1000.5,-23.5 1216.5,-23.5 "/>
<text text-anchor="middle" x="1108.5" y="-8.3" font-family="Times,serif" font-size="14.00" fill="#000000">inputnode.validation_report</text>
<polyline fill="none" stroke="#000000" points="1216.5,-.5 1216.5,-115.5 "/>
<text text-anchor="middle" x="1273" y="-92.8" font-family="Times,serif" font-size="14.00" fill="#000000">reportlets_wf</text>
<polyline fill="none" stroke="#000000" points="1216.5,-77.5 1329.5,-77.5 "/>
<text text-anchor="middle" x="1273" y="-54.8" font-family="Times,serif" font-size="14.00" fill="#000000"> </text>
<polyline fill="none" stroke="#000000" points="1216.5,-39.5 1329.5,-39.5 "/>
<text text-anchor="middle" x="1273" y="-16.3" font-family="Times,serif" font-size="14.00" fill="#000000"> </text>
<polyline fill="none" stroke="#000000" points="1329.5,-.5 1329.5,-115.5 "/>
<text text-anchor="middle" x="1354.5" y="-54.3" font-family="Times,serif" font-size="14.00" fill="#000000">OUT</text>
</g>
<!-- early_b0ref_wfinputnode&#45;&gt;early_b0ref_wfreportlets_wf -->
<g id="edge10" class="edge">
<title>early_b0ref_wfinputnode:e&#45;&gt;early_b0ref_wfreportlets_wf:w</title>
<path fill="none" stroke="#000000" d="M196,-468.5C383.3692,-468.5 895.4192,-394.0188 1009,-245 1034.0557,-212.1267 1014.0502,-193.0236 1009,-152 1006.9849,-135.6311 1002.0151,-132.3689 1000,-116 999.1495,-109.0912 994.2308,-64.4148 996.2097,-44.5254"/>
<polygon fill="#000000" stroke="#000000" points="999.5548,-45.5855 1000,-35 993.0507,-42.9974 999.5548,-45.5855"/>
</g>
<!-- early_b0ref_wfgradient_table&#45;&gt;early_b0ref_wfdwi_reference_wf -->
<g id="edge6" class="edge">
<title>early_b0ref_wfgradient_table:e&#45;&gt;early_b0ref_wfdwi_reference_wf:w</title>
<path fill="none" stroke="#000000" d="M468,-328.5C493.0053,-328.5 463.4859,-231.4902 474.0081,-205.7219"/>
<polygon fill="#000000" stroke="#000000" points="476.2594,-208.4049 482,-199.5 471.9592,-202.8814 476.2594,-208.4049"/>
</g>
<!-- early_b0ref_wfoutputnode -->
<g id="node5" class="node">
<title>early_b0ref_wfoutputnode</title>
<polygon fill="none" stroke="#000000" points="715.5,-12 715.5,-104 982.5,-104 982.5,-12 715.5,-12"/>
<text text-anchor="middle" x="775" y="-88.8" font-family="Times,serif" font-size="14.00" fill="#000000">IN</text>
<polyline fill="none" stroke="#000000" points="715.5,-81 834.5,-81 "/>
<text text-anchor="middle" x="775" y="-65.8" font-family="Times,serif" font-size="14.00" fill="#000000">dwi_mask</text>
<polyline fill="none" stroke="#000000" points="715.5,-58 834.5,-58 "/>
<text text-anchor="middle" x="775" y="-42.8" font-family="Times,serif" font-size="14.00" fill="#000000">dwi_reference</text>
<polyline fill="none" stroke="#000000" points="715.5,-35 834.5,-35 "/>
<text text-anchor="middle" x="775" y="-19.8" font-family="Times,serif" font-size="14.00" fill="#000000">out_rasb</text>
<polyline fill="none" stroke="#000000" points="834.5,-12 834.5,-104 "/>
<text text-anchor="middle" x="883.5" y="-85.3" font-family="Times,serif" font-size="14.00" fill="#000000">outputnode</text>
<polyline fill="none" stroke="#000000" points="834.5,-74 932.5,-74 "/>
<text text-anchor="middle" x="883.5" y="-54.8" font-family="Times,serif" font-size="14.00" fill="#000000">utility</text>
<polyline fill="none" stroke="#000000" points="834.5,-43 932.5,-43 "/>
<text text-anchor="middle" x="883.5" y="-23.8" font-family="Times,serif" font-size="14.00" fill="#000000"> </text>
<polyline fill="none" stroke="#000000" points="932.5,-12 932.5,-104 "/>
<text text-anchor="middle" x="957.5" y="-54.3" font-family="Times,serif" font-size="14.00" fill="#000000">OUT</text>
</g>
<!-- early_b0ref_wfgradient_table&#45;&gt;early_b0ref_wfoutputnode -->
<g id="edge7" class="edge">
<title>early_b0ref_wfgradient_table:e&#45;&gt;early_b0ref_wfoutputnode:w</title>
<path fill="none" stroke="#000000" d="M468,-296.5C476.0326,-296.5 468.748,-158.8149 473,-152 535.6899,-51.5222 589.9612,-24.5121 704.8025,-23.0628"/>
<polygon fill="#000000" stroke="#000000" points="705.0218,-26.5616 715,-23 704.9786,-19.5617 705.0218,-26.5616"/>
</g>
<!-- early_b0ref_wfdwi_reference_wf&#45;&gt;early_b0ref_wfreportlets_wf -->
<g id="edge2" class="edge">
<title>early_b0ref_wfdwi_reference_wf:e&#45;&gt;early_b0ref_wfreportlets_wf:w</title>
<path fill="none" stroke="#000000" d="M1000,-210.5C1012.0282,-210.5 993.8919,-120.0065 996.0224,-90.3133"/>
<polygon fill="#000000" stroke="#000000" points="999.291,-91.5711 1000,-81 992.8536,-88.8217 999.291,-91.5711"/>
</g>
<!-- early_b0ref_wfdwi_reference_wf&#45;&gt;early_b0ref_wfreportlets_wf -->
<g id="edge4" class="edge">
<title>early_b0ref_wfdwi_reference_wf:e&#45;&gt;early_b0ref_wfreportlets_wf:w</title>
<path fill="none" stroke="#000000" d="M1000,-186.5C1011.9353,-186.5 993.9391,-96.7053 996.0531,-67.2414"/>
<polygon fill="#000000" stroke="#000000" points="999.291,-68.5711 1000,-58 992.8535,-65.8217 999.291,-68.5711"/>
</g>
<!-- early_b0ref_wfdwi_reference_wf&#45;&gt;early_b0ref_wfreportlets_wf -->
<g id="edge5" class="edge">
<title>early_b0ref_wfdwi_reference_wf:e&#45;&gt;early_b0ref_wfreportlets_wf:w</title>
<path fill="none" stroke="#000000" d="M1000,-163.5C1000,-163.5 1000,-56.6414 1000,-22.4132"/>
<polygon fill="#000000" stroke="#000000" points="1003.5001,-22 1000,-12 996.5001,-22 1003.5001,-22"/>
</g>
<!-- early_b0ref_wfdwi_reference_wf&#45;&gt;early_b0ref_wfoutputnode -->
<g id="edge1" class="edge">
<title>early_b0ref_wfdwi_reference_wf:e&#45;&gt;early_b0ref_wfoutputnode:w</title>
<path fill="none" stroke="#000000" d="M1000,-210.5C1013,-210.5 1008.4029,-161.9193 1000,-152 916.9965,-54.0176 798.0035,-202.4824 715,-104.5 708.0313,-96.2737 703.2818,-82.5594 706.406,-75.1415"/>
<polygon fill="#000000" stroke="#000000" points="708.2154,-78.1376 715,-70 704.6216,-72.1305 708.2154,-78.1376"/>
</g>
<!-- early_b0ref_wfdwi_reference_wf&#45;&gt;early_b0ref_wfoutputnode -->
<g id="edge3" class="edge">
<title>early_b0ref_wfdwi_reference_wf:e&#45;&gt;early_b0ref_wfoutputnode:w</title>
<path fill="none" stroke="#000000" d="M1000,-186.5C1015.3333,-186.5 1009.9111,-163.6996 1000,-152 916.9965,-54.0176 798.0035,-202.4824 715,-104.5 700.8202,-87.7612 692.059,-57.6222 705.285,-48.6124"/>
<polygon fill="#000000" stroke="#000000" points="706.2519,-51.9768 715,-46 704.4341,-45.2169 706.2519,-51.9768"/>
</g>
</g>
</svg>
