<?xml version="1.0" encoding="UTF-8" standalone="no"?>
<!DOCTYPE svg PUBLIC "-//W3C//DTD SVG 1.1//EN"
 "http://www.w3.org/Graphics/SVG/1.1/DTD/svg11.dtd">
<!-- Generated by graphviz version 2.40.1 (20161225.0304)
 -->
<!-- Title: %3 Pages: 1 -->
<svg width="877pt" height="260pt"
 viewBox="0.00 0.00 877.21 260.00" xmlns="http://www.w3.org/2000/svg" xmlns:xlink="http://www.w3.org/1999/xlink">
<g id="graph0" class="graph" transform="scale(1 1) rotate(0) translate(4 256)">
<title>%3</title>
<polygon fill="#ffffff" stroke="transparent" points="-4,4 -4,-256 873.2077,-256 873.2077,4 -4,4"/>
<!-- fsinputnode (utility) -->
<g id="node1" class="node">
<title>fsinputnode (utility)</title>
<ellipse fill="none" stroke="#000000" cx="129.5179" cy="-162" rx="103.1819" ry="18"/>
<text text-anchor="middle" x="129.5179" y="-158.3" font-family="Times,serif" font-size="14.00" fill="#000000">fsinputnode (utility)</text>
</g>
<!-- anat_preproc_wf -->
<g id="node2" class="node">
<title>anat_preproc_wf</title>
<ellipse fill="none" stroke="#000000" cx="127.5179" cy="-90" rx="89.0842" ry="18"/>
<text text-anchor="middle" x="127.5179" y="-86.3" font-family="Times,serif" font-size="14.00" fill="#000000">anat_preproc_wf</text>
</g>
<!-- fsinputnode (utility)&#45;&gt;anat_preproc_wf -->
<g id="edge1" class="edge">
<title>fsinputnode (utility)&#45;&gt;anat_preproc_wf</title>
<path fill="none" stroke="#000000" d="M129.0132,-143.8314C128.7993,-136.131 128.545,-126.9743 128.3073,-118.4166"/>
<polygon fill="#000000" stroke="#000000" points="131.8058,-118.3122 128.0294,-108.4133 124.8085,-118.5066 131.8058,-118.3122"/>
</g>
<!-- summary (reports) -->
<g id="node3" class="node">
<title>summary (reports)</title>
<ellipse fill="none" stroke="#000000" cx="332.5179" cy="-90" rx="98.2828" ry="18"/>
<text text-anchor="middle" x="332.5179" y="-86.3" font-family="Times,serif" font-size="14.00" fill="#000000">summary (reports)</text>
</g>
<!-- fsinputnode (utility)&#45;&gt;summary (reports) -->
<g id="edge2" class="edge">
<title>fsinputnode (utility)&#45;&gt;summary (reports)</title>
<path fill="none" stroke="#000000" d="M175.0751,-145.8418C205.3733,-135.0956 245.343,-120.9192 277.428,-109.5393"/>
<polygon fill="#000000" stroke="#000000" points="278.858,-112.7458 287.1128,-106.1043 276.5181,-106.1484 278.858,-112.7458"/>
</g>
<!-- ds_report_summary -->
<g id="node6" class="node">
<title>ds_report_summary</title>
<ellipse fill="none" stroke="#000000" cx="146.5179" cy="-18" rx="103.9815" ry="18"/>
<text text-anchor="middle" x="146.5179" y="-14.3" font-family="Times,serif" font-size="14.00" fill="#000000">ds_report_summary</text>
</g>
<!-- summary (reports)&#45;&gt;ds_report_summary -->
<g id="edge3" class="edge">
<title>summary (reports)&#45;&gt;ds_report_summary</title>
<path fill="none" stroke="#000000" d="M290.3116,-73.6621C263.1558,-63.1501 227.665,-49.4118 198.7379,-38.2142"/>
<polygon fill="#000000" stroke="#000000" points="199.7902,-34.8685 189.201,-34.5225 197.2632,-41.3965 199.7902,-34.8685"/>
</g>
<!-- bidssrc -->
<g id="node4" class="node">
<title>bidssrc</title>
<ellipse fill="none" stroke="#000000" cx="332.5179" cy="-234" rx="44.6926" ry="18"/>
<text text-anchor="middle" x="332.5179" y="-230.3" font-family="Times,serif" font-size="14.00" fill="#000000">bidssrc</text>
</g>
<!-- bidssrc&#45;&gt;anat_preproc_wf -->
<g id="edge6" class="edge">
<title>bidssrc&#45;&gt;anat_preproc_wf</title>
<path fill="none" stroke="#000000" d="M288.7725,-229.6187C206.3754,-220.9237 34.8422,-200.5468 17.5179,-180 7.2042,-167.7678 9.0566,-157.5796 17.5179,-144 27.6276,-127.775 44.1931,-116.287 61.4367,-108.2096"/>
<polygon fill="#000000" stroke="#000000" points="63.2527,-111.2381 71.0496,-104.0646 60.481,-104.8102 63.2527,-111.2381"/>
</g>
<!-- bidssrc&#45;&gt;summary (reports) -->
<g id="edge5" class="edge">
<title>bidssrc&#45;&gt;summary (reports)</title>
<path fill="none" stroke="#000000" d="M367.9013,-222.9073C388.0601,-214.5632 411.6099,-200.9131 423.5179,-180 431.4349,-166.096 431.4349,-157.904 423.5179,-144 415.388,-129.722 401.8315,-118.8294 387.6326,-110.6995"/>
<polygon fill="#000000" stroke="#000000" points="389.2258,-107.5827 378.7515,-105.989 385.9458,-113.7667 389.2258,-107.5827"/>
</g>
<!-- bids_info (bids) -->
<g id="node5" class="node">
<title>bids_info (bids)</title>
<ellipse fill="none" stroke="#000000" cx="332.5179" cy="-162" rx="81.7856" ry="18"/>
<text text-anchor="middle" x="332.5179" y="-158.3" font-family="Times,serif" font-size="14.00" fill="#000000">bids_info (bids)</text>
</g>
<!-- bidssrc&#45;&gt;bids_info (bids) -->
<g id="edge4" class="edge">
<title>bidssrc&#45;&gt;bids_info (bids)</title>
<path fill="none" stroke="#000000" d="M332.5179,-215.8314C332.5179,-208.131 332.5179,-198.9743 332.5179,-190.4166"/>
<polygon fill="#000000" stroke="#000000" points="336.018,-190.4132 332.5179,-180.4133 329.018,-190.4133 336.018,-190.4132"/>
</g>
<!-- bidssrc&#45;&gt;ds_report_summary -->
<g id="edge7" class="edge">
<title>bidssrc&#45;&gt;ds_report_summary</title>
<path fill="none" stroke="#000000" d="M288.5652,-229.8641C203.8277,-221.4452 24.5826,-201.3031 6.5179,-180 -14.1509,-155.6258 21.6577,-80.8936 29.5179,-72 43.1424,-56.5843 62.0766,-45.2756 80.7476,-37.1126"/>
<polygon fill="#000000" stroke="#000000" points="82.2451,-40.2813 90.1616,-33.2399 79.5819,-33.8076 82.2451,-40.2813"/>
</g>
<!-- ds_report_about -->
<g id="node7" class="node">
<title>ds_report_about</title>
<ellipse fill="none" stroke="#000000" cx="557.5179" cy="-162" rx="87.1846" ry="18"/>
<text text-anchor="middle" x="557.5179" y="-158.3" font-family="Times,serif" font-size="14.00" fill="#000000">ds_report_about</text>
</g>
<!-- bidssrc&#45;&gt;ds_report_about -->
<g id="edge8" class="edge">
<title>bidssrc&#45;&gt;ds_report_about</title>
<path fill="none" stroke="#000000" d="M367.6742,-222.75C403.1453,-211.3992 458.4992,-193.686 500.301,-180.3094"/>
<polygon fill="#000000" stroke="#000000" points="501.6186,-183.5627 510.0761,-177.1814 499.4852,-176.8957 501.6186,-183.5627"/>
</g>
<!-- bids_info (bids)&#45;&gt;anat_preproc_wf -->
<g id="edge10" class="edge">
<title>bids_info (bids)&#45;&gt;anat_preproc_wf</title>
<path fill="none" stroke="#000000" d="M289.0427,-146.7307C257.7,-135.7225 215.1877,-120.7913 181.644,-109.0101"/>
<polygon fill="#000000" stroke="#000000" points="182.5868,-105.6317 171.992,-105.6202 180.2671,-112.2362 182.5868,-105.6317"/>
</g>
<!-- bids_info (bids)&#45;&gt;summary (reports) -->
<g id="edge9" class="edge">
<title>bids_info (bids)&#45;&gt;summary (reports)</title>
<path fill="none" stroke="#000000" d="M332.5179,-143.8314C332.5179,-136.131 332.5179,-126.9743 332.5179,-118.4166"/>
<polygon fill="#000000" stroke="#000000" points="336.018,-118.4132 332.5179,-108.4133 329.018,-118.4133 336.018,-118.4132"/>
</g>
<!-- about (reports) -->
<g id="node8" class="node">
<title>about (reports)</title>
<ellipse fill="none" stroke="#000000" cx="557.5179" cy="-234" rx="81.4863" ry="18"/>
<text text-anchor="middle" x="557.5179" y="-230.3" font-family="Times,serif" font-size="14.00" fill="#000000">about (reports)</text>
</g>
<!-- about (reports)&#45;&gt;ds_report_about -->
<g id="edge11" class="edge">
<title>about (reports)&#45;&gt;ds_report_about</title>
<path fill="none" stroke="#000000" d="M557.5179,-215.8314C557.5179,-208.131 557.5179,-198.9743 557.5179,-190.4166"/>
<polygon fill="#000000" stroke="#000000" points="561.018,-190.4132 557.5179,-180.4133 554.018,-190.4133 561.018,-190.4132"/>
</g>
<!-- inputnode (utility) -->
<g id="node9" class="node">
<title>inputnode (utility)</title>
<ellipse fill="none" stroke="#000000" cx="753.5179" cy="-234" rx="94.7833" ry="18"/>
<text text-anchor="middle" x="753.5179" y="-230.3" font-family="Times,serif" font-size="14.00" fill="#000000">inputnode (utility)</text>
</g>
<!-- split_info (utility) -->
<g id="node10" class="node">
<title>split_info (utility)</title>
<ellipse fill="none" stroke="#000000" cx="753.5179" cy="-162" rx="90.9839" ry="18"/>
<text text-anchor="middle" x="753.5179" y="-158.3" font-family="Times,serif" font-size="14.00" fill="#000000">split_info (utility)</text>
</g>
<!-- inputnode (utility)&#45;&gt;split_info (utility) -->
<g id="edge12" class="edge">
<title>inputnode (utility)&#45;&gt;split_info (utility)</title>
<path fill="none" stroke="#000000" d="M753.5179,-215.8314C753.5179,-208.131 753.5179,-198.9743 753.5179,-190.4166"/>
<polygon fill="#000000" stroke="#000000" points="757.018,-190.4132 753.5179,-180.4133 750.018,-190.4133 757.018,-190.4132"/>
</g>
<!-- early_b0ref_wf -->
<g id="node11" class="node">
<title>early_b0ref_wf</title>
<ellipse fill="none" stroke="#000000" cx="699.5179" cy="-90" rx="79.8859" ry="18"/>
<text text-anchor="middle" x="699.5179" y="-86.3" font-family="Times,serif" font-size="14.00" fill="#000000">early_b0ref_wf</text>
</g>
<!-- split_info (utility)&#45;&gt;early_b0ref_wf -->
<g id="edge13" class="edge">
<title>split_info (utility)&#45;&gt;early_b0ref_wf</title>
<path fill="none" stroke="#000000" d="M739.8914,-143.8314C733.5762,-135.411 725.955,-125.2495 719.0433,-116.0338"/>
<polygon fill="#000000" stroke="#000000" points="721.753,-113.8134 712.953,-107.9134 716.153,-118.0134 721.753,-113.8134"/>
</g>
<!-- referencenode (utility) -->
<g id="node12" class="node">
<title>referencenode (utility)</title>
<ellipse fill="none" stroke="#000000" cx="753.5179" cy="-18" rx="115.8798" ry="18"/>
<text text-anchor="middle" x="753.5179" y="-14.3" font-family="Times,serif" font-size="14.00" fill="#000000">referencenode (utility)</text>
</g>
<!-- split_info (utility)&#45;&gt;referencenode (utility) -->
<g id="edge14" class="edge">
<title>split_info (utility)&#45;&gt;referencenode (utility)</title>
<path fill="none" stroke="#000000" d="M769.0704,-143.8462C776.5225,-133.947 784.6526,-121.0702 788.5179,-108 793.0554,-92.6569 793.0554,-87.3431 788.5179,-72 785.6492,-62.2994 780.4312,-52.7055 774.8846,-44.3563"/>
<polygon fill="#000000" stroke="#000000" points="777.7088,-42.2881 769.0704,-36.1538 771.998,-46.3362 777.7088,-42.2881"/>
</g>
<!-- early_b0ref_wf&#45;&gt;referencenode (utility) -->
<g id="edge15" class="edge">
<title>early_b0ref_wf&#45;&gt;referencenode (utility)</title>
<path fill="none" stroke="#000000" d="M712.8662,-72.2022C719.1791,-63.7851 726.8431,-53.5665 733.8076,-44.2805"/>
<polygon fill="#000000" stroke="#000000" points="736.7481,-46.1932 739.9481,-36.0931 731.148,-41.9931 736.7481,-46.1932"/>
</g>
</g>
</svg>
