<?xml version="1.0" encoding="UTF-8" standalone="no"?>
<!DOCTYPE svg PUBLIC "-//W3C//DTD SVG 1.1//EN"
 "http://www.w3.org/Graphics/SVG/1.1/DTD/svg11.dtd">
<!-- Generated by graphviz version 2.40.1 (20161225.0304)
 -->
<!-- Title: structs Pages: 1 -->
<svg width="1650pt" height="778pt"
 viewBox="0.00 0.00 1650.05 778.00" xmlns="http://www.w3.org/2000/svg" xmlns:xlink="http://www.w3.org/1999/xlink">
<g id="graph0" class="graph" transform="scale(1 1) rotate(0) translate(4 774)">
<title>structs</title>
<polygon fill="#ffffff" stroke="transparent" points="-4,4 -4,-774 1646.05,-774 1646.05,4 -4,4"/>
<!-- dwi_preproc_wfinputnode -->
<g id="node1" class="node">
<title>dwi_preproc_wfinputnode</title>
<polygon fill="none" stroke="#000000" points="106.55,-562.5 106.55,-769.5 374.55,-769.5 374.55,-562.5 106.55,-562.5"/>
<text text-anchor="middle" x="124.05" y="-662.3" font-family="Times,serif" font-size="14.00" fill="#000000">IN</text>
<polyline fill="none" stroke="#000000" points="141.55,-562.5 141.55,-769.5 "/>
<text text-anchor="middle" x="186.05" y="-731.3" font-family="Times,serif" font-size="14.00" fill="#000000">inputnode</text>
<polyline fill="none" stroke="#000000" points="141.55,-700.5 230.55,-700.5 "/>
<text text-anchor="middle" x="186.05" y="-662.3" font-family="Times,serif" font-size="14.00" fill="#000000">utility</text>
<polyline fill="none" stroke="#000000" points="141.55,-631.5 230.55,-631.5 "/>
<text text-anchor="middle" x="186.05" y="-593.3" font-family="Times,serif" font-size="14.00" fill="#000000"> </text>
<polyline fill="none" stroke="#000000" points="230.55,-562.5 230.55,-769.5 "/>
<text text-anchor="middle" x="302.55" y="-754.3" font-family="Times,serif" font-size="14.00" fill="#000000">OUT</text>
<polyline fill="none" stroke="#000000" points="230.55,-746.5 374.55,-746.5 "/>
<text text-anchor="middle" x="302.55" y="-731.3" font-family="Times,serif" font-size="14.00" fill="#000000">dwi_file</text>
<polyline fill="none" stroke="#000000" points="230.55,-723.5 374.55,-723.5 "/>
<text text-anchor="middle" x="302.55" y="-708.3" font-family="Times,serif" font-size="14.00" fill="#000000">fsnative2t1w_xfm</text>
<polyline fill="none" stroke="#000000" points="230.55,-700.5 374.55,-700.5 "/>
<text text-anchor="middle" x="302.55" y="-685.3" font-family="Times,serif" font-size="14.00" fill="#000000">in_bval</text>
<polyline fill="none" stroke="#000000" points="230.55,-677.5 374.55,-677.5 "/>
<text text-anchor="middle" x="302.55" y="-662.3" font-family="Times,serif" font-size="14.00" fill="#000000">in_bvec</text>
<polyline fill="none" stroke="#000000" points="230.55,-654.5 374.55,-654.5 "/>
<text text-anchor="middle" x="302.55" y="-639.3" font-family="Times,serif" font-size="14.00" fill="#000000">subject_id</text>
<polyline fill="none" stroke="#000000" points="230.55,-631.5 374.55,-631.5 "/>
<text text-anchor="middle" x="302.55" y="-616.3" font-family="Times,serif" font-size="14.00" fill="#000000">subjects_dir</text>
<polyline fill="none" stroke="#000000" points="230.55,-608.5 374.55,-608.5 "/>
<text text-anchor="middle" x="302.55" y="-593.3" font-family="Times,serif" font-size="14.00" fill="#000000">t1w_mask</text>
<polyline fill="none" stroke="#000000" points="230.55,-585.5 374.55,-585.5 "/>
<text text-anchor="middle" x="302.55" y="-570.3" font-family="Times,serif" font-size="14.00" fill="#000000">t1w_preproc</text>
</g>
<!-- dwi_preproc_wft1w_brain -->
<g id="node2" class="node">
<title>dwi_preproc_wft1w_brain</title>
<polygon fill="none" stroke="#000000" points="17.05,-445 17.05,-514 232.05,-514 232.05,-445 17.05,-445"/>
<text text-anchor="middle" x="55.05" y="-498.8" font-family="Times,serif" font-size="14.00" fill="#000000">IN</text>
<polyline fill="none" stroke="#000000" points="17.05,-491 93.05,-491 "/>
<text text-anchor="middle" x="55.05" y="-475.8" font-family="Times,serif" font-size="14.00" fill="#000000">in_file</text>
<polyline fill="none" stroke="#000000" points="17.05,-468 93.05,-468 "/>
<text text-anchor="middle" x="55.05" y="-452.8" font-family="Times,serif" font-size="14.00" fill="#000000">in_mask</text>
<polyline fill="none" stroke="#000000" points="93.05,-445 93.05,-514 "/>
<text text-anchor="middle" x="137.55" y="-498.8" font-family="Times,serif" font-size="14.00" fill="#000000">t1w_brain</text>
<polyline fill="none" stroke="#000000" points="93.05,-491 182.05,-491 "/>
<text text-anchor="middle" x="137.55" y="-475.8" font-family="Times,serif" font-size="14.00" fill="#000000">nibabel</text>
<polyline fill="none" stroke="#000000" points="93.05,-468 182.05,-468 "/>
<text text-anchor="middle" x="137.55" y="-452.8" font-family="Times,serif" font-size="14.00" fill="#000000"> </text>
<polyline fill="none" stroke="#000000" points="182.05,-445 182.05,-514 "/>
<text text-anchor="middle" x="207.05" y="-475.8" font-family="Times,serif" font-size="14.00" fill="#000000">OUT</text>
</g>
<!-- dwi_preproc_wfinputnode&#45;&gt;dwi_preproc_wft1w_brain -->
<g id="edge18" class="edge">
<title>dwi_preproc_wfinputnode:e&#45;&gt;dwi_preproc_wft1w_brain:w</title>
<path fill="none" stroke="#000000" d="M374.55,-597C390.1056,-597 384.8006,-573.7005 374.55,-562 321.6662,-501.636 69.4338,-574.864 16.55,-514.5 2.3502,-498.2917 -6.1226,-468.6517 6.5375,-459.3624"/>
<polygon fill="#000000" stroke="#000000" points="7.8973,-462.614 16.55,-456.5 5.9731,-455.8836 7.8973,-462.614"/>
</g>
<!-- dwi_preproc_wfinputnode&#45;&gt;dwi_preproc_wft1w_brain -->
<g id="edge19" class="edge">
<title>dwi_preproc_wfinputnode:e&#45;&gt;dwi_preproc_wft1w_brain:w</title>
<path fill="none" stroke="#000000" d="M374.55,-574C379.8833,-574 378.0645,-566.0116 374.55,-562 321.6662,-501.636 69.4338,-574.864 16.55,-514.5 9.3426,-506.2731 4.5802,-492.3118 7.795,-484.7474"/>
<polygon fill="#000000" stroke="#000000" points="9.772,-487.643 16.55,-479.5 6.1733,-481.6389 9.772,-487.643"/>
</g>
<!-- dwi_preproc_wfgradient_table -->
<g id="node3" class="node">
<title>dwi_preproc_wfgradient_table</title>
<polygon fill="none" stroke="#000000" points="440.55,-433.5 440.55,-525.5 712.55,-525.5 712.55,-433.5 440.55,-433.5"/>
<text text-anchor="middle" x="476.55" y="-510.3" font-family="Times,serif" font-size="14.00" fill="#000000">IN</text>
<polyline fill="none" stroke="#000000" points="440.55,-502.5 512.55,-502.5 "/>
<text text-anchor="middle" x="476.55" y="-487.3" font-family="Times,serif" font-size="14.00" fill="#000000">dwi_file</text>
<polyline fill="none" stroke="#000000" points="440.55,-479.5 512.55,-479.5 "/>
<text text-anchor="middle" x="476.55" y="-464.3" font-family="Times,serif" font-size="14.00" fill="#000000">in_bval</text>
<polyline fill="none" stroke="#000000" points="440.55,-456.5 512.55,-456.5 "/>
<text text-anchor="middle" x="476.55" y="-441.3" font-family="Times,serif" font-size="14.00" fill="#000000">in_bvec</text>
<polyline fill="none" stroke="#000000" points="512.55,-433.5 512.55,-525.5 "/>
<text text-anchor="middle" x="573.05" y="-506.8" font-family="Times,serif" font-size="14.00" fill="#000000">gradient_table</text>
<polyline fill="none" stroke="#000000" points="512.55,-495.5 633.55,-495.5 "/>
<text text-anchor="middle" x="573.05" y="-476.3" font-family="Times,serif" font-size="14.00" fill="#000000">vectors</text>
<polyline fill="none" stroke="#000000" points="512.55,-464.5 633.55,-464.5 "/>
<text text-anchor="middle" x="573.05" y="-445.3" font-family="Times,serif" font-size="14.00" fill="#000000"> </text>
<polyline fill="none" stroke="#000000" points="633.55,-433.5 633.55,-525.5 "/>
<text text-anchor="middle" x="673.05" y="-506.8" font-family="Times,serif" font-size="14.00" fill="#000000">OUT</text>
<polyline fill="none" stroke="#000000" points="633.55,-495.5 712.55,-495.5 "/>
<text text-anchor="middle" x="673.05" y="-476.3" font-family="Times,serif" font-size="14.00" fill="#000000">b0_ixs</text>
<polyline fill="none" stroke="#000000" points="633.55,-464.5 712.55,-464.5 "/>
<text text-anchor="middle" x="673.05" y="-445.3" font-family="Times,serif" font-size="14.00" fill="#000000">out_rasb</text>
</g>
<!-- dwi_preproc_wfinputnode&#45;&gt;dwi_preproc_wfgradient_table -->
<g id="edge11" class="edge">
<title>dwi_preproc_wfinputnode:e&#45;&gt;dwi_preproc_wfgradient_table:w</title>
<path fill="none" stroke="#000000" d="M374.55,-735C387.0055,-735 418.3771,-542.6989 435.0444,-499.8818"/>
<polygon fill="#000000" stroke="#000000" points="437.9853,-501.7797 440.55,-491.5 432.1345,-497.9367 437.9853,-501.7797"/>
</g>
<!-- dwi_preproc_wfinputnode&#45;&gt;dwi_preproc_wfgradient_table -->
<g id="edge14" class="edge">
<title>dwi_preproc_wfinputnode:e&#45;&gt;dwi_preproc_wfgradient_table:w</title>
<path fill="none" stroke="#000000" d="M374.55,-689C450.5916,-689 406.1314,-599.2489 426.55,-526 429.242,-516.3429 428.252,-488.2652 433.228,-474.8299"/>
<polygon fill="#000000" stroke="#000000" points="435.959,-477.0485 440.55,-467.5 431.0065,-472.1014 435.959,-477.0485"/>
</g>
<!-- dwi_preproc_wfinputnode&#45;&gt;dwi_preproc_wfgradient_table -->
<g id="edge15" class="edge">
<title>dwi_preproc_wfinputnode:e&#45;&gt;dwi_preproc_wfgradient_table:w</title>
<path fill="none" stroke="#000000" d="M374.55,-666C440.9257,-666 409.3016,-590.0954 426.55,-526 430.3926,-511.7208 425.2172,-467.6491 432.6241,-450.9784"/>
<polygon fill="#000000" stroke="#000000" points="435.0223,-453.5386 440.55,-444.5 430.5923,-448.1187 435.0223,-453.5386"/>
</g>
<!-- dwi_preproc_wfdwi_reference_wf -->
<g id="node4" class="node">
<title>dwi_preproc_wfdwi_reference_wf</title>
<polygon fill="none" stroke="#000000" points="402.55,-304.5 402.55,-396.5 920.55,-396.5 920.55,-304.5 402.55,-304.5"/>
<text text-anchor="middle" x="477.05" y="-377.8" font-family="Times,serif" font-size="14.00" fill="#000000">IN</text>
<polyline fill="none" stroke="#000000" points="402.55,-366.5 551.55,-366.5 "/>
<text text-anchor="middle" x="477.05" y="-347.3" font-family="Times,serif" font-size="14.00" fill="#000000">inputnode.b0_ixs</text>
<polyline fill="none" stroke="#000000" points="402.55,-335.5 551.55,-335.5 "/>
<text text-anchor="middle" x="477.05" y="-316.3" font-family="Times,serif" font-size="14.00" fill="#000000">inputnode.dwi_file</text>
<polyline fill="none" stroke="#000000" points="551.55,-304.5 551.55,-396.5 "/>
<text text-anchor="middle" x="623.05" y="-377.8" font-family="Times,serif" font-size="14.00" fill="#000000">dwi_reference_wf</text>
<polyline fill="none" stroke="#000000" points="551.55,-366.5 694.55,-366.5 "/>
<text text-anchor="middle" x="623.05" y="-347.3" font-family="Times,serif" font-size="14.00" fill="#000000"> </text>
<polyline fill="none" stroke="#000000" points="551.55,-335.5 694.55,-335.5 "/>
<text text-anchor="middle" x="623.05" y="-316.3" font-family="Times,serif" font-size="14.00" fill="#000000"> </text>
<polyline fill="none" stroke="#000000" points="694.55,-304.5 694.55,-396.5 "/>
<text text-anchor="middle" x="807.55" y="-381.3" font-family="Times,serif" font-size="14.00" fill="#000000">OUT</text>
<polyline fill="none" stroke="#000000" points="694.55,-373.5 920.55,-373.5 "/>
<text text-anchor="middle" x="807.55" y="-358.3" font-family="Times,serif" font-size="14.00" fill="#000000">outputnode.dwi_mask</text>
<polyline fill="none" stroke="#000000" points="694.55,-350.5 920.55,-350.5 "/>
<text text-anchor="middle" x="807.55" y="-335.3" font-family="Times,serif" font-size="14.00" fill="#000000">outputnode.ref_image</text>
<polyline fill="none" stroke="#000000" points="694.55,-327.5 920.55,-327.5 "/>
<text text-anchor="middle" x="807.55" y="-312.3" font-family="Times,serif" font-size="14.00" fill="#000000">outputnode.validation_report</text>
</g>
<!-- dwi_preproc_wfinputnode&#45;&gt;dwi_preproc_wfdwi_reference_wf -->
<g id="edge10" class="edge">
<title>dwi_preproc_wfinputnode:e&#45;&gt;dwi_preproc_wfdwi_reference_wf:w</title>
<path fill="none" stroke="#000000" d="M374.55,-735C395.6975,-735 382.2489,-387.8455 397.4502,-328.1783"/>
<polygon fill="#000000" stroke="#000000" points="400.501,-329.8948 402.55,-319.5 394.466,-326.3483 400.501,-329.8948"/>
</g>
<!-- dwi_preproc_wfreportlets_wf -->
<g id="node6" class="node">
<title>dwi_preproc_wfreportlets_wf</title>
<polygon fill="none" stroke="#000000" points="1263.05,-.5 1263.05,-115.5 1642.05,-115.5 1642.05,-.5 1263.05,-.5"/>
<text text-anchor="middle" x="1371.05" y="-100.3" font-family="Times,serif" font-size="14.00" fill="#000000">IN</text>
<polyline fill="none" stroke="#000000" points="1263.05,-92.5 1479.05,-92.5 "/>
<text text-anchor="middle" x="1371.05" y="-77.3" font-family="Times,serif" font-size="14.00" fill="#000000">inputnode.dwi_mask</text>
<polyline fill="none" stroke="#000000" points="1263.05,-69.5 1479.05,-69.5 "/>
<text text-anchor="middle" x="1371.05" y="-54.3" font-family="Times,serif" font-size="14.00" fill="#000000">inputnode.dwi_ref</text>
<polyline fill="none" stroke="#000000" points="1263.05,-46.5 1479.05,-46.5 "/>
<text text-anchor="middle" x="1371.05" y="-31.3" font-family="Times,serif" font-size="14.00" fill="#000000">inputnode.source_file</text>
<polyline fill="none" stroke="#000000" points="1263.05,-23.5 1479.05,-23.5 "/>
<text text-anchor="middle" x="1371.05" y="-8.3" font-family="Times,serif" font-size="14.00" fill="#000000">inputnode.validation_report</text>
<polyline fill="none" stroke="#000000" points="1479.05,-.5 1479.05,-115.5 "/>
<text text-anchor="middle" x="1535.55" y="-92.8" font-family="Times,serif" font-size="14.00" fill="#000000">reportlets_wf</text>
<polyline fill="none" stroke="#000000" points="1479.05,-77.5 1592.05,-77.5 "/>
<text text-anchor="middle" x="1535.55" y="-54.8" font-family="Times,serif" font-size="14.00" fill="#000000"> </text>
<polyline fill="none" stroke="#000000" points="1479.05,-39.5 1592.05,-39.5 "/>
<text text-anchor="middle" x="1535.55" y="-16.3" font-family="Times,serif" font-size="14.00" fill="#000000"> </text>
<polyline fill="none" stroke="#000000" points="1592.05,-.5 1592.05,-115.5 "/>
<text text-anchor="middle" x="1617.05" y="-54.3" font-family="Times,serif" font-size="14.00" fill="#000000">OUT</text>
</g>
<!-- dwi_preproc_wfinputnode&#45;&gt;dwi_preproc_wfreportlets_wf -->
<g id="edge12" class="edge">
<title>dwi_preproc_wfinputnode:e&#45;&gt;dwi_preproc_wfreportlets_wf:w</title>
<path fill="none" stroke="#000000" d="M374.55,-735C824.0102,-735 1038.3908,-652.2541 1271.55,-268 1298.2947,-223.9239 1277.8492,-203.1693 1271.55,-152 1269.5349,-135.6311 1264.5651,-132.3689 1262.55,-116 1258.6669,-84.4569 1233.583,-45.4791 1252.5263,-36.7768"/>
<polygon fill="#000000" stroke="#000000" points="1253.3144,-40.1918 1262.55,-35 1252.0926,-33.2992 1253.3144,-40.1918"/>
</g>
<!-- dwi_preproc_wfbbreg_wf -->
<g id="node7" class="node">
<title>dwi_preproc_wfbbreg_wf</title>
<polygon fill="none" stroke="#000000" points="62.05,-152.5 62.05,-267.5 545.05,-267.5 545.05,-152.5 62.05,-152.5"/>
<text text-anchor="middle" x="172.55" y="-252.3" font-family="Times,serif" font-size="14.00" fill="#000000">IN</text>
<polyline fill="none" stroke="#000000" points="62.05,-244.5 283.05,-244.5 "/>
<text text-anchor="middle" x="172.55" y="-229.3" font-family="Times,serif" font-size="14.00" fill="#000000">inputnode.fsnative2t1w_xfm</text>
<polyline fill="none" stroke="#000000" points="62.05,-221.5 283.05,-221.5 "/>
<text text-anchor="middle" x="172.55" y="-206.3" font-family="Times,serif" font-size="14.00" fill="#000000">inputnode.in_file</text>
<polyline fill="none" stroke="#000000" points="62.05,-198.5 283.05,-198.5 "/>
<text text-anchor="middle" x="172.55" y="-183.3" font-family="Times,serif" font-size="14.00" fill="#000000">inputnode.subject_id</text>
<polyline fill="none" stroke="#000000" points="62.05,-175.5 283.05,-175.5 "/>
<text text-anchor="middle" x="172.55" y="-160.3" font-family="Times,serif" font-size="14.00" fill="#000000">inputnode.subjects_dir</text>
<polyline fill="none" stroke="#000000" points="283.05,-152.5 283.05,-267.5 "/>
<text text-anchor="middle" x="324.55" y="-244.8" font-family="Times,serif" font-size="14.00" fill="#000000">bbreg_wf</text>
<polyline fill="none" stroke="#000000" points="283.05,-229.5 366.05,-229.5 "/>
<text text-anchor="middle" x="324.55" y="-206.8" font-family="Times,serif" font-size="14.00" fill="#000000"> </text>
<polyline fill="none" stroke="#000000" points="283.05,-191.5 366.05,-191.5 "/>
<text text-anchor="middle" x="324.55" y="-168.3" font-family="Times,serif" font-size="14.00" fill="#000000"> </text>
<polyline fill="none" stroke="#000000" points="366.05,-152.5 366.05,-267.5 "/>
<text text-anchor="middle" x="455.55" y="-244.8" font-family="Times,serif" font-size="14.00" fill="#000000">OUT</text>
<polyline fill="none" stroke="#000000" points="366.05,-229.5 545.05,-229.5 "/>
<text text-anchor="middle" x="455.55" y="-206.8" font-family="Times,serif" font-size="14.00" fill="#000000">outputnode.fallback</text>
<polyline fill="none" stroke="#000000" points="366.05,-191.5 545.05,-191.5 "/>
<text text-anchor="middle" x="455.55" y="-168.3" font-family="Times,serif" font-size="14.00" fill="#000000">outputnode.out_report</text>
</g>
<!-- dwi_preproc_wfinputnode&#45;&gt;dwi_preproc_wfbbreg_wf -->
<g id="edge13" class="edge">
<title>dwi_preproc_wfinputnode:e&#45;&gt;dwi_preproc_wfbbreg_wf:w</title>
<path fill="none" stroke="#000000" d="M374.55,-712C441.2167,-712 411.9253,-617.2045 374.55,-562 350.3974,-526.3258 315.9339,-555.5136 284.55,-526 251.2395,-494.6747 267.6365,-469.84 240.55,-433 172.0944,-339.8944 -43.6675,-239.4856 51.3675,-233.301"/>
<polygon fill="#000000" stroke="#000000" points="51.6578,-236.794 61.55,-233 51.4509,-229.7971 51.6578,-236.794"/>
</g>
<!-- dwi_preproc_wfinputnode&#45;&gt;dwi_preproc_wfbbreg_wf -->
<g id="edge16" class="edge">
<title>dwi_preproc_wfinputnode:e&#45;&gt;dwi_preproc_wfbbreg_wf:w</title>
<path fill="none" stroke="#000000" d="M374.55,-643C410.55,-643 391.2579,-593.8881 374.55,-562 361.5044,-537.1015 340.9214,-547.2748 322.55,-526 292.4118,-491.0986 302.0965,-471.3901 276.55,-433 234.4867,-369.7891 227.3851,-346.6227 164.55,-304 124.4184,-276.7776 89.6188,-307.5443 61.55,-268 42.9917,-241.8544 28.9347,-198.0304 51.5142,-188.7567"/>
<polygon fill="#000000" stroke="#000000" points="52.3033,-192.1719 61.55,-187 51.0963,-185.2767 52.3033,-192.1719"/>
</g>
<!-- dwi_preproc_wfinputnode&#45;&gt;dwi_preproc_wfbbreg_wf -->
<g id="edge17" class="edge">
<title>dwi_preproc_wfinputnode:e&#45;&gt;dwi_preproc_wfbbreg_wf:w</title>
<path fill="none" stroke="#000000" d="M374.55,-620C400.3278,-620 380.197,-587.1517 374.55,-562 371.0768,-546.5301 321.5383,-446.6956 313.55,-433 278.1994,-372.3931 280.9212,-342.9317 222.55,-304 161.5504,-263.3153 107.3923,-325.2248 61.55,-268 35.0218,-234.8849 18.2478,-174.9297 51.4291,-165.3162"/>
<polygon fill="#000000" stroke="#000000" points="52.0849,-168.7604 61.55,-164 51.1821,-161.8189 52.0849,-168.7604"/>
</g>
<!-- dwi_preproc_wfds_report_reg -->
<g id="node8" class="node">
<title>dwi_preproc_wfds_report_reg</title>
<polygon fill="none" stroke="#000000" points="545.55,-12 545.55,-104 807.55,-104 807.55,-12 545.55,-12"/>
<text text-anchor="middle" x="593.05" y="-88.8" font-family="Times,serif" font-size="14.00" fill="#000000">IN</text>
<polyline fill="none" stroke="#000000" points="545.55,-81 640.55,-81 "/>
<text text-anchor="middle" x="593.05" y="-65.8" font-family="Times,serif" font-size="14.00" fill="#000000">desc</text>
<polyline fill="none" stroke="#000000" points="545.55,-58 640.55,-58 "/>
<text text-anchor="middle" x="593.05" y="-42.8" font-family="Times,serif" font-size="14.00" fill="#000000">in_file</text>
<polyline fill="none" stroke="#000000" points="545.55,-35 640.55,-35 "/>
<text text-anchor="middle" x="593.05" y="-19.8" font-family="Times,serif" font-size="14.00" fill="#000000">source_file</text>
<polyline fill="none" stroke="#000000" points="640.55,-12 640.55,-104 "/>
<text text-anchor="middle" x="699.05" y="-85.3" font-family="Times,serif" font-size="14.00" fill="#000000">ds_report_reg</text>
<polyline fill="none" stroke="#000000" points="640.55,-74 757.55,-74 "/>
<text text-anchor="middle" x="699.05" y="-54.8" font-family="Times,serif" font-size="14.00" fill="#000000"> </text>
<polyline fill="none" stroke="#000000" points="640.55,-43 757.55,-43 "/>
<text text-anchor="middle" x="699.05" y="-23.8" font-family="Times,serif" font-size="14.00" fill="#000000"> </text>
<polyline fill="none" stroke="#000000" points="757.55,-12 757.55,-104 "/>
<text text-anchor="middle" x="782.55" y="-54.3" font-family="Times,serif" font-size="14.00" fill="#000000">OUT</text>
</g>
<!-- dwi_preproc_wfinputnode&#45;&gt;dwi_preproc_wfds_report_reg -->
<g id="edge9" class="edge">
<title>dwi_preproc_wfinputnode:e&#45;&gt;dwi_preproc_wfds_report_reg:w</title>
<path fill="none" stroke="#000000" d="M374.55,-735C398.5177,-735 378.1567,-322.3711 393.55,-304 440.6416,-247.7988 508.7077,-325.2248 554.55,-268 600.051,-211.2012 552.3539,-176.9579 545.55,-104.5 542.5604,-72.6626 516.6193,-33.5204 535.5022,-24.7837"/>
<polygon fill="#000000" stroke="#000000" points="536.3157,-28.1941 545.55,-23 535.0922,-21.3019 536.3157,-28.1941"/>
</g>
<!-- dwi_preproc_wfgradient_table&#45;&gt;dwi_preproc_wfdwi_reference_wf -->
<g id="edge7" class="edge">
<title>dwi_preproc_wfgradient_table:e&#45;&gt;dwi_preproc_wfdwi_reference_wf:w</title>
<path fill="none" stroke="#000000" d="M712.55,-480.5C733.6611,-480.5 726.5905,-448.7653 712.55,-433 620.3018,-329.4192 494.7982,-500.5808 402.55,-397 391.9377,-385.084 385.4822,-363.6437 393.1659,-355.1288"/>
<polygon fill="#000000" stroke="#000000" points="394.4854,-358.3712 402.55,-351.5 391.9607,-351.8423 394.4854,-358.3712"/>
</g>
<!-- dwi_preproc_wfoutputnode -->
<g id="node5" class="node">
<title>dwi_preproc_wfoutputnode</title>
<polygon fill="none" stroke="#000000" points="921.05,-164 921.05,-256 1262.05,-256 1262.05,-164 921.05,-164"/>
<text text-anchor="middle" x="983.05" y="-240.8" font-family="Times,serif" font-size="14.00" fill="#000000">IN</text>
<polyline fill="none" stroke="#000000" points="921.05,-233 1045.05,-233 "/>
<text text-anchor="middle" x="983.05" y="-217.8" font-family="Times,serif" font-size="14.00" fill="#000000">dwi_mask</text>
<polyline fill="none" stroke="#000000" points="921.05,-210 1045.05,-210 "/>
<text text-anchor="middle" x="983.05" y="-194.8" font-family="Times,serif" font-size="14.00" fill="#000000">dwi_reference</text>
<polyline fill="none" stroke="#000000" points="921.05,-187 1045.05,-187 "/>
<text text-anchor="middle" x="983.05" y="-171.8" font-family="Times,serif" font-size="14.00" fill="#000000">gradients_rasb</text>
<polyline fill="none" stroke="#000000" points="1045.05,-164 1045.05,-256 "/>
<text text-anchor="middle" x="1094.05" y="-237.3" font-family="Times,serif" font-size="14.00" fill="#000000">outputnode</text>
<polyline fill="none" stroke="#000000" points="1045.05,-226 1143.05,-226 "/>
<text text-anchor="middle" x="1094.05" y="-206.8" font-family="Times,serif" font-size="14.00" fill="#000000">utility</text>
<polyline fill="none" stroke="#000000" points="1045.05,-195 1143.05,-195 "/>
<text text-anchor="middle" x="1094.05" y="-175.8" font-family="Times,serif" font-size="14.00" fill="#000000"> </text>
<polyline fill="none" stroke="#000000" points="1143.05,-164 1143.05,-256 "/>
<text text-anchor="middle" x="1202.55" y="-237.3" font-family="Times,serif" font-size="14.00" fill="#000000">OUT</text>
<polyline fill="none" stroke="#000000" points="1143.05,-226 1262.05,-226 "/>
<text text-anchor="middle" x="1202.55" y="-206.8" font-family="Times,serif" font-size="14.00" fill="#000000">dwi_mask</text>
<polyline fill="none" stroke="#000000" points="1143.05,-195 1262.05,-195 "/>
<text text-anchor="middle" x="1202.55" y="-175.8" font-family="Times,serif" font-size="14.00" fill="#000000">dwi_reference</text>
</g>
<!-- dwi_preproc_wfgradient_table&#45;&gt;dwi_preproc_wfoutputnode -->
<g id="edge8" class="edge">
<title>dwi_preproc_wfgradient_table:e&#45;&gt;dwi_preproc_wfoutputnode:w</title>
<path fill="none" stroke="#000000" d="M712.55,-448.5C762.1117,-448.5 898.8161,-435.8816 929.55,-397 968.3522,-347.9113 926.3999,-318.7984 920.55,-256.5 919.2073,-242.2014 908.6058,-199.3323 913.3042,-182.1947"/>
<polygon fill="#000000" stroke="#000000" points="915.92,-184.5297 920.55,-175 910.9878,-179.5624 915.92,-184.5297"/>
</g>
<!-- dwi_preproc_wfdwi_reference_wf&#45;&gt;dwi_preproc_wfoutputnode -->
<g id="edge3" class="edge">
<title>dwi_preproc_wfdwi_reference_wf:e&#45;&gt;dwi_preproc_wfoutputnode:w</title>
<path fill="none" stroke="#000000" d="M920.55,-362.5C947.7475,-362.5 903.8703,-255.888 912.7439,-228.4021"/>
<polygon fill="#000000" stroke="#000000" points="915.0373,-231.0477 920.55,-222 910.5983,-225.6352 915.0373,-231.0477"/>
</g>
<!-- dwi_preproc_wfdwi_reference_wf&#45;&gt;dwi_preproc_wfoutputnode -->
<g id="edge5" class="edge">
<title>dwi_preproc_wfdwi_reference_wf:e&#45;&gt;dwi_preproc_wfoutputnode:w</title>
<path fill="none" stroke="#000000" d="M920.55,-338.5C947.7475,-338.5 903.8703,-231.888 912.7439,-204.4021"/>
<polygon fill="#000000" stroke="#000000" points="915.0373,-207.0477 920.55,-198 910.5983,-201.6352 915.0373,-207.0477"/>
</g>
<!-- dwi_preproc_wfdwi_reference_wf&#45;&gt;dwi_preproc_wfreportlets_wf -->
<g id="edge6" class="edge">
<title>dwi_preproc_wfdwi_reference_wf:e&#45;&gt;dwi_preproc_wfreportlets_wf:w</title>
<path fill="none" stroke="#000000" d="M920.55,-315.5C925.6611,-315.5 921.1077,-309.0806 920.55,-304 918.7616,-287.7076 914.3385,-284.2924 912.55,-268 906.9244,-216.7523 883.6465,-194.6915 912.55,-152 1004.5507,-16.112 1091.378,-12.1098 1252.3414,-12.0028"/>
<polygon fill="#000000" stroke="#000000" points="1252.551,-15.5028 1262.55,-12 1252.549,-8.5028 1252.551,-15.5028"/>
</g>
<!-- dwi_preproc_wfdwi_reference_wf&#45;&gt;dwi_preproc_wfbbreg_wf -->
<g id="edge4" class="edge">
<title>dwi_preproc_wfdwi_reference_wf:e&#45;&gt;dwi_preproc_wfbbreg_wf:w</title>
<path fill="none" stroke="#000000" d="M920.55,-338.5C935.8833,-338.5 931.1629,-315.067 920.55,-304 854.4307,-235.0516 127.6693,-336.9484 61.55,-268 46.4959,-252.3017 38.494,-221.8033 51.8451,-212.6558"/>
<polygon fill="#000000" stroke="#000000" points="52.8285,-216.0154 61.55,-210 50.9808,-209.2637 52.8285,-216.0154"/>
</g>
<!-- dwi_preproc_wfoutputnode&#45;&gt;dwi_preproc_wfreportlets_wf -->
<g id="edge20" class="edge">
<title>dwi_preproc_wfoutputnode:e&#45;&gt;dwi_preproc_wfreportlets_wf:w</title>
<path fill="none" stroke="#000000" d="M1262.55,-211C1287.3764,-211 1248.1973,-114.9917 1255.0221,-87.9894"/>
<polygon fill="#000000" stroke="#000000" points="1257.6031,-90.369 1262.55,-81 1252.8402,-85.2392 1257.6031,-90.369"/>
</g>
<!-- dwi_preproc_wfoutputnode&#45;&gt;dwi_preproc_wfreportlets_wf -->
<g id="edge21" class="edge">
<title>dwi_preproc_wfoutputnode:e&#45;&gt;dwi_preproc_wfreportlets_wf:w</title>
<path fill="none" stroke="#000000" d="M1262.55,-179C1285.4476,-179 1249.849,-91.2558 1255.3805,-65.2067"/>
<polygon fill="#000000" stroke="#000000" points="1257.9786,-67.5579 1262.55,-58 1253.016,-62.6209 1257.9786,-67.5579"/>
</g>
<!-- dwi_preproc_wfbbreg_wf&#45;&gt;dwi_preproc_wfds_report_reg -->
<g id="edge1" class="edge">
<title>dwi_preproc_wfbbreg_wf:e&#45;&gt;dwi_preproc_wfds_report_reg:w</title>
<path fill="none" stroke="#000000" d="M545.55,-211C572.8443,-211 528.8109,-104.0086 537.7161,-76.4249"/>
<polygon fill="#000000" stroke="#000000" points="540.0373,-79.0477 545.55,-70 535.5983,-73.6352 540.0373,-79.0477"/>
</g>
<!-- dwi_preproc_wfbbreg_wf&#45;&gt;dwi_preproc_wfds_report_reg -->
<g id="edge2" class="edge">
<title>dwi_preproc_wfbbreg_wf:e&#45;&gt;dwi_preproc_wfds_report_reg:w</title>
<path fill="none" stroke="#000000" d="M545.55,-172C569.5031,-172 531.9828,-79.7898 538.1663,-53.1353"/>
<polygon fill="#000000" stroke="#000000" points="540.7912,-55.466 545.55,-46 535.9268,-50.4322 540.7912,-55.466"/>
</g>
</g>
</svg>
