<?xml version="1.0" encoding="UTF-8" standalone="no"?>
<!DOCTYPE svg PUBLIC "-//W3C//DTD SVG 1.1//EN"
 "http://www.w3.org/Graphics/SVG/1.1/DTD/svg11.dtd">
<!-- Generated by graphviz version 2.40.1 (20161225.0304)
 -->
<!-- Title: structs Pages: 1 -->
<svg width="2344pt" height="948pt"
 viewBox="0.00 0.00 2344.00 948.00" xmlns="http://www.w3.org/2000/svg" xmlns:xlink="http://www.w3.org/1999/xlink">
<g id="graph0" class="graph" transform="scale(1 1) rotate(0) translate(4 944)">
<title>structs</title>
<polygon fill="#ffffff" stroke="transparent" points="-4,4 -4,-944 2340,-944 2340,4 -4,4"/>
<!-- single_subject_THP0005_wffmap_preproc_wf -->
<g id="node1" class="node">
<title>single_subject_THP0005_wffmap_preproc_wf</title>
<polygon fill="none" stroke="#000000" points="0,-836 0,-905 226,-905 226,-836 0,-836"/>
<text text-anchor="middle" x="17.5" y="-866.8" font-family="Times,serif" font-size="14.00" fill="#000000">IN</text>
<polyline fill="none" stroke="#000000" points="35,-836 35,-905 "/>
<text text-anchor="middle" x="105.5" y="-889.8" font-family="Times,serif" font-size="14.00" fill="#000000">fmap_preproc_wf</text>
<polyline fill="none" stroke="#000000" points="35,-882 176,-882 "/>
<text text-anchor="middle" x="105.5" y="-866.8" font-family="Times,serif" font-size="14.00" fill="#000000"> </text>
<polyline fill="none" stroke="#000000" points="35,-859 176,-859 "/>
<text text-anchor="middle" x="105.5" y="-843.8" font-family="Times,serif" font-size="14.00" fill="#000000"> </text>
<polyline fill="none" stroke="#000000" points="176,-836 176,-905 "/>
<text text-anchor="middle" x="201" y="-866.8" font-family="Times,serif" font-size="14.00" fill="#000000">OUT</text>
</g>
<!-- single_subject_THP0005_wfabout -->
<g id="node2" class="node">
<title>single_subject_THP0005_wfabout</title>
<polygon fill="none" stroke="#000000" points="244,-836 244,-905 440,-905 440,-836 244,-836"/>
<text text-anchor="middle" x="261.5" y="-866.8" font-family="Times,serif" font-size="14.00" fill="#000000">IN</text>
<polyline fill="none" stroke="#000000" points="279,-836 279,-905 "/>
<text text-anchor="middle" x="313.5" y="-889.8" font-family="Times,serif" font-size="14.00" fill="#000000">about</text>
<polyline fill="none" stroke="#000000" points="279,-882 348,-882 "/>
<text text-anchor="middle" x="313.5" y="-866.8" font-family="Times,serif" font-size="14.00" fill="#000000">reports</text>
<polyline fill="none" stroke="#000000" points="279,-859 348,-859 "/>
<text text-anchor="middle" x="313.5" y="-843.8" font-family="Times,serif" font-size="14.00" fill="#000000"> </text>
<polyline fill="none" stroke="#000000" points="348,-836 348,-905 "/>
<text text-anchor="middle" x="394" y="-884.3" font-family="Times,serif" font-size="14.00" fill="#000000">OUT</text>
<polyline fill="none" stroke="#000000" points="348,-871 440,-871 "/>
<text text-anchor="middle" x="394" y="-849.8" font-family="Times,serif" font-size="14.00" fill="#000000">out_report</text>
</g>
<!-- single_subject_THP0005_wfds_report_about -->
<g id="node4" class="node">
<title>single_subject_THP0005_wfds_report_about</title>
<polygon fill="none" stroke="#000000" points="440.5,-695.5 440.5,-764.5 719.5,-764.5 719.5,-695.5 440.5,-695.5"/>
<text text-anchor="middle" x="488" y="-749.3" font-family="Times,serif" font-size="14.00" fill="#000000">IN</text>
<polyline fill="none" stroke="#000000" points="440.5,-741.5 535.5,-741.5 "/>
<text text-anchor="middle" x="488" y="-726.3" font-family="Times,serif" font-size="14.00" fill="#000000">in_file</text>
<polyline fill="none" stroke="#000000" points="440.5,-718.5 535.5,-718.5 "/>
<text text-anchor="middle" x="488" y="-703.3" font-family="Times,serif" font-size="14.00" fill="#000000">source_file</text>
<polyline fill="none" stroke="#000000" points="535.5,-695.5 535.5,-764.5 "/>
<text text-anchor="middle" x="602.5" y="-749.3" font-family="Times,serif" font-size="14.00" fill="#000000">ds_report_about</text>
<polyline fill="none" stroke="#000000" points="535.5,-741.5 669.5,-741.5 "/>
<text text-anchor="middle" x="602.5" y="-726.3" font-family="Times,serif" font-size="14.00" fill="#000000"> </text>
<polyline fill="none" stroke="#000000" points="535.5,-718.5 669.5,-718.5 "/>
<text text-anchor="middle" x="602.5" y="-703.3" font-family="Times,serif" font-size="14.00" fill="#000000"> </text>
<polyline fill="none" stroke="#000000" points="669.5,-695.5 669.5,-764.5 "/>
<text text-anchor="middle" x="694.5" y="-726.3" font-family="Times,serif" font-size="14.00" fill="#000000">OUT</text>
</g>
<!-- single_subject_THP0005_wfabout&#45;&gt;single_subject_THP0005_wfds_report_about -->
<g id="edge1" class="edge">
<title>single_subject_THP0005_wfabout:e&#45;&gt;single_subject_THP0005_wfds_report_about:w</title>
<path fill="none" stroke="#000000" d="M440,-853.5C490.6007,-853.5 401.2588,-748.5431 429.9935,-732.1436"/>
<polygon fill="#000000" stroke="#000000" points="430.955,-735.5171 440,-730 429.4887,-728.6724 430.955,-735.5171"/>
</g>
<!-- single_subject_THP0005_wfbidssrc -->
<g id="node3" class="node">
<title>single_subject_THP0005_wfbidssrc</title>
<polygon fill="none" stroke="#000000" points="851,-801.5 851,-939.5 1005,-939.5 1005,-801.5 851,-801.5"/>
<text text-anchor="middle" x="868.5" y="-866.8" font-family="Times,serif" font-size="14.00" fill="#000000">IN</text>
<polyline fill="none" stroke="#000000" points="886,-801.5 886,-939.5 "/>
<text text-anchor="middle" x="920.5" y="-912.8" font-family="Times,serif" font-size="14.00" fill="#000000">bidssrc</text>
<polyline fill="none" stroke="#000000" points="886,-893.5 955,-893.5 "/>
<text text-anchor="middle" x="920.5" y="-866.8" font-family="Times,serif" font-size="14.00" fill="#000000"> </text>
<polyline fill="none" stroke="#000000" points="886,-847.5 955,-847.5 "/>
<text text-anchor="middle" x="920.5" y="-820.8" font-family="Times,serif" font-size="14.00" fill="#000000"> </text>
<polyline fill="none" stroke="#000000" points="955,-801.5 955,-939.5 "/>
<text text-anchor="middle" x="980" y="-924.3" font-family="Times,serif" font-size="14.00" fill="#000000">OUT</text>
<polyline fill="none" stroke="#000000" points="955,-916.5 1005,-916.5 "/>
<text text-anchor="middle" x="980" y="-901.3" font-family="Times,serif" font-size="14.00" fill="#000000">dwi</text>
<polyline fill="none" stroke="#000000" points="955,-893.5 1005,-893.5 "/>
<text text-anchor="middle" x="980" y="-878.3" font-family="Times,serif" font-size="14.00" fill="#000000">flair</text>
<polyline fill="none" stroke="#000000" points="955,-870.5 1005,-870.5 "/>
<text text-anchor="middle" x="980" y="-855.3" font-family="Times,serif" font-size="14.00" fill="#000000">roi</text>
<polyline fill="none" stroke="#000000" points="955,-847.5 1005,-847.5 "/>
<text text-anchor="middle" x="980" y="-832.3" font-family="Times,serif" font-size="14.00" fill="#000000">t1w</text>
<polyline fill="none" stroke="#000000" points="955,-824.5 1005,-824.5 "/>
<text text-anchor="middle" x="980" y="-809.3" font-family="Times,serif" font-size="14.00" fill="#000000">t2w</text>
</g>
<!-- single_subject_THP0005_wfbidssrc&#45;&gt;single_subject_THP0005_wfds_report_about -->
<g id="edge22" class="edge">
<title>single_subject_THP0005_wfbidssrc:e&#45;&gt;single_subject_THP0005_wfds_report_about:w</title>
<path fill="none" stroke="#000000" d="M1005,-835.5C1020.3333,-835.5 1015.4919,-812.1817 1005,-801 918.9137,-709.2539 526.0863,-856.7461 440,-765 425.1174,-749.139 416.9976,-718.7524 430.3077,-709.6438"/>
<polygon fill="#000000" stroke="#000000" points="431.2736,-713.0083 440,-707 429.4314,-706.2551 431.2736,-713.0083"/>
</g>
<!-- single_subject_THP0005_wfbids_info -->
<g id="node5" class="node">
<title>single_subject_THP0005_wfbids_info</title>
<polygon fill="none" stroke="#000000" points="1148,-695.5 1148,-764.5 1358,-764.5 1358,-695.5 1148,-695.5"/>
<text text-anchor="middle" x="1178" y="-743.8" font-family="Times,serif" font-size="14.00" fill="#000000">IN</text>
<polyline fill="none" stroke="#000000" points="1148,-730.5 1208,-730.5 "/>
<text text-anchor="middle" x="1178" y="-709.3" font-family="Times,serif" font-size="14.00" fill="#000000">in_file</text>
<polyline fill="none" stroke="#000000" points="1208,-695.5 1208,-764.5 "/>
<text text-anchor="middle" x="1248.5" y="-749.3" font-family="Times,serif" font-size="14.00" fill="#000000">bids_info</text>
<polyline fill="none" stroke="#000000" points="1208,-741.5 1289,-741.5 "/>
<text text-anchor="middle" x="1248.5" y="-726.3" font-family="Times,serif" font-size="14.00" fill="#000000">bids</text>
<polyline fill="none" stroke="#000000" points="1208,-718.5 1289,-718.5 "/>
<text text-anchor="middle" x="1248.5" y="-703.3" font-family="Times,serif" font-size="14.00" fill="#000000"> </text>
<polyline fill="none" stroke="#000000" points="1289,-695.5 1289,-764.5 "/>
<text text-anchor="middle" x="1323.5" y="-743.8" font-family="Times,serif" font-size="14.00" fill="#000000">OUT</text>
<polyline fill="none" stroke="#000000" points="1289,-730.5 1358,-730.5 "/>
<text text-anchor="middle" x="1323.5" y="-709.3" font-family="Times,serif" font-size="14.00" fill="#000000">subject</text>
</g>
<!-- single_subject_THP0005_wfbidssrc&#45;&gt;single_subject_THP0005_wfbids_info -->
<g id="edge21" class="edge">
<title>single_subject_THP0005_wfbidssrc:e&#45;&gt;single_subject_THP0005_wfbids_info:w</title>
<path fill="none" stroke="#000000" d="M1005,-835.5C1072.2952,-835.5 1099.4118,-819.4189 1139,-765 1143.9586,-758.1838 1140.3803,-734.3026 1142.3297,-721.4086"/>
<polygon fill="#000000" stroke="#000000" points="1145.3108,-723.2479 1148,-713 1139.5071,-719.3341 1145.3108,-723.2479"/>
</g>
<!-- single_subject_THP0005_wfsummary -->
<g id="node7" class="node">
<title>single_subject_THP0005_wfsummary</title>
<polygon fill="none" stroke="#000000" points="843.5,-440 843.5,-578 1122.5,-578 1122.5,-440 843.5,-440"/>
<text text-anchor="middle" x="895.5" y="-562.8" font-family="Times,serif" font-size="14.00" fill="#000000">IN</text>
<polyline fill="none" stroke="#000000" points="843.5,-555 947.5,-555 "/>
<text text-anchor="middle" x="895.5" y="-539.8" font-family="Times,serif" font-size="14.00" fill="#000000">dwi</text>
<polyline fill="none" stroke="#000000" points="843.5,-532 947.5,-532 "/>
<text text-anchor="middle" x="895.5" y="-516.8" font-family="Times,serif" font-size="14.00" fill="#000000">subject_id</text>
<polyline fill="none" stroke="#000000" points="843.5,-509 947.5,-509 "/>
<text text-anchor="middle" x="895.5" y="-493.8" font-family="Times,serif" font-size="14.00" fill="#000000">subjects_dir</text>
<polyline fill="none" stroke="#000000" points="843.5,-486 947.5,-486 "/>
<text text-anchor="middle" x="895.5" y="-470.8" font-family="Times,serif" font-size="14.00" fill="#000000">t1w</text>
<polyline fill="none" stroke="#000000" points="843.5,-463 947.5,-463 "/>
<text text-anchor="middle" x="895.5" y="-447.8" font-family="Times,serif" font-size="14.00" fill="#000000">t2w</text>
<polyline fill="none" stroke="#000000" points="947.5,-440 947.5,-578 "/>
<text text-anchor="middle" x="989" y="-551.3" font-family="Times,serif" font-size="14.00" fill="#000000">summary</text>
<polyline fill="none" stroke="#000000" points="947.5,-532 1030.5,-532 "/>
<text text-anchor="middle" x="989" y="-505.3" font-family="Times,serif" font-size="14.00" fill="#000000">reports</text>
<polyline fill="none" stroke="#000000" points="947.5,-486 1030.5,-486 "/>
<text text-anchor="middle" x="989" y="-459.3" font-family="Times,serif" font-size="14.00" fill="#000000"> </text>
<polyline fill="none" stroke="#000000" points="1030.5,-440 1030.5,-578 "/>
<text text-anchor="middle" x="1076.5" y="-539.8" font-family="Times,serif" font-size="14.00" fill="#000000">OUT</text>
<polyline fill="none" stroke="#000000" points="1030.5,-509 1122.5,-509 "/>
<text text-anchor="middle" x="1076.5" y="-470.8" font-family="Times,serif" font-size="14.00" fill="#000000">out_report</text>
</g>
<!-- single_subject_THP0005_wfbidssrc&#45;&gt;single_subject_THP0005_wfsummary -->
<g id="edge17" class="edge">
<title>single_subject_THP0005_wfbidssrc:e&#45;&gt;single_subject_THP0005_wfsummary:w</title>
<path fill="none" stroke="#000000" d="M1005,-905.5C1051.4444,-905.5 1032.8897,-838.1383 1005,-801 970.5395,-755.112 919.8906,-807.199 881,-765 849.8676,-731.2192 801.4914,-571.9041 833.1638,-547.2173"/>
<polygon fill="#000000" stroke="#000000" points="834.5836,-550.4355 843,-544 832.4074,-543.7823 834.5836,-550.4355"/>
</g>
<!-- single_subject_THP0005_wfbidssrc&#45;&gt;single_subject_THP0005_wfsummary -->
<g id="edge24" class="edge">
<title>single_subject_THP0005_wfbidssrc:e&#45;&gt;single_subject_THP0005_wfsummary:w</title>
<path fill="none" stroke="#000000" d="M1005,-835.5C1020.3333,-835.5 1014.5945,-812.9606 1005,-801 958.8486,-743.467 889.1514,-822.533 843,-765 804.7492,-717.3159 781.0292,-499.7424 833.1761,-476.0879"/>
<polygon fill="#000000" stroke="#000000" points="833.9461,-479.5025 843,-474 832.4908,-472.6554 833.9461,-479.5025"/>
</g>
<!-- single_subject_THP0005_wfbidssrc&#45;&gt;single_subject_THP0005_wfsummary -->
<g id="edge26" class="edge">
<title>single_subject_THP0005_wfbidssrc:e&#45;&gt;single_subject_THP0005_wfsummary:w</title>
<path fill="none" stroke="#000000" d="M1005,-812.5C1010.1111,-812.5 1008.2641,-804.933 1005,-801 949.5534,-734.1909 868.4466,-831.8091 813,-765 772.2087,-715.8494 720.4893,-465.7494 832.761,-451.623"/>
<polygon fill="#000000" stroke="#000000" points="833.2311,-455.101 843,-451 832.8059,-448.1139 833.2311,-455.101"/>
</g>
<!-- single_subject_THP0005_wfds_report_summary -->
<g id="node8" class="node">
<title>single_subject_THP0005_wfds_report_summary</title>
<polygon fill="none" stroke="#000000" points="926.5,-127 926.5,-196 1231.5,-196 1231.5,-127 926.5,-127"/>
<text text-anchor="middle" x="974" y="-180.8" font-family="Times,serif" font-size="14.00" fill="#000000">IN</text>
<polyline fill="none" stroke="#000000" points="926.5,-173 1021.5,-173 "/>
<text text-anchor="middle" x="974" y="-157.8" font-family="Times,serif" font-size="14.00" fill="#000000">in_file</text>
<polyline fill="none" stroke="#000000" points="926.5,-150 1021.5,-150 "/>
<text text-anchor="middle" x="974" y="-134.8" font-family="Times,serif" font-size="14.00" fill="#000000">source_file</text>
<polyline fill="none" stroke="#000000" points="1021.5,-127 1021.5,-196 "/>
<text text-anchor="middle" x="1101.5" y="-180.8" font-family="Times,serif" font-size="14.00" fill="#000000">ds_report_summary</text>
<polyline fill="none" stroke="#000000" points="1021.5,-173 1181.5,-173 "/>
<text text-anchor="middle" x="1101.5" y="-157.8" font-family="Times,serif" font-size="14.00" fill="#000000"> </text>
<polyline fill="none" stroke="#000000" points="1021.5,-150 1181.5,-150 "/>
<text text-anchor="middle" x="1101.5" y="-134.8" font-family="Times,serif" font-size="14.00" fill="#000000"> </text>
<polyline fill="none" stroke="#000000" points="1181.5,-127 1181.5,-196 "/>
<text text-anchor="middle" x="1206.5" y="-157.8" font-family="Times,serif" font-size="14.00" fill="#000000">OUT</text>
</g>
<!-- single_subject_THP0005_wfbidssrc&#45;&gt;single_subject_THP0005_wfds_report_summary -->
<g id="edge23" class="edge">
<title>single_subject_THP0005_wfbidssrc:e&#45;&gt;single_subject_THP0005_wfds_report_summary:w</title>
<path fill="none" stroke="#000000" d="M1005,-835.5C1020.3333,-835.5 1014.945,-812.6709 1005,-801 939.6013,-724.2516 846.3987,-841.7484 781,-765 597.8944,-550.1171 639.1415,-148.4559 915.6413,-138.6817"/>
<polygon fill="#000000" stroke="#000000" points="916.063,-142.175 926,-138.5 915.9401,-135.176 916.063,-142.175"/>
</g>
<!-- single_subject_THP0005_wfanat_preproc_wf -->
<g id="node9" class="node">
<title>single_subject_THP0005_wfanat_preproc_wf</title>
<polygon fill="none" stroke="#000000" points="1386,-359.5 1386,-658.5 1934,-658.5 1934,-359.5 1386,-359.5"/>
<text text-anchor="middle" x="1476.5" y="-633.8" font-family="Times,serif" font-size="14.00" fill="#000000">IN</text>
<polyline fill="none" stroke="#000000" points="1386,-616.5 1567,-616.5 "/>
<text text-anchor="middle" x="1476.5" y="-591.3" font-family="Times,serif" font-size="14.00" fill="#000000">inputnode.flair</text>
<polyline fill="none" stroke="#000000" points="1386,-573.5 1567,-573.5 "/>
<text text-anchor="middle" x="1476.5" y="-548.3" font-family="Times,serif" font-size="14.00" fill="#000000">inputnode.roi</text>
<polyline fill="none" stroke="#000000" points="1386,-530.5 1567,-530.5 "/>
<text text-anchor="middle" x="1476.5" y="-505.8" font-family="Times,serif" font-size="14.00" fill="#000000">inputnode.subject_id</text>
<polyline fill="none" stroke="#000000" points="1386,-488.5 1567,-488.5 "/>
<text text-anchor="middle" x="1476.5" y="-463.3" font-family="Times,serif" font-size="14.00" fill="#000000">inputnode.subjects_dir</text>
<polyline fill="none" stroke="#000000" points="1386,-445.5 1567,-445.5 "/>
<text text-anchor="middle" x="1476.5" y="-420.3" font-family="Times,serif" font-size="14.00" fill="#000000">inputnode.t1w</text>
<polyline fill="none" stroke="#000000" points="1386,-402.5 1567,-402.5 "/>
<text text-anchor="middle" x="1476.5" y="-377.3" font-family="Times,serif" font-size="14.00" fill="#000000">inputnode.t2w</text>
<polyline fill="none" stroke="#000000" points="1567,-359.5 1567,-658.5 "/>
<text text-anchor="middle" x="1635.5" y="-605.3" font-family="Times,serif" font-size="14.00" fill="#000000">anat_preproc_wf</text>
<polyline fill="none" stroke="#000000" points="1567,-559.5 1704,-559.5 "/>
<text text-anchor="middle" x="1635.5" y="-505.8" font-family="Times,serif" font-size="14.00" fill="#000000"> </text>
<polyline fill="none" stroke="#000000" points="1567,-459.5 1704,-459.5 "/>
<text text-anchor="middle" x="1635.5" y="-405.8" font-family="Times,serif" font-size="14.00" fill="#000000"> </text>
<polyline fill="none" stroke="#000000" points="1704,-359.5 1704,-658.5 "/>
<text text-anchor="middle" x="1819" y="-643.3" font-family="Times,serif" font-size="14.00" fill="#000000">OUT</text>
<polyline fill="none" stroke="#000000" points="1704,-635.5 1934,-635.5 "/>
<text text-anchor="middle" x="1819" y="-620.3" font-family="Times,serif" font-size="14.00" fill="#000000">outputnode.anat2std_xfm</text>
<polyline fill="none" stroke="#000000" points="1704,-612.5 1934,-612.5 "/>
<text text-anchor="middle" x="1819" y="-597.3" font-family="Times,serif" font-size="14.00" fill="#000000">outputnode.fsnative2t1w_xfm</text>
<polyline fill="none" stroke="#000000" points="1704,-589.5 1934,-589.5 "/>
<text text-anchor="middle" x="1819" y="-574.3" font-family="Times,serif" font-size="14.00" fill="#000000">outputnode.std2anat_xfm</text>
<polyline fill="none" stroke="#000000" points="1704,-566.5 1934,-566.5 "/>
<text text-anchor="middle" x="1819" y="-551.3" font-family="Times,serif" font-size="14.00" fill="#000000">outputnode.subjects_dir</text>
<polyline fill="none" stroke="#000000" points="1704,-543.5 1934,-543.5 "/>
<text text-anchor="middle" x="1819" y="-528.3" font-family="Times,serif" font-size="14.00" fill="#000000">outputnode.t1w2fsnative_xfm</text>
<polyline fill="none" stroke="#000000" points="1704,-520.5 1934,-520.5 "/>
<text text-anchor="middle" x="1819" y="-505.3" font-family="Times,serif" font-size="14.00" fill="#000000">outputnode.t1w_aparc</text>
<polyline fill="none" stroke="#000000" points="1704,-497.5 1934,-497.5 "/>
<text text-anchor="middle" x="1819" y="-482.3" font-family="Times,serif" font-size="14.00" fill="#000000">outputnode.t1w_aseg</text>
<polyline fill="none" stroke="#000000" points="1704,-474.5 1934,-474.5 "/>
<text text-anchor="middle" x="1819" y="-459.3" font-family="Times,serif" font-size="14.00" fill="#000000">outputnode.t1w_dseg</text>
<polyline fill="none" stroke="#000000" points="1704,-451.5 1934,-451.5 "/>
<text text-anchor="middle" x="1819" y="-436.3" font-family="Times,serif" font-size="14.00" fill="#000000">outputnode.t1w_mask</text>
<polyline fill="none" stroke="#000000" points="1704,-428.5 1934,-428.5 "/>
<text text-anchor="middle" x="1819" y="-413.3" font-family="Times,serif" font-size="14.00" fill="#000000">outputnode.t1w_preproc</text>
<polyline fill="none" stroke="#000000" points="1704,-405.5 1934,-405.5 "/>
<text text-anchor="middle" x="1819" y="-390.3" font-family="Times,serif" font-size="14.00" fill="#000000">outputnode.t1w_tpms</text>
<polyline fill="none" stroke="#000000" points="1704,-382.5 1934,-382.5 "/>
<text text-anchor="middle" x="1819" y="-367.3" font-family="Times,serif" font-size="14.00" fill="#000000">outputnode.template</text>
</g>
<!-- single_subject_THP0005_wfbidssrc&#45;&gt;single_subject_THP0005_wfanat_preproc_wf -->
<g id="edge18" class="edge">
<title>single_subject_THP0005_wfbidssrc:e&#45;&gt;single_subject_THP0005_wfanat_preproc_wf:w</title>
<path fill="none" stroke="#000000" d="M1005,-882.5C1112.8745,-882.5 1409.5915,-850.0107 1476,-765 1495.1523,-740.4828 1493.4418,-720.7621 1476,-695 1451.8474,-659.3258 1410.1526,-694.6742 1386,-659 1379.8954,-649.9833 1374.8017,-617.2578 1379.1322,-602.413"/>
<polygon fill="#000000" stroke="#000000" points="1381.7713,-604.7144 1386,-595 1376.6363,-599.957 1381.7713,-604.7144"/>
</g>
<!-- single_subject_THP0005_wfbidssrc&#45;&gt;single_subject_THP0005_wfanat_preproc_wf -->
<g id="edge19" class="edge">
<title>single_subject_THP0005_wfbidssrc:e&#45;&gt;single_subject_THP0005_wfanat_preproc_wf:w</title>
<path fill="none" stroke="#000000" d="M1005,-858.5C1103.44,-858.5 1376.1734,-841.6022 1438,-765 1457.5398,-740.7905 1452.4389,-722.5576 1438,-695 1424.9544,-670.1015 1399.0456,-683.8985 1386,-659 1376.6458,-641.1468 1366.065,-576.6786 1377.5404,-557.4503"/>
<polygon fill="#000000" stroke="#000000" points="1379.4892,-560.3583 1386,-552 1375.698,-554.4738 1379.4892,-560.3583"/>
</g>
<!-- single_subject_THP0005_wfbidssrc&#45;&gt;single_subject_THP0005_wfanat_preproc_wf -->
<g id="edge20" class="edge">
<title>single_subject_THP0005_wfbidssrc:e&#45;&gt;single_subject_THP0005_wfanat_preproc_wf:w</title>
<path fill="none" stroke="#000000" d="M1005,-835.5C1094.1649,-835.5 1342.7572,-833.3641 1400,-765 1419.9729,-741.1466 1405.7364,-725.5777 1400,-695 1396.8346,-678.1271 1389.1654,-675.8729 1386,-659 1381.7215,-636.1936 1364.4264,-468.3337 1378.9538,-431.2412"/>
<polygon fill="#000000" stroke="#000000" points="1381.5346,-433.6078 1386,-424 1376.5177,-428.7261 1381.5346,-433.6078"/>
</g>
<!-- single_subject_THP0005_wfbidssrc&#45;&gt;single_subject_THP0005_wfanat_preproc_wf -->
<g id="edge25" class="edge">
<title>single_subject_THP0005_wfbidssrc:e&#45;&gt;single_subject_THP0005_wfanat_preproc_wf:w</title>
<path fill="none" stroke="#000000" d="M1005,-812.5C1045.567,-812.5 1339.5002,-794.8235 1367,-765 1380.1501,-750.7387 1367.4681,-445.6459 1381.0297,-389.7529"/>
<polygon fill="#000000" stroke="#000000" points="1384.1056,-391.4241 1386,-381 1378.0185,-387.9676 1384.1056,-391.4241"/>
</g>
<!-- single_subject_THP0005_wfbids_info&#45;&gt;single_subject_THP0005_wfsummary -->
<g id="edge16" class="edge">
<title>single_subject_THP0005_wfbids_info:e&#45;&gt;single_subject_THP0005_wfsummary:w</title>
<path fill="none" stroke="#000000" d="M1358,-713C1366,-713 1362.994,-701.2498 1358,-695 1211.5072,-511.6671 989.4928,-761.8329 843,-578.5 829.6644,-561.8107 820.7662,-532.8433 833.1337,-523.7876"/>
<polygon fill="#000000" stroke="#000000" points="834.3284,-527.0872 843,-521 832.4251,-520.3509 834.3284,-527.0872"/>
</g>
<!-- single_subject_THP0005_wfbids_info&#45;&gt;single_subject_THP0005_wfanat_preproc_wf -->
<g id="edge14" class="edge">
<title>single_subject_THP0005_wfbids_info:e&#45;&gt;single_subject_THP0005_wfanat_preproc_wf:w</title>
<path fill="none" stroke="#000000" d="M1358,-713C1370.3967,-713 1369.8578,-671.2102 1372,-659 1374.4358,-645.1168 1370.8535,-547.7103 1379.8333,-518.354"/>
<polygon fill="#000000" stroke="#000000" points="1382.8769,-520.1241 1386,-510 1377.2451,-515.9668 1382.8769,-520.1241"/>
</g>
<!-- single_subject_THP0005_wfdwi_preproc_wf -->
<g id="node10" class="node">
<title>single_subject_THP0005_wfdwi_preproc_wf</title>
<polygon fill="none" stroke="#000000" points="1934,-.5 1934,-322.5 2336,-322.5 2336,-.5 1934,-.5"/>
<text text-anchor="middle" x="2044.5" y="-307.3" font-family="Times,serif" font-size="14.00" fill="#000000">IN</text>
<polyline fill="none" stroke="#000000" points="1934,-299.5 2155,-299.5 "/>
<text text-anchor="middle" x="2044.5" y="-284.3" font-family="Times,serif" font-size="14.00" fill="#000000">inputnode.anat2std_xfm</text>
<polyline fill="none" stroke="#000000" points="1934,-276.5 2155,-276.5 "/>
<text text-anchor="middle" x="2044.5" y="-261.3" font-family="Times,serif" font-size="14.00" fill="#000000">inputnode.fsnative2t1w_xfm</text>
<polyline fill="none" stroke="#000000" points="1934,-253.5 2155,-253.5 "/>
<text text-anchor="middle" x="2044.5" y="-238.3" font-family="Times,serif" font-size="14.00" fill="#000000">inputnode.std2anat_xfm</text>
<polyline fill="none" stroke="#000000" points="1934,-230.5 2155,-230.5 "/>
<text text-anchor="middle" x="2044.5" y="-215.3" font-family="Times,serif" font-size="14.00" fill="#000000">inputnode.subject_id</text>
<polyline fill="none" stroke="#000000" points="1934,-207.5 2155,-207.5 "/>
<text text-anchor="middle" x="2044.5" y="-192.3" font-family="Times,serif" font-size="14.00" fill="#000000">inputnode.subjects_dir</text>
<polyline fill="none" stroke="#000000" points="1934,-184.5 2155,-184.5 "/>
<text text-anchor="middle" x="2044.5" y="-169.3" font-family="Times,serif" font-size="14.00" fill="#000000">inputnode.t1w2fsnative_xfm</text>
<polyline fill="none" stroke="#000000" points="1934,-161.5 2155,-161.5 "/>
<text text-anchor="middle" x="2044.5" y="-146.3" font-family="Times,serif" font-size="14.00" fill="#000000">inputnode.t1w_aparc</text>
<polyline fill="none" stroke="#000000" points="1934,-138.5 2155,-138.5 "/>
<text text-anchor="middle" x="2044.5" y="-123.3" font-family="Times,serif" font-size="14.00" fill="#000000">inputnode.t1w_aseg</text>
<polyline fill="none" stroke="#000000" points="1934,-115.5 2155,-115.5 "/>
<text text-anchor="middle" x="2044.5" y="-100.3" font-family="Times,serif" font-size="14.00" fill="#000000">inputnode.t1w_dseg</text>
<polyline fill="none" stroke="#000000" points="1934,-92.5 2155,-92.5 "/>
<text text-anchor="middle" x="2044.5" y="-77.3" font-family="Times,serif" font-size="14.00" fill="#000000">inputnode.t1w_mask</text>
<polyline fill="none" stroke="#000000" points="1934,-69.5 2155,-69.5 "/>
<text text-anchor="middle" x="2044.5" y="-54.3" font-family="Times,serif" font-size="14.00" fill="#000000">inputnode.t1w_preproc</text>
<polyline fill="none" stroke="#000000" points="1934,-46.5 2155,-46.5 "/>
<text text-anchor="middle" x="2044.5" y="-31.3" font-family="Times,serif" font-size="14.00" fill="#000000">inputnode.t1w_tpms</text>
<polyline fill="none" stroke="#000000" points="1934,-23.5 2155,-23.5 "/>
<text text-anchor="middle" x="2044.5" y="-8.3" font-family="Times,serif" font-size="14.00" fill="#000000">inputnode.template</text>
<polyline fill="none" stroke="#000000" points="2155,-.5 2155,-322.5 "/>
<text text-anchor="middle" x="2220.5" y="-265.3" font-family="Times,serif" font-size="14.00" fill="#000000">dwi_preproc_wf</text>
<polyline fill="none" stroke="#000000" points="2155,-215.5 2286,-215.5 "/>
<text text-anchor="middle" x="2220.5" y="-158.3" font-family="Times,serif" font-size="14.00" fill="#000000"> </text>
<polyline fill="none" stroke="#000000" points="2155,-108.5 2286,-108.5 "/>
<text text-anchor="middle" x="2220.5" y="-50.8" font-family="Times,serif" font-size="14.00" fill="#000000"> </text>
<polyline fill="none" stroke="#000000" points="2286,-.5 2286,-322.5 "/>
<text text-anchor="middle" x="2311" y="-157.8" font-family="Times,serif" font-size="14.00" fill="#000000">OUT</text>
</g>
<!-- single_subject_THP0005_wfbids_info&#45;&gt;single_subject_THP0005_wfdwi_preproc_wf -->
<g id="edge15" class="edge">
<title>single_subject_THP0005_wfbids_info:e&#45;&gt;single_subject_THP0005_wfdwi_preproc_wf:w</title>
<path fill="none" stroke="#000000" d="M1358,-713C1367.8475,-713 1370.7354,-366.5979 1377,-359 1456.1131,-263.0483 1788.8882,-221.6215 1923.8617,-219.5797"/>
<polygon fill="#000000" stroke="#000000" points="1924.0278,-223.0786 1934,-219.5 1923.9728,-216.0788 1924.0278,-223.0786"/>
</g>
<!-- single_subject_THP0005_wffsinputnode -->
<g id="node6" class="node">
<title>single_subject_THP0005_wffsinputnode</title>
<polygon fill="none" stroke="#000000" points="890,-695.5 890,-764.5 1130,-764.5 1130,-695.5 890,-695.5"/>
<text text-anchor="middle" x="907.5" y="-726.3" font-family="Times,serif" font-size="14.00" fill="#000000">IN</text>
<polyline fill="none" stroke="#000000" points="925,-695.5 925,-764.5 "/>
<text text-anchor="middle" x="975.5" y="-749.3" font-family="Times,serif" font-size="14.00" fill="#000000">fsinputnode</text>
<polyline fill="none" stroke="#000000" points="925,-741.5 1026,-741.5 "/>
<text text-anchor="middle" x="975.5" y="-726.3" font-family="Times,serif" font-size="14.00" fill="#000000">utility</text>
<polyline fill="none" stroke="#000000" points="925,-718.5 1026,-718.5 "/>
<text text-anchor="middle" x="975.5" y="-703.3" font-family="Times,serif" font-size="14.00" fill="#000000"> </text>
<polyline fill="none" stroke="#000000" points="1026,-695.5 1026,-764.5 "/>
<text text-anchor="middle" x="1078" y="-743.8" font-family="Times,serif" font-size="14.00" fill="#000000">OUT</text>
<polyline fill="none" stroke="#000000" points="1026,-730.5 1130,-730.5 "/>
<text text-anchor="middle" x="1078" y="-709.3" font-family="Times,serif" font-size="14.00" fill="#000000">subjects_dir</text>
</g>
<!-- single_subject_THP0005_wffsinputnode&#45;&gt;single_subject_THP0005_wfsummary -->
<g id="edge28" class="edge">
<title>single_subject_THP0005_wffsinputnode:e&#45;&gt;single_subject_THP0005_wfsummary:w</title>
<path fill="none" stroke="#000000" d="M1130,-713C1138,-713 1134.4681,-701.6359 1130,-695 1053.1123,-580.8087 919.8877,-692.6913 843,-578.5 824.982,-551.7402 810.3266,-507.9994 832.9257,-498.7513"/>
<polygon fill="#000000" stroke="#000000" points="833.7472,-502.161 843,-497 832.5483,-495.2645 833.7472,-502.161"/>
</g>
<!-- single_subject_THP0005_wffsinputnode&#45;&gt;single_subject_THP0005_wfanat_preproc_wf -->
<g id="edge27" class="edge">
<title>single_subject_THP0005_wffsinputnode:e&#45;&gt;single_subject_THP0005_wfanat_preproc_wf:w</title>
<path fill="none" stroke="#000000" d="M1130,-713C1138.9443,-713 1133.6262,-702.15 1139,-695 1226.6556,-578.3718 1236.1899,-472.0953 1375.7259,-467.1777"/>
<polygon fill="#000000" stroke="#000000" points="1376.062,-470.6725 1386,-467 1375.9409,-463.6735 1376.062,-470.6725"/>
</g>
<!-- single_subject_THP0005_wfsummary&#45;&gt;single_subject_THP0005_wfds_report_summary -->
<g id="edge29" class="edge">
<title>single_subject_THP0005_wfsummary:e&#45;&gt;single_subject_THP0005_wfds_report_summary:w</title>
<path fill="none" stroke="#000000" d="M1123,-474C1283.4954,-474 785.0694,-175.3804 915.9649,-161.9659"/>
<polygon fill="#000000" stroke="#000000" points="916.1731,-165.4601 926,-161.5 915.8484,-158.4676 916.1731,-165.4601"/>
</g>
<!-- single_subject_THP0005_wfanat_preproc_wf&#45;&gt;single_subject_THP0005_wfdwi_preproc_wf -->
<g id="edge2" class="edge">
<title>single_subject_THP0005_wfanat_preproc_wf:e&#45;&gt;single_subject_THP0005_wfdwi_preproc_wf:w</title>
<path fill="none" stroke="#000000" d="M1934,-624C1934,-624 1934,-354.3639 1934,-298.5408"/>
<polygon fill="#000000" stroke="#000000" points="1937.5001,-298.5 1934,-288.5 1930.5001,-298.5 1937.5001,-298.5"/>
</g>
<!-- single_subject_THP0005_wfanat_preproc_wf&#45;&gt;single_subject_THP0005_wfdwi_preproc_wf -->
<g id="edge3" class="edge">
<title>single_subject_THP0005_wfanat_preproc_wf:e&#45;&gt;single_subject_THP0005_wfdwi_preproc_wf:w</title>
<path fill="none" stroke="#000000" d="M1934,-601C1934,-601 1934,-331.3639 1934,-275.5408"/>
<polygon fill="#000000" stroke="#000000" points="1937.5001,-275.5 1934,-265.5 1930.5001,-275.5 1937.5001,-275.5"/>
</g>
<!-- single_subject_THP0005_wfanat_preproc_wf&#45;&gt;single_subject_THP0005_wfdwi_preproc_wf -->
<g id="edge4" class="edge">
<title>single_subject_THP0005_wfanat_preproc_wf:e&#45;&gt;single_subject_THP0005_wfdwi_preproc_wf:w</title>
<path fill="none" stroke="#000000" d="M1934,-578C1934,-578 1934,-308.3639 1934,-252.5408"/>
<polygon fill="#000000" stroke="#000000" points="1937.5001,-252.5 1934,-242.5 1930.5001,-252.5 1937.5001,-252.5"/>
</g>
<!-- single_subject_THP0005_wfanat_preproc_wf&#45;&gt;single_subject_THP0005_wfdwi_preproc_wf -->
<g id="edge5" class="edge">
<title>single_subject_THP0005_wfanat_preproc_wf:e&#45;&gt;single_subject_THP0005_wfdwi_preproc_wf:w</title>
<path fill="none" stroke="#000000" d="M1934,-555C1934,-555 1934,-265.6224 1934,-206.8426"/>
<polygon fill="#000000" stroke="#000000" points="1937.5001,-206.5 1934,-196.5 1930.5001,-206.5 1937.5001,-206.5"/>
</g>
<!-- single_subject_THP0005_wfanat_preproc_wf&#45;&gt;single_subject_THP0005_wfdwi_preproc_wf -->
<g id="edge6" class="edge">
<title>single_subject_THP0005_wfanat_preproc_wf:e&#45;&gt;single_subject_THP0005_wfdwi_preproc_wf:w</title>
<path fill="none" stroke="#000000" d="M1934,-532C2089.7546,-532 1788.7406,-189.4236 1923.9763,-174.0345"/>
<polygon fill="#000000" stroke="#000000" points="1924.2006,-177.5276 1934,-173.5 1923.8278,-170.5375 1924.2006,-177.5276"/>
</g>
<!-- single_subject_THP0005_wfanat_preproc_wf&#45;&gt;single_subject_THP0005_wfdwi_preproc_wf -->
<g id="edge7" class="edge">
<title>single_subject_THP0005_wfanat_preproc_wf:e&#45;&gt;single_subject_THP0005_wfdwi_preproc_wf:w</title>
<path fill="none" stroke="#000000" d="M1934,-509C2090.189,-509 1788.3354,-165.468 1923.9483,-150.0359"/>
<polygon fill="#000000" stroke="#000000" points="1924.2006,-153.5276 1934,-149.5 1923.8278,-146.5375 1924.2006,-153.5276"/>
</g>
<!-- single_subject_THP0005_wfanat_preproc_wf&#45;&gt;single_subject_THP0005_wfdwi_preproc_wf -->
<g id="edge8" class="edge">
<title>single_subject_THP0005_wfanat_preproc_wf:e&#45;&gt;single_subject_THP0005_wfdwi_preproc_wf:w</title>
<path fill="none" stroke="#000000" d="M1934,-486C1934,-486 1934,-195.8152 1934,-136.8714"/>
<polygon fill="#000000" stroke="#000000" points="1937.5001,-136.5 1934,-126.5 1930.5001,-136.5 1937.5001,-136.5"/>
</g>
<!-- single_subject_THP0005_wfanat_preproc_wf&#45;&gt;single_subject_THP0005_wfdwi_preproc_wf -->
<g id="edge9" class="edge">
<title>single_subject_THP0005_wfanat_preproc_wf:e&#45;&gt;single_subject_THP0005_wfdwi_preproc_wf:w</title>
<path fill="none" stroke="#000000" d="M1934,-463C1934,-463 1934,-172.8152 1934,-113.8714"/>
<polygon fill="#000000" stroke="#000000" points="1937.5001,-113.5 1934,-103.5 1930.5001,-113.5 1937.5001,-113.5"/>
</g>
<!-- single_subject_THP0005_wfanat_preproc_wf&#45;&gt;single_subject_THP0005_wfdwi_preproc_wf -->
<g id="edge10" class="edge">
<title>single_subject_THP0005_wfanat_preproc_wf:e&#45;&gt;single_subject_THP0005_wfdwi_preproc_wf:w</title>
<path fill="none" stroke="#000000" d="M1934,-440C1934,-440 1934,-149.8152 1934,-90.8714"/>
<polygon fill="#000000" stroke="#000000" points="1937.5001,-90.5 1934,-80.5 1930.5001,-90.5 1937.5001,-90.5"/>
</g>
<!-- single_subject_THP0005_wfanat_preproc_wf&#45;&gt;single_subject_THP0005_wfdwi_preproc_wf -->
<g id="edge11" class="edge">
<title>single_subject_THP0005_wfanat_preproc_wf:e&#45;&gt;single_subject_THP0005_wfdwi_preproc_wf:w</title>
<path fill="none" stroke="#000000" d="M1934,-417C1934,-417 1934,-126.8152 1934,-67.8714"/>
<polygon fill="#000000" stroke="#000000" points="1937.5001,-67.5 1934,-57.5 1930.5001,-67.5 1937.5001,-67.5"/>
</g>
<!-- single_subject_THP0005_wfanat_preproc_wf&#45;&gt;single_subject_THP0005_wfdwi_preproc_wf -->
<g id="edge12" class="edge">
<title>single_subject_THP0005_wfanat_preproc_wf:e&#45;&gt;single_subject_THP0005_wfdwi_preproc_wf:w</title>
<path fill="none" stroke="#000000" d="M1934,-394C1934,-394 1934,-103.8152 1934,-44.8714"/>
<polygon fill="#000000" stroke="#000000" points="1937.5001,-44.5 1934,-34.5 1930.5001,-44.5 1937.5001,-44.5"/>
</g>
<!-- single_subject_THP0005_wfanat_preproc_wf&#45;&gt;single_subject_THP0005_wfdwi_preproc_wf -->
<g id="edge13" class="edge">
<title>single_subject_THP0005_wfanat_preproc_wf:e&#45;&gt;single_subject_THP0005_wfdwi_preproc_wf:w</title>
<path fill="none" stroke="#000000" d="M1934,-371C1934,-371 1934,-80.8152 1934,-21.8714"/>
<polygon fill="#000000" stroke="#000000" points="1937.5001,-21.5 1934,-11.5 1930.5001,-21.5 1937.5001,-21.5"/>
</g>
</g>
</svg>
