<?xml version="1.0" encoding="UTF-8" standalone="no"?>
<!DOCTYPE svg PUBLIC "-//W3C//DTD SVG 1.1//EN"
 "http://www.w3.org/Graphics/SVG/1.1/DTD/svg11.dtd">
<!-- Generated by graphviz version 2.40.1 (20161225.0304)
 -->
<!-- Title: structs Pages: 1 -->
<svg width="1855pt" height="672pt"
 viewBox="0.00 0.00 1855.00 672.00" xmlns="http://www.w3.org/2000/svg" xmlns:xlink="http://www.w3.org/1999/xlink">
<g id="graph0" class="graph" transform="scale(1 1) rotate(0) translate(4 668)">
<title>structs</title>
<polygon fill="#ffffff" stroke="transparent" points="-4,4 -4,-668 1851,-668 1851,4 -4,4"/>
<!-- single_subject_THP0005_wfinputnode -->
<g id="node1" class="node">
<title>single_subject_THP0005_wfinputnode</title>
<polygon fill="none" stroke="#000000" points="0,-560 0,-629 205,-629 205,-560 0,-560"/>
<text text-anchor="middle" x="17.5" y="-590.8" font-family="Times,serif" font-size="14.00" fill="#000000">IN</text>
<polyline fill="none" stroke="#000000" points="35,-560 35,-629 "/>
<text text-anchor="middle" x="79.5" y="-613.8" font-family="Times,serif" font-size="14.00" fill="#000000">inputnode</text>
<polyline fill="none" stroke="#000000" points="35,-606 124,-606 "/>
<text text-anchor="middle" x="79.5" y="-590.8" font-family="Times,serif" font-size="14.00" fill="#000000">utility</text>
<polyline fill="none" stroke="#000000" points="35,-583 124,-583 "/>
<text text-anchor="middle" x="79.5" y="-567.8" font-family="Times,serif" font-size="14.00" fill="#000000"> </text>
<polyline fill="none" stroke="#000000" points="124,-560 124,-629 "/>
<text text-anchor="middle" x="164.5" y="-608.3" font-family="Times,serif" font-size="14.00" fill="#000000">OUT</text>
<polyline fill="none" stroke="#000000" points="124,-595 205,-595 "/>
<text text-anchor="middle" x="164.5" y="-573.8" font-family="Times,serif" font-size="14.00" fill="#000000">dwi_data</text>
</g>
<!-- single_subject_THP0005_wfsplit_info -->
<g id="node2" class="node">
<title>single_subject_THP0005_wfsplit_info</title>
<polygon fill="none" stroke="#000000" points="206,-373.5 206,-488.5 447,-488.5 447,-373.5 206,-373.5"/>
<text text-anchor="middle" x="243" y="-456.3" font-family="Times,serif" font-size="14.00" fill="#000000">IN</text>
<polyline fill="none" stroke="#000000" points="206,-431.5 280,-431.5 "/>
<text text-anchor="middle" x="243" y="-398.8" font-family="Times,serif" font-size="14.00" fill="#000000">in_tuple</text>
<polyline fill="none" stroke="#000000" points="280,-373.5 280,-488.5 "/>
<text text-anchor="middle" x="321.5" y="-465.8" font-family="Times,serif" font-size="14.00" fill="#000000">split_info</text>
<polyline fill="none" stroke="#000000" points="280,-450.5 363,-450.5 "/>
<text text-anchor="middle" x="321.5" y="-427.8" font-family="Times,serif" font-size="14.00" fill="#000000">utility</text>
<polyline fill="none" stroke="#000000" points="280,-412.5 363,-412.5 "/>
<text text-anchor="middle" x="321.5" y="-389.3" font-family="Times,serif" font-size="14.00" fill="#000000"> </text>
<polyline fill="none" stroke="#000000" points="363,-373.5 363,-488.5 "/>
<text text-anchor="middle" x="405" y="-473.3" font-family="Times,serif" font-size="14.00" fill="#000000">OUT</text>
<polyline fill="none" stroke="#000000" points="363,-465.5 447,-465.5 "/>
<text text-anchor="middle" x="405" y="-450.3" font-family="Times,serif" font-size="14.00" fill="#000000">bval</text>
<polyline fill="none" stroke="#000000" points="363,-442.5 447,-442.5 "/>
<text text-anchor="middle" x="405" y="-427.3" font-family="Times,serif" font-size="14.00" fill="#000000">bvec</text>
<polyline fill="none" stroke="#000000" points="363,-419.5 447,-419.5 "/>
<text text-anchor="middle" x="405" y="-404.3" font-family="Times,serif" font-size="14.00" fill="#000000">dwi_file</text>
<polyline fill="none" stroke="#000000" points="363,-396.5 447,-396.5 "/>
<text text-anchor="middle" x="405" y="-381.3" font-family="Times,serif" font-size="14.00" fill="#000000">metadata</text>
</g>
<!-- single_subject_THP0005_wfinputnode&#45;&gt;single_subject_THP0005_wfsplit_info -->
<g id="edge19" class="edge">
<title>single_subject_THP0005_wfinputnode:e&#45;&gt;single_subject_THP0005_wfsplit_info:w</title>
<path fill="none" stroke="#000000" d="M205.5,-577.5C279.5391,-577.5 142.7403,-419.3717 195.3662,-403.3117"/>
<polygon fill="#000000" stroke="#000000" points="196.0321,-406.7548 205.5,-402 195.1334,-399.8128 196.0321,-406.7548"/>
</g>
<!-- single_subject_THP0005_wfearly_b0ref_wf -->
<g id="node3" class="node">
<title>single_subject_THP0005_wfearly_b0ref_wf</title>
<polygon fill="none" stroke="#000000" points="447.5,-210 447.5,-302 929.5,-302 929.5,-210 447.5,-210"/>
<text text-anchor="middle" x="522" y="-286.8" font-family="Times,serif" font-size="14.00" fill="#000000">IN</text>
<polyline fill="none" stroke="#000000" points="447.5,-279 596.5,-279 "/>
<text text-anchor="middle" x="522" y="-263.8" font-family="Times,serif" font-size="14.00" fill="#000000">inputnode.dwi_file</text>
<polyline fill="none" stroke="#000000" points="447.5,-256 596.5,-256 "/>
<text text-anchor="middle" x="522" y="-240.8" font-family="Times,serif" font-size="14.00" fill="#000000">inputnode.in_bval</text>
<polyline fill="none" stroke="#000000" points="447.5,-233 596.5,-233 "/>
<text text-anchor="middle" x="522" y="-217.8" font-family="Times,serif" font-size="14.00" fill="#000000">inputnode.in_bvec</text>
<polyline fill="none" stroke="#000000" points="596.5,-210 596.5,-302 "/>
<text text-anchor="middle" x="658" y="-283.3" font-family="Times,serif" font-size="14.00" fill="#000000">early_b0ref_wf</text>
<polyline fill="none" stroke="#000000" points="596.5,-272 719.5,-272 "/>
<text text-anchor="middle" x="658" y="-252.8" font-family="Times,serif" font-size="14.00" fill="#000000"> </text>
<polyline fill="none" stroke="#000000" points="596.5,-241 719.5,-241 "/>
<text text-anchor="middle" x="658" y="-221.8" font-family="Times,serif" font-size="14.00" fill="#000000"> </text>
<polyline fill="none" stroke="#000000" points="719.5,-210 719.5,-302 "/>
<text text-anchor="middle" x="824.5" y="-286.8" font-family="Times,serif" font-size="14.00" fill="#000000">OUT</text>
<polyline fill="none" stroke="#000000" points="719.5,-279 929.5,-279 "/>
<text text-anchor="middle" x="824.5" y="-263.8" font-family="Times,serif" font-size="14.00" fill="#000000">outputnode.dwi_mask</text>
<polyline fill="none" stroke="#000000" points="719.5,-256 929.5,-256 "/>
<text text-anchor="middle" x="824.5" y="-240.8" font-family="Times,serif" font-size="14.00" fill="#000000">outputnode.dwi_reference</text>
<polyline fill="none" stroke="#000000" points="719.5,-233 929.5,-233 "/>
<text text-anchor="middle" x="824.5" y="-217.8" font-family="Times,serif" font-size="14.00" fill="#000000">outputnode.gradients_rasb</text>
</g>
<!-- single_subject_THP0005_wfsplit_info&#45;&gt;single_subject_THP0005_wfearly_b0ref_wf -->
<g id="edge20" class="edge">
<title>single_subject_THP0005_wfsplit_info:e&#45;&gt;single_subject_THP0005_wfearly_b0ref_wf:w</title>
<path fill="none" stroke="#000000" d="M447.5,-454C468.0078,-454 434.4423,-291.78 441.8542,-252.4923"/>
<polygon fill="#000000" stroke="#000000" points="444.8784,-254.2654 447.5,-244 439.049,-250.3899 444.8784,-254.2654"/>
</g>
<!-- single_subject_THP0005_wfsplit_info&#45;&gt;single_subject_THP0005_wfearly_b0ref_wf -->
<g id="edge21" class="edge">
<title>single_subject_THP0005_wfsplit_info:e&#45;&gt;single_subject_THP0005_wfearly_b0ref_wf:w</title>
<path fill="none" stroke="#000000" d="M447.5,-431C468.0078,-431 434.4423,-268.78 441.8542,-229.4923"/>
<polygon fill="#000000" stroke="#000000" points="444.8784,-231.2654 447.5,-221 439.049,-227.3899 444.8784,-231.2654"/>
</g>
<!-- single_subject_THP0005_wfsplit_info&#45;&gt;single_subject_THP0005_wfearly_b0ref_wf -->
<g id="edge22" class="edge">
<title>single_subject_THP0005_wfsplit_info:e&#45;&gt;single_subject_THP0005_wfearly_b0ref_wf:w</title>
<path fill="none" stroke="#000000" d="M447.5,-408C460.625,-408 440.5273,-308.332 443.2703,-277.1858"/>
<polygon fill="#000000" stroke="#000000" points="446.4966,-278.5472 447.5,-268 440.1382,-275.6194 446.4966,-278.5472"/>
</g>
<!-- single_subject_THP0005_wfreferencenode -->
<g id="node4" class="node">
<title>single_subject_THP0005_wfreferencenode</title>
<polygon fill="none" stroke="#000000" points="929.5,-.5 929.5,-138.5 1223.5,-138.5 1223.5,-.5 929.5,-.5"/>
<text text-anchor="middle" x="991.5" y="-123.3" font-family="Times,serif" font-size="14.00" fill="#000000">IN</text>
<polyline fill="none" stroke="#000000" points="929.5,-115.5 1053.5,-115.5 "/>
<text text-anchor="middle" x="991.5" y="-100.3" font-family="Times,serif" font-size="14.00" fill="#000000">dwi_file</text>
<polyline fill="none" stroke="#000000" points="929.5,-92.5 1053.5,-92.5 "/>
<text text-anchor="middle" x="991.5" y="-77.3" font-family="Times,serif" font-size="14.00" fill="#000000">dwi_mask</text>
<polyline fill="none" stroke="#000000" points="929.5,-69.5 1053.5,-69.5 "/>
<text text-anchor="middle" x="991.5" y="-54.3" font-family="Times,serif" font-size="14.00" fill="#000000">dwi_reference</text>
<polyline fill="none" stroke="#000000" points="929.5,-46.5 1053.5,-46.5 "/>
<text text-anchor="middle" x="991.5" y="-31.3" font-family="Times,serif" font-size="14.00" fill="#000000">gradients_rasb</text>
<polyline fill="none" stroke="#000000" points="929.5,-23.5 1053.5,-23.5 "/>
<text text-anchor="middle" x="991.5" y="-8.3" font-family="Times,serif" font-size="14.00" fill="#000000">metadata</text>
<polyline fill="none" stroke="#000000" points="1053.5,-.5 1053.5,-138.5 "/>
<text text-anchor="middle" x="1113.5" y="-111.8" font-family="Times,serif" font-size="14.00" fill="#000000">referencenode</text>
<polyline fill="none" stroke="#000000" points="1053.5,-92.5 1173.5,-92.5 "/>
<text text-anchor="middle" x="1113.5" y="-65.8" font-family="Times,serif" font-size="14.00" fill="#000000">utility</text>
<polyline fill="none" stroke="#000000" points="1053.5,-46.5 1173.5,-46.5 "/>
<text text-anchor="middle" x="1113.5" y="-19.8" font-family="Times,serif" font-size="14.00" fill="#000000"> </text>
<polyline fill="none" stroke="#000000" points="1173.5,-.5 1173.5,-138.5 "/>
<text text-anchor="middle" x="1198.5" y="-65.8" font-family="Times,serif" font-size="14.00" fill="#000000">OUT</text>
</g>
<!-- single_subject_THP0005_wfsplit_info&#45;&gt;single_subject_THP0005_wfreferencenode -->
<g id="edge23" class="edge">
<title>single_subject_THP0005_wfsplit_info:e&#45;&gt;single_subject_THP0005_wfreferencenode:w</title>
<path fill="none" stroke="#000000" d="M447.5,-408C463.4567,-408 443.4015,-383.4041 455.5,-373 537.1064,-302.8228 865.2764,-415.8844 938.5,-337 987.4831,-284.2301 947.2972,-246.4605 938.5,-175 935.2134,-148.3027 908.0918,-115.9506 919.6184,-106.9342"/>
<polygon fill="#000000" stroke="#000000" points="920.6275,-110.2904 929.5,-104.5 918.9531,-103.4936 920.6275,-110.2904"/>
</g>
<!-- single_subject_THP0005_wfsplit_info&#45;&gt;single_subject_THP0005_wfreferencenode -->
<g id="edge24" class="edge">
<title>single_subject_THP0005_wfsplit_info:e&#45;&gt;single_subject_THP0005_wfreferencenode:w</title>
<path fill="none" stroke="#000000" d="M447.5,-385C453.9099,-385 449.9589,-376.2221 455.5,-373 553.5254,-315.9987 887.1987,-419.9617 964.5,-337 1013.5829,-284.323 991.5841,-241.7117 964.5,-175 956.1057,-154.3237 937.8943,-159.6763 929.5,-139 909.5993,-89.9821 877.4664,-21.3611 919.3972,-12.4636"/>
<polygon fill="#000000" stroke="#000000" points="919.8775,-15.9338 929.5,-11.5 919.2128,-8.9654 919.8775,-15.9338"/>
</g>
<!-- single_subject_THP0005_wfearly_b0ref_wf&#45;&gt;single_subject_THP0005_wfreferencenode -->
<g id="edge14" class="edge">
<title>single_subject_THP0005_wfearly_b0ref_wf:e&#45;&gt;single_subject_THP0005_wfreferencenode:w</title>
<path fill="none" stroke="#000000" d="M929.5,-268C966.8971,-268 903.0591,-116.1472 920.6837,-86.4884"/>
<polygon fill="#000000" stroke="#000000" points="922.5202,-89.4708 929.5,-81.5 919.073,-83.3784 922.5202,-89.4708"/>
</g>
<!-- single_subject_THP0005_wfearly_b0ref_wf&#45;&gt;single_subject_THP0005_wfreferencenode -->
<g id="edge15" class="edge">
<title>single_subject_THP0005_wfearly_b0ref_wf:e&#45;&gt;single_subject_THP0005_wfreferencenode:w</title>
<path fill="none" stroke="#000000" d="M929.5,-244C966.8971,-244 903.0591,-92.1472 920.6837,-62.4884"/>
<polygon fill="#000000" stroke="#000000" points="922.5202,-65.4708 929.5,-57.5 919.073,-59.3784 922.5202,-65.4708"/>
</g>
<!-- single_subject_THP0005_wfearly_b0ref_wf&#45;&gt;single_subject_THP0005_wfreferencenode -->
<g id="edge16" class="edge">
<title>single_subject_THP0005_wfearly_b0ref_wf:e&#45;&gt;single_subject_THP0005_wfreferencenode:w</title>
<path fill="none" stroke="#000000" d="M929.5,-221C929.5,-221 929.5,-83.265 929.5,-44.5271"/>
<polygon fill="#000000" stroke="#000000" points="933.0001,-44.5 929.5,-34.5 926.0001,-44.5 933.0001,-44.5"/>
</g>
<!-- single_subject_THP0005_wfabout -->
<g id="node5" class="node">
<title>single_subject_THP0005_wfabout</title>
<polygon fill="none" stroke="#000000" points="268.5,-560 268.5,-629 464.5,-629 464.5,-560 268.5,-560"/>
<text text-anchor="middle" x="286" y="-590.8" font-family="Times,serif" font-size="14.00" fill="#000000">IN</text>
<polyline fill="none" stroke="#000000" points="303.5,-560 303.5,-629 "/>
<text text-anchor="middle" x="338" y="-613.8" font-family="Times,serif" font-size="14.00" fill="#000000">about</text>
<polyline fill="none" stroke="#000000" points="303.5,-606 372.5,-606 "/>
<text text-anchor="middle" x="338" y="-590.8" font-family="Times,serif" font-size="14.00" fill="#000000">reports</text>
<polyline fill="none" stroke="#000000" points="303.5,-583 372.5,-583 "/>
<text text-anchor="middle" x="338" y="-567.8" font-family="Times,serif" font-size="14.00" fill="#000000"> </text>
<polyline fill="none" stroke="#000000" points="372.5,-560 372.5,-629 "/>
<text text-anchor="middle" x="418.5" y="-608.3" font-family="Times,serif" font-size="14.00" fill="#000000">OUT</text>
<polyline fill="none" stroke="#000000" points="372.5,-595 464.5,-595 "/>
<text text-anchor="middle" x="418.5" y="-573.8" font-family="Times,serif" font-size="14.00" fill="#000000">out_report</text>
</g>
<!-- single_subject_THP0005_wfds_report_about -->
<g id="node7" class="node">
<title>single_subject_THP0005_wfds_report_about</title>
<polygon fill="none" stroke="#000000" points="465,-396.5 465,-465.5 744,-465.5 744,-396.5 465,-396.5"/>
<text text-anchor="middle" x="512.5" y="-450.3" font-family="Times,serif" font-size="14.00" fill="#000000">IN</text>
<polyline fill="none" stroke="#000000" points="465,-442.5 560,-442.5 "/>
<text text-anchor="middle" x="512.5" y="-427.3" font-family="Times,serif" font-size="14.00" fill="#000000">in_file</text>
<polyline fill="none" stroke="#000000" points="465,-419.5 560,-419.5 "/>
<text text-anchor="middle" x="512.5" y="-404.3" font-family="Times,serif" font-size="14.00" fill="#000000">source_file</text>
<polyline fill="none" stroke="#000000" points="560,-396.5 560,-465.5 "/>
<text text-anchor="middle" x="627" y="-450.3" font-family="Times,serif" font-size="14.00" fill="#000000">ds_report_about</text>
<polyline fill="none" stroke="#000000" points="560,-442.5 694,-442.5 "/>
<text text-anchor="middle" x="627" y="-427.3" font-family="Times,serif" font-size="14.00" fill="#000000"> </text>
<polyline fill="none" stroke="#000000" points="560,-419.5 694,-419.5 "/>
<text text-anchor="middle" x="627" y="-404.3" font-family="Times,serif" font-size="14.00" fill="#000000"> </text>
<polyline fill="none" stroke="#000000" points="694,-396.5 694,-465.5 "/>
<text text-anchor="middle" x="719" y="-427.3" font-family="Times,serif" font-size="14.00" fill="#000000">OUT</text>
</g>
<!-- single_subject_THP0005_wfabout&#45;&gt;single_subject_THP0005_wfds_report_about -->
<g id="edge1" class="edge">
<title>single_subject_THP0005_wfabout:e&#45;&gt;single_subject_THP0005_wfds_report_about:w</title>
<path fill="none" stroke="#000000" d="M464.5,-577.5C478.298,-577.5 457.0081,-472.2367 460.1153,-440.1642"/>
<polygon fill="#000000" stroke="#000000" points="463.3412,-441.5313 464.5,-431 457.0267,-438.51 463.3412,-441.5313"/>
</g>
<!-- single_subject_THP0005_wfbidssrc -->
<g id="node6" class="node">
<title>single_subject_THP0005_wfbidssrc</title>
<polygon fill="none" stroke="#000000" points="1099.5,-525.5 1099.5,-663.5 1253.5,-663.5 1253.5,-525.5 1099.5,-525.5"/>
<text text-anchor="middle" x="1117" y="-590.8" font-family="Times,serif" font-size="14.00" fill="#000000">IN</text>
<polyline fill="none" stroke="#000000" points="1134.5,-525.5 1134.5,-663.5 "/>
<text text-anchor="middle" x="1169" y="-636.8" font-family="Times,serif" font-size="14.00" fill="#000000">bidssrc</text>
<polyline fill="none" stroke="#000000" points="1134.5,-617.5 1203.5,-617.5 "/>
<text text-anchor="middle" x="1169" y="-590.8" font-family="Times,serif" font-size="14.00" fill="#000000"> </text>
<polyline fill="none" stroke="#000000" points="1134.5,-571.5 1203.5,-571.5 "/>
<text text-anchor="middle" x="1169" y="-544.8" font-family="Times,serif" font-size="14.00" fill="#000000"> </text>
<polyline fill="none" stroke="#000000" points="1203.5,-525.5 1203.5,-663.5 "/>
<text text-anchor="middle" x="1228.5" y="-648.3" font-family="Times,serif" font-size="14.00" fill="#000000">OUT</text>
<polyline fill="none" stroke="#000000" points="1203.5,-640.5 1253.5,-640.5 "/>
<text text-anchor="middle" x="1228.5" y="-625.3" font-family="Times,serif" font-size="14.00" fill="#000000">dwi</text>
<polyline fill="none" stroke="#000000" points="1203.5,-617.5 1253.5,-617.5 "/>
<text text-anchor="middle" x="1228.5" y="-602.3" font-family="Times,serif" font-size="14.00" fill="#000000">flair</text>
<polyline fill="none" stroke="#000000" points="1203.5,-594.5 1253.5,-594.5 "/>
<text text-anchor="middle" x="1228.5" y="-579.3" font-family="Times,serif" font-size="14.00" fill="#000000">roi</text>
<polyline fill="none" stroke="#000000" points="1203.5,-571.5 1253.5,-571.5 "/>
<text text-anchor="middle" x="1228.5" y="-556.3" font-family="Times,serif" font-size="14.00" fill="#000000">t1w</text>
<polyline fill="none" stroke="#000000" points="1203.5,-548.5 1253.5,-548.5 "/>
<text text-anchor="middle" x="1228.5" y="-533.3" font-family="Times,serif" font-size="14.00" fill="#000000">t2w</text>
</g>
<!-- single_subject_THP0005_wfbidssrc&#45;&gt;single_subject_THP0005_wfds_report_about -->
<g id="edge9" class="edge">
<title>single_subject_THP0005_wfbidssrc:e&#45;&gt;single_subject_THP0005_wfds_report_about:w</title>
<path fill="none" stroke="#000000" d="M1253.5,-559.5C1268.8333,-559.5 1263.9417,-536.2286 1253.5,-525 1215.9472,-484.617 813.4888,-493.1505 758.5,-489 627.8059,-479.1354 553.4901,-562.2238 464.5,-466 457.9366,-458.9031 453.9683,-429.8265 457.8319,-415.7318"/>
<polygon fill="#000000" stroke="#000000" points="460.6195,-417.8586 464.5,-408 455.3185,-413.2869 460.6195,-417.8586"/>
</g>
<!-- single_subject_THP0005_wfbids_info -->
<g id="node8" class="node">
<title>single_subject_THP0005_wfbids_info</title>
<polygon fill="none" stroke="#000000" points="1134.5,-396.5 1134.5,-465.5 1344.5,-465.5 1344.5,-396.5 1134.5,-396.5"/>
<text text-anchor="middle" x="1164.5" y="-444.8" font-family="Times,serif" font-size="14.00" fill="#000000">IN</text>
<polyline fill="none" stroke="#000000" points="1134.5,-431.5 1194.5,-431.5 "/>
<text text-anchor="middle" x="1164.5" y="-410.3" font-family="Times,serif" font-size="14.00" fill="#000000">in_file</text>
<polyline fill="none" stroke="#000000" points="1194.5,-396.5 1194.5,-465.5 "/>
<text text-anchor="middle" x="1235" y="-450.3" font-family="Times,serif" font-size="14.00" fill="#000000">bids_info</text>
<polyline fill="none" stroke="#000000" points="1194.5,-442.5 1275.5,-442.5 "/>
<text text-anchor="middle" x="1235" y="-427.3" font-family="Times,serif" font-size="14.00" fill="#000000">bids</text>
<polyline fill="none" stroke="#000000" points="1194.5,-419.5 1275.5,-419.5 "/>
<text text-anchor="middle" x="1235" y="-404.3" font-family="Times,serif" font-size="14.00" fill="#000000"> </text>
<polyline fill="none" stroke="#000000" points="1275.5,-396.5 1275.5,-465.5 "/>
<text text-anchor="middle" x="1310" y="-444.8" font-family="Times,serif" font-size="14.00" fill="#000000">OUT</text>
<polyline fill="none" stroke="#000000" points="1275.5,-431.5 1344.5,-431.5 "/>
<text text-anchor="middle" x="1310" y="-410.3" font-family="Times,serif" font-size="14.00" fill="#000000">subject</text>
</g>
<!-- single_subject_THP0005_wfbidssrc&#45;&gt;single_subject_THP0005_wfbids_info -->
<g id="edge8" class="edge">
<title>single_subject_THP0005_wfbidssrc:e&#45;&gt;single_subject_THP0005_wfbids_info:w</title>
<path fill="none" stroke="#000000" d="M1253.5,-559.5C1268.8333,-559.5 1261.5832,-538.0297 1253.5,-525 1222.3803,-474.8363 1165.6197,-516.1637 1134.5,-466 1130.1216,-458.9422 1126.0675,-435.1667 1128.4241,-422.3513"/>
<polygon fill="#000000" stroke="#000000" points="1131.4471,-424.1455 1134.5,-414 1125.7866,-420.0273 1131.4471,-424.1455"/>
</g>
<!-- single_subject_THP0005_wfsummary -->
<g id="node10" class="node">
<title>single_subject_THP0005_wfsummary</title>
<polygon fill="none" stroke="#000000" points="1050,-187 1050,-325 1329,-325 1329,-187 1050,-187"/>
<text text-anchor="middle" x="1102" y="-309.8" font-family="Times,serif" font-size="14.00" fill="#000000">IN</text>
<polyline fill="none" stroke="#000000" points="1050,-302 1154,-302 "/>
<text text-anchor="middle" x="1102" y="-286.8" font-family="Times,serif" font-size="14.00" fill="#000000">dwi</text>
<polyline fill="none" stroke="#000000" points="1050,-279 1154,-279 "/>
<text text-anchor="middle" x="1102" y="-263.8" font-family="Times,serif" font-size="14.00" fill="#000000">subject_id</text>
<polyline fill="none" stroke="#000000" points="1050,-256 1154,-256 "/>
<text text-anchor="middle" x="1102" y="-240.8" font-family="Times,serif" font-size="14.00" fill="#000000">subjects_dir</text>
<polyline fill="none" stroke="#000000" points="1050,-233 1154,-233 "/>
<text text-anchor="middle" x="1102" y="-217.8" font-family="Times,serif" font-size="14.00" fill="#000000">t1w</text>
<polyline fill="none" stroke="#000000" points="1050,-210 1154,-210 "/>
<text text-anchor="middle" x="1102" y="-194.8" font-family="Times,serif" font-size="14.00" fill="#000000">t2w</text>
<polyline fill="none" stroke="#000000" points="1154,-187 1154,-325 "/>
<text text-anchor="middle" x="1195.5" y="-298.3" font-family="Times,serif" font-size="14.00" fill="#000000">summary</text>
<polyline fill="none" stroke="#000000" points="1154,-279 1237,-279 "/>
<text text-anchor="middle" x="1195.5" y="-252.3" font-family="Times,serif" font-size="14.00" fill="#000000">reports</text>
<polyline fill="none" stroke="#000000" points="1154,-233 1237,-233 "/>
<text text-anchor="middle" x="1195.5" y="-206.3" font-family="Times,serif" font-size="14.00" fill="#000000"> </text>
<polyline fill="none" stroke="#000000" points="1237,-187 1237,-325 "/>
<text text-anchor="middle" x="1283" y="-286.8" font-family="Times,serif" font-size="14.00" fill="#000000">OUT</text>
<polyline fill="none" stroke="#000000" points="1237,-256 1329,-256 "/>
<text text-anchor="middle" x="1283" y="-217.8" font-family="Times,serif" font-size="14.00" fill="#000000">out_report</text>
</g>
<!-- single_subject_THP0005_wfbidssrc&#45;&gt;single_subject_THP0005_wfsummary -->
<g id="edge4" class="edge">
<title>single_subject_THP0005_wfbidssrc:e&#45;&gt;single_subject_THP0005_wfsummary:w</title>
<path fill="none" stroke="#000000" d="M1253.5,-629.5C1299.9444,-629.5 1285.0253,-559.1063 1253.5,-525 1184.3532,-450.1919 865.6468,-563.8081 796.5,-489 761.5054,-451.1403 763.2207,-412.3759 796.5,-373 858.4743,-299.6722 925.7667,-383.9736 1009.5,-337 1029.6213,-325.7121 1024.8332,-300.2916 1039.6988,-292.9936"/>
<polygon fill="#000000" stroke="#000000" points="1040.3983,-296.4231 1049.5,-291 1039.003,-289.5635 1040.3983,-296.4231"/>
</g>
<!-- single_subject_THP0005_wfbidssrc&#45;&gt;single_subject_THP0005_wfsummary -->
<g id="edge11" class="edge">
<title>single_subject_THP0005_wfbidssrc:e&#45;&gt;single_subject_THP0005_wfsummary:w</title>
<path fill="none" stroke="#000000" d="M1253.5,-559.5C1268.8333,-559.5 1263.8679,-536.2968 1253.5,-525 1190.3096,-456.1476 897.6904,-557.8524 834.5,-489 799.64,-451.0164 801.9239,-412.9596 834.5,-373 884.6741,-311.4537 949.8442,-389.4078 1009.5,-337 1047.5896,-303.5382 1002.2938,-232.0335 1039.5569,-222.1435"/>
<polygon fill="#000000" stroke="#000000" points="1039.9654,-225.6197 1049.5,-221 1039.1656,-218.6655 1039.9654,-225.6197"/>
</g>
<!-- single_subject_THP0005_wfbidssrc&#45;&gt;single_subject_THP0005_wfsummary -->
<g id="edge13" class="edge">
<title>single_subject_THP0005_wfbidssrc:e&#45;&gt;single_subject_THP0005_wfsummary:w</title>
<path fill="none" stroke="#000000" d="M1253.5,-536.5C1258.6111,-536.5 1256.9422,-528.7782 1253.5,-525 1195.4801,-461.3171 925.5199,-552.6829 867.5,-489 832.7786,-450.8896 835.8394,-413.6888 867.5,-373 907.4831,-321.6155 962.7333,-382.2977 1009.5,-337 1052.9701,-294.8953 993.0718,-208.8777 1039.5372,-198.9421"/>
<polygon fill="#000000" stroke="#000000" points="1039.8739,-202.4259 1049.5,-198 1039.2149,-195.457 1039.8739,-202.4259"/>
</g>
<!-- single_subject_THP0005_wfds_report_summary -->
<g id="node11" class="node">
<title>single_subject_THP0005_wfds_report_summary</title>
<polygon fill="none" stroke="#000000" points="1542,-35 1542,-104 1847,-104 1847,-35 1542,-35"/>
<text text-anchor="middle" x="1589.5" y="-88.8" font-family="Times,serif" font-size="14.00" fill="#000000">IN</text>
<polyline fill="none" stroke="#000000" points="1542,-81 1637,-81 "/>
<text text-anchor="middle" x="1589.5" y="-65.8" font-family="Times,serif" font-size="14.00" fill="#000000">in_file</text>
<polyline fill="none" stroke="#000000" points="1542,-58 1637,-58 "/>
<text text-anchor="middle" x="1589.5" y="-42.8" font-family="Times,serif" font-size="14.00" fill="#000000">source_file</text>
<polyline fill="none" stroke="#000000" points="1637,-35 1637,-104 "/>
<text text-anchor="middle" x="1717" y="-88.8" font-family="Times,serif" font-size="14.00" fill="#000000">ds_report_summary</text>
<polyline fill="none" stroke="#000000" points="1637,-81 1797,-81 "/>
<text text-anchor="middle" x="1717" y="-65.8" font-family="Times,serif" font-size="14.00" fill="#000000"> </text>
<polyline fill="none" stroke="#000000" points="1637,-58 1797,-58 "/>
<text text-anchor="middle" x="1717" y="-42.8" font-family="Times,serif" font-size="14.00" fill="#000000"> </text>
<polyline fill="none" stroke="#000000" points="1797,-35 1797,-104 "/>
<text text-anchor="middle" x="1822" y="-65.8" font-family="Times,serif" font-size="14.00" fill="#000000">OUT</text>
</g>
<!-- single_subject_THP0005_wfbidssrc&#45;&gt;single_subject_THP0005_wfds_report_summary -->
<g id="edge10" class="edge">
<title>single_subject_THP0005_wfbidssrc:e&#45;&gt;single_subject_THP0005_wfds_report_summary:w</title>
<path fill="none" stroke="#000000" d="M1253.5,-559.5C1352.6236,-559.5 1723.8231,-355.9496 1735.5,-337 1773.2716,-275.7031 1776.8123,-233.9686 1735.5,-175 1682.8618,-99.865 1594.1382,-179.635 1541.5,-104.5 1529.1358,-86.8515 1519.4297,-58.1792 1531.6357,-49.2461"/>
<polygon fill="#000000" stroke="#000000" points="1532.805,-52.5538 1541.5,-46.5 1530.9276,-45.8102 1532.805,-52.5538"/>
</g>
<!-- single_subject_THP0005_wfanat_preproc_wf -->
<g id="node12" class="node">
<title>single_subject_THP0005_wfanat_preproc_wf</title>
<polygon fill="none" stroke="#000000" points="1358.5,-175.5 1358.5,-336.5 1726.5,-336.5 1726.5,-175.5 1358.5,-175.5"/>
<text text-anchor="middle" x="1449" y="-321.3" font-family="Times,serif" font-size="14.00" fill="#000000">IN</text>
<polyline fill="none" stroke="#000000" points="1358.5,-313.5 1539.5,-313.5 "/>
<text text-anchor="middle" x="1449" y="-298.3" font-family="Times,serif" font-size="14.00" fill="#000000">inputnode.flair</text>
<polyline fill="none" stroke="#000000" points="1358.5,-290.5 1539.5,-290.5 "/>
<text text-anchor="middle" x="1449" y="-275.3" font-family="Times,serif" font-size="14.00" fill="#000000">inputnode.roi</text>
<polyline fill="none" stroke="#000000" points="1358.5,-267.5 1539.5,-267.5 "/>
<text text-anchor="middle" x="1449" y="-252.3" font-family="Times,serif" font-size="14.00" fill="#000000">inputnode.subject_id</text>
<polyline fill="none" stroke="#000000" points="1358.5,-244.5 1539.5,-244.5 "/>
<text text-anchor="middle" x="1449" y="-229.3" font-family="Times,serif" font-size="14.00" fill="#000000">inputnode.subjects_dir</text>
<polyline fill="none" stroke="#000000" points="1358.5,-221.5 1539.5,-221.5 "/>
<text text-anchor="middle" x="1449" y="-206.3" font-family="Times,serif" font-size="14.00" fill="#000000">inputnode.t1w</text>
<polyline fill="none" stroke="#000000" points="1358.5,-198.5 1539.5,-198.5 "/>
<text text-anchor="middle" x="1449" y="-183.3" font-family="Times,serif" font-size="14.00" fill="#000000">inputnode.t2w</text>
<polyline fill="none" stroke="#000000" points="1539.5,-175.5 1539.5,-336.5 "/>
<text text-anchor="middle" x="1608" y="-306.3" font-family="Times,serif" font-size="14.00" fill="#000000">anat_preproc_wf</text>
<polyline fill="none" stroke="#000000" points="1539.5,-283.5 1676.5,-283.5 "/>
<text text-anchor="middle" x="1608" y="-252.8" font-family="Times,serif" font-size="14.00" fill="#000000"> </text>
<polyline fill="none" stroke="#000000" points="1539.5,-229.5 1676.5,-229.5 "/>
<text text-anchor="middle" x="1608" y="-198.8" font-family="Times,serif" font-size="14.00" fill="#000000"> </text>
<polyline fill="none" stroke="#000000" points="1676.5,-175.5 1676.5,-336.5 "/>
<text text-anchor="middle" x="1701.5" y="-252.3" font-family="Times,serif" font-size="14.00" fill="#000000">OUT</text>
</g>
<!-- single_subject_THP0005_wfbidssrc&#45;&gt;single_subject_THP0005_wfanat_preproc_wf -->
<g id="edge5" class="edge">
<title>single_subject_THP0005_wfbidssrc:e&#45;&gt;single_subject_THP0005_wfanat_preproc_wf:w</title>
<path fill="none" stroke="#000000" d="M1253.5,-606.5C1322.0746,-606.5 1328.9633,-553.0345 1353.5,-489 1355.0942,-484.8396 1353.8103,-350.3364 1356.6873,-312.0666"/>
<polygon fill="#000000" stroke="#000000" points="1360.1723,-312.462 1358.5,-302 1353.2831,-311.2214 1360.1723,-312.462"/>
</g>
<!-- single_subject_THP0005_wfbidssrc&#45;&gt;single_subject_THP0005_wfanat_preproc_wf -->
<g id="edge6" class="edge">
<title>single_subject_THP0005_wfbidssrc:e&#45;&gt;single_subject_THP0005_wfanat_preproc_wf:w</title>
<path fill="none" stroke="#000000" d="M1253.5,-582.5C1319.3727,-582.5 1340.1995,-548.4836 1368.5,-489 1390.6495,-442.4449 1375.4631,-424.0832 1368.5,-373 1366.2572,-356.5463 1360.7428,-353.4537 1358.5,-337 1355.6441,-316.0479 1340.1275,-290.4414 1348.8727,-281.9156"/>
<polygon fill="#000000" stroke="#000000" points="1349.9437,-285.2483 1358.5,-279 1347.9148,-278.5487 1349.9437,-285.2483"/>
</g>
<!-- single_subject_THP0005_wfbidssrc&#45;&gt;single_subject_THP0005_wfanat_preproc_wf -->
<g id="edge7" class="edge">
<title>single_subject_THP0005_wfbidssrc:e&#45;&gt;single_subject_THP0005_wfanat_preproc_wf:w</title>
<path fill="none" stroke="#000000" d="M1253.5,-559.5C1320.7952,-559.5 1352.7145,-546.6074 1387.5,-489 1414.1495,-444.8664 1404.6474,-421.6204 1387.5,-373 1380.6665,-353.6241 1365.3335,-356.3759 1358.5,-337 1350.36,-313.9194 1335.1143,-235.3634 1349.613,-214.9041"/>
<polygon fill="#000000" stroke="#000000" points="1351.4356,-217.8959 1358.5,-210 1348.0536,-211.7671 1351.4356,-217.8959"/>
</g>
<!-- single_subject_THP0005_wfbidssrc&#45;&gt;single_subject_THP0005_wfanat_preproc_wf -->
<g id="edge12" class="edge">
<title>single_subject_THP0005_wfbidssrc:e&#45;&gt;single_subject_THP0005_wfanat_preproc_wf:w</title>
<path fill="none" stroke="#000000" d="M1253.5,-536.5C1289.7381,-536.5 1387.9282,-518.118 1409.5,-489 1440.19,-447.5742 1433.2188,-418.7755 1409.5,-373 1396.7356,-348.3657 1371.2644,-361.6343 1358.5,-337 1344.8419,-310.6409 1329.0719,-212.252 1349.3341,-191.0448"/>
<polygon fill="#000000" stroke="#000000" points="1350.7642,-194.2394 1358.5,-187 1347.9381,-187.8352 1350.7642,-194.2394"/>
</g>
<!-- single_subject_THP0005_wfbids_info&#45;&gt;single_subject_THP0005_wfsummary -->
<g id="edge3" class="edge">
<title>single_subject_THP0005_wfbids_info:e&#45;&gt;single_subject_THP0005_wfsummary:w</title>
<path fill="none" stroke="#000000" d="M1344.5,-414C1352.5,-414 1349.456,-402.28 1344.5,-396 1260.9893,-290.18 1133.0107,-431.32 1049.5,-325.5 1036.2657,-308.7302 1027.2995,-279.8169 1039.6418,-270.7811"/>
<polygon fill="#000000" stroke="#000000" points="1040.826,-274.0837 1049.5,-268 1038.9253,-267.3467 1040.826,-274.0837"/>
</g>
<!-- single_subject_THP0005_wfbids_info&#45;&gt;single_subject_THP0005_wfanat_preproc_wf -->
<g id="edge2" class="edge">
<title>single_subject_THP0005_wfbids_info:e&#45;&gt;single_subject_THP0005_wfanat_preproc_wf:w</title>
<path fill="none" stroke="#000000" d="M1344.5,-414C1375.8934,-414 1334.5126,-288.6724 1349.9866,-261.2569"/>
<polygon fill="#000000" stroke="#000000" points="1351.8303,-264.232 1358.5,-256 1348.1525,-258.276 1351.8303,-264.232"/>
</g>
<!-- single_subject_THP0005_wffsinputnode -->
<g id="node9" class="node">
<title>single_subject_THP0005_wffsinputnode</title>
<polygon fill="none" stroke="#000000" points="876.5,-396.5 876.5,-465.5 1116.5,-465.5 1116.5,-396.5 876.5,-396.5"/>
<text text-anchor="middle" x="894" y="-427.3" font-family="Times,serif" font-size="14.00" fill="#000000">IN</text>
<polyline fill="none" stroke="#000000" points="911.5,-396.5 911.5,-465.5 "/>
<text text-anchor="middle" x="962" y="-450.3" font-family="Times,serif" font-size="14.00" fill="#000000">fsinputnode</text>
<polyline fill="none" stroke="#000000" points="911.5,-442.5 1012.5,-442.5 "/>
<text text-anchor="middle" x="962" y="-427.3" font-family="Times,serif" font-size="14.00" fill="#000000">utility</text>
<polyline fill="none" stroke="#000000" points="911.5,-419.5 1012.5,-419.5 "/>
<text text-anchor="middle" x="962" y="-404.3" font-family="Times,serif" font-size="14.00" fill="#000000"> </text>
<polyline fill="none" stroke="#000000" points="1012.5,-396.5 1012.5,-465.5 "/>
<text text-anchor="middle" x="1064.5" y="-444.8" font-family="Times,serif" font-size="14.00" fill="#000000">OUT</text>
<polyline fill="none" stroke="#000000" points="1012.5,-431.5 1116.5,-431.5 "/>
<text text-anchor="middle" x="1064.5" y="-410.3" font-family="Times,serif" font-size="14.00" fill="#000000">subjects_dir</text>
</g>
<!-- single_subject_THP0005_wffsinputnode&#45;&gt;single_subject_THP0005_wfsummary -->
<g id="edge18" class="edge">
<title>single_subject_THP0005_wffsinputnode:e&#45;&gt;single_subject_THP0005_wfsummary:w</title>
<path fill="none" stroke="#000000" d="M1116.5,-414C1124.5,-414 1119.4672,-403.4294 1116.5,-396 1100.4676,-355.8571 1065.5324,-365.6429 1049.5,-325.5 1037.5872,-295.672 1018.3206,-254.6611 1039.3625,-245.7523"/>
<polygon fill="#000000" stroke="#000000" points="1040.2423,-249.1522 1049.5,-244 1039.0499,-242.2545 1040.2423,-249.1522"/>
</g>
<!-- single_subject_THP0005_wffsinputnode&#45;&gt;single_subject_THP0005_wfanat_preproc_wf -->
<g id="edge17" class="edge">
<title>single_subject_THP0005_wffsinputnode:e&#45;&gt;single_subject_THP0005_wfanat_preproc_wf:w</title>
<path fill="none" stroke="#000000" d="M1116.5,-414C1135.1561,-414 1111.9962,-385.8723 1125.5,-373 1194.6772,-307.058 1268.8805,-403.5221 1337.5,-337 1368.4475,-306.9984 1320.9662,-244.9504 1348.5896,-234.5075"/>
<polygon fill="#000000" stroke="#000000" points="1349.1401,-237.9641 1358.5,-233 1348.0874,-231.0437 1349.1401,-237.9641"/>
</g>
<!-- single_subject_THP0005_wfsummary&#45;&gt;single_subject_THP0005_wfds_report_summary -->
<g id="edge25" class="edge">
<title>single_subject_THP0005_wfsummary:e&#45;&gt;single_subject_THP0005_wfds_report_summary:w</title>
<path fill="none" stroke="#000000" d="M1329.5,-221C1351.7932,-221 1334.4805,-191.4743 1349.5,-175 1412.7926,-105.5772 1442.0463,-71.9063 1531.4796,-69.6246"/>
<polygon fill="#000000" stroke="#000000" points="1531.5443,-73.1242 1541.5,-69.5 1531.4572,-66.1247 1531.5443,-73.1242"/>
</g>
</g>
</svg>
