<?xml version="1.0" encoding="UTF-8" standalone="no"?>
<!DOCTYPE svg PUBLIC "-//W3C//DTD SVG 1.1//EN"
 "http://www.w3.org/Graphics/SVG/1.1/DTD/svg11.dtd">
<!-- Generated by graphviz version 2.40.1 (20161225.0304)
 -->
<!-- Title: structs Pages: 1 -->
<svg width="2107pt" height="971pt"
 viewBox="0.00 0.00 2107.00 971.00" xmlns="http://www.w3.org/2000/svg" xmlns:xlink="http://www.w3.org/1999/xlink">
<g id="graph0" class="graph" transform="scale(1 1) rotate(0) translate(4 967)">
<title>structs</title>
<polygon fill="#ffffff" stroke="transparent" points="-4,4 -4,-967 2103,-967 2103,4 -4,4"/>
<!-- single_subject_THP0005_wfabout -->
<g id="node1" class="node">
<title>single_subject_THP0005_wfabout</title>
<polygon fill="none" stroke="#000000" points="0,-859 0,-928 196,-928 196,-859 0,-859"/>
<text text-anchor="middle" x="17.5" y="-889.8" font-family="Times,serif" font-size="14.00" fill="#000000">IN</text>
<polyline fill="none" stroke="#000000" points="35,-859 35,-928 "/>
<text text-anchor="middle" x="69.5" y="-912.8" font-family="Times,serif" font-size="14.00" fill="#000000">about</text>
<polyline fill="none" stroke="#000000" points="35,-905 104,-905 "/>
<text text-anchor="middle" x="69.5" y="-889.8" font-family="Times,serif" font-size="14.00" fill="#000000">reports</text>
<polyline fill="none" stroke="#000000" points="35,-882 104,-882 "/>
<text text-anchor="middle" x="69.5" y="-866.8" font-family="Times,serif" font-size="14.00" fill="#000000"> </text>
<polyline fill="none" stroke="#000000" points="104,-859 104,-928 "/>
<text text-anchor="middle" x="150" y="-907.3" font-family="Times,serif" font-size="14.00" fill="#000000">OUT</text>
<polyline fill="none" stroke="#000000" points="104,-894 196,-894 "/>
<text text-anchor="middle" x="150" y="-872.8" font-family="Times,serif" font-size="14.00" fill="#000000">out_report</text>
</g>
<!-- single_subject_THP0005_wfds_report_about -->
<g id="node3" class="node">
<title>single_subject_THP0005_wfds_report_about</title>
<polygon fill="none" stroke="#000000" points="196.5,-718.5 196.5,-787.5 475.5,-787.5 475.5,-718.5 196.5,-718.5"/>
<text text-anchor="middle" x="244" y="-772.3" font-family="Times,serif" font-size="14.00" fill="#000000">IN</text>
<polyline fill="none" stroke="#000000" points="196.5,-764.5 291.5,-764.5 "/>
<text text-anchor="middle" x="244" y="-749.3" font-family="Times,serif" font-size="14.00" fill="#000000">in_file</text>
<polyline fill="none" stroke="#000000" points="196.5,-741.5 291.5,-741.5 "/>
<text text-anchor="middle" x="244" y="-726.3" font-family="Times,serif" font-size="14.00" fill="#000000">source_file</text>
<polyline fill="none" stroke="#000000" points="291.5,-718.5 291.5,-787.5 "/>
<text text-anchor="middle" x="358.5" y="-772.3" font-family="Times,serif" font-size="14.00" fill="#000000">ds_report_about</text>
<polyline fill="none" stroke="#000000" points="291.5,-764.5 425.5,-764.5 "/>
<text text-anchor="middle" x="358.5" y="-749.3" font-family="Times,serif" font-size="14.00" fill="#000000"> </text>
<polyline fill="none" stroke="#000000" points="291.5,-741.5 425.5,-741.5 "/>
<text text-anchor="middle" x="358.5" y="-726.3" font-family="Times,serif" font-size="14.00" fill="#000000"> </text>
<polyline fill="none" stroke="#000000" points="425.5,-718.5 425.5,-787.5 "/>
<text text-anchor="middle" x="450.5" y="-749.3" font-family="Times,serif" font-size="14.00" fill="#000000">OUT</text>
</g>
<!-- single_subject_THP0005_wfabout&#45;&gt;single_subject_THP0005_wfds_report_about -->
<g id="edge1" class="edge">
<title>single_subject_THP0005_wfabout:e&#45;&gt;single_subject_THP0005_wfds_report_about:w</title>
<path fill="none" stroke="#000000" d="M196,-876.5C246.6007,-876.5 157.2588,-771.5431 185.9935,-755.1436"/>
<polygon fill="#000000" stroke="#000000" points="186.955,-758.5171 196,-753 185.4887,-751.6724 186.955,-758.5171"/>
</g>
<!-- single_subject_THP0005_wfbidssrc -->
<g id="node2" class="node">
<title>single_subject_THP0005_wfbidssrc</title>
<polygon fill="none" stroke="#000000" points="478,-824.5 478,-962.5 632,-962.5 632,-824.5 478,-824.5"/>
<text text-anchor="middle" x="495.5" y="-889.8" font-family="Times,serif" font-size="14.00" fill="#000000">IN</text>
<polyline fill="none" stroke="#000000" points="513,-824.5 513,-962.5 "/>
<text text-anchor="middle" x="547.5" y="-935.8" font-family="Times,serif" font-size="14.00" fill="#000000">bidssrc</text>
<polyline fill="none" stroke="#000000" points="513,-916.5 582,-916.5 "/>
<text text-anchor="middle" x="547.5" y="-889.8" font-family="Times,serif" font-size="14.00" fill="#000000"> </text>
<polyline fill="none" stroke="#000000" points="513,-870.5 582,-870.5 "/>
<text text-anchor="middle" x="547.5" y="-843.8" font-family="Times,serif" font-size="14.00" fill="#000000"> </text>
<polyline fill="none" stroke="#000000" points="582,-824.5 582,-962.5 "/>
<text text-anchor="middle" x="607" y="-947.3" font-family="Times,serif" font-size="14.00" fill="#000000">OUT</text>
<polyline fill="none" stroke="#000000" points="582,-939.5 632,-939.5 "/>
<text text-anchor="middle" x="607" y="-924.3" font-family="Times,serif" font-size="14.00" fill="#000000">dwi</text>
<polyline fill="none" stroke="#000000" points="582,-916.5 632,-916.5 "/>
<text text-anchor="middle" x="607" y="-901.3" font-family="Times,serif" font-size="14.00" fill="#000000">flair</text>
<polyline fill="none" stroke="#000000" points="582,-893.5 632,-893.5 "/>
<text text-anchor="middle" x="607" y="-878.3" font-family="Times,serif" font-size="14.00" fill="#000000">roi</text>
<polyline fill="none" stroke="#000000" points="582,-870.5 632,-870.5 "/>
<text text-anchor="middle" x="607" y="-855.3" font-family="Times,serif" font-size="14.00" fill="#000000">t1w</text>
<polyline fill="none" stroke="#000000" points="582,-847.5 632,-847.5 "/>
<text text-anchor="middle" x="607" y="-832.3" font-family="Times,serif" font-size="14.00" fill="#000000">t2w</text>
</g>
<!-- single_subject_THP0005_wfbidssrc&#45;&gt;single_subject_THP0005_wfds_report_about -->
<g id="edge22" class="edge">
<title>single_subject_THP0005_wfbidssrc:e&#45;&gt;single_subject_THP0005_wfds_report_about:w</title>
<path fill="none" stroke="#000000" d="M632,-858.5C647.3333,-858.5 642.3866,-835.2796 632,-824 566.1452,-752.4835 261.8548,-859.5165 196,-788 181.2668,-772.0002 173.0443,-741.709 186.3186,-732.6337"/>
<polygon fill="#000000" stroke="#000000" points="187.2694,-736.0023 196,-730 185.4319,-729.2478 187.2694,-736.0023"/>
</g>
<!-- single_subject_THP0005_wfbids_info -->
<g id="node4" class="node">
<title>single_subject_THP0005_wfbids_info</title>
<polygon fill="none" stroke="#000000" points="646,-718.5 646,-787.5 856,-787.5 856,-718.5 646,-718.5"/>
<text text-anchor="middle" x="676" y="-766.8" font-family="Times,serif" font-size="14.00" fill="#000000">IN</text>
<polyline fill="none" stroke="#000000" points="646,-753.5 706,-753.5 "/>
<text text-anchor="middle" x="676" y="-732.3" font-family="Times,serif" font-size="14.00" fill="#000000">in_file</text>
<polyline fill="none" stroke="#000000" points="706,-718.5 706,-787.5 "/>
<text text-anchor="middle" x="746.5" y="-772.3" font-family="Times,serif" font-size="14.00" fill="#000000">bids_info</text>
<polyline fill="none" stroke="#000000" points="706,-764.5 787,-764.5 "/>
<text text-anchor="middle" x="746.5" y="-749.3" font-family="Times,serif" font-size="14.00" fill="#000000">bids</text>
<polyline fill="none" stroke="#000000" points="706,-741.5 787,-741.5 "/>
<text text-anchor="middle" x="746.5" y="-726.3" font-family="Times,serif" font-size="14.00" fill="#000000"> </text>
<polyline fill="none" stroke="#000000" points="787,-718.5 787,-787.5 "/>
<text text-anchor="middle" x="821.5" y="-766.8" font-family="Times,serif" font-size="14.00" fill="#000000">OUT</text>
<polyline fill="none" stroke="#000000" points="787,-753.5 856,-753.5 "/>
<text text-anchor="middle" x="821.5" y="-732.3" font-family="Times,serif" font-size="14.00" fill="#000000">subject</text>
</g>
<!-- single_subject_THP0005_wfbidssrc&#45;&gt;single_subject_THP0005_wfbids_info -->
<g id="edge21" class="edge">
<title>single_subject_THP0005_wfbidssrc:e&#45;&gt;single_subject_THP0005_wfbids_info:w</title>
<path fill="none" stroke="#000000" d="M632,-858.5C655.5464,-858.5 628.7266,-768.0306 638.1075,-742.5861"/>
<polygon fill="#000000" stroke="#000000" points="640.5646,-745.0943 646,-736 636.0796,-739.7198 640.5646,-745.0943"/>
</g>
<!-- single_subject_THP0005_wfsummary -->
<g id="node6" class="node">
<title>single_subject_THP0005_wfsummary</title>
<polygon fill="none" stroke="#000000" points="599.5,-451.5 599.5,-589.5 878.5,-589.5 878.5,-451.5 599.5,-451.5"/>
<text text-anchor="middle" x="651.5" y="-574.3" font-family="Times,serif" font-size="14.00" fill="#000000">IN</text>
<polyline fill="none" stroke="#000000" points="599.5,-566.5 703.5,-566.5 "/>
<text text-anchor="middle" x="651.5" y="-551.3" font-family="Times,serif" font-size="14.00" fill="#000000">dwi</text>
<polyline fill="none" stroke="#000000" points="599.5,-543.5 703.5,-543.5 "/>
<text text-anchor="middle" x="651.5" y="-528.3" font-family="Times,serif" font-size="14.00" fill="#000000">subject_id</text>
<polyline fill="none" stroke="#000000" points="599.5,-520.5 703.5,-520.5 "/>
<text text-anchor="middle" x="651.5" y="-505.3" font-family="Times,serif" font-size="14.00" fill="#000000">subjects_dir</text>
<polyline fill="none" stroke="#000000" points="599.5,-497.5 703.5,-497.5 "/>
<text text-anchor="middle" x="651.5" y="-482.3" font-family="Times,serif" font-size="14.00" fill="#000000">t1w</text>
<polyline fill="none" stroke="#000000" points="599.5,-474.5 703.5,-474.5 "/>
<text text-anchor="middle" x="651.5" y="-459.3" font-family="Times,serif" font-size="14.00" fill="#000000">t2w</text>
<polyline fill="none" stroke="#000000" points="703.5,-451.5 703.5,-589.5 "/>
<text text-anchor="middle" x="745" y="-562.8" font-family="Times,serif" font-size="14.00" fill="#000000">summary</text>
<polyline fill="none" stroke="#000000" points="703.5,-543.5 786.5,-543.5 "/>
<text text-anchor="middle" x="745" y="-516.8" font-family="Times,serif" font-size="14.00" fill="#000000">reports</text>
<polyline fill="none" stroke="#000000" points="703.5,-497.5 786.5,-497.5 "/>
<text text-anchor="middle" x="745" y="-470.8" font-family="Times,serif" font-size="14.00" fill="#000000"> </text>
<polyline fill="none" stroke="#000000" points="786.5,-451.5 786.5,-589.5 "/>
<text text-anchor="middle" x="832.5" y="-551.3" font-family="Times,serif" font-size="14.00" fill="#000000">OUT</text>
<polyline fill="none" stroke="#000000" points="786.5,-520.5 878.5,-520.5 "/>
<text text-anchor="middle" x="832.5" y="-482.3" font-family="Times,serif" font-size="14.00" fill="#000000">out_report</text>
</g>
<!-- single_subject_THP0005_wfbidssrc&#45;&gt;single_subject_THP0005_wfsummary -->
<g id="edge17" class="edge">
<title>single_subject_THP0005_wfbidssrc:e&#45;&gt;single_subject_THP0005_wfsummary:w</title>
<path fill="none" stroke="#000000" d="M632,-928.5C711.3121,-928.5 533.8624,-589.6492 589.1031,-557.8819"/>
<polygon fill="#000000" stroke="#000000" points="590.0966,-561.2428 599,-555.5 588.4586,-554.4371 590.0966,-561.2428"/>
</g>
<!-- single_subject_THP0005_wfbidssrc&#45;&gt;single_subject_THP0005_wfsummary -->
<g id="edge24" class="edge">
<title>single_subject_THP0005_wfbidssrc:e&#45;&gt;single_subject_THP0005_wfsummary:w</title>
<path fill="none" stroke="#000000" d="M632,-858.5C647.3333,-858.5 636.7176,-838.5896 632,-824 625.9277,-805.2208 612.4032,-806.669 606,-788 563.5205,-664.1478 469.642,-494.7106 588.8417,-485.8615"/>
<polygon fill="#000000" stroke="#000000" points="589.1308,-489.3535 599,-485.5 588.8818,-482.358 589.1308,-489.3535"/>
</g>
<!-- single_subject_THP0005_wfbidssrc&#45;&gt;single_subject_THP0005_wfsummary -->
<g id="edge26" class="edge">
<title>single_subject_THP0005_wfbidssrc:e&#45;&gt;single_subject_THP0005_wfsummary:w</title>
<path fill="none" stroke="#000000" d="M632,-835.5C637.1111,-835.5 634.4307,-828.4961 632,-824 618.106,-798.3 590.894,-813.7 577,-788 549.5587,-737.2415 513.2888,-484.4898 588.7015,-463.8417"/>
<polygon fill="#000000" stroke="#000000" points="589.536,-467.2626 599,-462.5 588.6316,-460.3213 589.536,-467.2626"/>
</g>
<!-- single_subject_THP0005_wfds_report_summary -->
<g id="node7" class="node">
<title>single_subject_THP0005_wfds_report_summary</title>
<polygon fill="none" stroke="#000000" points="701.5,-127 701.5,-196 1006.5,-196 1006.5,-127 701.5,-127"/>
<text text-anchor="middle" x="749" y="-180.8" font-family="Times,serif" font-size="14.00" fill="#000000">IN</text>
<polyline fill="none" stroke="#000000" points="701.5,-173 796.5,-173 "/>
<text text-anchor="middle" x="749" y="-157.8" font-family="Times,serif" font-size="14.00" fill="#000000">in_file</text>
<polyline fill="none" stroke="#000000" points="701.5,-150 796.5,-150 "/>
<text text-anchor="middle" x="749" y="-134.8" font-family="Times,serif" font-size="14.00" fill="#000000">source_file</text>
<polyline fill="none" stroke="#000000" points="796.5,-127 796.5,-196 "/>
<text text-anchor="middle" x="876.5" y="-180.8" font-family="Times,serif" font-size="14.00" fill="#000000">ds_report_summary</text>
<polyline fill="none" stroke="#000000" points="796.5,-173 956.5,-173 "/>
<text text-anchor="middle" x="876.5" y="-157.8" font-family="Times,serif" font-size="14.00" fill="#000000"> </text>
<polyline fill="none" stroke="#000000" points="796.5,-150 956.5,-150 "/>
<text text-anchor="middle" x="876.5" y="-134.8" font-family="Times,serif" font-size="14.00" fill="#000000"> </text>
<polyline fill="none" stroke="#000000" points="956.5,-127 956.5,-196 "/>
<text text-anchor="middle" x="981.5" y="-157.8" font-family="Times,serif" font-size="14.00" fill="#000000">OUT</text>
</g>
<!-- single_subject_THP0005_wfbidssrc&#45;&gt;single_subject_THP0005_wfds_report_summary -->
<g id="edge23" class="edge">
<title>single_subject_THP0005_wfbidssrc:e&#45;&gt;single_subject_THP0005_wfds_report_summary:w</title>
<path fill="none" stroke="#000000" d="M632,-858.5C647.3333,-858.5 640.264,-836.9158 632,-824 611.4223,-791.8389 574.5777,-820.1611 554,-788 537.2326,-761.794 552.446,-749.0723 554,-718 567.0978,-456.1175 438.742,-146.774 690.697,-138.663"/>
<polygon fill="#000000" stroke="#000000" points="691.0566,-142.1578 701,-138.5 690.9459,-135.1587 691.0566,-142.1578"/>
</g>
<!-- single_subject_THP0005_wfanat_preproc_wf -->
<g id="node8" class="node">
<title>single_subject_THP0005_wfanat_preproc_wf</title>
<polygon fill="none" stroke="#000000" points="1149,-359.5 1149,-681.5 1697,-681.5 1697,-359.5 1149,-359.5"/>
<text text-anchor="middle" x="1239.5" y="-654.8" font-family="Times,serif" font-size="14.00" fill="#000000">IN</text>
<polyline fill="none" stroke="#000000" points="1149,-635.5 1330,-635.5 "/>
<text text-anchor="middle" x="1239.5" y="-608.8" font-family="Times,serif" font-size="14.00" fill="#000000">inputnode.flair</text>
<polyline fill="none" stroke="#000000" points="1149,-589.5 1330,-589.5 "/>
<text text-anchor="middle" x="1239.5" y="-562.8" font-family="Times,serif" font-size="14.00" fill="#000000">inputnode.roi</text>
<polyline fill="none" stroke="#000000" points="1149,-543.5 1330,-543.5 "/>
<text text-anchor="middle" x="1239.5" y="-516.8" font-family="Times,serif" font-size="14.00" fill="#000000">inputnode.subject_id</text>
<polyline fill="none" stroke="#000000" points="1149,-497.5 1330,-497.5 "/>
<text text-anchor="middle" x="1239.5" y="-470.8" font-family="Times,serif" font-size="14.00" fill="#000000">inputnode.subjects_dir</text>
<polyline fill="none" stroke="#000000" points="1149,-451.5 1330,-451.5 "/>
<text text-anchor="middle" x="1239.5" y="-424.8" font-family="Times,serif" font-size="14.00" fill="#000000">inputnode.t1w</text>
<polyline fill="none" stroke="#000000" points="1149,-405.5 1330,-405.5 "/>
<text text-anchor="middle" x="1239.5" y="-378.8" font-family="Times,serif" font-size="14.00" fill="#000000">inputnode.t2w</text>
<polyline fill="none" stroke="#000000" points="1330,-359.5 1330,-681.5 "/>
<text text-anchor="middle" x="1398.5" y="-624.3" font-family="Times,serif" font-size="14.00" fill="#000000">anat_preproc_wf</text>
<polyline fill="none" stroke="#000000" points="1330,-574.5 1467,-574.5 "/>
<text text-anchor="middle" x="1398.5" y="-517.3" font-family="Times,serif" font-size="14.00" fill="#000000"> </text>
<polyline fill="none" stroke="#000000" points="1330,-467.5 1467,-467.5 "/>
<text text-anchor="middle" x="1398.5" y="-409.8" font-family="Times,serif" font-size="14.00" fill="#000000"> </text>
<polyline fill="none" stroke="#000000" points="1467,-359.5 1467,-681.5 "/>
<text text-anchor="middle" x="1582" y="-666.3" font-family="Times,serif" font-size="14.00" fill="#000000">OUT</text>
<polyline fill="none" stroke="#000000" points="1467,-658.5 1697,-658.5 "/>
<text text-anchor="middle" x="1582" y="-643.3" font-family="Times,serif" font-size="14.00" fill="#000000">outputnode.anat2std_xfm</text>
<polyline fill="none" stroke="#000000" points="1467,-635.5 1697,-635.5 "/>
<text text-anchor="middle" x="1582" y="-620.3" font-family="Times,serif" font-size="14.00" fill="#000000">outputnode.fsnative2t1w_xfm</text>
<polyline fill="none" stroke="#000000" points="1467,-612.5 1697,-612.5 "/>
<text text-anchor="middle" x="1582" y="-597.3" font-family="Times,serif" font-size="14.00" fill="#000000">outputnode.std2anat_xfm</text>
<polyline fill="none" stroke="#000000" points="1467,-589.5 1697,-589.5 "/>
<text text-anchor="middle" x="1582" y="-574.3" font-family="Times,serif" font-size="14.00" fill="#000000">outputnode.subject_id</text>
<polyline fill="none" stroke="#000000" points="1467,-566.5 1697,-566.5 "/>
<text text-anchor="middle" x="1582" y="-551.3" font-family="Times,serif" font-size="14.00" fill="#000000">outputnode.subjects_dir</text>
<polyline fill="none" stroke="#000000" points="1467,-543.5 1697,-543.5 "/>
<text text-anchor="middle" x="1582" y="-528.3" font-family="Times,serif" font-size="14.00" fill="#000000">outputnode.t1w2fsnative_xfm</text>
<polyline fill="none" stroke="#000000" points="1467,-520.5 1697,-520.5 "/>
<text text-anchor="middle" x="1582" y="-505.3" font-family="Times,serif" font-size="14.00" fill="#000000">outputnode.t1w_aparc</text>
<polyline fill="none" stroke="#000000" points="1467,-497.5 1697,-497.5 "/>
<text text-anchor="middle" x="1582" y="-482.3" font-family="Times,serif" font-size="14.00" fill="#000000">outputnode.t1w_aseg</text>
<polyline fill="none" stroke="#000000" points="1467,-474.5 1697,-474.5 "/>
<text text-anchor="middle" x="1582" y="-459.3" font-family="Times,serif" font-size="14.00" fill="#000000">outputnode.t1w_dseg</text>
<polyline fill="none" stroke="#000000" points="1467,-451.5 1697,-451.5 "/>
<text text-anchor="middle" x="1582" y="-436.3" font-family="Times,serif" font-size="14.00" fill="#000000">outputnode.t1w_mask</text>
<polyline fill="none" stroke="#000000" points="1467,-428.5 1697,-428.5 "/>
<text text-anchor="middle" x="1582" y="-413.3" font-family="Times,serif" font-size="14.00" fill="#000000">outputnode.t1w_preproc</text>
<polyline fill="none" stroke="#000000" points="1467,-405.5 1697,-405.5 "/>
<text text-anchor="middle" x="1582" y="-390.3" font-family="Times,serif" font-size="14.00" fill="#000000">outputnode.t1w_tpms</text>
<polyline fill="none" stroke="#000000" points="1467,-382.5 1697,-382.5 "/>
<text text-anchor="middle" x="1582" y="-367.3" font-family="Times,serif" font-size="14.00" fill="#000000">outputnode.template</text>
</g>
<!-- single_subject_THP0005_wfbidssrc&#45;&gt;single_subject_THP0005_wfanat_preproc_wf -->
<g id="edge18" class="edge">
<title>single_subject_THP0005_wfbidssrc:e&#45;&gt;single_subject_THP0005_wfanat_preproc_wf:w</title>
<path fill="none" stroke="#000000" d="M632,-905.5C765.25,-905.5 1135.5125,-891.0409 1220,-788 1239.7261,-763.9421 1236.2817,-744.5105 1220,-718 1201.4842,-687.8517 1167.5158,-712.1483 1149,-682 1134.9816,-659.1746 1122.0475,-623.672 1139.0029,-614.6443"/>
<polygon fill="#000000" stroke="#000000" points="1139.9564,-618.0194 1149,-612.5 1138.4883,-611.1751 1139.9564,-618.0194"/>
</g>
<!-- single_subject_THP0005_wfbidssrc&#45;&gt;single_subject_THP0005_wfanat_preproc_wf -->
<g id="edge19" class="edge">
<title>single_subject_THP0005_wfbidssrc:e&#45;&gt;single_subject_THP0005_wfanat_preproc_wf:w</title>
<path fill="none" stroke="#000000" d="M632,-881.5C693.9879,-881.5 1142.0093,-835.3629 1182,-788 1202.0709,-764.229 1193.2785,-746.9948 1182,-718 1174.1314,-697.7714 1156.8686,-702.2286 1149,-682 1131.7717,-637.7094 1102.4464,-576.4339 1138.9192,-567.5823"/>
<polygon fill="#000000" stroke="#000000" points="1139.4308,-571.0476 1149,-566.5 1138.6835,-564.0876 1139.4308,-571.0476"/>
</g>
<!-- single_subject_THP0005_wfbidssrc&#45;&gt;single_subject_THP0005_wfanat_preproc_wf -->
<g id="edge20" class="edge">
<title>single_subject_THP0005_wfbidssrc:e&#45;&gt;single_subject_THP0005_wfanat_preproc_wf:w</title>
<path fill="none" stroke="#000000" d="M632,-858.5C689.4257,-858.5 1105.9648,-831.0236 1144,-788 1168.2888,-760.5257 1118.5351,-480.5538 1141.1106,-434.8058"/>
<polygon fill="#000000" stroke="#000000" points="1143.3738,-437.4776 1149,-428.5 1139.0033,-432.0096 1143.3738,-437.4776"/>
</g>
<!-- single_subject_THP0005_wfbidssrc&#45;&gt;single_subject_THP0005_wfanat_preproc_wf -->
<g id="edge25" class="edge">
<title>single_subject_THP0005_wfbidssrc:e&#45;&gt;single_subject_THP0005_wfanat_preproc_wf:w</title>
<path fill="none" stroke="#000000" d="M632,-835.5C685.4833,-835.5 1073.2839,-825.9204 1111,-788 1172.2064,-726.462 1067.7337,-410.0335 1138.8807,-384.18"/>
<polygon fill="#000000" stroke="#000000" points="1139.7083,-387.5906 1149,-382.5 1138.5618,-380.6851 1139.7083,-387.5906"/>
</g>
<!-- single_subject_THP0005_wfbids_info&#45;&gt;single_subject_THP0005_wfsummary -->
<g id="edge16" class="edge">
<title>single_subject_THP0005_wfbids_info:e&#45;&gt;single_subject_THP0005_wfsummary:w</title>
<path fill="none" stroke="#000000" d="M856,-736C864,-736 860.2111,-724.8019 856,-718 788.8295,-609.5049 666.1705,-698.4951 599,-590 587.7547,-571.8364 577.4521,-543.8596 589.3025,-535.1686"/>
<polygon fill="#000000" stroke="#000000" points="590.287,-538.5278 599,-532.5 588.4297,-531.7787 590.287,-538.5278"/>
</g>
<!-- single_subject_THP0005_wfbids_info&#45;&gt;single_subject_THP0005_wfanat_preproc_wf -->
<g id="edge15" class="edge">
<title>single_subject_THP0005_wfbids_info:e&#45;&gt;single_subject_THP0005_wfanat_preproc_wf:w</title>
<path fill="none" stroke="#000000" d="M856,-736C864.9443,-736 859.1468,-724.7631 865,-718 963.3509,-604.3593 993.8892,-524.1675 1138.826,-520.6224"/>
<polygon fill="#000000" stroke="#000000" points="1139.0429,-524.1202 1149,-520.5 1138.9586,-517.1207 1139.0429,-524.1202"/>
</g>
<!-- single_subject_THP0005_wfinputnode -->
<g id="node5" class="node">
<title>single_subject_THP0005_wfinputnode</title>
<polygon fill="none" stroke="#000000" points="874,-718.5 874,-787.5 1102,-787.5 1102,-718.5 874,-718.5"/>
<text text-anchor="middle" x="891.5" y="-749.3" font-family="Times,serif" font-size="14.00" fill="#000000">IN</text>
<polyline fill="none" stroke="#000000" points="909,-718.5 909,-787.5 "/>
<text text-anchor="middle" x="953.5" y="-772.3" font-family="Times,serif" font-size="14.00" fill="#000000">inputnode</text>
<polyline fill="none" stroke="#000000" points="909,-764.5 998,-764.5 "/>
<text text-anchor="middle" x="953.5" y="-749.3" font-family="Times,serif" font-size="14.00" fill="#000000">utility</text>
<polyline fill="none" stroke="#000000" points="909,-741.5 998,-741.5 "/>
<text text-anchor="middle" x="953.5" y="-726.3" font-family="Times,serif" font-size="14.00" fill="#000000"> </text>
<polyline fill="none" stroke="#000000" points="998,-718.5 998,-787.5 "/>
<text text-anchor="middle" x="1050" y="-766.8" font-family="Times,serif" font-size="14.00" fill="#000000">OUT</text>
<polyline fill="none" stroke="#000000" points="998,-753.5 1102,-753.5 "/>
<text text-anchor="middle" x="1050" y="-732.3" font-family="Times,serif" font-size="14.00" fill="#000000">subjects_dir</text>
</g>
<!-- single_subject_THP0005_wfinputnode&#45;&gt;single_subject_THP0005_wfsummary -->
<g id="edge28" class="edge">
<title>single_subject_THP0005_wfinputnode:e&#45;&gt;single_subject_THP0005_wfsummary:w</title>
<path fill="none" stroke="#000000" d="M1102,-736C1110,-736 1106.91,-724.316 1102,-718 960.4191,-535.8784 740.5809,-772.1216 599,-590 579.2001,-564.5305 565.9368,-519.7817 588.8617,-510.2976"/>
<polygon fill="#000000" stroke="#000000" points="589.7646,-513.6922 599,-508.5 588.5425,-506.7997 589.7646,-513.6922"/>
</g>
<!-- single_subject_THP0005_wfinputnode&#45;&gt;single_subject_THP0005_wfanat_preproc_wf -->
<g id="edge27" class="edge">
<title>single_subject_THP0005_wfinputnode:e&#45;&gt;single_subject_THP0005_wfanat_preproc_wf:w</title>
<path fill="none" stroke="#000000" d="M1102,-736C1128.6959,-736 1121.4032,-522.1576 1141.5934,-481.2269"/>
<polygon fill="#000000" stroke="#000000" points="1143.9505,-483.8142 1149,-474.5 1139.2442,-478.6323 1143.9505,-483.8142"/>
</g>
<!-- single_subject_THP0005_wfsummary&#45;&gt;single_subject_THP0005_wfds_report_summary -->
<g id="edge29" class="edge">
<title>single_subject_THP0005_wfsummary:e&#45;&gt;single_subject_THP0005_wfds_report_summary:w</title>
<path fill="none" stroke="#000000" d="M879,-485.5C1039.6099,-485.5 559.1187,-175.8912 690.9292,-161.983"/>
<polygon fill="#000000" stroke="#000000" points="691.1792,-165.4752 701,-161.5 690.8438,-158.4832 691.1792,-165.4752"/>
</g>
<!-- single_subject_THP0005_wfdwi_preproc_wf -->
<g id="node9" class="node">
<title>single_subject_THP0005_wfdwi_preproc_wf</title>
<polygon fill="none" stroke="#000000" points="1697,-.5 1697,-322.5 2099,-322.5 2099,-.5 1697,-.5"/>
<text text-anchor="middle" x="1807.5" y="-307.3" font-family="Times,serif" font-size="14.00" fill="#000000">IN</text>
<polyline fill="none" stroke="#000000" points="1697,-299.5 1918,-299.5 "/>
<text text-anchor="middle" x="1807.5" y="-284.3" font-family="Times,serif" font-size="14.00" fill="#000000">inputnode.anat2std_xfm</text>
<polyline fill="none" stroke="#000000" points="1697,-276.5 1918,-276.5 "/>
<text text-anchor="middle" x="1807.5" y="-261.3" font-family="Times,serif" font-size="14.00" fill="#000000">inputnode.fsnative2t1w_xfm</text>
<polyline fill="none" stroke="#000000" points="1697,-253.5 1918,-253.5 "/>
<text text-anchor="middle" x="1807.5" y="-238.3" font-family="Times,serif" font-size="14.00" fill="#000000">inputnode.std2anat_xfm</text>
<polyline fill="none" stroke="#000000" points="1697,-230.5 1918,-230.5 "/>
<text text-anchor="middle" x="1807.5" y="-215.3" font-family="Times,serif" font-size="14.00" fill="#000000">inputnode.subject_id</text>
<polyline fill="none" stroke="#000000" points="1697,-207.5 1918,-207.5 "/>
<text text-anchor="middle" x="1807.5" y="-192.3" font-family="Times,serif" font-size="14.00" fill="#000000">inputnode.subjects_dir</text>
<polyline fill="none" stroke="#000000" points="1697,-184.5 1918,-184.5 "/>
<text text-anchor="middle" x="1807.5" y="-169.3" font-family="Times,serif" font-size="14.00" fill="#000000">inputnode.t1w2fsnative_xfm</text>
<polyline fill="none" stroke="#000000" points="1697,-161.5 1918,-161.5 "/>
<text text-anchor="middle" x="1807.5" y="-146.3" font-family="Times,serif" font-size="14.00" fill="#000000">inputnode.t1w_aparc</text>
<polyline fill="none" stroke="#000000" points="1697,-138.5 1918,-138.5 "/>
<text text-anchor="middle" x="1807.5" y="-123.3" font-family="Times,serif" font-size="14.00" fill="#000000">inputnode.t1w_aseg</text>
<polyline fill="none" stroke="#000000" points="1697,-115.5 1918,-115.5 "/>
<text text-anchor="middle" x="1807.5" y="-100.3" font-family="Times,serif" font-size="14.00" fill="#000000">inputnode.t1w_dseg</text>
<polyline fill="none" stroke="#000000" points="1697,-92.5 1918,-92.5 "/>
<text text-anchor="middle" x="1807.5" y="-77.3" font-family="Times,serif" font-size="14.00" fill="#000000">inputnode.t1w_mask</text>
<polyline fill="none" stroke="#000000" points="1697,-69.5 1918,-69.5 "/>
<text text-anchor="middle" x="1807.5" y="-54.3" font-family="Times,serif" font-size="14.00" fill="#000000">inputnode.t1w_preproc</text>
<polyline fill="none" stroke="#000000" points="1697,-46.5 1918,-46.5 "/>
<text text-anchor="middle" x="1807.5" y="-31.3" font-family="Times,serif" font-size="14.00" fill="#000000">inputnode.t1w_tpms</text>
<polyline fill="none" stroke="#000000" points="1697,-23.5 1918,-23.5 "/>
<text text-anchor="middle" x="1807.5" y="-8.3" font-family="Times,serif" font-size="14.00" fill="#000000">inputnode.template</text>
<polyline fill="none" stroke="#000000" points="1918,-.5 1918,-322.5 "/>
<text text-anchor="middle" x="1983.5" y="-265.3" font-family="Times,serif" font-size="14.00" fill="#000000">dwi_preproc_wf</text>
<polyline fill="none" stroke="#000000" points="1918,-215.5 2049,-215.5 "/>
<text text-anchor="middle" x="1983.5" y="-158.3" font-family="Times,serif" font-size="14.00" fill="#000000"> </text>
<polyline fill="none" stroke="#000000" points="1918,-108.5 2049,-108.5 "/>
<text text-anchor="middle" x="1983.5" y="-50.8" font-family="Times,serif" font-size="14.00" fill="#000000"> </text>
<polyline fill="none" stroke="#000000" points="2049,-.5 2049,-322.5 "/>
<text text-anchor="middle" x="2074" y="-157.8" font-family="Times,serif" font-size="14.00" fill="#000000">OUT</text>
</g>
<!-- single_subject_THP0005_wfanat_preproc_wf&#45;&gt;single_subject_THP0005_wfdwi_preproc_wf -->
<g id="edge2" class="edge">
<title>single_subject_THP0005_wfanat_preproc_wf:e&#45;&gt;single_subject_THP0005_wfdwi_preproc_wf:w</title>
<path fill="none" stroke="#000000" d="M1697,-647.5C1697,-647.5 1697,-357.7188 1697,-298.857"/>
<polygon fill="#000000" stroke="#000000" points="1700.5001,-298.5 1697,-288.5 1693.5001,-298.5 1700.5001,-298.5"/>
</g>
<!-- single_subject_THP0005_wfanat_preproc_wf&#45;&gt;single_subject_THP0005_wfdwi_preproc_wf -->
<g id="edge3" class="edge">
<title>single_subject_THP0005_wfanat_preproc_wf:e&#45;&gt;single_subject_THP0005_wfdwi_preproc_wf:w</title>
<path fill="none" stroke="#000000" d="M1697,-624.5C1697,-624.5 1697,-334.7188 1697,-275.857"/>
<polygon fill="#000000" stroke="#000000" points="1700.5001,-275.5 1697,-265.5 1693.5001,-275.5 1700.5001,-275.5"/>
</g>
<!-- single_subject_THP0005_wfanat_preproc_wf&#45;&gt;single_subject_THP0005_wfdwi_preproc_wf -->
<g id="edge4" class="edge">
<title>single_subject_THP0005_wfanat_preproc_wf:e&#45;&gt;single_subject_THP0005_wfdwi_preproc_wf:w</title>
<path fill="none" stroke="#000000" d="M1697,-601.5C1697,-601.5 1697,-311.7188 1697,-252.857"/>
<polygon fill="#000000" stroke="#000000" points="1700.5001,-252.5 1697,-242.5 1693.5001,-252.5 1700.5001,-252.5"/>
</g>
<!-- single_subject_THP0005_wfanat_preproc_wf&#45;&gt;single_subject_THP0005_wfdwi_preproc_wf -->
<g id="edge5" class="edge">
<title>single_subject_THP0005_wfanat_preproc_wf:e&#45;&gt;single_subject_THP0005_wfdwi_preproc_wf:w</title>
<path fill="none" stroke="#000000" d="M1697,-578.5C1697,-578.5 1697,-288.7188 1697,-229.857"/>
<polygon fill="#000000" stroke="#000000" points="1700.5001,-229.5 1697,-219.5 1693.5001,-229.5 1700.5001,-229.5"/>
</g>
<!-- single_subject_THP0005_wfanat_preproc_wf&#45;&gt;single_subject_THP0005_wfdwi_preproc_wf -->
<g id="edge6" class="edge">
<title>single_subject_THP0005_wfanat_preproc_wf:e&#45;&gt;single_subject_THP0005_wfdwi_preproc_wf:w</title>
<path fill="none" stroke="#000000" d="M1697,-555.5C1697,-555.5 1697,-265.7188 1697,-206.857"/>
<polygon fill="#000000" stroke="#000000" points="1700.5001,-206.5 1697,-196.5 1693.5001,-206.5 1700.5001,-206.5"/>
</g>
<!-- single_subject_THP0005_wfanat_preproc_wf&#45;&gt;single_subject_THP0005_wfdwi_preproc_wf -->
<g id="edge7" class="edge">
<title>single_subject_THP0005_wfanat_preproc_wf:e&#45;&gt;single_subject_THP0005_wfdwi_preproc_wf:w</title>
<path fill="none" stroke="#000000" d="M1697,-532.5C1852.9718,-532.5 1551.538,-189.4458 1686.9623,-174.0352"/>
<polygon fill="#000000" stroke="#000000" points="1687.2006,-177.5276 1697,-173.5 1686.8278,-170.5375 1687.2006,-177.5276"/>
</g>
<!-- single_subject_THP0005_wfanat_preproc_wf&#45;&gt;single_subject_THP0005_wfdwi_preproc_wf -->
<g id="edge8" class="edge">
<title>single_subject_THP0005_wfanat_preproc_wf:e&#45;&gt;single_subject_THP0005_wfdwi_preproc_wf:w</title>
<path fill="none" stroke="#000000" d="M1697,-508.5C1852.9718,-508.5 1551.538,-165.4458 1686.9623,-150.0352"/>
<polygon fill="#000000" stroke="#000000" points="1687.2006,-153.5276 1697,-149.5 1686.8278,-146.5375 1687.2006,-153.5276"/>
</g>
<!-- single_subject_THP0005_wfanat_preproc_wf&#45;&gt;single_subject_THP0005_wfdwi_preproc_wf -->
<g id="edge9" class="edge">
<title>single_subject_THP0005_wfanat_preproc_wf:e&#45;&gt;single_subject_THP0005_wfdwi_preproc_wf:w</title>
<path fill="none" stroke="#000000" d="M1697,-485.5C1697,-485.5 1697,-195.7188 1697,-136.857"/>
<polygon fill="#000000" stroke="#000000" points="1700.5001,-136.5 1697,-126.5 1693.5001,-136.5 1700.5001,-136.5"/>
</g>
<!-- single_subject_THP0005_wfanat_preproc_wf&#45;&gt;single_subject_THP0005_wfdwi_preproc_wf -->
<g id="edge10" class="edge">
<title>single_subject_THP0005_wfanat_preproc_wf:e&#45;&gt;single_subject_THP0005_wfdwi_preproc_wf:w</title>
<path fill="none" stroke="#000000" d="M1697,-462.5C1697,-462.5 1697,-172.7188 1697,-113.857"/>
<polygon fill="#000000" stroke="#000000" points="1700.5001,-113.5 1697,-103.5 1693.5001,-113.5 1700.5001,-113.5"/>
</g>
<!-- single_subject_THP0005_wfanat_preproc_wf&#45;&gt;single_subject_THP0005_wfdwi_preproc_wf -->
<g id="edge11" class="edge">
<title>single_subject_THP0005_wfanat_preproc_wf:e&#45;&gt;single_subject_THP0005_wfdwi_preproc_wf:w</title>
<path fill="none" stroke="#000000" d="M1697,-439.5C1697,-439.5 1697,-149.7188 1697,-90.857"/>
<polygon fill="#000000" stroke="#000000" points="1700.5001,-90.5 1697,-80.5 1693.5001,-90.5 1700.5001,-90.5"/>
</g>
<!-- single_subject_THP0005_wfanat_preproc_wf&#45;&gt;single_subject_THP0005_wfdwi_preproc_wf -->
<g id="edge12" class="edge">
<title>single_subject_THP0005_wfanat_preproc_wf:e&#45;&gt;single_subject_THP0005_wfdwi_preproc_wf:w</title>
<path fill="none" stroke="#000000" d="M1697,-416.5C1697,-416.5 1697,-126.7188 1697,-67.857"/>
<polygon fill="#000000" stroke="#000000" points="1700.5001,-67.5 1697,-57.5 1693.5001,-67.5 1700.5001,-67.5"/>
</g>
<!-- single_subject_THP0005_wfanat_preproc_wf&#45;&gt;single_subject_THP0005_wfdwi_preproc_wf -->
<g id="edge13" class="edge">
<title>single_subject_THP0005_wfanat_preproc_wf:e&#45;&gt;single_subject_THP0005_wfdwi_preproc_wf:w</title>
<path fill="none" stroke="#000000" d="M1697,-393.5C1697,-393.5 1697,-103.7188 1697,-44.857"/>
<polygon fill="#000000" stroke="#000000" points="1700.5001,-44.5 1697,-34.5 1693.5001,-44.5 1700.5001,-44.5"/>
</g>
<!-- single_subject_THP0005_wfanat_preproc_wf&#45;&gt;single_subject_THP0005_wfdwi_preproc_wf -->
<g id="edge14" class="edge">
<title>single_subject_THP0005_wfanat_preproc_wf:e&#45;&gt;single_subject_THP0005_wfdwi_preproc_wf:w</title>
<path fill="none" stroke="#000000" d="M1697,-370.5C1697,-370.5 1697,-80.7188 1697,-21.857"/>
<polygon fill="#000000" stroke="#000000" points="1700.5001,-21.5 1697,-11.5 1693.5001,-21.5 1700.5001,-21.5"/>
</g>
</g>
</svg>
