<?xml version="1.0" encoding="UTF-8" standalone="no"?>
<!DOCTYPE svg PUBLIC "-//W3C//DTD SVG 1.1//EN"
 "http://www.w3.org/Graphics/SVG/1.1/DTD/svg11.dtd">
<!-- Generated by graphviz version 2.40.1 (20161225.0304)
 -->
<!-- Title: structs Pages: 1 -->
<svg width="1850pt" height="778pt"
 viewBox="0.00 0.00 1850.00 778.00" xmlns="http://www.w3.org/2000/svg" xmlns:xlink="http://www.w3.org/1999/xlink">
<g id="graph0" class="graph" transform="scale(1 1) rotate(0) translate(4 774)">
<title>structs</title>
<polygon fill="#ffffff" stroke="transparent" points="-4,4 -4,-774 1846,-774 1846,4 -4,4"/>
<!-- single_subject_THP0005_wfinputnode -->
<g id="node1" class="node">
<title>single_subject_THP0005_wfinputnode</title>
<polygon fill="none" stroke="#000000" points="0,-666 0,-735 205,-735 205,-666 0,-666"/>
<text text-anchor="middle" x="17.5" y="-696.8" font-family="Times,serif" font-size="14.00" fill="#000000">IN</text>
<polyline fill="none" stroke="#000000" points="35,-666 35,-735 "/>
<text text-anchor="middle" x="79.5" y="-719.8" font-family="Times,serif" font-size="14.00" fill="#000000">inputnode</text>
<polyline fill="none" stroke="#000000" points="35,-712 124,-712 "/>
<text text-anchor="middle" x="79.5" y="-696.8" font-family="Times,serif" font-size="14.00" fill="#000000">utility</text>
<polyline fill="none" stroke="#000000" points="35,-689 124,-689 "/>
<text text-anchor="middle" x="79.5" y="-673.8" font-family="Times,serif" font-size="14.00" fill="#000000"> </text>
<polyline fill="none" stroke="#000000" points="124,-666 124,-735 "/>
<text text-anchor="middle" x="164.5" y="-714.3" font-family="Times,serif" font-size="14.00" fill="#000000">OUT</text>
<polyline fill="none" stroke="#000000" points="124,-701 205,-701 "/>
<text text-anchor="middle" x="164.5" y="-679.8" font-family="Times,serif" font-size="14.00" fill="#000000">dwi_data</text>
</g>
<!-- single_subject_THP0005_wfsplit_info -->
<g id="node2" class="node">
<title>single_subject_THP0005_wfsplit_info</title>
<polygon fill="none" stroke="#000000" points="206,-479.5 206,-594.5 447,-594.5 447,-479.5 206,-479.5"/>
<text text-anchor="middle" x="243" y="-562.3" font-family="Times,serif" font-size="14.00" fill="#000000">IN</text>
<polyline fill="none" stroke="#000000" points="206,-537.5 280,-537.5 "/>
<text text-anchor="middle" x="243" y="-504.8" font-family="Times,serif" font-size="14.00" fill="#000000">in_tuple</text>
<polyline fill="none" stroke="#000000" points="280,-479.5 280,-594.5 "/>
<text text-anchor="middle" x="321.5" y="-571.8" font-family="Times,serif" font-size="14.00" fill="#000000">split_info</text>
<polyline fill="none" stroke="#000000" points="280,-556.5 363,-556.5 "/>
<text text-anchor="middle" x="321.5" y="-533.8" font-family="Times,serif" font-size="14.00" fill="#000000">utility</text>
<polyline fill="none" stroke="#000000" points="280,-518.5 363,-518.5 "/>
<text text-anchor="middle" x="321.5" y="-495.3" font-family="Times,serif" font-size="14.00" fill="#000000"> </text>
<polyline fill="none" stroke="#000000" points="363,-479.5 363,-594.5 "/>
<text text-anchor="middle" x="405" y="-579.3" font-family="Times,serif" font-size="14.00" fill="#000000">OUT</text>
<polyline fill="none" stroke="#000000" points="363,-571.5 447,-571.5 "/>
<text text-anchor="middle" x="405" y="-556.3" font-family="Times,serif" font-size="14.00" fill="#000000">bval</text>
<polyline fill="none" stroke="#000000" points="363,-548.5 447,-548.5 "/>
<text text-anchor="middle" x="405" y="-533.3" font-family="Times,serif" font-size="14.00" fill="#000000">bvec</text>
<polyline fill="none" stroke="#000000" points="363,-525.5 447,-525.5 "/>
<text text-anchor="middle" x="405" y="-510.3" font-family="Times,serif" font-size="14.00" fill="#000000">dwi_file</text>
<polyline fill="none" stroke="#000000" points="363,-502.5 447,-502.5 "/>
<text text-anchor="middle" x="405" y="-487.3" font-family="Times,serif" font-size="14.00" fill="#000000">metadata</text>
</g>
<!-- single_subject_THP0005_wfinputnode&#45;&gt;single_subject_THP0005_wfsplit_info -->
<g id="edge19" class="edge">
<title>single_subject_THP0005_wfinputnode:e&#45;&gt;single_subject_THP0005_wfsplit_info:w</title>
<path fill="none" stroke="#000000" d="M205.5,-683.5C279.5391,-683.5 142.7403,-525.3717 195.3662,-509.3117"/>
<polygon fill="#000000" stroke="#000000" points="196.0321,-512.7548 205.5,-508 195.1334,-505.8128 196.0321,-512.7548"/>
</g>
<!-- single_subject_THP0005_wfearly_b0ref_wf -->
<g id="node3" class="node">
<title>single_subject_THP0005_wfearly_b0ref_wf</title>
<polygon fill="none" stroke="#000000" points="447.5,-316 447.5,-408 929.5,-408 929.5,-316 447.5,-316"/>
<text text-anchor="middle" x="522" y="-392.8" font-family="Times,serif" font-size="14.00" fill="#000000">IN</text>
<polyline fill="none" stroke="#000000" points="447.5,-385 596.5,-385 "/>
<text text-anchor="middle" x="522" y="-369.8" font-family="Times,serif" font-size="14.00" fill="#000000">inputnode.dwi_file</text>
<polyline fill="none" stroke="#000000" points="447.5,-362 596.5,-362 "/>
<text text-anchor="middle" x="522" y="-346.8" font-family="Times,serif" font-size="14.00" fill="#000000">inputnode.in_bval</text>
<polyline fill="none" stroke="#000000" points="447.5,-339 596.5,-339 "/>
<text text-anchor="middle" x="522" y="-323.8" font-family="Times,serif" font-size="14.00" fill="#000000">inputnode.in_bvec</text>
<polyline fill="none" stroke="#000000" points="596.5,-316 596.5,-408 "/>
<text text-anchor="middle" x="658" y="-389.3" font-family="Times,serif" font-size="14.00" fill="#000000">early_b0ref_wf</text>
<polyline fill="none" stroke="#000000" points="596.5,-378 719.5,-378 "/>
<text text-anchor="middle" x="658" y="-358.8" font-family="Times,serif" font-size="14.00" fill="#000000"> </text>
<polyline fill="none" stroke="#000000" points="596.5,-347 719.5,-347 "/>
<text text-anchor="middle" x="658" y="-327.8" font-family="Times,serif" font-size="14.00" fill="#000000"> </text>
<polyline fill="none" stroke="#000000" points="719.5,-316 719.5,-408 "/>
<text text-anchor="middle" x="824.5" y="-392.8" font-family="Times,serif" font-size="14.00" fill="#000000">OUT</text>
<polyline fill="none" stroke="#000000" points="719.5,-385 929.5,-385 "/>
<text text-anchor="middle" x="824.5" y="-369.8" font-family="Times,serif" font-size="14.00" fill="#000000">outputnode.dwi_mask</text>
<polyline fill="none" stroke="#000000" points="719.5,-362 929.5,-362 "/>
<text text-anchor="middle" x="824.5" y="-346.8" font-family="Times,serif" font-size="14.00" fill="#000000">outputnode.dwi_reference</text>
<polyline fill="none" stroke="#000000" points="719.5,-339 929.5,-339 "/>
<text text-anchor="middle" x="824.5" y="-323.8" font-family="Times,serif" font-size="14.00" fill="#000000">outputnode.gradients_rasb</text>
</g>
<!-- single_subject_THP0005_wfsplit_info&#45;&gt;single_subject_THP0005_wfearly_b0ref_wf -->
<g id="edge22" class="edge">
<title>single_subject_THP0005_wfsplit_info:e&#45;&gt;single_subject_THP0005_wfearly_b0ref_wf:w</title>
<path fill="none" stroke="#000000" d="M447.5,-560C468.0078,-560 434.4423,-397.78 441.8542,-358.4923"/>
<polygon fill="#000000" stroke="#000000" points="444.8784,-360.2654 447.5,-350 439.049,-356.3899 444.8784,-360.2654"/>
</g>
<!-- single_subject_THP0005_wfsplit_info&#45;&gt;single_subject_THP0005_wfearly_b0ref_wf -->
<g id="edge23" class="edge">
<title>single_subject_THP0005_wfsplit_info:e&#45;&gt;single_subject_THP0005_wfearly_b0ref_wf:w</title>
<path fill="none" stroke="#000000" d="M447.5,-537C468.0078,-537 434.4423,-374.78 441.8542,-335.4923"/>
<polygon fill="#000000" stroke="#000000" points="444.8784,-337.2654 447.5,-327 439.049,-333.3899 444.8784,-337.2654"/>
</g>
<!-- single_subject_THP0005_wfsplit_info&#45;&gt;single_subject_THP0005_wfearly_b0ref_wf -->
<g id="edge24" class="edge">
<title>single_subject_THP0005_wfsplit_info:e&#45;&gt;single_subject_THP0005_wfearly_b0ref_wf:w</title>
<path fill="none" stroke="#000000" d="M447.5,-514C460.625,-514 440.5273,-414.332 443.2703,-383.1858"/>
<polygon fill="#000000" stroke="#000000" points="446.4966,-384.5472 447.5,-374 440.1382,-381.6194 446.4966,-384.5472"/>
</g>
<!-- single_subject_THP0005_wfreferencenode -->
<g id="node4" class="node">
<title>single_subject_THP0005_wfreferencenode</title>
<polygon fill="none" stroke="#000000" points="930,-106.5 930,-244.5 1293,-244.5 1293,-106.5 930,-106.5"/>
<text text-anchor="middle" x="992" y="-229.3" font-family="Times,serif" font-size="14.00" fill="#000000">IN</text>
<polyline fill="none" stroke="#000000" points="930,-221.5 1054,-221.5 "/>
<text text-anchor="middle" x="992" y="-206.3" font-family="Times,serif" font-size="14.00" fill="#000000">dwi_file</text>
<polyline fill="none" stroke="#000000" points="930,-198.5 1054,-198.5 "/>
<text text-anchor="middle" x="992" y="-183.3" font-family="Times,serif" font-size="14.00" fill="#000000">dwi_mask</text>
<polyline fill="none" stroke="#000000" points="930,-175.5 1054,-175.5 "/>
<text text-anchor="middle" x="992" y="-160.3" font-family="Times,serif" font-size="14.00" fill="#000000">dwi_reference</text>
<polyline fill="none" stroke="#000000" points="930,-152.5 1054,-152.5 "/>
<text text-anchor="middle" x="992" y="-137.3" font-family="Times,serif" font-size="14.00" fill="#000000">gradients_rasb</text>
<polyline fill="none" stroke="#000000" points="930,-129.5 1054,-129.5 "/>
<text text-anchor="middle" x="992" y="-114.3" font-family="Times,serif" font-size="14.00" fill="#000000">metadata</text>
<polyline fill="none" stroke="#000000" points="1054,-106.5 1054,-244.5 "/>
<text text-anchor="middle" x="1114" y="-217.8" font-family="Times,serif" font-size="14.00" fill="#000000">referencenode</text>
<polyline fill="none" stroke="#000000" points="1054,-198.5 1174,-198.5 "/>
<text text-anchor="middle" x="1114" y="-171.8" font-family="Times,serif" font-size="14.00" fill="#000000">utility</text>
<polyline fill="none" stroke="#000000" points="1054,-152.5 1174,-152.5 "/>
<text text-anchor="middle" x="1114" y="-125.8" font-family="Times,serif" font-size="14.00" fill="#000000"> </text>
<polyline fill="none" stroke="#000000" points="1174,-106.5 1174,-244.5 "/>
<text text-anchor="middle" x="1233.5" y="-217.8" font-family="Times,serif" font-size="14.00" fill="#000000">OUT</text>
<polyline fill="none" stroke="#000000" points="1174,-198.5 1293,-198.5 "/>
<text text-anchor="middle" x="1233.5" y="-171.8" font-family="Times,serif" font-size="14.00" fill="#000000">dwi_mask</text>
<polyline fill="none" stroke="#000000" points="1174,-152.5 1293,-152.5 "/>
<text text-anchor="middle" x="1233.5" y="-125.8" font-family="Times,serif" font-size="14.00" fill="#000000">dwi_reference</text>
</g>
<!-- single_subject_THP0005_wfsplit_info&#45;&gt;single_subject_THP0005_wfreferencenode -->
<g id="edge25" class="edge">
<title>single_subject_THP0005_wfsplit_info:e&#45;&gt;single_subject_THP0005_wfreferencenode:w</title>
<path fill="none" stroke="#000000" d="M447.5,-514C463.4567,-514 443.4015,-489.4041 455.5,-479 537.1064,-408.8228 865.2764,-521.8844 938.5,-443 987.4831,-390.2301 947.2972,-352.4605 938.5,-281 935.2134,-254.3027 908.0918,-221.9506 919.6184,-212.9342"/>
<polygon fill="#000000" stroke="#000000" points="920.6275,-216.2904 929.5,-210.5 918.9531,-209.4936 920.6275,-216.2904"/>
</g>
<!-- single_subject_THP0005_wfsplit_info&#45;&gt;single_subject_THP0005_wfreferencenode -->
<g id="edge26" class="edge">
<title>single_subject_THP0005_wfsplit_info:e&#45;&gt;single_subject_THP0005_wfreferencenode:w</title>
<path fill="none" stroke="#000000" d="M447.5,-491C453.9099,-491 449.9589,-482.2221 455.5,-479 553.5254,-421.9987 887.1987,-525.9617 964.5,-443 1013.5829,-390.323 991.5841,-347.7117 964.5,-281 956.1057,-260.3237 937.8943,-265.6763 929.5,-245 909.5993,-195.9821 877.4664,-127.3611 919.3972,-118.4636"/>
<polygon fill="#000000" stroke="#000000" points="919.8775,-121.9338 929.5,-117.5 919.2128,-114.9654 919.8775,-121.9338"/>
</g>
<!-- single_subject_THP0005_wfearly_b0ref_wf&#45;&gt;single_subject_THP0005_wfreferencenode -->
<g id="edge14" class="edge">
<title>single_subject_THP0005_wfearly_b0ref_wf:e&#45;&gt;single_subject_THP0005_wfreferencenode:w</title>
<path fill="none" stroke="#000000" d="M929.5,-374C966.8971,-374 903.0591,-222.1472 920.6837,-192.4884"/>
<polygon fill="#000000" stroke="#000000" points="922.5202,-195.4708 929.5,-187.5 919.073,-189.3784 922.5202,-195.4708"/>
</g>
<!-- single_subject_THP0005_wfearly_b0ref_wf&#45;&gt;single_subject_THP0005_wfreferencenode -->
<g id="edge15" class="edge">
<title>single_subject_THP0005_wfearly_b0ref_wf:e&#45;&gt;single_subject_THP0005_wfreferencenode:w</title>
<path fill="none" stroke="#000000" d="M929.5,-350C966.8971,-350 903.0591,-198.1472 920.6837,-168.4884"/>
<polygon fill="#000000" stroke="#000000" points="922.5202,-171.4708 929.5,-163.5 919.073,-165.3784 922.5202,-171.4708"/>
</g>
<!-- single_subject_THP0005_wfearly_b0ref_wf&#45;&gt;single_subject_THP0005_wfreferencenode -->
<g id="edge16" class="edge">
<title>single_subject_THP0005_wfearly_b0ref_wf:e&#45;&gt;single_subject_THP0005_wfreferencenode:w</title>
<path fill="none" stroke="#000000" d="M929.5,-327C929.5,-327 929.5,-189.265 929.5,-150.5271"/>
<polygon fill="#000000" stroke="#000000" points="933.0001,-150.5 929.5,-140.5 926.0001,-150.5 933.0001,-150.5"/>
</g>
<!-- single_subject_THP0005_wffmap_estimation_wf -->
<g id="node5" class="node">
<title>single_subject_THP0005_wffmap_estimation_wf</title>
<polygon fill="none" stroke="#000000" points="1293.5,-.5 1293.5,-69.5 1699.5,-69.5 1699.5,-.5 1293.5,-.5"/>
<text text-anchor="middle" x="1391" y="-54.3" font-family="Times,serif" font-size="14.00" fill="#000000">IN</text>
<polyline fill="none" stroke="#000000" points="1293.5,-46.5 1488.5,-46.5 "/>
<text text-anchor="middle" x="1391" y="-31.3" font-family="Times,serif" font-size="14.00" fill="#000000">inputnode.dwi_mask</text>
<polyline fill="none" stroke="#000000" points="1293.5,-23.5 1488.5,-23.5 "/>
<text text-anchor="middle" x="1391" y="-8.3" font-family="Times,serif" font-size="14.00" fill="#000000">inputnode.dwi_reference</text>
<polyline fill="none" stroke="#000000" points="1488.5,-.5 1488.5,-69.5 "/>
<text text-anchor="middle" x="1569" y="-54.3" font-family="Times,serif" font-size="14.00" fill="#000000">fmap_estimation_wf</text>
<polyline fill="none" stroke="#000000" points="1488.5,-46.5 1649.5,-46.5 "/>
<text text-anchor="middle" x="1569" y="-31.3" font-family="Times,serif" font-size="14.00" fill="#000000"> </text>
<polyline fill="none" stroke="#000000" points="1488.5,-23.5 1649.5,-23.5 "/>
<text text-anchor="middle" x="1569" y="-8.3" font-family="Times,serif" font-size="14.00" fill="#000000"> </text>
<polyline fill="none" stroke="#000000" points="1649.5,-.5 1649.5,-69.5 "/>
<text text-anchor="middle" x="1674.5" y="-31.3" font-family="Times,serif" font-size="14.00" fill="#000000">OUT</text>
</g>
<!-- single_subject_THP0005_wfreferencenode&#45;&gt;single_subject_THP0005_wffmap_estimation_wf -->
<g id="edge20" class="edge">
<title>single_subject_THP0005_wfreferencenode:e&#45;&gt;single_subject_THP0005_wffmap_estimation_wf:w</title>
<path fill="none" stroke="#000000" d="M1293.5,-175.5C1351.7977,-175.5 1246.8163,-53.0406 1283.4285,-36.7764"/>
<polygon fill="#000000" stroke="#000000" points="1284.26,-40.1839 1293.5,-35 1283.044,-33.2903 1284.26,-40.1839"/>
</g>
<!-- single_subject_THP0005_wfreferencenode&#45;&gt;single_subject_THP0005_wffmap_estimation_wf -->
<g id="edge21" class="edge">
<title>single_subject_THP0005_wfreferencenode:e&#45;&gt;single_subject_THP0005_wffmap_estimation_wf:w</title>
<path fill="none" stroke="#000000" d="M1293.5,-129.5C1341.4384,-129.5 1257.359,-30.4867 1283.6382,-14.2423"/>
<polygon fill="#000000" stroke="#000000" points="1284.5249,-17.6301 1293.5,-12 1282.9729,-10.8043 1284.5249,-17.6301"/>
</g>
<!-- single_subject_THP0005_wfabout -->
<g id="node6" class="node">
<title>single_subject_THP0005_wfabout</title>
<polygon fill="none" stroke="#000000" points="268.5,-666 268.5,-735 464.5,-735 464.5,-666 268.5,-666"/>
<text text-anchor="middle" x="286" y="-696.8" font-family="Times,serif" font-size="14.00" fill="#000000">IN</text>
<polyline fill="none" stroke="#000000" points="303.5,-666 303.5,-735 "/>
<text text-anchor="middle" x="338" y="-719.8" font-family="Times,serif" font-size="14.00" fill="#000000">about</text>
<polyline fill="none" stroke="#000000" points="303.5,-712 372.5,-712 "/>
<text text-anchor="middle" x="338" y="-696.8" font-family="Times,serif" font-size="14.00" fill="#000000">reports</text>
<polyline fill="none" stroke="#000000" points="303.5,-689 372.5,-689 "/>
<text text-anchor="middle" x="338" y="-673.8" font-family="Times,serif" font-size="14.00" fill="#000000"> </text>
<polyline fill="none" stroke="#000000" points="372.5,-666 372.5,-735 "/>
<text text-anchor="middle" x="418.5" y="-714.3" font-family="Times,serif" font-size="14.00" fill="#000000">OUT</text>
<polyline fill="none" stroke="#000000" points="372.5,-701 464.5,-701 "/>
<text text-anchor="middle" x="418.5" y="-679.8" font-family="Times,serif" font-size="14.00" fill="#000000">out_report</text>
</g>
<!-- single_subject_THP0005_wfds_report_about -->
<g id="node8" class="node">
<title>single_subject_THP0005_wfds_report_about</title>
<polygon fill="none" stroke="#000000" points="465,-502.5 465,-571.5 744,-571.5 744,-502.5 465,-502.5"/>
<text text-anchor="middle" x="512.5" y="-556.3" font-family="Times,serif" font-size="14.00" fill="#000000">IN</text>
<polyline fill="none" stroke="#000000" points="465,-548.5 560,-548.5 "/>
<text text-anchor="middle" x="512.5" y="-533.3" font-family="Times,serif" font-size="14.00" fill="#000000">in_file</text>
<polyline fill="none" stroke="#000000" points="465,-525.5 560,-525.5 "/>
<text text-anchor="middle" x="512.5" y="-510.3" font-family="Times,serif" font-size="14.00" fill="#000000">source_file</text>
<polyline fill="none" stroke="#000000" points="560,-502.5 560,-571.5 "/>
<text text-anchor="middle" x="627" y="-556.3" font-family="Times,serif" font-size="14.00" fill="#000000">ds_report_about</text>
<polyline fill="none" stroke="#000000" points="560,-548.5 694,-548.5 "/>
<text text-anchor="middle" x="627" y="-533.3" font-family="Times,serif" font-size="14.00" fill="#000000"> </text>
<polyline fill="none" stroke="#000000" points="560,-525.5 694,-525.5 "/>
<text text-anchor="middle" x="627" y="-510.3" font-family="Times,serif" font-size="14.00" fill="#000000"> </text>
<polyline fill="none" stroke="#000000" points="694,-502.5 694,-571.5 "/>
<text text-anchor="middle" x="719" y="-533.3" font-family="Times,serif" font-size="14.00" fill="#000000">OUT</text>
</g>
<!-- single_subject_THP0005_wfabout&#45;&gt;single_subject_THP0005_wfds_report_about -->
<g id="edge1" class="edge">
<title>single_subject_THP0005_wfabout:e&#45;&gt;single_subject_THP0005_wfds_report_about:w</title>
<path fill="none" stroke="#000000" d="M464.5,-683.5C478.298,-683.5 457.0081,-578.2367 460.1153,-546.1642"/>
<polygon fill="#000000" stroke="#000000" points="463.3412,-547.5313 464.5,-537 457.0267,-544.51 463.3412,-547.5313"/>
</g>
<!-- single_subject_THP0005_wfbidssrc -->
<g id="node7" class="node">
<title>single_subject_THP0005_wfbidssrc</title>
<polygon fill="none" stroke="#000000" points="1099.5,-631.5 1099.5,-769.5 1253.5,-769.5 1253.5,-631.5 1099.5,-631.5"/>
<text text-anchor="middle" x="1117" y="-696.8" font-family="Times,serif" font-size="14.00" fill="#000000">IN</text>
<polyline fill="none" stroke="#000000" points="1134.5,-631.5 1134.5,-769.5 "/>
<text text-anchor="middle" x="1169" y="-742.8" font-family="Times,serif" font-size="14.00" fill="#000000">bidssrc</text>
<polyline fill="none" stroke="#000000" points="1134.5,-723.5 1203.5,-723.5 "/>
<text text-anchor="middle" x="1169" y="-696.8" font-family="Times,serif" font-size="14.00" fill="#000000"> </text>
<polyline fill="none" stroke="#000000" points="1134.5,-677.5 1203.5,-677.5 "/>
<text text-anchor="middle" x="1169" y="-650.8" font-family="Times,serif" font-size="14.00" fill="#000000"> </text>
<polyline fill="none" stroke="#000000" points="1203.5,-631.5 1203.5,-769.5 "/>
<text text-anchor="middle" x="1228.5" y="-754.3" font-family="Times,serif" font-size="14.00" fill="#000000">OUT</text>
<polyline fill="none" stroke="#000000" points="1203.5,-746.5 1253.5,-746.5 "/>
<text text-anchor="middle" x="1228.5" y="-731.3" font-family="Times,serif" font-size="14.00" fill="#000000">dwi</text>
<polyline fill="none" stroke="#000000" points="1203.5,-723.5 1253.5,-723.5 "/>
<text text-anchor="middle" x="1228.5" y="-708.3" font-family="Times,serif" font-size="14.00" fill="#000000">flair</text>
<polyline fill="none" stroke="#000000" points="1203.5,-700.5 1253.5,-700.5 "/>
<text text-anchor="middle" x="1228.5" y="-685.3" font-family="Times,serif" font-size="14.00" fill="#000000">roi</text>
<polyline fill="none" stroke="#000000" points="1203.5,-677.5 1253.5,-677.5 "/>
<text text-anchor="middle" x="1228.5" y="-662.3" font-family="Times,serif" font-size="14.00" fill="#000000">t1w</text>
<polyline fill="none" stroke="#000000" points="1203.5,-654.5 1253.5,-654.5 "/>
<text text-anchor="middle" x="1228.5" y="-639.3" font-family="Times,serif" font-size="14.00" fill="#000000">t2w</text>
</g>
<!-- single_subject_THP0005_wfbidssrc&#45;&gt;single_subject_THP0005_wfds_report_about -->
<g id="edge9" class="edge">
<title>single_subject_THP0005_wfbidssrc:e&#45;&gt;single_subject_THP0005_wfds_report_about:w</title>
<path fill="none" stroke="#000000" d="M1253.5,-665.5C1268.8333,-665.5 1263.9417,-642.2286 1253.5,-631 1215.9472,-590.617 813.4888,-599.1505 758.5,-595 627.8059,-585.1354 553.4901,-668.2238 464.5,-572 457.9366,-564.9031 453.9683,-535.8265 457.8319,-521.7318"/>
<polygon fill="#000000" stroke="#000000" points="460.6195,-523.8586 464.5,-514 455.3185,-519.2869 460.6195,-523.8586"/>
</g>
<!-- single_subject_THP0005_wfbids_info -->
<g id="node9" class="node">
<title>single_subject_THP0005_wfbids_info</title>
<polygon fill="none" stroke="#000000" points="1134.5,-502.5 1134.5,-571.5 1344.5,-571.5 1344.5,-502.5 1134.5,-502.5"/>
<text text-anchor="middle" x="1164.5" y="-550.8" font-family="Times,serif" font-size="14.00" fill="#000000">IN</text>
<polyline fill="none" stroke="#000000" points="1134.5,-537.5 1194.5,-537.5 "/>
<text text-anchor="middle" x="1164.5" y="-516.3" font-family="Times,serif" font-size="14.00" fill="#000000">in_file</text>
<polyline fill="none" stroke="#000000" points="1194.5,-502.5 1194.5,-571.5 "/>
<text text-anchor="middle" x="1235" y="-556.3" font-family="Times,serif" font-size="14.00" fill="#000000">bids_info</text>
<polyline fill="none" stroke="#000000" points="1194.5,-548.5 1275.5,-548.5 "/>
<text text-anchor="middle" x="1235" y="-533.3" font-family="Times,serif" font-size="14.00" fill="#000000">bids</text>
<polyline fill="none" stroke="#000000" points="1194.5,-525.5 1275.5,-525.5 "/>
<text text-anchor="middle" x="1235" y="-510.3" font-family="Times,serif" font-size="14.00" fill="#000000"> </text>
<polyline fill="none" stroke="#000000" points="1275.5,-502.5 1275.5,-571.5 "/>
<text text-anchor="middle" x="1310" y="-550.8" font-family="Times,serif" font-size="14.00" fill="#000000">OUT</text>
<polyline fill="none" stroke="#000000" points="1275.5,-537.5 1344.5,-537.5 "/>
<text text-anchor="middle" x="1310" y="-516.3" font-family="Times,serif" font-size="14.00" fill="#000000">subject</text>
</g>
<!-- single_subject_THP0005_wfbidssrc&#45;&gt;single_subject_THP0005_wfbids_info -->
<g id="edge8" class="edge">
<title>single_subject_THP0005_wfbidssrc:e&#45;&gt;single_subject_THP0005_wfbids_info:w</title>
<path fill="none" stroke="#000000" d="M1253.5,-665.5C1268.8333,-665.5 1261.5832,-644.0297 1253.5,-631 1222.3803,-580.8363 1165.6197,-622.1637 1134.5,-572 1130.1216,-564.9422 1126.0675,-541.1667 1128.4241,-528.3513"/>
<polygon fill="#000000" stroke="#000000" points="1131.4471,-530.1455 1134.5,-520 1125.7866,-526.0273 1131.4471,-530.1455"/>
</g>
<!-- single_subject_THP0005_wfsummary -->
<g id="node11" class="node">
<title>single_subject_THP0005_wfsummary</title>
<polygon fill="none" stroke="#000000" points="1050,-293 1050,-431 1329,-431 1329,-293 1050,-293"/>
<text text-anchor="middle" x="1102" y="-415.8" font-family="Times,serif" font-size="14.00" fill="#000000">IN</text>
<polyline fill="none" stroke="#000000" points="1050,-408 1154,-408 "/>
<text text-anchor="middle" x="1102" y="-392.8" font-family="Times,serif" font-size="14.00" fill="#000000">dwi</text>
<polyline fill="none" stroke="#000000" points="1050,-385 1154,-385 "/>
<text text-anchor="middle" x="1102" y="-369.8" font-family="Times,serif" font-size="14.00" fill="#000000">subject_id</text>
<polyline fill="none" stroke="#000000" points="1050,-362 1154,-362 "/>
<text text-anchor="middle" x="1102" y="-346.8" font-family="Times,serif" font-size="14.00" fill="#000000">subjects_dir</text>
<polyline fill="none" stroke="#000000" points="1050,-339 1154,-339 "/>
<text text-anchor="middle" x="1102" y="-323.8" font-family="Times,serif" font-size="14.00" fill="#000000">t1w</text>
<polyline fill="none" stroke="#000000" points="1050,-316 1154,-316 "/>
<text text-anchor="middle" x="1102" y="-300.8" font-family="Times,serif" font-size="14.00" fill="#000000">t2w</text>
<polyline fill="none" stroke="#000000" points="1154,-293 1154,-431 "/>
<text text-anchor="middle" x="1195.5" y="-404.3" font-family="Times,serif" font-size="14.00" fill="#000000">summary</text>
<polyline fill="none" stroke="#000000" points="1154,-385 1237,-385 "/>
<text text-anchor="middle" x="1195.5" y="-358.3" font-family="Times,serif" font-size="14.00" fill="#000000">reports</text>
<polyline fill="none" stroke="#000000" points="1154,-339 1237,-339 "/>
<text text-anchor="middle" x="1195.5" y="-312.3" font-family="Times,serif" font-size="14.00" fill="#000000"> </text>
<polyline fill="none" stroke="#000000" points="1237,-293 1237,-431 "/>
<text text-anchor="middle" x="1283" y="-392.8" font-family="Times,serif" font-size="14.00" fill="#000000">OUT</text>
<polyline fill="none" stroke="#000000" points="1237,-362 1329,-362 "/>
<text text-anchor="middle" x="1283" y="-323.8" font-family="Times,serif" font-size="14.00" fill="#000000">out_report</text>
</g>
<!-- single_subject_THP0005_wfbidssrc&#45;&gt;single_subject_THP0005_wfsummary -->
<g id="edge4" class="edge">
<title>single_subject_THP0005_wfbidssrc:e&#45;&gt;single_subject_THP0005_wfsummary:w</title>
<path fill="none" stroke="#000000" d="M1253.5,-735.5C1299.9444,-735.5 1285.0253,-665.1063 1253.5,-631 1184.3532,-556.1919 865.6468,-669.8081 796.5,-595 761.5054,-557.1403 763.2207,-518.3759 796.5,-479 858.4743,-405.6722 925.7667,-489.9736 1009.5,-443 1029.6213,-431.7121 1024.8332,-406.2916 1039.6988,-398.9936"/>
<polygon fill="#000000" stroke="#000000" points="1040.3983,-402.4231 1049.5,-397 1039.003,-395.5635 1040.3983,-402.4231"/>
</g>
<!-- single_subject_THP0005_wfbidssrc&#45;&gt;single_subject_THP0005_wfsummary -->
<g id="edge11" class="edge">
<title>single_subject_THP0005_wfbidssrc:e&#45;&gt;single_subject_THP0005_wfsummary:w</title>
<path fill="none" stroke="#000000" d="M1253.5,-665.5C1268.8333,-665.5 1263.8679,-642.2968 1253.5,-631 1190.3096,-562.1476 897.6904,-663.8524 834.5,-595 799.64,-557.0164 801.9239,-518.9596 834.5,-479 884.6741,-417.4537 949.8442,-495.4078 1009.5,-443 1047.5896,-409.5382 1002.2938,-338.0335 1039.5569,-328.1435"/>
<polygon fill="#000000" stroke="#000000" points="1039.9654,-331.6197 1049.5,-327 1039.1656,-324.6655 1039.9654,-331.6197"/>
</g>
<!-- single_subject_THP0005_wfbidssrc&#45;&gt;single_subject_THP0005_wfsummary -->
<g id="edge13" class="edge">
<title>single_subject_THP0005_wfbidssrc:e&#45;&gt;single_subject_THP0005_wfsummary:w</title>
<path fill="none" stroke="#000000" d="M1253.5,-642.5C1258.6111,-642.5 1256.9422,-634.7782 1253.5,-631 1195.4801,-567.3171 925.5199,-658.6829 867.5,-595 832.7786,-556.8896 835.8394,-519.6888 867.5,-479 907.4831,-427.6155 962.7333,-488.2977 1009.5,-443 1052.9701,-400.8953 993.0718,-314.8777 1039.5372,-304.9421"/>
<polygon fill="#000000" stroke="#000000" points="1039.8739,-308.4259 1049.5,-304 1039.2149,-301.457 1039.8739,-308.4259"/>
</g>
<!-- single_subject_THP0005_wfds_report_summary -->
<g id="node12" class="node">
<title>single_subject_THP0005_wfds_report_summary</title>
<polygon fill="none" stroke="#000000" points="1537,-141 1537,-210 1842,-210 1842,-141 1537,-141"/>
<text text-anchor="middle" x="1584.5" y="-194.8" font-family="Times,serif" font-size="14.00" fill="#000000">IN</text>
<polyline fill="none" stroke="#000000" points="1537,-187 1632,-187 "/>
<text text-anchor="middle" x="1584.5" y="-171.8" font-family="Times,serif" font-size="14.00" fill="#000000">in_file</text>
<polyline fill="none" stroke="#000000" points="1537,-164 1632,-164 "/>
<text text-anchor="middle" x="1584.5" y="-148.8" font-family="Times,serif" font-size="14.00" fill="#000000">source_file</text>
<polyline fill="none" stroke="#000000" points="1632,-141 1632,-210 "/>
<text text-anchor="middle" x="1712" y="-194.8" font-family="Times,serif" font-size="14.00" fill="#000000">ds_report_summary</text>
<polyline fill="none" stroke="#000000" points="1632,-187 1792,-187 "/>
<text text-anchor="middle" x="1712" y="-171.8" font-family="Times,serif" font-size="14.00" fill="#000000"> </text>
<polyline fill="none" stroke="#000000" points="1632,-164 1792,-164 "/>
<text text-anchor="middle" x="1712" y="-148.8" font-family="Times,serif" font-size="14.00" fill="#000000"> </text>
<polyline fill="none" stroke="#000000" points="1792,-141 1792,-210 "/>
<text text-anchor="middle" x="1817" y="-171.8" font-family="Times,serif" font-size="14.00" fill="#000000">OUT</text>
</g>
<!-- single_subject_THP0005_wfbidssrc&#45;&gt;single_subject_THP0005_wfds_report_summary -->
<g id="edge10" class="edge">
<title>single_subject_THP0005_wfbidssrc:e&#45;&gt;single_subject_THP0005_wfds_report_summary:w</title>
<path fill="none" stroke="#000000" d="M1253.5,-665.5C1352.6236,-665.5 1723.8231,-461.9496 1735.5,-443 1773.2716,-381.7031 1777.0505,-339.801 1735.5,-281 1681.3513,-204.3703 1590.6487,-287.1297 1536.5,-210.5 1524.0645,-192.9017 1514.4063,-164.1956 1526.6299,-155.2502"/>
<polygon fill="#000000" stroke="#000000" points="1527.8064,-158.5558 1536.5,-152.5 1525.9275,-151.8126 1527.8064,-158.5558"/>
</g>
<!-- single_subject_THP0005_wfanat_preproc_wf -->
<g id="node13" class="node">
<title>single_subject_THP0005_wfanat_preproc_wf</title>
<polygon fill="none" stroke="#000000" points="1358.5,-281.5 1358.5,-442.5 1726.5,-442.5 1726.5,-281.5 1358.5,-281.5"/>
<text text-anchor="middle" x="1449" y="-427.3" font-family="Times,serif" font-size="14.00" fill="#000000">IN</text>
<polyline fill="none" stroke="#000000" points="1358.5,-419.5 1539.5,-419.5 "/>
<text text-anchor="middle" x="1449" y="-404.3" font-family="Times,serif" font-size="14.00" fill="#000000">inputnode.flair</text>
<polyline fill="none" stroke="#000000" points="1358.5,-396.5 1539.5,-396.5 "/>
<text text-anchor="middle" x="1449" y="-381.3" font-family="Times,serif" font-size="14.00" fill="#000000">inputnode.roi</text>
<polyline fill="none" stroke="#000000" points="1358.5,-373.5 1539.5,-373.5 "/>
<text text-anchor="middle" x="1449" y="-358.3" font-family="Times,serif" font-size="14.00" fill="#000000">inputnode.subject_id</text>
<polyline fill="none" stroke="#000000" points="1358.5,-350.5 1539.5,-350.5 "/>
<text text-anchor="middle" x="1449" y="-335.3" font-family="Times,serif" font-size="14.00" fill="#000000">inputnode.subjects_dir</text>
<polyline fill="none" stroke="#000000" points="1358.5,-327.5 1539.5,-327.5 "/>
<text text-anchor="middle" x="1449" y="-312.3" font-family="Times,serif" font-size="14.00" fill="#000000">inputnode.t1w</text>
<polyline fill="none" stroke="#000000" points="1358.5,-304.5 1539.5,-304.5 "/>
<text text-anchor="middle" x="1449" y="-289.3" font-family="Times,serif" font-size="14.00" fill="#000000">inputnode.t2w</text>
<polyline fill="none" stroke="#000000" points="1539.5,-281.5 1539.5,-442.5 "/>
<text text-anchor="middle" x="1608" y="-412.3" font-family="Times,serif" font-size="14.00" fill="#000000">anat_preproc_wf</text>
<polyline fill="none" stroke="#000000" points="1539.5,-389.5 1676.5,-389.5 "/>
<text text-anchor="middle" x="1608" y="-358.8" font-family="Times,serif" font-size="14.00" fill="#000000"> </text>
<polyline fill="none" stroke="#000000" points="1539.5,-335.5 1676.5,-335.5 "/>
<text text-anchor="middle" x="1608" y="-304.8" font-family="Times,serif" font-size="14.00" fill="#000000"> </text>
<polyline fill="none" stroke="#000000" points="1676.5,-281.5 1676.5,-442.5 "/>
<text text-anchor="middle" x="1701.5" y="-358.3" font-family="Times,serif" font-size="14.00" fill="#000000">OUT</text>
</g>
<!-- single_subject_THP0005_wfbidssrc&#45;&gt;single_subject_THP0005_wfanat_preproc_wf -->
<g id="edge5" class="edge">
<title>single_subject_THP0005_wfbidssrc:e&#45;&gt;single_subject_THP0005_wfanat_preproc_wf:w</title>
<path fill="none" stroke="#000000" d="M1253.5,-712.5C1322.0746,-712.5 1328.9633,-659.0345 1353.5,-595 1355.0942,-590.8396 1353.8103,-456.3364 1356.6873,-418.0666"/>
<polygon fill="#000000" stroke="#000000" points="1360.1723,-418.462 1358.5,-408 1353.2831,-417.2214 1360.1723,-418.462"/>
</g>
<!-- single_subject_THP0005_wfbidssrc&#45;&gt;single_subject_THP0005_wfanat_preproc_wf -->
<g id="edge6" class="edge">
<title>single_subject_THP0005_wfbidssrc:e&#45;&gt;single_subject_THP0005_wfanat_preproc_wf:w</title>
<path fill="none" stroke="#000000" d="M1253.5,-688.5C1319.3727,-688.5 1340.1995,-654.4836 1368.5,-595 1390.6495,-548.4449 1375.4631,-530.0832 1368.5,-479 1366.2572,-462.5463 1360.7428,-459.4537 1358.5,-443 1355.6441,-422.0479 1340.1275,-396.4414 1348.8727,-387.9156"/>
<polygon fill="#000000" stroke="#000000" points="1349.9437,-391.2483 1358.5,-385 1347.9148,-384.5487 1349.9437,-391.2483"/>
</g>
<!-- single_subject_THP0005_wfbidssrc&#45;&gt;single_subject_THP0005_wfanat_preproc_wf -->
<g id="edge7" class="edge">
<title>single_subject_THP0005_wfbidssrc:e&#45;&gt;single_subject_THP0005_wfanat_preproc_wf:w</title>
<path fill="none" stroke="#000000" d="M1253.5,-665.5C1320.7952,-665.5 1352.7145,-652.6074 1387.5,-595 1414.1495,-550.8664 1404.6474,-527.6204 1387.5,-479 1380.6665,-459.6241 1365.3335,-462.3759 1358.5,-443 1350.36,-419.9194 1335.1143,-341.3634 1349.613,-320.9041"/>
<polygon fill="#000000" stroke="#000000" points="1351.4356,-323.8959 1358.5,-316 1348.0536,-317.7671 1351.4356,-323.8959"/>
</g>
<!-- single_subject_THP0005_wfbidssrc&#45;&gt;single_subject_THP0005_wfanat_preproc_wf -->
<g id="edge12" class="edge">
<title>single_subject_THP0005_wfbidssrc:e&#45;&gt;single_subject_THP0005_wfanat_preproc_wf:w</title>
<path fill="none" stroke="#000000" d="M1253.5,-642.5C1289.7381,-642.5 1387.9282,-624.118 1409.5,-595 1440.19,-553.5742 1433.2188,-524.7755 1409.5,-479 1396.7356,-454.3657 1371.2644,-467.6343 1358.5,-443 1344.8419,-416.6409 1329.0719,-318.252 1349.3341,-297.0448"/>
<polygon fill="#000000" stroke="#000000" points="1350.7642,-300.2394 1358.5,-293 1347.9381,-293.8352 1350.7642,-300.2394"/>
</g>
<!-- single_subject_THP0005_wfbids_info&#45;&gt;single_subject_THP0005_wfsummary -->
<g id="edge3" class="edge">
<title>single_subject_THP0005_wfbids_info:e&#45;&gt;single_subject_THP0005_wfsummary:w</title>
<path fill="none" stroke="#000000" d="M1344.5,-520C1352.5,-520 1349.456,-508.28 1344.5,-502 1260.9893,-396.18 1133.0107,-537.32 1049.5,-431.5 1036.2657,-414.7302 1027.2995,-385.8169 1039.6418,-376.7811"/>
<polygon fill="#000000" stroke="#000000" points="1040.826,-380.0837 1049.5,-374 1038.9253,-373.3467 1040.826,-380.0837"/>
</g>
<!-- single_subject_THP0005_wfbids_info&#45;&gt;single_subject_THP0005_wfanat_preproc_wf -->
<g id="edge2" class="edge">
<title>single_subject_THP0005_wfbids_info:e&#45;&gt;single_subject_THP0005_wfanat_preproc_wf:w</title>
<path fill="none" stroke="#000000" d="M1344.5,-520C1375.8934,-520 1334.5126,-394.6724 1349.9866,-367.2569"/>
<polygon fill="#000000" stroke="#000000" points="1351.8303,-370.232 1358.5,-362 1348.1525,-364.276 1351.8303,-370.232"/>
</g>
<!-- single_subject_THP0005_wffsinputnode -->
<g id="node10" class="node">
<title>single_subject_THP0005_wffsinputnode</title>
<polygon fill="none" stroke="#000000" points="876.5,-502.5 876.5,-571.5 1116.5,-571.5 1116.5,-502.5 876.5,-502.5"/>
<text text-anchor="middle" x="894" y="-533.3" font-family="Times,serif" font-size="14.00" fill="#000000">IN</text>
<polyline fill="none" stroke="#000000" points="911.5,-502.5 911.5,-571.5 "/>
<text text-anchor="middle" x="962" y="-556.3" font-family="Times,serif" font-size="14.00" fill="#000000">fsinputnode</text>
<polyline fill="none" stroke="#000000" points="911.5,-548.5 1012.5,-548.5 "/>
<text text-anchor="middle" x="962" y="-533.3" font-family="Times,serif" font-size="14.00" fill="#000000">utility</text>
<polyline fill="none" stroke="#000000" points="911.5,-525.5 1012.5,-525.5 "/>
<text text-anchor="middle" x="962" y="-510.3" font-family="Times,serif" font-size="14.00" fill="#000000"> </text>
<polyline fill="none" stroke="#000000" points="1012.5,-502.5 1012.5,-571.5 "/>
<text text-anchor="middle" x="1064.5" y="-550.8" font-family="Times,serif" font-size="14.00" fill="#000000">OUT</text>
<polyline fill="none" stroke="#000000" points="1012.5,-537.5 1116.5,-537.5 "/>
<text text-anchor="middle" x="1064.5" y="-516.3" font-family="Times,serif" font-size="14.00" fill="#000000">subjects_dir</text>
</g>
<!-- single_subject_THP0005_wffsinputnode&#45;&gt;single_subject_THP0005_wfsummary -->
<g id="edge18" class="edge">
<title>single_subject_THP0005_wffsinputnode:e&#45;&gt;single_subject_THP0005_wfsummary:w</title>
<path fill="none" stroke="#000000" d="M1116.5,-520C1124.5,-520 1119.4672,-509.4294 1116.5,-502 1100.4676,-461.8571 1065.5324,-471.6429 1049.5,-431.5 1037.5872,-401.672 1018.3206,-360.6611 1039.3625,-351.7523"/>
<polygon fill="#000000" stroke="#000000" points="1040.2423,-355.1522 1049.5,-350 1039.0499,-348.2545 1040.2423,-355.1522"/>
</g>
<!-- single_subject_THP0005_wffsinputnode&#45;&gt;single_subject_THP0005_wfanat_preproc_wf -->
<g id="edge17" class="edge">
<title>single_subject_THP0005_wffsinputnode:e&#45;&gt;single_subject_THP0005_wfanat_preproc_wf:w</title>
<path fill="none" stroke="#000000" d="M1116.5,-520C1135.1561,-520 1111.9962,-491.8723 1125.5,-479 1194.6772,-413.058 1268.8805,-509.5221 1337.5,-443 1368.4475,-412.9984 1320.9662,-350.9504 1348.5896,-340.5075"/>
<polygon fill="#000000" stroke="#000000" points="1349.1401,-343.9641 1358.5,-339 1348.0874,-337.0437 1349.1401,-343.9641"/>
</g>
<!-- single_subject_THP0005_wfsummary&#45;&gt;single_subject_THP0005_wfds_report_summary -->
<g id="edge27" class="edge">
<title>single_subject_THP0005_wfsummary:e&#45;&gt;single_subject_THP0005_wfds_report_summary:w</title>
<path fill="none" stroke="#000000" d="M1329.5,-327C1351.7932,-327 1334.5731,-297.5582 1349.5,-281 1411.0856,-212.684 1439.0269,-178.0494 1526.4165,-175.6357"/>
<polygon fill="#000000" stroke="#000000" points="1526.548,-179.1343 1536.5,-175.5 1526.4538,-172.135 1526.548,-179.1343"/>
</g>
</g>
</svg>
