<?xml version="1.0" encoding="UTF-8" standalone="no"?>
<!DOCTYPE svg PUBLIC "-//W3C//DTD SVG 1.1//EN"
 "http://www.w3.org/Graphics/SVG/1.1/DTD/svg11.dtd">
<!-- Generated by graphviz version 2.40.1 (20161225.0304)
 -->
<!-- Title: %3 Pages: 1 -->
<svg width="1026pt" height="332pt"
 viewBox="0.00 0.00 1025.98 332.00" xmlns="http://www.w3.org/2000/svg" xmlns:xlink="http://www.w3.org/1999/xlink">
<g id="graph0" class="graph" transform="scale(1 1) rotate(0) translate(4 328)">
<title>%3</title>
<polygon fill="#ffffff" stroke="transparent" points="-4,4 -4,-328 1021.9839,-328 1021.9839,4 -4,4"/>
<!-- fsinputnode (utility) -->
<g id="node1" class="node">
<title>fsinputnode (utility)</title>
<ellipse fill="none" stroke="#000000" cx="455.8916" cy="-234" rx="103.1819" ry="18"/>
<text text-anchor="middle" x="455.8916" y="-230.3" font-family="Times,serif" font-size="14.00" fill="#000000">fsinputnode (utility)</text>
</g>
<!-- anat_preproc_wf -->
<g id="node2" class="node">
<title>anat_preproc_wf</title>
<ellipse fill="none" stroke="#000000" cx="446.8916" cy="-162" rx="89.0842" ry="18"/>
<text text-anchor="middle" x="446.8916" y="-158.3" font-family="Times,serif" font-size="14.00" fill="#000000">anat_preproc_wf</text>
</g>
<!-- fsinputnode (utility)&#45;&gt;anat_preproc_wf -->
<g id="edge1" class="edge">
<title>fsinputnode (utility)&#45;&gt;anat_preproc_wf</title>
<path fill="none" stroke="#000000" d="M453.6205,-215.8314C452.6579,-208.131 451.5134,-198.9743 450.4437,-190.4166"/>
<polygon fill="#000000" stroke="#000000" points="453.9066,-189.9019 449.1932,-180.4133 446.9607,-190.7702 453.9066,-189.9019"/>
</g>
<!-- summary (reports) -->
<g id="node3" class="node">
<title>summary (reports)</title>
<ellipse fill="none" stroke="#000000" cx="689.8916" cy="-162" rx="98.2828" ry="18"/>
<text text-anchor="middle" x="689.8916" y="-158.3" font-family="Times,serif" font-size="14.00" fill="#000000">summary (reports)</text>
</g>
<!-- fsinputnode (utility)&#45;&gt;summary (reports) -->
<g id="edge2" class="edge">
<title>fsinputnode (utility)&#45;&gt;summary (reports)</title>
<path fill="none" stroke="#000000" d="M506.9547,-218.2883C543.0007,-207.1972 591.4443,-192.2915 629.4249,-180.6051"/>
<polygon fill="#000000" stroke="#000000" points="630.8115,-183.8405 639.3399,-177.5544 628.7528,-177.1501 630.8115,-183.8405"/>
</g>
<!-- bbreg_wf -->
<g id="node4" class="node">
<title>bbreg_wf</title>
<ellipse fill="none" stroke="#000000" cx="349.8916" cy="-90" rx="53.8905" ry="18"/>
<text text-anchor="middle" x="349.8916" y="-86.3" font-family="Times,serif" font-size="14.00" fill="#000000">bbreg_wf</text>
</g>
<!-- fsinputnode (utility)&#45;&gt;bbreg_wf -->
<g id="edge3" class="edge">
<title>fsinputnode (utility)&#45;&gt;bbreg_wf</title>
<path fill="none" stroke="#000000" d="M399.236,-218.8682C379.8301,-210.6781 360.1797,-198.3409 348.8916,-180 337.5583,-161.5857 338.7691,-136.783 342.2744,-117.8782"/>
<polygon fill="#000000" stroke="#000000" points="345.7048,-118.5736 344.3927,-108.0603 338.8623,-117.0972 345.7048,-118.5736"/>
</g>
<!-- anat_preproc_wf&#45;&gt;bbreg_wf -->
<g id="edge5" class="edge">
<title>anat_preproc_wf&#45;&gt;bbreg_wf</title>
<path fill="none" stroke="#000000" d="M423.4106,-144.5708C410.5024,-134.9895 394.3383,-122.9914 380.456,-112.687"/>
<polygon fill="#000000" stroke="#000000" points="382.2726,-109.6766 372.1567,-106.5267 378.1004,-115.2974 382.2726,-109.6766"/>
</g>
<!-- t1w_brain (nibabel) -->
<g id="node5" class="node">
<title>t1w_brain (nibabel)</title>
<ellipse fill="none" stroke="#000000" cx="522.8916" cy="-90" rx="101.2821" ry="18"/>
<text text-anchor="middle" x="522.8916" y="-86.3" font-family="Times,serif" font-size="14.00" fill="#000000">t1w_brain (nibabel)</text>
</g>
<!-- anat_preproc_wf&#45;&gt;t1w_brain (nibabel) -->
<g id="edge4" class="edge">
<title>anat_preproc_wf&#45;&gt;t1w_brain (nibabel)</title>
<path fill="none" stroke="#000000" d="M465.6781,-144.2022C474.9955,-135.3752 486.4043,-124.5669 496.5759,-114.9307"/>
<polygon fill="#000000" stroke="#000000" points="499.2053,-117.2609 504.0578,-107.8425 494.3911,-112.1792 499.2053,-117.2609"/>
</g>
<!-- ds_report_summary -->
<g id="node8" class="node">
<title>ds_report_summary</title>
<ellipse fill="none" stroke="#000000" cx="751.8916" cy="-90" rx="103.9815" ry="18"/>
<text text-anchor="middle" x="751.8916" y="-86.3" font-family="Times,serif" font-size="14.00" fill="#000000">ds_report_summary</text>
</g>
<!-- summary (reports)&#45;&gt;ds_report_summary -->
<g id="edge6" class="edge">
<title>summary (reports)&#45;&gt;ds_report_summary</title>
<path fill="none" stroke="#000000" d="M705.2174,-144.2022C712.6694,-135.5483 721.7613,-124.99 729.9342,-115.4988"/>
<polygon fill="#000000" stroke="#000000" points="732.6541,-117.7041 736.5272,-107.8425 727.3497,-113.1364 732.6541,-117.7041"/>
</g>
<!-- ds_report_reg -->
<g id="node15" class="node">
<title>ds_report_reg</title>
<ellipse fill="none" stroke="#000000" cx="183.8916" cy="-18" rx="76.0865" ry="18"/>
<text text-anchor="middle" x="183.8916" y="-14.3" font-family="Times,serif" font-size="14.00" fill="#000000">ds_report_reg</text>
</g>
<!-- bbreg_wf&#45;&gt;ds_report_reg -->
<g id="edge7" class="edge">
<title>bbreg_wf&#45;&gt;ds_report_reg</title>
<path fill="none" stroke="#000000" d="M316.698,-75.6028C291.8149,-64.8101 257.4545,-49.9068 229.9181,-37.9633"/>
<polygon fill="#000000" stroke="#000000" points="231.0565,-34.6421 220.4895,-33.8738 228.271,-41.064 231.0565,-34.6421"/>
</g>
<!-- bidssrc -->
<g id="node6" class="node">
<title>bidssrc</title>
<ellipse fill="none" stroke="#000000" cx="768.8916" cy="-306" rx="44.6926" ry="18"/>
<text text-anchor="middle" x="768.8916" y="-302.3" font-family="Times,serif" font-size="14.00" fill="#000000">bidssrc</text>
</g>
<!-- bidssrc&#45;&gt;anat_preproc_wf -->
<g id="edge10" class="edge">
<title>bidssrc&#45;&gt;anat_preproc_wf</title>
<path fill="none" stroke="#000000" d="M724.2261,-303.6124C620.2201,-297.5972 368.7824,-280.2535 343.8916,-252 333.3149,-239.9944 335.6111,-229.6907 343.8916,-216 353.3693,-200.3299 369.061,-188.985 385.3736,-180.8676"/>
<polygon fill="#000000" stroke="#000000" points="386.8442,-184.0437 394.4645,-176.683 383.9172,-177.685 386.8442,-184.0437"/>
</g>
<!-- bidssrc&#45;&gt;summary (reports) -->
<g id="edge9" class="edge">
<title>bidssrc&#45;&gt;summary (reports)</title>
<path fill="none" stroke="#000000" d="M768.3387,-287.9251C767.0411,-268.8712 762.8936,-238.5503 749.8916,-216 743.3186,-204.6001 733.4954,-194.298 723.6904,-185.8221"/>
<polygon fill="#000000" stroke="#000000" points="725.8458,-183.0633 715.8934,-179.4301 721.4079,-188.4767 725.8458,-183.0633"/>
</g>
<!-- bids_info (bids) -->
<g id="node7" class="node">
<title>bids_info (bids)</title>
<ellipse fill="none" stroke="#000000" cx="658.8916" cy="-234" rx="81.7856" ry="18"/>
<text text-anchor="middle" x="658.8916" y="-230.3" font-family="Times,serif" font-size="14.00" fill="#000000">bids_info (bids)</text>
</g>
<!-- bidssrc&#45;&gt;bids_info (bids) -->
<g id="edge8" class="edge">
<title>bidssrc&#45;&gt;bids_info (bids)</title>
<path fill="none" stroke="#000000" d="M745.2938,-290.5542C730.2417,-280.7019 710.4706,-267.7608 693.6402,-256.7445"/>
<polygon fill="#000000" stroke="#000000" points="695.4314,-253.7339 685.1476,-251.1857 691.5978,-259.5908 695.4314,-253.7339"/>
</g>
<!-- bidssrc&#45;&gt;ds_report_summary -->
<g id="edge11" class="edge">
<title>bidssrc&#45;&gt;ds_report_summary</title>
<path fill="none" stroke="#000000" d="M777.8573,-287.9752C791.7458,-257.4939 815.0613,-194.1856 796.8916,-144 793.1137,-133.5653 786.3415,-123.7299 779.179,-115.3848"/>
<polygon fill="#000000" stroke="#000000" points="781.6192,-112.8675 772.2773,-107.8696 776.4635,-117.6023 781.6192,-112.8675"/>
</g>
<!-- ds_report_about -->
<g id="node9" class="node">
<title>ds_report_about</title>
<ellipse fill="none" stroke="#000000" cx="930.8916" cy="-234" rx="87.1846" ry="18"/>
<text text-anchor="middle" x="930.8916" y="-230.3" font-family="Times,serif" font-size="14.00" fill="#000000">ds_report_about</text>
</g>
<!-- bidssrc&#45;&gt;ds_report_about -->
<g id="edge12" class="edge">
<title>bidssrc&#45;&gt;ds_report_about</title>
<path fill="none" stroke="#000000" d="M798.9829,-292.6261C823.0473,-281.9308 857.1932,-266.7548 884.7145,-254.5231"/>
<polygon fill="#000000" stroke="#000000" points="886.4289,-257.5914 894.1455,-250.3316 883.5859,-251.1947 886.4289,-257.5914"/>
</g>
<!-- bids_info (bids)&#45;&gt;anat_preproc_wf -->
<g id="edge14" class="edge">
<title>bids_info (bids)&#45;&gt;anat_preproc_wf</title>
<path fill="none" stroke="#000000" d="M614.1909,-218.8186C581.5447,-207.7312 537.0793,-192.6298 502.1955,-180.7825"/>
<polygon fill="#000000" stroke="#000000" points="503.2227,-177.4351 492.6284,-177.5332 500.9716,-184.0632 503.2227,-177.4351"/>
</g>
<!-- bids_info (bids)&#45;&gt;summary (reports) -->
<g id="edge13" class="edge">
<title>bids_info (bids)&#45;&gt;summary (reports)</title>
<path fill="none" stroke="#000000" d="M666.7142,-215.8314C670.1025,-207.9617 674.1457,-198.5712 677.8992,-189.8533"/>
<polygon fill="#000000" stroke="#000000" points="681.2237,-190.9822 681.9636,-180.4133 674.7943,-188.214 681.2237,-190.9822"/>
</g>
<!-- bids_info (bids)&#45;&gt;bbreg_wf -->
<g id="edge15" class="edge">
<title>bids_info (bids)&#45;&gt;bbreg_wf</title>
<path fill="none" stroke="#000000" d="M632.8947,-216.8676C617.8957,-206.6568 598.8957,-193.1568 582.8916,-180 564.9204,-165.226 565.1692,-155.4041 544.8916,-144 491.8894,-114.1915 471.4608,-124.3531 412.8916,-108 408.8857,-106.8815 404.7391,-105.7154 400.5735,-104.538"/>
<polygon fill="#000000" stroke="#000000" points="401.4525,-101.1493 390.8769,-101.7874 399.5422,-107.8836 401.4525,-101.1493"/>
</g>
<!-- about (reports) -->
<g id="node10" class="node">
<title>about (reports)</title>
<ellipse fill="none" stroke="#000000" cx="930.8916" cy="-306" rx="81.4863" ry="18"/>
<text text-anchor="middle" x="930.8916" y="-302.3" font-family="Times,serif" font-size="14.00" fill="#000000">about (reports)</text>
</g>
<!-- about (reports)&#45;&gt;ds_report_about -->
<g id="edge16" class="edge">
<title>about (reports)&#45;&gt;ds_report_about</title>
<path fill="none" stroke="#000000" d="M930.8916,-287.8314C930.8916,-280.131 930.8916,-270.9743 930.8916,-262.4166"/>
<polygon fill="#000000" stroke="#000000" points="934.3917,-262.4132 930.8916,-252.4133 927.3917,-262.4133 934.3917,-262.4132"/>
</g>
<!-- inputnode (utility) -->
<g id="node11" class="node">
<title>inputnode (utility)</title>
<ellipse fill="none" stroke="#000000" cx="94.8916" cy="-306" rx="94.7833" ry="18"/>
<text text-anchor="middle" x="94.8916" y="-302.3" font-family="Times,serif" font-size="14.00" fill="#000000">inputnode (utility)</text>
</g>
<!-- split_info (utility) -->
<g id="node12" class="node">
<title>split_info (utility)</title>
<ellipse fill="none" stroke="#000000" cx="94.8916" cy="-234" rx="90.9839" ry="18"/>
<text text-anchor="middle" x="94.8916" y="-230.3" font-family="Times,serif" font-size="14.00" fill="#000000">split_info (utility)</text>
</g>
<!-- inputnode (utility)&#45;&gt;split_info (utility) -->
<g id="edge17" class="edge">
<title>inputnode (utility)&#45;&gt;split_info (utility)</title>
<path fill="none" stroke="#000000" d="M94.8916,-287.8314C94.8916,-280.131 94.8916,-270.9743 94.8916,-262.4166"/>
<polygon fill="#000000" stroke="#000000" points="98.3917,-262.4132 94.8916,-252.4133 91.3917,-262.4133 98.3917,-262.4132"/>
</g>
<!-- early_b0ref_wf -->
<g id="node13" class="node">
<title>early_b0ref_wf</title>
<ellipse fill="none" stroke="#000000" cx="202.8916" cy="-162" rx="79.8859" ry="18"/>
<text text-anchor="middle" x="202.8916" y="-158.3" font-family="Times,serif" font-size="14.00" fill="#000000">early_b0ref_wf</text>
</g>
<!-- split_info (utility)&#45;&gt;early_b0ref_wf -->
<g id="edge18" class="edge">
<title>split_info (utility)&#45;&gt;early_b0ref_wf</title>
<path fill="none" stroke="#000000" d="M121.0354,-216.5708C135.2298,-207.1078 152.9605,-195.2874 168.2871,-185.0696"/>
<polygon fill="#000000" stroke="#000000" points="170.6095,-187.7279 176.9886,-179.2687 166.7266,-181.9035 170.6095,-187.7279"/>
</g>
<!-- referencenode (utility) -->
<g id="node14" class="node">
<title>referencenode (utility)</title>
<ellipse fill="none" stroke="#000000" cx="161.8916" cy="-90" rx="115.8798" ry="18"/>
<text text-anchor="middle" x="161.8916" y="-86.3" font-family="Times,serif" font-size="14.00" fill="#000000">referencenode (utility)</text>
</g>
<!-- split_info (utility)&#45;&gt;referencenode (utility) -->
<g id="edge19" class="edge">
<title>split_info (utility)&#45;&gt;referencenode (utility)</title>
<path fill="none" stroke="#000000" d="M95.9812,-215.85C97.7237,-197.0019 102.2364,-167.0962 113.8916,-144 119.0835,-133.7116 126.7311,-123.8528 134.4032,-115.4403"/>
<polygon fill="#000000" stroke="#000000" points="136.9962,-117.793 141.3861,-108.1504 131.9411,-112.9508 136.9962,-117.793"/>
</g>
<!-- split_info (utility)&#45;&gt;ds_report_reg -->
<g id="edge20" class="edge">
<title>split_info (utility)&#45;&gt;ds_report_reg</title>
<path fill="none" stroke="#000000" d="M78.4122,-216.0327C51.5899,-184.5336 4.5761,-118.2978 36.8916,-72 47.0974,-57.3783 85.4364,-43.5637 120.3998,-33.5677"/>
<polygon fill="#000000" stroke="#000000" points="121.4521,-36.9079 130.1456,-30.8521 119.5731,-30.1648 121.4521,-36.9079"/>
</g>
<!-- early_b0ref_wf&#45;&gt;bbreg_wf -->
<g id="edge22" class="edge">
<title>early_b0ref_wf&#45;&gt;bbreg_wf</title>
<path fill="none" stroke="#000000" d="M236.6163,-145.4817C258.5194,-134.7537 287.1661,-120.7227 310.1708,-109.4551"/>
<polygon fill="#000000" stroke="#000000" points="311.8846,-112.513 319.3257,-104.971 308.8055,-106.2266 311.8846,-112.513"/>
</g>
<!-- early_b0ref_wf&#45;&gt;referencenode (utility) -->
<g id="edge21" class="edge">
<title>early_b0ref_wf&#45;&gt;referencenode (utility)</title>
<path fill="none" stroke="#000000" d="M192.5455,-143.8314C187.9679,-135.7925 182.4864,-126.1666 177.4327,-117.2918"/>
<polygon fill="#000000" stroke="#000000" points="180.3668,-115.3712 172.3769,-108.4133 174.2839,-118.8351 180.3668,-115.3712"/>
</g>
</g>
</svg>
