<?xml version="1.0" encoding="UTF-8" standalone="no"?>
<!DOCTYPE svg PUBLIC "-//W3C//DTD SVG 1.1//EN"
 "http://www.w3.org/Graphics/SVG/1.1/DTD/svg11.dtd">
<!-- Generated by graphviz version 2.40.1 (20161225.0304)
 -->
<!-- Title: %3 Pages: 1 -->
<svg width="1001pt" height="404pt"
 viewBox="0.00 0.00 1001.43 404.00" xmlns="http://www.w3.org/2000/svg" xmlns:xlink="http://www.w3.org/1999/xlink">
<g id="graph0" class="graph" transform="scale(1 1) rotate(0) translate(4 400)">
<title>%3</title>
<polygon fill="#ffffff" stroke="transparent" points="-4,4 -4,-400 997.4343,-400 997.4343,4 -4,4"/>
<!-- inputnode (utility) -->
<g id="node1" class="node">
<title>inputnode (utility)</title>
<ellipse fill="none" stroke="#000000" cx="498.0433" cy="-378" rx="94.7833" ry="18"/>
<text text-anchor="middle" x="498.0433" y="-374.3" font-family="Times,serif" font-size="14.00" fill="#000000">inputnode (utility)</text>
</g>
<!-- gradient_table (vectors) -->
<g id="node2" class="node">
<title>gradient_table (vectors)</title>
<ellipse fill="none" stroke="#000000" cx="574.0433" cy="-306" rx="122.6784" ry="18"/>
<text text-anchor="middle" x="574.0433" y="-302.3" font-family="Times,serif" font-size="14.00" fill="#000000">gradient_table (vectors)</text>
</g>
<!-- inputnode (utility)&#45;&gt;gradient_table (vectors) -->
<g id="edge1" class="edge">
<title>inputnode (utility)&#45;&gt;gradient_table (vectors)</title>
<path fill="none" stroke="#000000" d="M516.8298,-360.2022C526.1472,-351.3752 537.556,-340.5669 547.7275,-330.9307"/>
<polygon fill="#000000" stroke="#000000" points="550.357,-333.2609 555.2095,-323.8425 545.5428,-328.1792 550.357,-333.2609"/>
</g>
<!-- dwi_reference_wf -->
<g id="node3" class="node">
<title>dwi_reference_wf</title>
<ellipse fill="none" stroke="#000000" cx="430.0433" cy="-234" rx="92.8835" ry="18"/>
<text text-anchor="middle" x="430.0433" y="-230.3" font-family="Times,serif" font-size="14.00" fill="#000000">dwi_reference_wf</text>
</g>
<!-- inputnode (utility)&#45;&gt;dwi_reference_wf -->
<g id="edge2" class="edge">
<title>inputnode (utility)&#45;&gt;dwi_reference_wf</title>
<path fill="none" stroke="#000000" d="M473.325,-360.4806C461.9047,-351.0203 449.2944,-338.3435 442.0433,-324 432.4124,-304.9491 429.6128,-280.8688 429.1122,-262.4112"/>
<polygon fill="#000000" stroke="#000000" points="432.6114,-262.2518 429.0488,-252.2739 425.6115,-262.2957 432.6114,-262.2518"/>
</g>
<!-- dwi_derivatives_wf -->
<g id="node4" class="node">
<title>dwi_derivatives_wf</title>
<ellipse fill="none" stroke="#000000" cx="763.0433" cy="-90" rx="100.1823" ry="18"/>
<text text-anchor="middle" x="763.0433" y="-86.3" font-family="Times,serif" font-size="14.00" fill="#000000">dwi_derivatives_wf</text>
</g>
<!-- inputnode (utility)&#45;&gt;dwi_derivatives_wf -->
<g id="edge3" class="edge">
<title>inputnode (utility)&#45;&gt;dwi_derivatives_wf</title>
<path fill="none" stroke="#000000" d="M578.4577,-368.3829C636.9296,-359.7743 709.4624,-345.212 731.0433,-324 786.4836,-269.5073 777.3585,-167.3873 768.8931,-118.0709"/>
<polygon fill="#000000" stroke="#000000" points="772.3124,-117.3123 767.066,-108.1077 765.4272,-118.575 772.3124,-117.3123"/>
</g>
<!-- bbreg_wf -->
<g id="node5" class="node">
<title>bbreg_wf</title>
<ellipse fill="none" stroke="#000000" cx="189.0433" cy="-162" rx="53.8905" ry="18"/>
<text text-anchor="middle" x="189.0433" y="-158.3" font-family="Times,serif" font-size="14.00" fill="#000000">bbreg_wf</text>
</g>
<!-- inputnode (utility)&#45;&gt;bbreg_wf -->
<g id="edge4" class="edge">
<title>inputnode (utility)&#45;&gt;bbreg_wf</title>
<path fill="none" stroke="#000000" d="M444.0273,-363.1939C416.4369,-354.244 383.0779,-341.2065 356.0433,-324 295.4719,-285.4488 238.5032,-222.332 209.3358,-187.3487"/>
<polygon fill="#000000" stroke="#000000" points="211.931,-184.9945 202.8694,-179.5047 206.5297,-189.4471 211.931,-184.9945"/>
</g>
<!-- t1w_brain (nibabel) -->
<g id="node6" class="node">
<title>t1w_brain (nibabel)</title>
<ellipse fill="none" stroke="#000000" cx="892.0433" cy="-306" rx="101.2821" ry="18"/>
<text text-anchor="middle" x="892.0433" y="-302.3" font-family="Times,serif" font-size="14.00" fill="#000000">t1w_brain (nibabel)</text>
</g>
<!-- inputnode (utility)&#45;&gt;t1w_brain (nibabel) -->
<g id="edge5" class="edge">
<title>inputnode (utility)&#45;&gt;t1w_brain (nibabel)</title>
<path fill="none" stroke="#000000" d="M566.6728,-365.4586C634.7927,-353.0102 739.1837,-333.9337 811.2637,-320.7617"/>
<polygon fill="#000000" stroke="#000000" points="812.0051,-324.1843 821.213,-318.9436 810.7467,-317.2983 812.0051,-324.1843"/>
</g>
<!-- ds_report_reg -->
<g id="node7" class="node">
<title>ds_report_reg</title>
<ellipse fill="none" stroke="#000000" cx="76.0433" cy="-90" rx="76.0865" ry="18"/>
<text text-anchor="middle" x="76.0433" y="-86.3" font-family="Times,serif" font-size="14.00" fill="#000000">ds_report_reg</text>
</g>
<!-- inputnode (utility)&#45;&gt;ds_report_reg -->
<g id="edge6" class="edge">
<title>inputnode (utility)&#45;&gt;ds_report_reg</title>
<path fill="none" stroke="#000000" d="M428.5328,-365.6806C390.639,-357.2369 343.7178,-343.896 305.0433,-324 214.25,-277.2917 191.837,-258.0786 126.0433,-180 110.0558,-161.0274 96.706,-136.1701 87.8336,-117.3872"/>
<polygon fill="#000000" stroke="#000000" points="90.962,-115.8125 83.6118,-108.182 84.5993,-118.7307 90.962,-115.8125"/>
</g>
<!-- eddy_wf -->
<g id="node8" class="node">
<title>eddy_wf</title>
<ellipse fill="none" stroke="#000000" cx="310.0433" cy="-162" rx="49.2915" ry="18"/>
<text text-anchor="middle" x="310.0433" y="-158.3" font-family="Times,serif" font-size="14.00" fill="#000000">eddy_wf</text>
</g>
<!-- inputnode (utility)&#45;&gt;eddy_wf -->
<g id="edge7" class="edge">
<title>inputnode (utility)&#45;&gt;eddy_wf</title>
<path fill="none" stroke="#000000" d="M461.893,-361.3259C422.4878,-341.19 360.7038,-303.4996 328.0433,-252 316.3607,-233.5788 312.0254,-209.1232 310.5201,-190.3545"/>
<polygon fill="#000000" stroke="#000000" points="314.0113,-190.0987 309.9364,-180.3188 307.0231,-190.5052 314.0113,-190.0987"/>
</g>
<!-- reportlets_wf -->
<g id="node9" class="node">
<title>reportlets_wf</title>
<ellipse fill="none" stroke="#000000" cx="571.0433" cy="-90" rx="73.387" ry="18"/>
<text text-anchor="middle" x="571.0433" y="-86.3" font-family="Times,serif" font-size="14.00" fill="#000000">reportlets_wf</text>
</g>
<!-- inputnode (utility)&#45;&gt;reportlets_wf -->
<g id="edge8" class="edge">
<title>inputnode (utility)&#45;&gt;reportlets_wf</title>
<path fill="none" stroke="#000000" d="M576.235,-367.7398C628.2677,-359.1235 689.9217,-344.8414 706.0433,-324 754.9911,-260.7219 750.8936,-210.2454 706.0433,-144 696.8412,-130.4082 662.1503,-116.6904 630.2417,-106.482"/>
<polygon fill="#000000" stroke="#000000" points="631.0482,-103.0673 620.4596,-103.4306 628.9637,-109.7498 631.0482,-103.0673"/>
</g>
<!-- gradient_table (vectors)&#45;&gt;dwi_reference_wf -->
<g id="edge9" class="edge">
<title>gradient_table (vectors)&#45;&gt;dwi_reference_wf</title>
<path fill="none" stroke="#000000" d="M539.1849,-288.5708C519.318,-278.6374 494.2556,-266.1062 473.1592,-255.558"/>
<polygon fill="#000000" stroke="#000000" points="474.5933,-252.3619 464.0837,-251.0202 471.4627,-258.6229 474.5933,-252.3619"/>
</g>
<!-- outputnode (utility) -->
<g id="node10" class="node">
<title>outputnode (utility)</title>
<ellipse fill="none" stroke="#000000" cx="596.0433" cy="-162" rx="101.2821" ry="18"/>
<text text-anchor="middle" x="596.0433" y="-158.3" font-family="Times,serif" font-size="14.00" fill="#000000">outputnode (utility)</text>
</g>
<!-- gradient_table (vectors)&#45;&gt;outputnode (utility) -->
<g id="edge10" class="edge">
<title>gradient_table (vectors)&#45;&gt;outputnode (utility)</title>
<path fill="none" stroke="#000000" d="M576.8296,-287.7623C580.582,-263.201 587.2971,-219.2474 591.7114,-190.3541"/>
<polygon fill="#000000" stroke="#000000" points="595.2291,-190.5035 593.2796,-180.0896 588.3094,-189.4463 595.2291,-190.5035"/>
</g>
<!-- dwi_reference_wf&#45;&gt;bbreg_wf -->
<g id="edge11" class="edge">
<title>dwi_reference_wf&#45;&gt;bbreg_wf</title>
<path fill="none" stroke="#000000" d="M379.2278,-218.8186C338.0196,-206.5075 280.2456,-189.2472 239.212,-176.9882"/>
<polygon fill="#000000" stroke="#000000" points="240.0055,-173.5724 229.4221,-174.0634 238.0017,-180.2795 240.0055,-173.5724"/>
</g>
<!-- dwi_reference_wf&#45;&gt;eddy_wf -->
<g id="edge12" class="edge">
<title>dwi_reference_wf&#45;&gt;eddy_wf</title>
<path fill="none" stroke="#000000" d="M401.3003,-216.7542C384.2952,-206.5512 362.6427,-193.5596 344.6967,-182.7921"/>
<polygon fill="#000000" stroke="#000000" points="346.0699,-179.5344 335.6942,-177.3906 342.4684,-185.5368 346.0699,-179.5344"/>
</g>
<!-- dwi_reference_wf&#45;&gt;reportlets_wf -->
<g id="edge15" class="edge">
<title>dwi_reference_wf&#45;&gt;reportlets_wf</title>
<path fill="none" stroke="#000000" d="M438.3125,-215.791C447.7941,-196.3465 464.8026,-165.4406 486.0433,-144 498.5764,-131.3489 514.5927,-120.2162 529.3362,-111.3965"/>
<polygon fill="#000000" stroke="#000000" points="531.4023,-114.245 538.3092,-106.211 527.8997,-108.1843 531.4023,-114.245"/>
</g>
<!-- dwi_reference_wf&#45;&gt;outputnode (utility) -->
<g id="edge16" class="edge">
<title>dwi_reference_wf&#45;&gt;outputnode (utility)</title>
<path fill="none" stroke="#000000" d="M468.127,-217.4817C491.8926,-207.1738 522.6889,-193.8164 548.1086,-182.7909"/>
<polygon fill="#000000" stroke="#000000" points="549.7804,-185.8809 557.5619,-178.6907 546.9949,-179.459 549.7804,-185.8809"/>
</g>
<!-- eddy_report (reportlets) -->
<g id="node11" class="node">
<title>eddy_report (reportlets)</title>
<ellipse fill="none" stroke="#000000" cx="294.0433" cy="-90" rx="123.4781" ry="18"/>
<text text-anchor="middle" x="294.0433" y="-86.3" font-family="Times,serif" font-size="14.00" fill="#000000">eddy_report (reportlets)</text>
</g>
<!-- dwi_reference_wf&#45;&gt;eddy_report (reportlets) -->
<g id="edge13" class="edge">
<title>dwi_reference_wf&#45;&gt;eddy_report (reportlets)</title>
<path fill="none" stroke="#000000" d="M419.9811,-215.7722C408.8504,-196.5904 389.6129,-166.1639 368.0433,-144 357.1383,-132.7947 343.6955,-122.2318 331.2723,-113.4705"/>
<polygon fill="#000000" stroke="#000000" points="333.1032,-110.482 322.8782,-107.707 329.1409,-116.2527 333.1032,-110.482"/>
</g>
<!-- ds_report_eddy -->
<g id="node12" class="node">
<title>ds_report_eddy</title>
<ellipse fill="none" stroke="#000000" cx="369.0433" cy="-18" rx="83.3857" ry="18"/>
<text text-anchor="middle" x="369.0433" y="-14.3" font-family="Times,serif" font-size="14.00" fill="#000000">ds_report_eddy</text>
</g>
<!-- dwi_reference_wf&#45;&gt;ds_report_eddy -->
<g id="edge14" class="edge">
<title>dwi_reference_wf&#45;&gt;ds_report_eddy</title>
<path fill="none" stroke="#000000" d="M433.8968,-216.0108C439.6207,-185.0406 447.5402,-120.3255 426.0433,-72 420.9357,-60.5182 412.1151,-50.3032 402.9179,-41.9315"/>
<polygon fill="#000000" stroke="#000000" points="405.0614,-39.1599 395.177,-35.3456 400.5254,-44.4914 405.0614,-39.1599"/>
</g>
<!-- bbreg_wf&#45;&gt;ds_report_reg -->
<g id="edge17" class="edge">
<title>bbreg_wf&#45;&gt;ds_report_reg</title>
<path fill="none" stroke="#000000" d="M163.9649,-146.0209C148.4615,-136.1426 128.3299,-123.3154 111.2431,-112.4282"/>
<polygon fill="#000000" stroke="#000000" points="112.9403,-109.3596 102.626,-106.9377 109.1788,-115.263 112.9403,-109.3596"/>
</g>
<!-- eddy_wf&#45;&gt;eddy_report (reportlets) -->
<g id="edge18" class="edge">
<title>eddy_wf&#45;&gt;eddy_report (reportlets)</title>
<path fill="none" stroke="#000000" d="M306.0058,-143.8314C304.2946,-136.131 302.2598,-126.9743 300.3581,-118.4166"/>
<polygon fill="#000000" stroke="#000000" points="303.7211,-117.4159 298.1351,-108.4133 296.8878,-118.9344 303.7211,-117.4159"/>
</g>
<!-- outputnode (utility)&#45;&gt;dwi_derivatives_wf -->
<g id="edge19" class="edge">
<title>outputnode (utility)&#45;&gt;dwi_derivatives_wf</title>
<path fill="none" stroke="#000000" d="M634.7762,-145.3008C658.6137,-135.0235 689.3622,-121.7667 714.7775,-110.8092"/>
<polygon fill="#000000" stroke="#000000" points="716.4343,-113.9064 724.2315,-106.7332 713.6629,-107.4784 716.4343,-113.9064"/>
</g>
<!-- outputnode (utility)&#45;&gt;reportlets_wf -->
<g id="edge20" class="edge">
<title>outputnode (utility)&#45;&gt;reportlets_wf</title>
<path fill="none" stroke="#000000" d="M589.7347,-143.8314C587.0316,-136.0463 583.8116,-126.7729 580.8123,-118.1347"/>
<polygon fill="#000000" stroke="#000000" points="584.0233,-116.7119 577.4367,-108.4133 577.4106,-119.0081 584.0233,-116.7119"/>
</g>
<!-- eddy_report (reportlets)&#45;&gt;ds_report_eddy -->
<g id="edge21" class="edge">
<title>eddy_report (reportlets)&#45;&gt;ds_report_eddy</title>
<path fill="none" stroke="#000000" d="M312.5826,-72.2022C321.8465,-63.3088 333.2055,-52.4042 343.3,-42.7135"/>
<polygon fill="#000000" stroke="#000000" points="345.9272,-45.0432 350.7172,-35.593 341.0794,-39.9935 345.9272,-45.0432"/>
</g>
</g>
</svg>
