<?xml version="1.0" encoding="UTF-8" standalone="no"?>
<!DOCTYPE svg PUBLIC "-//W3C//DTD SVG 1.1//EN"
 "http://www.w3.org/Graphics/SVG/1.1/DTD/svg11.dtd">
<!-- Generated by graphviz version 2.40.1 (20161225.0304)
 -->
<!-- Title: structs Pages: 1 -->
<svg width="2188pt" height="1013pt"
 viewBox="0.00 0.00 2187.87 1013.00" xmlns="http://www.w3.org/2000/svg" xmlns:xlink="http://www.w3.org/1999/xlink">
<g id="graph0" class="graph" transform="scale(1 1) rotate(0) translate(4 1009)">
<title>structs</title>
<polygon fill="#ffffff" stroke="transparent" points="-4,4 -4,-1009 2183.8678,-1009 2183.8678,4 -4,4"/>
<!-- dwi_preproc_wfinputnode -->
<g id="node1" class="node">
<title>dwi_preproc_wfinputnode</title>
<polygon fill="none" stroke="#000000" points="301.3678,-797.5 301.3678,-1004.5 569.3678,-1004.5 569.3678,-797.5 301.3678,-797.5"/>
<text text-anchor="middle" x="318.8678" y="-897.3" font-family="Times,serif" font-size="14.00" fill="#000000">IN</text>
<polyline fill="none" stroke="#000000" points="336.3678,-797.5 336.3678,-1004.5 "/>
<text text-anchor="middle" x="380.8678" y="-966.3" font-family="Times,serif" font-size="14.00" fill="#000000">inputnode</text>
<polyline fill="none" stroke="#000000" points="336.3678,-935.5 425.3678,-935.5 "/>
<text text-anchor="middle" x="380.8678" y="-897.3" font-family="Times,serif" font-size="14.00" fill="#000000">utility</text>
<polyline fill="none" stroke="#000000" points="336.3678,-866.5 425.3678,-866.5 "/>
<text text-anchor="middle" x="380.8678" y="-828.3" font-family="Times,serif" font-size="14.00" fill="#000000"> </text>
<polyline fill="none" stroke="#000000" points="425.3678,-797.5 425.3678,-1004.5 "/>
<text text-anchor="middle" x="497.3678" y="-989.3" font-family="Times,serif" font-size="14.00" fill="#000000">OUT</text>
<polyline fill="none" stroke="#000000" points="425.3678,-981.5 569.3678,-981.5 "/>
<text text-anchor="middle" x="497.3678" y="-966.3" font-family="Times,serif" font-size="14.00" fill="#000000">dwi_file</text>
<polyline fill="none" stroke="#000000" points="425.3678,-958.5 569.3678,-958.5 "/>
<text text-anchor="middle" x="497.3678" y="-943.3" font-family="Times,serif" font-size="14.00" fill="#000000">fsnative2t1w_xfm</text>
<polyline fill="none" stroke="#000000" points="425.3678,-935.5 569.3678,-935.5 "/>
<text text-anchor="middle" x="497.3678" y="-920.3" font-family="Times,serif" font-size="14.00" fill="#000000">in_bval</text>
<polyline fill="none" stroke="#000000" points="425.3678,-912.5 569.3678,-912.5 "/>
<text text-anchor="middle" x="497.3678" y="-897.3" font-family="Times,serif" font-size="14.00" fill="#000000">in_bvec</text>
<polyline fill="none" stroke="#000000" points="425.3678,-889.5 569.3678,-889.5 "/>
<text text-anchor="middle" x="497.3678" y="-874.3" font-family="Times,serif" font-size="14.00" fill="#000000">subject_id</text>
<polyline fill="none" stroke="#000000" points="425.3678,-866.5 569.3678,-866.5 "/>
<text text-anchor="middle" x="497.3678" y="-851.3" font-family="Times,serif" font-size="14.00" fill="#000000">subjects_dir</text>
<polyline fill="none" stroke="#000000" points="425.3678,-843.5 569.3678,-843.5 "/>
<text text-anchor="middle" x="497.3678" y="-828.3" font-family="Times,serif" font-size="14.00" fill="#000000">t1w_mask</text>
<polyline fill="none" stroke="#000000" points="425.3678,-820.5 569.3678,-820.5 "/>
<text text-anchor="middle" x="497.3678" y="-805.3" font-family="Times,serif" font-size="14.00" fill="#000000">t1w_preproc</text>
</g>
<!-- dwi_preproc_wft1w_brain -->
<g id="node2" class="node">
<title>dwi_preproc_wft1w_brain</title>
<polygon fill="none" stroke="#000000" points="183.8678,-680 183.8678,-749 398.8678,-749 398.8678,-680 183.8678,-680"/>
<text text-anchor="middle" x="221.8678" y="-733.8" font-family="Times,serif" font-size="14.00" fill="#000000">IN</text>
<polyline fill="none" stroke="#000000" points="183.8678,-726 259.8678,-726 "/>
<text text-anchor="middle" x="221.8678" y="-710.8" font-family="Times,serif" font-size="14.00" fill="#000000">in_file</text>
<polyline fill="none" stroke="#000000" points="183.8678,-703 259.8678,-703 "/>
<text text-anchor="middle" x="221.8678" y="-687.8" font-family="Times,serif" font-size="14.00" fill="#000000">in_mask</text>
<polyline fill="none" stroke="#000000" points="259.8678,-680 259.8678,-749 "/>
<text text-anchor="middle" x="304.3678" y="-733.8" font-family="Times,serif" font-size="14.00" fill="#000000">t1w_brain</text>
<polyline fill="none" stroke="#000000" points="259.8678,-726 348.8678,-726 "/>
<text text-anchor="middle" x="304.3678" y="-710.8" font-family="Times,serif" font-size="14.00" fill="#000000">nibabel</text>
<polyline fill="none" stroke="#000000" points="259.8678,-703 348.8678,-703 "/>
<text text-anchor="middle" x="304.3678" y="-687.8" font-family="Times,serif" font-size="14.00" fill="#000000"> </text>
<polyline fill="none" stroke="#000000" points="348.8678,-680 348.8678,-749 "/>
<text text-anchor="middle" x="373.8678" y="-710.8" font-family="Times,serif" font-size="14.00" fill="#000000">OUT</text>
</g>
<!-- dwi_preproc_wfinputnode&#45;&gt;dwi_preproc_wft1w_brain -->
<g id="edge32" class="edge">
<title>dwi_preproc_wfinputnode:e&#45;&gt;dwi_preproc_wft1w_brain:w</title>
<path fill="none" stroke="#000000" d="M569.3678,-832C584.9234,-832 579.6737,-808.6518 569.3678,-797 512.1097,-732.264 240.6259,-814.236 183.3678,-749.5 168.958,-733.2083 160.5132,-703.1178 173.7101,-694.1123"/>
<polygon fill="#000000" stroke="#000000" points="174.6286,-697.4897 183.3678,-691.5 172.8008,-690.7325 174.6286,-697.4897"/>
</g>
<!-- dwi_preproc_wfinputnode&#45;&gt;dwi_preproc_wft1w_brain -->
<g id="edge33" class="edge">
<title>dwi_preproc_wfinputnode:e&#45;&gt;dwi_preproc_wft1w_brain:w</title>
<path fill="none" stroke="#000000" d="M569.3678,-809C574.7011,-809 572.9013,-800.9949 569.3678,-797 512.1097,-732.264 240.6259,-814.236 183.3678,-749.5 176.1215,-741.3073 171.3749,-727.3321 174.6026,-719.7564"/>
<polygon fill="#000000" stroke="#000000" points="176.5918,-722.6447 183.3678,-714.5 172.9916,-716.6414 176.5918,-722.6447"/>
</g>
<!-- dwi_preproc_wfgradient_table -->
<g id="node3" class="node">
<title>dwi_preproc_wfgradient_table</title>
<polygon fill="none" stroke="#000000" points="569.8678,-668.5 569.8678,-760.5 842.8678,-760.5 842.8678,-668.5 569.8678,-668.5"/>
<text text-anchor="middle" x="605.8678" y="-745.3" font-family="Times,serif" font-size="14.00" fill="#000000">IN</text>
<polyline fill="none" stroke="#000000" points="569.8678,-737.5 641.8678,-737.5 "/>
<text text-anchor="middle" x="605.8678" y="-722.3" font-family="Times,serif" font-size="14.00" fill="#000000">dwi_file</text>
<polyline fill="none" stroke="#000000" points="569.8678,-714.5 641.8678,-714.5 "/>
<text text-anchor="middle" x="605.8678" y="-699.3" font-family="Times,serif" font-size="14.00" fill="#000000">in_bval</text>
<polyline fill="none" stroke="#000000" points="569.8678,-691.5 641.8678,-691.5 "/>
<text text-anchor="middle" x="605.8678" y="-676.3" font-family="Times,serif" font-size="14.00" fill="#000000">in_bvec</text>
<polyline fill="none" stroke="#000000" points="641.8678,-668.5 641.8678,-760.5 "/>
<text text-anchor="middle" x="702.3678" y="-741.8" font-family="Times,serif" font-size="14.00" fill="#000000">gradient_table</text>
<polyline fill="none" stroke="#000000" points="641.8678,-730.5 762.8678,-730.5 "/>
<text text-anchor="middle" x="702.3678" y="-711.3" font-family="Times,serif" font-size="14.00" fill="#000000">vectors</text>
<polyline fill="none" stroke="#000000" points="641.8678,-699.5 762.8678,-699.5 "/>
<text text-anchor="middle" x="702.3678" y="-680.3" font-family="Times,serif" font-size="14.00" fill="#000000"> </text>
<polyline fill="none" stroke="#000000" points="762.8678,-668.5 762.8678,-760.5 "/>
<text text-anchor="middle" x="802.8678" y="-741.8" font-family="Times,serif" font-size="14.00" fill="#000000">OUT</text>
<polyline fill="none" stroke="#000000" points="762.8678,-730.5 842.8678,-730.5 "/>
<text text-anchor="middle" x="802.8678" y="-711.3" font-family="Times,serif" font-size="14.00" fill="#000000">b0_mask</text>
<polyline fill="none" stroke="#000000" points="762.8678,-699.5 842.8678,-699.5 "/>
<text text-anchor="middle" x="802.8678" y="-680.3" font-family="Times,serif" font-size="14.00" fill="#000000">out_rasb</text>
</g>
<!-- dwi_preproc_wfinputnode&#45;&gt;dwi_preproc_wfgradient_table -->
<g id="edge23" class="edge">
<title>dwi_preproc_wfinputnode:e&#45;&gt;dwi_preproc_wfgradient_table:w</title>
<path fill="none" stroke="#000000" d="M569.3678,-970C569.3678,-970 569.3678,-782.7371 569.3678,-736.6529"/>
<polygon fill="#000000" stroke="#000000" points="572.8679,-736.5 569.3678,-726.5 565.8679,-736.5 572.8679,-736.5"/>
</g>
<!-- dwi_preproc_wfinputnode&#45;&gt;dwi_preproc_wfgradient_table -->
<g id="edge27" class="edge">
<title>dwi_preproc_wfinputnode:e&#45;&gt;dwi_preproc_wfgradient_table:w</title>
<path fill="none" stroke="#000000" d="M569.3678,-924C569.3678,-924 569.3678,-755.9248 569.3678,-712.593"/>
<polygon fill="#000000" stroke="#000000" points="572.8679,-712.5 569.3678,-702.5 565.8679,-712.5 572.8679,-712.5"/>
</g>
<!-- dwi_preproc_wfinputnode&#45;&gt;dwi_preproc_wfgradient_table -->
<g id="edge29" class="edge">
<title>dwi_preproc_wfinputnode:e&#45;&gt;dwi_preproc_wfgradient_table:w</title>
<path fill="none" stroke="#000000" d="M569.3678,-901C591.0948,-901 555.2792,-728.3722 563.5197,-687.9126"/>
<polygon fill="#000000" stroke="#000000" points="566.5336,-689.7087 569.3678,-679.5 560.786,-685.7131 566.5336,-689.7087"/>
</g>
<!-- dwi_preproc_wfdwi_reference_wf -->
<g id="node4" class="node">
<title>dwi_preproc_wfdwi_reference_wf</title>
<polygon fill="none" stroke="#000000" points="676.8678,-562.5 676.8678,-631.5 1197.8678,-631.5 1197.8678,-562.5 676.8678,-562.5"/>
<text text-anchor="middle" x="752.8678" y="-616.3" font-family="Times,serif" font-size="14.00" fill="#000000">IN</text>
<polyline fill="none" stroke="#000000" points="676.8678,-608.5 828.8678,-608.5 "/>
<text text-anchor="middle" x="752.8678" y="-593.3" font-family="Times,serif" font-size="14.00" fill="#000000">inputnode.in_files</text>
<polyline fill="none" stroke="#000000" points="676.8678,-585.5 828.8678,-585.5 "/>
<text text-anchor="middle" x="752.8678" y="-570.3" font-family="Times,serif" font-size="14.00" fill="#000000">inputnode.t_masks</text>
<polyline fill="none" stroke="#000000" points="828.8678,-562.5 828.8678,-631.5 "/>
<text text-anchor="middle" x="900.3678" y="-616.3" font-family="Times,serif" font-size="14.00" fill="#000000">dwi_reference_wf</text>
<polyline fill="none" stroke="#000000" points="828.8678,-608.5 971.8678,-608.5 "/>
<text text-anchor="middle" x="900.3678" y="-593.3" font-family="Times,serif" font-size="14.00" fill="#000000"> </text>
<polyline fill="none" stroke="#000000" points="828.8678,-585.5 971.8678,-585.5 "/>
<text text-anchor="middle" x="900.3678" y="-570.3" font-family="Times,serif" font-size="14.00" fill="#000000"> </text>
<polyline fill="none" stroke="#000000" points="971.8678,-562.5 971.8678,-631.5 "/>
<text text-anchor="middle" x="1084.8678" y="-616.3" font-family="Times,serif" font-size="14.00" fill="#000000">OUT</text>
<polyline fill="none" stroke="#000000" points="971.8678,-608.5 1197.8678,-608.5 "/>
<text text-anchor="middle" x="1084.8678" y="-593.3" font-family="Times,serif" font-size="14.00" fill="#000000">outputnode.epi_ref_file</text>
<polyline fill="none" stroke="#000000" points="971.8678,-585.5 1197.8678,-585.5 "/>
<text text-anchor="middle" x="1084.8678" y="-570.3" font-family="Times,serif" font-size="14.00" fill="#000000">outputnode.validation_report</text>
</g>
<!-- dwi_preproc_wfinputnode&#45;&gt;dwi_preproc_wfdwi_reference_wf -->
<g id="edge21" class="edge">
<title>dwi_preproc_wfinputnode:e&#45;&gt;dwi_preproc_wfdwi_reference_wf:w</title>
<path fill="none" stroke="#000000" d="M569.3678,-970C753.0089,-970 967.4041,-810.3364 851.3678,-668 801.1937,-606.4537 726.5419,-693.5463 676.3678,-632 669.4568,-623.5226 664.574,-609.6631 667.6912,-602.1811"/>
<polygon fill="#000000" stroke="#000000" points="669.5765,-605.1319 676.3678,-597 665.9876,-599.1219 669.5765,-605.1319"/>
</g>
<!-- dwi_preproc_wfbbreg_wf -->
<g id="node7" class="node">
<title>dwi_preproc_wfbbreg_wf</title>
<polygon fill="none" stroke="#000000" points="29.8678,-152.5 29.8678,-267.5 512.8678,-267.5 512.8678,-152.5 29.8678,-152.5"/>
<text text-anchor="middle" x="140.3678" y="-252.3" font-family="Times,serif" font-size="14.00" fill="#000000">IN</text>
<polyline fill="none" stroke="#000000" points="29.8678,-244.5 250.8678,-244.5 "/>
<text text-anchor="middle" x="140.3678" y="-229.3" font-family="Times,serif" font-size="14.00" fill="#000000">inputnode.fsnative2t1w_xfm</text>
<polyline fill="none" stroke="#000000" points="29.8678,-221.5 250.8678,-221.5 "/>
<text text-anchor="middle" x="140.3678" y="-206.3" font-family="Times,serif" font-size="14.00" fill="#000000">inputnode.in_file</text>
<polyline fill="none" stroke="#000000" points="29.8678,-198.5 250.8678,-198.5 "/>
<text text-anchor="middle" x="140.3678" y="-183.3" font-family="Times,serif" font-size="14.00" fill="#000000">inputnode.subject_id</text>
<polyline fill="none" stroke="#000000" points="29.8678,-175.5 250.8678,-175.5 "/>
<text text-anchor="middle" x="140.3678" y="-160.3" font-family="Times,serif" font-size="14.00" fill="#000000">inputnode.subjects_dir</text>
<polyline fill="none" stroke="#000000" points="250.8678,-152.5 250.8678,-267.5 "/>
<text text-anchor="middle" x="292.3678" y="-244.8" font-family="Times,serif" font-size="14.00" fill="#000000">bbreg_wf</text>
<polyline fill="none" stroke="#000000" points="250.8678,-229.5 333.8678,-229.5 "/>
<text text-anchor="middle" x="292.3678" y="-206.8" font-family="Times,serif" font-size="14.00" fill="#000000"> </text>
<polyline fill="none" stroke="#000000" points="250.8678,-191.5 333.8678,-191.5 "/>
<text text-anchor="middle" x="292.3678" y="-168.3" font-family="Times,serif" font-size="14.00" fill="#000000"> </text>
<polyline fill="none" stroke="#000000" points="333.8678,-152.5 333.8678,-267.5 "/>
<text text-anchor="middle" x="423.3678" y="-244.8" font-family="Times,serif" font-size="14.00" fill="#000000">OUT</text>
<polyline fill="none" stroke="#000000" points="333.8678,-229.5 512.8678,-229.5 "/>
<text text-anchor="middle" x="423.3678" y="-206.8" font-family="Times,serif" font-size="14.00" fill="#000000">outputnode.fallback</text>
<polyline fill="none" stroke="#000000" points="333.8678,-191.5 512.8678,-191.5 "/>
<text text-anchor="middle" x="423.3678" y="-168.3" font-family="Times,serif" font-size="14.00" fill="#000000">outputnode.out_report</text>
</g>
<!-- dwi_preproc_wfinputnode&#45;&gt;dwi_preproc_wfbbreg_wf -->
<g id="edge25" class="edge">
<title>dwi_preproc_wfinputnode:e&#45;&gt;dwi_preproc_wfbbreg_wf:w</title>
<path fill="none" stroke="#000000" d="M569.3678,-947C636.0345,-947 609.0385,-850.5787 569.3678,-797 536.7402,-752.9335 487.1082,-802.5818 451.3678,-761 403.3506,-705.1349 427.3678,-670.6652 427.3678,-597 427.3678,-597 427.3678,-597 427.3678,-491 427.3678,-288.2374 131.878,-442.941 29.3678,-268 23.9611,-258.773 18.6362,-245.6901 20.8909,-238.4144"/>
<polygon fill="#000000" stroke="#000000" points="22.8243,-241.3326 29.3678,-233 19.0562,-235.4333 22.8243,-241.3326"/>
</g>
<!-- dwi_preproc_wfinputnode&#45;&gt;dwi_preproc_wfbbreg_wf -->
<g id="edge30" class="edge">
<title>dwi_preproc_wfinputnode:e&#45;&gt;dwi_preproc_wfbbreg_wf:w</title>
<path fill="none" stroke="#000000" d="M569.3678,-878C605.3678,-878 588.9148,-827.231 569.3678,-797 548.1975,-764.2583 512.859,-792.1185 489.3678,-761 444.9847,-702.2062 465.3678,-670.6652 465.3678,-597 465.3678,-597 465.3678,-597 465.3678,-491 465.3678,-411.0778 519.9671,-423.9748 246.3678,-304 156.835,-264.7393 92.587,-342.5712 29.3678,-268 8.6343,-243.5434 -3.7233,-198.3999 19.2539,-188.8173"/>
<polygon fill="#000000" stroke="#000000" points="20.1444,-192.2134 29.3678,-187 18.9064,-185.3238 20.1444,-192.2134"/>
</g>
<!-- dwi_preproc_wfinputnode&#45;&gt;dwi_preproc_wfbbreg_wf -->
<g id="edge31" class="edge">
<title>dwi_preproc_wfinputnode:e&#45;&gt;dwi_preproc_wfbbreg_wf:w</title>
<path fill="none" stroke="#000000" d="M569.3678,-855C595.1456,-855 580.1392,-820.4194 569.3678,-797 559.0946,-774.6638 539.2353,-782.5315 527.3678,-761 491.8093,-696.4852 503.3678,-670.6652 503.3678,-597 503.3678,-597 503.3678,-597 503.3678,-491 503.3678,-450.0378 561.6218,-415.3369 369.3678,-304 303.6193,-265.9241 80.1852,-324.4821 29.3678,-268 .9884,-236.457 -14.2381,-175.1877 19.2096,-165.3479"/>
<polygon fill="#000000" stroke="#000000" points="19.9151,-168.785 29.3678,-164 18.9943,-161.8459 19.9151,-168.785"/>
</g>
<!-- dwi_preproc_wfds_report_reg -->
<g id="node8" class="node">
<title>dwi_preproc_wfds_report_reg</title>
<polygon fill="none" stroke="#000000" points="513.3678,-12 513.3678,-104 775.3678,-104 775.3678,-12 513.3678,-12"/>
<text text-anchor="middle" x="560.8678" y="-88.8" font-family="Times,serif" font-size="14.00" fill="#000000">IN</text>
<polyline fill="none" stroke="#000000" points="513.3678,-81 608.3678,-81 "/>
<text text-anchor="middle" x="560.8678" y="-65.8" font-family="Times,serif" font-size="14.00" fill="#000000">desc</text>
<polyline fill="none" stroke="#000000" points="513.3678,-58 608.3678,-58 "/>
<text text-anchor="middle" x="560.8678" y="-42.8" font-family="Times,serif" font-size="14.00" fill="#000000">in_file</text>
<polyline fill="none" stroke="#000000" points="513.3678,-35 608.3678,-35 "/>
<text text-anchor="middle" x="560.8678" y="-19.8" font-family="Times,serif" font-size="14.00" fill="#000000">source_file</text>
<polyline fill="none" stroke="#000000" points="608.3678,-12 608.3678,-104 "/>
<text text-anchor="middle" x="666.8678" y="-85.3" font-family="Times,serif" font-size="14.00" fill="#000000">ds_report_reg</text>
<polyline fill="none" stroke="#000000" points="608.3678,-74 725.3678,-74 "/>
<text text-anchor="middle" x="666.8678" y="-54.8" font-family="Times,serif" font-size="14.00" fill="#000000"> </text>
<polyline fill="none" stroke="#000000" points="608.3678,-43 725.3678,-43 "/>
<text text-anchor="middle" x="666.8678" y="-23.8" font-family="Times,serif" font-size="14.00" fill="#000000"> </text>
<polyline fill="none" stroke="#000000" points="725.3678,-12 725.3678,-104 "/>
<text text-anchor="middle" x="750.3678" y="-54.3" font-family="Times,serif" font-size="14.00" fill="#000000">OUT</text>
</g>
<!-- dwi_preproc_wfinputnode&#45;&gt;dwi_preproc_wfds_report_reg -->
<g id="edge19" class="edge">
<title>dwi_preproc_wfinputnode:e&#45;&gt;dwi_preproc_wfds_report_reg:w</title>
<path fill="none" stroke="#000000" d="M569.3678,-970C646.2567,-970 578.7624,-873.3128 569.3678,-797 567.3527,-780.6311 563.323,-777.2255 560.3678,-761 547.2198,-688.8112 541.3678,-670.3764 541.3678,-597 541.3678,-597 541.3678,-597 541.3678,-362 541.3678,-268.2443 533.6057,-244.9535 521.3678,-152 518.5734,-130.7747 515.1518,-125.834 513.3678,-104.5 510.7031,-72.6338 484.5132,-33.5137 503.3334,-24.7825"/>
<polygon fill="#000000" stroke="#000000" points="504.1341,-28.1952 513.3678,-23 502.9098,-21.3031 504.1341,-28.1952"/>
</g>
<!-- dwi_preproc_wfreportlets_wf -->
<g id="node10" class="node">
<title>dwi_preproc_wfreportlets_wf</title>
<polygon fill="none" stroke="#000000" points="1121.8678,-.5 1121.8678,-115.5 1500.8678,-115.5 1500.8678,-.5 1121.8678,-.5"/>
<text text-anchor="middle" x="1229.8678" y="-100.3" font-family="Times,serif" font-size="14.00" fill="#000000">IN</text>
<polyline fill="none" stroke="#000000" points="1121.8678,-92.5 1337.8678,-92.5 "/>
<text text-anchor="middle" x="1229.8678" y="-77.3" font-family="Times,serif" font-size="14.00" fill="#000000">inputnode.dwi_mask</text>
<polyline fill="none" stroke="#000000" points="1121.8678,-69.5 1337.8678,-69.5 "/>
<text text-anchor="middle" x="1229.8678" y="-54.3" font-family="Times,serif" font-size="14.00" fill="#000000">inputnode.dwi_ref</text>
<polyline fill="none" stroke="#000000" points="1121.8678,-46.5 1337.8678,-46.5 "/>
<text text-anchor="middle" x="1229.8678" y="-31.3" font-family="Times,serif" font-size="14.00" fill="#000000">inputnode.source_file</text>
<polyline fill="none" stroke="#000000" points="1121.8678,-23.5 1337.8678,-23.5 "/>
<text text-anchor="middle" x="1229.8678" y="-8.3" font-family="Times,serif" font-size="14.00" fill="#000000">inputnode.validation_report</text>
<polyline fill="none" stroke="#000000" points="1337.8678,-.5 1337.8678,-115.5 "/>
<text text-anchor="middle" x="1394.3678" y="-92.8" font-family="Times,serif" font-size="14.00" fill="#000000">reportlets_wf</text>
<polyline fill="none" stroke="#000000" points="1337.8678,-77.5 1450.8678,-77.5 "/>
<text text-anchor="middle" x="1394.3678" y="-54.8" font-family="Times,serif" font-size="14.00" fill="#000000"> </text>
<polyline fill="none" stroke="#000000" points="1337.8678,-39.5 1450.8678,-39.5 "/>
<text text-anchor="middle" x="1394.3678" y="-16.3" font-family="Times,serif" font-size="14.00" fill="#000000"> </text>
<polyline fill="none" stroke="#000000" points="1450.8678,-.5 1450.8678,-115.5 "/>
<text text-anchor="middle" x="1475.8678" y="-54.3" font-family="Times,serif" font-size="14.00" fill="#000000">OUT</text>
</g>
<!-- dwi_preproc_wfinputnode&#45;&gt;dwi_preproc_wfreportlets_wf -->
<g id="edge24" class="edge">
<title>dwi_preproc_wfinputnode:e&#45;&gt;dwi_preproc_wfreportlets_wf:w</title>
<path fill="none" stroke="#000000" d="M569.3678,-970C952.5338,-970 1145.6812,-872.9139 1308.3678,-526 1379.17,-375.021 1446.2023,-279.198 1338.3678,-152 1275.1486,-77.4288 1184.587,-190.5712 1121.3678,-116 1100.6343,-91.5434 1088.2767,-46.3999 1111.2539,-36.8173"/>
<polygon fill="#000000" stroke="#000000" points="1112.1444,-40.2134 1121.3678,-35 1110.9064,-33.3238 1112.1444,-40.2134"/>
</g>
<!-- dwi_preproc_wfdwi_derivatives_wf -->
<g id="node11" class="node">
<title>dwi_preproc_wfdwi_derivatives_wf</title>
<polygon fill="none" stroke="#000000" points="928.8678,-164 928.8678,-256 1303.8678,-256 1303.8678,-164 928.8678,-164"/>
<text text-anchor="middle" x="1014.3678" y="-240.8" font-family="Times,serif" font-size="14.00" fill="#000000">IN</text>
<polyline fill="none" stroke="#000000" points="928.8678,-233 1099.8678,-233 "/>
<text text-anchor="middle" x="1014.3678" y="-217.8" font-family="Times,serif" font-size="14.00" fill="#000000">inputnode.dwi_mask</text>
<polyline fill="none" stroke="#000000" points="928.8678,-210 1099.8678,-210 "/>
<text text-anchor="middle" x="1014.3678" y="-194.8" font-family="Times,serif" font-size="14.00" fill="#000000">inputnode.dwi_ref</text>
<polyline fill="none" stroke="#000000" points="928.8678,-187 1099.8678,-187 "/>
<text text-anchor="middle" x="1014.3678" y="-171.8" font-family="Times,serif" font-size="14.00" fill="#000000">inputnode.source_file</text>
<polyline fill="none" stroke="#000000" points="1099.8678,-164 1099.8678,-256 "/>
<text text-anchor="middle" x="1176.8678" y="-237.3" font-family="Times,serif" font-size="14.00" fill="#000000">dwi_derivatives_wf</text>
<polyline fill="none" stroke="#000000" points="1099.8678,-226 1253.8678,-226 "/>
<text text-anchor="middle" x="1176.8678" y="-206.8" font-family="Times,serif" font-size="14.00" fill="#000000"> </text>
<polyline fill="none" stroke="#000000" points="1099.8678,-195 1253.8678,-195 "/>
<text text-anchor="middle" x="1176.8678" y="-175.8" font-family="Times,serif" font-size="14.00" fill="#000000"> </text>
<polyline fill="none" stroke="#000000" points="1253.8678,-164 1253.8678,-256 "/>
<text text-anchor="middle" x="1278.8678" y="-206.3" font-family="Times,serif" font-size="14.00" fill="#000000">OUT</text>
</g>
<!-- dwi_preproc_wfinputnode&#45;&gt;dwi_preproc_wfdwi_derivatives_wf -->
<g id="edge20" class="edge">
<title>dwi_preproc_wfinputnode:e&#45;&gt;dwi_preproc_wfdwi_derivatives_wf:w</title>
<path fill="none" stroke="#000000" d="M569.3678,-970C952.5338,-970 1166.0216,-881.744 1308.3678,-526 1400.4546,-295.8616 958.76,-306.7819 928.3678,-256.5 924.7082,-250.4454 921.2397,-204.1075 924.2153,-184.1243"/>
<polygon fill="#000000" stroke="#000000" points="927.4112,-185.5516 928.3678,-175 921.0399,-182.652 927.4112,-185.5516"/>
</g>
<!-- dwi_preproc_wfeddy_wf -->
<g id="node12" class="node">
<title>dwi_preproc_wfeddy_wf</title>
<polygon fill="none" stroke="#000000" points="1436.3678,-304.5 1436.3678,-419.5 1892.3678,-419.5 1892.3678,-304.5 1436.3678,-304.5"/>
<text text-anchor="middle" x="1518.3678" y="-404.3" font-family="Times,serif" font-size="14.00" fill="#000000">IN</text>
<polyline fill="none" stroke="#000000" points="1436.3678,-396.5 1600.3678,-396.5 "/>
<text text-anchor="middle" x="1518.3678" y="-381.3" font-family="Times,serif" font-size="14.00" fill="#000000">inputnode.dwi_file</text>
<polyline fill="none" stroke="#000000" points="1436.3678,-373.5 1600.3678,-373.5 "/>
<text text-anchor="middle" x="1518.3678" y="-358.3" font-family="Times,serif" font-size="14.00" fill="#000000">inputnode.dwi_mask</text>
<polyline fill="none" stroke="#000000" points="1436.3678,-350.5 1600.3678,-350.5 "/>
<text text-anchor="middle" x="1518.3678" y="-335.3" font-family="Times,serif" font-size="14.00" fill="#000000">inputnode.in_bval</text>
<polyline fill="none" stroke="#000000" points="1436.3678,-327.5 1600.3678,-327.5 "/>
<text text-anchor="middle" x="1518.3678" y="-312.3" font-family="Times,serif" font-size="14.00" fill="#000000">inputnode.in_bvec</text>
<polyline fill="none" stroke="#000000" points="1600.3678,-304.5 1600.3678,-419.5 "/>
<text text-anchor="middle" x="1638.3678" y="-396.8" font-family="Times,serif" font-size="14.00" fill="#000000">eddy_wf</text>
<polyline fill="none" stroke="#000000" points="1600.3678,-381.5 1676.3678,-381.5 "/>
<text text-anchor="middle" x="1638.3678" y="-358.8" font-family="Times,serif" font-size="14.00" fill="#000000"> </text>
<polyline fill="none" stroke="#000000" points="1600.3678,-343.5 1676.3678,-343.5 "/>
<text text-anchor="middle" x="1638.3678" y="-320.3" font-family="Times,serif" font-size="14.00" fill="#000000"> </text>
<polyline fill="none" stroke="#000000" points="1676.3678,-304.5 1676.3678,-419.5 "/>
<text text-anchor="middle" x="1784.3678" y="-387.3" font-family="Times,serif" font-size="14.00" fill="#000000">OUT</text>
<polyline fill="none" stroke="#000000" points="1676.3678,-362.5 1892.3678,-362.5 "/>
<text text-anchor="middle" x="1784.3678" y="-329.8" font-family="Times,serif" font-size="14.00" fill="#000000">outputnode.eddy_ref_image</text>
</g>
<!-- dwi_preproc_wfinputnode&#45;&gt;dwi_preproc_wfeddy_wf -->
<g id="edge22" class="edge">
<title>dwi_preproc_wfinputnode:e&#45;&gt;dwi_preproc_wfeddy_wf:w</title>
<path fill="none" stroke="#000000" d="M569.3678,-970C747.0991,-970 1216.7598,-887.7329 1341.3678,-761 1355.1457,-746.9872 1404.8999,-445.726 1429.8884,-392.8782"/>
<polygon fill="#000000" stroke="#000000" points="1432.7189,-394.9467 1436.3678,-385 1427.3125,-390.5002 1432.7189,-394.9467"/>
</g>
<!-- dwi_preproc_wfinputnode&#45;&gt;dwi_preproc_wfeddy_wf -->
<g id="edge26" class="edge">
<title>dwi_preproc_wfinputnode:e&#45;&gt;dwi_preproc_wfeddy_wf:w</title>
<path fill="none" stroke="#000000" d="M569.3678,-924C750.145,-924 1238.0348,-888.3225 1366.3678,-761 1442.1722,-685.7925 1399.5565,-631.4507 1416.3678,-526 1419.2336,-508.0244 1416.4265,-379.4693 1429.4675,-346.6248"/>
<polygon fill="#000000" stroke="#000000" points="1432.2528,-348.7631 1436.3678,-339 1427.0626,-344.066 1432.2528,-348.7631"/>
</g>
<!-- dwi_preproc_wfinputnode&#45;&gt;dwi_preproc_wfeddy_wf -->
<g id="edge28" class="edge">
<title>dwi_preproc_wfinputnode:e&#45;&gt;dwi_preproc_wfeddy_wf:w</title>
<path fill="none" stroke="#000000" d="M569.3678,-901C757.2943,-901 1269.8127,-893.2096 1403.3678,-761 1478.1192,-687.0017 1427.6378,-631.117 1431.3678,-526 1431.5473,-520.9432 1430.7876,-366.7338 1434.3878,-325.8611"/>
<polygon fill="#000000" stroke="#000000" points="1437.8307,-326.4934 1436.3678,-316 1430.9676,-325.1153 1437.8307,-326.4934"/>
</g>
<!-- dwi_preproc_wfds_report_eddy -->
<g id="node14" class="node">
<title>dwi_preproc_wfds_report_eddy</title>
<polygon fill="none" stroke="#000000" points="1906.8678,-23.5 1906.8678,-92.5 2179.8678,-92.5 2179.8678,-23.5 1906.8678,-23.5"/>
<text text-anchor="middle" x="1954.3678" y="-77.3" font-family="Times,serif" font-size="14.00" fill="#000000">IN</text>
<polyline fill="none" stroke="#000000" points="1906.8678,-69.5 2001.8678,-69.5 "/>
<text text-anchor="middle" x="1954.3678" y="-54.3" font-family="Times,serif" font-size="14.00" fill="#000000">in_file</text>
<polyline fill="none" stroke="#000000" points="1906.8678,-46.5 2001.8678,-46.5 "/>
<text text-anchor="middle" x="1954.3678" y="-31.3" font-family="Times,serif" font-size="14.00" fill="#000000">source_file</text>
<polyline fill="none" stroke="#000000" points="2001.8678,-23.5 2001.8678,-92.5 "/>
<text text-anchor="middle" x="2065.8678" y="-77.3" font-family="Times,serif" font-size="14.00" fill="#000000">ds_report_eddy</text>
<polyline fill="none" stroke="#000000" points="2001.8678,-69.5 2129.8678,-69.5 "/>
<text text-anchor="middle" x="2065.8678" y="-54.3" font-family="Times,serif" font-size="14.00" fill="#000000"> </text>
<polyline fill="none" stroke="#000000" points="2001.8678,-46.5 2129.8678,-46.5 "/>
<text text-anchor="middle" x="2065.8678" y="-31.3" font-family="Times,serif" font-size="14.00" fill="#000000"> </text>
<polyline fill="none" stroke="#000000" points="2129.8678,-23.5 2129.8678,-92.5 "/>
<text text-anchor="middle" x="2154.8678" y="-54.3" font-family="Times,serif" font-size="14.00" fill="#000000">OUT</text>
</g>
<!-- dwi_preproc_wfinputnode&#45;&gt;dwi_preproc_wfds_report_eddy -->
<g id="edge18" class="edge">
<title>dwi_preproc_wfinputnode:e&#45;&gt;dwi_preproc_wfds_report_eddy:w</title>
<path fill="none" stroke="#000000" d="M569.3678,-970C880.8224,-970 1920.3678,-908.4546 1920.3678,-597 1920.3678,-597 1920.3678,-597 1920.3678,-362 1920.3678,-345.6989 1894.5026,-95.8204 1902.2486,-44.2624"/>
<polygon fill="#000000" stroke="#000000" points="1905.5023,-45.5594 1906.3678,-35 1899.1062,-42.7149 1905.5023,-45.5594"/>
</g>
<!-- dwi_preproc_wfgradient_table&#45;&gt;dwi_preproc_wfdwi_reference_wf -->
<g id="edge16" class="edge">
<title>dwi_preproc_wfgradient_table:e&#45;&gt;dwi_preproc_wfdwi_reference_wf:w</title>
<path fill="none" stroke="#000000" d="M843.3678,-715.5C864.4789,-715.5 856.6298,-684.4255 843.3678,-668 795.6703,-608.9247 724.0653,-691.0753 676.3678,-632 662.831,-615.2341 653.9127,-585.9688 666.4088,-576.8174"/>
<polygon fill="#000000" stroke="#000000" points="667.6982,-580.09 676.3678,-574 665.7927,-573.3544 667.6982,-580.09"/>
</g>
<!-- dwi_preproc_wfoutputnode -->
<g id="node9" class="node">
<title>dwi_preproc_wfoutputnode</title>
<polygon fill="none" stroke="#000000" points="569.8678,-164 569.8678,-256 910.8678,-256 910.8678,-164 569.8678,-164"/>
<text text-anchor="middle" x="631.8678" y="-240.8" font-family="Times,serif" font-size="14.00" fill="#000000">IN</text>
<polyline fill="none" stroke="#000000" points="569.8678,-233 693.8678,-233 "/>
<text text-anchor="middle" x="631.8678" y="-217.8" font-family="Times,serif" font-size="14.00" fill="#000000">dwi_mask</text>
<polyline fill="none" stroke="#000000" points="569.8678,-210 693.8678,-210 "/>
<text text-anchor="middle" x="631.8678" y="-194.8" font-family="Times,serif" font-size="14.00" fill="#000000">dwi_reference</text>
<polyline fill="none" stroke="#000000" points="569.8678,-187 693.8678,-187 "/>
<text text-anchor="middle" x="631.8678" y="-171.8" font-family="Times,serif" font-size="14.00" fill="#000000">gradients_rasb</text>
<polyline fill="none" stroke="#000000" points="693.8678,-164 693.8678,-256 "/>
<text text-anchor="middle" x="742.8678" y="-237.3" font-family="Times,serif" font-size="14.00" fill="#000000">outputnode</text>
<polyline fill="none" stroke="#000000" points="693.8678,-226 791.8678,-226 "/>
<text text-anchor="middle" x="742.8678" y="-206.8" font-family="Times,serif" font-size="14.00" fill="#000000">utility</text>
<polyline fill="none" stroke="#000000" points="693.8678,-195 791.8678,-195 "/>
<text text-anchor="middle" x="742.8678" y="-175.8" font-family="Times,serif" font-size="14.00" fill="#000000"> </text>
<polyline fill="none" stroke="#000000" points="791.8678,-164 791.8678,-256 "/>
<text text-anchor="middle" x="851.3678" y="-237.3" font-family="Times,serif" font-size="14.00" fill="#000000">OUT</text>
<polyline fill="none" stroke="#000000" points="791.8678,-226 910.8678,-226 "/>
<text text-anchor="middle" x="851.3678" y="-206.8" font-family="Times,serif" font-size="14.00" fill="#000000">dwi_mask</text>
<polyline fill="none" stroke="#000000" points="791.8678,-195 910.8678,-195 "/>
<text text-anchor="middle" x="851.3678" y="-175.8" font-family="Times,serif" font-size="14.00" fill="#000000">dwi_reference</text>
</g>
<!-- dwi_preproc_wfgradient_table&#45;&gt;dwi_preproc_wfoutputnode -->
<g id="edge17" class="edge">
<title>dwi_preproc_wfgradient_table:e&#45;&gt;dwi_preproc_wfoutputnode:w</title>
<path fill="none" stroke="#000000" d="M843.3678,-683.5C846.8123,-683.5 845.5457,-670.6685 843.3678,-668 792.8839,-606.1446 726.9198,-685.1816 667.3678,-632 631.2808,-599.7733 532.2998,-230.9389 560.9293,-180.6629"/>
<polygon fill="#000000" stroke="#000000" points="563.0146,-183.4787 569.3678,-175 559.1139,-177.6662 563.0146,-183.4787"/>
</g>
<!-- dwi_preproc_wfbrainextraction_wf -->
<g id="node5" class="node">
<title>dwi_preproc_wfbrainextraction_wf</title>
<polygon fill="none" stroke="#000000" points="837.8678,-456.5 837.8678,-525.5 1298.8678,-525.5 1298.8678,-456.5 837.8678,-456.5"/>
<text text-anchor="middle" x="906.3678" y="-504.8" font-family="Times,serif" font-size="14.00" fill="#000000">IN</text>
<polyline fill="none" stroke="#000000" points="837.8678,-491.5 974.8678,-491.5 "/>
<text text-anchor="middle" x="906.3678" y="-470.3" font-family="Times,serif" font-size="14.00" fill="#000000">inputnode.in_file</text>
<polyline fill="none" stroke="#000000" points="974.8678,-456.5 974.8678,-525.5 "/>
<text text-anchor="middle" x="1050.8678" y="-510.3" font-family="Times,serif" font-size="14.00" fill="#000000">brainextraction_wf</text>
<polyline fill="none" stroke="#000000" points="974.8678,-502.5 1126.8678,-502.5 "/>
<text text-anchor="middle" x="1050.8678" y="-487.3" font-family="Times,serif" font-size="14.00" fill="#000000"> </text>
<polyline fill="none" stroke="#000000" points="974.8678,-479.5 1126.8678,-479.5 "/>
<text text-anchor="middle" x="1050.8678" y="-464.3" font-family="Times,serif" font-size="14.00" fill="#000000"> </text>
<polyline fill="none" stroke="#000000" points="1126.8678,-456.5 1126.8678,-525.5 "/>
<text text-anchor="middle" x="1212.8678" y="-510.3" font-family="Times,serif" font-size="14.00" fill="#000000">OUT</text>
<polyline fill="none" stroke="#000000" points="1126.8678,-502.5 1298.8678,-502.5 "/>
<text text-anchor="middle" x="1212.8678" y="-487.3" font-family="Times,serif" font-size="14.00" fill="#000000">outputnode.out_file</text>
<polyline fill="none" stroke="#000000" points="1126.8678,-479.5 1298.8678,-479.5 "/>
<text text-anchor="middle" x="1212.8678" y="-464.3" font-family="Times,serif" font-size="14.00" fill="#000000">outputnode.out_mask</text>
</g>
<!-- dwi_preproc_wfdwi_reference_wf&#45;&gt;dwi_preproc_wfbrainextraction_wf -->
<g id="edge12" class="edge">
<title>dwi_preproc_wfdwi_reference_wf:e&#45;&gt;dwi_preproc_wfbrainextraction_wf:w</title>
<path fill="none" stroke="#000000" d="M1198.3678,-597C1213.9234,-597 1208.8073,-573.5323 1198.3678,-562 1144.2631,-502.2314 891.4725,-585.7686 837.3678,-526 831.7333,-519.7757 828.1864,-495.1456 831.1,-482.1415"/>
<polygon fill="#000000" stroke="#000000" points="834.0408,-484.0589 837.3678,-474 828.4942,-479.7887 834.0408,-484.0589"/>
</g>
<!-- dwi_preproc_wfdwi_reference_wf&#45;&gt;dwi_preproc_wfreportlets_wf -->
<g id="edge13" class="edge">
<title>dwi_preproc_wfdwi_reference_wf:e&#45;&gt;dwi_preproc_wfreportlets_wf:w</title>
<path fill="none" stroke="#000000" d="M1198.3678,-574C1203.7011,-574 1201.9518,-565.9496 1198.3678,-562 1142.8538,-500.8225 883.8818,-587.1775 828.3678,-526 807.4612,-502.9605 809.7682,-480.9391 828.3678,-456 861.9113,-411.0235 896.5168,-438.8367 949.3678,-420 1114.5087,-361.1418 1216.1767,-413.9099 1313.3678,-268 1341.949,-225.092 1346.293,-191.6725 1313.3678,-152 1257.9212,-85.1909 1176.8144,-182.8091 1121.3678,-116 1094.2701,-83.3493 1077.9722,-23.0059 1111.2355,-13.3255"/>
<polygon fill="#000000" stroke="#000000" points="1111.9063,-16.7677 1121.3678,-12 1110.9983,-9.8268 1111.9063,-16.7677"/>
</g>
<!-- dwi_preproc_wfbuffernode -->
<g id="node6" class="node">
<title>dwi_preproc_wfbuffernode</title>
<polygon fill="none" stroke="#000000" points="607.8678,-327.5 607.8678,-396.5 940.8678,-396.5 940.8678,-327.5 607.8678,-327.5"/>
<text text-anchor="middle" x="667.3678" y="-381.3" font-family="Times,serif" font-size="14.00" fill="#000000">IN</text>
<polyline fill="none" stroke="#000000" points="607.8678,-373.5 726.8678,-373.5 "/>
<text text-anchor="middle" x="667.3678" y="-358.3" font-family="Times,serif" font-size="14.00" fill="#000000">dwi_mask</text>
<polyline fill="none" stroke="#000000" points="607.8678,-350.5 726.8678,-350.5 "/>
<text text-anchor="middle" x="667.3678" y="-335.3" font-family="Times,serif" font-size="14.00" fill="#000000">dwi_reference</text>
<polyline fill="none" stroke="#000000" points="726.8678,-327.5 726.8678,-396.5 "/>
<text text-anchor="middle" x="774.3678" y="-381.3" font-family="Times,serif" font-size="14.00" fill="#000000">buffernode</text>
<polyline fill="none" stroke="#000000" points="726.8678,-373.5 821.8678,-373.5 "/>
<text text-anchor="middle" x="774.3678" y="-358.3" font-family="Times,serif" font-size="14.00" fill="#000000">utility</text>
<polyline fill="none" stroke="#000000" points="726.8678,-350.5 821.8678,-350.5 "/>
<text text-anchor="middle" x="774.3678" y="-335.3" font-family="Times,serif" font-size="14.00" fill="#000000"> </text>
<polyline fill="none" stroke="#000000" points="821.8678,-327.5 821.8678,-396.5 "/>
<text text-anchor="middle" x="881.3678" y="-381.3" font-family="Times,serif" font-size="14.00" fill="#000000">OUT</text>
<polyline fill="none" stroke="#000000" points="821.8678,-373.5 940.8678,-373.5 "/>
<text text-anchor="middle" x="881.3678" y="-358.3" font-family="Times,serif" font-size="14.00" fill="#000000">dwi_mask</text>
<polyline fill="none" stroke="#000000" points="821.8678,-350.5 940.8678,-350.5 "/>
<text text-anchor="middle" x="881.3678" y="-335.3" font-family="Times,serif" font-size="14.00" fill="#000000">dwi_reference</text>
</g>
<!-- dwi_preproc_wfbrainextraction_wf&#45;&gt;dwi_preproc_wfbuffernode -->
<g id="edge3" class="edge">
<title>dwi_preproc_wfbrainextraction_wf:e&#45;&gt;dwi_preproc_wfbuffernode:w</title>
<path fill="none" stroke="#000000" d="M1299.3678,-491C1314.9234,-491 1309.8897,-467.4571 1299.3678,-456 1194.9743,-342.3272 711.7613,-510.6728 607.3678,-397 600.8292,-389.8802 596.8485,-360.8151 600.7043,-346.7275"/>
<polygon fill="#000000" stroke="#000000" points="603.488,-348.8589 607.3678,-339 598.1867,-344.2876 603.488,-348.8589"/>
</g>
<!-- dwi_preproc_wfbrainextraction_wf&#45;&gt;dwi_preproc_wfbuffernode -->
<g id="edge5" class="edge">
<title>dwi_preproc_wfbrainextraction_wf:e&#45;&gt;dwi_preproc_wfbuffernode:w</title>
<path fill="none" stroke="#000000" d="M1299.3678,-468C1304.7011,-468 1302.9753,-459.9282 1299.3678,-456 1194.9743,-342.3272 711.7613,-510.6728 607.3678,-397 599.9696,-388.9442 595.2847,-374.9134 598.5624,-367.2926"/>
<polygon fill="#000000" stroke="#000000" points="600.6,-370.1515 607.3678,-362 596.9938,-364.1519 600.6,-370.1515"/>
</g>
<!-- dwi_preproc_wfbrainextraction_wf&#45;&gt;dwi_preproc_wfeddy_wf -->
<g id="edge6" class="edge">
<title>dwi_preproc_wfbrainextraction_wf:e&#45;&gt;dwi_preproc_wfeddy_wf:w</title>
<path fill="none" stroke="#000000" d="M1299.3678,-468C1358.0496,-468 1383.7716,-464.2028 1422.3678,-420 1436.6753,-403.6142 1419.086,-375.0824 1426.9408,-365.3579"/>
<polygon fill="#000000" stroke="#000000" points="1428.122,-368.6526 1436.3678,-362 1425.7731,-362.0584 1428.122,-368.6526"/>
</g>
<!-- dwi_preproc_wfeddy_report -->
<g id="node13" class="node">
<title>dwi_preproc_wfeddy_report</title>
<polygon fill="none" stroke="#000000" points="1634.3678,-175.5 1634.3678,-244.5 1892.3678,-244.5 1892.3678,-175.5 1634.3678,-175.5"/>
<text text-anchor="middle" x="1665.3678" y="-229.3" font-family="Times,serif" font-size="14.00" fill="#000000">IN</text>
<polyline fill="none" stroke="#000000" points="1634.3678,-221.5 1696.3678,-221.5 "/>
<text text-anchor="middle" x="1665.3678" y="-206.3" font-family="Times,serif" font-size="14.00" fill="#000000">after</text>
<polyline fill="none" stroke="#000000" points="1634.3678,-198.5 1696.3678,-198.5 "/>
<text text-anchor="middle" x="1665.3678" y="-183.3" font-family="Times,serif" font-size="14.00" fill="#000000">before</text>
<polyline fill="none" stroke="#000000" points="1696.3678,-175.5 1696.3678,-244.5 "/>
<text text-anchor="middle" x="1748.3678" y="-229.3" font-family="Times,serif" font-size="14.00" fill="#000000">eddy_report</text>
<polyline fill="none" stroke="#000000" points="1696.3678,-221.5 1800.3678,-221.5 "/>
<text text-anchor="middle" x="1748.3678" y="-206.3" font-family="Times,serif" font-size="14.00" fill="#000000">reportlets</text>
<polyline fill="none" stroke="#000000" points="1696.3678,-198.5 1800.3678,-198.5 "/>
<text text-anchor="middle" x="1748.3678" y="-183.3" font-family="Times,serif" font-size="14.00" fill="#000000"> </text>
<polyline fill="none" stroke="#000000" points="1800.3678,-175.5 1800.3678,-244.5 "/>
<text text-anchor="middle" x="1846.3678" y="-223.8" font-family="Times,serif" font-size="14.00" fill="#000000">OUT</text>
<polyline fill="none" stroke="#000000" points="1800.3678,-210.5 1892.3678,-210.5 "/>
<text text-anchor="middle" x="1846.3678" y="-189.3" font-family="Times,serif" font-size="14.00" fill="#000000">out_report</text>
</g>
<!-- dwi_preproc_wfbrainextraction_wf&#45;&gt;dwi_preproc_wfeddy_report -->
<g id="edge4" class="edge">
<title>dwi_preproc_wfbrainextraction_wf:e&#45;&gt;dwi_preproc_wfeddy_report:w</title>
<path fill="none" stroke="#000000" d="M1299.3678,-491C1400.0843,-491 1353.1621,-372.0978 1427.3678,-304 1502.6444,-234.9195 1527.0712,-190.0532 1624.1081,-187.1499"/>
<polygon fill="#000000" stroke="#000000" points="1624.4201,-190.6458 1634.3678,-187 1624.3177,-183.6466 1624.4201,-190.6458"/>
</g>
<!-- dwi_preproc_wfbuffernode&#45;&gt;dwi_preproc_wfbbreg_wf -->
<g id="edge9" class="edge">
<title>dwi_preproc_wfbuffernode:e&#45;&gt;dwi_preproc_wfbbreg_wf:w</title>
<path fill="none" stroke="#000000" d="M941.3678,-339C946.7011,-339 945.0153,-330.8911 941.3678,-327 871.9209,-252.9152 98.8147,-342.0848 29.3678,-268 14.493,-252.1318 6.3679,-221.7502 19.6761,-212.6433"/>
<polygon fill="#000000" stroke="#000000" points="20.6412,-216.008 29.3678,-210 18.7992,-209.2547 20.6412,-216.008"/>
</g>
<!-- dwi_preproc_wfbuffernode&#45;&gt;dwi_preproc_wfoutputnode -->
<g id="edge8" class="edge">
<title>dwi_preproc_wfbuffernode:e&#45;&gt;dwi_preproc_wfoutputnode:w</title>
<path fill="none" stroke="#000000" d="M941.3678,-362C956.9234,-362 951.2905,-338.9798 941.3678,-327 834.0267,-197.4054 676.7089,-386.0946 569.3678,-256.5 562.6434,-248.3815 557.9177,-235.1193 560.6033,-227.6233"/>
<polygon fill="#000000" stroke="#000000" points="562.8412,-230.3459 569.3678,-222 559.0612,-224.4543 562.8412,-230.3459"/>
</g>
<!-- dwi_preproc_wfbuffernode&#45;&gt;dwi_preproc_wfoutputnode -->
<g id="edge11" class="edge">
<title>dwi_preproc_wfbuffernode:e&#45;&gt;dwi_preproc_wfoutputnode:w</title>
<path fill="none" stroke="#000000" d="M941.3678,-339C946.7011,-339 944.7699,-331.1074 941.3678,-327 834.0267,-197.4054 676.7089,-386.0946 569.3678,-256.5 563.1484,-248.9912 558.9456,-219.8394 562.7173,-205.7327"/>
<polygon fill="#000000" stroke="#000000" points="565.5008,-207.8639 569.3678,-198 560.1936,-203.2995 565.5008,-207.8639"/>
</g>
<!-- dwi_preproc_wfbuffernode&#45;&gt;dwi_preproc_wfdwi_derivatives_wf -->
<g id="edge7" class="edge">
<title>dwi_preproc_wfbuffernode:e&#45;&gt;dwi_preproc_wfdwi_derivatives_wf:w</title>
<path fill="none" stroke="#000000" d="M941.3678,-362C968.341,-362 915.7695,-257.6644 920.9922,-229.1351"/>
<polygon fill="#000000" stroke="#000000" points="923.6141,-231.4685 928.3678,-222 918.747,-226.4374 923.6141,-231.4685"/>
</g>
<!-- dwi_preproc_wfbuffernode&#45;&gt;dwi_preproc_wfdwi_derivatives_wf -->
<g id="edge10" class="edge">
<title>dwi_preproc_wfbuffernode:e&#45;&gt;dwi_preproc_wfdwi_derivatives_wf:w</title>
<path fill="none" stroke="#000000" d="M941.3678,-339C946.7011,-339 941.8534,-332.3112 941.3678,-327 938.4669,-295.2708 931.2688,-288.2292 928.3678,-256.5 927.4986,-246.9928 920.8951,-219.8998 922.5969,-206.1775"/>
<polygon fill="#000000" stroke="#000000" points="925.4616,-208.1885 928.3678,-198 919.7423,-204.1524 925.4616,-208.1885"/>
</g>
<!-- dwi_preproc_wfbbreg_wf&#45;&gt;dwi_preproc_wfds_report_reg -->
<g id="edge1" class="edge">
<title>dwi_preproc_wfbbreg_wf:e&#45;&gt;dwi_preproc_wfds_report_reg:w</title>
<path fill="none" stroke="#000000" d="M513.3678,-211C540.6621,-211 496.6288,-104.0086 505.5339,-76.4249"/>
<polygon fill="#000000" stroke="#000000" points="507.8551,-79.0477 513.3678,-70 503.4161,-73.6352 507.8551,-79.0477"/>
</g>
<!-- dwi_preproc_wfbbreg_wf&#45;&gt;dwi_preproc_wfds_report_reg -->
<g id="edge2" class="edge">
<title>dwi_preproc_wfbbreg_wf:e&#45;&gt;dwi_preproc_wfds_report_reg:w</title>
<path fill="none" stroke="#000000" d="M513.3678,-172C537.3209,-172 499.8006,-79.7898 505.9841,-53.1353"/>
<polygon fill="#000000" stroke="#000000" points="508.609,-55.466 513.3678,-46 503.7446,-50.4322 508.609,-55.466"/>
</g>
<!-- dwi_preproc_wfoutputnode&#45;&gt;dwi_preproc_wfreportlets_wf -->
<g id="edge34" class="edge">
<title>dwi_preproc_wfoutputnode:e&#45;&gt;dwi_preproc_wfreportlets_wf:w</title>
<path fill="none" stroke="#000000" d="M911.3678,-211C924.5989,-211 911.0093,-162.2566 919.3678,-152 947.4889,-117.4931 1058.1477,-85.4092 1111.2565,-81.4168"/>
<polygon fill="#000000" stroke="#000000" points="1111.5205,-84.909 1121.3678,-81 1111.2321,-77.9149 1111.5205,-84.909"/>
</g>
<!-- dwi_preproc_wfoutputnode&#45;&gt;dwi_preproc_wfreportlets_wf -->
<g id="edge35" class="edge">
<title>dwi_preproc_wfoutputnode:e&#45;&gt;dwi_preproc_wfreportlets_wf:w</title>
<path fill="none" stroke="#000000" d="M911.3678,-179C923.8835,-179 911.194,-161.4779 919.3678,-152 981.7645,-79.6484 1019.6194,-59.406 1111.1454,-58.0721"/>
<polygon fill="#000000" stroke="#000000" points="1111.3928,-61.5705 1121.3678,-58 1111.3433,-54.5707 1111.3928,-61.5705"/>
</g>
<!-- dwi_preproc_wfeddy_wf&#45;&gt;dwi_preproc_wfeddy_report -->
<g id="edge15" class="edge">
<title>dwi_preproc_wfeddy_wf:e&#45;&gt;dwi_preproc_wfeddy_report:w</title>
<path fill="none" stroke="#000000" d="M1892.3678,-333C1905.2567,-333 1900.4018,-314.0786 1892.3678,-304 1819.0479,-212.0204 1707.6877,-336.9796 1634.3678,-245 1627.5502,-236.4473 1622.6294,-222.6184 1625.7159,-215.1612"/>
<polygon fill="#000000" stroke="#000000" points="1627.5729,-218.129 1634.3678,-210 1623.9867,-212.1174 1627.5729,-218.129"/>
</g>
<!-- dwi_preproc_wfeddy_report&#45;&gt;dwi_preproc_wfds_report_eddy -->
<g id="edge14" class="edge">
<title>dwi_preproc_wfeddy_report:e&#45;&gt;dwi_preproc_wfds_report_eddy:w</title>
<path fill="none" stroke="#000000" d="M1892.3678,-193C1918.6408,-193 1886.8784,-90.5614 1898.1891,-64.1515"/>
<polygon fill="#000000" stroke="#000000" points="1900.4798,-66.8081 1906.3678,-58 1896.2721,-61.2138 1900.4798,-66.8081"/>
</g>
</g>
</svg>
