<?xml version="1.0" encoding="UTF-8" standalone="no"?>
<!DOCTYPE svg PUBLIC "-//W3C//DTD SVG 1.1//EN"
 "http://www.w3.org/Graphics/SVG/1.1/DTD/svg11.dtd">
<!-- Generated by graphviz version 2.40.1 (20161225.0304)
 -->
<!-- Title: structs Pages: 1 -->
<svg width="1363pt" height="935pt"
 viewBox="0.00 0.00 1363.11 935.00" xmlns="http://www.w3.org/2000/svg" xmlns:xlink="http://www.w3.org/1999/xlink">
<g id="graph0" class="graph" transform="scale(1 1) rotate(0) translate(4 931)">
<title>structs</title>
<polygon fill="#ffffff" stroke="transparent" points="-4,4 -4,-931 1359.1078,-931 1359.1078,4 -4,4"/>
<!-- dwi_reference_wfinputnode -->
<g id="node1" class="node">
<title>dwi_reference_wfinputnode</title>
<polygon fill="none" stroke="#000000" points="659.1078,-857.5 659.1078,-926.5 855.1078,-926.5 855.1078,-857.5 659.1078,-857.5"/>
<text text-anchor="middle" x="676.6078" y="-888.3" font-family="Times,serif" font-size="14.00" fill="#000000">IN</text>
<polyline fill="none" stroke="#000000" points="694.1078,-857.5 694.1078,-926.5 "/>
<text text-anchor="middle" x="738.6078" y="-911.3" font-family="Times,serif" font-size="14.00" fill="#000000">inputnode</text>
<polyline fill="none" stroke="#000000" points="694.1078,-903.5 783.1078,-903.5 "/>
<text text-anchor="middle" x="738.6078" y="-888.3" font-family="Times,serif" font-size="14.00" fill="#000000">utility</text>
<polyline fill="none" stroke="#000000" points="694.1078,-880.5 783.1078,-880.5 "/>
<text text-anchor="middle" x="738.6078" y="-865.3" font-family="Times,serif" font-size="14.00" fill="#000000"> </text>
<polyline fill="none" stroke="#000000" points="783.1078,-857.5 783.1078,-926.5 "/>
<text text-anchor="middle" x="819.1078" y="-911.3" font-family="Times,serif" font-size="14.00" fill="#000000">OUT</text>
<polyline fill="none" stroke="#000000" points="783.1078,-903.5 855.1078,-903.5 "/>
<text text-anchor="middle" x="819.1078" y="-888.3" font-family="Times,serif" font-size="14.00" fill="#000000">b0_ixs</text>
<polyline fill="none" stroke="#000000" points="783.1078,-880.5 855.1078,-880.5 "/>
<text text-anchor="middle" x="819.1078" y="-865.3" font-family="Times,serif" font-size="14.00" fill="#000000">dwi_file</text>
</g>
<!-- dwi_reference_wfvalidate -->
<g id="node2" class="node">
<title>dwi_reference_wfvalidate</title>
<polygon fill="none" stroke="#000000" points="869.1078,-751.5 869.1078,-820.5 1095.1078,-820.5 1095.1078,-751.5 869.1078,-751.5"/>
<text text-anchor="middle" x="899.1078" y="-799.8" font-family="Times,serif" font-size="14.00" fill="#000000">IN</text>
<polyline fill="none" stroke="#000000" points="869.1078,-786.5 929.1078,-786.5 "/>
<text text-anchor="middle" x="899.1078" y="-765.3" font-family="Times,serif" font-size="14.00" fill="#000000">in_file</text>
<polyline fill="none" stroke="#000000" points="929.1078,-751.5 929.1078,-820.5 "/>
<text text-anchor="middle" x="966.1078" y="-805.3" font-family="Times,serif" font-size="14.00" fill="#000000">validate</text>
<polyline fill="none" stroke="#000000" points="929.1078,-797.5 1003.1078,-797.5 "/>
<text text-anchor="middle" x="966.1078" y="-782.3" font-family="Times,serif" font-size="14.00" fill="#000000">images</text>
<polyline fill="none" stroke="#000000" points="929.1078,-774.5 1003.1078,-774.5 "/>
<text text-anchor="middle" x="966.1078" y="-759.3" font-family="Times,serif" font-size="14.00" fill="#000000"> </text>
<polyline fill="none" stroke="#000000" points="1003.1078,-751.5 1003.1078,-820.5 "/>
<text text-anchor="middle" x="1049.1078" y="-805.3" font-family="Times,serif" font-size="14.00" fill="#000000">OUT</text>
<polyline fill="none" stroke="#000000" points="1003.1078,-797.5 1095.1078,-797.5 "/>
<text text-anchor="middle" x="1049.1078" y="-782.3" font-family="Times,serif" font-size="14.00" fill="#000000">out_file</text>
<polyline fill="none" stroke="#000000" points="1003.1078,-774.5 1095.1078,-774.5 "/>
<text text-anchor="middle" x="1049.1078" y="-759.3" font-family="Times,serif" font-size="14.00" fill="#000000">out_report</text>
</g>
<!-- dwi_reference_wfinputnode&#45;&gt;dwi_reference_wfvalidate -->
<g id="edge6" class="edge">
<title>dwi_reference_wfinputnode:e&#45;&gt;dwi_reference_wfvalidate:w</title>
<path fill="none" stroke="#000000" d="M855.1078,-869C873.8654,-869 855.3656,-799.1208 861.8981,-776.1918"/>
<polygon fill="#000000" stroke="#000000" points="864.4997,-778.5402 869.1078,-769 859.5561,-773.5843 864.4997,-778.5402"/>
</g>
<!-- dwi_reference_wfextract_b0 -->
<g id="node3" class="node">
<title>dwi_reference_wfextract_b0</title>
<polygon fill="none" stroke="#000000" points="841.1078,-645.5 841.1078,-714.5 1067.1078,-714.5 1067.1078,-645.5 841.1078,-645.5"/>
<text text-anchor="middle" x="872.1078" y="-699.3" font-family="Times,serif" font-size="14.00" fill="#000000">IN</text>
<polyline fill="none" stroke="#000000" points="841.1078,-691.5 903.1078,-691.5 "/>
<text text-anchor="middle" x="872.1078" y="-676.3" font-family="Times,serif" font-size="14.00" fill="#000000">b0_ixs</text>
<polyline fill="none" stroke="#000000" points="841.1078,-668.5 903.1078,-668.5 "/>
<text text-anchor="middle" x="872.1078" y="-653.3" font-family="Times,serif" font-size="14.00" fill="#000000">in_file</text>
<polyline fill="none" stroke="#000000" points="903.1078,-645.5 903.1078,-714.5 "/>
<text text-anchor="middle" x="950.1078" y="-699.3" font-family="Times,serif" font-size="14.00" fill="#000000">extract_b0</text>
<polyline fill="none" stroke="#000000" points="903.1078,-691.5 997.1078,-691.5 "/>
<text text-anchor="middle" x="950.1078" y="-676.3" font-family="Times,serif" font-size="14.00" fill="#000000">images</text>
<polyline fill="none" stroke="#000000" points="903.1078,-668.5 997.1078,-668.5 "/>
<text text-anchor="middle" x="950.1078" y="-653.3" font-family="Times,serif" font-size="14.00" fill="#000000"> </text>
<polyline fill="none" stroke="#000000" points="997.1078,-645.5 997.1078,-714.5 "/>
<text text-anchor="middle" x="1032.1078" y="-693.8" font-family="Times,serif" font-size="14.00" fill="#000000">OUT</text>
<polyline fill="none" stroke="#000000" points="997.1078,-680.5 1067.1078,-680.5 "/>
<text text-anchor="middle" x="1032.1078" y="-659.3" font-family="Times,serif" font-size="14.00" fill="#000000">out_file</text>
</g>
<!-- dwi_reference_wfinputnode&#45;&gt;dwi_reference_wfextract_b0 -->
<g id="edge5" class="edge">
<title>dwi_reference_wfinputnode:e&#45;&gt;dwi_reference_wfextract_b0:w</title>
<path fill="none" stroke="#000000" d="M855.1078,-892C898.0797,-892 812.1208,-716.3825 831.9254,-684.8262"/>
<polygon fill="#000000" stroke="#000000" points="833.8844,-687.7507 841.1078,-680 830.6276,-681.5544 833.8844,-687.7507"/>
</g>
<!-- dwi_reference_wfvalidate&#45;&gt;dwi_reference_wfextract_b0 -->
<g id="edge13" class="edge">
<title>dwi_reference_wfvalidate:e&#45;&gt;dwi_reference_wfextract_b0:w</title>
<path fill="none" stroke="#000000" d="M1095.1078,-786C1110.6634,-786 1105.3063,-762.7459 1095.1078,-751 1020.3561,-664.9065 915.8595,-801.0935 841.1078,-715 826.9801,-698.7288 818.4589,-669.1311 831.1011,-659.8573"/>
<polygon fill="#000000" stroke="#000000" points="832.4531,-663.1112 841.1078,-657 830.5311,-656.3802 832.4531,-663.1112"/>
</g>
<!-- dwi_reference_wfoutputnode -->
<g id="node8" class="node">
<title>dwi_reference_wfoutputnode</title>
<polygon fill="none" stroke="#000000" points="1067.1078,-.5 1067.1078,-161.5 1355.1078,-161.5 1355.1078,-.5 1067.1078,-.5"/>
<text text-anchor="middle" x="1137.1078" y="-146.3" font-family="Times,serif" font-size="14.00" fill="#000000">IN</text>
<polyline fill="none" stroke="#000000" points="1067.1078,-138.5 1207.1078,-138.5 "/>
<text text-anchor="middle" x="1137.1078" y="-123.3" font-family="Times,serif" font-size="14.00" fill="#000000">dwi_file</text>
<polyline fill="none" stroke="#000000" points="1067.1078,-115.5 1207.1078,-115.5 "/>
<text text-anchor="middle" x="1137.1078" y="-100.3" font-family="Times,serif" font-size="14.00" fill="#000000">dwi_mask</text>
<polyline fill="none" stroke="#000000" points="1067.1078,-92.5 1207.1078,-92.5 "/>
<text text-anchor="middle" x="1137.1078" y="-77.3" font-family="Times,serif" font-size="14.00" fill="#000000">raw_ref_image</text>
<polyline fill="none" stroke="#000000" points="1067.1078,-69.5 1207.1078,-69.5 "/>
<text text-anchor="middle" x="1137.1078" y="-54.3" font-family="Times,serif" font-size="14.00" fill="#000000">ref_image</text>
<polyline fill="none" stroke="#000000" points="1067.1078,-46.5 1207.1078,-46.5 "/>
<text text-anchor="middle" x="1137.1078" y="-31.3" font-family="Times,serif" font-size="14.00" fill="#000000">ref_image_brain</text>
<polyline fill="none" stroke="#000000" points="1067.1078,-23.5 1207.1078,-23.5 "/>
<text text-anchor="middle" x="1137.1078" y="-8.3" font-family="Times,serif" font-size="14.00" fill="#000000">validation_report</text>
<polyline fill="none" stroke="#000000" points="1207.1078,-.5 1207.1078,-161.5 "/>
<text text-anchor="middle" x="1256.1078" y="-131.3" font-family="Times,serif" font-size="14.00" fill="#000000">outputnode</text>
<polyline fill="none" stroke="#000000" points="1207.1078,-108.5 1305.1078,-108.5 "/>
<text text-anchor="middle" x="1256.1078" y="-77.8" font-family="Times,serif" font-size="14.00" fill="#000000">utility</text>
<polyline fill="none" stroke="#000000" points="1207.1078,-54.5 1305.1078,-54.5 "/>
<text text-anchor="middle" x="1256.1078" y="-23.8" font-family="Times,serif" font-size="14.00" fill="#000000"> </text>
<polyline fill="none" stroke="#000000" points="1305.1078,-.5 1305.1078,-161.5 "/>
<text text-anchor="middle" x="1330.1078" y="-77.3" font-family="Times,serif" font-size="14.00" fill="#000000">OUT</text>
</g>
<!-- dwi_reference_wfvalidate&#45;&gt;dwi_reference_wfoutputnode -->
<g id="edge14" class="edge">
<title>dwi_reference_wfvalidate:e&#45;&gt;dwi_reference_wfoutputnode:w</title>
<path fill="none" stroke="#000000" d="M1095.1078,-786C1142.2189,-786 1095.1078,-621.1111 1095.1078,-574 1095.1078,-574 1095.1078,-574 1095.1078,-362 1095.1078,-288.6236 1089.2558,-270.1888 1076.1078,-198 1071.2543,-171.3518 1045.0746,-138.6026 1057.0515,-129.4673"/>
<polygon fill="#000000" stroke="#000000" points="1058.2298,-132.7821 1067.1078,-127 1056.5618,-125.9837 1058.2298,-132.7821"/>
</g>
<!-- dwi_reference_wfvalidate&#45;&gt;dwi_reference_wfoutputnode -->
<g id="edge15" class="edge">
<title>dwi_reference_wfvalidate:e&#45;&gt;dwi_reference_wfoutputnode:w</title>
<path fill="none" stroke="#000000" d="M1095.1078,-763C1147.3085,-763 1133.1078,-679.963 1133.1078,-574 1133.1078,-574 1133.1078,-574 1133.1078,-362 1133.1078,-287.4697 1131.2344,-264.7637 1098.1078,-198 1088.7229,-179.0857 1074.456,-181.7947 1067.1078,-162 1045.1755,-102.9187 1005.1346,-21.4956 1057.1371,-12.7667"/>
<polygon fill="#000000" stroke="#000000" points="1057.4056,-16.2565 1067.1078,-12 1056.8689,-9.2771 1057.4056,-16.2565"/>
</g>
<!-- dwi_reference_wfreg_b0 -->
<g id="node4" class="node">
<title>dwi_reference_wfreg_b0</title>
<polygon fill="none" stroke="#000000" points="15.1078,-539.5 15.1078,-608.5 211.1078,-608.5 211.1078,-539.5 15.1078,-539.5"/>
<text text-anchor="middle" x="45.1078" y="-587.8" font-family="Times,serif" font-size="14.00" fill="#000000">IN</text>
<polyline fill="none" stroke="#000000" points="15.1078,-574.5 75.1078,-574.5 "/>
<text text-anchor="middle" x="45.1078" y="-553.3" font-family="Times,serif" font-size="14.00" fill="#000000">in_file</text>
<polyline fill="none" stroke="#000000" points="75.1078,-539.5 75.1078,-608.5 "/>
<text text-anchor="middle" x="108.1078" y="-593.3" font-family="Times,serif" font-size="14.00" fill="#000000">reg_b0</text>
<polyline fill="none" stroke="#000000" points="75.1078,-585.5 141.1078,-585.5 "/>
<text text-anchor="middle" x="108.1078" y="-570.3" font-family="Times,serif" font-size="14.00" fill="#000000">fsl</text>
<polyline fill="none" stroke="#000000" points="75.1078,-562.5 141.1078,-562.5 "/>
<text text-anchor="middle" x="108.1078" y="-547.3" font-family="Times,serif" font-size="14.00" fill="#000000"> </text>
<polyline fill="none" stroke="#000000" points="141.1078,-539.5 141.1078,-608.5 "/>
<text text-anchor="middle" x="176.1078" y="-587.8" font-family="Times,serif" font-size="14.00" fill="#000000">OUT</text>
<polyline fill="none" stroke="#000000" points="141.1078,-574.5 211.1078,-574.5 "/>
<text text-anchor="middle" x="176.1078" y="-553.3" font-family="Times,serif" font-size="14.00" fill="#000000">out_file</text>
</g>
<!-- dwi_reference_wfextract_b0&#45;&gt;dwi_reference_wfreg_b0 -->
<g id="edge4" class="edge">
<title>dwi_reference_wfextract_b0:e&#45;&gt;dwi_reference_wfreg_b0:w</title>
<path fill="none" stroke="#000000" d="M1067.1078,-663C1075.1078,-663 1072.6671,-650.7528 1067.1078,-645 985.833,-560.8964 96.3826,-693.1036 15.1078,-609 1.9335,-595.3671 -5.1785,-569.1092 5.4483,-560.113"/>
<polygon fill="#000000" stroke="#000000" points="6.6635,-563.3987 15.1078,-557 4.5163,-556.7361 6.6635,-563.3987"/>
</g>
<!-- dwi_reference_wfpre_mask -->
<g id="node5" class="node">
<title>dwi_reference_wfpre_mask</title>
<polygon fill="none" stroke="#000000" points="211.1078,-433.5 211.1078,-502.5 427.1078,-502.5 427.1078,-433.5 211.1078,-433.5"/>
<text text-anchor="middle" x="241.1078" y="-481.8" font-family="Times,serif" font-size="14.00" fill="#000000">IN</text>
<polyline fill="none" stroke="#000000" points="211.1078,-468.5 271.1078,-468.5 "/>
<text text-anchor="middle" x="241.1078" y="-447.3" font-family="Times,serif" font-size="14.00" fill="#000000">in_file</text>
<polyline fill="none" stroke="#000000" points="271.1078,-433.5 271.1078,-502.5 "/>
<text text-anchor="middle" x="314.1078" y="-487.3" font-family="Times,serif" font-size="14.00" fill="#000000">pre_mask</text>
<polyline fill="none" stroke="#000000" points="271.1078,-479.5 357.1078,-479.5 "/>
<text text-anchor="middle" x="314.1078" y="-464.3" font-family="Times,serif" font-size="14.00" fill="#000000">afni</text>
<polyline fill="none" stroke="#000000" points="271.1078,-456.5 357.1078,-456.5 "/>
<text text-anchor="middle" x="314.1078" y="-441.3" font-family="Times,serif" font-size="14.00" fill="#000000"> </text>
<polyline fill="none" stroke="#000000" points="357.1078,-433.5 357.1078,-502.5 "/>
<text text-anchor="middle" x="392.1078" y="-481.8" font-family="Times,serif" font-size="14.00" fill="#000000">OUT</text>
<polyline fill="none" stroke="#000000" points="357.1078,-468.5 427.1078,-468.5 "/>
<text text-anchor="middle" x="392.1078" y="-447.3" font-family="Times,serif" font-size="14.00" fill="#000000">out_file</text>
</g>
<!-- dwi_reference_wfreg_b0&#45;&gt;dwi_reference_wfpre_mask -->
<g id="edge9" class="edge">
<title>dwi_reference_wfreg_b0:e&#45;&gt;dwi_reference_wfpre_mask:w</title>
<path fill="none" stroke="#000000" d="M211.1078,-557C253.8023,-557 180.4212,-469.9434 201.3515,-453.6202"/>
<polygon fill="#000000" stroke="#000000" points="202.3579,-456.9741 211.1078,-451 200.5422,-450.2136 202.3579,-456.9741"/>
</g>
<!-- dwi_reference_wfrescale_b0 -->
<g id="node6" class="node">
<title>dwi_reference_wfrescale_b0</title>
<polygon fill="none" stroke="#000000" points="159.6078,-327.5 159.6078,-396.5 406.6078,-396.5 406.6078,-327.5 159.6078,-327.5"/>
<text text-anchor="middle" x="202.1078" y="-381.3" font-family="Times,serif" font-size="14.00" fill="#000000">IN</text>
<polyline fill="none" stroke="#000000" points="159.6078,-373.5 244.6078,-373.5 "/>
<text text-anchor="middle" x="202.1078" y="-358.3" font-family="Times,serif" font-size="14.00" fill="#000000">in_file</text>
<polyline fill="none" stroke="#000000" points="159.6078,-350.5 244.6078,-350.5 "/>
<text text-anchor="middle" x="202.1078" y="-335.3" font-family="Times,serif" font-size="14.00" fill="#000000">mask_file</text>
<polyline fill="none" stroke="#000000" points="244.6078,-327.5 244.6078,-396.5 "/>
<text text-anchor="middle" x="291.6078" y="-381.3" font-family="Times,serif" font-size="14.00" fill="#000000">rescale_b0</text>
<polyline fill="none" stroke="#000000" points="244.6078,-373.5 338.6078,-373.5 "/>
<text text-anchor="middle" x="291.6078" y="-358.3" font-family="Times,serif" font-size="14.00" fill="#000000">images</text>
<polyline fill="none" stroke="#000000" points="244.6078,-350.5 338.6078,-350.5 "/>
<text text-anchor="middle" x="291.6078" y="-335.3" font-family="Times,serif" font-size="14.00" fill="#000000"> </text>
<polyline fill="none" stroke="#000000" points="338.6078,-327.5 338.6078,-396.5 "/>
<text text-anchor="middle" x="372.6078" y="-375.8" font-family="Times,serif" font-size="14.00" fill="#000000">OUT</text>
<polyline fill="none" stroke="#000000" points="338.6078,-362.5 406.6078,-362.5 "/>
<text text-anchor="middle" x="372.6078" y="-341.3" font-family="Times,serif" font-size="14.00" fill="#000000">out_ref</text>
</g>
<!-- dwi_reference_wfreg_b0&#45;&gt;dwi_reference_wfrescale_b0 -->
<g id="edge10" class="edge">
<title>dwi_reference_wfreg_b0:e&#45;&gt;dwi_reference_wfrescale_b0:w</title>
<path fill="none" stroke="#000000" d="M211.1078,-557C219.1078,-557 212.5047,-546.8771 211.1078,-539 199.3719,-472.8229 170.8437,-463.1771 159.1078,-397 157.3889,-387.3075 151.6163,-375.8662 151.5507,-368.7709"/>
<polygon fill="#000000" stroke="#000000" points="153.9955,-371.2798 159.1078,-362 149.3243,-366.0663 153.9955,-371.2798"/>
</g>
<!-- dwi_reference_wfpre_mask&#45;&gt;dwi_reference_wfrescale_b0 -->
<g id="edge8" class="edge">
<title>dwi_reference_wfpre_mask:e&#45;&gt;dwi_reference_wfrescale_b0:w</title>
<path fill="none" stroke="#000000" d="M427.1078,-451C435.1078,-451 432.3747,-439.0216 427.1078,-433 347.9859,-342.5391 238.2297,-487.4609 159.1078,-397 144.9211,-380.7802 136.4395,-351.148 149.0963,-341.8615"/>
<polygon fill="#000000" stroke="#000000" points="150.4547,-345.1135 159.1078,-339 148.531,-338.383 150.4547,-345.1135"/>
</g>
<!-- dwi_reference_wfenhance_and_skullstrip_dwi_wf -->
<g id="node7" class="node">
<title>dwi_reference_wfenhance_and_skullstrip_dwi_wf</title>
<polygon fill="none" stroke="#000000" points="421.1078,-198.5 421.1078,-290.5 1067.1078,-290.5 1067.1078,-198.5 421.1078,-198.5"/>
<text text-anchor="middle" x="502.6078" y="-271.8" font-family="Times,serif" font-size="14.00" fill="#000000">IN</text>
<polyline fill="none" stroke="#000000" points="421.1078,-260.5 584.1078,-260.5 "/>
<text text-anchor="middle" x="502.6078" y="-241.3" font-family="Times,serif" font-size="14.00" fill="#000000">inputnode.in_file</text>
<polyline fill="none" stroke="#000000" points="421.1078,-229.5 584.1078,-229.5 "/>
<text text-anchor="middle" x="502.6078" y="-210.3" font-family="Times,serif" font-size="14.00" fill="#000000">inputnode.pre_mask</text>
<polyline fill="none" stroke="#000000" points="584.1078,-198.5 584.1078,-290.5 "/>
<text text-anchor="middle" x="706.1078" y="-271.8" font-family="Times,serif" font-size="14.00" fill="#000000">enhance_and_skullstrip_dwi_wf</text>
<polyline fill="none" stroke="#000000" points="584.1078,-260.5 828.1078,-260.5 "/>
<text text-anchor="middle" x="706.1078" y="-241.3" font-family="Times,serif" font-size="14.00" fill="#000000"> </text>
<polyline fill="none" stroke="#000000" points="584.1078,-229.5 828.1078,-229.5 "/>
<text text-anchor="middle" x="706.1078" y="-210.3" font-family="Times,serif" font-size="14.00" fill="#000000"> </text>
<polyline fill="none" stroke="#000000" points="828.1078,-198.5 828.1078,-290.5 "/>
<text text-anchor="middle" x="947.6078" y="-275.3" font-family="Times,serif" font-size="14.00" fill="#000000">OUT</text>
<polyline fill="none" stroke="#000000" points="828.1078,-267.5 1067.1078,-267.5 "/>
<text text-anchor="middle" x="947.6078" y="-252.3" font-family="Times,serif" font-size="14.00" fill="#000000">outputnode.bias_corrected_file</text>
<polyline fill="none" stroke="#000000" points="828.1078,-244.5 1067.1078,-244.5 "/>
<text text-anchor="middle" x="947.6078" y="-229.3" font-family="Times,serif" font-size="14.00" fill="#000000">outputnode.mask_file</text>
<polyline fill="none" stroke="#000000" points="828.1078,-221.5 1067.1078,-221.5 "/>
<text text-anchor="middle" x="947.6078" y="-206.3" font-family="Times,serif" font-size="14.00" fill="#000000">outputnode.skull_stripped_file</text>
</g>
<!-- dwi_reference_wfpre_mask&#45;&gt;dwi_reference_wfenhance_and_skullstrip_dwi_wf -->
<g id="edge7" class="edge">
<title>dwi_reference_wfpre_mask:e&#45;&gt;dwi_reference_wfenhance_and_skullstrip_dwi_wf:w</title>
<path fill="none" stroke="#000000" d="M427.1078,-451C450.5664,-451 406.7456,-263.4373 415.224,-221.6753"/>
<polygon fill="#000000" stroke="#000000" points="418.1071,-223.661 421.1078,-213.5 412.4255,-219.572 418.1071,-223.661"/>
</g>
<!-- dwi_reference_wfrescale_b0&#45;&gt;dwi_reference_wfenhance_and_skullstrip_dwi_wf -->
<g id="edge11" class="edge">
<title>dwi_reference_wfrescale_b0:e&#45;&gt;dwi_reference_wfenhance_and_skullstrip_dwi_wf:w</title>
<path fill="none" stroke="#000000" d="M407.1078,-345C425.7734,-345 407.4123,-275.4702 413.9285,-252.6558"/>
<polygon fill="#000000" stroke="#000000" points="416.4959,-255.0384 421.1078,-245.5 411.5543,-250.0805 416.4959,-255.0384"/>
</g>
<!-- dwi_reference_wfrescale_b0&#45;&gt;dwi_reference_wfoutputnode -->
<g id="edge12" class="edge">
<title>dwi_reference_wfrescale_b0:e&#45;&gt;dwi_reference_wfoutputnode:w</title>
<path fill="none" stroke="#000000" d="M407.1078,-345C415.2792,-345 406.7566,-204.1754 412.1078,-198 506.7624,-88.767 900.9746,-81.2899 1056.7539,-81.0091"/>
<polygon fill="#000000" stroke="#000000" points="1057.1109,-84.5089 1067.1078,-81 1057.1047,-77.5089 1057.1109,-84.5089"/>
</g>
<!-- dwi_reference_wfenhance_and_skullstrip_dwi_wf&#45;&gt;dwi_reference_wfoutputnode -->
<g id="edge1" class="edge">
<title>dwi_reference_wfenhance_and_skullstrip_dwi_wf:e&#45;&gt;dwi_reference_wfoutputnode:w</title>
<path fill="none" stroke="#000000" d="M1067.1078,-256.5C1067.1078,-256.5 1067.1078,-108.567 1067.1078,-68.1165"/>
<polygon fill="#000000" stroke="#000000" points="1070.6079,-68 1067.1078,-58 1063.6079,-68 1070.6079,-68"/>
</g>
<!-- dwi_reference_wfenhance_and_skullstrip_dwi_wf&#45;&gt;dwi_reference_wfoutputnode -->
<g id="edge2" class="edge">
<title>dwi_reference_wfenhance_and_skullstrip_dwi_wf:e&#45;&gt;dwi_reference_wfoutputnode:w</title>
<path fill="none" stroke="#000000" d="M1067.1078,-232.5C1091.6477,-232.5 1052.9207,-137.5995 1059.6667,-110.9087"/>
<polygon fill="#000000" stroke="#000000" points="1062.1609,-113.369 1067.1078,-104 1057.398,-108.2392 1062.1609,-113.369"/>
</g>
<!-- dwi_reference_wfenhance_and_skullstrip_dwi_wf&#45;&gt;dwi_reference_wfoutputnode -->
<g id="edge3" class="edge">
<title>dwi_reference_wfenhance_and_skullstrip_dwi_wf:e&#45;&gt;dwi_reference_wfoutputnode:w</title>
<path fill="none" stroke="#000000" d="M1067.1078,-209.5C1067.1078,-209.5 1067.1078,-82.3787 1067.1078,-45.1361"/>
<polygon fill="#000000" stroke="#000000" points="1070.6079,-45 1067.1078,-35 1063.6079,-45 1070.6079,-45"/>
</g>
</g>
</svg>
