<?xml version="1.0" encoding="UTF-8" standalone="no"?>
<!DOCTYPE svg PUBLIC "-//W3C//DTD SVG 1.1//EN"
 "http://www.w3.org/Graphics/SVG/1.1/DTD/svg11.dtd">
<!-- Generated by graphviz version 2.40.1 (20161225.0304)
 -->
<!-- Title: structs Pages: 1 -->
<svg width="1530pt" height="755pt"
 viewBox="0.00 0.00 1529.66 755.00" xmlns="http://www.w3.org/2000/svg" xmlns:xlink="http://www.w3.org/1999/xlink">
<g id="graph0" class="graph" transform="scale(1 1) rotate(0) translate(4 751)">
<title>structs</title>
<polygon fill="#ffffff" stroke="transparent" points="-4,4 -4,-751 1525.6608,-751 1525.6608,4 -4,4"/>
<!-- dwi_preproc_wfinputnode -->
<g id="node1" class="node">
<title>dwi_preproc_wfinputnode</title>
<polygon fill="none" stroke="#000000" points="96.538,-539.5 96.538,-746.5 364.538,-746.5 364.538,-539.5 96.538,-539.5"/>
<text text-anchor="middle" x="114.038" y="-639.3" font-family="Times,serif" font-size="14.00" fill="#000000">IN</text>
<polyline fill="none" stroke="#000000" points="131.538,-539.5 131.538,-746.5 "/>
<text text-anchor="middle" x="176.038" y="-708.3" font-family="Times,serif" font-size="14.00" fill="#000000">inputnode</text>
<polyline fill="none" stroke="#000000" points="131.538,-677.5 220.538,-677.5 "/>
<text text-anchor="middle" x="176.038" y="-639.3" font-family="Times,serif" font-size="14.00" fill="#000000">utility</text>
<polyline fill="none" stroke="#000000" points="131.538,-608.5 220.538,-608.5 "/>
<text text-anchor="middle" x="176.038" y="-570.3" font-family="Times,serif" font-size="14.00" fill="#000000"> </text>
<polyline fill="none" stroke="#000000" points="220.538,-539.5 220.538,-746.5 "/>
<text text-anchor="middle" x="292.538" y="-731.3" font-family="Times,serif" font-size="14.00" fill="#000000">OUT</text>
<polyline fill="none" stroke="#000000" points="220.538,-723.5 364.538,-723.5 "/>
<text text-anchor="middle" x="292.538" y="-708.3" font-family="Times,serif" font-size="14.00" fill="#000000">dwi_file</text>
<polyline fill="none" stroke="#000000" points="220.538,-700.5 364.538,-700.5 "/>
<text text-anchor="middle" x="292.538" y="-685.3" font-family="Times,serif" font-size="14.00" fill="#000000">fsnative2t1w_xfm</text>
<polyline fill="none" stroke="#000000" points="220.538,-677.5 364.538,-677.5 "/>
<text text-anchor="middle" x="292.538" y="-662.3" font-family="Times,serif" font-size="14.00" fill="#000000">in_bval</text>
<polyline fill="none" stroke="#000000" points="220.538,-654.5 364.538,-654.5 "/>
<text text-anchor="middle" x="292.538" y="-639.3" font-family="Times,serif" font-size="14.00" fill="#000000">in_bvec</text>
<polyline fill="none" stroke="#000000" points="220.538,-631.5 364.538,-631.5 "/>
<text text-anchor="middle" x="292.538" y="-616.3" font-family="Times,serif" font-size="14.00" fill="#000000">subject_id</text>
<polyline fill="none" stroke="#000000" points="220.538,-608.5 364.538,-608.5 "/>
<text text-anchor="middle" x="292.538" y="-593.3" font-family="Times,serif" font-size="14.00" fill="#000000">subjects_dir</text>
<polyline fill="none" stroke="#000000" points="220.538,-585.5 364.538,-585.5 "/>
<text text-anchor="middle" x="292.538" y="-570.3" font-family="Times,serif" font-size="14.00" fill="#000000">t1w_mask</text>
<polyline fill="none" stroke="#000000" points="220.538,-562.5 364.538,-562.5 "/>
<text text-anchor="middle" x="292.538" y="-547.3" font-family="Times,serif" font-size="14.00" fill="#000000">t1w_preproc</text>
</g>
<!-- dwi_preproc_wft1w_brain -->
<g id="node2" class="node">
<title>dwi_preproc_wft1w_brain</title>
<polygon fill="none" stroke="#000000" points="17.038,-422 17.038,-491 232.038,-491 232.038,-422 17.038,-422"/>
<text text-anchor="middle" x="55.038" y="-475.8" font-family="Times,serif" font-size="14.00" fill="#000000">IN</text>
<polyline fill="none" stroke="#000000" points="17.038,-468 93.038,-468 "/>
<text text-anchor="middle" x="55.038" y="-452.8" font-family="Times,serif" font-size="14.00" fill="#000000">in_file</text>
<polyline fill="none" stroke="#000000" points="17.038,-445 93.038,-445 "/>
<text text-anchor="middle" x="55.038" y="-429.8" font-family="Times,serif" font-size="14.00" fill="#000000">in_mask</text>
<polyline fill="none" stroke="#000000" points="93.038,-422 93.038,-491 "/>
<text text-anchor="middle" x="137.538" y="-475.8" font-family="Times,serif" font-size="14.00" fill="#000000">t1w_brain</text>
<polyline fill="none" stroke="#000000" points="93.038,-468 182.038,-468 "/>
<text text-anchor="middle" x="137.538" y="-452.8" font-family="Times,serif" font-size="14.00" fill="#000000">nibabel</text>
<polyline fill="none" stroke="#000000" points="93.038,-445 182.038,-445 "/>
<text text-anchor="middle" x="137.538" y="-429.8" font-family="Times,serif" font-size="14.00" fill="#000000"> </text>
<polyline fill="none" stroke="#000000" points="182.038,-422 182.038,-491 "/>
<text text-anchor="middle" x="207.038" y="-452.8" font-family="Times,serif" font-size="14.00" fill="#000000">OUT</text>
</g>
<!-- dwi_preproc_wfinputnode&#45;&gt;dwi_preproc_wft1w_brain -->
<g id="edge20" class="edge">
<title>dwi_preproc_wfinputnode:e&#45;&gt;dwi_preproc_wft1w_brain:w</title>
<path fill="none" stroke="#000000" d="M364.538,-574C380.0936,-574 374.7667,-550.7196 364.538,-539 313.2155,-480.1964 67.8605,-550.3036 16.538,-491.5 2.3686,-475.2652 -6.1246,-445.643 6.5279,-436.3603"/>
<polygon fill="#000000" stroke="#000000" points="7.8844,-439.6128 16.538,-433.5 5.9612,-432.8822 7.8844,-439.6128"/>
</g>
<!-- dwi_preproc_wfinputnode&#45;&gt;dwi_preproc_wft1w_brain -->
<g id="edge21" class="edge">
<title>dwi_preproc_wfinputnode:e&#45;&gt;dwi_preproc_wft1w_brain:w</title>
<path fill="none" stroke="#000000" d="M364.538,-551C369.8713,-551 368.045,-543.0182 364.538,-539 313.2155,-480.1964 67.8605,-550.3036 16.538,-491.5 9.346,-483.2596 4.5773,-469.3038 7.7871,-461.7438"/>
<polygon fill="#000000" stroke="#000000" points="9.7592,-464.6424 16.538,-456.5 6.1611,-458.6379 9.7592,-464.6424"/>
</g>
<!-- dwi_preproc_wfgradient_table -->
<g id="node3" class="node">
<title>dwi_preproc_wfgradient_table</title>
<polygon fill="none" stroke="#000000" points="364.538,-410.5 364.538,-502.5 636.538,-502.5 636.538,-410.5 364.538,-410.5"/>
<text text-anchor="middle" x="400.538" y="-487.3" font-family="Times,serif" font-size="14.00" fill="#000000">IN</text>
<polyline fill="none" stroke="#000000" points="364.538,-479.5 436.538,-479.5 "/>
<text text-anchor="middle" x="400.538" y="-464.3" font-family="Times,serif" font-size="14.00" fill="#000000">dwi_file</text>
<polyline fill="none" stroke="#000000" points="364.538,-456.5 436.538,-456.5 "/>
<text text-anchor="middle" x="400.538" y="-441.3" font-family="Times,serif" font-size="14.00" fill="#000000">in_bval</text>
<polyline fill="none" stroke="#000000" points="364.538,-433.5 436.538,-433.5 "/>
<text text-anchor="middle" x="400.538" y="-418.3" font-family="Times,serif" font-size="14.00" fill="#000000">in_bvec</text>
<polyline fill="none" stroke="#000000" points="436.538,-410.5 436.538,-502.5 "/>
<text text-anchor="middle" x="497.038" y="-483.8" font-family="Times,serif" font-size="14.00" fill="#000000">gradient_table</text>
<polyline fill="none" stroke="#000000" points="436.538,-472.5 557.538,-472.5 "/>
<text text-anchor="middle" x="497.038" y="-453.3" font-family="Times,serif" font-size="14.00" fill="#000000">vectors</text>
<polyline fill="none" stroke="#000000" points="436.538,-441.5 557.538,-441.5 "/>
<text text-anchor="middle" x="497.038" y="-422.3" font-family="Times,serif" font-size="14.00" fill="#000000"> </text>
<polyline fill="none" stroke="#000000" points="557.538,-410.5 557.538,-502.5 "/>
<text text-anchor="middle" x="597.038" y="-483.8" font-family="Times,serif" font-size="14.00" fill="#000000">OUT</text>
<polyline fill="none" stroke="#000000" points="557.538,-472.5 636.538,-472.5 "/>
<text text-anchor="middle" x="597.038" y="-453.3" font-family="Times,serif" font-size="14.00" fill="#000000">b0_ixs</text>
<polyline fill="none" stroke="#000000" points="557.538,-441.5 636.538,-441.5 "/>
<text text-anchor="middle" x="597.038" y="-422.3" font-family="Times,serif" font-size="14.00" fill="#000000">out_rasb</text>
</g>
<!-- dwi_preproc_wfinputnode&#45;&gt;dwi_preproc_wfgradient_table -->
<g id="edge13" class="edge">
<title>dwi_preproc_wfinputnode:e&#45;&gt;dwi_preproc_wfgradient_table:w</title>
<path fill="none" stroke="#000000" d="M364.538,-712C364.538,-712 364.538,-524.7371 364.538,-478.6529"/>
<polygon fill="#000000" stroke="#000000" points="368.0381,-478.5 364.538,-468.5 361.0381,-478.5 368.0381,-478.5"/>
</g>
<!-- dwi_preproc_wfinputnode&#45;&gt;dwi_preproc_wfgradient_table -->
<g id="edge16" class="edge">
<title>dwi_preproc_wfinputnode:e&#45;&gt;dwi_preproc_wfgradient_table:w</title>
<path fill="none" stroke="#000000" d="M364.538,-666C364.538,-666 364.538,-497.9248 364.538,-454.593"/>
<polygon fill="#000000" stroke="#000000" points="368.0381,-454.5 364.538,-444.5 361.0381,-454.5 368.0381,-454.5"/>
</g>
<!-- dwi_preproc_wfinputnode&#45;&gt;dwi_preproc_wfgradient_table -->
<g id="edge17" class="edge">
<title>dwi_preproc_wfinputnode:e&#45;&gt;dwi_preproc_wfgradient_table:w</title>
<path fill="none" stroke="#000000" d="M364.538,-643C386.265,-643 350.4494,-470.3722 358.6899,-429.9126"/>
<polygon fill="#000000" stroke="#000000" points="361.7038,-431.7087 364.538,-421.5 355.9562,-427.7131 361.7038,-431.7087"/>
</g>
<!-- dwi_preproc_wfdwi_reference_wf -->
<g id="node4" class="node">
<title>dwi_preproc_wfdwi_reference_wf</title>
<polygon fill="none" stroke="#000000" points="591.538,-281.5 591.538,-373.5 1109.538,-373.5 1109.538,-281.5 591.538,-281.5"/>
<text text-anchor="middle" x="666.038" y="-354.8" font-family="Times,serif" font-size="14.00" fill="#000000">IN</text>
<polyline fill="none" stroke="#000000" points="591.538,-343.5 740.538,-343.5 "/>
<text text-anchor="middle" x="666.038" y="-324.3" font-family="Times,serif" font-size="14.00" fill="#000000">inputnode.b0_ixs</text>
<polyline fill="none" stroke="#000000" points="591.538,-312.5 740.538,-312.5 "/>
<text text-anchor="middle" x="666.038" y="-293.3" font-family="Times,serif" font-size="14.00" fill="#000000">inputnode.dwi_file</text>
<polyline fill="none" stroke="#000000" points="740.538,-281.5 740.538,-373.5 "/>
<text text-anchor="middle" x="812.038" y="-354.8" font-family="Times,serif" font-size="14.00" fill="#000000">dwi_reference_wf</text>
<polyline fill="none" stroke="#000000" points="740.538,-343.5 883.538,-343.5 "/>
<text text-anchor="middle" x="812.038" y="-324.3" font-family="Times,serif" font-size="14.00" fill="#000000"> </text>
<polyline fill="none" stroke="#000000" points="740.538,-312.5 883.538,-312.5 "/>
<text text-anchor="middle" x="812.038" y="-293.3" font-family="Times,serif" font-size="14.00" fill="#000000"> </text>
<polyline fill="none" stroke="#000000" points="883.538,-281.5 883.538,-373.5 "/>
<text text-anchor="middle" x="996.538" y="-358.3" font-family="Times,serif" font-size="14.00" fill="#000000">OUT</text>
<polyline fill="none" stroke="#000000" points="883.538,-350.5 1109.538,-350.5 "/>
<text text-anchor="middle" x="996.538" y="-335.3" font-family="Times,serif" font-size="14.00" fill="#000000">outputnode.dwi_mask</text>
<polyline fill="none" stroke="#000000" points="883.538,-327.5 1109.538,-327.5 "/>
<text text-anchor="middle" x="996.538" y="-312.3" font-family="Times,serif" font-size="14.00" fill="#000000">outputnode.ref_image</text>
<polyline fill="none" stroke="#000000" points="883.538,-304.5 1109.538,-304.5 "/>
<text text-anchor="middle" x="996.538" y="-289.3" font-family="Times,serif" font-size="14.00" fill="#000000">outputnode.validation_report</text>
</g>
<!-- dwi_preproc_wfinputnode&#45;&gt;dwi_preproc_wfdwi_reference_wf -->
<g id="edge12" class="edge">
<title>dwi_preproc_wfinputnode:e&#45;&gt;dwi_preproc_wfdwi_reference_wf:w</title>
<path fill="none" stroke="#000000" d="M364.538,-712C520.1837,-712 575.653,-642.0743 645.538,-503 664.0967,-466.0674 665.0415,-446.4426 645.538,-410 631.9275,-384.5686 605.1485,-399.4314 591.538,-374 589.9746,-371.0788 588.2677,-326.7597 589.526,-306.4865"/>
<polygon fill="#000000" stroke="#000000" points="592.994,-306.9943 591.538,-296.5 586.1319,-305.6118 592.994,-306.9943"/>
</g>
<!-- dwi_preproc_wfreportlets_wf -->
<g id="node5" class="node">
<title>dwi_preproc_wfreportlets_wf</title>
<polygon fill="none" stroke="#000000" points="1110.038,-129.5 1110.038,-244.5 1489.038,-244.5 1489.038,-129.5 1110.038,-129.5"/>
<text text-anchor="middle" x="1218.038" y="-229.3" font-family="Times,serif" font-size="14.00" fill="#000000">IN</text>
<polyline fill="none" stroke="#000000" points="1110.038,-221.5 1326.038,-221.5 "/>
<text text-anchor="middle" x="1218.038" y="-206.3" font-family="Times,serif" font-size="14.00" fill="#000000">inputnode.dwi_mask</text>
<polyline fill="none" stroke="#000000" points="1110.038,-198.5 1326.038,-198.5 "/>
<text text-anchor="middle" x="1218.038" y="-183.3" font-family="Times,serif" font-size="14.00" fill="#000000">inputnode.dwi_ref</text>
<polyline fill="none" stroke="#000000" points="1110.038,-175.5 1326.038,-175.5 "/>
<text text-anchor="middle" x="1218.038" y="-160.3" font-family="Times,serif" font-size="14.00" fill="#000000">inputnode.source_file</text>
<polyline fill="none" stroke="#000000" points="1110.038,-152.5 1326.038,-152.5 "/>
<text text-anchor="middle" x="1218.038" y="-137.3" font-family="Times,serif" font-size="14.00" fill="#000000">inputnode.validation_report</text>
<polyline fill="none" stroke="#000000" points="1326.038,-129.5 1326.038,-244.5 "/>
<text text-anchor="middle" x="1382.538" y="-221.8" font-family="Times,serif" font-size="14.00" fill="#000000">reportlets_wf</text>
<polyline fill="none" stroke="#000000" points="1326.038,-206.5 1439.038,-206.5 "/>
<text text-anchor="middle" x="1382.538" y="-183.8" font-family="Times,serif" font-size="14.00" fill="#000000"> </text>
<polyline fill="none" stroke="#000000" points="1326.038,-168.5 1439.038,-168.5 "/>
<text text-anchor="middle" x="1382.538" y="-145.3" font-family="Times,serif" font-size="14.00" fill="#000000"> </text>
<polyline fill="none" stroke="#000000" points="1439.038,-129.5 1439.038,-244.5 "/>
<text text-anchor="middle" x="1464.038" y="-183.3" font-family="Times,serif" font-size="14.00" fill="#000000">OUT</text>
</g>
<!-- dwi_preproc_wfinputnode&#45;&gt;dwi_preproc_wfreportlets_wf -->
<g id="edge14" class="edge">
<title>dwi_preproc_wfinputnode:e&#45;&gt;dwi_preproc_wfreportlets_wf:w</title>
<path fill="none" stroke="#000000" d="M364.538,-712C731.7793,-712 918.9154,-682.2483 1118.538,-374 1141.0057,-339.3064 1123.5882,-322.0236 1118.538,-281 1116.5229,-264.6311 1111.5531,-261.3689 1109.538,-245 1107.794,-230.8335 1097.4975,-188.2014 1102.284,-171.1563"/>
<polygon fill="#000000" stroke="#000000" points="1104.8772,-173.5146 1109.538,-164 1099.9611,-168.5314 1104.8772,-173.5146"/>
</g>
<!-- dwi_preproc_wfbbreg_wf -->
<g id="node6" class="node">
<title>dwi_preproc_wfbbreg_wf</title>
<polygon fill="none" stroke="#000000" points="318.038,-129.5 318.038,-244.5 801.038,-244.5 801.038,-129.5 318.038,-129.5"/>
<text text-anchor="middle" x="428.538" y="-229.3" font-family="Times,serif" font-size="14.00" fill="#000000">IN</text>
<polyline fill="none" stroke="#000000" points="318.038,-221.5 539.038,-221.5 "/>
<text text-anchor="middle" x="428.538" y="-206.3" font-family="Times,serif" font-size="14.00" fill="#000000">inputnode.fsnative2t1w_xfm</text>
<polyline fill="none" stroke="#000000" points="318.038,-198.5 539.038,-198.5 "/>
<text text-anchor="middle" x="428.538" y="-183.3" font-family="Times,serif" font-size="14.00" fill="#000000">inputnode.in_file</text>
<polyline fill="none" stroke="#000000" points="318.038,-175.5 539.038,-175.5 "/>
<text text-anchor="middle" x="428.538" y="-160.3" font-family="Times,serif" font-size="14.00" fill="#000000">inputnode.subject_id</text>
<polyline fill="none" stroke="#000000" points="318.038,-152.5 539.038,-152.5 "/>
<text text-anchor="middle" x="428.538" y="-137.3" font-family="Times,serif" font-size="14.00" fill="#000000">inputnode.subjects_dir</text>
<polyline fill="none" stroke="#000000" points="539.038,-129.5 539.038,-244.5 "/>
<text text-anchor="middle" x="580.538" y="-221.8" font-family="Times,serif" font-size="14.00" fill="#000000">bbreg_wf</text>
<polyline fill="none" stroke="#000000" points="539.038,-206.5 622.038,-206.5 "/>
<text text-anchor="middle" x="580.538" y="-183.8" font-family="Times,serif" font-size="14.00" fill="#000000"> </text>
<polyline fill="none" stroke="#000000" points="539.038,-168.5 622.038,-168.5 "/>
<text text-anchor="middle" x="580.538" y="-145.3" font-family="Times,serif" font-size="14.00" fill="#000000"> </text>
<polyline fill="none" stroke="#000000" points="622.038,-129.5 622.038,-244.5 "/>
<text text-anchor="middle" x="711.538" y="-221.8" font-family="Times,serif" font-size="14.00" fill="#000000">OUT</text>
<polyline fill="none" stroke="#000000" points="622.038,-206.5 801.038,-206.5 "/>
<text text-anchor="middle" x="711.538" y="-183.8" font-family="Times,serif" font-size="14.00" fill="#000000">outputnode.fallback</text>
<polyline fill="none" stroke="#000000" points="622.038,-168.5 801.038,-168.5 "/>
<text text-anchor="middle" x="711.538" y="-145.3" font-family="Times,serif" font-size="14.00" fill="#000000">outputnode.out_report</text>
</g>
<!-- dwi_preproc_wfinputnode&#45;&gt;dwi_preproc_wfbbreg_wf -->
<g id="edge15" class="edge">
<title>dwi_preproc_wfinputnode:e&#45;&gt;dwi_preproc_wfbbreg_wf:w</title>
<path fill="none" stroke="#000000" d="M364.538,-689C431.2047,-689 400.7361,-594.9834 364.538,-539 343.3677,-506.2583 305.7083,-535.7417 284.538,-503 215.2602,-395.8559 187.9413,-219.5973 307.4994,-210.3769"/>
<polygon fill="#000000" stroke="#000000" points="307.6764,-213.8728 317.538,-210 307.4137,-206.8777 307.6764,-213.8728"/>
</g>
<!-- dwi_preproc_wfinputnode&#45;&gt;dwi_preproc_wfbbreg_wf -->
<g id="edge18" class="edge">
<title>dwi_preproc_wfinputnode:e&#45;&gt;dwi_preproc_wfbbreg_wf:w</title>
<path fill="none" stroke="#000000" d="M364.538,-620C400.538,-620 379.5809,-571.7065 364.538,-539 354.2648,-516.6638 333.0271,-525.2356 322.538,-503 291.9639,-438.1867 246.865,-189.9678 307.369,-165.8822"/>
<polygon fill="#000000" stroke="#000000" points="308.3421,-169.2616 317.538,-164 307.068,-162.3785 308.3421,-169.2616"/>
</g>
<!-- dwi_preproc_wfinputnode&#45;&gt;dwi_preproc_wfbbreg_wf -->
<g id="edge19" class="edge">
<title>dwi_preproc_wfinputnode:e&#45;&gt;dwi_preproc_wfbbreg_wf:w</title>
<path fill="none" stroke="#000000" d="M364.538,-597C406.5068,-597 363.6952,-544.1685 355.538,-503 340.5537,-427.3753 246.1312,-167.0523 307.3486,-142.8132"/>
<polygon fill="#000000" stroke="#000000" points="308.3059,-146.1979 317.538,-141 307.0795,-139.3061 308.3059,-146.1979"/>
</g>
<!-- dwi_preproc_wfds_report_reg -->
<g id="node7" class="node">
<title>dwi_preproc_wfds_report_reg</title>
<polygon fill="none" stroke="#000000" points="801.538,-.5 801.538,-92.5 1063.538,-92.5 1063.538,-.5 801.538,-.5"/>
<text text-anchor="middle" x="849.038" y="-77.3" font-family="Times,serif" font-size="14.00" fill="#000000">IN</text>
<polyline fill="none" stroke="#000000" points="801.538,-69.5 896.538,-69.5 "/>
<text text-anchor="middle" x="849.038" y="-54.3" font-family="Times,serif" font-size="14.00" fill="#000000">desc</text>
<polyline fill="none" stroke="#000000" points="801.538,-46.5 896.538,-46.5 "/>
<text text-anchor="middle" x="849.038" y="-31.3" font-family="Times,serif" font-size="14.00" fill="#000000">in_file</text>
<polyline fill="none" stroke="#000000" points="801.538,-23.5 896.538,-23.5 "/>
<text text-anchor="middle" x="849.038" y="-8.3" font-family="Times,serif" font-size="14.00" fill="#000000">source_file</text>
<polyline fill="none" stroke="#000000" points="896.538,-.5 896.538,-92.5 "/>
<text text-anchor="middle" x="955.038" y="-73.8" font-family="Times,serif" font-size="14.00" fill="#000000">ds_report_reg</text>
<polyline fill="none" stroke="#000000" points="896.538,-62.5 1013.538,-62.5 "/>
<text text-anchor="middle" x="955.038" y="-43.3" font-family="Times,serif" font-size="14.00" fill="#000000"> </text>
<polyline fill="none" stroke="#000000" points="896.538,-31.5 1013.538,-31.5 "/>
<text text-anchor="middle" x="955.038" y="-12.3" font-family="Times,serif" font-size="14.00" fill="#000000"> </text>
<polyline fill="none" stroke="#000000" points="1013.538,-.5 1013.538,-92.5 "/>
<text text-anchor="middle" x="1038.538" y="-42.8" font-family="Times,serif" font-size="14.00" fill="#000000">OUT</text>
</g>
<!-- dwi_preproc_wfinputnode&#45;&gt;dwi_preproc_wfds_report_reg -->
<g id="edge11" class="edge">
<title>dwi_preproc_wfinputnode:e&#45;&gt;dwi_preproc_wfds_report_reg:w</title>
<path fill="none" stroke="#000000" d="M364.538,-712C637.0703,-712 1364.752,-482.4345 1498.538,-245 1523.8466,-200.084 1534.0406,-166.3837 1498.538,-129 1445.1365,-72.7691 854.9396,-149.2309 801.538,-93 779.2251,-69.5049 767.8469,-22.8288 791.6225,-13.2444"/>
<polygon fill="#000000" stroke="#000000" points="792.2957,-16.6798 801.538,-11.5 791.0828,-9.7857 792.2957,-16.6798"/>
</g>
<!-- dwi_preproc_wfgradient_table&#45;&gt;dwi_preproc_wfdwi_reference_wf -->
<g id="edge9" class="edge">
<title>dwi_preproc_wfgradient_table:e&#45;&gt;dwi_preproc_wfdwi_reference_wf:w</title>
<path fill="none" stroke="#000000" d="M636.538,-457.5C657.6491,-457.5 645.6831,-429.0275 636.538,-410 625.443,-386.9154 602.6331,-397.0846 591.538,-374 584.8311,-360.0454 576.5403,-340.7875 582.098,-332.5269"/>
<polygon fill="#000000" stroke="#000000" points="583.7133,-335.6431 591.538,-328.5 580.9666,-329.2045 583.7133,-335.6431"/>
</g>
<!-- dwi_preproc_wfoutputnode -->
<g id="node8" class="node">
<title>dwi_preproc_wfoutputnode</title>
<polygon fill="none" stroke="#000000" points="819.538,-141 819.538,-233 1091.538,-233 1091.538,-141 819.538,-141"/>
<text text-anchor="middle" x="881.538" y="-217.8" font-family="Times,serif" font-size="14.00" fill="#000000">IN</text>
<polyline fill="none" stroke="#000000" points="819.538,-210 943.538,-210 "/>
<text text-anchor="middle" x="881.538" y="-194.8" font-family="Times,serif" font-size="14.00" fill="#000000">dwi_mask</text>
<polyline fill="none" stroke="#000000" points="819.538,-187 943.538,-187 "/>
<text text-anchor="middle" x="881.538" y="-171.8" font-family="Times,serif" font-size="14.00" fill="#000000">dwi_reference</text>
<polyline fill="none" stroke="#000000" points="819.538,-164 943.538,-164 "/>
<text text-anchor="middle" x="881.538" y="-148.8" font-family="Times,serif" font-size="14.00" fill="#000000">gradients_rasb</text>
<polyline fill="none" stroke="#000000" points="943.538,-141 943.538,-233 "/>
<text text-anchor="middle" x="992.538" y="-214.3" font-family="Times,serif" font-size="14.00" fill="#000000">outputnode</text>
<polyline fill="none" stroke="#000000" points="943.538,-203 1041.538,-203 "/>
<text text-anchor="middle" x="992.538" y="-183.8" font-family="Times,serif" font-size="14.00" fill="#000000">utility</text>
<polyline fill="none" stroke="#000000" points="943.538,-172 1041.538,-172 "/>
<text text-anchor="middle" x="992.538" y="-152.8" font-family="Times,serif" font-size="14.00" fill="#000000"> </text>
<polyline fill="none" stroke="#000000" points="1041.538,-141 1041.538,-233 "/>
<text text-anchor="middle" x="1066.538" y="-183.3" font-family="Times,serif" font-size="14.00" fill="#000000">OUT</text>
</g>
<!-- dwi_preproc_wfgradient_table&#45;&gt;dwi_preproc_wfoutputnode -->
<g id="edge10" class="edge">
<title>dwi_preproc_wfgradient_table:e&#45;&gt;dwi_preproc_wfoutputnode:w</title>
<path fill="none" stroke="#000000" d="M636.538,-425.5C643.4269,-425.5 639.7886,-416.0738 636.538,-410 622.9275,-384.5686 596.1485,-399.4314 582.538,-374 563.0345,-337.5574 555.6866,-312.4237 582.538,-281 649.1827,-203.0068 740.2102,-319.6889 810.538,-245 822.1586,-232.6588 806.9645,-178.4822 812.2921,-159.0052"/>
<polygon fill="#000000" stroke="#000000" points="814.7812,-161.467 819.538,-152 809.9158,-156.4343 814.7812,-161.467"/>
</g>
<!-- dwi_preproc_wfdwi_reference_wf&#45;&gt;dwi_preproc_wfreportlets_wf -->
<g id="edge4" class="edge">
<title>dwi_preproc_wfdwi_reference_wf:e&#45;&gt;dwi_preproc_wfreportlets_wf:w</title>
<path fill="none" stroke="#000000" d="M1109.538,-339.5C1134.2689,-339.5 1095.2405,-243.861 1102.039,-216.9625"/>
<polygon fill="#000000" stroke="#000000" points="1104.5911,-219.369 1109.538,-210 1099.8282,-214.2392 1104.5911,-219.369"/>
</g>
<!-- dwi_preproc_wfdwi_reference_wf&#45;&gt;dwi_preproc_wfreportlets_wf -->
<g id="edge7" class="edge">
<title>dwi_preproc_wfdwi_reference_wf:e&#45;&gt;dwi_preproc_wfreportlets_wf:w</title>
<path fill="none" stroke="#000000" d="M1109.538,-315.5C1134.0779,-315.5 1095.3509,-220.5995 1102.0969,-193.9087"/>
<polygon fill="#000000" stroke="#000000" points="1104.5911,-196.369 1109.538,-187 1099.8282,-191.2392 1104.5911,-196.369"/>
</g>
<!-- dwi_preproc_wfdwi_reference_wf&#45;&gt;dwi_preproc_wfreportlets_wf -->
<g id="edge8" class="edge">
<title>dwi_preproc_wfdwi_reference_wf:e&#45;&gt;dwi_preproc_wfreportlets_wf:w</title>
<path fill="none" stroke="#000000" d="M1109.538,-292.5C1109.538,-292.5 1109.538,-185.6414 1109.538,-151.4132"/>
<polygon fill="#000000" stroke="#000000" points="1113.0381,-151 1109.538,-141 1106.0381,-151 1113.0381,-151"/>
</g>
<!-- dwi_preproc_wfdwi_reference_wf&#45;&gt;dwi_preproc_wfbbreg_wf -->
<g id="edge5" class="edge">
<title>dwi_preproc_wfdwi_reference_wf:e&#45;&gt;dwi_preproc_wfbbreg_wf:w</title>
<path fill="none" stroke="#000000" d="M1109.538,-315.5C1124.8713,-315.5 1120.1313,-292.0857 1109.538,-281 1048.679,-217.3118 378.397,-308.6882 317.538,-245 302.5117,-229.2751 294.4907,-198.795 307.8352,-189.6538"/>
<polygon fill="#000000" stroke="#000000" points="308.8157,-193.0143 317.538,-187 306.9689,-186.2623 308.8157,-193.0143"/>
</g>
<!-- dwi_preproc_wfdwi_reference_wf&#45;&gt;dwi_preproc_wfoutputnode -->
<g id="edge3" class="edge">
<title>dwi_preproc_wfdwi_reference_wf:e&#45;&gt;dwi_preproc_wfoutputnode:w</title>
<path fill="none" stroke="#000000" d="M1109.538,-339.5C1122.538,-339.5 1117.9547,-290.9075 1109.538,-281 1024.978,-181.4629 904.098,-333.0371 819.538,-233.5 816.3969,-229.8026 814.1611,-216.9691 814.8856,-208.0431"/>
<polygon fill="#000000" stroke="#000000" points="818.0754,-209.4934 819.538,-199 811.8509,-206.291 818.0754,-209.4934"/>
</g>
<!-- dwi_preproc_wfdwi_reference_wf&#45;&gt;dwi_preproc_wfoutputnode -->
<g id="edge6" class="edge">
<title>dwi_preproc_wfdwi_reference_wf:e&#45;&gt;dwi_preproc_wfoutputnode:w</title>
<path fill="none" stroke="#000000" d="M1109.538,-315.5C1124.8713,-315.5 1119.4654,-292.6858 1109.538,-281 1024.978,-181.4629 904.098,-333.0371 819.538,-233.5 813.2255,-226.0694 809.0692,-196.8784 812.87,-182.7474"/>
<polygon fill="#000000" stroke="#000000" points="815.6674,-184.8625 819.538,-175 810.3619,-180.2962 815.6674,-184.8625"/>
</g>
<!-- dwi_preproc_wfbbreg_wf&#45;&gt;dwi_preproc_wfds_report_reg -->
<g id="edge1" class="edge">
<title>dwi_preproc_wfbbreg_wf:e&#45;&gt;dwi_preproc_wfds_report_reg:w</title>
<path fill="none" stroke="#000000" d="M801.538,-188C826.2689,-188 787.2405,-92.361 794.039,-65.4625"/>
<polygon fill="#000000" stroke="#000000" points="796.5911,-67.869 801.538,-58.5 791.8282,-62.7392 796.5911,-67.869"/>
</g>
<!-- dwi_preproc_wfbbreg_wf&#45;&gt;dwi_preproc_wfds_report_reg -->
<g id="edge2" class="edge">
<title>dwi_preproc_wfbbreg_wf:e&#45;&gt;dwi_preproc_wfds_report_reg:w</title>
<path fill="none" stroke="#000000" d="M801.538,-149C801.538,-149 801.538,-72.6836 801.538,-44.6611"/>
<polygon fill="#000000" stroke="#000000" points="805.0381,-44.5 801.538,-34.5 798.0381,-44.5 805.0381,-44.5"/>
</g>
</g>
</svg>
