<?xml version="1.0" encoding="UTF-8" standalone="no"?>
<!DOCTYPE svg PUBLIC "-//W3C//DTD SVG 1.1//EN"
 "http://www.w3.org/Graphics/SVG/1.1/DTD/svg11.dtd">
<!-- Generated by graphviz version 2.40.1 (20161225.0304)
 -->
<!-- Title: %3 Pages: 1 -->
<svg width="792pt" height="404pt"
 viewBox="0.00 0.00 792.44 404.00" xmlns="http://www.w3.org/2000/svg" xmlns:xlink="http://www.w3.org/1999/xlink">
<g id="graph0" class="graph" transform="scale(1 1) rotate(0) translate(4 400)">
<title>%3</title>
<polygon fill="#ffffff" stroke="transparent" points="-4,4 -4,-400 788.4376,-400 788.4376,4 -4,4"/>
<!-- inputnode (utility) -->
<g id="node1" class="node">
<title>inputnode (utility)</title>
<ellipse fill="none" stroke="#000000" cx="454.3944" cy="-378" rx="94.7833" ry="18"/>
<text text-anchor="middle" x="454.3944" y="-374.3" font-family="Times,serif" font-size="14.00" fill="#000000">inputnode (utility)</text>
</g>
<!-- gradient_table (vectors) -->
<g id="node2" class="node">
<title>gradient_table (vectors)</title>
<ellipse fill="none" stroke="#000000" cx="174.3944" cy="-306" rx="122.6784" ry="18"/>
<text text-anchor="middle" x="174.3944" y="-302.3" font-family="Times,serif" font-size="14.00" fill="#000000">gradient_table (vectors)</text>
</g>
<!-- inputnode (utility)&#45;&gt;gradient_table (vectors) -->
<g id="edge1" class="edge">
<title>inputnode (utility)&#45;&gt;gradient_table (vectors)</title>
<path fill="none" stroke="#000000" d="M397.7322,-363.4297C353.7221,-352.1128 292.4367,-336.3537 245.1954,-324.206"/>
<polygon fill="#000000" stroke="#000000" points="245.8956,-320.7722 235.339,-321.6715 244.1523,-327.5517 245.8956,-320.7722"/>
</g>
<!-- dwi_reference_wf -->
<g id="node3" class="node">
<title>dwi_reference_wf</title>
<ellipse fill="none" stroke="#000000" cx="323.3944" cy="-234" rx="92.8835" ry="18"/>
<text text-anchor="middle" x="323.3944" y="-230.3" font-family="Times,serif" font-size="14.00" fill="#000000">dwi_reference_wf</text>
</g>
<!-- inputnode (utility)&#45;&gt;dwi_reference_wf -->
<g id="edge2" class="edge">
<title>inputnode (utility)&#45;&gt;dwi_reference_wf</title>
<path fill="none" stroke="#000000" d="M401.5155,-362.9856C380.9121,-354.6332 358.8278,-342.1495 344.3944,-324 330.4911,-306.5171 325.499,-281.4325 323.8378,-262.1846"/>
<polygon fill="#000000" stroke="#000000" points="327.3296,-261.9433 323.2221,-252.1771 320.3428,-262.3732 327.3296,-261.9433"/>
</g>
<!-- bbreg_wf -->
<g id="node4" class="node">
<title>bbreg_wf</title>
<ellipse fill="none" stroke="#000000" cx="621.3944" cy="-162" rx="53.8905" ry="18"/>
<text text-anchor="middle" x="621.3944" y="-158.3" font-family="Times,serif" font-size="14.00" fill="#000000">bbreg_wf</text>
</g>
<!-- inputnode (utility)&#45;&gt;bbreg_wf -->
<g id="edge3" class="edge">
<title>inputnode (utility)&#45;&gt;bbreg_wf</title>
<path fill="none" stroke="#000000" d="M517.0287,-364.4086C540.5903,-356.3346 565.6919,-343.6732 582.3944,-324 614.7173,-285.9281 621.1811,-225.5307 621.9635,-190.2339"/>
<polygon fill="#000000" stroke="#000000" points="625.464,-190.1665 622.0462,-180.1381 618.4643,-190.1091 625.464,-190.1665"/>
</g>
<!-- t1w_brain (nibabel) -->
<g id="node5" class="node">
<title>t1w_brain (nibabel)</title>
<ellipse fill="none" stroke="#000000" cx="454.3944" cy="-306" rx="101.2821" ry="18"/>
<text text-anchor="middle" x="454.3944" y="-302.3" font-family="Times,serif" font-size="14.00" fill="#000000">t1w_brain (nibabel)</text>
</g>
<!-- inputnode (utility)&#45;&gt;t1w_brain (nibabel) -->
<g id="edge4" class="edge">
<title>inputnode (utility)&#45;&gt;t1w_brain (nibabel)</title>
<path fill="none" stroke="#000000" d="M454.3944,-359.8314C454.3944,-352.131 454.3944,-342.9743 454.3944,-334.4166"/>
<polygon fill="#000000" stroke="#000000" points="457.8945,-334.4132 454.3944,-324.4133 450.8945,-334.4133 457.8945,-334.4132"/>
</g>
<!-- ds_report_reg -->
<g id="node6" class="node">
<title>ds_report_reg</title>
<ellipse fill="none" stroke="#000000" cx="708.3944" cy="-90" rx="76.0865" ry="18"/>
<text text-anchor="middle" x="708.3944" y="-86.3" font-family="Times,serif" font-size="14.00" fill="#000000">ds_report_reg</text>
</g>
<!-- inputnode (utility)&#45;&gt;ds_report_reg -->
<g id="edge5" class="edge">
<title>inputnode (utility)&#45;&gt;ds_report_reg</title>
<path fill="none" stroke="#000000" d="M521.9504,-365.3223C550.4921,-357.2793 582.5645,-344.3941 606.3944,-324 670.2285,-269.3693 695.4569,-167.3157 704.2504,-118.0431"/>
<polygon fill="#000000" stroke="#000000" points="707.7173,-118.5319 705.9294,-108.089 700.8148,-117.3675 707.7173,-118.5319"/>
</g>
<!-- eddy_wf -->
<g id="node7" class="node">
<title>eddy_wf</title>
<ellipse fill="none" stroke="#000000" cx="482.3944" cy="-162" rx="49.2915" ry="18"/>
<text text-anchor="middle" x="482.3944" y="-158.3" font-family="Times,serif" font-size="14.00" fill="#000000">eddy_wf</text>
</g>
<!-- inputnode (utility)&#45;&gt;eddy_wf -->
<g id="edge6" class="edge">
<title>inputnode (utility)&#45;&gt;eddy_wf</title>
<path fill="none" stroke="#000000" d="M511.7292,-363.5892C531.9536,-355.4498 552.5813,-342.9588 564.3944,-324 593.8408,-276.7413 543.6105,-217.5711 509.6383,-185.4273"/>
<polygon fill="#000000" stroke="#000000" points="511.9749,-182.821 502.2508,-178.6148 507.2294,-187.967 511.9749,-182.821"/>
</g>
<!-- reportlets_wf -->
<g id="node8" class="node">
<title>reportlets_wf</title>
<ellipse fill="none" stroke="#000000" cx="155.3944" cy="-90" rx="73.387" ry="18"/>
<text text-anchor="middle" x="155.3944" y="-86.3" font-family="Times,serif" font-size="14.00" fill="#000000">reportlets_wf</text>
</g>
<!-- inputnode (utility)&#45;&gt;reportlets_wf -->
<g id="edge7" class="edge">
<title>inputnode (utility)&#45;&gt;reportlets_wf</title>
<path fill="none" stroke="#000000" d="M363.9914,-372.3967C249.1529,-364.3407 63.2703,-347.7907 42.3944,-324 19.6001,-298.0231 -41.4693,-280.2263 45.3944,-144 56.4512,-126.6598 74.8425,-114.7155 93.4525,-106.5644"/>
<polygon fill="#000000" stroke="#000000" points="94.9148,-109.7484 102.8694,-102.7502 92.2869,-103.2604 94.9148,-109.7484"/>
</g>
<!-- gradient_table (vectors)&#45;&gt;dwi_reference_wf -->
<g id="edge8" class="edge">
<title>gradient_table (vectors)&#45;&gt;dwi_reference_wf</title>
<path fill="none" stroke="#000000" d="M210.0836,-288.7542C230.9507,-278.6708 257.4539,-265.8638 279.5808,-255.1717"/>
<polygon fill="#000000" stroke="#000000" points="281.2856,-258.2352 288.7667,-250.7329 278.2399,-251.9324 281.2856,-258.2352"/>
</g>
<!-- outputnode (utility) -->
<g id="node9" class="node">
<title>outputnode (utility)</title>
<ellipse fill="none" stroke="#000000" cx="155.3944" cy="-162" rx="101.2821" ry="18"/>
<text text-anchor="middle" x="155.3944" y="-158.3" font-family="Times,serif" font-size="14.00" fill="#000000">outputnode (utility)</text>
</g>
<!-- gradient_table (vectors)&#45;&gt;outputnode (utility) -->
<g id="edge9" class="edge">
<title>gradient_table (vectors)&#45;&gt;outputnode (utility)</title>
<path fill="none" stroke="#000000" d="M171.988,-287.7623C168.7473,-263.201 162.9479,-219.2474 159.1355,-190.3541"/>
<polygon fill="#000000" stroke="#000000" points="162.5593,-189.5458 157.7812,-180.0896 155.6195,-190.4616 162.5593,-189.5458"/>
</g>
<!-- dwi_reference_wf&#45;&gt;bbreg_wf -->
<g id="edge10" class="edge">
<title>dwi_reference_wf&#45;&gt;bbreg_wf</title>
<path fill="none" stroke="#000000" d="M381.5592,-219.9468C435.503,-206.9134 515.133,-187.6739 567.6232,-174.9917"/>
<polygon fill="#000000" stroke="#000000" points="568.5214,-178.3755 577.4197,-172.6248 566.8774,-171.5713 568.5214,-178.3755"/>
</g>
<!-- dwi_reference_wf&#45;&gt;eddy_wf -->
<g id="edge11" class="edge">
<title>dwi_reference_wf&#45;&gt;eddy_wf</title>
<path fill="none" stroke="#000000" d="M360.2718,-217.3008C384.7571,-206.2131 416.9008,-191.6575 442.0645,-180.2626"/>
<polygon fill="#000000" stroke="#000000" points="443.6707,-183.3774 451.3365,-176.064 440.7831,-177.0007 443.6707,-183.3774"/>
</g>
<!-- dwi_reference_wf&#45;&gt;reportlets_wf -->
<g id="edge14" class="edge">
<title>dwi_reference_wf&#45;&gt;reportlets_wf</title>
<path fill="none" stroke="#000000" d="M315.4752,-216.0576C305.9877,-196.268 288.4428,-164.5164 265.3944,-144 248.734,-129.1699 227.2699,-117.4297 207.7312,-108.7359"/>
<polygon fill="#000000" stroke="#000000" points="208.8944,-105.4268 198.3237,-104.7126 206.1419,-111.8629 208.8944,-105.4268"/>
</g>
<!-- dwi_reference_wf&#45;&gt;outputnode (utility) -->
<g id="edge15" class="edge">
<title>dwi_reference_wf&#45;&gt;outputnode (utility)</title>
<path fill="none" stroke="#000000" d="M284.8518,-217.4817C260.6939,-207.1284 229.3578,-193.6986 203.5669,-182.6454"/>
<polygon fill="#000000" stroke="#000000" points="204.9096,-179.413 194.3394,-178.6907 202.1521,-185.847 204.9096,-179.413"/>
</g>
<!-- eddy_report (registration) -->
<g id="node10" class="node">
<title>eddy_report (registration)</title>
<ellipse fill="none" stroke="#000000" cx="482.3944" cy="-90" rx="131.8766" ry="18"/>
<text text-anchor="middle" x="482.3944" y="-86.3" font-family="Times,serif" font-size="14.00" fill="#000000">eddy_report (registration)</text>
</g>
<!-- dwi_reference_wf&#45;&gt;eddy_report (registration) -->
<g id="edge12" class="edge">
<title>dwi_reference_wf&#45;&gt;eddy_report (registration)</title>
<path fill="none" stroke="#000000" d="M342.8909,-216.3428C371.0232,-190.8645 423.1217,-143.6809 455.0754,-114.7417"/>
<polygon fill="#000000" stroke="#000000" points="457.6758,-117.1087 462.7384,-107.8017 452.9768,-111.9203 457.6758,-117.1087"/>
</g>
<!-- ds_report_eddy -->
<g id="node11" class="node">
<title>ds_report_eddy</title>
<ellipse fill="none" stroke="#000000" cx="402.3944" cy="-18" rx="83.3857" ry="18"/>
<text text-anchor="middle" x="402.3944" y="-14.3" font-family="Times,serif" font-size="14.00" fill="#000000">ds_report_eddy</text>
</g>
<!-- dwi_reference_wf&#45;&gt;ds_report_eddy -->
<g id="edge13" class="edge">
<title>dwi_reference_wf&#45;&gt;ds_report_eddy</title>
<path fill="none" stroke="#000000" d="M321.3454,-215.7783C318.6752,-184.4571 316.9019,-119.2271 341.3944,-72 347.4572,-60.3095 357.1791,-49.9795 367.0965,-41.5669"/>
<polygon fill="#000000" stroke="#000000" points="369.3908,-44.2139 375.0257,-35.2418 365.0256,-38.7417 369.3908,-44.2139"/>
</g>
<!-- bbreg_wf&#45;&gt;ds_report_reg -->
<g id="edge16" class="edge">
<title>bbreg_wf&#45;&gt;ds_report_reg</title>
<path fill="none" stroke="#000000" d="M641.5726,-145.3008C652.8551,-135.9636 667.1093,-124.1669 679.5519,-113.8697"/>
<polygon fill="#000000" stroke="#000000" points="681.9448,-116.4324 687.4173,-107.3603 677.4818,-111.0397 681.9448,-116.4324"/>
</g>
<!-- eddy_wf&#45;&gt;eddy_report (registration) -->
<g id="edge17" class="edge">
<title>eddy_wf&#45;&gt;eddy_report (registration)</title>
<path fill="none" stroke="#000000" d="M482.3944,-143.8314C482.3944,-136.131 482.3944,-126.9743 482.3944,-118.4166"/>
<polygon fill="#000000" stroke="#000000" points="485.8945,-118.4132 482.3944,-108.4133 478.8945,-118.4133 485.8945,-118.4132"/>
</g>
<!-- outputnode (utility)&#45;&gt;reportlets_wf -->
<g id="edge18" class="edge">
<title>outputnode (utility)&#45;&gt;reportlets_wf</title>
<path fill="none" stroke="#000000" d="M155.3944,-143.8314C155.3944,-136.131 155.3944,-126.9743 155.3944,-118.4166"/>
<polygon fill="#000000" stroke="#000000" points="158.8945,-118.4132 155.3944,-108.4133 151.8945,-118.4133 158.8945,-118.4132"/>
</g>
<!-- eddy_report (registration)&#45;&gt;ds_report_eddy -->
<g id="edge19" class="edge">
<title>eddy_report (registration)&#45;&gt;ds_report_eddy</title>
<path fill="none" stroke="#000000" d="M462.6191,-72.2022C452.6407,-63.2217 440.3835,-52.1902 429.5376,-42.4289"/>
<polygon fill="#000000" stroke="#000000" points="431.7165,-39.6812 421.9422,-35.593 427.0338,-44.8842 431.7165,-39.6812"/>
</g>
</g>
</svg>
