<?xml version="1.0" encoding="UTF-8" standalone="no"?>
<!DOCTYPE svg PUBLIC "-//W3C//DTD SVG 1.1//EN"
 "http://www.w3.org/Graphics/SVG/1.1/DTD/svg11.dtd">
<!-- Generated by graphviz version 2.40.1 (20161225.0304)
 -->
<!-- Title: %3 Pages: 1 -->
<svg width="406pt" height="260pt"
 viewBox="0.00 0.00 406.28 260.00" xmlns="http://www.w3.org/2000/svg" xmlns:xlink="http://www.w3.org/1999/xlink">
<g id="graph0" class="graph" transform="scale(1 1) rotate(0) translate(4 256)">
<title>%3</title>
<polygon fill="#ffffff" stroke="transparent" points="-4,4 -4,-256 402.2826,-256 402.2826,4 -4,4"/>
<!-- inputnode (utility) -->
<g id="node1" class="node">
<title>inputnode (utility)</title>
<ellipse fill="none" stroke="#000000" cx="273.8391" cy="-234" rx="94.7833" ry="18"/>
<text text-anchor="middle" x="273.8391" y="-230.3" font-family="Times,serif" font-size="14.00" fill="#000000">inputnode (utility)</text>
</g>
<!-- gradient_table (vectors) -->
<g id="node2" class="node">
<title>gradient_table (vectors)</title>
<ellipse fill="none" stroke="#000000" cx="122.8391" cy="-162" rx="122.6784" ry="18"/>
<text text-anchor="middle" x="122.8391" y="-158.3" font-family="Times,serif" font-size="14.00" fill="#000000">gradient_table (vectors)</text>
</g>
<!-- inputnode (utility)&#45;&gt;gradient_table (vectors) -->
<g id="edge1" class="edge">
<title>inputnode (utility)&#45;&gt;gradient_table (vectors)</title>
<path fill="none" stroke="#000000" d="M238.4363,-217.1192C217.444,-207.1096 190.6255,-194.322 168.1058,-183.5841"/>
<polygon fill="#000000" stroke="#000000" points="169.6017,-180.4199 159.0689,-179.2751 166.5889,-186.7384 169.6017,-180.4199"/>
</g>
<!-- dwi_reference_wf -->
<g id="node3" class="node">
<title>dwi_reference_wf</title>
<ellipse fill="none" stroke="#000000" cx="216.8391" cy="-90" rx="92.8835" ry="18"/>
<text text-anchor="middle" x="216.8391" y="-86.3" font-family="Times,serif" font-size="14.00" fill="#000000">dwi_reference_wf</text>
</g>
<!-- inputnode (utility)&#45;&gt;dwi_reference_wf -->
<g id="edge2" class="edge">
<title>inputnode (utility)&#45;&gt;dwi_reference_wf</title>
<path fill="none" stroke="#000000" d="M272.1717,-215.7557C269.9714,-197.0929 265.1025,-167.5734 254.8391,-144 250.5833,-134.2251 244.4046,-124.4258 238.2618,-115.9097"/>
<polygon fill="#000000" stroke="#000000" points="241.0168,-113.75 232.2035,-107.8699 235.4263,-117.9626 241.0168,-113.75"/>
</g>
<!-- reportlets_wf -->
<g id="node4" class="node">
<title>reportlets_wf</title>
<ellipse fill="none" stroke="#000000" cx="324.8391" cy="-18" rx="73.387" ry="18"/>
<text text-anchor="middle" x="324.8391" y="-14.3" font-family="Times,serif" font-size="14.00" fill="#000000">reportlets_wf</text>
</g>
<!-- inputnode (utility)&#45;&gt;reportlets_wf -->
<g id="edge3" class="edge">
<title>inputnode (utility)&#45;&gt;reportlets_wf</title>
<path fill="none" stroke="#000000" d="M282.2024,-215.6793C292.7846,-191.56 310.6196,-147.5725 318.8391,-108 323.0787,-87.5887 324.5315,-64.0681 324.9493,-46.1917"/>
<polygon fill="#000000" stroke="#000000" points="328.4498,-46.1752 325.0903,-36.1272 321.4505,-46.0771 328.4498,-46.1752"/>
</g>
<!-- gradient_table (vectors)&#45;&gt;dwi_reference_wf -->
<g id="edge4" class="edge">
<title>gradient_table (vectors)&#45;&gt;dwi_reference_wf</title>
<path fill="none" stroke="#000000" d="M146.0751,-144.2022C158.0274,-135.0473 172.7622,-123.761 185.6863,-113.8617"/>
<polygon fill="#000000" stroke="#000000" points="188.0599,-116.4524 193.8704,-107.593 183.8033,-110.8953 188.0599,-116.4524"/>
</g>
<!-- outputnode (utility) -->
<g id="node5" class="node">
<title>outputnode (utility)</title>
<ellipse fill="none" stroke="#000000" cx="119.8391" cy="-18" rx="101.2821" ry="18"/>
<text text-anchor="middle" x="119.8391" y="-14.3" font-family="Times,serif" font-size="14.00" fill="#000000">outputnode (utility)</text>
</g>
<!-- gradient_table (vectors)&#45;&gt;outputnode (utility) -->
<g id="edge5" class="edge">
<title>gradient_table (vectors)&#45;&gt;outputnode (utility)</title>
<path fill="none" stroke="#000000" d="M119.4241,-143.5804C117.6682,-133.1767 115.7165,-119.9092 114.8391,-108 113.3252,-87.4502 114.6913,-64.2303 116.3754,-46.5234"/>
<polygon fill="#000000" stroke="#000000" points="119.887,-46.5929 117.4421,-36.284 112.9247,-45.8675 119.887,-46.5929"/>
</g>
<!-- dwi_reference_wf&#45;&gt;reportlets_wf -->
<g id="edge7" class="edge">
<title>dwi_reference_wf&#45;&gt;reportlets_wf</title>
<path fill="none" stroke="#000000" d="M242.9829,-72.5708C257.2817,-63.0383 275.1689,-51.1134 290.5724,-40.8445"/>
<polygon fill="#000000" stroke="#000000" points="292.9297,-43.4795 299.3087,-35.0202 289.0468,-37.6551 292.9297,-43.4795"/>
</g>
<!-- dwi_reference_wf&#45;&gt;outputnode (utility) -->
<g id="edge6" class="edge">
<title>dwi_reference_wf&#45;&gt;outputnode (utility)</title>
<path fill="none" stroke="#000000" d="M193.3581,-72.5708C180.8214,-63.2652 165.2134,-51.6799 151.6075,-41.5807"/>
<polygon fill="#000000" stroke="#000000" points="153.5559,-38.6681 143.4401,-35.5182 149.3837,-44.2889 153.5559,-38.6681"/>
</g>
</g>
</svg>
