<?xml version="1.0" encoding="UTF-8" standalone="no"?>
<!DOCTYPE svg PUBLIC "-//W3C//DTD SVG 1.1//EN"
 "http://www.w3.org/Graphics/SVG/1.1/DTD/svg11.dtd">
<!-- Generated by graphviz version 2.40.1 (20161225.0304)
 -->
<!-- Title: %3 Pages: 1 -->
<svg width="695pt" height="332pt"
 viewBox="0.00 0.00 695.43 332.00" xmlns="http://www.w3.org/2000/svg" xmlns:xlink="http://www.w3.org/1999/xlink">
<g id="graph0" class="graph" transform="scale(1 1) rotate(0) translate(4 328)">
<title>%3</title>
<polygon fill="#ffffff" stroke="transparent" points="-4,4 -4,-328 691.4343,-328 691.4343,4 -4,4"/>
<!-- inputnode (utility) -->
<g id="node1" class="node">
<title>inputnode (utility)</title>
<ellipse fill="none" stroke="#000000" cx="230.0433" cy="-306" rx="94.7833" ry="18"/>
<text text-anchor="middle" x="230.0433" y="-302.3" font-family="Times,serif" font-size="14.00" fill="#000000">inputnode (utility)</text>
</g>
<!-- gradient_table (vectors) -->
<g id="node2" class="node">
<title>gradient_table (vectors)</title>
<ellipse fill="none" stroke="#000000" cx="306.0433" cy="-234" rx="122.6784" ry="18"/>
<text text-anchor="middle" x="306.0433" y="-230.3" font-family="Times,serif" font-size="14.00" fill="#000000">gradient_table (vectors)</text>
</g>
<!-- inputnode (utility)&#45;&gt;gradient_table (vectors) -->
<g id="edge1" class="edge">
<title>inputnode (utility)&#45;&gt;gradient_table (vectors)</title>
<path fill="none" stroke="#000000" d="M248.8298,-288.2022C258.1472,-279.3752 269.556,-268.5669 279.7275,-258.9307"/>
<polygon fill="#000000" stroke="#000000" points="282.357,-261.2609 287.2095,-251.8425 277.5428,-256.1792 282.357,-261.2609"/>
</g>
<!-- dwi_reference_wf -->
<g id="node3" class="node">
<title>dwi_reference_wf</title>
<ellipse fill="none" stroke="#000000" cx="207.0433" cy="-162" rx="92.8835" ry="18"/>
<text text-anchor="middle" x="207.0433" y="-158.3" font-family="Times,serif" font-size="14.00" fill="#000000">dwi_reference_wf</text>
</g>
<!-- inputnode (utility)&#45;&gt;dwi_reference_wf -->
<g id="edge2" class="edge">
<title>inputnode (utility)&#45;&gt;dwi_reference_wf</title>
<path fill="none" stroke="#000000" d="M204.2019,-288.6293C192.6606,-279.2869 180.2757,-266.6679 174.0433,-252 165.0385,-230.8076 175.4067,-206.2334 186.8374,-188.1233"/>
<polygon fill="#000000" stroke="#000000" points="189.7642,-190.0431 192.4539,-179.7953 183.9607,-186.1291 189.7642,-190.0431"/>
</g>
<!-- bbreg_wf -->
<g id="node4" class="node">
<title>bbreg_wf</title>
<ellipse fill="none" stroke="#000000" cx="117.0433" cy="-90" rx="53.8905" ry="18"/>
<text text-anchor="middle" x="117.0433" y="-86.3" font-family="Times,serif" font-size="14.00" fill="#000000">bbreg_wf</text>
</g>
<!-- inputnode (utility)&#45;&gt;bbreg_wf -->
<g id="edge3" class="edge">
<title>inputnode (utility)&#45;&gt;bbreg_wf</title>
<path fill="none" stroke="#000000" d="M202.2728,-288.7736C171.262,-267.6284 123.0589,-228.5305 105.0433,-180 97.6255,-160.0181 101.3914,-136.0364 106.5962,-117.8547"/>
<polygon fill="#000000" stroke="#000000" points="109.9858,-118.7437 109.6633,-108.1538 103.3115,-116.6335 109.9858,-118.7437"/>
</g>
<!-- t1w_brain (nibabel) -->
<g id="node5" class="node">
<title>t1w_brain (nibabel)</title>
<ellipse fill="none" stroke="#000000" cx="586.0433" cy="-234" rx="101.2821" ry="18"/>
<text text-anchor="middle" x="586.0433" y="-230.3" font-family="Times,serif" font-size="14.00" fill="#000000">t1w_brain (nibabel)</text>
</g>
<!-- inputnode (utility)&#45;&gt;t1w_brain (nibabel) -->
<g id="edge4" class="edge">
<title>inputnode (utility)&#45;&gt;t1w_brain (nibabel)</title>
<path fill="none" stroke="#000000" d="M295.3391,-292.7941C355.6442,-280.5976 445.2687,-262.4713 509.0417,-249.5734"/>
<polygon fill="#000000" stroke="#000000" points="509.9387,-252.9629 519.0464,-247.5499 508.551,-246.1018 509.9387,-252.9629"/>
</g>
<!-- ds_report_reg -->
<g id="node6" class="node">
<title>ds_report_reg</title>
<ellipse fill="none" stroke="#000000" cx="76.0433" cy="-18" rx="76.0865" ry="18"/>
<text text-anchor="middle" x="76.0433" y="-14.3" font-family="Times,serif" font-size="14.00" fill="#000000">ds_report_reg</text>
</g>
<!-- inputnode (utility)&#45;&gt;ds_report_reg -->
<g id="edge5" class="edge">
<title>inputnode (utility)&#45;&gt;ds_report_reg</title>
<path fill="none" stroke="#000000" d="M183.1235,-290.2285C162.6776,-281.5064 139.6435,-268.9447 123.0433,-252 73.3793,-201.3055 69.7674,-177.204 54.0433,-108 50.4982,-92.3977 50.9675,-87.7016 54.0433,-72 55.8056,-63.0032 59.0743,-53.6139 62.563,-45.2358"/>
<polygon fill="#000000" stroke="#000000" points="65.8269,-46.5094 66.6824,-35.9491 59.4281,-43.6709 65.8269,-46.5094"/>
</g>
<!-- reportlets_wf -->
<g id="node7" class="node">
<title>reportlets_wf</title>
<ellipse fill="none" stroke="#000000" cx="328.0433" cy="-18" rx="73.387" ry="18"/>
<text text-anchor="middle" x="328.0433" y="-14.3" font-family="Times,serif" font-size="14.00" fill="#000000">reportlets_wf</text>
</g>
<!-- inputnode (utility)&#45;&gt;reportlets_wf -->
<g id="edge6" class="edge">
<title>inputnode (utility)&#45;&gt;reportlets_wf</title>
<path fill="none" stroke="#000000" d="M308.235,-295.7398C360.2677,-287.1235 421.9217,-272.8414 438.0433,-252 486.9911,-188.7219 480.3498,-139.8981 438.0433,-72 427.1676,-54.5456 408.8207,-42.5733 390.1957,-34.4317"/>
<polygon fill="#000000" stroke="#000000" points="391.3496,-31.1232 380.7665,-30.6252 388.7292,-37.6142 391.3496,-31.1232"/>
</g>
<!-- gradient_table (vectors)&#45;&gt;dwi_reference_wf -->
<g id="edge7" class="edge">
<title>gradient_table (vectors)&#45;&gt;dwi_reference_wf</title>
<path fill="none" stroke="#000000" d="M281.5713,-216.2022C268.8634,-206.9601 253.1688,-195.5459 239.4647,-185.5792"/>
<polygon fill="#000000" stroke="#000000" points="241.3797,-182.6442 231.2337,-179.593 237.2624,-188.3054 241.3797,-182.6442"/>
</g>
<!-- outputnode (utility) -->
<g id="node8" class="node">
<title>outputnode (utility)</title>
<ellipse fill="none" stroke="#000000" cx="328.0433" cy="-90" rx="101.2821" ry="18"/>
<text text-anchor="middle" x="328.0433" y="-86.3" font-family="Times,serif" font-size="14.00" fill="#000000">outputnode (utility)</text>
</g>
<!-- gradient_table (vectors)&#45;&gt;outputnode (utility) -->
<g id="edge8" class="edge">
<title>gradient_table (vectors)&#45;&gt;outputnode (utility)</title>
<path fill="none" stroke="#000000" d="M308.8296,-215.7623C312.582,-191.201 319.2971,-147.2474 323.7114,-118.3541"/>
<polygon fill="#000000" stroke="#000000" points="327.2291,-118.5035 325.2796,-108.0896 320.3094,-117.4463 327.2291,-118.5035"/>
</g>
<!-- dwi_reference_wf&#45;&gt;bbreg_wf -->
<g id="edge9" class="edge">
<title>dwi_reference_wf&#45;&gt;bbreg_wf</title>
<path fill="none" stroke="#000000" d="M184.7961,-144.2022C173.0961,-134.8423 158.6115,-123.2546 146.0419,-113.1989"/>
<polygon fill="#000000" stroke="#000000" points="148.1021,-110.3649 138.107,-106.851 143.7292,-115.831 148.1021,-110.3649"/>
</g>
<!-- dwi_reference_wf&#45;&gt;reportlets_wf -->
<g id="edge10" class="edge">
<title>dwi_reference_wf&#45;&gt;reportlets_wf</title>
<path fill="none" stroke="#000000" d="M204.52,-143.9927C202.7742,-124.4374 202.9936,-93.1686 218.0433,-72 230.1177,-55.0163 249.0562,-43.1237 267.8384,-34.9127"/>
<polygon fill="#000000" stroke="#000000" points="269.3668,-38.0695 277.3109,-31.0594 266.7291,-31.5855 269.3668,-38.0695"/>
</g>
<!-- dwi_reference_wf&#45;&gt;outputnode (utility) -->
<g id="edge11" class="edge">
<title>dwi_reference_wf&#45;&gt;outputnode (utility)</title>
<path fill="none" stroke="#000000" d="M236.0258,-144.7542C252.22,-135.118 272.5941,-122.9945 290.0519,-112.6064"/>
<polygon fill="#000000" stroke="#000000" points="292.0739,-115.476 298.8779,-107.3546 288.4944,-109.4605 292.0739,-115.476"/>
</g>
<!-- bbreg_wf&#45;&gt;ds_report_reg -->
<g id="edge12" class="edge">
<title>bbreg_wf&#45;&gt;ds_report_reg</title>
<path fill="none" stroke="#000000" d="M106.9084,-72.2022C102.1776,-63.8944 96.4473,-53.8316 91.2148,-44.6427"/>
<polygon fill="#000000" stroke="#000000" points="94.1935,-42.8005 86.2036,-35.8425 88.1106,-46.2644 94.1935,-42.8005"/>
</g>
<!-- outputnode (utility)&#45;&gt;reportlets_wf -->
<g id="edge13" class="edge">
<title>outputnode (utility)&#45;&gt;reportlets_wf</title>
<path fill="none" stroke="#000000" d="M328.0433,-71.8314C328.0433,-64.131 328.0433,-54.9743 328.0433,-46.4166"/>
<polygon fill="#000000" stroke="#000000" points="331.5434,-46.4132 328.0433,-36.4133 324.5434,-46.4133 331.5434,-46.4132"/>
</g>
</g>
</svg>
