<?xml version="1.0" encoding="UTF-8" standalone="no"?>
<!DOCTYPE svg PUBLIC "-//W3C//DTD SVG 1.1//EN"
 "http://www.w3.org/Graphics/SVG/1.1/DTD/svg11.dtd">
<!-- Generated by graphviz version 2.40.1 (20161225.0304)
 -->
<!-- Title: structs Pages: 1 -->
<svg width="725pt" height="184pt"
 viewBox="0.00 0.00 725.00 184.00" xmlns="http://www.w3.org/2000/svg" xmlns:xlink="http://www.w3.org/1999/xlink">
<g id="graph0" class="graph" transform="scale(1 1) rotate(0) translate(4 180)">
<title>structs</title>
<polygon fill="#ffffff" stroke="transparent" points="-4,4 -4,-180 721,-180 721,4 -4,4"/>
<!-- dmriprep_wffsdir_run_X -->
<g id="node1" class="node">
<title>dmriprep_wffsdir_run_X</title>
<polygon fill="none" stroke="#000000" points="0,-106.5 0,-175.5 239,-175.5 239,-106.5 0,-106.5"/>
<text text-anchor="middle" x="17.5" y="-137.3" font-family="Times,serif" font-size="14.00" fill="#000000">IN</text>
<polyline fill="none" stroke="#000000" points="35,-106.5 35,-175.5 "/>
<text text-anchor="middle" x="85" y="-160.3" font-family="Times,serif" font-size="14.00" fill="#000000">fsdir_run_X</text>
<polyline fill="none" stroke="#000000" points="35,-152.5 135,-152.5 "/>
<text text-anchor="middle" x="85" y="-137.3" font-family="Times,serif" font-size="14.00" fill="#000000">bids</text>
<polyline fill="none" stroke="#000000" points="35,-129.5 135,-129.5 "/>
<text text-anchor="middle" x="85" y="-114.3" font-family="Times,serif" font-size="14.00" fill="#000000"> </text>
<polyline fill="none" stroke="#000000" points="135,-106.5 135,-175.5 "/>
<text text-anchor="middle" x="187" y="-154.8" font-family="Times,serif" font-size="14.00" fill="#000000">OUT</text>
<polyline fill="none" stroke="#000000" points="135,-141.5 239,-141.5 "/>
<text text-anchor="middle" x="187" y="-120.3" font-family="Times,serif" font-size="14.00" fill="#000000">subjects_dir</text>
</g>
<!-- dmriprep_wfsingle_subject_dmripreptest_wf -->
<g id="node2" class="node">
<title>dmriprep_wfsingle_subject_dmripreptest_wf</title>
<polygon fill="none" stroke="#000000" points="240,-.5 240,-69.5 717,-69.5 717,-.5 240,-.5"/>
<text text-anchor="middle" x="330.5" y="-48.8" font-family="Times,serif" font-size="14.00" fill="#000000">IN</text>
<polyline fill="none" stroke="#000000" points="240,-35.5 421,-35.5 "/>
<text text-anchor="middle" x="330.5" y="-14.3" font-family="Times,serif" font-size="14.00" fill="#000000">inputnode.subjects_dir</text>
<polyline fill="none" stroke="#000000" points="421,-.5 421,-69.5 "/>
<text text-anchor="middle" x="544" y="-54.3" font-family="Times,serif" font-size="14.00" fill="#000000">single_subject_dmripreptest_wf</text>
<polyline fill="none" stroke="#000000" points="421,-46.5 667,-46.5 "/>
<text text-anchor="middle" x="544" y="-31.3" font-family="Times,serif" font-size="14.00" fill="#000000"> </text>
<polyline fill="none" stroke="#000000" points="421,-23.5 667,-23.5 "/>
<text text-anchor="middle" x="544" y="-8.3" font-family="Times,serif" font-size="14.00" fill="#000000"> </text>
<polyline fill="none" stroke="#000000" points="667,-.5 667,-69.5 "/>
<text text-anchor="middle" x="692" y="-31.3" font-family="Times,serif" font-size="14.00" fill="#000000">OUT</text>
</g>
<!-- dmriprep_wffsdir_run_X&#45;&gt;dmriprep_wfsingle_subject_dmripreptest_wf -->
<g id="edge1" class="edge">
<title>dmriprep_wffsdir_run_X:e&#45;&gt;dmriprep_wfsingle_subject_dmripreptest_wf:w</title>
<path fill="none" stroke="#000000" d="M239.5,-124C282.1944,-124 208.8134,-36.9434 229.7437,-20.6202"/>
<polygon fill="#000000" stroke="#000000" points="230.7501,-23.9741 239.5,-18 228.9344,-17.2136 230.7501,-23.9741"/>
</g>
</g>
</svg>
