<?xml version="1.0" encoding="UTF-8" standalone="no"?>
<!DOCTYPE svg PUBLIC "-//W3C//DTD SVG 1.1//EN"
 "http://www.w3.org/Graphics/SVG/1.1/DTD/svg11.dtd">
<!-- Generated by graphviz version 2.40.1 (20161225.0304)
 -->
<!-- Title: structs Pages: 1 -->
<svg width="2111pt" height="907pt"
 viewBox="0.00 0.00 2110.75 907.00" xmlns="http://www.w3.org/2000/svg" xmlns:xlink="http://www.w3.org/1999/xlink">
<g id="graph0" class="graph" transform="scale(1 1) rotate(0) translate(4 903)">
<title>structs</title>
<polygon fill="#ffffff" stroke="transparent" points="-4,4 -4,-903 2106.7498,-903 2106.7498,4 -4,4"/>
<!-- dwi_preproc_wfinputnode -->
<g id="node1" class="node">
<title>dwi_preproc_wfinputnode</title>
<polygon fill="none" stroke="#000000" points="443.7498,-691.5 443.7498,-898.5 711.7498,-898.5 711.7498,-691.5 443.7498,-691.5"/>
<text text-anchor="middle" x="461.2498" y="-791.3" font-family="Times,serif" font-size="14.00" fill="#000000">IN</text>
<polyline fill="none" stroke="#000000" points="478.7498,-691.5 478.7498,-898.5 "/>
<text text-anchor="middle" x="523.2498" y="-860.3" font-family="Times,serif" font-size="14.00" fill="#000000">inputnode</text>
<polyline fill="none" stroke="#000000" points="478.7498,-829.5 567.7498,-829.5 "/>
<text text-anchor="middle" x="523.2498" y="-791.3" font-family="Times,serif" font-size="14.00" fill="#000000">utility</text>
<polyline fill="none" stroke="#000000" points="478.7498,-760.5 567.7498,-760.5 "/>
<text text-anchor="middle" x="523.2498" y="-722.3" font-family="Times,serif" font-size="14.00" fill="#000000"> </text>
<polyline fill="none" stroke="#000000" points="567.7498,-691.5 567.7498,-898.5 "/>
<text text-anchor="middle" x="639.7498" y="-883.3" font-family="Times,serif" font-size="14.00" fill="#000000">OUT</text>
<polyline fill="none" stroke="#000000" points="567.7498,-875.5 711.7498,-875.5 "/>
<text text-anchor="middle" x="639.7498" y="-860.3" font-family="Times,serif" font-size="14.00" fill="#000000">dwi_file</text>
<polyline fill="none" stroke="#000000" points="567.7498,-852.5 711.7498,-852.5 "/>
<text text-anchor="middle" x="639.7498" y="-837.3" font-family="Times,serif" font-size="14.00" fill="#000000">fsnative2t1w_xfm</text>
<polyline fill="none" stroke="#000000" points="567.7498,-829.5 711.7498,-829.5 "/>
<text text-anchor="middle" x="639.7498" y="-814.3" font-family="Times,serif" font-size="14.00" fill="#000000">in_bval</text>
<polyline fill="none" stroke="#000000" points="567.7498,-806.5 711.7498,-806.5 "/>
<text text-anchor="middle" x="639.7498" y="-791.3" font-family="Times,serif" font-size="14.00" fill="#000000">in_bvec</text>
<polyline fill="none" stroke="#000000" points="567.7498,-783.5 711.7498,-783.5 "/>
<text text-anchor="middle" x="639.7498" y="-768.3" font-family="Times,serif" font-size="14.00" fill="#000000">subject_id</text>
<polyline fill="none" stroke="#000000" points="567.7498,-760.5 711.7498,-760.5 "/>
<text text-anchor="middle" x="639.7498" y="-745.3" font-family="Times,serif" font-size="14.00" fill="#000000">subjects_dir</text>
<polyline fill="none" stroke="#000000" points="567.7498,-737.5 711.7498,-737.5 "/>
<text text-anchor="middle" x="639.7498" y="-722.3" font-family="Times,serif" font-size="14.00" fill="#000000">t1w_mask</text>
<polyline fill="none" stroke="#000000" points="567.7498,-714.5 711.7498,-714.5 "/>
<text text-anchor="middle" x="639.7498" y="-699.3" font-family="Times,serif" font-size="14.00" fill="#000000">t1w_preproc</text>
</g>
<!-- dwi_preproc_wft1w_brain -->
<g id="node2" class="node">
<title>dwi_preproc_wft1w_brain</title>
<polygon fill="none" stroke="#000000" points="17.2498,-574 17.2498,-643 232.2498,-643 232.2498,-574 17.2498,-574"/>
<text text-anchor="middle" x="55.2498" y="-627.8" font-family="Times,serif" font-size="14.00" fill="#000000">IN</text>
<polyline fill="none" stroke="#000000" points="17.2498,-620 93.2498,-620 "/>
<text text-anchor="middle" x="55.2498" y="-604.8" font-family="Times,serif" font-size="14.00" fill="#000000">in_file</text>
<polyline fill="none" stroke="#000000" points="17.2498,-597 93.2498,-597 "/>
<text text-anchor="middle" x="55.2498" y="-581.8" font-family="Times,serif" font-size="14.00" fill="#000000">in_mask</text>
<polyline fill="none" stroke="#000000" points="93.2498,-574 93.2498,-643 "/>
<text text-anchor="middle" x="137.7498" y="-627.8" font-family="Times,serif" font-size="14.00" fill="#000000">t1w_brain</text>
<polyline fill="none" stroke="#000000" points="93.2498,-620 182.2498,-620 "/>
<text text-anchor="middle" x="137.7498" y="-604.8" font-family="Times,serif" font-size="14.00" fill="#000000">nibabel</text>
<polyline fill="none" stroke="#000000" points="93.2498,-597 182.2498,-597 "/>
<text text-anchor="middle" x="137.7498" y="-581.8" font-family="Times,serif" font-size="14.00" fill="#000000"> </text>
<polyline fill="none" stroke="#000000" points="182.2498,-574 182.2498,-643 "/>
<text text-anchor="middle" x="207.2498" y="-604.8" font-family="Times,serif" font-size="14.00" fill="#000000">OUT</text>
</g>
<!-- dwi_preproc_wfinputnode&#45;&gt;dwi_preproc_wft1w_brain -->
<g id="edge26" class="edge">
<title>dwi_preproc_wfinputnode:e&#45;&gt;dwi_preproc_wft1w_brain:w</title>
<path fill="none" stroke="#000000" d="M711.7498,-726C727.3053,-726 722.3676,-702.3683 711.7498,-691 658.9169,-634.4331 69.5826,-700.0669 16.7498,-643.5 1.9038,-627.6047 -6.2412,-597.2417 7.0601,-588.1413"/>
<polygon fill="#000000" stroke="#000000" points="8.0223,-591.5068 16.7498,-585.5 6.1813,-584.7533 8.0223,-591.5068"/>
</g>
<!-- dwi_preproc_wfinputnode&#45;&gt;dwi_preproc_wft1w_brain -->
<g id="edge27" class="edge">
<title>dwi_preproc_wfinputnode:e&#45;&gt;dwi_preproc_wft1w_brain:w</title>
<path fill="none" stroke="#000000" d="M711.7498,-703C717.0831,-703 715.3902,-694.8977 711.7498,-691 658.9169,-634.4331 69.5826,-700.0669 16.7498,-643.5 9.2841,-635.5067 4.6266,-621.4505 7.9265,-613.8091"/>
<polygon fill="#000000" stroke="#000000" points="9.9859,-616.6548 16.7498,-608.5 6.3768,-610.6569 9.9859,-616.6548"/>
</g>
<!-- dwi_preproc_wfgradient_table -->
<g id="node3" class="node">
<title>dwi_preproc_wfgradient_table</title>
<polygon fill="none" stroke="#000000" points="411.7498,-562.5 411.7498,-654.5 683.7498,-654.5 683.7498,-562.5 411.7498,-562.5"/>
<text text-anchor="middle" x="447.7498" y="-639.3" font-family="Times,serif" font-size="14.00" fill="#000000">IN</text>
<polyline fill="none" stroke="#000000" points="411.7498,-631.5 483.7498,-631.5 "/>
<text text-anchor="middle" x="447.7498" y="-616.3" font-family="Times,serif" font-size="14.00" fill="#000000">dwi_file</text>
<polyline fill="none" stroke="#000000" points="411.7498,-608.5 483.7498,-608.5 "/>
<text text-anchor="middle" x="447.7498" y="-593.3" font-family="Times,serif" font-size="14.00" fill="#000000">in_bval</text>
<polyline fill="none" stroke="#000000" points="411.7498,-585.5 483.7498,-585.5 "/>
<text text-anchor="middle" x="447.7498" y="-570.3" font-family="Times,serif" font-size="14.00" fill="#000000">in_bvec</text>
<polyline fill="none" stroke="#000000" points="483.7498,-562.5 483.7498,-654.5 "/>
<text text-anchor="middle" x="544.2498" y="-635.8" font-family="Times,serif" font-size="14.00" fill="#000000">gradient_table</text>
<polyline fill="none" stroke="#000000" points="483.7498,-624.5 604.7498,-624.5 "/>
<text text-anchor="middle" x="544.2498" y="-605.3" font-family="Times,serif" font-size="14.00" fill="#000000">vectors</text>
<polyline fill="none" stroke="#000000" points="483.7498,-593.5 604.7498,-593.5 "/>
<text text-anchor="middle" x="544.2498" y="-574.3" font-family="Times,serif" font-size="14.00" fill="#000000"> </text>
<polyline fill="none" stroke="#000000" points="604.7498,-562.5 604.7498,-654.5 "/>
<text text-anchor="middle" x="644.2498" y="-635.8" font-family="Times,serif" font-size="14.00" fill="#000000">OUT</text>
<polyline fill="none" stroke="#000000" points="604.7498,-624.5 683.7498,-624.5 "/>
<text text-anchor="middle" x="644.2498" y="-605.3" font-family="Times,serif" font-size="14.00" fill="#000000">b0_ixs</text>
<polyline fill="none" stroke="#000000" points="604.7498,-593.5 683.7498,-593.5 "/>
<text text-anchor="middle" x="644.2498" y="-574.3" font-family="Times,serif" font-size="14.00" fill="#000000">out_rasb</text>
</g>
<!-- dwi_preproc_wfinputnode&#45;&gt;dwi_preproc_wfgradient_table -->
<g id="edge17" class="edge">
<title>dwi_preproc_wfinputnode:e&#45;&gt;dwi_preproc_wfgradient_table:w</title>
<path fill="none" stroke="#000000" d="M711.7498,-864C788.6387,-864 762.7769,-748.5164 711.7498,-691 622.6287,-590.545 500.8709,-755.455 411.7498,-655 404.5948,-646.9351 399.921,-633.1552 403.1065,-625.6842"/>
<polygon fill="#000000" stroke="#000000" points="404.9744,-628.6452 411.7498,-620.5 401.3738,-622.6422 404.9744,-628.6452"/>
</g>
<!-- dwi_preproc_wfinputnode&#45;&gt;dwi_preproc_wfgradient_table -->
<g id="edge21" class="edge">
<title>dwi_preproc_wfinputnode:e&#45;&gt;dwi_preproc_wfgradient_table:w</title>
<path fill="none" stroke="#000000" d="M711.7498,-818C768.1942,-818 749.209,-733.223 711.7498,-691 622.6287,-590.545 500.8709,-755.455 411.7498,-655 397.191,-638.5897 388.6904,-608.2248 402.007,-599.1364"/>
<polygon fill="#000000" stroke="#000000" points="403.0112,-602.4906 411.7498,-596.5 401.1827,-595.7337 403.0112,-602.4906"/>
</g>
<!-- dwi_preproc_wfinputnode&#45;&gt;dwi_preproc_wfgradient_table -->
<g id="edge23" class="edge">
<title>dwi_preproc_wfinputnode:e&#45;&gt;dwi_preproc_wfgradient_table:w</title>
<path fill="none" stroke="#000000" d="M711.7498,-795C757.972,-795 742.425,-725.5763 711.7498,-691 622.6287,-590.545 500.8709,-755.455 411.7498,-655 390.2463,-630.7619 378.2294,-584.6721 401.8613,-575.2197"/>
<polygon fill="#000000" stroke="#000000" points="402.4973,-578.6617 411.7498,-573.5 401.2979,-571.7652 402.4973,-578.6617"/>
</g>
<!-- dwi_preproc_wfdwi_reference_wf -->
<g id="node4" class="node">
<title>dwi_preproc_wfdwi_reference_wf</title>
<polygon fill="none" stroke="#000000" points="326.7498,-410.5 326.7498,-525.5 844.7498,-525.5 844.7498,-410.5 326.7498,-410.5"/>
<text text-anchor="middle" x="401.2498" y="-502.8" font-family="Times,serif" font-size="14.00" fill="#000000">IN</text>
<polyline fill="none" stroke="#000000" points="326.7498,-487.5 475.7498,-487.5 "/>
<text text-anchor="middle" x="401.2498" y="-464.8" font-family="Times,serif" font-size="14.00" fill="#000000">inputnode.b0_ixs</text>
<polyline fill="none" stroke="#000000" points="326.7498,-449.5 475.7498,-449.5 "/>
<text text-anchor="middle" x="401.2498" y="-426.3" font-family="Times,serif" font-size="14.00" fill="#000000">inputnode.dwi_file</text>
<polyline fill="none" stroke="#000000" points="475.7498,-410.5 475.7498,-525.5 "/>
<text text-anchor="middle" x="547.2498" y="-502.8" font-family="Times,serif" font-size="14.00" fill="#000000">dwi_reference_wf</text>
<polyline fill="none" stroke="#000000" points="475.7498,-487.5 618.7498,-487.5 "/>
<text text-anchor="middle" x="547.2498" y="-464.8" font-family="Times,serif" font-size="14.00" fill="#000000"> </text>
<polyline fill="none" stroke="#000000" points="475.7498,-449.5 618.7498,-449.5 "/>
<text text-anchor="middle" x="547.2498" y="-426.3" font-family="Times,serif" font-size="14.00" fill="#000000"> </text>
<polyline fill="none" stroke="#000000" points="618.7498,-410.5 618.7498,-525.5 "/>
<text text-anchor="middle" x="731.7498" y="-510.3" font-family="Times,serif" font-size="14.00" fill="#000000">OUT</text>
<polyline fill="none" stroke="#000000" points="618.7498,-502.5 844.7498,-502.5 "/>
<text text-anchor="middle" x="731.7498" y="-487.3" font-family="Times,serif" font-size="14.00" fill="#000000">outputnode.dwi_file</text>
<polyline fill="none" stroke="#000000" points="618.7498,-479.5 844.7498,-479.5 "/>
<text text-anchor="middle" x="731.7498" y="-464.3" font-family="Times,serif" font-size="14.00" fill="#000000">outputnode.dwi_mask</text>
<polyline fill="none" stroke="#000000" points="618.7498,-456.5 844.7498,-456.5 "/>
<text text-anchor="middle" x="731.7498" y="-441.3" font-family="Times,serif" font-size="14.00" fill="#000000">outputnode.ref_image</text>
<polyline fill="none" stroke="#000000" points="618.7498,-433.5 844.7498,-433.5 "/>
<text text-anchor="middle" x="731.7498" y="-418.3" font-family="Times,serif" font-size="14.00" fill="#000000">outputnode.validation_report</text>
</g>
<!-- dwi_preproc_wfinputnode&#45;&gt;dwi_preproc_wfdwi_reference_wf -->
<g id="edge16" class="edge">
<title>dwi_preproc_wfinputnode:e&#45;&gt;dwi_preproc_wfdwi_reference_wf:w</title>
<path fill="none" stroke="#000000" d="M711.7498,-864C846.2374,-864 790.1104,-654.7783 692.7498,-562 633.5854,-505.6202 381.6374,-586.5513 326.7498,-526 314.7728,-512.7871 307.9123,-454.5805 318.4453,-435.8372"/>
<polygon fill="#000000" stroke="#000000" points="320.5813,-438.614 326.7498,-430 316.5559,-432.8871 320.5813,-438.614"/>
</g>
<!-- dwi_preproc_wfreportlets_wf -->
<g id="node6" class="node">
<title>dwi_preproc_wfreportlets_wf</title>
<polygon fill="none" stroke="#000000" points="372.2498,-106.5 372.2498,-221.5 751.2498,-221.5 751.2498,-106.5 372.2498,-106.5"/>
<text text-anchor="middle" x="480.2498" y="-206.3" font-family="Times,serif" font-size="14.00" fill="#000000">IN</text>
<polyline fill="none" stroke="#000000" points="372.2498,-198.5 588.2498,-198.5 "/>
<text text-anchor="middle" x="480.2498" y="-183.3" font-family="Times,serif" font-size="14.00" fill="#000000">inputnode.dwi_mask</text>
<polyline fill="none" stroke="#000000" points="372.2498,-175.5 588.2498,-175.5 "/>
<text text-anchor="middle" x="480.2498" y="-160.3" font-family="Times,serif" font-size="14.00" fill="#000000">inputnode.dwi_ref</text>
<polyline fill="none" stroke="#000000" points="372.2498,-152.5 588.2498,-152.5 "/>
<text text-anchor="middle" x="480.2498" y="-137.3" font-family="Times,serif" font-size="14.00" fill="#000000">inputnode.source_file</text>
<polyline fill="none" stroke="#000000" points="372.2498,-129.5 588.2498,-129.5 "/>
<text text-anchor="middle" x="480.2498" y="-114.3" font-family="Times,serif" font-size="14.00" fill="#000000">inputnode.validation_report</text>
<polyline fill="none" stroke="#000000" points="588.2498,-106.5 588.2498,-221.5 "/>
<text text-anchor="middle" x="644.7498" y="-198.8" font-family="Times,serif" font-size="14.00" fill="#000000">reportlets_wf</text>
<polyline fill="none" stroke="#000000" points="588.2498,-183.5 701.2498,-183.5 "/>
<text text-anchor="middle" x="644.7498" y="-160.8" font-family="Times,serif" font-size="14.00" fill="#000000"> </text>
<polyline fill="none" stroke="#000000" points="588.2498,-145.5 701.2498,-145.5 "/>
<text text-anchor="middle" x="644.7498" y="-122.3" font-family="Times,serif" font-size="14.00" fill="#000000"> </text>
<polyline fill="none" stroke="#000000" points="701.2498,-106.5 701.2498,-221.5 "/>
<text text-anchor="middle" x="726.2498" y="-160.3" font-family="Times,serif" font-size="14.00" fill="#000000">OUT</text>
</g>
<!-- dwi_preproc_wfinputnode&#45;&gt;dwi_preproc_wfreportlets_wf -->
<g id="edge18" class="edge">
<title>dwi_preproc_wfinputnode:e&#45;&gt;dwi_preproc_wfreportlets_wf:w</title>
<path fill="none" stroke="#000000" d="M711.7498,-864C788.6387,-864 762.8759,-748.4284 711.7498,-691 665.7821,-639.3659 464.0203,-687.0162 402.7498,-655 334.9368,-619.5652 315.8374,-597.5575 288.7498,-526 227.9903,-365.4917 197.8944,-149.6223 361.7268,-141.2512"/>
<polygon fill="#000000" stroke="#000000" points="361.8406,-144.7495 371.7498,-141 361.6652,-137.7517 361.8406,-144.7495"/>
</g>
<!-- dwi_preproc_wfeddy_wf -->
<g id="node7" class="node">
<title>dwi_preproc_wfeddy_wf</title>
<polygon fill="none" stroke="#000000" points="844.7498,-258.5 844.7498,-373.5 1300.7498,-373.5 1300.7498,-258.5 844.7498,-258.5"/>
<text text-anchor="middle" x="926.7498" y="-358.3" font-family="Times,serif" font-size="14.00" fill="#000000">IN</text>
<polyline fill="none" stroke="#000000" points="844.7498,-350.5 1008.7498,-350.5 "/>
<text text-anchor="middle" x="926.7498" y="-335.3" font-family="Times,serif" font-size="14.00" fill="#000000">inputnode.dwi_file</text>
<polyline fill="none" stroke="#000000" points="844.7498,-327.5 1008.7498,-327.5 "/>
<text text-anchor="middle" x="926.7498" y="-312.3" font-family="Times,serif" font-size="14.00" fill="#000000">inputnode.dwi_mask</text>
<polyline fill="none" stroke="#000000" points="844.7498,-304.5 1008.7498,-304.5 "/>
<text text-anchor="middle" x="926.7498" y="-289.3" font-family="Times,serif" font-size="14.00" fill="#000000">inputnode.in_bval</text>
<polyline fill="none" stroke="#000000" points="844.7498,-281.5 1008.7498,-281.5 "/>
<text text-anchor="middle" x="926.7498" y="-266.3" font-family="Times,serif" font-size="14.00" fill="#000000">inputnode.in_bvec</text>
<polyline fill="none" stroke="#000000" points="1008.7498,-258.5 1008.7498,-373.5 "/>
<text text-anchor="middle" x="1046.7498" y="-350.8" font-family="Times,serif" font-size="14.00" fill="#000000">eddy_wf</text>
<polyline fill="none" stroke="#000000" points="1008.7498,-335.5 1084.7498,-335.5 "/>
<text text-anchor="middle" x="1046.7498" y="-312.8" font-family="Times,serif" font-size="14.00" fill="#000000"> </text>
<polyline fill="none" stroke="#000000" points="1008.7498,-297.5 1084.7498,-297.5 "/>
<text text-anchor="middle" x="1046.7498" y="-274.3" font-family="Times,serif" font-size="14.00" fill="#000000"> </text>
<polyline fill="none" stroke="#000000" points="1084.7498,-258.5 1084.7498,-373.5 "/>
<text text-anchor="middle" x="1192.7498" y="-341.3" font-family="Times,serif" font-size="14.00" fill="#000000">OUT</text>
<polyline fill="none" stroke="#000000" points="1084.7498,-316.5 1300.7498,-316.5 "/>
<text text-anchor="middle" x="1192.7498" y="-283.8" font-family="Times,serif" font-size="14.00" fill="#000000">outputnode.eddy_ref_image</text>
</g>
<!-- dwi_preproc_wfinputnode&#45;&gt;dwi_preproc_wfeddy_wf -->
<g id="edge20" class="edge">
<title>dwi_preproc_wfinputnode:e&#45;&gt;dwi_preproc_wfeddy_wf:w</title>
<path fill="none" stroke="#000000" d="M711.7498,-818C903.7518,-818 877.2092,-600.5635 853.7498,-410 851.7347,-393.6311 846.7649,-390.3689 844.7498,-374 843.0058,-359.8335 832.7093,-317.2014 837.4957,-300.1563"/>
<polygon fill="#000000" stroke="#000000" points="840.0889,-302.5146 844.7498,-293 835.1728,-297.5314 840.0889,-302.5146"/>
</g>
<!-- dwi_preproc_wfinputnode&#45;&gt;dwi_preproc_wfeddy_wf -->
<g id="edge22" class="edge">
<title>dwi_preproc_wfinputnode:e&#45;&gt;dwi_preproc_wfeddy_wf:w</title>
<path fill="none" stroke="#000000" d="M711.7498,-795C809.972,-795 840.7022,-743.7671 882.7498,-655 896.6919,-625.5666 882.1337,-431.7039 873.7498,-410 866.3464,-390.8346 851.5833,-393.3759 844.7498,-374 841.642,-365.1882 836.0048,-302.6291 840.0698,-279.0035"/>
<polygon fill="#000000" stroke="#000000" points="843.2431,-280.4872 844.7498,-270 837.0321,-277.2587 843.2431,-280.4872"/>
</g>
<!-- dwi_preproc_wfbbreg_wf -->
<g id="node10" class="node">
<title>dwi_preproc_wfbbreg_wf</title>
<polygon fill="none" stroke="#000000" points="1357.2498,-258.5 1357.2498,-373.5 1840.2498,-373.5 1840.2498,-258.5 1357.2498,-258.5"/>
<text text-anchor="middle" x="1467.7498" y="-358.3" font-family="Times,serif" font-size="14.00" fill="#000000">IN</text>
<polyline fill="none" stroke="#000000" points="1357.2498,-350.5 1578.2498,-350.5 "/>
<text text-anchor="middle" x="1467.7498" y="-335.3" font-family="Times,serif" font-size="14.00" fill="#000000">inputnode.fsnative2t1w_xfm</text>
<polyline fill="none" stroke="#000000" points="1357.2498,-327.5 1578.2498,-327.5 "/>
<text text-anchor="middle" x="1467.7498" y="-312.3" font-family="Times,serif" font-size="14.00" fill="#000000">inputnode.in_file</text>
<polyline fill="none" stroke="#000000" points="1357.2498,-304.5 1578.2498,-304.5 "/>
<text text-anchor="middle" x="1467.7498" y="-289.3" font-family="Times,serif" font-size="14.00" fill="#000000">inputnode.subject_id</text>
<polyline fill="none" stroke="#000000" points="1357.2498,-281.5 1578.2498,-281.5 "/>
<text text-anchor="middle" x="1467.7498" y="-266.3" font-family="Times,serif" font-size="14.00" fill="#000000">inputnode.subjects_dir</text>
<polyline fill="none" stroke="#000000" points="1578.2498,-258.5 1578.2498,-373.5 "/>
<text text-anchor="middle" x="1619.7498" y="-350.8" font-family="Times,serif" font-size="14.00" fill="#000000">bbreg_wf</text>
<polyline fill="none" stroke="#000000" points="1578.2498,-335.5 1661.2498,-335.5 "/>
<text text-anchor="middle" x="1619.7498" y="-312.8" font-family="Times,serif" font-size="14.00" fill="#000000"> </text>
<polyline fill="none" stroke="#000000" points="1578.2498,-297.5 1661.2498,-297.5 "/>
<text text-anchor="middle" x="1619.7498" y="-274.3" font-family="Times,serif" font-size="14.00" fill="#000000"> </text>
<polyline fill="none" stroke="#000000" points="1661.2498,-258.5 1661.2498,-373.5 "/>
<text text-anchor="middle" x="1750.7498" y="-350.8" font-family="Times,serif" font-size="14.00" fill="#000000">OUT</text>
<polyline fill="none" stroke="#000000" points="1661.2498,-335.5 1840.2498,-335.5 "/>
<text text-anchor="middle" x="1750.7498" y="-312.8" font-family="Times,serif" font-size="14.00" fill="#000000">outputnode.fallback</text>
<polyline fill="none" stroke="#000000" points="1661.2498,-297.5 1840.2498,-297.5 "/>
<text text-anchor="middle" x="1750.7498" y="-274.3" font-family="Times,serif" font-size="14.00" fill="#000000">outputnode.out_report</text>
</g>
<!-- dwi_preproc_wfinputnode&#45;&gt;dwi_preproc_wfbbreg_wf -->
<g id="edge19" class="edge">
<title>dwi_preproc_wfinputnode:e&#45;&gt;dwi_preproc_wfbbreg_wf:w</title>
<path fill="none" stroke="#000000" d="M711.7498,-841C847.7391,-841 1204.2943,-756.5426 1294.7498,-655 1305.4644,-642.9721 1332.6442,-396.4216 1351.0116,-347.4234"/>
<polygon fill="#000000" stroke="#000000" points="1354.0124,-349.2351 1356.7498,-339 1348.2272,-345.2941 1354.0124,-349.2351"/>
</g>
<!-- dwi_preproc_wfinputnode&#45;&gt;dwi_preproc_wfbbreg_wf -->
<g id="edge24" class="edge">
<title>dwi_preproc_wfinputnode:e&#45;&gt;dwi_preproc_wfbbreg_wf:w</title>
<path fill="none" stroke="#000000" d="M711.7498,-772C848.9034,-772 1221.4625,-752.6723 1317.7498,-655 1358.6348,-613.5269 1333.6334,-583.8011 1340.7498,-526 1342.1402,-514.7069 1343.4184,-344.0329 1352.4624,-302.2021"/>
<polygon fill="#000000" stroke="#000000" points="1355.699,-303.5426 1356.7498,-293 1349.3539,-300.5863 1355.699,-303.5426"/>
</g>
<!-- dwi_preproc_wfinputnode&#45;&gt;dwi_preproc_wfbbreg_wf -->
<g id="edge25" class="edge">
<title>dwi_preproc_wfinputnode:e&#45;&gt;dwi_preproc_wfbbreg_wf:w</title>
<path fill="none" stroke="#000000" d="M711.7498,-749C782.7445,-749 1294.9456,-706.5596 1343.7498,-655 1383.3328,-613.1821 1352.9679,-583.5136 1355.7498,-526 1355.7876,-525.2179 1355.845,-327.1799 1356.4657,-280.0022"/>
<polygon fill="#000000" stroke="#000000" points="1359.9643,-280.0954 1356.7498,-270 1352.9672,-279.8966 1359.9643,-280.0954"/>
</g>
<!-- dwi_preproc_wfds_report_reg -->
<g id="node11" class="node">
<title>dwi_preproc_wfds_report_reg</title>
<polygon fill="none" stroke="#000000" points="1840.7498,-118 1840.7498,-210 2102.7498,-210 2102.7498,-118 1840.7498,-118"/>
<text text-anchor="middle" x="1888.2498" y="-194.8" font-family="Times,serif" font-size="14.00" fill="#000000">IN</text>
<polyline fill="none" stroke="#000000" points="1840.7498,-187 1935.7498,-187 "/>
<text text-anchor="middle" x="1888.2498" y="-171.8" font-family="Times,serif" font-size="14.00" fill="#000000">desc</text>
<polyline fill="none" stroke="#000000" points="1840.7498,-164 1935.7498,-164 "/>
<text text-anchor="middle" x="1888.2498" y="-148.8" font-family="Times,serif" font-size="14.00" fill="#000000">in_file</text>
<polyline fill="none" stroke="#000000" points="1840.7498,-141 1935.7498,-141 "/>
<text text-anchor="middle" x="1888.2498" y="-125.8" font-family="Times,serif" font-size="14.00" fill="#000000">source_file</text>
<polyline fill="none" stroke="#000000" points="1935.7498,-118 1935.7498,-210 "/>
<text text-anchor="middle" x="1994.2498" y="-191.3" font-family="Times,serif" font-size="14.00" fill="#000000">ds_report_reg</text>
<polyline fill="none" stroke="#000000" points="1935.7498,-180 2052.7498,-180 "/>
<text text-anchor="middle" x="1994.2498" y="-160.8" font-family="Times,serif" font-size="14.00" fill="#000000"> </text>
<polyline fill="none" stroke="#000000" points="1935.7498,-149 2052.7498,-149 "/>
<text text-anchor="middle" x="1994.2498" y="-129.8" font-family="Times,serif" font-size="14.00" fill="#000000"> </text>
<polyline fill="none" stroke="#000000" points="2052.7498,-118 2052.7498,-210 "/>
<text text-anchor="middle" x="2077.7498" y="-160.3" font-family="Times,serif" font-size="14.00" fill="#000000">OUT</text>
</g>
<!-- dwi_preproc_wfinputnode&#45;&gt;dwi_preproc_wfds_report_reg -->
<g id="edge15" class="edge">
<title>dwi_preproc_wfinputnode:e&#45;&gt;dwi_preproc_wfds_report_reg:w</title>
<path fill="none" stroke="#000000" d="M711.7498,-864C1055.3556,-864 1114.5073,-656.7461 1309.7498,-374 1340.6558,-329.2425 1309.0057,-295.1326 1348.7498,-258 1429.0016,-183.0212 1711.1051,-131.9563 1830.7146,-129.1241"/>
<polygon fill="#000000" stroke="#000000" points="1830.7939,-132.6235 1840.7498,-129 1830.7072,-125.624 1830.7939,-132.6235"/>
</g>
<!-- dwi_preproc_wfgradient_table&#45;&gt;dwi_preproc_wfdwi_reference_wf -->
<g id="edge13" class="edge">
<title>dwi_preproc_wfgradient_table:e&#45;&gt;dwi_preproc_wfdwi_reference_wf:w</title>
<path fill="none" stroke="#000000" d="M683.7498,-609.5C704.8609,-609.5 697.9089,-577.6588 683.7498,-562 630.2713,-502.8575 380.2282,-585.1425 326.7498,-526 320.3781,-518.9535 316.439,-490.4143 320.2113,-476.585"/>
<polygon fill="#000000" stroke="#000000" points="322.8716,-478.8595 326.7498,-469 317.5696,-474.2891 322.8716,-478.8595"/>
</g>
<!-- dwi_preproc_wfoutputnode -->
<g id="node5" class="node">
<title>dwi_preproc_wfoutputnode</title>
<polygon fill="none" stroke="#000000" points="299.2498,-270 299.2498,-362 640.2498,-362 640.2498,-270 299.2498,-270"/>
<text text-anchor="middle" x="361.2498" y="-346.8" font-family="Times,serif" font-size="14.00" fill="#000000">IN</text>
<polyline fill="none" stroke="#000000" points="299.2498,-339 423.2498,-339 "/>
<text text-anchor="middle" x="361.2498" y="-323.8" font-family="Times,serif" font-size="14.00" fill="#000000">dwi_mask</text>
<polyline fill="none" stroke="#000000" points="299.2498,-316 423.2498,-316 "/>
<text text-anchor="middle" x="361.2498" y="-300.8" font-family="Times,serif" font-size="14.00" fill="#000000">dwi_reference</text>
<polyline fill="none" stroke="#000000" points="299.2498,-293 423.2498,-293 "/>
<text text-anchor="middle" x="361.2498" y="-277.8" font-family="Times,serif" font-size="14.00" fill="#000000">gradients_rasb</text>
<polyline fill="none" stroke="#000000" points="423.2498,-270 423.2498,-362 "/>
<text text-anchor="middle" x="472.2498" y="-343.3" font-family="Times,serif" font-size="14.00" fill="#000000">outputnode</text>
<polyline fill="none" stroke="#000000" points="423.2498,-332 521.2498,-332 "/>
<text text-anchor="middle" x="472.2498" y="-312.8" font-family="Times,serif" font-size="14.00" fill="#000000">utility</text>
<polyline fill="none" stroke="#000000" points="423.2498,-301 521.2498,-301 "/>
<text text-anchor="middle" x="472.2498" y="-281.8" font-family="Times,serif" font-size="14.00" fill="#000000"> </text>
<polyline fill="none" stroke="#000000" points="521.2498,-270 521.2498,-362 "/>
<text text-anchor="middle" x="580.7498" y="-343.3" font-family="Times,serif" font-size="14.00" fill="#000000">OUT</text>
<polyline fill="none" stroke="#000000" points="521.2498,-332 640.2498,-332 "/>
<text text-anchor="middle" x="580.7498" y="-312.8" font-family="Times,serif" font-size="14.00" fill="#000000">dwi_mask</text>
<polyline fill="none" stroke="#000000" points="521.2498,-301 640.2498,-301 "/>
<text text-anchor="middle" x="580.7498" y="-281.8" font-family="Times,serif" font-size="14.00" fill="#000000">dwi_reference</text>
</g>
<!-- dwi_preproc_wfgradient_table&#45;&gt;dwi_preproc_wfoutputnode -->
<g id="edge14" class="edge">
<title>dwi_preproc_wfgradient_table:e&#45;&gt;dwi_preproc_wfoutputnode:w</title>
<path fill="none" stroke="#000000" d="M683.7498,-577.5C690.6387,-577.5 688.3764,-567.104 683.7498,-562 628.8621,-501.4487 376.0462,-583.2768 317.7498,-526 300.4036,-508.9572 277.2264,-327.9347 291.6529,-288.5399"/>
<polygon fill="#000000" stroke="#000000" points="294.4445,-290.6807 298.7498,-281 289.3472,-285.883 294.4445,-290.6807"/>
</g>
<!-- dwi_preproc_wfdwi_reference_wf&#45;&gt;dwi_preproc_wfoutputnode -->
<g id="edge6" class="edge">
<title>dwi_preproc_wfdwi_reference_wf:e&#45;&gt;dwi_preproc_wfoutputnode:w</title>
<path fill="none" stroke="#000000" d="M844.7498,-468C857.6387,-468 853.4597,-419.5006 844.7498,-410 762.4466,-320.2259 381.0529,-452.2741 298.7498,-362.5 291.4641,-354.553 286.8433,-340.7252 290.072,-333.2153"/>
<polygon fill="#000000" stroke="#000000" points="291.9816,-336.1512 298.7498,-328 288.3757,-330.1514 291.9816,-336.1512"/>
</g>
<!-- dwi_preproc_wfdwi_reference_wf&#45;&gt;dwi_preproc_wfoutputnode -->
<g id="edge9" class="edge">
<title>dwi_preproc_wfdwi_reference_wf:e&#45;&gt;dwi_preproc_wfoutputnode:w</title>
<path fill="none" stroke="#000000" d="M844.7498,-445C860.3053,-445 855.2618,-421.4662 844.7498,-410 762.4466,-320.2259 381.0529,-452.2741 298.7498,-362.5 283.9251,-346.3296 275.6073,-315.7998 288.9875,-306.654"/>
<polygon fill="#000000" stroke="#000000" points="290.0182,-310.0009 298.7498,-304 288.1818,-303.2461 290.0182,-310.0009"/>
</g>
<!-- dwi_preproc_wfdwi_reference_wf&#45;&gt;dwi_preproc_wfreportlets_wf -->
<g id="edge10" class="edge">
<title>dwi_preproc_wfdwi_reference_wf:e&#45;&gt;dwi_preproc_wfreportlets_wf:w</title>
<path fill="none" stroke="#000000" d="M844.7498,-422C850.0831,-422 847.6456,-414.4787 844.7498,-410 823.5795,-377.2583 796.8383,-396.1478 764.7498,-374 704.7445,-332.5837 714.168,-290.1932 648.7498,-258 593.0552,-230.5919 412.7162,-268.6351 371.7498,-222 343.7469,-190.1223 328.2056,-129.1327 361.5991,-119.3411"/>
<polygon fill="#000000" stroke="#000000" points="362.2944,-122.7798 371.7498,-118 361.3774,-115.8401 362.2944,-122.7798"/>
</g>
<!-- dwi_preproc_wfdwi_reference_wf&#45;&gt;dwi_preproc_wfeddy_wf -->
<g id="edge4" class="edge">
<title>dwi_preproc_wfdwi_reference_wf:e&#45;&gt;dwi_preproc_wfeddy_wf:w</title>
<path fill="none" stroke="#000000" d="M844.7498,-491C844.7498,-491 844.7498,-383.7887 844.7498,-349.4476"/>
<polygon fill="#000000" stroke="#000000" points="848.2499,-349 844.7498,-339 841.2499,-349 848.2499,-349"/>
</g>
<!-- dwi_preproc_wfdwi_reference_wf&#45;&gt;dwi_preproc_wfeddy_wf -->
<g id="edge5" class="edge">
<title>dwi_preproc_wfdwi_reference_wf:e&#45;&gt;dwi_preproc_wfeddy_wf:w</title>
<path fill="none" stroke="#000000" d="M844.7498,-468C874.4373,-468 825.8472,-350.5836 836.5768,-322.1468"/>
<polygon fill="#000000" stroke="#000000" points="838.8616,-324.8079 844.7498,-316 834.654,-319.2136 838.8616,-324.8079"/>
</g>
<!-- dwi_preproc_wfeddy_report -->
<g id="node8" class="node">
<title>dwi_preproc_wfeddy_report</title>
<polygon fill="none" stroke="#000000" points="816.7498,-129.5 816.7498,-198.5 1074.7498,-198.5 1074.7498,-129.5 816.7498,-129.5"/>
<text text-anchor="middle" x="847.7498" y="-183.3" font-family="Times,serif" font-size="14.00" fill="#000000">IN</text>
<polyline fill="none" stroke="#000000" points="816.7498,-175.5 878.7498,-175.5 "/>
<text text-anchor="middle" x="847.7498" y="-160.3" font-family="Times,serif" font-size="14.00" fill="#000000">after</text>
<polyline fill="none" stroke="#000000" points="816.7498,-152.5 878.7498,-152.5 "/>
<text text-anchor="middle" x="847.7498" y="-137.3" font-family="Times,serif" font-size="14.00" fill="#000000">before</text>
<polyline fill="none" stroke="#000000" points="878.7498,-129.5 878.7498,-198.5 "/>
<text text-anchor="middle" x="930.7498" y="-183.3" font-family="Times,serif" font-size="14.00" fill="#000000">eddy_report</text>
<polyline fill="none" stroke="#000000" points="878.7498,-175.5 982.7498,-175.5 "/>
<text text-anchor="middle" x="930.7498" y="-160.3" font-family="Times,serif" font-size="14.00" fill="#000000">reportlets</text>
<polyline fill="none" stroke="#000000" points="878.7498,-152.5 982.7498,-152.5 "/>
<text text-anchor="middle" x="930.7498" y="-137.3" font-family="Times,serif" font-size="14.00" fill="#000000"> </text>
<polyline fill="none" stroke="#000000" points="982.7498,-129.5 982.7498,-198.5 "/>
<text text-anchor="middle" x="1028.7498" y="-177.8" font-family="Times,serif" font-size="14.00" fill="#000000">OUT</text>
<polyline fill="none" stroke="#000000" points="982.7498,-164.5 1074.7498,-164.5 "/>
<text text-anchor="middle" x="1028.7498" y="-143.3" font-family="Times,serif" font-size="14.00" fill="#000000">out_report</text>
</g>
<!-- dwi_preproc_wfdwi_reference_wf&#45;&gt;dwi_preproc_wfeddy_report -->
<g id="edge8" class="edge">
<title>dwi_preproc_wfdwi_reference_wf:e&#45;&gt;dwi_preproc_wfeddy_report:w</title>
<path fill="none" stroke="#000000" d="M844.7498,-445C860.2781,-445 836.4406,-377.8719 835.7498,-374 827.3022,-326.6537 773.687,-167.2745 806.995,-143.8775"/>
<polygon fill="#000000" stroke="#000000" points="808.1486,-147.1863 816.7498,-141 806.1681,-140.4723 808.1486,-147.1863"/>
</g>
<!-- dwi_preproc_wfds_report_eddy -->
<g id="node9" class="node">
<title>dwi_preproc_wfds_report_eddy</title>
<polygon fill="none" stroke="#000000" points="927.2498,-.5 927.2498,-69.5 1200.2498,-69.5 1200.2498,-.5 927.2498,-.5"/>
<text text-anchor="middle" x="974.7498" y="-54.3" font-family="Times,serif" font-size="14.00" fill="#000000">IN</text>
<polyline fill="none" stroke="#000000" points="927.2498,-46.5 1022.2498,-46.5 "/>
<text text-anchor="middle" x="974.7498" y="-31.3" font-family="Times,serif" font-size="14.00" fill="#000000">in_file</text>
<polyline fill="none" stroke="#000000" points="927.2498,-23.5 1022.2498,-23.5 "/>
<text text-anchor="middle" x="974.7498" y="-8.3" font-family="Times,serif" font-size="14.00" fill="#000000">source_file</text>
<polyline fill="none" stroke="#000000" points="1022.2498,-.5 1022.2498,-69.5 "/>
<text text-anchor="middle" x="1086.2498" y="-54.3" font-family="Times,serif" font-size="14.00" fill="#000000">ds_report_eddy</text>
<polyline fill="none" stroke="#000000" points="1022.2498,-46.5 1150.2498,-46.5 "/>
<text text-anchor="middle" x="1086.2498" y="-31.3" font-family="Times,serif" font-size="14.00" fill="#000000"> </text>
<polyline fill="none" stroke="#000000" points="1022.2498,-23.5 1150.2498,-23.5 "/>
<text text-anchor="middle" x="1086.2498" y="-8.3" font-family="Times,serif" font-size="14.00" fill="#000000"> </text>
<polyline fill="none" stroke="#000000" points="1150.2498,-.5 1150.2498,-69.5 "/>
<text text-anchor="middle" x="1175.2498" y="-31.3" font-family="Times,serif" font-size="14.00" fill="#000000">OUT</text>
</g>
<!-- dwi_preproc_wfdwi_reference_wf&#45;&gt;dwi_preproc_wfds_report_eddy -->
<g id="edge3" class="edge">
<title>dwi_preproc_wfdwi_reference_wf:e&#45;&gt;dwi_preproc_wfds_report_eddy:w</title>
<path fill="none" stroke="#000000" d="M844.7498,-491C862.7498,-491 852.1735,-426.3978 844.7498,-410 834.7484,-387.9088 813.7511,-396.0912 803.7498,-374 794.5942,-353.7769 802.4383,-116.6065 807.7498,-106 836.3376,-48.9134 857.0672,-15.6318 916.4626,-12.2804"/>
<polygon fill="#000000" stroke="#000000" points="916.8489,-15.7713 926.7498,-12 916.6581,-8.7739 916.8489,-15.7713"/>
</g>
<!-- dwi_preproc_wfdwi_reference_wf&#45;&gt;dwi_preproc_wfbbreg_wf -->
<g id="edge7" class="edge">
<title>dwi_preproc_wfdwi_reference_wf:e&#45;&gt;dwi_preproc_wfbbreg_wf:w</title>
<path fill="none" stroke="#000000" d="M844.7498,-445C949.2807,-445 1219.0695,-425.9982 1309.7498,-374 1335.047,-359.494 1326.5529,-325.6832 1346.6511,-317.7074"/>
<polygon fill="#000000" stroke="#000000" points="1347.4732,-321.1181 1356.7498,-316 1346.3062,-314.2161 1347.4732,-321.1181"/>
</g>
<!-- dwi_preproc_wfoutputnode&#45;&gt;dwi_preproc_wfreportlets_wf -->
<g id="edge28" class="edge">
<title>dwi_preproc_wfoutputnode:e&#45;&gt;dwi_preproc_wfreportlets_wf:w</title>
<path fill="none" stroke="#000000" d="M640.7498,-317C661.8609,-317 654.3177,-285.6737 640.7498,-269.5 562.7235,-176.4887 449.7761,-315.0113 371.7498,-222 364.7203,-213.6205 359.8856,-199.7212 363.0419,-192.207"/>
<polygon fill="#000000" stroke="#000000" points="364.9634,-195.1361 371.7498,-187 361.3709,-189.1282 364.9634,-195.1361"/>
</g>
<!-- dwi_preproc_wfoutputnode&#45;&gt;dwi_preproc_wfreportlets_wf -->
<g id="edge29" class="edge">
<title>dwi_preproc_wfoutputnode:e&#45;&gt;dwi_preproc_wfreportlets_wf:w</title>
<path fill="none" stroke="#000000" d="M640.7498,-285C647.6387,-285 645.1772,-274.7777 640.7498,-269.5 562.7235,-176.4887 449.7761,-315.0113 371.7498,-222 357.9006,-205.4911 349.1922,-176.0531 361.7655,-166.8381"/>
<polygon fill="#000000" stroke="#000000" points="363.0879,-170.101 371.7498,-164 361.1738,-163.3677 363.0879,-170.101"/>
</g>
<!-- dwi_preproc_wfeddy_wf&#45;&gt;dwi_preproc_wfeddy_report -->
<g id="edge12" class="edge">
<title>dwi_preproc_wfeddy_wf:e&#45;&gt;dwi_preproc_wfeddy_report:w</title>
<path fill="none" stroke="#000000" d="M1300.7498,-287C1313.6387,-287 1309.2944,-267.6495 1300.7498,-258 1157.0871,-95.7612 960.4125,-361.2388 816.7498,-199 809.4988,-190.8115 804.7541,-176.8346 807.9833,-169.2575"/>
<polygon fill="#000000" stroke="#000000" points="809.974,-172.1449 816.7498,-164 806.3736,-166.1417 809.974,-172.1449"/>
</g>
<!-- dwi_preproc_wfeddy_report&#45;&gt;dwi_preproc_wfds_report_eddy -->
<g id="edge11" class="edge">
<title>dwi_preproc_wfeddy_report:e&#45;&gt;dwi_preproc_wfds_report_eddy:w</title>
<path fill="none" stroke="#000000" d="M1074.7498,-147C1082.7498,-147 1079.2387,-135.6219 1074.7498,-129 1035.0164,-70.3862 966.4831,-128.6138 926.7498,-70 920.749,-61.1478 915.6469,-47.9244 918.0988,-40.5243"/>
<polygon fill="#000000" stroke="#000000" points="920.2053,-43.3319 926.7498,-35 916.4379,-37.4322 920.2053,-43.3319"/>
</g>
<!-- dwi_preproc_wfbbreg_wf&#45;&gt;dwi_preproc_wfds_report_reg -->
<g id="edge1" class="edge">
<title>dwi_preproc_wfbbreg_wf:e&#45;&gt;dwi_preproc_wfds_report_reg:w</title>
<path fill="none" stroke="#000000" d="M1840.7498,-317C1899.255,-317 1793.8999,-194.1048 1830.6424,-177.7828"/>
<polygon fill="#000000" stroke="#000000" points="1831.5098,-181.1839 1840.7498,-176 1830.2938,-174.2903 1831.5098,-181.1839"/>
</g>
<!-- dwi_preproc_wfbbreg_wf&#45;&gt;dwi_preproc_wfds_report_reg -->
<g id="edge2" class="edge">
<title>dwi_preproc_wfbbreg_wf:e&#45;&gt;dwi_preproc_wfds_report_reg:w</title>
<path fill="none" stroke="#000000" d="M1840.7498,-278C1892.5935,-278 1800.4494,-170.0091 1830.9199,-153.9792"/>
<polygon fill="#000000" stroke="#000000" points="1831.6374,-157.405 1840.7498,-152 1830.2556,-150.5427 1831.6374,-157.405"/>
</g>
</g>
</svg>
