<?xml version="1.0" encoding="UTF-8" standalone="no"?>
<!DOCTYPE svg PUBLIC "-//W3C//DTD SVG 1.1//EN"
 "http://www.w3.org/Graphics/SVG/1.1/DTD/svg11.dtd">
<!-- Generated by graphviz version 2.40.1 (20161225.0304)
 -->
<!-- Title: structs Pages: 1 -->
<svg width="1065pt" height="1267pt"
 viewBox="0.00 0.00 1065.20 1267.00" xmlns="http://www.w3.org/2000/svg" xmlns:xlink="http://www.w3.org/1999/xlink">
<g id="graph0" class="graph" transform="scale(1 1) rotate(0) translate(4 1263)">
<title>structs</title>
<polygon fill="#ffffff" stroke="transparent" points="-4,4 -4,-1263 1061.1954,-1263 1061.1954,4 -4,4"/>
<!-- enhance_and_skullstrip_dwi_wfinputnode -->
<g id="node1" class="node">
<title>enhance_and_skullstrip_dwi_wfinputnode</title>
<polygon fill="none" stroke="#000000" points="224.6954,-1189.5 224.6954,-1258.5 434.6954,-1258.5 434.6954,-1189.5 224.6954,-1189.5"/>
<text text-anchor="middle" x="242.1954" y="-1220.3" font-family="Times,serif" font-size="14.00" fill="#000000">IN</text>
<polyline fill="none" stroke="#000000" points="259.6954,-1189.5 259.6954,-1258.5 "/>
<text text-anchor="middle" x="304.1954" y="-1243.3" font-family="Times,serif" font-size="14.00" fill="#000000">inputnode</text>
<polyline fill="none" stroke="#000000" points="259.6954,-1235.5 348.6954,-1235.5 "/>
<text text-anchor="middle" x="304.1954" y="-1220.3" font-family="Times,serif" font-size="14.00" fill="#000000">utility</text>
<polyline fill="none" stroke="#000000" points="259.6954,-1212.5 348.6954,-1212.5 "/>
<text text-anchor="middle" x="304.1954" y="-1197.3" font-family="Times,serif" font-size="14.00" fill="#000000"> </text>
<polyline fill="none" stroke="#000000" points="348.6954,-1189.5 348.6954,-1258.5 "/>
<text text-anchor="middle" x="391.6954" y="-1243.3" font-family="Times,serif" font-size="14.00" fill="#000000">OUT</text>
<polyline fill="none" stroke="#000000" points="348.6954,-1235.5 434.6954,-1235.5 "/>
<text text-anchor="middle" x="391.6954" y="-1220.3" font-family="Times,serif" font-size="14.00" fill="#000000">in_file</text>
<polyline fill="none" stroke="#000000" points="348.6954,-1212.5 434.6954,-1212.5 "/>
<text text-anchor="middle" x="391.6954" y="-1197.3" font-family="Times,serif" font-size="14.00" fill="#000000">pre_mask</text>
</g>
<!-- enhance_and_skullstrip_dwi_wfn4_correct -->
<g id="node2" class="node">
<title>enhance_and_skullstrip_dwi_wfn4_correct</title>
<polygon fill="none" stroke="#000000" points="16.6954,-1083.5 16.6954,-1152.5 332.6954,-1152.5 332.6954,-1083.5 16.6954,-1083.5"/>
<text text-anchor="middle" x="69.6954" y="-1137.3" font-family="Times,serif" font-size="14.00" fill="#000000">IN</text>
<polyline fill="none" stroke="#000000" points="16.6954,-1129.5 122.6954,-1129.5 "/>
<text text-anchor="middle" x="69.6954" y="-1114.3" font-family="Times,serif" font-size="14.00" fill="#000000">input_image</text>
<polyline fill="none" stroke="#000000" points="16.6954,-1106.5 122.6954,-1106.5 "/>
<text text-anchor="middle" x="69.6954" y="-1091.3" font-family="Times,serif" font-size="14.00" fill="#000000">mask_image</text>
<polyline fill="none" stroke="#000000" points="122.6954,-1083.5 122.6954,-1152.5 "/>
<text text-anchor="middle" x="170.1954" y="-1137.3" font-family="Times,serif" font-size="14.00" fill="#000000">n4_correct</text>
<polyline fill="none" stroke="#000000" points="122.6954,-1129.5 217.6954,-1129.5 "/>
<text text-anchor="middle" x="170.1954" y="-1114.3" font-family="Times,serif" font-size="14.00" fill="#000000">fixes</text>
<polyline fill="none" stroke="#000000" points="122.6954,-1106.5 217.6954,-1106.5 "/>
<text text-anchor="middle" x="170.1954" y="-1091.3" font-family="Times,serif" font-size="14.00" fill="#000000"> </text>
<polyline fill="none" stroke="#000000" points="217.6954,-1083.5 217.6954,-1152.5 "/>
<text text-anchor="middle" x="275.1954" y="-1131.8" font-family="Times,serif" font-size="14.00" fill="#000000">OUT</text>
<polyline fill="none" stroke="#000000" points="217.6954,-1118.5 332.6954,-1118.5 "/>
<text text-anchor="middle" x="275.1954" y="-1097.3" font-family="Times,serif" font-size="14.00" fill="#000000">output_image</text>
</g>
<!-- enhance_and_skullstrip_dwi_wfinputnode&#45;&gt;enhance_and_skullstrip_dwi_wfn4_correct -->
<g id="edge9" class="edge">
<title>enhance_and_skullstrip_dwi_wfinputnode:e&#45;&gt;enhance_and_skullstrip_dwi_wfn4_correct:w</title>
<path fill="none" stroke="#000000" d="M434.6954,-1224C450.2509,-1224 445.2123,-1200.4616 434.6954,-1189 371.6617,-1120.3043 79.729,-1221.6957 16.6954,-1153 9.3006,-1144.941 4.6143,-1130.9115 7.8909,-1123.2918"/>
<polygon fill="#000000" stroke="#000000" points="9.9273,-1126.1514 16.6954,-1118 6.3213,-1120.1516 9.9273,-1126.1514"/>
</g>
<!-- enhance_and_skullstrip_dwi_wfinputnode&#45;&gt;enhance_and_skullstrip_dwi_wfn4_correct -->
<g id="edge10" class="edge">
<title>enhance_and_skullstrip_dwi_wfinputnode:e&#45;&gt;enhance_and_skullstrip_dwi_wfn4_correct:w</title>
<path fill="none" stroke="#000000" d="M434.6954,-1201C440.0287,-1201 438.3012,-1192.9297 434.6954,-1189 371.6617,-1120.3043 79.729,-1221.6957 16.6954,-1153 1.9904,-1136.9742 -6.2515,-1106.7009 7.016,-1097.6318"/>
<polygon fill="#000000" stroke="#000000" points="7.964,-1101.0012 16.6954,-1095 6.1274,-1094.2464 7.964,-1101.0012"/>
</g>
<!-- enhance_and_skullstrip_dwi_wffixhdr_unifize -->
<g id="node7" class="node">
<title>enhance_and_skullstrip_dwi_wffixhdr_unifize</title>
<polygon fill="none" stroke="#000000" points="676.6954,-553.5 676.6954,-622.5 932.6954,-622.5 932.6954,-553.5 676.6954,-553.5"/>
<text text-anchor="middle" x="712.1954" y="-607.3" font-family="Times,serif" font-size="14.00" fill="#000000">IN</text>
<polyline fill="none" stroke="#000000" points="676.6954,-599.5 747.6954,-599.5 "/>
<text text-anchor="middle" x="712.1954" y="-584.3" font-family="Times,serif" font-size="14.00" fill="#000000">hdr_file</text>
<polyline fill="none" stroke="#000000" points="676.6954,-576.5 747.6954,-576.5 "/>
<text text-anchor="middle" x="712.1954" y="-561.3" font-family="Times,serif" font-size="14.00" fill="#000000">in_file</text>
<polyline fill="none" stroke="#000000" points="747.6954,-553.5 747.6954,-622.5 "/>
<text text-anchor="middle" x="805.1954" y="-607.3" font-family="Times,serif" font-size="14.00" fill="#000000">fixhdr_unifize</text>
<polyline fill="none" stroke="#000000" points="747.6954,-599.5 862.6954,-599.5 "/>
<text text-anchor="middle" x="805.1954" y="-584.3" font-family="Times,serif" font-size="14.00" fill="#000000">utils</text>
<polyline fill="none" stroke="#000000" points="747.6954,-576.5 862.6954,-576.5 "/>
<text text-anchor="middle" x="805.1954" y="-561.3" font-family="Times,serif" font-size="14.00" fill="#000000"> </text>
<polyline fill="none" stroke="#000000" points="862.6954,-553.5 862.6954,-622.5 "/>
<text text-anchor="middle" x="897.6954" y="-601.8" font-family="Times,serif" font-size="14.00" fill="#000000">OUT</text>
<polyline fill="none" stroke="#000000" points="862.6954,-588.5 932.6954,-588.5 "/>
<text text-anchor="middle" x="897.6954" y="-567.3" font-family="Times,serif" font-size="14.00" fill="#000000">out_file</text>
</g>
<!-- enhance_and_skullstrip_dwi_wfinputnode&#45;&gt;enhance_and_skullstrip_dwi_wffixhdr_unifize -->
<g id="edge8" class="edge">
<title>enhance_and_skullstrip_dwi_wfinputnode:e&#45;&gt;enhance_and_skullstrip_dwi_wffixhdr_unifize:w</title>
<path fill="none" stroke="#000000" d="M434.6954,-1224C486.702,-1224 623.5762,-1192.2502 657.6954,-1153 699.3994,-1105.0243 681.6954,-1075.568 681.6954,-1012 681.6954,-1012 681.6954,-1012 681.6954,-800 681.6954,-779.3832 659.8275,-632.5333 670.1453,-596.143"/>
<polygon fill="#000000" stroke="#000000" points="673.1548,-597.9857 676.6954,-588 667.7004,-593.5983 673.1548,-597.9857"/>
</g>
<!-- enhance_and_skullstrip_dwi_wffixhdr_skullstrip2 -->
<g id="node9" class="node">
<title>enhance_and_skullstrip_dwi_wffixhdr_skullstrip2</title>
<polygon fill="none" stroke="#000000" points="644.1954,-341.5 644.1954,-410.5 929.1954,-410.5 929.1954,-341.5 644.1954,-341.5"/>
<text text-anchor="middle" x="679.6954" y="-395.3" font-family="Times,serif" font-size="14.00" fill="#000000">IN</text>
<polyline fill="none" stroke="#000000" points="644.1954,-387.5 715.1954,-387.5 "/>
<text text-anchor="middle" x="679.6954" y="-372.3" font-family="Times,serif" font-size="14.00" fill="#000000">hdr_file</text>
<polyline fill="none" stroke="#000000" points="644.1954,-364.5 715.1954,-364.5 "/>
<text text-anchor="middle" x="679.6954" y="-349.3" font-family="Times,serif" font-size="14.00" fill="#000000">in_file</text>
<polyline fill="none" stroke="#000000" points="715.1954,-341.5 715.1954,-410.5 "/>
<text text-anchor="middle" x="787.1954" y="-395.3" font-family="Times,serif" font-size="14.00" fill="#000000">fixhdr_skullstrip2</text>
<polyline fill="none" stroke="#000000" points="715.1954,-387.5 859.1954,-387.5 "/>
<text text-anchor="middle" x="787.1954" y="-372.3" font-family="Times,serif" font-size="14.00" fill="#000000">utils</text>
<polyline fill="none" stroke="#000000" points="715.1954,-364.5 859.1954,-364.5 "/>
<text text-anchor="middle" x="787.1954" y="-349.3" font-family="Times,serif" font-size="14.00" fill="#000000"> </text>
<polyline fill="none" stroke="#000000" points="859.1954,-341.5 859.1954,-410.5 "/>
<text text-anchor="middle" x="894.1954" y="-389.8" font-family="Times,serif" font-size="14.00" fill="#000000">OUT</text>
<polyline fill="none" stroke="#000000" points="859.1954,-376.5 929.1954,-376.5 "/>
<text text-anchor="middle" x="894.1954" y="-355.3" font-family="Times,serif" font-size="14.00" fill="#000000">out_file</text>
</g>
<!-- enhance_and_skullstrip_dwi_wfinputnode&#45;&gt;enhance_and_skullstrip_dwi_wffixhdr_skullstrip2 -->
<g id="edge7" class="edge">
<title>enhance_and_skullstrip_dwi_wfinputnode:e&#45;&gt;enhance_and_skullstrip_dwi_wffixhdr_skullstrip2:w</title>
<path fill="none" stroke="#000000" d="M434.6954,-1224C567.0062,-1224 643.6954,-1144.3109 643.6954,-1012 643.6954,-1012 643.6954,-1012 643.6954,-588 643.6954,-497.4583 556.6905,-385.1654 633.4995,-376.5307"/>
<polygon fill="#000000" stroke="#000000" points="633.8908,-380.0152 643.6954,-376 633.5269,-373.0246 633.8908,-380.0152"/>
</g>
<!-- enhance_and_skullstrip_dwi_wfskullstrip_first_pass -->
<g id="node3" class="node">
<title>enhance_and_skullstrip_dwi_wfskullstrip_first_pass</title>
<polygon fill="none" stroke="#000000" points="124.1954,-977.5 124.1954,-1046.5 431.1954,-1046.5 431.1954,-977.5 124.1954,-977.5"/>
<text text-anchor="middle" x="154.1954" y="-1025.8" font-family="Times,serif" font-size="14.00" fill="#000000">IN</text>
<polyline fill="none" stroke="#000000" points="124.1954,-1012.5 184.1954,-1012.5 "/>
<text text-anchor="middle" x="154.1954" y="-991.3" font-family="Times,serif" font-size="14.00" fill="#000000">in_file</text>
<polyline fill="none" stroke="#000000" points="184.1954,-977.5 184.1954,-1046.5 "/>
<text text-anchor="middle" x="265.1954" y="-1031.3" font-family="Times,serif" font-size="14.00" fill="#000000">skullstrip_first_pass</text>
<polyline fill="none" stroke="#000000" points="184.1954,-1023.5 346.1954,-1023.5 "/>
<text text-anchor="middle" x="265.1954" y="-1008.3" font-family="Times,serif" font-size="14.00" fill="#000000">fsl</text>
<polyline fill="none" stroke="#000000" points="184.1954,-1000.5 346.1954,-1000.5 "/>
<text text-anchor="middle" x="265.1954" y="-985.3" font-family="Times,serif" font-size="14.00" fill="#000000"> </text>
<polyline fill="none" stroke="#000000" points="346.1954,-977.5 346.1954,-1046.5 "/>
<text text-anchor="middle" x="388.6954" y="-1031.3" font-family="Times,serif" font-size="14.00" fill="#000000">OUT</text>
<polyline fill="none" stroke="#000000" points="346.1954,-1023.5 431.1954,-1023.5 "/>
<text text-anchor="middle" x="388.6954" y="-1008.3" font-family="Times,serif" font-size="14.00" fill="#000000">mask_file</text>
<polyline fill="none" stroke="#000000" points="346.1954,-1000.5 431.1954,-1000.5 "/>
<text text-anchor="middle" x="388.6954" y="-985.3" font-family="Times,serif" font-size="14.00" fill="#000000">out_file</text>
</g>
<!-- enhance_and_skullstrip_dwi_wfn4_correct&#45;&gt;enhance_and_skullstrip_dwi_wfskullstrip_first_pass -->
<g id="edge12" class="edge">
<title>enhance_and_skullstrip_dwi_wfn4_correct:e&#45;&gt;enhance_and_skullstrip_dwi_wfskullstrip_first_pass:w</title>
<path fill="none" stroke="#000000" d="M332.6954,-1101C340.6954,-1101 337.8498,-1089.1182 332.6954,-1083 271.9655,-1010.9151 184.4252,-1119.0849 123.6954,-1047 118.2859,-1040.5791 114.637,-1016.0381 117.478,-1003.0974"/>
<polygon fill="#000000" stroke="#000000" points="120.3813,-1005.0632 123.6954,-995 114.8291,-1000.8001 120.3813,-1005.0632"/>
</g>
<!-- enhance_and_skullstrip_dwi_wfoutputnode -->
<g id="node12" class="node">
<title>enhance_and_skullstrip_dwi_wfoutputnode</title>
<polygon fill="none" stroke="#000000" points="756.1954,-.5 756.1954,-92.5 1057.1954,-92.5 1057.1954,-.5 756.1954,-.5"/>
<text text-anchor="middle" x="832.6954" y="-77.3" font-family="Times,serif" font-size="14.00" fill="#000000">IN</text>
<polyline fill="none" stroke="#000000" points="756.1954,-69.5 909.1954,-69.5 "/>
<text text-anchor="middle" x="832.6954" y="-54.3" font-family="Times,serif" font-size="14.00" fill="#000000">bias_corrected_file</text>
<polyline fill="none" stroke="#000000" points="756.1954,-46.5 909.1954,-46.5 "/>
<text text-anchor="middle" x="832.6954" y="-31.3" font-family="Times,serif" font-size="14.00" fill="#000000">mask_file</text>
<polyline fill="none" stroke="#000000" points="756.1954,-23.5 909.1954,-23.5 "/>
<text text-anchor="middle" x="832.6954" y="-8.3" font-family="Times,serif" font-size="14.00" fill="#000000">skull_stripped_file</text>
<polyline fill="none" stroke="#000000" points="909.1954,-.5 909.1954,-92.5 "/>
<text text-anchor="middle" x="958.1954" y="-73.8" font-family="Times,serif" font-size="14.00" fill="#000000">outputnode</text>
<polyline fill="none" stroke="#000000" points="909.1954,-62.5 1007.1954,-62.5 "/>
<text text-anchor="middle" x="958.1954" y="-43.3" font-family="Times,serif" font-size="14.00" fill="#000000">utility</text>
<polyline fill="none" stroke="#000000" points="909.1954,-31.5 1007.1954,-31.5 "/>
<text text-anchor="middle" x="958.1954" y="-12.3" font-family="Times,serif" font-size="14.00" fill="#000000"> </text>
<polyline fill="none" stroke="#000000" points="1007.1954,-.5 1007.1954,-92.5 "/>
<text text-anchor="middle" x="1032.1954" y="-42.8" font-family="Times,serif" font-size="14.00" fill="#000000">OUT</text>
</g>
<!-- enhance_and_skullstrip_dwi_wfn4_correct&#45;&gt;enhance_and_skullstrip_dwi_wfoutputnode -->
<g id="edge11" class="edge">
<title>enhance_and_skullstrip_dwi_wfn4_correct:e&#45;&gt;enhance_and_skullstrip_dwi_wfoutputnode:w</title>
<path fill="none" stroke="#000000" d="M332.6954,-1101C340.6954,-1101 337.8686,-1089.1022 332.6954,-1083 269.4762,-1008.4288 183.7633,-1117.1733 115.6954,-1047 71.6689,-1001.6118 96.6954,-969.2331 96.6954,-906 96.6954,-906 96.6954,-906 96.6954,-270 96.6954,-119.5026 580.4191,-61.0236 745.3043,-58.5803"/>
<polygon fill="#000000" stroke="#000000" points="745.7227,-62.0772 755.6954,-58.5 745.6686,-55.0775 745.7227,-62.0772"/>
</g>
<!-- enhance_and_skullstrip_dwi_wfskullstrip_first_dilate -->
<g id="node4" class="node">
<title>enhance_and_skullstrip_dwi_wfskullstrip_first_dilate</title>
<polygon fill="none" stroke="#000000" points="315.6954,-871.5 315.6954,-940.5 615.6954,-940.5 615.6954,-871.5 315.6954,-871.5"/>
<text text-anchor="middle" x="345.6954" y="-919.8" font-family="Times,serif" font-size="14.00" fill="#000000">IN</text>
<polyline fill="none" stroke="#000000" points="315.6954,-906.5 375.6954,-906.5 "/>
<text text-anchor="middle" x="345.6954" y="-885.3" font-family="Times,serif" font-size="14.00" fill="#000000">in_file</text>
<polyline fill="none" stroke="#000000" points="375.6954,-871.5 375.6954,-940.5 "/>
<text text-anchor="middle" x="460.6954" y="-925.3" font-family="Times,serif" font-size="14.00" fill="#000000">skullstrip_first_dilate</text>
<polyline fill="none" stroke="#000000" points="375.6954,-917.5 545.6954,-917.5 "/>
<text text-anchor="middle" x="460.6954" y="-902.3" font-family="Times,serif" font-size="14.00" fill="#000000">fsl</text>
<polyline fill="none" stroke="#000000" points="375.6954,-894.5 545.6954,-894.5 "/>
<text text-anchor="middle" x="460.6954" y="-879.3" font-family="Times,serif" font-size="14.00" fill="#000000"> </text>
<polyline fill="none" stroke="#000000" points="545.6954,-871.5 545.6954,-940.5 "/>
<text text-anchor="middle" x="580.6954" y="-919.8" font-family="Times,serif" font-size="14.00" fill="#000000">OUT</text>
<polyline fill="none" stroke="#000000" points="545.6954,-906.5 615.6954,-906.5 "/>
<text text-anchor="middle" x="580.6954" y="-885.3" font-family="Times,serif" font-size="14.00" fill="#000000">out_file</text>
</g>
<!-- enhance_and_skullstrip_dwi_wfskullstrip_first_pass&#45;&gt;enhance_and_skullstrip_dwi_wfskullstrip_first_dilate -->
<g id="edge16" class="edge">
<title>enhance_and_skullstrip_dwi_wfskullstrip_first_pass:e&#45;&gt;enhance_and_skullstrip_dwi_wfskullstrip_first_dilate:w</title>
<path fill="none" stroke="#000000" d="M431.6954,-1012C447.2509,-1012 440.9218,-989.5239 431.6954,-977 399.6776,-933.5392 347.7131,-984.4608 315.6954,-941 310.7156,-934.2404 306.8719,-909.8529 309.5744,-897.0214"/>
<polygon fill="#000000" stroke="#000000" points="312.4114,-899.0731 315.6954,-889 306.8465,-894.8266 312.4114,-899.0731"/>
</g>
<!-- enhance_and_skullstrip_dwi_wfskullstrip_first_mask -->
<g id="node5" class="node">
<title>enhance_and_skullstrip_dwi_wfskullstrip_first_mask</title>
<polygon fill="none" stroke="#000000" points="288.1954,-765.5 288.1954,-834.5 611.1954,-834.5 611.1954,-765.5 288.1954,-765.5"/>
<text text-anchor="middle" x="330.6954" y="-819.3" font-family="Times,serif" font-size="14.00" fill="#000000">IN</text>
<polyline fill="none" stroke="#000000" points="288.1954,-811.5 373.1954,-811.5 "/>
<text text-anchor="middle" x="330.6954" y="-796.3" font-family="Times,serif" font-size="14.00" fill="#000000">in_file</text>
<polyline fill="none" stroke="#000000" points="288.1954,-788.5 373.1954,-788.5 "/>
<text text-anchor="middle" x="330.6954" y="-773.3" font-family="Times,serif" font-size="14.00" fill="#000000">mask_file</text>
<polyline fill="none" stroke="#000000" points="373.1954,-765.5 373.1954,-834.5 "/>
<text text-anchor="middle" x="457.1954" y="-819.3" font-family="Times,serif" font-size="14.00" fill="#000000">skullstrip_first_mask</text>
<polyline fill="none" stroke="#000000" points="373.1954,-811.5 541.1954,-811.5 "/>
<text text-anchor="middle" x="457.1954" y="-796.3" font-family="Times,serif" font-size="14.00" fill="#000000">fsl</text>
<polyline fill="none" stroke="#000000" points="373.1954,-788.5 541.1954,-788.5 "/>
<text text-anchor="middle" x="457.1954" y="-773.3" font-family="Times,serif" font-size="14.00" fill="#000000"> </text>
<polyline fill="none" stroke="#000000" points="541.1954,-765.5 541.1954,-834.5 "/>
<text text-anchor="middle" x="576.1954" y="-813.8" font-family="Times,serif" font-size="14.00" fill="#000000">OUT</text>
<polyline fill="none" stroke="#000000" points="541.1954,-800.5 611.1954,-800.5 "/>
<text text-anchor="middle" x="576.1954" y="-779.3" font-family="Times,serif" font-size="14.00" fill="#000000">out_file</text>
</g>
<!-- enhance_and_skullstrip_dwi_wfskullstrip_first_pass&#45;&gt;enhance_and_skullstrip_dwi_wfskullstrip_first_mask -->
<g id="edge17" class="edge">
<title>enhance_and_skullstrip_dwi_wfskullstrip_first_pass:e&#45;&gt;enhance_and_skullstrip_dwi_wfskullstrip_first_mask:w</title>
<path fill="none" stroke="#000000" d="M431.6954,-989C437.0287,-989 434.9026,-981.2612 431.6954,-977 396.929,-930.8078 345.4161,-983.9316 306.6954,-941 288.0843,-920.3651 263.0879,-827.0833 278.7726,-804.7942"/>
<polygon fill="#000000" stroke="#000000" points="280.543,-807.8163 287.6954,-800 277.2298,-801.65 280.543,-807.8163"/>
</g>
<!-- enhance_and_skullstrip_dwi_wfcombine_masks -->
<g id="node10" class="node">
<title>enhance_and_skullstrip_dwi_wfcombine_masks</title>
<polygon fill="none" stroke="#000000" points="463.6954,-235.5 463.6954,-304.5 769.6954,-304.5 769.6954,-235.5 463.6954,-235.5"/>
<text text-anchor="middle" x="516.1954" y="-289.3" font-family="Times,serif" font-size="14.00" fill="#000000">IN</text>
<polyline fill="none" stroke="#000000" points="463.6954,-281.5 568.6954,-281.5 "/>
<text text-anchor="middle" x="516.1954" y="-266.3" font-family="Times,serif" font-size="14.00" fill="#000000">in_file</text>
<polyline fill="none" stroke="#000000" points="463.6954,-258.5 568.6954,-258.5 "/>
<text text-anchor="middle" x="516.1954" y="-243.3" font-family="Times,serif" font-size="14.00" fill="#000000">operand_file</text>
<polyline fill="none" stroke="#000000" points="568.6954,-235.5 568.6954,-304.5 "/>
<text text-anchor="middle" x="634.1954" y="-289.3" font-family="Times,serif" font-size="14.00" fill="#000000">combine_masks</text>
<polyline fill="none" stroke="#000000" points="568.6954,-281.5 699.6954,-281.5 "/>
<text text-anchor="middle" x="634.1954" y="-266.3" font-family="Times,serif" font-size="14.00" fill="#000000">fsl</text>
<polyline fill="none" stroke="#000000" points="568.6954,-258.5 699.6954,-258.5 "/>
<text text-anchor="middle" x="634.1954" y="-243.3" font-family="Times,serif" font-size="14.00" fill="#000000"> </text>
<polyline fill="none" stroke="#000000" points="699.6954,-235.5 699.6954,-304.5 "/>
<text text-anchor="middle" x="734.6954" y="-283.8" font-family="Times,serif" font-size="14.00" fill="#000000">OUT</text>
<polyline fill="none" stroke="#000000" points="699.6954,-270.5 769.6954,-270.5 "/>
<text text-anchor="middle" x="734.6954" y="-249.3" font-family="Times,serif" font-size="14.00" fill="#000000">out_file</text>
</g>
<!-- enhance_and_skullstrip_dwi_wfskullstrip_first_pass&#45;&gt;enhance_and_skullstrip_dwi_wfcombine_masks -->
<g id="edge15" class="edge">
<title>enhance_and_skullstrip_dwi_wfskullstrip_first_pass:e&#45;&gt;enhance_and_skullstrip_dwi_wfcombine_masks:w</title>
<path fill="none" stroke="#000000" d="M431.6954,-1012C447.2509,-1012 441.3795,-989.1734 431.6954,-977 387.3974,-921.3152 324.8793,-992.4203 275.6954,-941 231.6488,-894.9507 249.6954,-863.7232 249.6954,-800 249.6954,-800 249.6954,-800 249.6954,-482 249.6954,-351.5189 325.7981,-274.003 453.6018,-270.1507"/>
<polygon fill="#000000" stroke="#000000" points="453.7488,-273.649 463.6954,-270 453.6442,-266.6498 453.7488,-273.649"/>
</g>
<!-- enhance_and_skullstrip_dwi_wfskullstrip_first_dilate&#45;&gt;enhance_and_skullstrip_dwi_wfskullstrip_first_mask -->
<g id="edge13" class="edge">
<title>enhance_and_skullstrip_dwi_wfskullstrip_first_dilate:e&#45;&gt;enhance_and_skullstrip_dwi_wfskullstrip_first_mask:w</title>
<path fill="none" stroke="#000000" d="M615.6954,-889C623.6954,-889 621.0347,-876.9575 615.6954,-871 566.7557,-816.395 336.635,-889.605 287.6954,-835 273.179,-818.8032 264.8074,-788.6475 278.0298,-779.6193"/>
<polygon fill="#000000" stroke="#000000" points="278.9589,-782.9938 287.6954,-777 277.128,-776.2375 278.9589,-782.9938"/>
</g>
<!-- enhance_and_skullstrip_dwi_wfunifize -->
<g id="node6" class="node">
<title>enhance_and_skullstrip_dwi_wfunifize</title>
<polygon fill="none" stroke="#000000" points="421.1954,-659.5 421.1954,-728.5 616.1954,-728.5 616.1954,-659.5 421.1954,-659.5"/>
<text text-anchor="middle" x="451.1954" y="-707.8" font-family="Times,serif" font-size="14.00" fill="#000000">IN</text>
<polyline fill="none" stroke="#000000" points="421.1954,-694.5 481.1954,-694.5 "/>
<text text-anchor="middle" x="451.1954" y="-673.3" font-family="Times,serif" font-size="14.00" fill="#000000">in_file</text>
<polyline fill="none" stroke="#000000" points="481.1954,-659.5 481.1954,-728.5 "/>
<text text-anchor="middle" x="513.6954" y="-713.3" font-family="Times,serif" font-size="14.00" fill="#000000">unifize</text>
<polyline fill="none" stroke="#000000" points="481.1954,-705.5 546.1954,-705.5 "/>
<text text-anchor="middle" x="513.6954" y="-690.3" font-family="Times,serif" font-size="14.00" fill="#000000">afni</text>
<polyline fill="none" stroke="#000000" points="481.1954,-682.5 546.1954,-682.5 "/>
<text text-anchor="middle" x="513.6954" y="-667.3" font-family="Times,serif" font-size="14.00" fill="#000000"> </text>
<polyline fill="none" stroke="#000000" points="546.1954,-659.5 546.1954,-728.5 "/>
<text text-anchor="middle" x="581.1954" y="-707.8" font-family="Times,serif" font-size="14.00" fill="#000000">OUT</text>
<polyline fill="none" stroke="#000000" points="546.1954,-694.5 616.1954,-694.5 "/>
<text text-anchor="middle" x="581.1954" y="-673.3" font-family="Times,serif" font-size="14.00" fill="#000000">out_file</text>
</g>
<!-- enhance_and_skullstrip_dwi_wfskullstrip_first_mask&#45;&gt;enhance_and_skullstrip_dwi_wfunifize -->
<g id="edge14" class="edge">
<title>enhance_and_skullstrip_dwi_wfskullstrip_first_mask:e&#45;&gt;enhance_and_skullstrip_dwi_wfunifize:w</title>
<path fill="none" stroke="#000000" d="M611.6954,-783C619.6954,-783 616.8015,-771.1585 611.6954,-765 556.5592,-698.5009 475.8315,-795.4991 420.6954,-729 408.5948,-714.4057 400.795,-688.7637 411.1399,-680.0198"/>
<polygon fill="#000000" stroke="#000000" points="412.2149,-683.3508 420.6954,-677 410.1055,-676.6762 412.2149,-683.3508"/>
</g>
<!-- enhance_and_skullstrip_dwi_wfunifize&#45;&gt;enhance_and_skullstrip_dwi_wffixhdr_unifize -->
<g id="edge19" class="edge">
<title>enhance_and_skullstrip_dwi_wfunifize:e&#45;&gt;enhance_and_skullstrip_dwi_wffixhdr_unifize:w</title>
<path fill="none" stroke="#000000" d="M616.6954,-677C669.1954,-677 627.1286,-580.1963 666.3303,-566.5833"/>
<polygon fill="#000000" stroke="#000000" points="667.3385,-569.9699 676.6954,-565 666.2815,-563.0502 667.3385,-569.9699"/>
</g>
<!-- enhance_and_skullstrip_dwi_wfskullstrip_second_pass -->
<g id="node8" class="node">
<title>enhance_and_skullstrip_dwi_wfskullstrip_second_pass</title>
<polygon fill="none" stroke="#000000" points="671.6954,-447.5 671.6954,-516.5 983.6954,-516.5 983.6954,-447.5 671.6954,-447.5"/>
<text text-anchor="middle" x="701.6954" y="-495.8" font-family="Times,serif" font-size="14.00" fill="#000000">IN</text>
<polyline fill="none" stroke="#000000" points="671.6954,-482.5 731.6954,-482.5 "/>
<text text-anchor="middle" x="701.6954" y="-461.3" font-family="Times,serif" font-size="14.00" fill="#000000">in_file</text>
<polyline fill="none" stroke="#000000" points="731.6954,-447.5 731.6954,-516.5 "/>
<text text-anchor="middle" x="822.6954" y="-501.3" font-family="Times,serif" font-size="14.00" fill="#000000">skullstrip_second_pass</text>
<polyline fill="none" stroke="#000000" points="731.6954,-493.5 913.6954,-493.5 "/>
<text text-anchor="middle" x="822.6954" y="-478.3" font-family="Times,serif" font-size="14.00" fill="#000000">afni</text>
<polyline fill="none" stroke="#000000" points="731.6954,-470.5 913.6954,-470.5 "/>
<text text-anchor="middle" x="822.6954" y="-455.3" font-family="Times,serif" font-size="14.00" fill="#000000"> </text>
<polyline fill="none" stroke="#000000" points="913.6954,-447.5 913.6954,-516.5 "/>
<text text-anchor="middle" x="948.6954" y="-495.8" font-family="Times,serif" font-size="14.00" fill="#000000">OUT</text>
<polyline fill="none" stroke="#000000" points="913.6954,-482.5 983.6954,-482.5 "/>
<text text-anchor="middle" x="948.6954" y="-461.3" font-family="Times,serif" font-size="14.00" fill="#000000">out_file</text>
</g>
<!-- enhance_and_skullstrip_dwi_wffixhdr_unifize&#45;&gt;enhance_and_skullstrip_dwi_wfskullstrip_second_pass -->
<g id="edge6" class="edge">
<title>enhance_and_skullstrip_dwi_wffixhdr_unifize:e&#45;&gt;enhance_and_skullstrip_dwi_wfskullstrip_second_pass:w</title>
<path fill="none" stroke="#000000" d="M932.6954,-571C940.6954,-571 937.9515,-559.031 932.6954,-553 855.7589,-464.7232 748.6318,-605.2768 671.6954,-517 666.1791,-510.6706 662.5785,-486.0882 665.454,-473.1179"/>
<polygon fill="#000000" stroke="#000000" points="668.3749,-475.0611 671.6954,-465 662.8255,-470.7945 668.3749,-475.0611"/>
</g>
<!-- enhance_and_skullstrip_dwi_wfapply_mask -->
<g id="node11" class="node">
<title>enhance_and_skullstrip_dwi_wfapply_mask</title>
<polygon fill="none" stroke="#000000" points="783.6954,-129.5 783.6954,-198.5 1039.6954,-198.5 1039.6954,-129.5 783.6954,-129.5"/>
<text text-anchor="middle" x="826.1954" y="-183.3" font-family="Times,serif" font-size="14.00" fill="#000000">IN</text>
<polyline fill="none" stroke="#000000" points="783.6954,-175.5 868.6954,-175.5 "/>
<text text-anchor="middle" x="826.1954" y="-160.3" font-family="Times,serif" font-size="14.00" fill="#000000">in_file</text>
<polyline fill="none" stroke="#000000" points="783.6954,-152.5 868.6954,-152.5 "/>
<text text-anchor="middle" x="826.1954" y="-137.3" font-family="Times,serif" font-size="14.00" fill="#000000">mask_file</text>
<polyline fill="none" stroke="#000000" points="868.6954,-129.5 868.6954,-198.5 "/>
<text text-anchor="middle" x="919.1954" y="-183.3" font-family="Times,serif" font-size="14.00" fill="#000000">apply_mask</text>
<polyline fill="none" stroke="#000000" points="868.6954,-175.5 969.6954,-175.5 "/>
<text text-anchor="middle" x="919.1954" y="-160.3" font-family="Times,serif" font-size="14.00" fill="#000000">fsl</text>
<polyline fill="none" stroke="#000000" points="868.6954,-152.5 969.6954,-152.5 "/>
<text text-anchor="middle" x="919.1954" y="-137.3" font-family="Times,serif" font-size="14.00" fill="#000000"> </text>
<polyline fill="none" stroke="#000000" points="969.6954,-129.5 969.6954,-198.5 "/>
<text text-anchor="middle" x="1004.6954" y="-177.8" font-family="Times,serif" font-size="14.00" fill="#000000">OUT</text>
<polyline fill="none" stroke="#000000" points="969.6954,-164.5 1039.6954,-164.5 "/>
<text text-anchor="middle" x="1004.6954" y="-143.3" font-family="Times,serif" font-size="14.00" fill="#000000">out_file</text>
</g>
<!-- enhance_and_skullstrip_dwi_wffixhdr_unifize&#45;&gt;enhance_and_skullstrip_dwi_wfapply_mask -->
<g id="edge5" class="edge">
<title>enhance_and_skullstrip_dwi_wffixhdr_unifize:e&#45;&gt;enhance_and_skullstrip_dwi_wfapply_mask:w</title>
<path fill="none" stroke="#000000" d="M932.6954,-571C993.9191,-571 1006.9856,-506.5326 992.6954,-447 980.3545,-395.5883 970.6993,-383.0857 938.6954,-341 882.1429,-266.6326 821.3277,-284.5132 783.6954,-199 782.7041,-196.7475 781.4101,-183.33 781.5789,-173.7803"/>
<polygon fill="#000000" stroke="#000000" points="785.0011,-174.5141 783.6954,-164 778.1594,-173.0335 785.0011,-174.5141"/>
</g>
<!-- enhance_and_skullstrip_dwi_wfskullstrip_second_pass&#45;&gt;enhance_and_skullstrip_dwi_wffixhdr_skullstrip2 -->
<g id="edge18" class="edge">
<title>enhance_and_skullstrip_dwi_wfskullstrip_second_pass:e&#45;&gt;enhance_and_skullstrip_dwi_wffixhdr_skullstrip2:w</title>
<path fill="none" stroke="#000000" d="M983.6954,-465C991.6954,-465 989.0461,-452.9472 983.6954,-447 932.8779,-390.5179 694.5128,-467.4821 643.6954,-411 629.148,-394.831 620.7977,-364.6562 634.0276,-355.6213"/>
<polygon fill="#000000" stroke="#000000" points="634.9598,-358.995 643.6954,-353 633.1279,-352.2389 634.9598,-358.995"/>
</g>
<!-- enhance_and_skullstrip_dwi_wffixhdr_skullstrip2&#45;&gt;enhance_and_skullstrip_dwi_wfcombine_masks -->
<g id="edge4" class="edge">
<title>enhance_and_skullstrip_dwi_wffixhdr_skullstrip2:e&#45;&gt;enhance_and_skullstrip_dwi_wfcombine_masks:w</title>
<path fill="none" stroke="#000000" d="M929.6954,-359C937.6954,-359 935.13,-346.8707 929.6954,-341 859.1374,-264.781 534.2533,-381.219 463.6954,-305 448.9199,-289.0391 440.7265,-258.7212 454.0109,-249.6365"/>
<polygon fill="#000000" stroke="#000000" points="454.9659,-253.004 463.6954,-247 453.1271,-246.2498 454.9659,-253.004"/>
</g>
<!-- enhance_and_skullstrip_dwi_wfcombine_masks&#45;&gt;enhance_and_skullstrip_dwi_wfapply_mask -->
<g id="edge2" class="edge">
<title>enhance_and_skullstrip_dwi_wfcombine_masks:e&#45;&gt;enhance_and_skullstrip_dwi_wfapply_mask:w</title>
<path fill="none" stroke="#000000" d="M769.6954,-253C791.0547,-253 767.9998,-171.7822 776.1737,-147.6707"/>
<polygon fill="#000000" stroke="#000000" points="778.536,-150.2538 783.6954,-141 773.8914,-145.0166 778.536,-150.2538"/>
</g>
<!-- enhance_and_skullstrip_dwi_wfcombine_masks&#45;&gt;enhance_and_skullstrip_dwi_wfoutputnode -->
<g id="edge3" class="edge">
<title>enhance_and_skullstrip_dwi_wfcombine_masks:e&#45;&gt;enhance_and_skullstrip_dwi_wfoutputnode:w</title>
<path fill="none" stroke="#000000" d="M769.6954,-253C791.1245,-253 745.0627,-83.463 750.41,-43.0655"/>
<polygon fill="#000000" stroke="#000000" points="753.4226,-44.8482 755.6954,-34.5 747.4654,-41.1723 753.4226,-44.8482"/>
</g>
<!-- enhance_and_skullstrip_dwi_wfapply_mask&#45;&gt;enhance_and_skullstrip_dwi_wfoutputnode -->
<g id="edge1" class="edge">
<title>enhance_and_skullstrip_dwi_wfapply_mask:e&#45;&gt;enhance_and_skullstrip_dwi_wfoutputnode:w</title>
<path fill="none" stroke="#000000" d="M1039.6954,-147C1047.6954,-147 1044.9846,-135.002 1039.6954,-129 955.5754,-33.5438 839.8153,-188.4562 755.6954,-93 734.2727,-68.6904 722.192,-22.657 745.8096,-13.2173"/>
<polygon fill="#000000" stroke="#000000" points="746.4419,-16.6599 755.6954,-11.5 745.2439,-9.7632 746.4419,-16.6599"/>
</g>
</g>
</svg>
