<?xml version="1.0" encoding="UTF-8" standalone="no"?>
<!DOCTYPE svg PUBLIC "-//W3C//DTD SVG 1.1//EN"
 "http://www.w3.org/Graphics/SVG/1.1/DTD/svg11.dtd">
<!-- Generated by graphviz version 2.40.1 (20161225.0304)
 -->
<!-- Title: %3 Pages: 1 -->
<svg width="1172pt" height="332pt"
 viewBox="0.00 0.00 1171.78 332.00" xmlns="http://www.w3.org/2000/svg" xmlns:xlink="http://www.w3.org/1999/xlink">
<g id="graph0" class="graph" transform="scale(1 1) rotate(0) translate(4 328)">
<title>%3</title>
<polygon fill="#ffffff" stroke="transparent" points="-4,4 -4,-328 1167.782,-328 1167.782,4 -4,4"/>
<!-- fsinputnode (utility) -->
<g id="node1" class="node">
<title>fsinputnode (utility)</title>
<ellipse fill="none" stroke="#000000" cx="528.6897" cy="-234" rx="103.1819" ry="18"/>
<text text-anchor="middle" x="528.6897" y="-230.3" font-family="Times,serif" font-size="14.00" fill="#000000">fsinputnode (utility)</text>
</g>
<!-- anat_preproc_wf -->
<g id="node2" class="node">
<title>anat_preproc_wf</title>
<ellipse fill="none" stroke="#000000" cx="592.6897" cy="-162" rx="89.0842" ry="18"/>
<text text-anchor="middle" x="592.6897" y="-158.3" font-family="Times,serif" font-size="14.00" fill="#000000">anat_preproc_wf</text>
</g>
<!-- fsinputnode (utility)&#45;&gt;anat_preproc_wf -->
<g id="edge1" class="edge">
<title>fsinputnode (utility)&#45;&gt;anat_preproc_wf</title>
<path fill="none" stroke="#000000" d="M544.51,-216.2022C552.2024,-207.5483 561.5875,-196.99 570.0241,-187.4988"/>
<polygon fill="#000000" stroke="#000000" points="572.802,-189.6419 576.8297,-179.8425 567.5701,-184.9914 572.802,-189.6419"/>
</g>
<!-- summary (reports) -->
<g id="node3" class="node">
<title>summary (reports)</title>
<ellipse fill="none" stroke="#000000" cx="835.6897" cy="-162" rx="98.2828" ry="18"/>
<text text-anchor="middle" x="835.6897" y="-158.3" font-family="Times,serif" font-size="14.00" fill="#000000">summary (reports)</text>
</g>
<!-- fsinputnode (utility)&#45;&gt;summary (reports) -->
<g id="edge2" class="edge">
<title>fsinputnode (utility)&#45;&gt;summary (reports)</title>
<path fill="none" stroke="#000000" d="M590.4465,-219.5163C640.9462,-207.6728 712.3712,-190.9216 765.1226,-178.5499"/>
<polygon fill="#000000" stroke="#000000" points="766.142,-181.9059 775.0787,-176.215 764.5436,-175.0908 766.142,-181.9059"/>
</g>
<!-- bbreg_wf -->
<g id="node4" class="node">
<title>bbreg_wf</title>
<ellipse fill="none" stroke="#000000" cx="438.6897" cy="-90" rx="53.8905" ry="18"/>
<text text-anchor="middle" x="438.6897" y="-86.3" font-family="Times,serif" font-size="14.00" fill="#000000">bbreg_wf</text>
</g>
<!-- fsinputnode (utility)&#45;&gt;bbreg_wf -->
<g id="edge3" class="edge">
<title>fsinputnode (utility)&#45;&gt;bbreg_wf</title>
<path fill="none" stroke="#000000" d="M517.3324,-216.015C510.7133,-205.5201 502.2133,-192.0201 494.6897,-180 481.3866,-158.7463 466.3812,-134.6223 455.2538,-116.7037"/>
<polygon fill="#000000" stroke="#000000" points="458.0658,-114.5973 449.8179,-107.9472 452.1185,-118.2892 458.0658,-114.5973"/>
</g>
<!-- anat_preproc_wf&#45;&gt;bbreg_wf -->
<g id="edge5" class="edge">
<title>anat_preproc_wf&#45;&gt;bbreg_wf</title>
<path fill="none" stroke="#000000" d="M556.972,-145.3008C533.7533,-134.4453 503.4246,-120.2656 479.2915,-108.9826"/>
<polygon fill="#000000" stroke="#000000" points="480.5808,-105.7218 470.0396,-104.6571 477.616,-112.063 480.5808,-105.7218"/>
</g>
<!-- t1w_brain (nibabel) -->
<g id="node5" class="node">
<title>t1w_brain (nibabel)</title>
<ellipse fill="none" stroke="#000000" cx="611.6897" cy="-90" rx="101.2821" ry="18"/>
<text text-anchor="middle" x="611.6897" y="-86.3" font-family="Times,serif" font-size="14.00" fill="#000000">t1w_brain (nibabel)</text>
</g>
<!-- anat_preproc_wf&#45;&gt;t1w_brain (nibabel) -->
<g id="edge4" class="edge">
<title>anat_preproc_wf&#45;&gt;t1w_brain (nibabel)</title>
<path fill="none" stroke="#000000" d="M597.4842,-143.8314C599.5386,-136.0463 601.9858,-126.7729 604.2653,-118.1347"/>
<polygon fill="#000000" stroke="#000000" points="607.6632,-118.9753 606.8307,-108.4133 600.8949,-117.1892 607.6632,-118.9753"/>
</g>
<!-- ds_report_summary -->
<g id="node8" class="node">
<title>ds_report_summary</title>
<ellipse fill="none" stroke="#000000" cx="853.6897" cy="-90" rx="103.9815" ry="18"/>
<text text-anchor="middle" x="853.6897" y="-86.3" font-family="Times,serif" font-size="14.00" fill="#000000">ds_report_summary</text>
</g>
<!-- summary (reports)&#45;&gt;ds_report_summary -->
<g id="edge6" class="edge">
<title>summary (reports)&#45;&gt;ds_report_summary</title>
<path fill="none" stroke="#000000" d="M840.2319,-143.8314C842.1782,-136.0463 844.4965,-126.7729 846.6561,-118.1347"/>
<polygon fill="#000000" stroke="#000000" points="850.0565,-118.9636 849.0864,-108.4133 843.2655,-117.2658 850.0565,-118.9636"/>
</g>
<!-- ds_report_reg -->
<g id="node15" class="node">
<title>ds_report_reg</title>
<ellipse fill="none" stroke="#000000" cx="385.6897" cy="-18" rx="76.0865" ry="18"/>
<text text-anchor="middle" x="385.6897" y="-14.3" font-family="Times,serif" font-size="14.00" fill="#000000">ds_report_reg</text>
</g>
<!-- bbreg_wf&#45;&gt;ds_report_reg -->
<g id="edge7" class="edge">
<title>bbreg_wf&#45;&gt;ds_report_reg</title>
<path fill="none" stroke="#000000" d="M425.5886,-72.2022C419.3457,-63.7214 411.7566,-53.4115 404.8798,-44.0696"/>
<polygon fill="#000000" stroke="#000000" points="407.5707,-41.8211 398.8238,-35.8425 401.9334,-45.9708 407.5707,-41.8211"/>
</g>
<!-- bidssrc -->
<g id="node6" class="node">
<title>bidssrc</title>
<ellipse fill="none" stroke="#000000" cx="879.6897" cy="-306" rx="44.6926" ry="18"/>
<text text-anchor="middle" x="879.6897" y="-302.3" font-family="Times,serif" font-size="14.00" fill="#000000">bidssrc</text>
</g>
<!-- bidssrc&#45;&gt;anat_preproc_wf -->
<g id="edge10" class="edge">
<title>bidssrc&#45;&gt;anat_preproc_wf</title>
<path fill="none" stroke="#000000" d="M836.2694,-301.2391C793.6747,-295.0391 728.1052,-281.3057 678.6897,-252 671.1417,-247.5237 638.5531,-212.4989 615.7368,-187.4911"/>
<polygon fill="#000000" stroke="#000000" points="618.0351,-184.8163 608.7164,-179.775 612.8574,-189.5271 618.0351,-184.8163"/>
</g>
<!-- bidssrc&#45;&gt;summary (reports) -->
<g id="edge9" class="edge">
<title>bidssrc&#45;&gt;summary (reports)</title>
<path fill="none" stroke="#000000" d="M877.0772,-287.7528C874.1546,-269.3418 868.7471,-240.2473 860.6897,-216 857.7073,-207.0249 853.6609,-197.5633 849.6929,-189.1109"/>
<polygon fill="#000000" stroke="#000000" points="852.8229,-187.5439 845.3071,-180.0763 846.5257,-190.6009 852.8229,-187.5439"/>
</g>
<!-- bids_info (bids) -->
<g id="node7" class="node">
<title>bids_info (bids)</title>
<ellipse fill="none" stroke="#000000" cx="769.6897" cy="-234" rx="81.7856" ry="18"/>
<text text-anchor="middle" x="769.6897" y="-230.3" font-family="Times,serif" font-size="14.00" fill="#000000">bids_info (bids)</text>
</g>
<!-- bidssrc&#45;&gt;bids_info (bids) -->
<g id="edge8" class="edge">
<title>bidssrc&#45;&gt;bids_info (bids)</title>
<path fill="none" stroke="#000000" d="M856.092,-290.5542C841.0399,-280.7019 821.2688,-267.7608 804.4383,-256.7445"/>
<polygon fill="#000000" stroke="#000000" points="806.2296,-253.7339 795.9457,-251.1857 802.3959,-259.5908 806.2296,-253.7339"/>
</g>
<!-- bidssrc&#45;&gt;ds_report_summary -->
<g id="edge11" class="edge">
<title>bidssrc&#45;&gt;ds_report_summary</title>
<path fill="none" stroke="#000000" d="M896.126,-288.7319C922.9957,-258.3147 970.6677,-193.7005 942.6897,-144 934.8353,-130.0472 921.7582,-119.2845 908.014,-111.1748"/>
<polygon fill="#000000" stroke="#000000" points="909.3888,-107.938 898.9339,-106.2219 906.0367,-114.0832 909.3888,-107.938"/>
</g>
<!-- ds_report_about -->
<g id="node9" class="node">
<title>ds_report_about</title>
<ellipse fill="none" stroke="#000000" cx="1076.6897" cy="-234" rx="87.1846" ry="18"/>
<text text-anchor="middle" x="1076.6897" y="-230.3" font-family="Times,serif" font-size="14.00" fill="#000000">ds_report_about</text>
</g>
<!-- bidssrc&#45;&gt;ds_report_about -->
<g id="edge12" class="edge">
<title>bidssrc&#45;&gt;ds_report_about</title>
<path fill="none" stroke="#000000" d="M913.1081,-293.7862C943.5116,-282.6742 988.8887,-266.0897 1024.1432,-253.2048"/>
<polygon fill="#000000" stroke="#000000" points="1025.6067,-256.3965 1033.7976,-249.6763 1023.2037,-249.8218 1025.6067,-256.3965"/>
</g>
<!-- bids_info (bids)&#45;&gt;anat_preproc_wf -->
<g id="edge14" class="edge">
<title>bids_info (bids)&#45;&gt;anat_preproc_wf</title>
<path fill="none" stroke="#000000" d="M730.4077,-218.0209C704.3516,-207.4218 669.9495,-193.4277 642.0478,-182.0778"/>
<polygon fill="#000000" stroke="#000000" points="643.0558,-178.7094 632.474,-178.1834 640.4182,-185.1935 643.0558,-178.7094"/>
</g>
<!-- bids_info (bids)&#45;&gt;summary (reports) -->
<g id="edge13" class="edge">
<title>bids_info (bids)&#45;&gt;summary (reports)</title>
<path fill="none" stroke="#000000" d="M786.0043,-216.2022C794.0165,-207.4617 803.8093,-196.7786 812.5765,-187.2144"/>
<polygon fill="#000000" stroke="#000000" points="815.1568,-189.5792 819.3341,-179.8425 809.9967,-184.8491 815.1568,-189.5792"/>
</g>
<!-- bids_info (bids)&#45;&gt;bbreg_wf -->
<g id="edge15" class="edge">
<title>bids_info (bids)&#45;&gt;bbreg_wf</title>
<path fill="none" stroke="#000000" d="M756.327,-216.1864C738.314,-192.6596 706.6637,-153.1314 690.6897,-144 616.4529,-101.563 584.8842,-127.7658 501.6897,-108 497.403,-106.9815 492.9711,-105.8592 488.5363,-104.6877"/>
<polygon fill="#000000" stroke="#000000" points="489.4456,-101.3079 478.8779,-102.0659 487.6117,-108.0634 489.4456,-101.3079"/>
</g>
<!-- about (reports) -->
<g id="node10" class="node">
<title>about (reports)</title>
<ellipse fill="none" stroke="#000000" cx="1076.6897" cy="-306" rx="81.4863" ry="18"/>
<text text-anchor="middle" x="1076.6897" y="-302.3" font-family="Times,serif" font-size="14.00" fill="#000000">about (reports)</text>
</g>
<!-- about (reports)&#45;&gt;ds_report_about -->
<g id="edge16" class="edge">
<title>about (reports)&#45;&gt;ds_report_about</title>
<path fill="none" stroke="#000000" d="M1076.6897,-287.8314C1076.6897,-280.131 1076.6897,-270.9743 1076.6897,-262.4166"/>
<polygon fill="#000000" stroke="#000000" points="1080.1898,-262.4132 1076.6897,-252.4133 1073.1898,-262.4133 1080.1898,-262.4132"/>
</g>
<!-- inputnode (utility) -->
<g id="node11" class="node">
<title>inputnode (utility)</title>
<ellipse fill="none" stroke="#000000" cx="259.6897" cy="-306" rx="94.7833" ry="18"/>
<text text-anchor="middle" x="259.6897" y="-302.3" font-family="Times,serif" font-size="14.00" fill="#000000">inputnode (utility)</text>
</g>
<!-- split_info (utility) -->
<g id="node12" class="node">
<title>split_info (utility)</title>
<ellipse fill="none" stroke="#000000" cx="259.6897" cy="-234" rx="90.9839" ry="18"/>
<text text-anchor="middle" x="259.6897" y="-230.3" font-family="Times,serif" font-size="14.00" fill="#000000">split_info (utility)</text>
</g>
<!-- inputnode (utility)&#45;&gt;split_info (utility) -->
<g id="edge17" class="edge">
<title>inputnode (utility)&#45;&gt;split_info (utility)</title>
<path fill="none" stroke="#000000" d="M259.6897,-287.8314C259.6897,-280.131 259.6897,-270.9743 259.6897,-262.4166"/>
<polygon fill="#000000" stroke="#000000" points="263.1898,-262.4132 259.6897,-252.4133 256.1898,-262.4133 263.1898,-262.4132"/>
</g>
<!-- early_b0ref_wf -->
<g id="node13" class="node">
<title>early_b0ref_wf</title>
<ellipse fill="none" stroke="#000000" cx="367.6897" cy="-162" rx="79.8859" ry="18"/>
<text text-anchor="middle" x="367.6897" y="-158.3" font-family="Times,serif" font-size="14.00" fill="#000000">early_b0ref_wf</text>
</g>
<!-- split_info (utility)&#45;&gt;early_b0ref_wf -->
<g id="edge18" class="edge">
<title>split_info (utility)&#45;&gt;early_b0ref_wf</title>
<path fill="none" stroke="#000000" d="M285.8335,-216.5708C300.028,-207.1078 317.7586,-195.2874 333.0853,-185.0696"/>
<polygon fill="#000000" stroke="#000000" points="335.4077,-187.7279 341.7867,-179.2687 331.5247,-181.9035 335.4077,-187.7279"/>
</g>
<!-- referencenode (utility) -->
<g id="node14" class="node">
<title>referencenode (utility)</title>
<ellipse fill="none" stroke="#000000" cx="115.6897" cy="-90" rx="115.8798" ry="18"/>
<text text-anchor="middle" x="115.6897" y="-86.3" font-family="Times,serif" font-size="14.00" fill="#000000">referencenode (utility)</text>
</g>
<!-- split_info (utility)&#45;&gt;referencenode (utility) -->
<g id="edge19" class="edge">
<title>split_info (utility)&#45;&gt;referencenode (utility)</title>
<path fill="none" stroke="#000000" d="M241.7432,-216.0535C216.4126,-190.7228 170.0469,-144.3572 141.1603,-115.4706"/>
<polygon fill="#000000" stroke="#000000" points="143.4084,-112.7689 133.8624,-108.1727 138.4587,-117.7187 143.4084,-112.7689"/>
</g>
<!-- split_info (utility)&#45;&gt;ds_report_reg -->
<g id="edge20" class="edge">
<title>split_info (utility)&#45;&gt;ds_report_reg</title>
<path fill="none" stroke="#000000" d="M260.8852,-215.9027C262.7142,-197.0976 267.2964,-167.2265 278.6897,-144 298.3055,-104.0112 333.465,-66.198 358.1111,-42.6205"/>
<polygon fill="#000000" stroke="#000000" points="360.8189,-44.8789 365.7107,-35.4809 356.026,-39.7771 360.8189,-44.8789"/>
</g>
<!-- early_b0ref_wf&#45;&gt;bbreg_wf -->
<g id="edge22" class="edge">
<title>early_b0ref_wf&#45;&gt;bbreg_wf</title>
<path fill="none" stroke="#000000" d="M385.2403,-144.2022C394.0756,-135.2425 404.9239,-124.2414 414.5332,-114.4968"/>
<polygon fill="#000000" stroke="#000000" points="417.0567,-116.9225 421.586,-107.3446 412.0724,-112.0074 417.0567,-116.9225"/>
</g>
<!-- early_b0ref_wf&#45;&gt;referencenode (utility) -->
<g id="edge21" class="edge">
<title>early_b0ref_wf&#45;&gt;referencenode (utility)</title>
<path fill="none" stroke="#000000" d="M318.2033,-147.861C278.9743,-136.6527 223.8202,-120.8944 180.9748,-108.6529"/>
<polygon fill="#000000" stroke="#000000" points="181.7767,-105.242 171.1999,-105.8601 179.8536,-111.9727 181.7767,-105.242"/>
</g>
<!-- fmap_estimation_wf -->
<g id="node16" class="node">
<title>fmap_estimation_wf</title>
<ellipse fill="none" stroke="#000000" cx="115.6897" cy="-18" rx="104.7816" ry="18"/>
<text text-anchor="middle" x="115.6897" y="-14.3" font-family="Times,serif" font-size="14.00" fill="#000000">fmap_estimation_wf</text>
</g>
<!-- referencenode (utility)&#45;&gt;fmap_estimation_wf -->
<g id="edge23" class="edge">
<title>referencenode (utility)&#45;&gt;fmap_estimation_wf</title>
<path fill="none" stroke="#000000" d="M115.6897,-71.8314C115.6897,-64.131 115.6897,-54.9743 115.6897,-46.4166"/>
<polygon fill="#000000" stroke="#000000" points="119.1898,-46.4132 115.6897,-36.4133 112.1898,-46.4133 119.1898,-46.4132"/>
</g>
</g>
</svg>
