<?xml version="1.0" encoding="UTF-8" standalone="no"?>
<!DOCTYPE svg PUBLIC "-//W3C//DTD SVG 1.1//EN"
 "http://www.w3.org/Graphics/SVG/1.1/DTD/svg11.dtd">
<!-- Generated by graphviz version 2.40.1 (20161225.0304)
 -->
<!-- Title: %3 Pages: 1 -->
<svg width="708pt" height="332pt"
 viewBox="0.00 0.00 708.43 332.00" xmlns="http://www.w3.org/2000/svg" xmlns:xlink="http://www.w3.org/1999/xlink">
<g id="graph0" class="graph" transform="scale(1 1) rotate(0) translate(4 328)">
<title>%3</title>
<polygon fill="#ffffff" stroke="transparent" points="-4,4 -4,-328 704.4343,-328 704.4343,4 -4,4"/>
<!-- inputnode (utility) -->
<g id="node1" class="node">
<title>inputnode (utility)</title>
<ellipse fill="none" stroke="#000000" cx="343.0433" cy="-306" rx="94.7833" ry="18"/>
<text text-anchor="middle" x="343.0433" y="-302.3" font-family="Times,serif" font-size="14.00" fill="#000000">inputnode (utility)</text>
</g>
<!-- gradient_table (vectors) -->
<g id="node2" class="node">
<title>gradient_table (vectors)</title>
<ellipse fill="none" stroke="#000000" cx="268.0433" cy="-234" rx="122.6784" ry="18"/>
<text text-anchor="middle" x="268.0433" y="-230.3" font-family="Times,serif" font-size="14.00" fill="#000000">gradient_table (vectors)</text>
</g>
<!-- inputnode (utility)&#45;&gt;gradient_table (vectors) -->
<g id="edge1" class="edge">
<title>inputnode (utility)&#45;&gt;gradient_table (vectors)</title>
<path fill="none" stroke="#000000" d="M324.5039,-288.2022C315.3091,-279.3752 304.0504,-268.5669 294.0127,-258.9307"/>
<polygon fill="#000000" stroke="#000000" points="296.267,-256.243 286.6292,-251.8425 291.4193,-261.2928 296.267,-256.243"/>
</g>
<!-- dwi_reference_wf -->
<g id="node3" class="node">
<title>dwi_reference_wf</title>
<ellipse fill="none" stroke="#000000" cx="349.0433" cy="-162" rx="92.8835" ry="18"/>
<text text-anchor="middle" x="349.0433" y="-158.3" font-family="Times,serif" font-size="14.00" fill="#000000">dwi_reference_wf</text>
</g>
<!-- inputnode (utility)&#45;&gt;dwi_reference_wf -->
<g id="edge2" class="edge">
<title>inputnode (utility)&#45;&gt;dwi_reference_wf</title>
<path fill="none" stroke="#000000" d="M369.6344,-288.4861C381.2938,-279.1895 393.7414,-266.651 400.0433,-252 406.3653,-237.302 405.9545,-230.868 400.0433,-216 395.6584,-204.9711 387.8342,-194.8925 379.6106,-186.5065"/>
<polygon fill="#000000" stroke="#000000" points="382.0102,-183.9586 372.3573,-179.5914 377.18,-189.025 382.0102,-183.9586"/>
</g>
<!-- bbreg_wf -->
<g id="node4" class="node">
<title>bbreg_wf</title>
<ellipse fill="none" stroke="#000000" cx="117.0433" cy="-90" rx="53.8905" ry="18"/>
<text text-anchor="middle" x="117.0433" y="-86.3" font-family="Times,serif" font-size="14.00" fill="#000000">bbreg_wf</text>
</g>
<!-- inputnode (utility)&#45;&gt;bbreg_wf -->
<g id="edge3" class="edge">
<title>inputnode (utility)&#45;&gt;bbreg_wf</title>
<path fill="none" stroke="#000000" d="M266.755,-295.2454C215.151,-286.3301 153.3551,-271.891 136.0433,-252 103.8636,-215.0261 106.514,-153.9894 111.6057,-118.3335"/>
<polygon fill="#000000" stroke="#000000" points="115.1131,-118.5633 113.2284,-108.1374 108.2001,-117.463 115.1131,-118.5633"/>
</g>
<!-- t1w_brain (nibabel) -->
<g id="node5" class="node">
<title>t1w_brain (nibabel)</title>
<ellipse fill="none" stroke="#000000" cx="599.0433" cy="-234" rx="101.2821" ry="18"/>
<text text-anchor="middle" x="599.0433" y="-230.3" font-family="Times,serif" font-size="14.00" fill="#000000">t1w_brain (nibabel)</text>
</g>
<!-- inputnode (utility)&#45;&gt;t1w_brain (nibabel) -->
<g id="edge4" class="edge">
<title>inputnode (utility)&#45;&gt;t1w_brain (nibabel)</title>
<path fill="none" stroke="#000000" d="M396.3976,-290.9941C436.7736,-279.6383 492.3814,-263.9987 535.1332,-251.9747"/>
<polygon fill="#000000" stroke="#000000" points="536.1975,-255.3113 544.8763,-249.2344 534.3022,-248.5727 536.1975,-255.3113"/>
</g>
<!-- ds_report_reg -->
<g id="node6" class="node">
<title>ds_report_reg</title>
<ellipse fill="none" stroke="#000000" cx="76.0433" cy="-18" rx="76.0865" ry="18"/>
<text text-anchor="middle" x="76.0433" y="-14.3" font-family="Times,serif" font-size="14.00" fill="#000000">ds_report_reg</text>
</g>
<!-- inputnode (utility)&#45;&gt;ds_report_reg -->
<g id="edge5" class="edge">
<title>inputnode (utility)&#45;&gt;ds_report_reg</title>
<path fill="none" stroke="#000000" d="M265.6409,-295.5619C208.1652,-286.4158 135.9397,-271.5322 113.0433,-252 60.4245,-207.1127 67.4061,-175.8604 54.0433,-108 50.9519,-92.3015 50.9675,-87.7016 54.0433,-72 55.8056,-63.0032 59.0743,-53.6139 62.563,-45.2358"/>
<polygon fill="#000000" stroke="#000000" points="65.8269,-46.5094 66.6824,-35.9491 59.4281,-43.6709 65.8269,-46.5094"/>
</g>
<!-- reportlets_wf -->
<g id="node7" class="node">
<title>reportlets_wf</title>
<ellipse fill="none" stroke="#000000" cx="483.0433" cy="-90" rx="73.387" ry="18"/>
<text text-anchor="middle" x="483.0433" y="-86.3" font-family="Times,serif" font-size="14.00" fill="#000000">reportlets_wf</text>
</g>
<!-- inputnode (utility)&#45;&gt;reportlets_wf -->
<g id="edge6" class="edge">
<title>inputnode (utility)&#45;&gt;reportlets_wf</title>
<path fill="none" stroke="#000000" d="M372.7261,-288.7923C387.1598,-279.3259 403.9554,-266.5512 416.0433,-252 449.4423,-211.7947 468.1822,-152.6281 476.9004,-118.0335"/>
<polygon fill="#000000" stroke="#000000" points="480.3457,-118.6763 479.2895,-108.1343 473.5411,-117.034 480.3457,-118.6763"/>
</g>
<!-- gradient_table (vectors)&#45;&gt;dwi_reference_wf -->
<g id="edge7" class="edge">
<title>gradient_table (vectors)&#45;&gt;dwi_reference_wf</title>
<path fill="none" stroke="#000000" d="M288.0657,-216.2022C298.1689,-207.2217 310.5793,-196.1902 321.5608,-186.4289"/>
<polygon fill="#000000" stroke="#000000" points="324.1023,-188.8526 329.2511,-179.593 319.4517,-183.6208 324.1023,-188.8526"/>
</g>
<!-- outputnode (utility) -->
<g id="node8" class="node">
<title>outputnode (utility)</title>
<ellipse fill="none" stroke="#000000" cx="290.0433" cy="-90" rx="101.2821" ry="18"/>
<text text-anchor="middle" x="290.0433" y="-86.3" font-family="Times,serif" font-size="14.00" fill="#000000">outputnode (utility)</text>
</g>
<!-- gradient_table (vectors)&#45;&gt;outputnode (utility) -->
<g id="edge8" class="edge">
<title>gradient_table (vectors)&#45;&gt;outputnode (utility)</title>
<path fill="none" stroke="#000000" d="M257.8254,-215.7472C248.8938,-197.3317 238.5732,-168.234 247.0433,-144 250.639,-133.7121 257.1061,-123.9193 263.9508,-115.568"/>
<polygon fill="#000000" stroke="#000000" points="266.5934,-117.863 270.5476,-108.0337 261.3269,-113.2517 266.5934,-117.863"/>
</g>
<!-- dwi_reference_wf&#45;&gt;bbreg_wf -->
<g id="edge10" class="edge">
<title>dwi_reference_wf&#45;&gt;bbreg_wf</title>
<path fill="none" stroke="#000000" d="M299.558,-146.6425C260.3,-134.459 205.6906,-117.5112 166.4525,-105.3339"/>
<polygon fill="#000000" stroke="#000000" points="167.4146,-101.9679 156.8265,-102.3465 165.3398,-108.6533 167.4146,-101.9679"/>
</g>
<!-- dwi_reference_wf&#45;&gt;reportlets_wf -->
<g id="edge11" class="edge">
<title>dwi_reference_wf&#45;&gt;reportlets_wf</title>
<path fill="none" stroke="#000000" d="M380.7994,-144.937C399.5916,-134.8397 423.5549,-121.9639 443.5582,-111.2158"/>
<polygon fill="#000000" stroke="#000000" points="445.2851,-114.2613 452.4374,-106.4449 441.9719,-108.095 445.2851,-114.2613"/>
</g>
<!-- dwi_reference_wf&#45;&gt;outputnode (utility) -->
<g id="edge9" class="edge">
<title>dwi_reference_wf&#45;&gt;outputnode (utility)</title>
<path fill="none" stroke="#000000" d="M334.459,-144.2022C327.4385,-135.6348 318.8885,-125.2009 311.1717,-115.7839"/>
<polygon fill="#000000" stroke="#000000" points="313.7097,-113.359 304.6642,-107.8425 308.2953,-117.7957 313.7097,-113.359"/>
</g>
<!-- bbreg_wf&#45;&gt;ds_report_reg -->
<g id="edge12" class="edge">
<title>bbreg_wf&#45;&gt;ds_report_reg</title>
<path fill="none" stroke="#000000" d="M106.9084,-72.2022C102.1776,-63.8944 96.4473,-53.8316 91.2148,-44.6427"/>
<polygon fill="#000000" stroke="#000000" points="94.1935,-42.8005 86.2036,-35.8425 88.1106,-46.2644 94.1935,-42.8005"/>
</g>
</g>
</svg>
