<?xml version="1.0" encoding="UTF-8" standalone="no"?>
<!DOCTYPE svg PUBLIC "-//W3C//DTD SVG 1.1//EN"
 "http://www.w3.org/Graphics/SVG/1.1/DTD/svg11.dtd">
<!-- Generated by graphviz version 2.40.1 (20161225.0304)
 -->
<!-- Title: structs Pages: 1 -->
<svg width="1599pt" height="948pt"
 viewBox="0.00 0.00 1599.34 948.00" xmlns="http://www.w3.org/2000/svg" xmlns:xlink="http://www.w3.org/1999/xlink">
<g id="graph0" class="graph" transform="scale(1 1) rotate(0) translate(4 944)">
<title>structs</title>
<polygon fill="#ffffff" stroke="transparent" points="-4,4 -4,-944 1595.3442,-944 1595.3442,4 -4,4"/>
<!-- single_subject_THP0005_wffsinputnode -->
<g id="node1" class="node">
<title>single_subject_THP0005_wffsinputnode</title>
<polygon fill="none" stroke="#000000" points="145.3442,-695.5 145.3442,-764.5 385.3442,-764.5 385.3442,-695.5 145.3442,-695.5"/>
<text text-anchor="middle" x="162.8442" y="-726.3" font-family="Times,serif" font-size="14.00" fill="#000000">IN</text>
<polyline fill="none" stroke="#000000" points="180.3442,-695.5 180.3442,-764.5 "/>
<text text-anchor="middle" x="230.8442" y="-749.3" font-family="Times,serif" font-size="14.00" fill="#000000">fsinputnode</text>
<polyline fill="none" stroke="#000000" points="180.3442,-741.5 281.3442,-741.5 "/>
<text text-anchor="middle" x="230.8442" y="-726.3" font-family="Times,serif" font-size="14.00" fill="#000000">utility</text>
<polyline fill="none" stroke="#000000" points="180.3442,-718.5 281.3442,-718.5 "/>
<text text-anchor="middle" x="230.8442" y="-703.3" font-family="Times,serif" font-size="14.00" fill="#000000"> </text>
<polyline fill="none" stroke="#000000" points="281.3442,-695.5 281.3442,-764.5 "/>
<text text-anchor="middle" x="333.3442" y="-743.8" font-family="Times,serif" font-size="14.00" fill="#000000">OUT</text>
<polyline fill="none" stroke="#000000" points="281.3442,-730.5 385.3442,-730.5 "/>
<text text-anchor="middle" x="333.3442" y="-709.3" font-family="Times,serif" font-size="14.00" fill="#000000">subjects_dir</text>
</g>
<!-- single_subject_THP0005_wfsummary -->
<g id="node6" class="node">
<title>single_subject_THP0005_wfsummary</title>
<polygon fill="none" stroke="#000000" points="98.8442,-440 98.8442,-578 377.8442,-578 377.8442,-440 98.8442,-440"/>
<text text-anchor="middle" x="150.8442" y="-562.8" font-family="Times,serif" font-size="14.00" fill="#000000">IN</text>
<polyline fill="none" stroke="#000000" points="98.8442,-555 202.8442,-555 "/>
<text text-anchor="middle" x="150.8442" y="-539.8" font-family="Times,serif" font-size="14.00" fill="#000000">dwi</text>
<polyline fill="none" stroke="#000000" points="98.8442,-532 202.8442,-532 "/>
<text text-anchor="middle" x="150.8442" y="-516.8" font-family="Times,serif" font-size="14.00" fill="#000000">subject_id</text>
<polyline fill="none" stroke="#000000" points="98.8442,-509 202.8442,-509 "/>
<text text-anchor="middle" x="150.8442" y="-493.8" font-family="Times,serif" font-size="14.00" fill="#000000">subjects_dir</text>
<polyline fill="none" stroke="#000000" points="98.8442,-486 202.8442,-486 "/>
<text text-anchor="middle" x="150.8442" y="-470.8" font-family="Times,serif" font-size="14.00" fill="#000000">t1w</text>
<polyline fill="none" stroke="#000000" points="98.8442,-463 202.8442,-463 "/>
<text text-anchor="middle" x="150.8442" y="-447.8" font-family="Times,serif" font-size="14.00" fill="#000000">t2w</text>
<polyline fill="none" stroke="#000000" points="202.8442,-440 202.8442,-578 "/>
<text text-anchor="middle" x="244.3442" y="-551.3" font-family="Times,serif" font-size="14.00" fill="#000000">summary</text>
<polyline fill="none" stroke="#000000" points="202.8442,-532 285.8442,-532 "/>
<text text-anchor="middle" x="244.3442" y="-505.3" font-family="Times,serif" font-size="14.00" fill="#000000">reports</text>
<polyline fill="none" stroke="#000000" points="202.8442,-486 285.8442,-486 "/>
<text text-anchor="middle" x="244.3442" y="-459.3" font-family="Times,serif" font-size="14.00" fill="#000000"> </text>
<polyline fill="none" stroke="#000000" points="285.8442,-440 285.8442,-578 "/>
<text text-anchor="middle" x="331.8442" y="-539.8" font-family="Times,serif" font-size="14.00" fill="#000000">OUT</text>
<polyline fill="none" stroke="#000000" points="285.8442,-509 377.8442,-509 "/>
<text text-anchor="middle" x="331.8442" y="-470.8" font-family="Times,serif" font-size="14.00" fill="#000000">out_report</text>
</g>
<!-- single_subject_THP0005_wffsinputnode&#45;&gt;single_subject_THP0005_wfsummary -->
<g id="edge28" class="edge">
<title>single_subject_THP0005_wffsinputnode:e&#45;&gt;single_subject_THP0005_wfsummary:w</title>
<path fill="none" stroke="#000000" d="M385.3442,-713C393.3442,-713 389.8124,-701.6359 385.3442,-695 308.4566,-580.8087 175.2319,-692.6913 98.3442,-578.5 80.3262,-551.7402 65.6708,-507.9994 88.2699,-498.7513"/>
<polygon fill="#000000" stroke="#000000" points="89.0914,-502.161 98.3442,-497 87.8925,-495.2645 89.0914,-502.161"/>
</g>
<!-- single_subject_THP0005_wfanat_preproc_wf -->
<g id="node7" class="node">
<title>single_subject_THP0005_wfanat_preproc_wf</title>
<polygon fill="none" stroke="#000000" points="641.3442,-359.5 641.3442,-658.5 1189.3442,-658.5 1189.3442,-359.5 641.3442,-359.5"/>
<text text-anchor="middle" x="731.8442" y="-633.8" font-family="Times,serif" font-size="14.00" fill="#000000">IN</text>
<polyline fill="none" stroke="#000000" points="641.3442,-616.5 822.3442,-616.5 "/>
<text text-anchor="middle" x="731.8442" y="-591.3" font-family="Times,serif" font-size="14.00" fill="#000000">inputnode.flair</text>
<polyline fill="none" stroke="#000000" points="641.3442,-573.5 822.3442,-573.5 "/>
<text text-anchor="middle" x="731.8442" y="-548.3" font-family="Times,serif" font-size="14.00" fill="#000000">inputnode.roi</text>
<polyline fill="none" stroke="#000000" points="641.3442,-530.5 822.3442,-530.5 "/>
<text text-anchor="middle" x="731.8442" y="-505.8" font-family="Times,serif" font-size="14.00" fill="#000000">inputnode.subject_id</text>
<polyline fill="none" stroke="#000000" points="641.3442,-488.5 822.3442,-488.5 "/>
<text text-anchor="middle" x="731.8442" y="-463.3" font-family="Times,serif" font-size="14.00" fill="#000000">inputnode.subjects_dir</text>
<polyline fill="none" stroke="#000000" points="641.3442,-445.5 822.3442,-445.5 "/>
<text text-anchor="middle" x="731.8442" y="-420.3" font-family="Times,serif" font-size="14.00" fill="#000000">inputnode.t1w</text>
<polyline fill="none" stroke="#000000" points="641.3442,-402.5 822.3442,-402.5 "/>
<text text-anchor="middle" x="731.8442" y="-377.3" font-family="Times,serif" font-size="14.00" fill="#000000">inputnode.t2w</text>
<polyline fill="none" stroke="#000000" points="822.3442,-359.5 822.3442,-658.5 "/>
<text text-anchor="middle" x="890.8442" y="-605.3" font-family="Times,serif" font-size="14.00" fill="#000000">anat_preproc_wf</text>
<polyline fill="none" stroke="#000000" points="822.3442,-559.5 959.3442,-559.5 "/>
<text text-anchor="middle" x="890.8442" y="-505.8" font-family="Times,serif" font-size="14.00" fill="#000000"> </text>
<polyline fill="none" stroke="#000000" points="822.3442,-459.5 959.3442,-459.5 "/>
<text text-anchor="middle" x="890.8442" y="-405.8" font-family="Times,serif" font-size="14.00" fill="#000000"> </text>
<polyline fill="none" stroke="#000000" points="959.3442,-359.5 959.3442,-658.5 "/>
<text text-anchor="middle" x="1074.3442" y="-643.3" font-family="Times,serif" font-size="14.00" fill="#000000">OUT</text>
<polyline fill="none" stroke="#000000" points="959.3442,-635.5 1189.3442,-635.5 "/>
<text text-anchor="middle" x="1074.3442" y="-620.3" font-family="Times,serif" font-size="14.00" fill="#000000">outputnode.anat2std_xfm</text>
<polyline fill="none" stroke="#000000" points="959.3442,-612.5 1189.3442,-612.5 "/>
<text text-anchor="middle" x="1074.3442" y="-597.3" font-family="Times,serif" font-size="14.00" fill="#000000">outputnode.fsnative2t1w_xfm</text>
<polyline fill="none" stroke="#000000" points="959.3442,-589.5 1189.3442,-589.5 "/>
<text text-anchor="middle" x="1074.3442" y="-574.3" font-family="Times,serif" font-size="14.00" fill="#000000">outputnode.std2anat_xfm</text>
<polyline fill="none" stroke="#000000" points="959.3442,-566.5 1189.3442,-566.5 "/>
<text text-anchor="middle" x="1074.3442" y="-551.3" font-family="Times,serif" font-size="14.00" fill="#000000">outputnode.subjects_dir</text>
<polyline fill="none" stroke="#000000" points="959.3442,-543.5 1189.3442,-543.5 "/>
<text text-anchor="middle" x="1074.3442" y="-528.3" font-family="Times,serif" font-size="14.00" fill="#000000">outputnode.t1w2fsnative_xfm</text>
<polyline fill="none" stroke="#000000" points="959.3442,-520.5 1189.3442,-520.5 "/>
<text text-anchor="middle" x="1074.3442" y="-505.3" font-family="Times,serif" font-size="14.00" fill="#000000">outputnode.t1w_aparc</text>
<polyline fill="none" stroke="#000000" points="959.3442,-497.5 1189.3442,-497.5 "/>
<text text-anchor="middle" x="1074.3442" y="-482.3" font-family="Times,serif" font-size="14.00" fill="#000000">outputnode.t1w_aseg</text>
<polyline fill="none" stroke="#000000" points="959.3442,-474.5 1189.3442,-474.5 "/>
<text text-anchor="middle" x="1074.3442" y="-459.3" font-family="Times,serif" font-size="14.00" fill="#000000">outputnode.t1w_dseg</text>
<polyline fill="none" stroke="#000000" points="959.3442,-451.5 1189.3442,-451.5 "/>
<text text-anchor="middle" x="1074.3442" y="-436.3" font-family="Times,serif" font-size="14.00" fill="#000000">outputnode.t1w_mask</text>
<polyline fill="none" stroke="#000000" points="959.3442,-428.5 1189.3442,-428.5 "/>
<text text-anchor="middle" x="1074.3442" y="-413.3" font-family="Times,serif" font-size="14.00" fill="#000000">outputnode.t1w_preproc</text>
<polyline fill="none" stroke="#000000" points="959.3442,-405.5 1189.3442,-405.5 "/>
<text text-anchor="middle" x="1074.3442" y="-390.3" font-family="Times,serif" font-size="14.00" fill="#000000">outputnode.t1w_tpms</text>
<polyline fill="none" stroke="#000000" points="959.3442,-382.5 1189.3442,-382.5 "/>
<text text-anchor="middle" x="1074.3442" y="-367.3" font-family="Times,serif" font-size="14.00" fill="#000000">outputnode.template</text>
</g>
<!-- single_subject_THP0005_wffsinputnode&#45;&gt;single_subject_THP0005_wfanat_preproc_wf -->
<g id="edge27" class="edge">
<title>single_subject_THP0005_wffsinputnode:e&#45;&gt;single_subject_THP0005_wfanat_preproc_wf:w</title>
<path fill="none" stroke="#000000" d="M385.3442,-713C394.2885,-713 388.9704,-702.15 394.3442,-695 481.9998,-578.3718 491.5341,-472.0953 631.0701,-467.1777"/>
<polygon fill="#000000" stroke="#000000" points="631.4063,-470.6725 641.3442,-467 631.2852,-463.6735 631.4063,-470.6725"/>
</g>
<!-- single_subject_THP0005_wfbidssrc -->
<g id="node2" class="node">
<title>single_subject_THP0005_wfbidssrc</title>
<polygon fill="none" stroke="#000000" points="332.3442,-801.5 332.3442,-939.5 486.3442,-939.5 486.3442,-801.5 332.3442,-801.5"/>
<text text-anchor="middle" x="349.8442" y="-866.8" font-family="Times,serif" font-size="14.00" fill="#000000">IN</text>
<polyline fill="none" stroke="#000000" points="367.3442,-801.5 367.3442,-939.5 "/>
<text text-anchor="middle" x="401.8442" y="-912.8" font-family="Times,serif" font-size="14.00" fill="#000000">bidssrc</text>
<polyline fill="none" stroke="#000000" points="367.3442,-893.5 436.3442,-893.5 "/>
<text text-anchor="middle" x="401.8442" y="-866.8" font-family="Times,serif" font-size="14.00" fill="#000000"> </text>
<polyline fill="none" stroke="#000000" points="367.3442,-847.5 436.3442,-847.5 "/>
<text text-anchor="middle" x="401.8442" y="-820.8" font-family="Times,serif" font-size="14.00" fill="#000000"> </text>
<polyline fill="none" stroke="#000000" points="436.3442,-801.5 436.3442,-939.5 "/>
<text text-anchor="middle" x="461.3442" y="-924.3" font-family="Times,serif" font-size="14.00" fill="#000000">OUT</text>
<polyline fill="none" stroke="#000000" points="436.3442,-916.5 486.3442,-916.5 "/>
<text text-anchor="middle" x="461.3442" y="-901.3" font-family="Times,serif" font-size="14.00" fill="#000000">dwi</text>
<polyline fill="none" stroke="#000000" points="436.3442,-893.5 486.3442,-893.5 "/>
<text text-anchor="middle" x="461.3442" y="-878.3" font-family="Times,serif" font-size="14.00" fill="#000000">flair</text>
<polyline fill="none" stroke="#000000" points="436.3442,-870.5 486.3442,-870.5 "/>
<text text-anchor="middle" x="461.3442" y="-855.3" font-family="Times,serif" font-size="14.00" fill="#000000">roi</text>
<polyline fill="none" stroke="#000000" points="436.3442,-847.5 486.3442,-847.5 "/>
<text text-anchor="middle" x="461.3442" y="-832.3" font-family="Times,serif" font-size="14.00" fill="#000000">t1w</text>
<polyline fill="none" stroke="#000000" points="436.3442,-824.5 486.3442,-824.5 "/>
<text text-anchor="middle" x="461.3442" y="-809.3" font-family="Times,serif" font-size="14.00" fill="#000000">t2w</text>
</g>
<!-- single_subject_THP0005_wfbids_info -->
<g id="node4" class="node">
<title>single_subject_THP0005_wfbids_info</title>
<polygon fill="none" stroke="#000000" points="403.3442,-695.5 403.3442,-764.5 613.3442,-764.5 613.3442,-695.5 403.3442,-695.5"/>
<text text-anchor="middle" x="433.3442" y="-743.8" font-family="Times,serif" font-size="14.00" fill="#000000">IN</text>
<polyline fill="none" stroke="#000000" points="403.3442,-730.5 463.3442,-730.5 "/>
<text text-anchor="middle" x="433.3442" y="-709.3" font-family="Times,serif" font-size="14.00" fill="#000000">in_file</text>
<polyline fill="none" stroke="#000000" points="463.3442,-695.5 463.3442,-764.5 "/>
<text text-anchor="middle" x="503.8442" y="-749.3" font-family="Times,serif" font-size="14.00" fill="#000000">bids_info</text>
<polyline fill="none" stroke="#000000" points="463.3442,-741.5 544.3442,-741.5 "/>
<text text-anchor="middle" x="503.8442" y="-726.3" font-family="Times,serif" font-size="14.00" fill="#000000">bids</text>
<polyline fill="none" stroke="#000000" points="463.3442,-718.5 544.3442,-718.5 "/>
<text text-anchor="middle" x="503.8442" y="-703.3" font-family="Times,serif" font-size="14.00" fill="#000000"> </text>
<polyline fill="none" stroke="#000000" points="544.3442,-695.5 544.3442,-764.5 "/>
<text text-anchor="middle" x="578.8442" y="-743.8" font-family="Times,serif" font-size="14.00" fill="#000000">OUT</text>
<polyline fill="none" stroke="#000000" points="544.3442,-730.5 613.3442,-730.5 "/>
<text text-anchor="middle" x="578.8442" y="-709.3" font-family="Times,serif" font-size="14.00" fill="#000000">subject</text>
</g>
<!-- single_subject_THP0005_wfbidssrc&#45;&gt;single_subject_THP0005_wfbids_info -->
<g id="edge21" class="edge">
<title>single_subject_THP0005_wfbidssrc:e&#45;&gt;single_subject_THP0005_wfbids_info:w</title>
<path fill="none" stroke="#000000" d="M486.3442,-835.5C501.6775,-835.5 494.7572,-813.8192 486.3442,-801 464.2825,-767.3835 425.406,-798.6165 403.3442,-765 398.7872,-758.0562 394.8113,-734.2309 397.2259,-721.3783"/>
<polygon fill="#000000" stroke="#000000" points="400.2733,-723.14 403.3442,-713 394.6202,-719.0118 400.2733,-723.14"/>
</g>
<!-- single_subject_THP0005_wfds_report_about -->
<g id="node5" class="node">
<title>single_subject_THP0005_wfds_report_about</title>
<polygon fill="none" stroke="#000000" points="783.8442,-695.5 783.8442,-764.5 1062.8442,-764.5 1062.8442,-695.5 783.8442,-695.5"/>
<text text-anchor="middle" x="831.3442" y="-749.3" font-family="Times,serif" font-size="14.00" fill="#000000">IN</text>
<polyline fill="none" stroke="#000000" points="783.8442,-741.5 878.8442,-741.5 "/>
<text text-anchor="middle" x="831.3442" y="-726.3" font-family="Times,serif" font-size="14.00" fill="#000000">in_file</text>
<polyline fill="none" stroke="#000000" points="783.8442,-718.5 878.8442,-718.5 "/>
<text text-anchor="middle" x="831.3442" y="-703.3" font-family="Times,serif" font-size="14.00" fill="#000000">source_file</text>
<polyline fill="none" stroke="#000000" points="878.8442,-695.5 878.8442,-764.5 "/>
<text text-anchor="middle" x="945.8442" y="-749.3" font-family="Times,serif" font-size="14.00" fill="#000000">ds_report_about</text>
<polyline fill="none" stroke="#000000" points="878.8442,-741.5 1012.8442,-741.5 "/>
<text text-anchor="middle" x="945.8442" y="-726.3" font-family="Times,serif" font-size="14.00" fill="#000000"> </text>
<polyline fill="none" stroke="#000000" points="878.8442,-718.5 1012.8442,-718.5 "/>
<text text-anchor="middle" x="945.8442" y="-703.3" font-family="Times,serif" font-size="14.00" fill="#000000"> </text>
<polyline fill="none" stroke="#000000" points="1012.8442,-695.5 1012.8442,-764.5 "/>
<text text-anchor="middle" x="1037.8442" y="-726.3" font-family="Times,serif" font-size="14.00" fill="#000000">OUT</text>
</g>
<!-- single_subject_THP0005_wfbidssrc&#45;&gt;single_subject_THP0005_wfds_report_about -->
<g id="edge22" class="edge">
<title>single_subject_THP0005_wfbidssrc:e&#45;&gt;single_subject_THP0005_wfds_report_about:w</title>
<path fill="none" stroke="#000000" d="M486.3442,-835.5C530.0136,-835.5 536.2866,-812.7546 578.3442,-801 661.5396,-777.7479 706.7375,-824.5191 769.3442,-765 784.9597,-750.1546 766.9361,-721.1439 773.852,-710.7868"/>
<polygon fill="#000000" stroke="#000000" points="775.353,-713.9563 783.3442,-707 772.7591,-707.4546 775.353,-713.9563"/>
</g>
<!-- single_subject_THP0005_wfbidssrc&#45;&gt;single_subject_THP0005_wfsummary -->
<g id="edge17" class="edge">
<title>single_subject_THP0005_wfbidssrc:e&#45;&gt;single_subject_THP0005_wfsummary:w</title>
<path fill="none" stroke="#000000" d="M486.3442,-905.5C532.7887,-905.5 517.46,-835.4804 486.3442,-801 433.9616,-742.9531 194.2865,-817.4984 136.3442,-765 102.3008,-734.1551 56.3807,-572.3629 88.4547,-547.2711"/>
<polygon fill="#000000" stroke="#000000" points="89.9492,-550.4633 98.3442,-544 87.7509,-543.8174 89.9492,-550.4633"/>
</g>
<!-- single_subject_THP0005_wfbidssrc&#45;&gt;single_subject_THP0005_wfsummary -->
<g id="edge24" class="edge">
<title>single_subject_THP0005_wfbidssrc:e&#45;&gt;single_subject_THP0005_wfsummary:w</title>
<path fill="none" stroke="#000000" d="M486.3442,-835.5C501.6775,-835.5 496.6762,-812.3296 486.3442,-801 427.6977,-736.6906 154.9907,-829.3094 96.3442,-765 57.1882,-722.0631 -22.7186,-487.8171 88.1576,-474.5837"/>
<polygon fill="#000000" stroke="#000000" points="88.5608,-478.0664 98.3442,-474 88.1603,-471.0778 88.5608,-478.0664"/>
</g>
<!-- single_subject_THP0005_wfbidssrc&#45;&gt;single_subject_THP0005_wfsummary -->
<g id="edge26" class="edge">
<title>single_subject_THP0005_wfbidssrc:e&#45;&gt;single_subject_THP0005_wfsummary:w</title>
<path fill="none" stroke="#000000" d="M486.3442,-812.5C491.4553,-812.5 489.8039,-804.7622 486.3442,-801 421.5866,-730.5806 122.1018,-835.4194 57.3442,-765 34.9598,-740.6585 30.3859,-479.6087 88.4762,-453.1586"/>
<polygon fill="#000000" stroke="#000000" points="89.3232,-456.5562 98.3442,-451 87.8272,-449.7179 89.3232,-456.5562"/>
</g>
<!-- single_subject_THP0005_wfbidssrc&#45;&gt;single_subject_THP0005_wfanat_preproc_wf -->
<g id="edge18" class="edge">
<title>single_subject_THP0005_wfbidssrc:e&#45;&gt;single_subject_THP0005_wfanat_preproc_wf:w</title>
<path fill="none" stroke="#000000" d="M486.3442,-882.5C540.9698,-882.5 529.8418,-826.129 578.3442,-801 640.3707,-768.8641 687.9721,-819.7618 731.3442,-765 750.6602,-740.6116 748.786,-720.7621 731.3442,-695 707.1916,-659.3258 665.4968,-694.6742 641.3442,-659 635.2396,-649.9833 630.1459,-617.2578 634.4764,-602.413"/>
<polygon fill="#000000" stroke="#000000" points="637.1155,-604.7144 641.3442,-595 631.9805,-599.957 637.1155,-604.7144"/>
</g>
<!-- single_subject_THP0005_wfbidssrc&#45;&gt;single_subject_THP0005_wfanat_preproc_wf -->
<g id="edge19" class="edge">
<title>single_subject_THP0005_wfbidssrc:e&#45;&gt;single_subject_THP0005_wfanat_preproc_wf:w</title>
<path fill="none" stroke="#000000" d="M486.3442,-858.5C534.5623,-858.5 534.5355,-821.1441 578.3442,-801 627.0035,-778.6255 661.6312,-808.1582 693.3442,-765 711.7663,-739.9295 707.7831,-722.5576 693.3442,-695 680.2986,-670.1015 654.3899,-683.8985 641.3442,-659 631.99,-641.1468 621.4093,-576.6786 632.8846,-557.4503"/>
<polygon fill="#000000" stroke="#000000" points="634.8334,-560.3583 641.3442,-552 631.0422,-554.4738 634.8334,-560.3583"/>
</g>
<!-- single_subject_THP0005_wfbidssrc&#45;&gt;single_subject_THP0005_wfanat_preproc_wf -->
<g id="edge20" class="edge">
<title>single_subject_THP0005_wfbidssrc:e&#45;&gt;single_subject_THP0005_wfanat_preproc_wf:w</title>
<path fill="none" stroke="#000000" d="M486.3442,-835.5C491.4308,-835.5 652.5236,-769.2328 655.3442,-765 672.5961,-739.1104 661.0806,-725.5777 655.3442,-695 652.1788,-678.1271 644.5096,-675.8729 641.3442,-659 637.0657,-636.1936 619.7707,-468.3337 634.2981,-431.2412"/>
<polygon fill="#000000" stroke="#000000" points="636.8788,-433.6078 641.3442,-424 631.8619,-428.7261 636.8788,-433.6078"/>
</g>
<!-- single_subject_THP0005_wfbidssrc&#45;&gt;single_subject_THP0005_wfanat_preproc_wf -->
<g id="edge25" class="edge">
<title>single_subject_THP0005_wfbidssrc:e&#45;&gt;single_subject_THP0005_wfanat_preproc_wf:w</title>
<path fill="none" stroke="#000000" d="M486.3442,-812.5C518.3567,-812.5 603.1724,-790.6368 622.3442,-765 633.9618,-749.4648 622.531,-445.412 636.3352,-389.7207"/>
<polygon fill="#000000" stroke="#000000" points="639.3984,-391.4146 641.3442,-381 633.3285,-387.9281 639.3984,-391.4146"/>
</g>
<!-- single_subject_THP0005_wfds_report_summary -->
<g id="node8" class="node">
<title>single_subject_THP0005_wfds_report_summary</title>
<polygon fill="none" stroke="#000000" points="181.8442,-127 181.8442,-196 486.8442,-196 486.8442,-127 181.8442,-127"/>
<text text-anchor="middle" x="229.3442" y="-180.8" font-family="Times,serif" font-size="14.00" fill="#000000">IN</text>
<polyline fill="none" stroke="#000000" points="181.8442,-173 276.8442,-173 "/>
<text text-anchor="middle" x="229.3442" y="-157.8" font-family="Times,serif" font-size="14.00" fill="#000000">in_file</text>
<polyline fill="none" stroke="#000000" points="181.8442,-150 276.8442,-150 "/>
<text text-anchor="middle" x="229.3442" y="-134.8" font-family="Times,serif" font-size="14.00" fill="#000000">source_file</text>
<polyline fill="none" stroke="#000000" points="276.8442,-127 276.8442,-196 "/>
<text text-anchor="middle" x="356.8442" y="-180.8" font-family="Times,serif" font-size="14.00" fill="#000000">ds_report_summary</text>
<polyline fill="none" stroke="#000000" points="276.8442,-173 436.8442,-173 "/>
<text text-anchor="middle" x="356.8442" y="-157.8" font-family="Times,serif" font-size="14.00" fill="#000000"> </text>
<polyline fill="none" stroke="#000000" points="276.8442,-150 436.8442,-150 "/>
<text text-anchor="middle" x="356.8442" y="-134.8" font-family="Times,serif" font-size="14.00" fill="#000000"> </text>
<polyline fill="none" stroke="#000000" points="436.8442,-127 436.8442,-196 "/>
<text text-anchor="middle" x="461.8442" y="-157.8" font-family="Times,serif" font-size="14.00" fill="#000000">OUT</text>
</g>
<!-- single_subject_THP0005_wfbidssrc&#45;&gt;single_subject_THP0005_wfds_report_summary -->
<g id="edge23" class="edge">
<title>single_subject_THP0005_wfbidssrc:e&#45;&gt;single_subject_THP0005_wfds_report_summary:w</title>
<path fill="none" stroke="#000000" d="M486.3442,-835.5C501.6775,-835.5 496.7422,-812.2691 486.3442,-801 418.7651,-727.7595 106.9233,-838.2405 39.3442,-765 -55.098,-662.6459 34.0156,-163.7196 170.9743,-139.419"/>
<polygon fill="#000000" stroke="#000000" points="171.6923,-142.8692 181.3442,-138.5 171.0743,-135.8965 171.6923,-142.8692"/>
</g>
<!-- single_subject_THP0005_wfabout -->
<g id="node3" class="node">
<title>single_subject_THP0005_wfabout</title>
<polygon fill="none" stroke="#000000" points="587.3442,-836 587.3442,-905 783.3442,-905 783.3442,-836 587.3442,-836"/>
<text text-anchor="middle" x="604.8442" y="-866.8" font-family="Times,serif" font-size="14.00" fill="#000000">IN</text>
<polyline fill="none" stroke="#000000" points="622.3442,-836 622.3442,-905 "/>
<text text-anchor="middle" x="656.8442" y="-889.8" font-family="Times,serif" font-size="14.00" fill="#000000">about</text>
<polyline fill="none" stroke="#000000" points="622.3442,-882 691.3442,-882 "/>
<text text-anchor="middle" x="656.8442" y="-866.8" font-family="Times,serif" font-size="14.00" fill="#000000">reports</text>
<polyline fill="none" stroke="#000000" points="622.3442,-859 691.3442,-859 "/>
<text text-anchor="middle" x="656.8442" y="-843.8" font-family="Times,serif" font-size="14.00" fill="#000000"> </text>
<polyline fill="none" stroke="#000000" points="691.3442,-836 691.3442,-905 "/>
<text text-anchor="middle" x="737.3442" y="-884.3" font-family="Times,serif" font-size="14.00" fill="#000000">OUT</text>
<polyline fill="none" stroke="#000000" points="691.3442,-871 783.3442,-871 "/>
<text text-anchor="middle" x="737.3442" y="-849.8" font-family="Times,serif" font-size="14.00" fill="#000000">out_report</text>
</g>
<!-- single_subject_THP0005_wfabout&#45;&gt;single_subject_THP0005_wfds_report_about -->
<g id="edge1" class="edge">
<title>single_subject_THP0005_wfabout:e&#45;&gt;single_subject_THP0005_wfds_report_about:w</title>
<path fill="none" stroke="#000000" d="M783.3442,-853.5C806.8221,-853.5 770.0462,-763.1194 776.107,-736.9937"/>
<polygon fill="#000000" stroke="#000000" points="778.5854,-739.466 783.3442,-730 773.721,-734.4322 778.5854,-739.466"/>
</g>
<!-- single_subject_THP0005_wfbids_info&#45;&gt;single_subject_THP0005_wfsummary -->
<g id="edge16" class="edge">
<title>single_subject_THP0005_wfbids_info:e&#45;&gt;single_subject_THP0005_wfsummary:w</title>
<path fill="none" stroke="#000000" d="M613.3442,-713C621.3442,-713 618.3382,-701.2498 613.3442,-695 466.8515,-511.6671 244.837,-761.8329 98.3442,-578.5 85.0086,-561.8107 76.1105,-532.8433 88.4779,-523.7876"/>
<polygon fill="#000000" stroke="#000000" points="89.6726,-527.0872 98.3442,-521 87.7693,-520.3509 89.6726,-527.0872"/>
</g>
<!-- single_subject_THP0005_wfbids_info&#45;&gt;single_subject_THP0005_wfanat_preproc_wf -->
<g id="edge14" class="edge">
<title>single_subject_THP0005_wfbids_info:e&#45;&gt;single_subject_THP0005_wfanat_preproc_wf:w</title>
<path fill="none" stroke="#000000" d="M613.3442,-713C625.7409,-713 625.202,-671.2102 627.3442,-659 629.78,-645.1168 626.1977,-547.7103 635.1775,-518.354"/>
<polygon fill="#000000" stroke="#000000" points="638.2211,-520.1241 641.3442,-510 632.5893,-515.9668 638.2211,-520.1241"/>
</g>
<!-- single_subject_THP0005_wfdwi_preproc_wf -->
<g id="node9" class="node">
<title>single_subject_THP0005_wfdwi_preproc_wf</title>
<polygon fill="none" stroke="#000000" points="1189.3442,-.5 1189.3442,-322.5 1591.3442,-322.5 1591.3442,-.5 1189.3442,-.5"/>
<text text-anchor="middle" x="1299.8442" y="-307.3" font-family="Times,serif" font-size="14.00" fill="#000000">IN</text>
<polyline fill="none" stroke="#000000" points="1189.3442,-299.5 1410.3442,-299.5 "/>
<text text-anchor="middle" x="1299.8442" y="-284.3" font-family="Times,serif" font-size="14.00" fill="#000000">inputnode.anat2std_xfm</text>
<polyline fill="none" stroke="#000000" points="1189.3442,-276.5 1410.3442,-276.5 "/>
<text text-anchor="middle" x="1299.8442" y="-261.3" font-family="Times,serif" font-size="14.00" fill="#000000">inputnode.fsnative2t1w_xfm</text>
<polyline fill="none" stroke="#000000" points="1189.3442,-253.5 1410.3442,-253.5 "/>
<text text-anchor="middle" x="1299.8442" y="-238.3" font-family="Times,serif" font-size="14.00" fill="#000000">inputnode.std2anat_xfm</text>
<polyline fill="none" stroke="#000000" points="1189.3442,-230.5 1410.3442,-230.5 "/>
<text text-anchor="middle" x="1299.8442" y="-215.3" font-family="Times,serif" font-size="14.00" fill="#000000">inputnode.subject_id</text>
<polyline fill="none" stroke="#000000" points="1189.3442,-207.5 1410.3442,-207.5 "/>
<text text-anchor="middle" x="1299.8442" y="-192.3" font-family="Times,serif" font-size="14.00" fill="#000000">inputnode.subjects_dir</text>
<polyline fill="none" stroke="#000000" points="1189.3442,-184.5 1410.3442,-184.5 "/>
<text text-anchor="middle" x="1299.8442" y="-169.3" font-family="Times,serif" font-size="14.00" fill="#000000">inputnode.t1w2fsnative_xfm</text>
<polyline fill="none" stroke="#000000" points="1189.3442,-161.5 1410.3442,-161.5 "/>
<text text-anchor="middle" x="1299.8442" y="-146.3" font-family="Times,serif" font-size="14.00" fill="#000000">inputnode.t1w_aparc</text>
<polyline fill="none" stroke="#000000" points="1189.3442,-138.5 1410.3442,-138.5 "/>
<text text-anchor="middle" x="1299.8442" y="-123.3" font-family="Times,serif" font-size="14.00" fill="#000000">inputnode.t1w_aseg</text>
<polyline fill="none" stroke="#000000" points="1189.3442,-115.5 1410.3442,-115.5 "/>
<text text-anchor="middle" x="1299.8442" y="-100.3" font-family="Times,serif" font-size="14.00" fill="#000000">inputnode.t1w_dseg</text>
<polyline fill="none" stroke="#000000" points="1189.3442,-92.5 1410.3442,-92.5 "/>
<text text-anchor="middle" x="1299.8442" y="-77.3" font-family="Times,serif" font-size="14.00" fill="#000000">inputnode.t1w_mask</text>
<polyline fill="none" stroke="#000000" points="1189.3442,-69.5 1410.3442,-69.5 "/>
<text text-anchor="middle" x="1299.8442" y="-54.3" font-family="Times,serif" font-size="14.00" fill="#000000">inputnode.t1w_preproc</text>
<polyline fill="none" stroke="#000000" points="1189.3442,-46.5 1410.3442,-46.5 "/>
<text text-anchor="middle" x="1299.8442" y="-31.3" font-family="Times,serif" font-size="14.00" fill="#000000">inputnode.t1w_tpms</text>
<polyline fill="none" stroke="#000000" points="1189.3442,-23.5 1410.3442,-23.5 "/>
<text text-anchor="middle" x="1299.8442" y="-8.3" font-family="Times,serif" font-size="14.00" fill="#000000">inputnode.template</text>
<polyline fill="none" stroke="#000000" points="1410.3442,-.5 1410.3442,-322.5 "/>
<text text-anchor="middle" x="1475.8442" y="-265.3" font-family="Times,serif" font-size="14.00" fill="#000000">dwi_preproc_wf</text>
<polyline fill="none" stroke="#000000" points="1410.3442,-215.5 1541.3442,-215.5 "/>
<text text-anchor="middle" x="1475.8442" y="-158.3" font-family="Times,serif" font-size="14.00" fill="#000000"> </text>
<polyline fill="none" stroke="#000000" points="1410.3442,-108.5 1541.3442,-108.5 "/>
<text text-anchor="middle" x="1475.8442" y="-50.8" font-family="Times,serif" font-size="14.00" fill="#000000"> </text>
<polyline fill="none" stroke="#000000" points="1541.3442,-.5 1541.3442,-322.5 "/>
<text text-anchor="middle" x="1566.3442" y="-157.8" font-family="Times,serif" font-size="14.00" fill="#000000">OUT</text>
</g>
<!-- single_subject_THP0005_wfbids_info&#45;&gt;single_subject_THP0005_wfdwi_preproc_wf -->
<g id="edge15" class="edge">
<title>single_subject_THP0005_wfbids_info:e&#45;&gt;single_subject_THP0005_wfdwi_preproc_wf:w</title>
<path fill="none" stroke="#000000" d="M613.3442,-713C623.1917,-713 626.0797,-366.5979 632.3442,-359 711.4573,-263.0483 1044.2324,-221.6215 1179.2059,-219.5797"/>
<polygon fill="#000000" stroke="#000000" points="1179.3721,-223.0786 1189.3442,-219.5 1179.317,-216.0788 1179.3721,-223.0786"/>
</g>
<!-- single_subject_THP0005_wfsummary&#45;&gt;single_subject_THP0005_wfds_report_summary -->
<g id="edge29" class="edge">
<title>single_subject_THP0005_wfsummary:e&#45;&gt;single_subject_THP0005_wfds_report_summary:w</title>
<path fill="none" stroke="#000000" d="M378.3442,-474C538.8396,-474 40.4137,-175.3804 171.3091,-161.9659"/>
<polygon fill="#000000" stroke="#000000" points="171.5173,-165.4601 181.3442,-161.5 171.1926,-158.4676 171.5173,-165.4601"/>
</g>
<!-- single_subject_THP0005_wfanat_preproc_wf&#45;&gt;single_subject_THP0005_wfdwi_preproc_wf -->
<g id="edge2" class="edge">
<title>single_subject_THP0005_wfanat_preproc_wf:e&#45;&gt;single_subject_THP0005_wfdwi_preproc_wf:w</title>
<path fill="none" stroke="#000000" d="M1189.3442,-624C1189.3442,-624 1189.3442,-354.3639 1189.3442,-298.5408"/>
<polygon fill="#000000" stroke="#000000" points="1192.8443,-298.5 1189.3442,-288.5 1185.8443,-298.5 1192.8443,-298.5"/>
</g>
<!-- single_subject_THP0005_wfanat_preproc_wf&#45;&gt;single_subject_THP0005_wfdwi_preproc_wf -->
<g id="edge3" class="edge">
<title>single_subject_THP0005_wfanat_preproc_wf:e&#45;&gt;single_subject_THP0005_wfdwi_preproc_wf:w</title>
<path fill="none" stroke="#000000" d="M1189.3442,-601C1189.3442,-601 1189.3442,-331.3639 1189.3442,-275.5408"/>
<polygon fill="#000000" stroke="#000000" points="1192.8443,-275.5 1189.3442,-265.5 1185.8443,-275.5 1192.8443,-275.5"/>
</g>
<!-- single_subject_THP0005_wfanat_preproc_wf&#45;&gt;single_subject_THP0005_wfdwi_preproc_wf -->
<g id="edge4" class="edge">
<title>single_subject_THP0005_wfanat_preproc_wf:e&#45;&gt;single_subject_THP0005_wfdwi_preproc_wf:w</title>
<path fill="none" stroke="#000000" d="M1189.3442,-578C1189.3442,-578 1189.3442,-308.3639 1189.3442,-252.5408"/>
<polygon fill="#000000" stroke="#000000" points="1192.8443,-252.5 1189.3442,-242.5 1185.8443,-252.5 1192.8443,-252.5"/>
</g>
<!-- single_subject_THP0005_wfanat_preproc_wf&#45;&gt;single_subject_THP0005_wfdwi_preproc_wf -->
<g id="edge5" class="edge">
<title>single_subject_THP0005_wfanat_preproc_wf:e&#45;&gt;single_subject_THP0005_wfdwi_preproc_wf:w</title>
<path fill="none" stroke="#000000" d="M1189.3442,-555C1189.3442,-555 1189.3442,-265.6224 1189.3442,-206.8426"/>
<polygon fill="#000000" stroke="#000000" points="1192.8443,-206.5 1189.3442,-196.5 1185.8443,-206.5 1192.8443,-206.5"/>
</g>
<!-- single_subject_THP0005_wfanat_preproc_wf&#45;&gt;single_subject_THP0005_wfdwi_preproc_wf -->
<g id="edge6" class="edge">
<title>single_subject_THP0005_wfanat_preproc_wf:e&#45;&gt;single_subject_THP0005_wfdwi_preproc_wf:w</title>
<path fill="none" stroke="#000000" d="M1189.3442,-532C1345.0988,-532 1044.0848,-189.4236 1179.3205,-174.0345"/>
<polygon fill="#000000" stroke="#000000" points="1179.5448,-177.5276 1189.3442,-173.5 1179.172,-170.5375 1179.5448,-177.5276"/>
</g>
<!-- single_subject_THP0005_wfanat_preproc_wf&#45;&gt;single_subject_THP0005_wfdwi_preproc_wf -->
<g id="edge7" class="edge">
<title>single_subject_THP0005_wfanat_preproc_wf:e&#45;&gt;single_subject_THP0005_wfdwi_preproc_wf:w</title>
<path fill="none" stroke="#000000" d="M1189.3442,-509C1345.5332,-509 1043.6796,-165.468 1179.2925,-150.0359"/>
<polygon fill="#000000" stroke="#000000" points="1179.5448,-153.5276 1189.3442,-149.5 1179.172,-146.5375 1179.5448,-153.5276"/>
</g>
<!-- single_subject_THP0005_wfanat_preproc_wf&#45;&gt;single_subject_THP0005_wfdwi_preproc_wf -->
<g id="edge8" class="edge">
<title>single_subject_THP0005_wfanat_preproc_wf:e&#45;&gt;single_subject_THP0005_wfdwi_preproc_wf:w</title>
<path fill="none" stroke="#000000" d="M1189.3442,-486C1189.3442,-486 1189.3442,-195.8152 1189.3442,-136.8714"/>
<polygon fill="#000000" stroke="#000000" points="1192.8443,-136.5 1189.3442,-126.5 1185.8443,-136.5 1192.8443,-136.5"/>
</g>
<!-- single_subject_THP0005_wfanat_preproc_wf&#45;&gt;single_subject_THP0005_wfdwi_preproc_wf -->
<g id="edge9" class="edge">
<title>single_subject_THP0005_wfanat_preproc_wf:e&#45;&gt;single_subject_THP0005_wfdwi_preproc_wf:w</title>
<path fill="none" stroke="#000000" d="M1189.3442,-463C1189.3442,-463 1189.3442,-172.8152 1189.3442,-113.8714"/>
<polygon fill="#000000" stroke="#000000" points="1192.8443,-113.5 1189.3442,-103.5 1185.8443,-113.5 1192.8443,-113.5"/>
</g>
<!-- single_subject_THP0005_wfanat_preproc_wf&#45;&gt;single_subject_THP0005_wfdwi_preproc_wf -->
<g id="edge10" class="edge">
<title>single_subject_THP0005_wfanat_preproc_wf:e&#45;&gt;single_subject_THP0005_wfdwi_preproc_wf:w</title>
<path fill="none" stroke="#000000" d="M1189.3442,-440C1189.3442,-440 1189.3442,-149.8152 1189.3442,-90.8714"/>
<polygon fill="#000000" stroke="#000000" points="1192.8443,-90.5 1189.3442,-80.5 1185.8443,-90.5 1192.8443,-90.5"/>
</g>
<!-- single_subject_THP0005_wfanat_preproc_wf&#45;&gt;single_subject_THP0005_wfdwi_preproc_wf -->
<g id="edge11" class="edge">
<title>single_subject_THP0005_wfanat_preproc_wf:e&#45;&gt;single_subject_THP0005_wfdwi_preproc_wf:w</title>
<path fill="none" stroke="#000000" d="M1189.3442,-417C1189.3442,-417 1189.3442,-126.8152 1189.3442,-67.8714"/>
<polygon fill="#000000" stroke="#000000" points="1192.8443,-67.5 1189.3442,-57.5 1185.8443,-67.5 1192.8443,-67.5"/>
</g>
<!-- single_subject_THP0005_wfanat_preproc_wf&#45;&gt;single_subject_THP0005_wfdwi_preproc_wf -->
<g id="edge12" class="edge">
<title>single_subject_THP0005_wfanat_preproc_wf:e&#45;&gt;single_subject_THP0005_wfdwi_preproc_wf:w</title>
<path fill="none" stroke="#000000" d="M1189.3442,-394C1189.3442,-394 1189.3442,-103.8152 1189.3442,-44.8714"/>
<polygon fill="#000000" stroke="#000000" points="1192.8443,-44.5 1189.3442,-34.5 1185.8443,-44.5 1192.8443,-44.5"/>
</g>
<!-- single_subject_THP0005_wfanat_preproc_wf&#45;&gt;single_subject_THP0005_wfdwi_preproc_wf -->
<g id="edge13" class="edge">
<title>single_subject_THP0005_wfanat_preproc_wf:e&#45;&gt;single_subject_THP0005_wfdwi_preproc_wf:w</title>
<path fill="none" stroke="#000000" d="M1189.3442,-371C1189.3442,-371 1189.3442,-80.8152 1189.3442,-21.8714"/>
<polygon fill="#000000" stroke="#000000" points="1192.8443,-21.5 1189.3442,-11.5 1185.8443,-21.5 1192.8443,-21.5"/>
</g>
</g>
</svg>
