<?xml version="1.0" encoding="UTF-8" standalone="no"?>
<!DOCTYPE svg PUBLIC "-//W3C//DTD SVG 1.1//EN"
 "http://www.w3.org/Graphics/SVG/1.1/DTD/svg11.dtd">
<!-- Generated by graphviz version 2.40.1 (20161225.0304)
 -->
<!-- Title: %3 Pages: 1 -->
<svg width="464pt" height="548pt"
 viewBox="0.00 0.00 463.98 548.00" xmlns="http://www.w3.org/2000/svg" xmlns:xlink="http://www.w3.org/1999/xlink">
<g id="graph0" class="graph" transform="scale(1 1) rotate(0) translate(4 544)">
<title>%3</title>
<polygon fill="#ffffff" stroke="transparent" points="-4,4 -4,-544 459.9827,-544 459.9827,4 -4,4"/>
<!-- inputnode (utility) -->
<g id="node1" class="node">
<title>inputnode (utility)</title>
<ellipse fill="none" stroke="#000000" cx="304.9908" cy="-522" rx="94.7833" ry="18"/>
<text text-anchor="middle" x="304.9908" y="-518.3" font-family="Times,serif" font-size="14.00" fill="#000000">inputnode (utility)</text>
</g>
<!-- validate (images) -->
<g id="node2" class="node">
<title>validate (images)</title>
<ellipse fill="none" stroke="#000000" cx="364.9908" cy="-450" rx="90.9839" ry="18"/>
<text text-anchor="middle" x="364.9908" y="-446.3" font-family="Times,serif" font-size="14.00" fill="#000000">validate (images)</text>
</g>
<!-- inputnode (utility)&#45;&gt;validate (images) -->
<g id="edge1" class="edge">
<title>inputnode (utility)&#45;&gt;validate (images)</title>
<path fill="none" stroke="#000000" d="M319.8222,-504.2022C326.9617,-495.6348 335.6567,-485.2009 343.5042,-475.7839"/>
<polygon fill="#000000" stroke="#000000" points="346.4089,-477.7654 350.122,-467.8425 341.0313,-473.2841 346.4089,-477.7654"/>
</g>
<!-- extract_b0 (images) -->
<g id="node3" class="node">
<title>extract_b0 (images)</title>
<ellipse fill="none" stroke="#000000" cx="245.9908" cy="-378" rx="103.9815" ry="18"/>
<text text-anchor="middle" x="245.9908" y="-374.3" font-family="Times,serif" font-size="14.00" fill="#000000">extract_b0 (images)</text>
</g>
<!-- inputnode (utility)&#45;&gt;extract_b0 (images) -->
<g id="edge2" class="edge">
<title>inputnode (utility)&#45;&gt;extract_b0 (images)</title>
<path fill="none" stroke="#000000" d="M288.7882,-504.2576C280.4971,-494.2747 270.9268,-481.193 264.9908,-468 256.172,-448.4 251.3744,-424.5336 248.8073,-406.3038"/>
<polygon fill="#000000" stroke="#000000" points="252.2687,-405.7777 247.54,-396.2966 245.3241,-406.6572 252.2687,-405.7777"/>
</g>
<!-- validate (images)&#45;&gt;extract_b0 (images) -->
<g id="edge3" class="edge">
<title>validate (images)&#45;&gt;extract_b0 (images)</title>
<path fill="none" stroke="#000000" d="M336.4873,-432.7542C320.5608,-423.118 300.5234,-410.9945 283.3541,-400.6064"/>
<polygon fill="#000000" stroke="#000000" points="285.0418,-397.5368 274.6741,-395.3546 281.4181,-403.5259 285.0418,-397.5368"/>
</g>
<!-- outputnode (utility) -->
<g id="node4" class="node">
<title>outputnode (utility)</title>
<ellipse fill="none" stroke="#000000" cx="220.9908" cy="-18" rx="101.2821" ry="18"/>
<text text-anchor="middle" x="220.9908" y="-14.3" font-family="Times,serif" font-size="14.00" fill="#000000">outputnode (utility)</text>
</g>
<!-- validate (images)&#45;&gt;outputnode (utility) -->
<g id="edge4" class="edge">
<title>validate (images)&#45;&gt;outputnode (utility)</title>
<path fill="none" stroke="#000000" d="M374.11,-431.8786C386.7322,-405.076 407.9908,-352.9635 407.9908,-306 407.9908,-306 407.9908,-306 407.9908,-162 407.9908,-121.1184 416.3729,-102.3567 388.9908,-72 375.9382,-57.5295 334.3696,-44.1055 295.8505,-34.2614"/>
<polygon fill="#000000" stroke="#000000" points="296.6924,-30.8643 286.1424,-31.8374 294.9966,-37.6558 296.6924,-30.8643"/>
</g>
<!-- reg_b0 (fsl) -->
<g id="node5" class="node">
<title>reg_b0 (fsl)</title>
<ellipse fill="none" stroke="#000000" cx="229.9908" cy="-306" rx="63.8893" ry="18"/>
<text text-anchor="middle" x="229.9908" y="-302.3" font-family="Times,serif" font-size="14.00" fill="#000000">reg_b0 (fsl)</text>
</g>
<!-- extract_b0 (images)&#45;&gt;reg_b0 (fsl) -->
<g id="edge5" class="edge">
<title>extract_b0 (images)&#45;&gt;reg_b0 (fsl)</title>
<path fill="none" stroke="#000000" d="M241.9533,-359.8314C240.2421,-352.131 238.2073,-342.9743 236.3056,-334.4166"/>
<polygon fill="#000000" stroke="#000000" points="239.6686,-333.4159 234.0826,-324.4133 232.8353,-334.9344 239.6686,-333.4159"/>
</g>
<!-- pre_mask (afni) -->
<g id="node6" class="node">
<title>pre_mask (afni)</title>
<ellipse fill="none" stroke="#000000" cx="229.9908" cy="-234" rx="83.3857" ry="18"/>
<text text-anchor="middle" x="229.9908" y="-230.3" font-family="Times,serif" font-size="14.00" fill="#000000">pre_mask (afni)</text>
</g>
<!-- reg_b0 (fsl)&#45;&gt;pre_mask (afni) -->
<g id="edge6" class="edge">
<title>reg_b0 (fsl)&#45;&gt;pre_mask (afni)</title>
<path fill="none" stroke="#000000" d="M229.9908,-287.8314C229.9908,-280.131 229.9908,-270.9743 229.9908,-262.4166"/>
<polygon fill="#000000" stroke="#000000" points="233.4909,-262.4132 229.9908,-252.4133 226.4909,-262.4133 233.4909,-262.4132"/>
</g>
<!-- rescale_b0 (images) -->
<g id="node7" class="node">
<title>rescale_b0 (images)</title>
<ellipse fill="none" stroke="#000000" cx="103.9908" cy="-162" rx="103.9815" ry="18"/>
<text text-anchor="middle" x="103.9908" y="-158.3" font-family="Times,serif" font-size="14.00" fill="#000000">rescale_b0 (images)</text>
</g>
<!-- reg_b0 (fsl)&#45;&gt;rescale_b0 (images) -->
<g id="edge7" class="edge">
<title>reg_b0 (fsl)&#45;&gt;rescale_b0 (images)</title>
<path fill="none" stroke="#000000" d="M192.7319,-291.3003C174.1344,-282.3462 152.5573,-269.2725 137.9908,-252 122.9996,-234.224 114.2582,-209.1651 109.4026,-190.0016"/>
<polygon fill="#000000" stroke="#000000" points="112.7619,-188.9941 107.0899,-180.0454 105.9434,-190.5781 112.7619,-188.9941"/>
</g>
<!-- pre_mask (afni)&#45;&gt;rescale_b0 (images) -->
<g id="edge8" class="edge">
<title>pre_mask (afni)&#45;&gt;rescale_b0 (images)</title>
<path fill="none" stroke="#000000" d="M200.4494,-217.1192C183.3219,-207.3321 161.5465,-194.889 143.0209,-184.3029"/>
<polygon fill="#000000" stroke="#000000" points="144.6412,-181.1977 134.2222,-179.2751 141.1682,-187.2754 144.6412,-181.1977"/>
</g>
<!-- enhance_and_skullstrip_dwi_wf -->
<g id="node8" class="node">
<title>enhance_and_skullstrip_dwi_wf</title>
<ellipse fill="none" stroke="#000000" cx="220.9908" cy="-90" rx="158.6719" ry="18"/>
<text text-anchor="middle" x="220.9908" y="-86.3" font-family="Times,serif" font-size="14.00" fill="#000000">enhance_and_skullstrip_dwi_wf</text>
</g>
<!-- pre_mask (afni)&#45;&gt;enhance_and_skullstrip_dwi_wf -->
<g id="edge9" class="edge">
<title>pre_mask (afni)&#45;&gt;enhance_and_skullstrip_dwi_wf</title>
<path fill="none" stroke="#000000" d="M228.8509,-215.7623C227.3158,-191.201 224.5687,-147.2474 222.7629,-118.3541"/>
<polygon fill="#000000" stroke="#000000" points="226.2384,-117.8518 222.1214,-108.0896 219.2521,-118.2885 226.2384,-117.8518"/>
</g>
<!-- rescale_b0 (images)&#45;&gt;outputnode (utility) -->
<g id="edge11" class="edge">
<title>rescale_b0 (images)&#45;&gt;outputnode (utility)</title>
<path fill="none" stroke="#000000" d="M81.8618,-144.3628C61.1378,-125.6743 35.7467,-95.6557 52.9908,-72 64.2559,-56.5463 104.4879,-43.3228 142.7551,-33.8296"/>
<polygon fill="#000000" stroke="#000000" points="144.0426,-37.1196 152.9448,-31.375 142.4032,-30.3143 144.0426,-37.1196"/>
</g>
<!-- rescale_b0 (images)&#45;&gt;enhance_and_skullstrip_dwi_wf -->
<g id="edge10" class="edge">
<title>rescale_b0 (images)&#45;&gt;enhance_and_skullstrip_dwi_wf</title>
<path fill="none" stroke="#000000" d="M132.3132,-144.5708C147.606,-135.1599 166.6877,-123.4173 183.2286,-113.2383"/>
<polygon fill="#000000" stroke="#000000" points="185.4341,-115.9907 192.1163,-107.7689 181.7654,-110.0291 185.4341,-115.9907"/>
</g>
<!-- enhance_and_skullstrip_dwi_wf&#45;&gt;outputnode (utility) -->
<g id="edge12" class="edge">
<title>enhance_and_skullstrip_dwi_wf&#45;&gt;outputnode (utility)</title>
<path fill="none" stroke="#000000" d="M220.9908,-71.8314C220.9908,-64.131 220.9908,-54.9743 220.9908,-46.4166"/>
<polygon fill="#000000" stroke="#000000" points="224.4909,-46.4132 220.9908,-36.4133 217.4909,-46.4133 224.4909,-46.4132"/>
</g>
</g>
</svg>
