<?xml version="1.0" encoding="UTF-8" standalone="no"?>
<!DOCTYPE svg PUBLIC "-//W3C//DTD SVG 1.1//EN"
 "http://www.w3.org/Graphics/SVG/1.1/DTD/svg11.dtd">
<!-- Generated by graphviz version 2.40.1 (20161225.0304)
 -->
<!-- Title: %3 Pages: 1 -->
<svg width="731pt" height="260pt"
 viewBox="0.00 0.00 731.08 260.00" xmlns="http://www.w3.org/2000/svg" xmlns:xlink="http://www.w3.org/1999/xlink">
<g id="graph0" class="graph" transform="scale(1 1) rotate(0) translate(4 256)">
<title>%3</title>
<polygon fill="#ffffff" stroke="transparent" points="-4,4 -4,-256 727.083,-256 727.083,4 -4,4"/>
<!-- fsinputnode (utility) -->
<g id="node1" class="node">
<title>fsinputnode (utility)</title>
<ellipse fill="none" stroke="#000000" cx="389.9908" cy="-162" rx="103.1819" ry="18"/>
<text text-anchor="middle" x="389.9908" y="-158.3" font-family="Times,serif" font-size="14.00" fill="#000000">fsinputnode (utility)</text>
</g>
<!-- anat_preproc_wf -->
<g id="node2" class="node">
<title>anat_preproc_wf</title>
<ellipse fill="none" stroke="#000000" cx="398.9908" cy="-90" rx="89.0842" ry="18"/>
<text text-anchor="middle" x="398.9908" y="-86.3" font-family="Times,serif" font-size="14.00" fill="#000000">anat_preproc_wf</text>
</g>
<!-- fsinputnode (utility)&#45;&gt;anat_preproc_wf -->
<g id="edge1" class="edge">
<title>fsinputnode (utility)&#45;&gt;anat_preproc_wf</title>
<path fill="none" stroke="#000000" d="M392.2619,-143.8314C393.2244,-136.131 394.369,-126.9743 395.4387,-118.4166"/>
<polygon fill="#000000" stroke="#000000" points="398.9217,-118.7702 396.6891,-108.4133 391.9757,-117.9019 398.9217,-118.7702"/>
</g>
<!-- summary (reports) -->
<g id="node3" class="node">
<title>summary (reports)</title>
<ellipse fill="none" stroke="#000000" cx="155.9908" cy="-90" rx="98.2828" ry="18"/>
<text text-anchor="middle" x="155.9908" y="-86.3" font-family="Times,serif" font-size="14.00" fill="#000000">summary (reports)</text>
</g>
<!-- fsinputnode (utility)&#45;&gt;summary (reports) -->
<g id="edge2" class="edge">
<title>fsinputnode (utility)&#45;&gt;summary (reports)</title>
<path fill="none" stroke="#000000" d="M338.9276,-146.2883C302.8816,-135.1972 254.438,-120.2915 216.4575,-108.6051"/>
<polygon fill="#000000" stroke="#000000" points="217.1295,-105.1501 206.5424,-105.5544 215.0709,-111.8405 217.1295,-105.1501"/>
</g>
<!-- dwi_preproc_wf -->
<g id="node4" class="node">
<title>dwi_preproc_wf</title>
<ellipse fill="none" stroke="#000000" cx="332.9908" cy="-18" rx="85.2851" ry="18"/>
<text text-anchor="middle" x="332.9908" y="-14.3" font-family="Times,serif" font-size="14.00" fill="#000000">dwi_preproc_wf</text>
</g>
<!-- anat_preproc_wf&#45;&gt;dwi_preproc_wf -->
<g id="edge3" class="edge">
<title>anat_preproc_wf&#45;&gt;dwi_preproc_wf</title>
<path fill="none" stroke="#000000" d="M382.6762,-72.2022C374.664,-63.4617 364.8712,-52.7786 356.104,-43.2144"/>
<polygon fill="#000000" stroke="#000000" points="358.6838,-40.8491 349.3464,-35.8425 353.5237,-45.5792 358.6838,-40.8491"/>
</g>
<!-- ds_report_summary -->
<g id="node7" class="node">
<title>ds_report_summary</title>
<ellipse fill="none" stroke="#000000" cx="103.9908" cy="-18" rx="103.9815" ry="18"/>
<text text-anchor="middle" x="103.9908" y="-14.3" font-family="Times,serif" font-size="14.00" fill="#000000">ds_report_summary</text>
</g>
<!-- summary (reports)&#45;&gt;ds_report_summary -->
<g id="edge4" class="edge">
<title>summary (reports)&#45;&gt;ds_report_summary</title>
<path fill="none" stroke="#000000" d="M142.869,-71.8314C136.7876,-63.411 129.4487,-53.2495 122.793,-44.0338"/>
<polygon fill="#000000" stroke="#000000" points="125.6206,-41.971 116.9282,-35.9134 119.9458,-46.0695 125.6206,-41.971"/>
</g>
<!-- bidssrc -->
<g id="node5" class="node">
<title>bidssrc</title>
<ellipse fill="none" stroke="#000000" cx="186.9908" cy="-234" rx="44.6926" ry="18"/>
<text text-anchor="middle" x="186.9908" y="-230.3" font-family="Times,serif" font-size="14.00" fill="#000000">bidssrc</text>
</g>
<!-- bidssrc&#45;&gt;anat_preproc_wf -->
<g id="edge7" class="edge">
<title>bidssrc&#45;&gt;anat_preproc_wf</title>
<path fill="none" stroke="#000000" d="M230.7362,-229.6187C313.1333,-220.9237 484.6665,-200.5468 501.9908,-180 512.3045,-167.7678 510.2712,-157.6907 501.9908,-144 492.5131,-128.3299 476.8214,-116.985 460.5088,-108.8676"/>
<polygon fill="#000000" stroke="#000000" points="461.9652,-105.685 451.4178,-104.683 459.0382,-112.0437 461.9652,-105.685"/>
</g>
<!-- bidssrc&#45;&gt;summary (reports) -->
<g id="edge6" class="edge">
<title>bidssrc&#45;&gt;summary (reports)</title>
<path fill="none" stroke="#000000" d="M151.6074,-222.9073C131.4486,-214.5632 107.8988,-200.9131 95.9908,-180 88.0738,-166.096 89.4814,-158.616 95.9908,-144 101.1578,-132.3982 110.1856,-122.2434 119.6933,-113.9649"/>
<polygon fill="#000000" stroke="#000000" points="122.1526,-116.477 127.7184,-107.4618 117.7455,-111.0385 122.1526,-116.477"/>
</g>
<!-- bids_info (bids) -->
<g id="node6" class="node">
<title>bids_info (bids)</title>
<ellipse fill="none" stroke="#000000" cx="186.9908" cy="-162" rx="81.7856" ry="18"/>
<text text-anchor="middle" x="186.9908" y="-158.3" font-family="Times,serif" font-size="14.00" fill="#000000">bids_info (bids)</text>
</g>
<!-- bidssrc&#45;&gt;bids_info (bids) -->
<g id="edge5" class="edge">
<title>bidssrc&#45;&gt;bids_info (bids)</title>
<path fill="none" stroke="#000000" d="M186.9908,-215.8314C186.9908,-208.131 186.9908,-198.9743 186.9908,-190.4166"/>
<polygon fill="#000000" stroke="#000000" points="190.4909,-190.4132 186.9908,-180.4133 183.4909,-190.4133 190.4909,-190.4132"/>
</g>
<!-- bidssrc&#45;&gt;ds_report_summary -->
<g id="edge8" class="edge">
<title>bidssrc&#45;&gt;ds_report_summary</title>
<path fill="none" stroke="#000000" d="M153.6514,-221.8958C132.5198,-212.9062 105.7358,-198.9241 86.9908,-180 61.5272,-154.2931 57.6904,-143.1219 48.9908,-108 45.1439,-92.4693 42.8001,-86.7538 48.9908,-72 53.7161,-60.7384 62.0625,-50.6433 70.8476,-42.3142"/>
<polygon fill="#000000" stroke="#000000" points="73.4239,-44.7084 78.6007,-35.4644 68.7892,-39.4624 73.4239,-44.7084"/>
</g>
<!-- ds_report_about -->
<g id="node8" class="node">
<title>ds_report_about</title>
<ellipse fill="none" stroke="#000000" cx="635.9908" cy="-162" rx="87.1846" ry="18"/>
<text text-anchor="middle" x="635.9908" y="-158.3" font-family="Times,serif" font-size="14.00" fill="#000000">ds_report_about</text>
</g>
<!-- bidssrc&#45;&gt;ds_report_about -->
<g id="edge9" class="edge">
<title>bidssrc&#45;&gt;ds_report_about</title>
<path fill="none" stroke="#000000" d="M229.0905,-227.7786C294.577,-218.031 424.7783,-198.3695 534.9908,-180 543.2618,-178.6214 551.9064,-177.1412 560.5075,-175.6432"/>
<polygon fill="#000000" stroke="#000000" points="561.3138,-179.0554 570.5596,-173.8817 560.1055,-172.1604 561.3138,-179.0554"/>
</g>
<!-- bids_info (bids)&#45;&gt;anat_preproc_wf -->
<g id="edge11" class="edge">
<title>bids_info (bids)&#45;&gt;anat_preproc_wf</title>
<path fill="none" stroke="#000000" d="M231.6915,-146.8186C264.3377,-135.7312 308.8031,-120.6298 343.6868,-108.7825"/>
<polygon fill="#000000" stroke="#000000" points="344.9107,-112.0632 353.254,-105.5332 342.6596,-105.4351 344.9107,-112.0632"/>
</g>
<!-- bids_info (bids)&#45;&gt;summary (reports) -->
<g id="edge10" class="edge">
<title>bids_info (bids)&#45;&gt;summary (reports)</title>
<path fill="none" stroke="#000000" d="M179.1682,-143.8314C175.7798,-135.9617 171.7367,-126.5712 167.9832,-117.8533"/>
<polygon fill="#000000" stroke="#000000" points="171.088,-116.214 163.9187,-108.4133 164.6587,-118.9822 171.088,-116.214"/>
</g>
<!-- bids_info (bids)&#45;&gt;dwi_preproc_wf -->
<g id="edge12" class="edge">
<title>bids_info (bids)&#45;&gt;dwi_preproc_wf</title>
<path fill="none" stroke="#000000" d="M214.8472,-145.0438C229.9157,-135.1961 248.378,-121.9935 262.9908,-108 283.1082,-88.735 302.2593,-63.4566 315.4281,-44.5962"/>
<polygon fill="#000000" stroke="#000000" points="318.4402,-46.3927 321.2148,-36.1676 312.6693,-42.4307 318.4402,-46.3927"/>
</g>
<!-- about (reports) -->
<g id="node9" class="node">
<title>about (reports)</title>
<ellipse fill="none" stroke="#000000" cx="635.9908" cy="-234" rx="81.4863" ry="18"/>
<text text-anchor="middle" x="635.9908" y="-230.3" font-family="Times,serif" font-size="14.00" fill="#000000">about (reports)</text>
</g>
<!-- about (reports)&#45;&gt;ds_report_about -->
<g id="edge13" class="edge">
<title>about (reports)&#45;&gt;ds_report_about</title>
<path fill="none" stroke="#000000" d="M635.9908,-215.8314C635.9908,-208.131 635.9908,-198.9743 635.9908,-190.4166"/>
<polygon fill="#000000" stroke="#000000" points="639.4909,-190.4132 635.9908,-180.4133 632.4909,-190.4133 639.4909,-190.4132"/>
</g>
</g>
</svg>
