<?xml version="1.0" encoding="UTF-8" standalone="no"?>
<!DOCTYPE svg PUBLIC "-//W3C//DTD SVG 1.1//EN"
 "http://www.w3.org/Graphics/SVG/1.1/DTD/svg11.dtd">
<!-- Generated by graphviz version 2.40.1 (20161225.0304)
 -->
<!-- Title: %3 Pages: 1 -->
<svg width="827pt" height="836pt"
 viewBox="0.00 0.00 827.08 836.00" xmlns="http://www.w3.org/2000/svg" xmlns:xlink="http://www.w3.org/1999/xlink">
<g id="graph0" class="graph" transform="scale(1 1) rotate(0) translate(4 832)">
<title>%3</title>
<polygon fill="#ffffff" stroke="transparent" points="-4,4 -4,-832 823.0807,-832 823.0807,4 -4,4"/>
<!-- inputnode (utility) -->
<g id="node1" class="node">
<title>inputnode (utility)</title>
<ellipse fill="none" stroke="#000000" cx="605.139" cy="-810" rx="94.7833" ry="18"/>
<text text-anchor="middle" x="605.139" y="-806.3" font-family="Times,serif" font-size="14.00" fill="#000000">inputnode (utility)</text>
</g>
<!-- n4_correct (fixes) -->
<g id="node2" class="node">
<title>n4_correct (fixes)</title>
<ellipse fill="none" stroke="#000000" cx="726.139" cy="-738" rx="92.8835" ry="18"/>
<text text-anchor="middle" x="726.139" y="-734.3" font-family="Times,serif" font-size="14.00" fill="#000000">n4_correct (fixes)</text>
</g>
<!-- inputnode (utility)&#45;&gt;n4_correct (fixes) -->
<g id="edge1" class="edge">
<title>inputnode (utility)&#45;&gt;n4_correct (fixes)</title>
<path fill="none" stroke="#000000" d="M634.1215,-792.7542C650.3157,-783.118 670.6898,-770.9945 688.1477,-760.6064"/>
<polygon fill="#000000" stroke="#000000" points="690.1697,-763.476 696.9736,-755.3546 686.5901,-757.4605 690.1697,-763.476"/>
</g>
<!-- fixhdr_unifize (utils) -->
<g id="node3" class="node">
<title>fixhdr_unifize (utils)</title>
<ellipse fill="none" stroke="#000000" cx="550.139" cy="-378" rx="104.7816" ry="18"/>
<text text-anchor="middle" x="550.139" y="-374.3" font-family="Times,serif" font-size="14.00" fill="#000000">fixhdr_unifize (utils)</text>
</g>
<!-- inputnode (utility)&#45;&gt;fixhdr_unifize (utils) -->
<g id="edge2" class="edge">
<title>inputnode (utility)&#45;&gt;fixhdr_unifize (utils)</title>
<path fill="none" stroke="#000000" d="M605.139,-791.8146C605.139,-764.4983 605.139,-711.25 605.139,-666 605.139,-666 605.139,-666 605.139,-522 605.139,-478.9621 583.4337,-433.1692 567.2939,-405.0671"/>
<polygon fill="#000000" stroke="#000000" points="570.178,-403.0682 562.0732,-396.2446 564.1538,-406.6331 570.178,-403.0682"/>
</g>
<!-- fixhdr_skullstrip2 (utils) -->
<g id="node4" class="node">
<title>fixhdr_skullstrip2 (utils)</title>
<ellipse fill="none" stroke="#000000" cx="124.139" cy="-234" rx="124.2781" ry="18"/>
<text text-anchor="middle" x="124.139" y="-230.3" font-family="Times,serif" font-size="14.00" fill="#000000">fixhdr_skullstrip2 (utils)</text>
</g>
<!-- inputnode (utility)&#45;&gt;fixhdr_skullstrip2 (utils) -->
<g id="edge3" class="edge">
<title>inputnode (utility)&#45;&gt;fixhdr_skullstrip2 (utils)</title>
<path fill="none" stroke="#000000" d="M526.8767,-799.7314C404.3644,-781.4386 181.139,-738.2016 181.139,-666 181.139,-666 181.139,-666 181.139,-378 181.139,-334.7597 158.6445,-289.0187 141.9177,-260.9832"/>
<polygon fill="#000000" stroke="#000000" points="144.7264,-258.8688 136.5071,-252.1834 138.7634,-262.5353 144.7264,-258.8688"/>
</g>
<!-- skullstrip_first_pass (fsl) -->
<g id="node5" class="node">
<title>skullstrip_first_pass (fsl)</title>
<ellipse fill="none" stroke="#000000" cx="390.139" cy="-666" rx="126.1777" ry="18"/>
<text text-anchor="middle" x="390.139" y="-662.3" font-family="Times,serif" font-size="14.00" fill="#000000">skullstrip_first_pass (fsl)</text>
</g>
<!-- n4_correct (fixes)&#45;&gt;skullstrip_first_pass (fsl) -->
<g id="edge4" class="edge">
<title>n4_correct (fixes)&#45;&gt;skullstrip_first_pass (fsl)</title>
<path fill="none" stroke="#000000" d="M663.7274,-724.6261C609.0989,-712.92 529.4215,-695.8462 470.1267,-683.1402"/>
<polygon fill="#000000" stroke="#000000" points="470.5607,-679.6538 460.0493,-680.9808 469.094,-686.4985 470.5607,-679.6538"/>
</g>
<!-- outputnode (utility) -->
<g id="node6" class="node">
<title>outputnode (utility)</title>
<ellipse fill="none" stroke="#000000" cx="586.139" cy="-18" rx="101.2821" ry="18"/>
<text text-anchor="middle" x="586.139" y="-14.3" font-family="Times,serif" font-size="14.00" fill="#000000">outputnode (utility)</text>
</g>
<!-- n4_correct (fixes)&#45;&gt;outputnode (utility) -->
<g id="edge5" class="edge">
<title>n4_correct (fixes)&#45;&gt;outputnode (utility)</title>
<path fill="none" stroke="#000000" d="M723.6526,-719.855C720.1377,-692.5902 714.139,-639.4068 714.139,-594 714.139,-594 714.139,-594 714.139,-162 714.139,-119.5468 709.4884,-104.4697 682.139,-72 670.6051,-58.3069 654.6674,-47.4068 639.0896,-39.0884"/>
<polygon fill="#000000" stroke="#000000" points="640.4984,-35.8787 629.9953,-34.4874 637.3383,-42.1249 640.4984,-35.8787"/>
</g>
<!-- skullstrip_second_pass (afni) -->
<g id="node7" class="node">
<title>skullstrip_second_pass (afni)</title>
<ellipse fill="none" stroke="#000000" cx="421.139" cy="-306" rx="145.6742" ry="18"/>
<text text-anchor="middle" x="421.139" y="-302.3" font-family="Times,serif" font-size="14.00" fill="#000000">skullstrip_second_pass (afni)</text>
</g>
<!-- fixhdr_unifize (utils)&#45;&gt;skullstrip_second_pass (afni) -->
<g id="edge6" class="edge">
<title>fixhdr_unifize (utils)&#45;&gt;skullstrip_second_pass (afni)</title>
<path fill="none" stroke="#000000" d="M519.2403,-360.7542C501.9451,-351.1011 480.178,-338.952 461.5442,-328.5518"/>
<polygon fill="#000000" stroke="#000000" points="463.1195,-325.4228 452.6817,-323.6053 459.7079,-331.5352 463.1195,-325.4228"/>
</g>
<!-- apply_mask (fsl) -->
<g id="node8" class="node">
<title>apply_mask (fsl)</title>
<ellipse fill="none" stroke="#000000" cx="586.139" cy="-90" rx="87.1846" ry="18"/>
<text text-anchor="middle" x="586.139" y="-86.3" font-family="Times,serif" font-size="14.00" fill="#000000">apply_mask (fsl)</text>
</g>
<!-- fixhdr_unifize (utils)&#45;&gt;apply_mask (fsl) -->
<g id="edge7" class="edge">
<title>fixhdr_unifize (utils)&#45;&gt;apply_mask (fsl)</title>
<path fill="none" stroke="#000000" d="M561.2449,-359.7167C566.8023,-349.5753 573.0005,-336.5148 576.139,-324 594.2773,-251.6736 591.5609,-162.8947 588.5602,-118.3465"/>
<polygon fill="#000000" stroke="#000000" points="592.043,-117.9818 587.8237,-108.2633 585.0616,-118.4918 592.043,-117.9818"/>
</g>
<!-- combine_masks (fsl) -->
<g id="node9" class="node">
<title>combine_masks (fsl)</title>
<ellipse fill="none" stroke="#000000" cx="369.139" cy="-162" rx="105.8812" ry="18"/>
<text text-anchor="middle" x="369.139" y="-158.3" font-family="Times,serif" font-size="14.00" fill="#000000">combine_masks (fsl)</text>
</g>
<!-- fixhdr_skullstrip2 (utils)&#45;&gt;combine_masks (fsl) -->
<g id="edge8" class="edge">
<title>fixhdr_skullstrip2 (utils)&#45;&gt;combine_masks (fsl)</title>
<path fill="none" stroke="#000000" d="M179.1218,-217.8418C216.8392,-206.7575 266.9755,-192.0236 306.2779,-180.4735"/>
<polygon fill="#000000" stroke="#000000" points="307.415,-183.7874 316.0224,-177.6098 305.4413,-177.0714 307.415,-183.7874"/>
</g>
<!-- skullstrip_first_pass (fsl)&#45;&gt;combine_masks (fsl) -->
<g id="edge11" class="edge">
<title>skullstrip_first_pass (fsl)&#45;&gt;combine_masks (fsl)</title>
<path fill="none" stroke="#000000" d="M347.8186,-648.7992C329.6459,-639.8549 309.1788,-627.5153 294.139,-612 262.7305,-579.5985 247.139,-567.1259 247.139,-522 247.139,-522 247.139,-522 247.139,-378 247.139,-337.1184 248.4793,-324.8706 266.139,-288 284.9711,-248.6814 318.5207,-210.9855 342.2047,-187.2404"/>
<polygon fill="#000000" stroke="#000000" points="344.8492,-189.5482 349.5164,-180.0368 339.9365,-184.5617 344.8492,-189.5482"/>
</g>
<!-- skullstrip_first_dilate (fsl) -->
<g id="node10" class="node">
<title>skullstrip_first_dilate (fsl)</title>
<ellipse fill="none" stroke="#000000" cx="445.139" cy="-594" rx="131.8766" ry="18"/>
<text text-anchor="middle" x="445.139" y="-590.3" font-family="Times,serif" font-size="14.00" fill="#000000">skullstrip_first_dilate (fsl)</text>
</g>
<!-- skullstrip_first_pass (fsl)&#45;&gt;skullstrip_first_dilate (fsl) -->
<g id="edge9" class="edge">
<title>skullstrip_first_pass (fsl)&#45;&gt;skullstrip_first_dilate (fsl)</title>
<path fill="none" stroke="#000000" d="M404.0178,-647.8314C410.45,-639.411 418.2123,-629.2495 425.252,-620.0338"/>
<polygon fill="#000000" stroke="#000000" points="428.166,-621.9848 431.4551,-611.9134 422.6033,-617.7355 428.166,-621.9848"/>
</g>
<!-- skullstrip_first_mask (fsl) -->
<g id="node11" class="node">
<title>skullstrip_first_mask (fsl)</title>
<ellipse fill="none" stroke="#000000" cx="445.139" cy="-522" rx="129.9769" ry="18"/>
<text text-anchor="middle" x="445.139" y="-518.3" font-family="Times,serif" font-size="14.00" fill="#000000">skullstrip_first_mask (fsl)</text>
</g>
<!-- skullstrip_first_pass (fsl)&#45;&gt;skullstrip_first_mask (fsl) -->
<g id="edge10" class="edge">
<title>skullstrip_first_pass (fsl)&#45;&gt;skullstrip_first_mask (fsl)</title>
<path fill="none" stroke="#000000" d="M345.4753,-648.9522C329.4797,-640.4236 313.1811,-628.3545 304.139,-612 296.3973,-597.9976 295.0714,-589.1825 304.139,-576 312.9191,-563.2354 343.6534,-550.7455 374.1954,-540.9981"/>
<polygon fill="#000000" stroke="#000000" points="375.5627,-544.2386 384.0768,-537.9329 373.4887,-537.5528 375.5627,-544.2386"/>
</g>
<!-- skullstrip_second_pass (afni)&#45;&gt;fixhdr_skullstrip2 (utils) -->
<g id="edge12" class="edge">
<title>skullstrip_second_pass (afni)&#45;&gt;fixhdr_skullstrip2 (utils)</title>
<path fill="none" stroke="#000000" d="M354.8561,-289.9314C308.2326,-278.6288 245.8205,-263.4985 197.6663,-251.8248"/>
<polygon fill="#000000" stroke="#000000" points="198.4698,-248.4183 187.9267,-249.4637 196.8205,-255.2212 198.4698,-248.4183"/>
</g>
<!-- apply_mask (fsl)&#45;&gt;outputnode (utility) -->
<g id="edge13" class="edge">
<title>apply_mask (fsl)&#45;&gt;outputnode (utility)</title>
<path fill="none" stroke="#000000" d="M586.139,-71.8314C586.139,-64.131 586.139,-54.9743 586.139,-46.4166"/>
<polygon fill="#000000" stroke="#000000" points="589.6391,-46.4132 586.139,-36.4133 582.6391,-46.4133 589.6391,-46.4132"/>
</g>
<!-- combine_masks (fsl)&#45;&gt;outputnode (utility) -->
<g id="edge15" class="edge">
<title>combine_masks (fsl)&#45;&gt;outputnode (utility)</title>
<path fill="none" stroke="#000000" d="M391.273,-144.1991C415.0806,-125.3739 454.349,-95.2422 490.139,-72 507.3241,-60.8399 526.9426,-49.5613 543.9463,-40.2188"/>
<polygon fill="#000000" stroke="#000000" points="545.982,-43.0957 553.0918,-35.2407 542.6353,-36.9475 545.982,-43.0957"/>
</g>
<!-- combine_masks (fsl)&#45;&gt;apply_mask (fsl) -->
<g id="edge14" class="edge">
<title>combine_masks (fsl)&#45;&gt;apply_mask (fsl)</title>
<path fill="none" stroke="#000000" d="M417.5679,-145.9314C451.0218,-134.8315 495.6015,-120.0401 530.5138,-108.4563"/>
<polygon fill="#000000" stroke="#000000" points="531.6983,-111.751 540.0872,-105.2798 529.4938,-105.1071 531.6983,-111.751"/>
</g>
<!-- skullstrip_first_dilate (fsl)&#45;&gt;skullstrip_first_mask (fsl) -->
<g id="edge16" class="edge">
<title>skullstrip_first_dilate (fsl)&#45;&gt;skullstrip_first_mask (fsl)</title>
<path fill="none" stroke="#000000" d="M445.139,-575.8314C445.139,-568.131 445.139,-558.9743 445.139,-550.4166"/>
<polygon fill="#000000" stroke="#000000" points="448.6391,-550.4132 445.139,-540.4133 441.6391,-550.4133 448.6391,-550.4132"/>
</g>
<!-- unifize (afni) -->
<g id="node12" class="node">
<title>unifize (afni)</title>
<ellipse fill="none" stroke="#000000" cx="476.139" cy="-450" rx="69.5877" ry="18"/>
<text text-anchor="middle" x="476.139" y="-446.3" font-family="Times,serif" font-size="14.00" fill="#000000">unifize (afni)</text>
</g>
<!-- skullstrip_first_mask (fsl)&#45;&gt;unifize (afni) -->
<g id="edge17" class="edge">
<title>skullstrip_first_mask (fsl)&#45;&gt;unifize (afni)</title>
<path fill="none" stroke="#000000" d="M452.9616,-503.8314C456.439,-495.7547 460.6062,-486.0761 464.4422,-477.1668"/>
<polygon fill="#000000" stroke="#000000" points="467.6863,-478.4824 468.4263,-467.9134 461.2569,-475.7141 467.6863,-478.4824"/>
</g>
<!-- unifize (afni)&#45;&gt;fixhdr_unifize (utils) -->
<g id="edge18" class="edge">
<title>unifize (afni)&#45;&gt;fixhdr_unifize (utils)</title>
<path fill="none" stroke="#000000" d="M494.0523,-432.5708C503.1873,-423.6827 514.4599,-412.7148 524.4974,-402.9486"/>
<polygon fill="#000000" stroke="#000000" points="527.15,-405.251 531.8765,-395.7689 522.2685,-400.2339 527.15,-405.251"/>
</g>
</g>
</svg>
